<?xml version="1.0" standalone="no"?>
<!DOCTYPE svg PUBLIC "-//W3C//DTD SVG 1.1//EN" "http://www.w3.org/Graphics/SVG/1.1/DTD/svg11.dtd" >
<svg xmlns="http://www.w3.org/2000/svg" xmlns:xlink="http://www.w3.org/1999/xlink" version="1.1">
<metadata>
Created by FontForge 20170731 at Sun Jul 26 01:35:12 2020
 By Aleksey,,,
Copyright (c) 2016 by Daniel Hernandez. All rights reserved.
</metadata>
<defs>
<font id="BasicSans-Light" horiz-adv-x="0" >
  <font-face 
    font-family="Basic Sans Light"
    font-weight="300"
    font-stretch="normal"
    units-per-em="2048"
    panose-1="0 0 4 0 0 0 0 0 0 0"
    ascent="1536"
    descent="-512"
    x-height="958"
    cap-height="1343"
    bbox="-1083 -483 2767 1903"
    underline-thickness="102"
    underline-position="-307"
    unicode-range="U+0020-FB02"
  />
<missing-glyph horiz-adv-x="847" 
 />
    <glyph glyph-name="fi" unicode="fi" horiz-adv-x="1146" 
d="M350 958h516l125 5v-963h-125v856h-516v-856h-125v856h-143v102h143v152q0 157 89 251.5t235 94.5q53 0 104 -13.5t73.5 -25t35.5 -20.5l-47 -99q-1 0 -9.5 6.5t-14 10t-17 10t-23 10.5t-26 8.5t-31.5 6.5t-35 2q-96 0 -152.5 -65.5t-56.5 -174.5v-154zM932 1368
q40 0 69 -27.5t29 -68.5q0 -39 -29 -66.5t-69 -27.5t-68 27t-28 67q0 41 28 68.5t68 27.5z" />
    <glyph glyph-name="fl" unicode="fl" horiz-adv-x="1181" 
d="M225 1110q0 157 89 251.5t235 94.5q53 0 104 -13.5t73.5 -25t35.5 -20.5l-47 -99q-1 0 -9.5 6.5t-14 10t-17 10t-23 10.5t-26 8.5t-31.5 6.5t-35 2q-96 0 -152.5 -65.5t-56.5 -174.5v-154h352v-102h-352v-856h-125v856h-143v102h143v152zM895 1446h123v-1446h-123v1446z
" />
    <glyph glyph-name=".notdef" horiz-adv-x="847" 
 />
    <glyph glyph-name=".null" 
 />
    <glyph glyph-name="nonmarkingreturn" horiz-adv-x="682" 
 />
    <glyph glyph-name="space" unicode=" " horiz-adv-x="491" 
 />
    <glyph glyph-name="exclam" unicode="!" horiz-adv-x="489" 
d="M315 1364l-18 -979l-107 -4l-14 983h139zM244 158q37 0 63.5 -25.5t26.5 -62.5t-26.5 -63.5t-63.5 -26.5t-64.5 26.5t-27.5 63.5q0 36 27.5 62t64.5 26z" />
    <glyph glyph-name="quotedbl" unicode="&#x22;" horiz-adv-x="563" 
d="M135 1112l-6 334h98l-8 -334h-84zM344 1112l-6 334h96l-6 -334h-84z" />
    <glyph glyph-name="numbersign" unicode="#" horiz-adv-x="1314" 
d="M1214 631h-276l-55 -252h274l-20 -90h-273l-63 -289h-111l64 289h-291l-64 -289h-108l63 289h-274l20 90h275l55 252h-272l22 88h269l63 287h109l-64 -287h291l63 287h109l-64 -287h279zM774 379l55 252h-290l-56 -252h291z" />
    <glyph glyph-name="dollar" unicode="$" horiz-adv-x="1110" 
d="M1022 336q0 -146 -111 -239t-301 -105v-199h-98v199q-269 12 -440 153l80 101q171 -144 407 -144q155 0 245.5 64.5t90.5 169.5q0 64 -26.5 113t-70.5 79.5t-102 54.5t-121.5 42.5t-127 38.5t-121.5 48t-102 64.5t-70.5 94.5t-26.5 133q0 148 106 243t279 107v190h98
v-190q308 -21 400 -301l-123 -31q-6 24 -19 50t-39.5 57.5t-61 56t-89 41t-119.5 16.5q-136 0 -219.5 -64.5t-83.5 -172.5q0 -55 26 -97.5t70.5 -69.5t102 -48.5t121 -40.5t127 -40.5t121 -52.5t102 -72t70.5 -104.5t26 -144.5z" />
    <glyph glyph-name="percent" unicode="%" horiz-adv-x="1759" 
d="M524 0l611 1356h120l-610 -1356h-121zM410 594q-152 0 -244 102t-92 271q0 174 91.5 278.5t244.5 104.5t245.5 -104.5t92.5 -278.5q0 -169 -93 -271t-245 -102zM410 705q97 0 157 71.5t60 190.5q0 124 -60 198t-157 74q-96 0 -155.5 -74t-59.5 -198q0 -119 59.5 -190.5
t155.5 -71.5zM1348 -8q-151 0 -243.5 102.5t-92.5 270.5q0 174 92.5 278.5t243.5 104.5q154 0 247 -104.5t93 -278.5q0 -169 -93 -271t-247 -102zM1348 102q98 0 157.5 71.5t59.5 191.5q0 124 -59 198t-158 74q-96 0 -155.5 -74t-59.5 -198q0 -119 59.5 -191t155.5 -72z" />
    <glyph glyph-name="ampersand" unicode="&#x26;" horiz-adv-x="1230" 
d="M1149 600q0 -263 -141 -422l118 -137l-96 -68l-108 127q-151 -108 -379 -108q-199 0 -322 102.5t-123 265.5q0 248 291 353q-137 149 -137 307q0 142 95.5 232.5t244.5 90.5q146 0 231.5 -83t85.5 -213q0 -125 -85.5 -210.5t-252.5 -150.5l361 -418q100 129 100 369z
M592 1241q-98 0 -157.5 -59t-59.5 -156q0 -126 133 -268q157 61 221 121.5t64 154.5q0 93 -54 150t-147 57zM543 106q188 0 303 80l-389 453q0 2 -2 2q-109 -41 -167.5 -105t-58.5 -163q0 -118 87 -192.5t227 -74.5z" />
    <glyph glyph-name="quotesingle" unicode="'" horiz-adv-x="354" 
d="M135 1112l-6 334h98l-8 -334h-84z" />
    <glyph glyph-name="parenleft" unicode="(" horiz-adv-x="563" 
d="M414 -475q-12 15 -33 42.5t-73.5 122.5t-92.5 200t-73 271.5t-33 340.5q0 128 17 251t43.5 216.5t59.5 177t65.5 141t59 100t43.5 62.5l17 20l104 -53q-6 -7 -16.5 -19.5t-40.5 -57t-57 -95t-60.5 -131.5t-57.5 -168t-40.5 -204.5t-16.5 -239.5q0 -121 16 -237.5
t41.5 -206t56.5 -169t61.5 -135t56 -96.5t41.5 -60l16 -20z" />
    <glyph glyph-name="parenright" unicode=")" horiz-adv-x="563" 
d="M457 502q0 -127 -17 -249t-43.5 -216.5t-59.5 -179t-65.5 -144t-59 -103t-43.5 -64.5l-17 -21l-107 53q6 7 16.5 20t40 59t57 97.5t60.5 134.5t56.5 170.5t40 204.5t16.5 238q0 122 -16 239t-41 205.5t-55.5 167t-61.5 132.5t-56 94t-41 58l-16 19l107 53
q12 -14 33 -40.5t73.5 -119t92.5 -196t73 -270t33 -342.5z" />
    <glyph glyph-name="asterisk" unicode="*" horiz-adv-x="860" 
d="M522 756l-102 260l-166 -219l-66 49l187 211l-277 35l13 79l268 -55l-111 246l74 33l98 -258l170 233l66 -51l-191 -217l283 -35l-10 -78l-281 53l119 -251z" />
    <glyph glyph-name="plus" unicode="+" horiz-adv-x="919" 
d="M823 555v-96h-313v-348h-100v348h-314v96h314v311h100v-311h313z" />
    <glyph glyph-name="comma" unicode="," horiz-adv-x="458" 
d="M125 76q0 40 27 65t71 25q50 0 80.5 -34.5t30.5 -92.5q0 -60 -17.5 -115.5t-42 -92t-49 -64.5t-41.5 -41l-18 -13l-62 74q5 4 13 10.5t28.5 28t36 44t28.5 55t13 63.5q-41 0 -69.5 24.5t-28.5 63.5z" />
    <glyph glyph-name="hyphen" unicode="-" horiz-adv-x="804" 
d="M139 616v99h527v-99h-527z" />
    <glyph glyph-name="period" unicode="." horiz-adv-x="438" 
d="M125 80q0 38 28 66t66 28t65 -28t27 -66t-27 -65t-65 -27t-66 27t-28 65z" />
    <glyph glyph-name="slash" unicode="/" horiz-adv-x="813" 
d="M59 -418l570 1864h125l-570 -1864h-125z" />
    <glyph glyph-name="zero" unicode="0" horiz-adv-x="1255" 
d="M625 -12q-242 0 -374 173.5t-132 504.5q0 338 132 514t374 176q246 0 379 -176t133 -514q0 -331 -133.5 -504.5t-378.5 -173.5zM625 102q183 0 282 142.5t99 421.5q0 284 -99.5 430.5t-281.5 146.5q-181 0 -278 -146.5t-97 -430.5q0 -279 97 -421.5t278 -142.5z" />
    <glyph glyph-name="one" unicode="1" horiz-adv-x="714" 
d="M395 0v1204l-346 -92v123l455 108h20v-1343h-129z" />
    <glyph glyph-name="two" unicode="2" horiz-adv-x="1107" 
d="M299 104q49 7 100 7h613v-111h-901v106q37 26 115.5 79t126 86t120 88.5t118.5 98.5t99.5 103.5t84 115.5t51 122.5t20.5 136.5q0 140 -83.5 223.5t-227.5 83.5q-133 0 -216 -69.5t-83 -182.5q0 -43 10 -63l-125 -23q-12 36 -12 92q0 160 118.5 259.5t307.5 99.5
q202 0 321 -113.5t119 -300.5q0 -96 -36.5 -192t-92 -173t-137 -156t-154.5 -135t-162 -116q-69 -44 -98 -59z" />
    <glyph glyph-name="three" unicode="3" horiz-adv-x="1140" 
d="M555 1356q193 0 310.5 -102.5t117.5 -268.5q0 -129 -92 -216t-205 -87v-4q44 0 90 -12t91 -38t80.5 -63t57 -92.5t21.5 -120.5q0 -161 -126 -261.5t-343 -100.5q-101 0 -187 24.5t-136.5 59.5t-86.5 70.5t-49 59.5l-14 25l104 62q5 -8 14 -20.5t42.5 -45t72.5 -57.5
t104 -45.5t136 -20.5q158 0 249 70t91 190q1 125 -97 187t-276 67l-69 2v117l71 2q150 5 239 66t89 172q0 119 -83 193.5t-216 74.5q-131 0 -211 -63t-80 -162q0 -44 10 -64l-124 -22q-13 19 -13 92q0 144 115.5 238t302.5 94z" />
    <glyph glyph-name="four" unicode="4" horiz-adv-x="1167" 
d="M895 1343v-901h207v-110h-207v-332h-127v332h-713v110l662 901h178zM766 442v686q0 79 4 93l-4 2q-4 -9 -59 -88l-439 -586q-70 -98 -75 -103l2 -6q16 2 102 2h469z" />
    <glyph glyph-name="five" unicode="5" horiz-adv-x="1124" 
d="M211 1343h733v-110h-620l-45 -463l6 -2q40 43 118.5 74.5t176.5 31.5q202 0 326 -122.5t124 -319.5q0 -199 -135 -320.5t-354 -121.5q-89 0 -169 23t-130 55.5t-87 64.5t-53 55l-16 23l104 72q5 -7 13.5 -19.5t41 -43.5t69.5 -55t98.5 -43.5t128.5 -19.5q160 0 260 90.5
t100 239.5q0 148 -94 238t-246 90q-53 0 -101 -11.5t-79 -28t-55 -32.5t-34 -28l-11 -11h-129z" />
    <glyph glyph-name="six" unicode="6" horiz-adv-x="1181" 
d="M651 850q189 0 309.5 -116t120.5 -302q0 -199 -126 -321.5t-330 -122.5q-230 0 -369 174t-139 493q0 324 151.5 512.5t401.5 188.5q229 0 372 -152l-73 -84q-12 15 -30.5 31t-54 39t-90.5 38t-118 15q-193 0 -311.5 -157t-118.5 -427q0 -57 2 -84l8 -2q6 46 33 93
t73.5 89t122 68.5t166.5 26.5zM625 102q147 0 237 90.5t90 239.5q0 137 -89 221t-236 84q-157 0 -255 -94t-100 -235q75 -306 353 -306z" />
    <glyph glyph-name="seven" unicode="7" horiz-adv-x="1011" 
d="M963 1343v-110l-539 -1233h-133l506 1137q35 82 47 94l-4 6q-46 -4 -119 -4h-535v-195h-116v305h893z" />
    <glyph glyph-name="eight" unicode="8" horiz-adv-x="1210" 
d="M829 715q131 -35 202 -123t71 -217q0 -172 -137 -278.5t-361 -106.5q-223 0 -360.5 106.5t-137.5 278.5q0 129 71 217t202 123v4q-91 28 -145 106.5t-54 184.5q0 153 118 249.5t306 96.5q190 0 307 -96.5t117 -249.5q0 -106 -54 -184.5t-145 -106.5v-4zM313 1008
q0 -106 80 -173.5t211 -64.5q131 -3 212 64.5t81 173.5q0 109 -80.5 173t-212.5 64q-131 0 -211 -64t-80 -173zM604 102q165 0 266 78.5t101 206.5q0 126 -98.5 197t-268.5 71t-267 -70.5t-97 -197.5q0 -128 100 -206.5t264 -78.5z" />
    <glyph glyph-name="nine" unicode="9" horiz-adv-x="1179" 
d="M555 1356q232 0 370 -173.5t138 -494.5q0 -324 -147 -512t-396 -188q-82 0 -151.5 17.5t-114 45.5t-67.5 48.5t-40 41.5l74 82q11 -14 30 -30t54 -39t89.5 -37.5t117.5 -14.5q192 0 307 156.5t115 425.5q0 15 -1 43t-1 41l-10 2q-6 -46 -32.5 -92.5t-72.5 -88.5
t-121 -68.5t-166 -26.5q-190 0 -311 115.5t-121 301.5q0 199 126.5 322t330.5 123zM553 606q155 0 252 93t102 235q-75 309 -352 309q-145 0 -236.5 -91.5t-91.5 -240.5q0 -135 90 -220t236 -85z" />
    <glyph glyph-name="colon" unicode=":" horiz-adv-x="468" 
d="M141 874q0 38 28.5 66.5t66.5 28.5t65 -28t27 -67q0 -38 -27 -65t-65 -27q-39 0 -67 27t-28 65zM141 80q0 38 28.5 66t66.5 28t65 -28t27 -66t-27 -65t-65 -27q-39 0 -67 27t-28 65z" />
    <glyph glyph-name="semicolon" unicode=";" horiz-adv-x="518" 
d="M170 874q0 38 28 66.5t66 28.5t65 -28t27 -67q0 -38 -27 -65t-65 -27t-66 27t-28 65zM158 76q0 40 27 65t71 25q50 0 80.5 -34.5t30.5 -92.5q0 -60 -17.5 -115.5t-42 -92t-49 -64.5t-42.5 -41l-17 -13l-62 74q5 4 13 10.5t28.5 28t36 44t28.5 55t13 63.5
q-41 0 -69.5 24.5t-28.5 63.5z" />
    <glyph glyph-name="less" unicode="&#x3c;" horiz-adv-x="821" 
d="M72 510v102l630 408v-113l-522 -346l522 -346v-113z" />
    <glyph glyph-name="equal" unicode="=" horiz-adv-x="1079" 
d="M147 662v94h785v-94h-785zM147 270v95h785v-95h-785z" />
    <glyph glyph-name="greater" unicode="&#x3e;" horiz-adv-x="821" 
d="M119 102v113l522 346l-522 346v113l633 -408v-102z" />
    <glyph glyph-name="question" unicode="?" horiz-adv-x="935" 
d="M453 1395q183 0 296 -101t113 -262q0 -62 -20.5 -116t-53.5 -94t-73 -77.5t-80 -74.5t-73 -76t-54 -90.5t-21 -110.5v-20l-116 -4v24q0 71 19.5 131t51.5 102.5t70.5 80.5t77.5 72.5t71 69.5t52 80t20 97q0 113 -78 185.5t-202 72.5q-114 0 -184 -64t-70 -163
q0 -36 10 -56l-125 -20q-12 35 -12 82q0 147 105 239.5t276 92.5zM424 158q38 0 64 -26t26 -64q0 -36 -26 -62t-64 -26q-35 0 -61.5 26.5t-26.5 61.5q0 38 26 64t62 26z" />
    <glyph glyph-name="at" unicode="@" horiz-adv-x="1781" 
d="M1325 90q-90 0 -143.5 49.5t-53.5 136.5v21q-33 -93 -109 -150t-190 -57q-162 0 -261 113t-99 297q0 186 102 297.5t267 111.5q99 0 170 -43t108 -116v147h123v-608q0 -58 32 -90.5t87 -32.5q101 0 175.5 116t74.5 302q0 293 -191 475t-504 182q-219 0 -389 -93
t-265 -265.5t-95 -397.5q0 -320 205 -520.5t534 -200.5q64 0 123.5 7t107 19.5t90 28t75 33t59.5 34.5t46 33t31.5 28.5t19.5 20.5l7 7l35 -43l-1 -1q-61 -71 -177 -129q-181 -89 -416 -89q-176 0 -324.5 57t-252.5 158t-162 244.5t-58 312.5q0 240 102 424t285 283.5
t420 99.5q340 0 547 -196t207 -512q0 -229 -99.5 -361.5t-242.5 -132.5zM856 195q81 0 142.5 43.5t89.5 103.5t28 123v74q0 45 -17 91t-48.5 85.5t-84 64.5t-116.5 25q-115 0 -185.5 -84t-70.5 -221t72 -221t190 -84z" />
    <glyph glyph-name="A" unicode="A" horiz-adv-x="1241" 
d="M1063 0l-139 365h-611l-137 -365h-133l512 1343h129l512 -1343h-133zM354 473h529l-232 612q-10 29 -30 103h-5q-9 -43 -30 -103z" />
    <glyph glyph-name="B" unicode="B" horiz-adv-x="1249" 
d="M856 705q36 -6 71.5 -19t75.5 -40.5t69.5 -64t49 -95t19.5 -128.5q0 -171 -118.5 -264.5t-340.5 -93.5h-489v1343h450q207 0 322.5 -91t115.5 -263q0 -57 -16 -104t-40.5 -76.5t-56 -51.5t-59 -32.5t-53.5 -15.5v-4zM950 983q0 250 -323 250h-305v-485h348
q134 0 207 66.5t73 168.5zM668 111q161 0 252.5 65.5t91.5 194.5q0 133 -90.5 204.5t-243.5 71.5h-356v-536h346z" />
    <glyph glyph-name="C" unicode="C" horiz-adv-x="1300" 
d="M711 1356q107 0 194.5 -31t141.5 -77.5t91.5 -106t53 -113t16.5 -100.5l-123 -21q0 34 -10.5 74.5t-38 87.5t-68 85t-107 63.5t-148.5 25.5q-204 0 -337.5 -154t-133.5 -417q0 -140 39 -250t107.5 -179t158 -105t194.5 -36q73 0 140 20t116 53.5t83.5 66.5t60.5 69
l80 -80q-19 -25 -40 -49t-66.5 -61.5t-95.5 -64t-125 -46.5t-157 -20q-282 0 -453 182t-171 500q0 312 166.5 498t431.5 186z" />
    <glyph glyph-name="D" unicode="D" horiz-adv-x="1353" 
d="M557 1343q320 0 502 -177.5t182 -493.5q0 -327 -161.5 -499.5t-446.5 -172.5h-440v1343h364zM631 111q223 0 352 145t129 416q0 272 -146.5 416.5t-408.5 144.5h-238v-1122h312z" />
    <glyph glyph-name="E" unicode="E" horiz-adv-x="1114" 
d="M1006 1233h-687v-479h619v-109h-619v-534h687v-111h-813v1343h813v-110z" />
    <glyph glyph-name="F" unicode="F" horiz-adv-x="1040" 
d="M981 1233h-662v-488h574v-112h-574v-633h-126v1343h788v-110z" />
    <glyph glyph-name="G" unicode="G" horiz-adv-x="1347" 
d="M633 643h581v-643h-77q-18 79 -25 213q-53 -106 -160.5 -164.5t-257.5 -58.5q-262 0 -421.5 187t-159.5 495q0 307 164.5 495.5t427.5 188.5q108 0 196.5 -30t142.5 -75t91 -103t52.5 -109.5t16.5 -98.5l-121 -20q0 34 -10.5 73t-38.5 84.5t-68.5 81.5t-108 60t-150.5 24
q-204 0 -334.5 -154.5t-130.5 -416.5q0 -257 127 -413.5t342 -156.5q80 0 147 21t112 55.5t76.5 80t45.5 92.5t14 95v89h-473v108z" />
    <glyph glyph-name="H" unicode="H" horiz-adv-x="1443" 
d="M1124 1343h129v-1343h-129v645h-805v-645h-126v1343h126v-589h805v589z" />
    <glyph glyph-name="I" unicode="I" horiz-adv-x="512" 
d="M193 0v1343h126v-1343h-126z" />
    <glyph glyph-name="J" unicode="J" horiz-adv-x="913" 
d="M100 217q115 -115 250 -115q254 0 254 260v981h129v-972q0 -191 -102 -286t-281 -95q-189 0 -330 131z" />
    <glyph glyph-name="K" unicode="K" horiz-adv-x="1173" 
d="M1001 2l-493 602h-189v-604h-126v1343h126v-630h187l495 630h140l-541 -684l545 -657h-144z" />
    <glyph glyph-name="L" unicode="L" horiz-adv-x="1046" 
d="M319 111h701v-111h-827v1343h126v-1232z" />
    <glyph glyph-name="M" unicode="M" horiz-adv-x="1693" 
d="M1501 1343v-1343h-127l2 981q0 105 6 135l-6 2q-2 -5 -9.5 -28.5t-17 -50t-16.5 -42.5l-442 -1001h-82l-453 1010q-23 49 -39 112l-6 -2q6 -36 6 -135l2 -981h-126v1343h145l453 -1019q43 -96 57 -148h4q11 40 59 148l449 1019h141z" />
    <glyph glyph-name="N" unicode="N" horiz-adv-x="1411" 
d="M1219 1343v-1343h-148l-637 975q-94 153 -117 199l-8 -5q8 -32 8 -182l5 -987h-129v1343h147l637 -981q82 -131 115 -196l10 4q-10 115 -10 184l-2 989h129z" />
    <glyph glyph-name="O" unicode="O" horiz-adv-x="1458" 
d="M729 1356q273 0 446 -185t173 -499q0 -156 -46.5 -285t-128.5 -215.5t-196 -134t-248 -47.5q-133 0 -246.5 47.5t-196 134t-129 215.5t-46.5 285q0 157 46.5 286t129 216t196 134.5t246.5 47.5zM729 102q216 0 353 155t137 415t-137 415.5t-353 155.5
q-214 0 -350.5 -155.5t-136.5 -415.5t136.5 -415t350.5 -155z" />
    <glyph glyph-name="P" unicode="P" horiz-adv-x="1187" 
d="M614 1343q234 0 367 -116.5t133 -323.5q0 -203 -129 -318.5t-356 -115.5h-310v-469h-126v1343h421zM610 580q175 0 275 86t100 237q0 154 -101 242t-278 88h-287v-653h291z" />
    <glyph glyph-name="Q" unicode="Q" horiz-adv-x="1458" 
d="M1348 672q0 -264 -126.5 -439.5t-336.5 -226.5q211 -57 405 -69l-26 -105q-297 27 -578 160q-125 7 -230.5 57t-182 136t-119.5 211.5t-43 275.5q0 157 46.5 286t129 216t196 134.5t246.5 47.5q273 0 446 -185t173 -499zM242 672q0 -260 136.5 -415t350.5 -155
q216 0 353 155t137 415t-137 415.5t-353 155.5q-214 0 -350.5 -155.5t-136.5 -415.5z" />
    <glyph glyph-name="R" unicode="R" horiz-adv-x="1218" 
d="M1178 98l10 -102q-35 -6 -78 -6q-70 0 -123 30t-86.5 77.5t-62.5 105.5t-59 116t-66.5 105.5t-94 77.5t-133.5 30h-166v-532h-126v1343h393q223 0 347 -104.5t124 -304.5q0 -148 -89.5 -246.5t-240.5 -134.5q47 -18 87.5 -61t67 -93t56 -104.5t56 -99t65.5 -73t86 -28.5z
M319 635h244q161 0 263 79t102 220q0 142 -92 220.5t-256 78.5h-261v-598z" />
    <glyph glyph-name="S" unicode="S" horiz-adv-x="1130" 
d="M891 1022q-6 24 -19 50t-39.5 57.5t-61 56t-89 41t-119.5 16.5q-136 0 -219.5 -64.5t-83.5 -172.5q0 -55 26 -97.5t70.5 -69.5t102 -48.5t121 -40.5t127 -40.5t121 -52.5t102 -72t70.5 -104.5t26 -144.5q0 -156 -126 -251t-337 -95q-168 0 -290.5 46t-196.5 109l80 101
q171 -144 407 -144q155 0 245.5 64.5t90.5 169.5q0 64 -26.5 113t-70.5 79.5t-102 54.5t-121.5 42.5t-127 38.5t-121.5 48t-102 64.5t-70.5 94.5t-26.5 133q0 158 120.5 255t311.5 97q351 0 451 -303z" />
    <glyph glyph-name="T" unicode="T" horiz-adv-x="1089" 
d="M479 0v1233h-452v110h1036v-110h-455v-1233h-129z" />
    <glyph glyph-name="U" unicode="U" horiz-adv-x="1394" 
d="M1090 1343h127v-813q0 -252 -140.5 -396t-378.5 -144q-240 0 -381 144t-141 396v813h129v-808q0 -208 105 -320.5t288 -112.5q181 0 286.5 112t105.5 316v813z" />
    <glyph glyph-name="V" unicode="V" horiz-adv-x="1226" 
d="M180 1343l402 -1085q11 -33 30 -102h4q4 16 9 33.5t12 37.5t10 31l404 1085h131l-506 -1343h-129l-502 1343h135z" />
    <glyph glyph-name="W" unicode="W" horiz-adv-x="1830" 
d="M1651 1343h129l-391 -1343h-146l-291 1018q-18 58 -34 149h-3q-16 -91 -34 -149l-299 -1018h-142l-389 1343h133l299 -1085q26 -103 29 -115h4q8 38 27 115l313 1085h121l315 -1085l27 -115h4q3 12 29 115z" />
    <glyph glyph-name="X" unicode="X" horiz-adv-x="1179" 
d="M1139 1343l-463 -679l463 -664h-146l-327 463q-30 42 -74 131h-2q-40 -80 -76 -129l-330 -465h-141l461 659l-461 684h152l323 -483q54 -82 72 -127h2q18 45 72 127l327 483h148z" />
    <glyph glyph-name="Y" unicode="Y" horiz-adv-x="1173" 
d="M1128 1343l-475 -831v-512h-129v504l-481 839h141l344 -589q46 -79 60 -138h4q15 62 59 138l344 589h133z" />
    <glyph glyph-name="Z" unicode="Z" horiz-adv-x="1132" 
d="M72 0v111l768 1038q47 61 67 84l-4 6q-60 -6 -121 -6h-690v110h967v-110l-766 -1038q-15 -20 -29.5 -37.5t-26.5 -31t-14 -15.5l4 -5q35 5 121 5h699v-111h-975z" />
    <glyph glyph-name="bracketleft" unicode="[" horiz-adv-x="598" 
d="M182 -418v1864h350v-109h-227v-1646h227v-109h-350z" />
    <glyph glyph-name="backslash" unicode="\" horiz-adv-x="813" 
d="M754 -418h-125l-570 1864h123z" />
    <glyph glyph-name="bracketright" unicode="]" horiz-adv-x="598" 
d="M68 -418v109h225v1646h-225v109h350v-1864h-350z" />
    <glyph glyph-name="asciicircum" unicode="^" horiz-adv-x="745" 
d="M98 1073l201 397h145l201 -397h-115l-159 297l-156 -297h-117z" />
    <glyph glyph-name="underscore" unicode="_" horiz-adv-x="714" 
d="M0 -225v94h715v-94h-715z" />
    <glyph glyph-name="grave" unicode="`" horiz-adv-x="522" 
d="M309 1114l-180 301h164l125 -293z" />
    <glyph glyph-name="a" unicode="a" horiz-adv-x="1075" 
d="M995 104l6 -104l-5 -1q-4 -1 -11 -2.5t-16 -3t-20.5 -2.5t-22.5 -1q-67 0 -106.5 35t-39.5 108v49h-4q-15 -32 -40.5 -61.5t-67.5 -61t-108 -50.5t-146 -19q-150 0 -233 68.5t-83 185.5q0 155 153.5 222.5t461.5 70.5l59 2v73q0 117 -71.5 184.5t-200.5 67.5
q-118 0 -188 -52.5t-70 -143.5q0 -36 10 -56l-117 -20q-12 35 -12 82q0 131 104 213t275 82q184 0 289.5 -96t105.5 -259v-436q0 -41 15 -59.5t49 -18.5q18 0 34 4zM440 94q83 0 151 27t105 65.5t56.5 75t19.5 62.5v125l-59 -3q-249 -3 -368.5 -49t-119.5 -149
q0 -72 54.5 -113t160.5 -41z" />
    <glyph glyph-name="b" unicode="b" horiz-adv-x="1193" 
d="M645 971q200 0 324.5 -135.5t124.5 -356.5t-125.5 -355t-329.5 -134q-143 0 -239 70t-134 180q0 -103 -18 -240h-88v1442h125v-682q47 95 138.5 153t221.5 58zM631 96q153 0 245.5 105.5t92.5 277.5q0 174 -94 279.5t-250 105.5q-80 0 -147 -32.5t-108 -83.5t-63 -109.5
t-22 -114.5v-88q0 -57 21.5 -115.5t62 -109.5t109 -83t153.5 -32z" />
    <glyph glyph-name="c" unicode="c" horiz-adv-x="1050" 
d="M565 969q175 0 281 -91.5t106 -232.5q0 -16 -1.5 -31t-2.5 -22l-2 -8l-117 -9q5 15 5 52q0 105 -72.5 171t-194.5 66q-154 0 -249 -106.5t-95 -280.5t97 -278.5t264 -104.5q188 0 299 125l73 -78q-130 -151 -376 -151q-219 0 -350.5 133.5t-131.5 351.5q0 220 130 357
t337 137z" />
    <glyph glyph-name="d" unicode="d" horiz-adv-x="1193" 
d="M909 1442h123v-1442l-90 -4q-17 164 -14 246h-2q-41 -111 -138.5 -181.5t-238.5 -70.5q-200 0 -325.5 135.5t-125.5 355.5t126.5 355t330.5 135q125 0 216 -55t138 -146v672zM569 96q81 0 148 32.5t107.5 83.5t62.5 110t22 116v86q0 57 -22 115.5t-63 109.5t-110 83
t-153 32q-152 0 -244 -105.5t-92 -277.5q0 -174 94 -279.5t250 -105.5z" />
    <glyph glyph-name="e" unicode="e" horiz-adv-x="1067" 
d="M557 969q191 0 303.5 -120.5t112.5 -313.5q0 -23 -1.5 -43.5t-3.5 -29.5l-1 -9h-742q8 -164 105.5 -261.5t259.5 -97.5q184 0 284 125l78 -72q-127 -157 -370 -157q-222 0 -353 133t-131 354q0 220 128 356t331 136zM557 864q-132 0 -221.5 -87t-106.5 -232h617v8
q0 144 -79 227.5t-210 83.5z" />
    <glyph glyph-name="f" unicode="f" horiz-adv-x="731" 
d="M559 1352q-96 0 -152.5 -65.5t-56.5 -174.5v-154h352v-102h-352v-856h-125v856h-143v102h143v152q0 157 89 251.5t235 94.5q53 0 104 -13.5t73.5 -25t35.5 -20.5l-47 -99q-1 0 -9.5 6.5t-14 10t-17 10t-23 10.5t-26 8.5t-31.5 6.5t-35 2z" />
    <glyph glyph-name="g" unicode="g" horiz-adv-x="1067" 
d="M666 131q167 0 260.5 -69.5t93.5 -194.5q0 -136 -121.5 -215.5t-363.5 -79.5q-233 0 -358.5 71t-125.5 197q0 155 176 217q-110 47 -110 158q0 59 40 100.5t99 55.5q-117 96 -117 256q0 154 107 248t282 94q166 0 271 -82q108 37 108 209l109 -23q0 -106 -54 -166.5
t-112 -68.5q72 -88 72 -211q0 -154 -107.5 -248t-284.5 -94q-106 0 -184 34q-55 -8 -86 -31t-31 -59q0 -56 56.5 -77t171.5 -21h209zM530 866q-121 0 -193.5 -65.5t-72.5 -173.5t72 -174t192 -66q121 0 195 66t74 174q0 107 -73.5 173t-193.5 66zM535 -322q362 0 362 189
q0 82 -62.5 120t-189.5 38h-221q-124 0 -187 -46t-63 -122q0 -179 361 -179z" />
    <glyph glyph-name="h" unicode="h" horiz-adv-x="1155" 
d="M635 969q170 0 270.5 -105t100.5 -276v-588h-125v588q0 125 -71.5 200.5t-195.5 75.5q-78 0 -143 -32t-104.5 -83t-60.5 -110t-21 -117v-522h-125v1446h123v-698q45 97 135 159t217 62z" />
    <glyph glyph-name="i" unicode="i" horiz-adv-x="450" 
d="M328 1272q0 -39 -29.5 -66.5t-69.5 -27.5t-68 27t-28 67q0 41 28 68.5t68 27.5t69.5 -27.5t29.5 -68.5zM164 0v958l125 5v-963h-125z" />
    <glyph glyph-name="j" unicode="j" horiz-adv-x="464" 
d="M342 1272q0 -39 -29 -66.5t-69 -27.5t-68.5 27.5t-28.5 66.5q0 41 28.5 68.5t68.5 27.5t69 -27.5t29 -68.5zM-139 -285q47 -34 127 -34q98 0 143 52.5t45 166.5v1058l125 5v-1043q0 -346 -303 -346q-53 0 -97 13t-61 27l-18 13z" />
    <glyph glyph-name="k" unicode="k" horiz-adv-x="1001" 
d="M834 0l-420 477h-129v-477h-125v1446h125v-866h151l367 378h147l-428 -434l469 -524h-157z" />
    <glyph glyph-name="l" unicode="l" horiz-adv-x="450" 
d="M164 0v1446h123v-1446h-123z" />
    <glyph glyph-name="m" unicode="m" horiz-adv-x="1818" 
d="M1303 967q168 0 267 -105.5t99 -277.5v-584h-125v584q0 126 -69.5 202t-190.5 76q-73 0 -133 -32.5t-97 -83.5t-57 -109t-20 -113v-524h-125v584q0 126 -69.5 202t-190.5 76q-73 0 -133 -32.5t-97 -83.5t-57 -109t-20 -113v-524h-125v958l88 5q18 -120 18 -244
q38 109 126.5 178.5t217.5 69.5q132 0 223 -66.5t125 -183.5q38 109 127.5 179.5t217.5 70.5z" />
    <glyph glyph-name="n" unicode="n" horiz-adv-x="1155" 
d="M633 969q170 0 271.5 -105.5t101.5 -275.5v-588h-125v588q0 124 -72 200t-195 76q-78 0 -143 -32.5t-104 -84t-60.5 -109.5t-21.5 -114v-524h-125v958l88 5q18 -120 18 -244h4q42 108 134.5 179t228.5 71z" />
    <glyph glyph-name="o" unicode="o" horiz-adv-x="1150" 
d="M575 969q214 0 346 -136.5t132 -355.5t-131.5 -353t-346.5 -134t-346 134t-131 353t131.5 355.5t345.5 136.5zM575 94q158 0 254.5 106t96.5 277t-97 279t-254 108t-254.5 -108t-97.5 -279t97 -277t255 -106z" />
    <glyph glyph-name="p" unicode="p" horiz-adv-x="1193" 
d="M645 969q200 0 324.5 -135.5t124.5 -356.5q0 -219 -125.5 -353t-329.5 -134q-121 0 -213.5 56t-140.5 147v-611h-125v1376l88 5q18 -133 18 -244h2q40 110 136 180t241 70zM631 94q153 0 245.5 105.5t92.5 277.5q0 174 -94 280.5t-250 106.5q-82 0 -149 -32.5
t-107.5 -84.5t-62 -111t-21.5 -116v-86q0 -57 22 -115.5t63 -109.5t109.5 -83t151.5 -32z" />
    <glyph glyph-name="q" unicode="q" horiz-adv-x="1193" 
d="M946 958h86v-1376h-123v621q-46 -97 -139 -155t-221 -58q-200 0 -325.5 135.5t-125.5 355.5q0 219 126.5 353.5t330.5 134.5q140 0 237 -70t134 -180h2q-3 103 18 239zM569 94q80 0 146.5 32.5t107.5 83.5t63.5 110t22.5 116v86q0 58 -21.5 116t-62 109.5t-109.5 84
t-155 32.5q-152 0 -244 -105.5t-92 -277.5q0 -174 94 -280.5t250 -106.5z" />
    <glyph glyph-name="r" unicode="r" horiz-adv-x="675" 
d="M543 969q61 0 108 -15l-30 -123q-30 17 -84 17q-69 0 -128 -48t-91.5 -123.5t-32.5 -158.5v-518h-125v958l88 5q18 -120 18 -244h4q31 108 100.5 179t172.5 71z" />
    <glyph glyph-name="s" unicode="s" horiz-adv-x="942" 
d="M702 635q7 35 7 49q0 84 -67.5 132t-174.5 48q-103 0 -163 -45t-60 -119q0 -51 33 -85.5t85.5 -52.5t116 -32t127.5 -31.5t117 -44t86.5 -77.5t34.5 -123q1 -123 -101 -193.5t-274 -70.5q-230 0 -389 136q-4 3 -6 5l78 82q16 -15 37.5 -30t62.5 -38t98 -37t119 -14
q119 0 184.5 43.5t65.5 116.5q0 48 -33 81.5t-86.5 52t-117.5 33.5t-128 34.5t-117.5 47t-86.5 78t-33 121.5q0 117 98 192t256 75q156 0 254 -72t98 -190l-6 -62z" />
    <glyph glyph-name="t" unicode="t" horiz-adv-x="792" 
d="M733 156l43 -101q-11 -8 -30.5 -19t-82.5 -29.5t-128 -18.5q-165 0 -241.5 86.5t-76.5 259.5v522h-158v102h158v291l125 8v-299h389v-102h-389v-518q0 -122 48.5 -182t154.5 -60q52 0 99 15t68 30z" />
    <glyph glyph-name="u" unicode="u" horiz-adv-x="1128" 
d="M846 958h123v-958l-90 -4q-19 127 -19 231h-2q-41 -104 -130 -170.5t-216 -66.5q-168 0 -265 103.5t-97 275.5v589h124v-589q0 -127 67 -201t189 -74q74 0 136 32.5t100 84t59 110t21 113.5v524z" />
    <glyph glyph-name="v" unicode="v" horiz-adv-x="1032" 
d="M858 958h127l-399 -958h-142l-399 958h139l312 -763q15 -39 22 -70h4q6 30 21 70z" />
    <glyph glyph-name="w" unicode="w" horiz-adv-x="1505" 
d="M1323 958h127l-297 -958h-152l-225 729q-12 46 -16 70h-4q-2 -13 -17 -70l-229 -729h-152l-307 958h139l224 -757q4 -15 10 -32t9.5 -28.5t4.5 -15.5h4q1 5 10 33t13 43l229 757h129l230 -753q7 -26 18 -80h4q2 4 10 32.5t15 47.5z" />
    <glyph glyph-name="x" unicode="x" horiz-adv-x="950" 
d="M549 481l356 -481h-147l-256 350q-22 26 -25 43h-2q-6 -18 -24 -43l-256 -350h-144l352 477l-358 481h150l247 -342q30 -46 35 -57h2q7 19 33 57l246 342h143z" />
    <glyph glyph-name="y" unicode="y" horiz-adv-x="1032" 
d="M514 -199q-42 -110 -105 -169.5t-173 -59.5q-36 0 -68.5 7t-47.5 13l-14 7l23 104q41 -22 98 -22q69 0 106.5 37t67.5 114l60 145l-410 981h137l312 -763q17 -38 22 -70h4q7 34 23 70l313 763h127z" />
    <glyph glyph-name="z" unicode="z" horiz-adv-x="915" 
d="M76 0v102l573 711q27 31 39 43l-2 4q-16 -4 -65 -4h-533v102h741v-102l-555 -692q-40 -50 -53 -62l2 -4q14 4 70 4h545v-102h-762z" />
    <glyph glyph-name="braceleft" unicode="{" horiz-adv-x="620" 
d="M555 -428q-52 0 -97 9t-88 32t-73.5 59t-49 93t-18.5 131v409q0 68 -39.5 102.5t-91.5 34.5h-20v103h20q52 0 91.5 34.5t39.5 102.5v451q0 74 18.5 131t49 92.5t73.5 58.5t88 32t97 9v-113q-100 0 -154.5 -57t-54.5 -172v-457q0 -43 -11.5 -76t-29 -50t-32 -25.5
t-27.5 -11.5q11 -3 25.5 -12.5t32.5 -27.5t30 -50.5t12 -73.5v-418q0 -115 54.5 -172t154.5 -57v-111z" />
    <glyph glyph-name="bar" unicode="|" horiz-adv-x="473" 
d="M182 -418v1845h111v-1845h-111z" />
    <glyph glyph-name="braceright" unicode="}" horiz-adv-x="620" 
d="M66 -317q100 0 154 56.5t54 172.5v418q0 35 9 64t19 44.5t28 29.5t24.5 17t20.5 9q-13 3 -26.5 10.5t-32 24.5t-30.5 50.5t-12 77.5v459q0 116 -54.5 173t-153.5 57v110q52 0 97 -9t88.5 -31.5t74 -58t49 -93t18.5 -131.5v-451q0 -68 39.5 -102.5t91.5 -34.5h21v-103h-21
q-52 0 -91.5 -34.5t-39.5 -102.5v-409q0 -91 -27.5 -157t-75.5 -101t-103 -50.5t-121 -15.5v111z" />
    <glyph glyph-name="asciitilde" unicode="~" horiz-adv-x="1159" 
d="M152 518v92q90 64 217 64q82 0 213.5 -41t212.5 -41q54 0 114.5 16.5t102.5 46.5v-94q-92 -63 -217 -63q-81 0 -212.5 41t-213.5 41q-52 0 -114 -17t-103 -45z" />
    <glyph glyph-name="exclamdown" unicode="&#xa1;" horiz-adv-x="454" 
d="M229 791q-38 0 -65 25.5t-27 62.5t27 63.5t65 26.5q36 0 63 -27t27 -63t-27 -62t-63 -26zM156 -416l18 975l107 4l14 -979h-139z" />
    <glyph glyph-name="cent" unicode="&#xa2;" horiz-adv-x="1060" 
d="M590 94q188 0 299 125l76 -78q-121 -140 -338 -149v-197h-97v197q-195 19 -310.5 150.5t-115.5 334.5t115.5 335t310.5 151v190h97v-190q216 -9 338 -150l-76 -78q-111 125 -299 125q-167 0 -263 -104.5t-96 -278.5t96 -278.5t263 -104.5z" />
    <glyph glyph-name="sterling" unicode="&#xa3;" horiz-adv-x="1177" 
d="M338 104q25 5 74 5h643v-109h-899v84q8 5 22.5 13.5t50.5 38t63.5 62.5t50 85t22.5 106q0 71 -35 146h-234v90h183q-63 104 -82 157q-27 73 -27 150q0 187 130 305.5t341 118.5q71 0 134 -13t106.5 -33.5t80 -45.5t58.5 -50t37.5 -45.5t21.5 -33.5l6 -13l-110 -51
q-3 7 -9.5 19t-33.5 42t-61 52.5t-95.5 41.5t-134.5 19q-151 0 -245.5 -87.5t-94.5 -223.5q0 -35 6 -68t21.5 -68.5t25.5 -55.5t34.5 -62t31.5 -55h475v-90h-430q31 -77 31 -146q0 -58 -22 -112t-55 -90t-51.5 -52.5t-31.5 -25.5z" />
    <glyph glyph-name="currency" unicode="&#xa4;" horiz-adv-x="1218" 
d="M252 713q0 104 51 186l-170 170l66 68l168 -168q47 47 110.5 74.5t132.5 27.5q142 0 244 -102l168 168l65 -68l-169 -170q55 -92 55 -186q0 -104 -55 -187l167 -168l-67 -65l-164 162q-45 -46 -108.5 -72.5t-133.5 -26.5q-150 0 -245 103l-170 -172l-66 67l172 174
q-51 82 -51 185zM352 713q0 -106 76 -181t184 -75q107 0 182.5 75t75.5 181q0 108 -75.5 182t-184.5 74q-106 0 -182 -75t-76 -181z" />
    <glyph glyph-name="yen" unicode="&#xa5;" horiz-adv-x="1200" 
d="M1141 1343l-424 -743h303v-94h-354v-156h354v-92h-354v-258h-129v258h-357v92h357v156h-357v94h301l-426 743h142l344 -589q44 -76 59 -138h4q14 59 60 138l344 589h133z" />
    <glyph glyph-name="brokenbar" unicode="&#xa6;" horiz-adv-x="468" 
d="M180 664v763h111v-763h-111zM180 -418v762h111v-762h-111z" />
    <glyph glyph-name="section" unicode="&#xa7;" horiz-adv-x="1153" 
d="M895 168q139 -86 139 -260q0 -156 -126 -246t-337 -90q-170 0 -291.5 47t-195.5 111l80 98q165 -143 407 -143q153 0 243.5 59.5t90.5 163.5q0 75 -42 126t-109 77.5t-148 45.5t-162 41t-148 53t-109 91t-42 147q0 76 45.5 137.5t122.5 94.5q-169 91 -174 289
q-1 157 119 251.5t315 94.5q353 0 451 -303l-123 -33q-8 32 -28 66t-56.5 71.5t-100 61.5t-143.5 24q-136 0 -219.5 -63t-83.5 -168q0 -61 26 -106.5t70.5 -73.5t102 -49t121 -37t127 -33t121 -42.5t102 -59.5t70.5 -89t26 -127q0 -158 -141 -227zM268 494q0 -56 29.5 -95.5
t87 -64t114.5 -39.5t140.5 -34.5t136.5 -37.5q131 44 131 172q0 49 -21 86.5t-52.5 60t-83.5 42t-97.5 30.5t-111 27.5t-109.5 30.5q-74 -12 -119 -59.5t-45 -118.5z" />
    <glyph glyph-name="dieresis" unicode="&#xa8;" horiz-adv-x="694" 
d="M162 1186q-36 0 -61 25t-25 61t25 62t61 26q35 0 60.5 -26.5t25.5 -61.5t-25.5 -60.5t-60.5 -25.5zM535 1186q-35 0 -60.5 25.5t-25.5 60.5t25.5 61.5t60.5 26.5q36 0 61 -26t25 -62t-25 -61t-61 -25z" />
    <glyph glyph-name="copyright" unicode="&#xa9;" horiz-adv-x="1581" 
d="M788 -8q-306 0 -491.5 187t-185.5 495q0 306 185.5 493t491.5 187q307 0 494.5 -187t187.5 -493q0 -203 -84.5 -358t-239.5 -239.5t-358 -84.5zM788 41q281 0 453 174.5t172 458.5t-171.5 456.5t-453.5 172.5q-280 0 -450 -172.5t-170 -456.5q0 -285 170.5 -459
t449.5 -174zM1122 360q-4 -5 -11 -14.5t-35.5 -32.5t-62 -41t-92 -32.5t-124.5 -14.5q-182 0 -293 116t-111 306q0 206 110.5 331.5t291.5 125.5q82 0 148.5 -25t104.5 -64t58 -82t20 -83l-98 -19q-1 7 -3 19t-16.5 42t-37 53t-69 42t-107.5 19q-130 0 -209.5 -97.5
t-79.5 -257.5q0 -148 83.5 -238.5t219.5 -90.5q52 0 98 11.5t75 27.5t50 32t30 27l9 12z" />
    <glyph glyph-name="ordfeminine" unicode="&#xaa;" horiz-adv-x="948" 
d="M838 688l8 -100h-4q-4 -1 -11 -2t-15.5 -2t-19.5 -1.5t-22 -0.5q-129 0 -129 125v22q-13 -25 -32.5 -48t-51.5 -47.5t-83 -39t-113 -14.5q-120 0 -185 54t-65 148q0 126 122.5 179t360.5 55l43 2v55q0 84 -53.5 134t-147.5 50q-87 0 -138.5 -39t-51.5 -106q0 -15 8 -39
l-113 -20q-10 28 -10 67q0 106 84.5 171t224.5 65q150 0 234 -76.5t84 -210.5v-326q0 -31 11.5 -44t37.5 -13q21 0 27 2zM395 678q61 0 111 19.5t78 47.5t42.5 55.5t14.5 47.5v92l-43 -2q-182 -2 -271 -35t-89 -110q0 -53 41 -84t116 -31z" />
    <glyph glyph-name="guillemotleft" unicode="&#xab;" horiz-adv-x="901" 
d="M94 489v103l283 274l65 -73l-266 -252l266 -252l-65 -74zM432 489v103l283 274l65 -73l-266 -252l266 -252l-65 -74z" />
    <glyph glyph-name="registered" unicode="&#xae;" horiz-adv-x="933" 
d="M465 639q-157 0 -256.5 99t-99.5 257q0 160 99.5 260.5t256.5 100.5t257.5 -101t100.5 -260q0 -158 -100 -257t-258 -99zM465 682q139 0 226 88t87 225q0 140 -87.5 230t-225.5 90q-137 0 -223 -89t-86 -231q0 -139 86 -226t223 -87zM651 782q-10 -2 -22 -2
q-28 0 -47.5 17.5t-32 42.5t-25.5 50t-35.5 42.5t-54.5 17.5h-59v-168h-53v437h149q61 0 98 -35t37 -92q0 -28 -9.5 -50.5t-22 -36t-27 -22.5t-24 -12.5t-13.5 -3.5q25 -9 43.5 -33.5t26.5 -48t22.5 -42t34.5 -18.5h8zM459 995q42 0 69 27.5t27 69.5q0 37 -25.5 60.5
t-66.5 23.5h-88v-181h84z" />
    <glyph glyph-name="macron" unicode="&#xaf;" horiz-adv-x="753" 
d="M106 1223v96h541v-96h-541z" />
    <glyph glyph-name="degree" unicode="&#xb0;" horiz-adv-x="708" 
d="M604 1104q0 -110 -69.5 -178t-182.5 -68q-110 0 -179 68t-69 178q0 112 68.5 181t179.5 69q113 0 182.5 -69t69.5 -181zM528 1104q0 79 -49 127.5t-127 48.5t-125 -48t-47 -128q0 -78 47 -126t125 -48t127 48t49 126z" />
    <glyph glyph-name="plusminus" unicode="&#xb1;" horiz-adv-x="1015" 
d="M557 713h315v-97h-315v-268h-98v268h-316v97h316v260h98v-260zM143 121v96h729v-96h-729z" />
    <glyph glyph-name="acute" unicode="&#xb4;" horiz-adv-x="522" 
d="M217 1122l-113 -8l127 301h162z" />
    <glyph glyph-name="paragraph" unicode="&#xb6;" horiz-adv-x="1103" 
d="M821 -412v1686h-184v-1686h-84v1055h-74q-190 0 -306 95.5t-116 252.5q0 158 116 255t306 97h426v-1755h-84z" />
    <glyph glyph-name="periodcentered" unicode="&#xb7;" horiz-adv-x="452" 
d="M133 737q0 38 28 66t66 28t65 -28t27 -66t-27 -65t-65 -27t-66 27t-28 65z" />
    <glyph glyph-name="cedilla" unicode="&#xb8;" horiz-adv-x="542" 
d="M295 -68q64 -7 112 -47t48 -112q0 -75 -55 -118.5t-142 -43.5q-49 0 -91.5 16.5t-60.5 32.5l-18 16l39 74q6 -6 16 -14.5t44.5 -22.5t70.5 -14q46 0 75 21.5t29 56.5q0 39 -43.5 67.5t-138.5 28.5l60 145h92z" />
    <glyph glyph-name="ordmasculine" unicode="&#xba;" horiz-adv-x="964" 
d="M483 1356q171 0 276 -108t105 -281q0 -172 -105 -279.5t-276 -107.5q-172 0 -277.5 107t-105.5 280t105.5 281t277.5 108zM483 684q115 0 185.5 78.5t70.5 204.5q0 128 -70.5 207t-185.5 79q-117 0 -187.5 -79t-70.5 -207q0 -127 71 -205t187 -78z" />
    <glyph glyph-name="guillemotright" unicode="&#xbb;" horiz-adv-x="901" 
d="M186 215l-65 74l266 252l-266 252l65 73l283 -274v-103zM524 215l-65 74l266 252l-266 252l65 73l283 -274v-103z" />
    <glyph glyph-name="onequarter" unicode="&#xbc;" horiz-adv-x="1667" 
d="M391 0l613 1356h120l-610 -1356h-123zM309 602v612l-252 -49v115l353 63h20v-741h-121zM1452 739v-471h150v-102h-150v-166h-123v166h-446l2 117l436 456h131zM1333 268v297q0 47 2 53l-4 5q-4 -7 -39 -48l-248 -264q-29 -29 -49 -41l4 -4q10 2 72 2h262z" />
    <glyph glyph-name="onehalf" unicode="&#xbd;" horiz-adv-x="1656" 
d="M391 0l613 1356h120l-610 -1356h-123zM309 602v612l-252 -49v115l353 63h20v-741h-121zM1137 100q8 2 65 2h375v-102h-633v90q37 22 108.5 62.5t114 65t99 63t87.5 69t54 69.5t23 77q0 65 -50.5 104t-136.5 39q-79 0 -127.5 -36t-48.5 -95q0 -21 6 -27l-121 -24
q-10 20 -10 57q0 101 81.5 167.5t219.5 66.5q145 0 228 -66t83 -184q0 -60 -27.5 -112t-87 -99.5t-98 -72t-114.5 -66.5q-15 -9 -23 -13q-29 -16 -69 -31z" />
    <glyph glyph-name="threequarters" unicode="&#xbe;" horiz-adv-x="1847" 
d="M590 0l610 1356h121l-610 -1356h-121zM412 1350q138 0 221.5 -58.5t83.5 -154.5q0 -71 -56.5 -116.5t-136.5 -45.5v-2q85 0 152 -47t67 -127q0 -91 -88.5 -147t-240.5 -56q-73 0 -135 14.5t-98.5 36t-62 42.5t-34.5 35l-10 15l94 64q3 -4 9.5 -10.5t29 -23.5t48.5 -30
t68.5 -23.5t88.5 -10.5q98 0 151 29.5t53 80.5t-59 78t-156 27h-73v98h57q205 0 205 104q0 53 -48.5 86t-131.5 33q-76 0 -125 -27t-49 -67q0 -15 6 -27l-123 -20l-1 3q-1 3 -2 8.5t-2 12t-2 15.5t-1 18q0 85 84 139t217 54zM1638 739v-471h148v-102h-148v-166h-125v166
h-444l2 117l434 456h133zM1518 268v297q0 47 4 53l-4 5q-2 -3 -7.5 -10t-15 -18t-16.5 -20l-248 -264q-29 -29 -49 -41l2 -4q10 2 73 2h261z" />
    <glyph glyph-name="questiondown" unicode="&#xbf;" horiz-adv-x="923" 
d="M506 791q-38 0 -64 26t-26 64q0 36 26 62t64 26q35 0 61.5 -26.5t26.5 -61.5q0 -38 -26 -64t-62 -26zM477 -446q-184 0 -296.5 100.5t-112.5 261.5q0 62 20.5 116t53.5 94t72.5 77.5t79.5 74.5t73 76t54 90.5t21 110.5v20l117 5v-25q0 -71 -19.5 -131t-51.5 -102.5
t-70.5 -80.5t-77.5 -72.5t-71 -69.5t-52 -80t-20 -97q0 -113 78 -185.5t202 -72.5q113 0 183.5 64t70.5 163q0 36 -10 56l125 20q12 -35 12 -82q0 -147 -105 -239t-276 -92z" />
    <glyph glyph-name="Agrave" unicode="&#xc0;" horiz-adv-x="1241" 
d="M684 1413l-113 -8l-180 248h166zM1063 0l-139 365h-611l-137 -365h-133l512 1343h129l512 -1343h-133zM354 473h529l-232 612q-10 29 -30 103h-5q-9 -43 -30 -103z" />
    <glyph glyph-name="Aacute" unicode="&#xc1;" horiz-adv-x="1241" 
d="M846 1653l-180 -240l-111 -8l127 248h164zM1063 0l-139 365h-611l-137 -365h-133l512 1343h129l512 -1343h-133zM354 473h529l-232 612q-10 29 -30 103h-5q-9 -43 -30 -103z" />
    <glyph glyph-name="Acircumflex" unicode="&#xc2;" horiz-adv-x="1241" 
d="M618 1563l-153 -154l-117 -4l201 258h143l199 -258l-115 4zM1063 0l-139 365h-611l-137 -365h-133l512 1343h129l512 -1343h-133zM354 473h529l-232 612q-10 29 -30 103h-5q-9 -43 -30 -103z" />
    <glyph glyph-name="Atilde" unicode="&#xc3;" horiz-adv-x="1241" 
d="M406 1384h-103q-6 31 -6 68q0 69 44.5 111.5t117.5 42.5q44 0 88 -19t73.5 -41.5t62.5 -41.5t56 -19q70 0 70 76q0 13 -2 26.5t-4 20.5l-2 8h102q8 -29 8 -70q0 -68 -41 -114t-116 -46q-41 0 -85 19t-74.5 41.5t-65.5 41.5t-60 19q-33 0 -52.5 -19t-19.5 -52
q0 -10 2.5 -23t4.5 -21zM1063 0l-139 365h-611l-137 -365h-133l512 1343h129l512 -1343h-133zM354 473h529l-232 612q-10 29 -30 103h-5q-9 -43 -30 -103z" />
    <glyph glyph-name="Adieresis" unicode="&#xc4;" horiz-adv-x="1241" 
d="M436 1444q-35 0 -60.5 24.5t-25.5 59.5t25.5 60.5t60.5 25.5q34 0 59 -25.5t25 -60.5t-25 -59.5t-59 -24.5zM809 1444q-34 0 -60 24.5t-26 59.5t26 60.5t60 25.5q35 0 60.5 -25.5t25.5 -60.5t-25.5 -59.5t-60.5 -24.5zM1063 0l-139 365h-611l-137 -365h-133l512 1343h129
l512 -1343h-133zM354 473h529l-232 612q-10 29 -30 103h-5q-9 -43 -30 -103z" />
    <glyph glyph-name="Aring" unicode="&#xc5;" horiz-adv-x="1241" 
d="M618 1382q-65 0 -110 44t-45 108q0 66 45 110t110 44t109.5 -44t44.5 -110q0 -64 -44.5 -108t-109.5 -44zM618 1612q-32 0 -53.5 -22t-21.5 -56q0 -32 21.5 -54t53.5 -22t54 22t22 54q0 34 -22 56t-54 22zM1063 0l-139 365h-611l-137 -365h-133l512 1343h129l512 -1343
h-133zM354 473h529l-232 612q-10 29 -30 103h-5q-9 -43 -30 -103z" />
    <glyph glyph-name="AE" unicode="&#xc6;" horiz-adv-x="1935" 
d="M1827 1233h-686v-479h618v-109h-618v-534h686v-111h-813v365h-615l-278 -365h-135l1024 1343h817v-110zM481 473h533v698z" />
    <glyph glyph-name="Ccedilla" unicode="&#xc7;" horiz-adv-x="1300" 
d="M1221 231q-17 -24 -37.5 -47t-62 -58t-87.5 -61.5t-114.5 -47.5t-143.5 -25l-24 -60q64 -7 111.5 -47t47.5 -112q0 -75 -54.5 -118.5t-141.5 -43.5q-49 0 -91.5 16.5t-60.5 32.5l-18 16l39 74q6 -6 16 -14.5t44.5 -22.5t70.5 -14q46 0 75 21.5t29 56.5q0 39 -43.5 67.5
t-138.5 28.5l49 119q-261 18 -417 197.5t-156 482.5q0 312 166.5 498t431.5 186q107 0 194.5 -31t141.5 -77.5t91.5 -106t53 -113t16.5 -100.5l-123 -21q0 34 -10.5 74.5t-38 87.5t-68 85t-107 63.5t-148.5 25.5q-204 0 -337.5 -154t-133.5 -417q0 -140 39 -250t107.5 -179
t158 -105t194.5 -36q73 0 140 20t116 53.5t83.5 66.5t60.5 69z" />
    <glyph glyph-name="Egrave" unicode="&#xc8;" horiz-adv-x="1114" 
d="M692 1413l-112 -8l-181 248h166zM1006 1233h-687v-479h619v-109h-619v-534h687v-111h-813v1343h813v-110z" />
    <glyph glyph-name="Eacute" unicode="&#xc9;" horiz-adv-x="1114" 
d="M854 1653l-180 -240l-111 -8l127 248h164zM1006 1233h-687v-479h619v-109h-619v-534h687v-111h-813v1343h813v-110z" />
    <glyph glyph-name="Ecircumflex" unicode="&#xca;" horiz-adv-x="1114" 
d="M627 1563l-154 -154l-117 -4l201 258h143l199 -258l-115 4zM1006 1233h-687v-479h619v-109h-619v-534h687v-111h-813v1343h813v-110z" />
    <glyph glyph-name="Edieresis" unicode="&#xcb;" horiz-adv-x="1114" 
d="M444 1444q-35 0 -60.5 24.5t-25.5 59.5t25.5 60.5t60.5 25.5q34 0 59 -25.5t25 -60.5t-25 -59.5t-59 -24.5zM817 1444q-34 0 -60 24.5t-26 59.5t26 60.5t60 25.5q35 0 60.5 -25.5t25.5 -60.5t-25.5 -59.5t-60.5 -24.5zM1006 1233h-687v-479h619v-109h-619v-534h687v-111
h-813v1343h813v-110z" />
    <glyph glyph-name="Igrave" unicode="&#xcc;" horiz-adv-x="512" 
d="M209 1405l-180 248h166l127 -240zM193 0v1343h126v-1343h-126z" />
    <glyph glyph-name="Iacute" unicode="&#xcd;" horiz-adv-x="512" 
d="M303 1413l-110 -8l126 248h164zM193 0v1343h126v-1343h-126z" />
    <glyph glyph-name="Icircumflex" unicode="&#xce;" horiz-adv-x="512" 
d="M330 1663l198 -258l-114 4l-158 154l-154 -154l-116 -4l200 258h144zM193 0v1343h126v-1343h-126z" />
    <glyph glyph-name="Idieresis" unicode="&#xcf;" horiz-adv-x="512" 
d="M74 1444q-35 0 -60.5 24.5t-25.5 59.5t25.5 60.5t60.5 25.5q34 0 59 -25.5t25 -60.5t-25 -59.5t-59 -24.5zM446 1444q-34 0 -60 24.5t-26 59.5t26 60.5t60 25.5q35 0 60.5 -25.5t25.5 -60.5t-25.5 -59.5t-60.5 -24.5zM193 0v1343h126v-1343h-126z" />
    <glyph glyph-name="Eth" unicode="&#xd0;" horiz-adv-x="1353" 
d="M557 1343q320 0 502 -177.5t182 -493.5q0 -327 -161.5 -499.5t-446.5 -172.5h-440v616h-173v105h173v622h364zM631 111q223 0 352 145t129 416q0 272 -146.5 416.5t-408.5 144.5h-238v-512h383v-105h-383v-505h312z" />
    <glyph glyph-name="Ntilde" unicode="&#xd1;" horiz-adv-x="1411" 
d="M1040 1616q9 -29 9 -70q0 -68 -41.5 -114t-116.5 -46q-41 0 -85 19t-74.5 41.5t-65.5 41.5t-60 19q-33 0 -52 -19t-19 -52q0 -10 2 -23t4 -21l2 -8h-103q-6 31 -6 68q0 69 44.5 111.5t117.5 42.5q44 0 88 -19t74 -41.5t63 -41.5t56 -19q69 0 69 76q0 13 -2 26.5t-4 20.5
l-2 8h102zM1219 1343v-1343h-148l-637 975q-94 153 -117 199l-8 -5q8 -32 8 -182l5 -987h-129v1343h147l637 -981q82 -131 115 -196l10 4q-10 115 -10 184l-2 989h129z" />
    <glyph glyph-name="Ograve" unicode="&#xd2;" horiz-adv-x="1458" 
d="M682 1405l-180 248h166l127 -240zM729 1356q273 0 446 -185t173 -499q0 -156 -46.5 -285t-128.5 -215.5t-196 -134t-248 -47.5q-133 0 -246.5 47.5t-196 134t-129 215.5t-46.5 285q0 157 46.5 286t129 216t196 134.5t246.5 47.5zM729 102q216 0 353 155t137 415
t-137 415.5t-353 155.5q-214 0 -350.5 -155.5t-136.5 -415.5t136.5 -415t350.5 -155z" />
    <glyph glyph-name="Oacute" unicode="&#xd3;" horiz-adv-x="1458" 
d="M776 1413l-110 -8l127 248h163zM729 1356q273 0 446 -185t173 -499q0 -156 -46.5 -285t-128.5 -215.5t-196 -134t-248 -47.5q-133 0 -246.5 47.5t-196 134t-129 215.5t-46.5 285q0 157 46.5 286t129 216t196 134.5t246.5 47.5zM729 102q216 0 353 155t137 415t-137 415.5
t-353 155.5q-214 0 -350.5 -155.5t-136.5 -415.5t136.5 -415t350.5 -155z" />
    <glyph glyph-name="Ocircumflex" unicode="&#xd4;" horiz-adv-x="1458" 
d="M803 1663l198 -258l-114 4l-158 154l-154 -154l-116 -4l200 258h144zM729 1356q273 0 446 -185t173 -499q0 -156 -46.5 -285t-128.5 -215.5t-196 -134t-248 -47.5q-133 0 -246.5 47.5t-196 134t-129 215.5t-46.5 285q0 157 46.5 286t129 216t196 134.5t246.5 47.5z
M729 102q216 0 353 155t137 415t-137 415.5t-353 155.5q-214 0 -350.5 -155.5t-136.5 -415.5t136.5 -415t350.5 -155z" />
    <glyph glyph-name="Otilde" unicode="&#xd5;" horiz-adv-x="1458" 
d="M1014 1616q8 -29 8 -70q0 -68 -41.5 -114t-116.5 -46q-41 0 -84.5 19t-74.5 41.5t-65.5 41.5t-59.5 19q-33 0 -52.5 -19t-19.5 -52q0 -10 2 -23t4 -21l2 -8h-102q-6 31 -6 68q0 69 44 111.5t117 42.5q44 0 88 -19t74 -41.5t63 -41.5t56 -19q70 0 70 76q0 13 -2 26.5
t-4 20.5l-3 8h103zM729 1356q273 0 446 -185t173 -499q0 -156 -46.5 -285t-128.5 -215.5t-196 -134t-248 -47.5q-133 0 -246.5 47.5t-196 134t-129 215.5t-46.5 285q0 157 46.5 286t129 216t196 134.5t246.5 47.5zM729 102q216 0 353 155t137 415t-137 415.5t-353 155.5
q-214 0 -350.5 -155.5t-136.5 -415.5t136.5 -415t350.5 -155z" />
    <glyph glyph-name="Odieresis" unicode="&#xd6;" horiz-adv-x="1458" 
d="M547 1444q-35 0 -60.5 24.5t-25.5 59.5t25.5 60.5t60.5 25.5q34 0 59 -25.5t25 -60.5t-25 -59.5t-59 -24.5zM920 1444q-34 0 -60 24.5t-26 59.5t26 60.5t60 25.5q35 0 60.5 -25.5t25.5 -60.5t-25.5 -59.5t-60.5 -24.5zM729 1356q273 0 446 -185t173 -499
q0 -156 -46.5 -285t-128.5 -215.5t-196 -134t-248 -47.5q-133 0 -246.5 47.5t-196 134t-129 215.5t-46.5 285q0 157 46.5 286t129 216t196 134.5t246.5 47.5zM729 102q216 0 353 155t137 415t-137 415.5t-353 155.5q-214 0 -350.5 -155.5t-136.5 -415.5t136.5 -415
t350.5 -155z" />
    <glyph glyph-name="multiply" unicode="&#xd7;" horiz-adv-x="905" 
d="M772 745l-250 -249l250 -250l-70 -68l-249 250l-250 -250l-70 68l250 250l-250 249l70 68l250 -250l249 250z" />
    <glyph glyph-name="Oslash" unicode="&#xd8;" horiz-adv-x="1458" 
d="M1147 1198q96 -90 148.5 -224t52.5 -302q0 -156 -46.5 -285t-128.5 -215.5t-196 -134t-248 -47.5q-189 0 -332 90l-112 -170h-133l159 237q-96 89 -148 223.5t-52 301.5q0 157 46.5 286t129 216t196 134.5t246.5 47.5q189 0 332 -90l96 143h131zM242 672q0 -260 139 -418
l612 911q-113 78 -264 78q-214 0 -350.5 -155.5t-136.5 -415.5zM729 102q216 0 353 155t137 415q0 261 -142 422l-612 -914q116 -78 264 -78z" />
    <glyph glyph-name="Ugrave" unicode="&#xd9;" horiz-adv-x="1394" 
d="M651 1405l-180 248h166l127 -240zM1090 1343h127v-813q0 -252 -140.5 -396t-378.5 -144q-240 0 -381 144t-141 396v813h129v-808q0 -208 105 -320.5t288 -112.5q181 0 286.5 112t105.5 316v813z" />
    <glyph glyph-name="Uacute" unicode="&#xda;" horiz-adv-x="1394" 
d="M745 1413l-110 -8l127 248h164zM1090 1343h127v-813q0 -252 -140.5 -396t-378.5 -144q-240 0 -381 144t-141 396v813h129v-808q0 -208 105 -320.5t288 -112.5q181 0 286.5 112t105.5 316v813z" />
    <glyph glyph-name="Ucircumflex" unicode="&#xdb;" horiz-adv-x="1394" 
d="M772 1663l199 -258l-115 4l-158 154l-153 -154l-117 -4l201 258h143zM1090 1343h127v-813q0 -252 -140.5 -396t-378.5 -144q-240 0 -381 144t-141 396v813h129v-808q0 -208 105 -320.5t288 -112.5q181 0 286.5 112t105.5 316v813z" />
    <glyph glyph-name="Udieresis" unicode="&#xdc;" horiz-adv-x="1394" 
d="M516 1444q-35 0 -60.5 24.5t-25.5 59.5t25.5 60.5t60.5 25.5q34 0 59 -25.5t25 -60.5t-25 -59.5t-59 -24.5zM889 1444q-34 0 -60 24.5t-26 59.5t26 60.5t60 25.5q35 0 60.5 -25.5t25.5 -60.5t-25.5 -59.5t-60.5 -24.5zM1090 1343h127v-813q0 -252 -140.5 -396
t-378.5 -144q-240 0 -381 144t-141 396v813h129v-808q0 -208 105 -320.5t288 -112.5q181 0 286.5 112t105.5 316v813z" />
    <glyph glyph-name="Yacute" unicode="&#xdd;" horiz-adv-x="1173" 
d="M815 1653l-180 -240l-111 -8l127 248h164zM1128 1343l-475 -831v-512h-129v504l-481 839h141l344 -589q46 -79 60 -138h4q15 62 59 138l344 589h133z" />
    <glyph glyph-name="Thorn" unicode="&#xde;" horiz-adv-x="1200" 
d="M616 1120q236 0 369 -117t133 -323q0 -204 -129 -319t-358 -115h-312v-246h-126v1343h126v-223h297zM612 354q175 0 275 87t100 239q0 154 -101 242t-276 88h-291v-656h293z" />
    <glyph glyph-name="germandbls" unicode="&#xdf;" horiz-adv-x="1118" 
d="M725 748q141 -35 219 -133.5t78 -239.5q0 -177 -105.5 -281t-306.5 -104q-56 0 -108 6t-76 12l-23 6l23 107q71 -27 186 -27q132 0 208.5 77t76.5 206q0 140 -93.5 223.5t-262.5 83.5h-54v102h23q117 1 192.5 87.5t75.5 218.5q0 117 -70.5 188.5t-183.5 71.5
q-112 0 -175.5 -71t-63.5 -202v-1079h-125v1098q0 162 98.5 260t263.5 98q169 0 276 -101t107 -265q0 -108 -48 -197.5t-132 -144.5z" />
    <glyph glyph-name="agrave" unicode="&#xe0;" horiz-adv-x="1075" 
d="M573 1122l-108 -8l-180 301h164zM995 104l6 -104l-5 -1q-4 -1 -11 -2.5t-16 -3t-20.5 -2.5t-22.5 -1q-67 0 -106.5 35t-39.5 108v49h-4q-15 -32 -40.5 -61.5t-67.5 -61t-108 -50.5t-146 -19q-150 0 -233 68.5t-83 185.5q0 155 153.5 222.5t461.5 70.5l59 2v73
q0 117 -71.5 184.5t-200.5 67.5q-118 0 -188 -52.5t-70 -143.5q0 -36 10 -56l-117 -20q-12 35 -12 82q0 131 104 213t275 82q184 0 289.5 -96t105.5 -259v-436q0 -41 15 -59.5t49 -18.5q18 0 34 4zM440 94q83 0 151 27t105 65.5t56.5 75t19.5 62.5v125l-59 -3
q-249 -3 -368.5 -49t-119.5 -149q0 -72 54.5 -113t160.5 -41z" />
    <glyph glyph-name="aacute" unicode="&#xe1;" horiz-adv-x="1075" 
d="M684 1415l-176 -293l-113 -8l127 301h162zM995 104l6 -104l-5 -1q-4 -1 -11 -2.5t-16 -3t-20.5 -2.5t-22.5 -1q-67 0 -106.5 35t-39.5 108v49h-4q-15 -32 -40.5 -61.5t-67.5 -61t-108 -50.5t-146 -19q-150 0 -233 68.5t-83 185.5q0 155 153.5 222.5t461.5 70.5l59 2v73
q0 117 -71.5 184.5t-200.5 67.5q-118 0 -188 -52.5t-70 -143.5q0 -36 10 -56l-117 -20q-12 35 -12 82q0 131 104 213t275 82q184 0 289.5 -96t105.5 -259v-436q0 -41 15 -59.5t49 -18.5q18 0 34 4zM440 94q83 0 151 27t105 65.5t56.5 75t19.5 62.5v125l-59 -3
q-249 -3 -368.5 -49t-119.5 -149q0 -72 54.5 -113t160.5 -41z" />
    <glyph glyph-name="acircumflex" unicode="&#xe2;" horiz-adv-x="1075" 
d="M500 1313l-154 -195l-117 -4l201 299h143l199 -299l-115 4zM995 104l6 -104l-5 -1q-4 -1 -11 -2.5t-16 -3t-20.5 -2.5t-22.5 -1q-67 0 -106.5 35t-39.5 108v49h-4q-15 -32 -40.5 -61.5t-67.5 -61t-108 -50.5t-146 -19q-150 0 -233 68.5t-83 185.5q0 155 153.5 222.5
t461.5 70.5l59 2v73q0 117 -71.5 184.5t-200.5 67.5q-118 0 -188 -52.5t-70 -143.5q0 -36 10 -56l-117 -20q-12 35 -12 82q0 131 104 213t275 82q184 0 289.5 -96t105.5 -259v-436q0 -41 15 -59.5t49 -18.5q18 0 34 4zM440 94q83 0 151 27t105 65.5t56.5 75t19.5 62.5v125
l-59 -3q-249 -3 -368.5 -49t-119.5 -149q0 -72 54.5 -113t160.5 -41z" />
    <glyph glyph-name="atilde" unicode="&#xe3;" horiz-adv-x="1075" 
d="M291 1141h-103q-6 30 -6 69q0 66 45 113t117 47q44 0 88 -19t74 -41.5t63 -41.5t56 -19q69 0 69 76q0 13 -2 26.5t-4 20.5l-2 8h102q9 -28 9 -69q0 -69 -42.5 -114.5t-121.5 -45.5q-49 0 -102.5 30.5t-98.5 60.5t-74 30q-33 0 -54 -19t-21 -57q0 -12 2 -26t4 -22z
M995 104l6 -104l-5 -1q-4 -1 -11 -2.5t-16 -3t-20.5 -2.5t-22.5 -1q-67 0 -106.5 35t-39.5 108v49h-4q-15 -32 -40.5 -61.5t-67.5 -61t-108 -50.5t-146 -19q-150 0 -233 68.5t-83 185.5q0 155 153.5 222.5t461.5 70.5l59 2v73q0 117 -71.5 184.5t-200.5 67.5
q-118 0 -188 -52.5t-70 -143.5q0 -36 10 -56l-117 -20q-12 35 -12 82q0 131 104 213t275 82q184 0 289.5 -96t105.5 -259v-436q0 -41 15 -59.5t49 -18.5q18 0 34 4zM440 94q83 0 151 27t105 65.5t56.5 75t19.5 62.5v125l-59 -3q-249 -3 -368.5 -49t-119.5 -149
q0 -72 54.5 -113t160.5 -41z" />
    <glyph glyph-name="adieresis" unicode="&#xe4;" horiz-adv-x="1075" 
d="M324 1186q-36 0 -61 25t-25 61t25 62t61 26q35 0 60.5 -26.5t25.5 -61.5t-25.5 -60.5t-60.5 -25.5zM696 1186q-35 0 -60.5 25.5t-25.5 60.5t25.5 61.5t60.5 26.5q36 0 61 -26t25 -62t-25 -61t-61 -25zM995 104l6 -104l-5 -1q-4 -1 -11 -2.5t-16 -3t-20.5 -2.5t-22.5 -1
q-67 0 -106.5 35t-39.5 108v49h-4q-15 -32 -40.5 -61.5t-67.5 -61t-108 -50.5t-146 -19q-150 0 -233 68.5t-83 185.5q0 155 153.5 222.5t461.5 70.5l59 2v73q0 117 -71.5 184.5t-200.5 67.5q-118 0 -188 -52.5t-70 -143.5q0 -36 10 -56l-117 -20q-12 35 -12 82
q0 131 104 213t275 82q184 0 289.5 -96t105.5 -259v-436q0 -41 15 -59.5t49 -18.5q18 0 34 4zM440 94q83 0 151 27t105 65.5t56.5 75t19.5 62.5v125l-59 -3q-249 -3 -368.5 -49t-119.5 -149q0 -72 54.5 -113t160.5 -41z" />
    <glyph glyph-name="aring" unicode="&#xe5;" horiz-adv-x="1075" 
d="M504 1102q-69 0 -117.5 46.5t-48.5 115.5q0 70 48 116.5t118 46.5t118 -46.5t48 -116.5q0 -69 -48.5 -115.5t-117.5 -46.5zM504 1343q-34 0 -57 -22t-23 -57q0 -34 23 -57t57 -23t57 23t23 57q0 35 -23 57t-57 22zM995 104l6 -104l-5 -1q-4 -1 -11 -2.5t-16 -3
t-20.5 -2.5t-22.5 -1q-67 0 -106.5 35t-39.5 108v49h-4q-15 -32 -40.5 -61.5t-67.5 -61t-108 -50.5t-146 -19q-150 0 -233 68.5t-83 185.5q0 155 153.5 222.5t461.5 70.5l59 2v73q0 117 -71.5 184.5t-200.5 67.5q-118 0 -188 -52.5t-70 -143.5q0 -36 10 -56l-117 -20
q-12 35 -12 82q0 131 104 213t275 82q184 0 289.5 -96t105.5 -259v-436q0 -41 15 -59.5t49 -18.5q18 0 34 4zM440 94q83 0 151 27t105 65.5t56.5 75t19.5 62.5v125l-59 -3q-249 -3 -368.5 -49t-119.5 -149q0 -72 54.5 -113t160.5 -41z" />
    <glyph glyph-name="ae" unicode="&#xe6;" horiz-adv-x="1738" 
d="M1229 969q191 0 303.5 -120.5t112.5 -313.5q0 -23 -1.5 -43.5t-3.5 -29.5l-2 -9h-741q8 -164 106 -261.5t261 -97.5q182 0 282 125l78 -72q-127 -157 -371 -157q-150 0 -261 64.5t-169 181.5h-6q-11 -36 -37 -74t-72 -79t-123 -67t-171 -26q-150 0 -233 68.5t-83 185.5
q0 155 153.5 222.5t461.5 70.5l59 2v73q0 117 -71.5 184.5t-200.5 67.5q-118 0 -188 -52.5t-70 -143.5q0 -22 10 -62l-115 -20q-14 35 -14 88q0 131 104 213t275 82q125 0 217.5 -52.5t138.5 -140.5q61 91 157 142t214 51zM1231 864q-133 0 -223 -87t-107 -232h619v8
q0 143 -79.5 227t-209.5 84zM440 94q84 0 151.5 26.5t104.5 65t56.5 76.5t19.5 68v119l-59 -3q-249 -3 -368.5 -49t-119.5 -149q0 -72 54.5 -113t160.5 -41z" />
    <glyph glyph-name="ccedilla" unicode="&#xe7;" horiz-adv-x="1050" 
d="M956 141q-124 -145 -356 -151l-25 -58q64 -7 112 -47t48 -112q0 -75 -54.5 -118.5t-141.5 -43.5q-49 0 -91.5 16.5t-60.5 32.5l-18 16l39 74q6 -6 16 -14.5t44.5 -22.5t70.5 -14q46 0 75 21.5t29 56.5q0 39 -43.5 67.5t-138.5 28.5l49 121q-189 22 -300.5 152t-111.5 329
q0 220 130 357t337 137q175 0 281 -91.5t106 -232.5q0 -16 -1.5 -31t-2.5 -22l-2 -8l-117 -9q5 15 5 52q0 105 -72.5 171t-194.5 66q-154 0 -249 -106.5t-95 -280.5t97 -278.5t264 -104.5q188 0 299 125z" />
    <glyph glyph-name="egrave" unicode="&#xe8;" horiz-adv-x="1067" 
d="M625 1122l-109 -8l-180 301h164zM557 969q191 0 303.5 -120.5t112.5 -313.5q0 -23 -1.5 -43.5t-3.5 -29.5l-1 -9h-742q8 -164 105.5 -261.5t259.5 -97.5q184 0 284 125l78 -72q-127 -157 -370 -157q-222 0 -353 133t-131 354q0 220 128 356t331 136zM557 864
q-132 0 -221.5 -87t-106.5 -232h617v8q0 144 -79 227.5t-210 83.5z" />
    <glyph glyph-name="eacute" unicode="&#xe9;" horiz-adv-x="1067" 
d="M735 1415l-176 -293l-113 -8l127 301h162zM557 969q191 0 303.5 -120.5t112.5 -313.5q0 -23 -1.5 -43.5t-3.5 -29.5l-1 -9h-742q8 -164 105.5 -261.5t259.5 -97.5q184 0 284 125l78 -72q-127 -157 -370 -157q-222 0 -353 133t-131 354q0 220 128 356t331 136zM557 864
q-132 0 -221.5 -87t-106.5 -232h617v8q0 144 -79 227.5t-210 83.5z" />
    <glyph glyph-name="ecircumflex" unicode="&#xea;" horiz-adv-x="1067" 
d="M551 1313l-154 -195l-116 -4l200 299h144l198 -299l-114 4zM557 969q191 0 303.5 -120.5t112.5 -313.5q0 -23 -1.5 -43.5t-3.5 -29.5l-1 -9h-742q8 -164 105.5 -261.5t259.5 -97.5q184 0 284 125l78 -72q-127 -157 -370 -157q-222 0 -353 133t-131 354q0 220 128 356
t331 136zM557 864q-132 0 -221.5 -87t-106.5 -232h617v8q0 144 -79 227.5t-210 83.5z" />
    <glyph glyph-name="edieresis" unicode="&#xeb;" horiz-adv-x="1067" 
d="M375 1186q-36 0 -61 25t-25 61t25 62t61 26q35 0 60.5 -26.5t25.5 -61.5t-25.5 -60.5t-60.5 -25.5zM748 1186q-35 0 -60.5 25.5t-25.5 60.5t25.5 61.5t60.5 26.5q36 0 61 -26t25 -62t-25 -61t-61 -25zM557 969q191 0 303.5 -120.5t112.5 -313.5q0 -23 -1.5 -43.5
t-3.5 -29.5l-1 -9h-742q8 -164 105.5 -261.5t259.5 -97.5q184 0 284 125l78 -72q-127 -157 -370 -157q-222 0 -353 133t-131 354q0 220 128 356t331 136zM557 864q-132 0 -221.5 -87t-106.5 -232h617v8q0 144 -79 227.5t-210 83.5z" />
    <glyph glyph-name="igrave" unicode="&#xec;" horiz-adv-x="450" 
d="M164 1114l-180 301h163l125 -293zM164 0v958l125 5v-963h-125z" />
    <glyph glyph-name="iacute" unicode="&#xed;" horiz-adv-x="450" 
d="M274 1122l-112 -8l127 301h162zM164 0v958l125 5v-963h-125z" />
    <glyph glyph-name="icircumflex" unicode="&#xee;" horiz-adv-x="450" 
d="M-53 1114l200 299h144l198 -299l-114 4l-158 195l-154 -195zM164 0v958l125 5v-963h-125z" />
    <glyph glyph-name="idieresis" unicode="&#xef;" horiz-adv-x="450" 
d="M41 1186q-36 0 -61 25t-25 61t25 62t61 26q35 0 60.5 -26.5t25.5 -61.5t-25.5 -60.5t-60.5 -25.5zM414 1186q-35 0 -60.5 25.5t-25.5 60.5t25.5 61.5t60.5 26.5q36 0 61 -26t25 -62t-25 -61t-61 -25zM164 0v958l125 5v-963h-125z" />
    <glyph glyph-name="eth" unicode="&#xf0;" horiz-adv-x="1146" 
d="M788 1233q238 -259 238 -723q0 -246 -130.5 -384t-348.5 -138q-192 0 -319.5 122t-127.5 322q0 216 123 339.5t314 123.5q77 0 143 -21t109.5 -54.5t71 -70t40.5 -73.5q-10 141 -69 269.5t-154 223.5l-182 -106l-47 82l155 90q-126 92 -256 106l72 105q170 -39 297 -146
l184 109l47 -82zM555 94q159 0 253.5 99.5t94.5 261.5q0 143 -97 239.5t-249 96.5q-146 0 -241 -97.5t-95 -259.5q0 -152 94.5 -246t239.5 -94z" />
    <glyph glyph-name="ntilde" unicode="&#xf1;" horiz-adv-x="1155" 
d="M369 1141h-103q-6 30 -6 69q0 66 45 113t117 47q44 0 88 -19t73.5 -41.5t62.5 -41.5t56 -19q70 0 70 76q0 13 -2 26.5t-4 20.5l-2 8h102q8 -28 8 -69q0 -69 -42 -114.5t-121 -45.5q-49 0 -102.5 30.5t-98.5 60.5t-74 30q-33 0 -54.5 -19t-21.5 -57q0 -12 2 -26t4 -22z
M633 969q170 0 271.5 -105.5t101.5 -275.5v-588h-125v588q0 124 -72 200t-195 76q-78 0 -143 -32.5t-104 -84t-60.5 -109.5t-21.5 -114v-524h-125v958l88 5q18 -120 18 -244h4q42 108 134.5 179t228.5 71z" />
    <glyph glyph-name="ograve" unicode="&#xf2;" horiz-adv-x="1150" 
d="M537 1114l-181 301h164l125 -293zM575 969q214 0 346 -136.5t132 -355.5t-131.5 -353t-346.5 -134t-346 134t-131 353t131.5 355.5t345.5 136.5zM575 94q158 0 254.5 106t96.5 277t-97 279t-254 108t-254.5 -108t-97.5 -279t97 -277t255 -106z" />
    <glyph glyph-name="oacute" unicode="&#xf3;" horiz-adv-x="1150" 
d="M580 1122l-113 -8l127 301h162zM575 969q214 0 346 -136.5t132 -355.5t-131.5 -353t-346.5 -134t-346 134t-131 353t131.5 355.5t345.5 136.5zM575 94q158 0 254.5 106t96.5 277t-97 279t-254 108t-254.5 -108t-97.5 -279t97 -277t255 -106z" />
    <glyph glyph-name="ocircumflex" unicode="&#xf4;" horiz-adv-x="1150" 
d="M301 1114l201 299h143l199 -299l-115 4l-158 195l-153 -195zM575 969q214 0 346 -136.5t132 -355.5t-131.5 -353t-346.5 -134t-346 134t-131 353t131.5 355.5t345.5 136.5zM575 94q158 0 254.5 106t96.5 277t-97 279t-254 108t-254.5 -108t-97.5 -279t97 -277t255 -106z
" />
    <glyph glyph-name="otilde" unicode="&#xf5;" horiz-adv-x="1150" 
d="M860 1380q8 -28 8 -69q0 -69 -42 -114.5t-121 -45.5q-49 0 -102.5 30.5t-98.5 60.5t-74 30q-33 0 -54.5 -19t-21.5 -57q0 -12 2 -26t4 -22l2 -7h-102q-6 30 -6 69q0 66 45 113t117 47q44 0 88 -19t73.5 -41.5t62.5 -41.5t56 -19q70 0 70 76q0 13 -2 26.5t-4 20.5l-2 8
h102zM575 969q214 0 346 -136.5t132 -355.5t-131.5 -353t-346.5 -134t-346 134t-131 353t131.5 355.5t345.5 136.5zM575 94q158 0 254.5 106t96.5 277t-97 279t-254 108t-254.5 -108t-97.5 -279t97 -277t255 -106z" />
    <glyph glyph-name="odieresis" unicode="&#xf6;" horiz-adv-x="1150" 
d="M395 1186q-36 0 -61 25t-25 61t25 62t61 26q35 0 60.5 -26.5t25.5 -61.5t-25.5 -60.5t-60.5 -25.5zM768 1186q-35 0 -60.5 25.5t-25.5 60.5t25.5 61.5t60.5 26.5q36 0 61 -26t25 -62t-25 -61t-61 -25zM575 969q214 0 346 -136.5t132 -355.5t-131.5 -353t-346.5 -134
t-346 134t-131 353t131.5 355.5t345.5 136.5zM575 94q158 0 254.5 106t96.5 277t-97 279t-254 108t-254.5 -108t-97.5 -279t97 -277t255 -106z" />
    <glyph glyph-name="divide" unicode="&#xf7;" horiz-adv-x="999" 
d="M418 891q0 35 26.5 61.5t61.5 26.5q36 0 62 -26t26 -62q0 -37 -25.5 -62.5t-62.5 -25.5q-36 0 -62 26t-26 62zM137 455v94h725v-94h-725zM418 82q0 35 26.5 61.5t61.5 26.5q36 0 62 -26t26 -62q0 -37 -25.5 -62.5t-62.5 -25.5q-36 0 -62 26t-26 62z" />
    <glyph glyph-name="oslash" unicode="&#xf8;" horiz-adv-x="1150" 
d="M881 870q83 -67 127.5 -167.5t44.5 -225.5q0 -219 -131.5 -353t-346.5 -134q-127 0 -229 51l-63 -98h-105l92 143q-83 65 -127.5 165.5t-44.5 225.5q0 219 131.5 355.5t345.5 136.5q130 0 232 -54l63 99h103zM223 477q0 -184 113 -291l412 635q-73 43 -173 43
q-157 0 -254.5 -108t-97.5 -279zM575 94q158 0 254.5 106t96.5 277q0 185 -111 293l-409 -635q74 -41 169 -41z" />
    <glyph glyph-name="ugrave" unicode="&#xf9;" horiz-adv-x="1128" 
d="M627 1122l-109 -8l-180 301h164zM846 958h123v-958l-90 -4q-19 127 -19 231h-2q-41 -104 -130 -170.5t-216 -66.5q-168 0 -265 103.5t-97 275.5v589h124v-589q0 -127 67 -201t189 -74q74 0 136 32.5t100 84t59 110t21 113.5v524z" />
    <glyph glyph-name="uacute" unicode="&#xfa;" horiz-adv-x="1128" 
d="M737 1415l-176 -293l-112 -8l126 301h162zM846 958h123v-958l-90 -4q-19 127 -19 231h-2q-41 -104 -130 -170.5t-216 -66.5q-168 0 -265 103.5t-97 275.5v589h124v-589q0 -127 67 -201t189 -74q74 0 136 32.5t100 84t59 110t21 113.5v524z" />
    <glyph glyph-name="ucircumflex" unicode="&#xfb;" horiz-adv-x="1128" 
d="M553 1313l-154 -195l-116 -4l200 299h144l198 -299l-114 4zM846 958h123v-958l-90 -4q-19 127 -19 231h-2q-41 -104 -130 -170.5t-216 -66.5q-168 0 -265 103.5t-97 275.5v589h124v-589q0 -127 67 -201t189 -74q74 0 136 32.5t100 84t59 110t21 113.5v524z" />
    <glyph glyph-name="udieresis" unicode="&#xfc;" horiz-adv-x="1128" 
d="M377 1186q-36 0 -61 25t-25 61t25 62t61 26q35 0 60.5 -26.5t25.5 -61.5t-25.5 -60.5t-60.5 -25.5zM750 1186q-35 0 -60.5 25.5t-25.5 60.5t25.5 61.5t60.5 26.5q36 0 61 -26t25 -62t-25 -61t-61 -25zM846 958h123v-958l-90 -4q-19 127 -19 231h-2q-41 -104 -130 -170.5
t-216 -66.5q-168 0 -265 103.5t-97 275.5v589h124v-589q0 -127 67 -201t189 -74q74 0 136 32.5t100 84t59 110t21 113.5v524z" />
    <glyph glyph-name="yacute" unicode="&#xfd;" horiz-adv-x="1032" 
d="M520 1122l-112 -8l127 301h161zM514 -199q-42 -110 -105 -169.5t-173 -59.5q-36 0 -68.5 7t-47.5 13l-14 7l23 104q41 -22 98 -22q69 0 106.5 37t67.5 114l60 145l-410 981h137l312 -763q17 -38 22 -70h4q7 34 23 70l313 763h127z" />
    <glyph glyph-name="thorn" unicode="&#xfe;" horiz-adv-x="1193" 
d="M645 969q200 0 324.5 -135.5t124.5 -356.5q0 -219 -125.5 -353t-329.5 -134q-121 0 -213.5 56t-140.5 147v-611h-125v1845h121v-677q46 98 138.5 158.5t225.5 60.5zM631 94q153 0 245.5 105.5t92.5 277.5q0 174 -94 280.5t-250 106.5q-82 0 -149 -32.5t-107.5 -84.5
t-62 -111t-21.5 -116v-86q0 -57 22 -115.5t63 -109.5t109.5 -83t151.5 -32z" />
    <glyph glyph-name="ydieresis" unicode="&#xff;" horiz-adv-x="1032" 
d="M336 1186q-36 0 -61 25t-25 61t25 62t61 26q35 0 60.5 -26.5t25.5 -61.5t-25.5 -60.5t-60.5 -25.5zM709 1186q-35 0 -60.5 25.5t-25.5 60.5t25.5 61.5t60.5 26.5q36 0 61 -26t25 -62t-25 -61t-61 -25zM514 -199q-42 -110 -105 -169.5t-173 -59.5q-36 0 -68.5 7t-47.5 13
l-14 7l23 104q41 -22 98 -22q69 0 106.5 37t67.5 114l60 145l-410 981h137l312 -763q17 -38 22 -70h4q7 34 23 70l313 763h127z" />
    <glyph glyph-name="Amacron" unicode="&#x100;" horiz-adv-x="1241" 
d="M901 1548v-94h-545v94h545zM1063 0l-139 365h-611l-137 -365h-133l512 1343h129l512 -1343h-133zM354 473h529l-232 612q-10 29 -30 103h-5q-9 -43 -30 -103z" />
    <glyph glyph-name="amacron" unicode="&#x101;" horiz-adv-x="1075" 
d="M780 1319v-96h-540v96h540zM995 104l6 -104l-5 -1q-4 -1 -11 -2.5t-16 -3t-20.5 -2.5t-22.5 -1q-67 0 -106.5 35t-39.5 108v49h-4q-15 -32 -40.5 -61.5t-67.5 -61t-108 -50.5t-146 -19q-150 0 -233 68.5t-83 185.5q0 155 153.5 222.5t461.5 70.5l59 2v73
q0 117 -71.5 184.5t-200.5 67.5q-118 0 -188 -52.5t-70 -143.5q0 -36 10 -56l-117 -20q-12 35 -12 82q0 131 104 213t275 82q184 0 289.5 -96t105.5 -259v-436q0 -41 15 -59.5t49 -18.5q18 0 34 4zM440 94q83 0 151 27t105 65.5t56.5 75t19.5 62.5v125l-59 -3
q-249 -3 -368.5 -49t-119.5 -149q0 -72 54.5 -113t160.5 -41z" />
    <glyph glyph-name="Abreve" unicode="&#x102;" horiz-adv-x="1241" 
d="M618 1403q-110 0 -173.5 67.5t-63.5 171.5h98q0 -68 36.5 -107t102.5 -40q66 0 103 39.5t37 107.5h98q0 -104 -64 -171.5t-174 -67.5zM1063 0l-139 365h-611l-137 -365h-133l512 1343h129l512 -1343h-133zM354 473h529l-232 612q-10 29 -30 103h-5q-9 -43 -30 -103z" />
    <glyph glyph-name="abreve" unicode="&#x103;" horiz-adv-x="1075" 
d="M504 1112q-122 0 -190 77.5t-68 203.5h106q0 -90 40.5 -138.5t111.5 -50.5q70 0 110.5 49.5t40.5 139.5h107q0 -126 -68 -203.5t-190 -77.5zM995 104l6 -104l-5 -1q-4 -1 -11 -2.5t-16 -3t-20.5 -2.5t-22.5 -1q-67 0 -106.5 35t-39.5 108v49h-4q-15 -32 -40.5 -61.5
t-67.5 -61t-108 -50.5t-146 -19q-150 0 -233 68.5t-83 185.5q0 155 153.5 222.5t461.5 70.5l59 2v73q0 117 -71.5 184.5t-200.5 67.5q-118 0 -188 -52.5t-70 -143.5q0 -36 10 -56l-117 -20q-12 35 -12 82q0 131 104 213t275 82q184 0 289.5 -96t105.5 -259v-436
q0 -41 15 -59.5t49 -18.5q18 0 34 4zM440 94q83 0 151 27t105 65.5t56.5 75t19.5 62.5v125l-59 -3q-249 -3 -368.5 -49t-119.5 -149q0 -72 54.5 -113t160.5 -41z" />
    <glyph glyph-name="Aogonek" unicode="&#x104;" horiz-adv-x="1241" 
d="M1225 -256l37 -74q-6 -7 -18 -17t-52 -27t-84 -17q-82 0 -133 46t-51 122q0 138 137 227l-137 361h-611l-137 -365h-133l512 1343h129l512 -1343q-7 -2 -18.5 -6.5t-41 -22.5t-52.5 -39t-41.5 -58t-18.5 -79q0 -45 27.5 -71.5t70.5 -26.5q27 0 53 11.5t38 23.5zM354 473
h529l-232 612q-10 29 -30 103h-5q-9 -43 -30 -103z" />
    <glyph glyph-name="aogonek" unicode="&#x105;" horiz-adv-x="1075" 
d="M1030 -256l37 -74q-6 -7 -18 -17t-52 -27t-84 -17q-82 0 -133 46t-51 122q0 136 133 223q-82 30 -82 133v49h-4q-15 -32 -40.5 -61.5t-67.5 -61t-108 -50.5t-146 -19q-150 0 -233 68.5t-83 185.5q0 155 153.5 222.5t461.5 70.5l59 2v73q0 117 -71.5 184.5t-200.5 67.5
q-118 0 -188 -52.5t-70 -143.5q0 -36 10 -56l-117 -20q-12 35 -12 82q0 131 104 213t275 82q184 0 289.5 -96t105.5 -259v-436q0 -41 15 -59.5t49 -18.5q18 0 34 4l6 -104q-7 -2 -18.5 -6.5t-41 -22.5t-52.5 -39t-41.5 -58t-18.5 -79q0 -45 27.5 -71.5t71.5 -26.5
q27 0 52.5 11.5t37.5 23.5zM440 94q83 0 151 27t105 65.5t56.5 75t19.5 62.5v125l-59 -3q-249 -3 -368.5 -49t-119.5 -149q0 -72 54.5 -113t160.5 -41z" />
    <glyph glyph-name="Cacute" unicode="&#x106;" horiz-adv-x="1300" 
d="M760 1413l-111 -8l127 248h164zM711 1356q107 0 194.5 -31t141.5 -77.5t91.5 -106t53 -113t16.5 -100.5l-123 -21q0 34 -10.5 74.5t-38 87.5t-68 85t-107 63.5t-148.5 25.5q-204 0 -337.5 -154t-133.5 -417q0 -140 39 -250t107.5 -179t158 -105t194.5 -36q73 0 140 20
t116 53.5t83.5 66.5t60.5 69l80 -80q-19 -25 -40 -49t-66.5 -61.5t-95.5 -64t-125 -46.5t-157 -20q-282 0 -453 182t-171 500q0 312 166.5 498t431.5 186z" />
    <glyph glyph-name="cacute" unicode="&#x107;" horiz-adv-x="1050" 
d="M569 1122l-112 -8l127 301h161zM565 969q175 0 281 -91.5t106 -232.5q0 -16 -1.5 -31t-2.5 -22l-2 -8l-117 -9q5 15 5 52q0 105 -72.5 171t-194.5 66q-154 0 -249 -106.5t-95 -280.5t97 -278.5t264 -104.5q188 0 299 125l73 -78q-130 -151 -376 -151q-219 0 -350.5 133.5
t-131.5 351.5q0 220 130 357t337 137z" />
    <glyph glyph-name="Ccircumflex" unicode="&#x108;" horiz-adv-x="1300" 
d="M786 1663l199 -258l-115 4l-157 154l-154 -154l-117 -4l201 258h143zM711 1356q107 0 194.5 -31t141.5 -77.5t91.5 -106t53 -113t16.5 -100.5l-123 -21q0 34 -10.5 74.5t-38 87.5t-68 85t-107 63.5t-148.5 25.5q-204 0 -337.5 -154t-133.5 -417q0 -140 39 -250
t107.5 -179t158 -105t194.5 -36q73 0 140 20t116 53.5t83.5 66.5t60.5 69l80 -80q-19 -25 -40 -49t-66.5 -61.5t-95.5 -64t-125 -46.5t-157 -20q-282 0 -453 182t-171 500q0 312 166.5 498t431.5 186z" />
    <glyph glyph-name="ccircumflex" unicode="&#x109;" horiz-adv-x="1050" 
d="M291 1114l201 299h143l199 -299l-115 4l-158 195l-153 -195zM565 969q175 0 281 -91.5t106 -232.5q0 -16 -1.5 -31t-2.5 -22l-2 -8l-117 -9q5 15 5 52q0 105 -72.5 171t-194.5 66q-154 0 -249 -106.5t-95 -280.5t97 -278.5t264 -104.5q188 0 299 125l73 -78
q-130 -151 -376 -151q-219 0 -350.5 133.5t-131.5 351.5q0 220 130 357t337 137z" />
    <glyph glyph-name="Cdotaccent" unicode="&#x10a;" horiz-adv-x="1300" 
d="M713 1430q-40 0 -68.5 27.5t-28.5 66.5q0 40 28.5 68t68.5 28t69 -28t29 -68q0 -39 -29 -66.5t-69 -27.5zM711 1356q107 0 194.5 -31t141.5 -77.5t91.5 -106t53 -113t16.5 -100.5l-123 -21q0 34 -10.5 74.5t-38 87.5t-68 85t-107 63.5t-148.5 25.5q-204 0 -337.5 -154
t-133.5 -417q0 -140 39 -250t107.5 -179t158 -105t194.5 -36q73 0 140 20t116 53.5t83.5 66.5t60.5 69l80 -80q-19 -25 -40 -49t-66.5 -61.5t-95.5 -64t-125 -46.5t-157 -20q-282 0 -453 182t-171 500q0 312 166.5 498t431.5 186z" />
    <glyph glyph-name="cdotaccent" unicode="&#x10b;" horiz-adv-x="1050" 
d="M664 1272q0 -39 -29.5 -66.5t-69.5 -27.5t-68 27t-28 67q0 41 28 68.5t68 27.5t69.5 -27.5t29.5 -68.5zM565 969q175 0 281 -91.5t106 -232.5q0 -16 -1.5 -31t-2.5 -22l-2 -8l-117 -9q5 15 5 52q0 105 -72.5 171t-194.5 66q-154 0 -249 -106.5t-95 -280.5t97 -278.5
t264 -104.5q188 0 299 125l73 -78q-130 -151 -376 -151q-219 0 -350.5 133.5t-131.5 351.5q0 220 130 357t337 137z" />
    <glyph glyph-name="Ccaron" unicode="&#x10c;" horiz-adv-x="1300" 
d="M442 1673l117 -4l154 -153l157 153l115 4l-199 -258h-143zM711 1356q107 0 194.5 -31t141.5 -77.5t91.5 -106t53 -113t16.5 -100.5l-123 -21q0 34 -10.5 74.5t-38 87.5t-68 85t-107 63.5t-148.5 25.5q-204 0 -337.5 -154t-133.5 -417q0 -140 39 -250t107.5 -179t158 -105
t194.5 -36q73 0 140 20t116 53.5t83.5 66.5t60.5 69l80 -80q-19 -25 -40 -49t-66.5 -61.5t-95.5 -64t-125 -46.5t-157 -20q-282 0 -453 182t-171 500q0 312 166.5 498t431.5 186z" />
    <glyph glyph-name="ccaron" unicode="&#x10d;" horiz-adv-x="1050" 
d="M295 1413l117 -4l153 -195l158 195l115 4l-199 -299h-143zM565 969q175 0 281 -91.5t106 -232.5q0 -16 -1.5 -31t-2.5 -22l-2 -8l-117 -9q5 15 5 52q0 105 -72.5 171t-194.5 66q-154 0 -249 -106.5t-95 -280.5t97 -278.5t264 -104.5q188 0 299 125l73 -78
q-130 -151 -376 -151q-219 0 -350.5 133.5t-131.5 351.5q0 220 130 357t337 137z" />
    <glyph glyph-name="Dcaron" unicode="&#x10e;" horiz-adv-x="1353" 
d="M666 1411h-144l-200 258l116 -4l154 -154l158 154l114 4zM557 1343q320 0 502 -177.5t182 -493.5q0 -327 -161.5 -499.5t-446.5 -172.5h-440v1343h364zM631 111q223 0 352 145t129 416q0 272 -146.5 416.5t-408.5 144.5h-238v-1122h312z" />
    <glyph glyph-name="dcaron" unicode="&#x10f;" horiz-adv-x="1218" 
d="M1243 1468q43 0 71.5 -28.5t28.5 -77.5q0 -56 -14.5 -107t-35.5 -83t-41.5 -56t-35.5 -34l-14 -11l-51 68q4 2 10.5 7t23 20t29 30.5t23 39t10.5 46.5q-40 0 -69 27t-29 65q0 39 27.5 66.5t66.5 27.5zM909 770v672h123v-1442l-90 -4q-17 164 -14 246h-2
q-41 -111 -138.5 -181.5t-238.5 -70.5q-200 0 -325.5 135.5t-125.5 355.5t126.5 355t330.5 135q125 0 216 -55t138 -146zM569 96q81 0 148 32.5t107.5 83.5t62.5 110t22 116v86q0 57 -22 115.5t-63 109.5t-110 83t-153 32q-152 0 -244 -105.5t-92 -277.5q0 -174 94 -279.5
t250 -105.5z" />
    <glyph glyph-name="Dcroat" unicode="&#x110;" horiz-adv-x="1353" 
d="M557 1343q320 0 502 -177.5t182 -493.5q0 -327 -161.5 -499.5t-446.5 -172.5h-440v616h-173v105h173v622h364zM631 111q223 0 352 145t129 416q0 272 -146.5 416.5t-408.5 144.5h-238v-512h383v-105h-383v-505h312z" />
    <glyph glyph-name="dcroat" unicode="&#x111;" horiz-adv-x="1193" 
d="M1157 1237v-92h-125v-1145l-90 -4q-17 164 -14 246h-2q-41 -111 -138.5 -181.5t-238.5 -70.5q-200 0 -325.5 135.5t-125.5 355.5t126.5 355t330.5 135q125 0 216 -55t138 -146v375h-301v92h301v205h123v-205h125zM569 96q81 0 148 32.5t107.5 83.5t62.5 110t22 116v86
q0 57 -22 115.5t-63 109.5t-110 83t-153 32q-152 0 -244 -105.5t-92 -277.5q0 -174 94 -279.5t250 -105.5z" />
    <glyph glyph-name="Emacron" unicode="&#x112;" horiz-adv-x="1114" 
d="M909 1548v-94h-544v94h544zM1006 1233h-687v-479h619v-109h-619v-534h687v-111h-813v1343h813v-110z" />
    <glyph glyph-name="emacron" unicode="&#x113;" horiz-adv-x="1067" 
d="M831 1319v-96h-540v96h540zM557 969q191 0 303.5 -120.5t112.5 -313.5q0 -23 -1.5 -43.5t-3.5 -29.5l-1 -9h-742q8 -164 105.5 -261.5t259.5 -97.5q184 0 284 125l78 -72q-127 -157 -370 -157q-222 0 -353 133t-131 354q0 220 128 356t331 136zM557 864
q-132 0 -221.5 -87t-106.5 -232h617v8q0 144 -79 227.5t-210 83.5z" />
    <glyph glyph-name="Ebreve" unicode="&#x114;" horiz-adv-x="1114" 
d="M627 1403q-110 0 -174 67.5t-64 171.5h98q0 -68 37 -107t103 -40q65 0 102 39.5t37 107.5h98q0 -104 -63.5 -171.5t-173.5 -67.5zM1006 1233h-687v-479h619v-109h-619v-534h687v-111h-813v1343h813v-110z" />
    <glyph glyph-name="ebreve" unicode="&#x115;" horiz-adv-x="1067" 
d="M555 1112q-122 0 -190 77.5t-68 203.5h106q0 -90 40.5 -138.5t111.5 -50.5q70 0 111 49.5t41 139.5h106q0 -126 -68 -203.5t-190 -77.5zM557 969q191 0 303.5 -120.5t112.5 -313.5q0 -23 -1.5 -43.5t-3.5 -29.5l-1 -9h-742q8 -164 105.5 -261.5t259.5 -97.5
q184 0 284 125l78 -72q-127 -157 -370 -157q-222 0 -353 133t-131 354q0 220 128 356t331 136zM557 864q-132 0 -221.5 -87t-106.5 -232h617v8q0 144 -79 227.5t-210 83.5z" />
    <glyph glyph-name="Edotaccent" unicode="&#x116;" horiz-adv-x="1114" 
d="M627 1430q-40 0 -68.5 27.5t-28.5 66.5q0 40 28.5 68t68.5 28t69 -28t29 -68q0 -39 -29 -66.5t-69 -27.5zM1006 1233h-687v-479h619v-109h-619v-534h687v-111h-813v1343h813v-110z" />
    <glyph glyph-name="edotaccent" unicode="&#x117;" horiz-adv-x="1067" 
d="M555 1178q-40 0 -68 27t-28 67q0 41 28 68.5t68 27.5t69 -27.5t29 -68.5q0 -39 -29 -66.5t-69 -27.5zM557 969q191 0 303.5 -120.5t112.5 -313.5q0 -23 -1.5 -43.5t-3.5 -29.5l-1 -9h-742q8 -164 105.5 -261.5t259.5 -97.5q184 0 284 125l78 -72q-127 -157 -370 -157
q-222 0 -353 133t-131 354q0 220 128 356t331 136zM557 864q-132 0 -221.5 -87t-106.5 -232h617v8q0 144 -79 227.5t-210 83.5z" />
    <glyph glyph-name="Eogonek" unicode="&#x118;" horiz-adv-x="1114" 
d="M1034 -256l37 -74q-6 -7 -17.5 -17t-51.5 -27t-84 -17q-82 0 -133.5 46t-51.5 122q0 140 133 223h-673v1343h813v-110h-687v-479h619v-109h-619v-534h687v-111q-7 -2 -18.5 -6.5t-41 -22.5t-52.5 -39t-41.5 -58t-18.5 -79q0 -45 27.5 -71.5t70.5 -26.5q27 0 52.5 11.5
t37.5 23.5z" />
    <glyph glyph-name="eogonek" unicode="&#x119;" horiz-adv-x="1067" 
d="M557 969q191 0 303.5 -120.5t112.5 -313.5q0 -23 -1.5 -43.5t-3.5 -29.5l-1 -9h-742q8 -164 105.5 -261.5t259.5 -97.5q184 0 284 125l78 -72q-74 -89 -190 -131q-121 -69 -121 -180q0 -45 27.5 -71.5t70.5 -26.5q27 0 53 12t38 24l12 11l37 -74q-6 -7 -18 -17t-52 -27
t-84 -17q-82 0 -133 46t-51 122q0 101 71 172h-30q-222 0 -353 133t-131 354q0 220 128 356t331 136zM557 864q-132 0 -221.5 -87t-106.5 -232h617v8q0 144 -79 227.5t-210 83.5z" />
    <glyph glyph-name="Ecaron" unicode="&#x11a;" horiz-adv-x="1114" 
d="M700 1415h-143l-201 258l117 -4l154 -153l157 153l115 4zM1006 1233h-687v-479h619v-109h-619v-534h687v-111h-813v1343h813v-110z" />
    <glyph glyph-name="ecaron" unicode="&#x11b;" horiz-adv-x="1067" 
d="M629 1114h-144l-200 299l116 -4l154 -195l158 195l114 4zM557 969q191 0 303.5 -120.5t112.5 -313.5q0 -23 -1.5 -43.5t-3.5 -29.5l-1 -9h-742q8 -164 105.5 -261.5t259.5 -97.5q184 0 284 125l78 -72q-127 -157 -370 -157q-222 0 -353 133t-131 354q0 220 128 356
t331 136zM557 864q-132 0 -221.5 -87t-106.5 -232h617v8q0 144 -79 227.5t-210 83.5z" />
    <glyph glyph-name="Gcircumflex" unicode="&#x11c;" horiz-adv-x="1347" 
d="M705 1563l-154 -154l-117 -4l201 258h143l199 -258l-115 4zM633 643h581v-643h-77q-18 79 -25 213q-53 -106 -160.5 -164.5t-257.5 -58.5q-262 0 -421.5 187t-159.5 495q0 307 164.5 495.5t427.5 188.5q108 0 196.5 -30t142.5 -75t91 -103t52.5 -109.5t16.5 -98.5
l-121 -20q0 34 -10.5 73t-38.5 84.5t-68.5 81.5t-108 60t-150.5 24q-204 0 -334.5 -154.5t-130.5 -416.5q0 -257 127 -413.5t342 -156.5q80 0 147 21t112 55.5t76.5 80t45.5 92.5t14 95v89h-473v108z" />
    <glyph glyph-name="gcircumflex" unicode="&#x11d;" horiz-adv-x="1067" 
d="M543 1313l-154 -195l-117 -4l201 299h143l199 -299l-115 4zM666 131q167 0 260.5 -69.5t93.5 -194.5q0 -136 -121.5 -215.5t-363.5 -79.5q-233 0 -358.5 71t-125.5 197q0 155 176 217q-110 46 -110 158q0 59 40 100.5t99 55.5q-117 96 -117 256q0 154 107 248t282 94
q166 0 271 -82q108 37 108 209l109 -23q0 -106 -54 -166.5t-112 -68.5q72 -88 72 -211q0 -154 -107.5 -248t-284.5 -94q-106 0 -184 34q-55 -8 -86 -31t-31 -59q0 -56 56.5 -77t171.5 -21h209zM530 866q-121 0 -193.5 -65.5t-72.5 -173.5t72 -174t192 -66q121 0 195 66
t74 174q0 107 -73.5 173t-193.5 66zM535 -322q362 0 362 189q0 82 -62.5 120t-189.5 38h-207h-18q-119 0 -182.5 -46t-63.5 -122q0 -179 361 -179z" />
    <glyph glyph-name="Gbreve" unicode="&#x11e;" horiz-adv-x="1347" 
d="M705 1403q-110 0 -174 67.5t-64 171.5h98q0 -68 37 -107t103 -40q65 0 102 39.5t37 107.5h98q0 -104 -63.5 -171.5t-173.5 -67.5zM633 643h581v-643h-77q-18 79 -25 213q-53 -106 -160.5 -164.5t-257.5 -58.5q-262 0 -421.5 187t-159.5 495q0 307 164.5 495.5
t427.5 188.5q108 0 196.5 -30t142.5 -75t91 -103t52.5 -109.5t16.5 -98.5l-121 -20q0 34 -10.5 73t-38.5 84.5t-68.5 81.5t-108 60t-150.5 24q-204 0 -334.5 -154.5t-130.5 -416.5q0 -257 127 -413.5t342 -156.5q80 0 147 21t112 55.5t76.5 80t45.5 92.5t14 95v89h-473v108z
" />
    <glyph glyph-name="gbreve" unicode="&#x11f;" horiz-adv-x="1067" 
d="M547 1112q-122 0 -190 77.5t-68 203.5h106q0 -90 40.5 -138.5t111.5 -50.5q70 0 110.5 49.5t40.5 139.5h107q0 -126 -68 -203.5t-190 -77.5zM666 131q167 0 260.5 -69.5t93.5 -194.5q0 -136 -121.5 -215.5t-363.5 -79.5q-233 0 -358.5 71t-125.5 197q0 155 176 217
q-110 47 -110 158q0 59 40 100.5t99 55.5q-117 96 -117 256q0 154 107 248t282 94q166 0 271 -82q108 37 108 209l109 -23q0 -106 -54 -166.5t-112 -68.5q72 -88 72 -211q0 -154 -107.5 -248t-284.5 -94q-106 0 -184 34q-55 -8 -86 -31t-31 -59q0 -56 56.5 -77t171.5 -21
h209zM530 866q-121 0 -193.5 -65.5t-72.5 -173.5t72 -174t192 -66q121 0 195 66t74 174q0 107 -73.5 173t-193.5 66zM535 -322q362 0 362 189q0 82 -62.5 120t-189.5 38h-221q-124 0 -187 -46t-63 -122q0 -179 361 -179z" />
    <glyph glyph-name="Gdotaccent" unicode="&#x120;" horiz-adv-x="1347" 
d="M705 1430q-40 0 -68.5 27.5t-28.5 66.5q0 40 28.5 68t68.5 28t69 -28t29 -68q0 -39 -29 -66.5t-69 -27.5zM633 643h581v-643h-77q-18 79 -25 213q-53 -106 -160.5 -164.5t-257.5 -58.5q-262 0 -421.5 187t-159.5 495q0 307 164.5 495.5t427.5 188.5q108 0 196.5 -30
t142.5 -75t91 -103t52.5 -109.5t16.5 -98.5l-121 -20q0 34 -10.5 73t-38.5 84.5t-68.5 81.5t-108 60t-150.5 24q-204 0 -334.5 -154.5t-130.5 -416.5q0 -257 127 -413.5t342 -156.5q80 0 147 21t112 55.5t76.5 80t45.5 92.5t14 95v89h-473v108z" />
    <glyph glyph-name="gdotaccent" unicode="&#x121;" horiz-adv-x="1067" 
d="M547 1178q-40 0 -68 27t-28 67q0 41 28 68.5t68 27.5t69 -27.5t29 -68.5q0 -39 -29 -66.5t-69 -27.5zM666 131q167 0 260.5 -69.5t93.5 -194.5q0 -136 -121.5 -215.5t-363.5 -79.5q-233 0 -358.5 71t-125.5 197q0 155 176 217q-110 47 -110 158q0 59 40 100.5t99 55.5
q-117 96 -117 256q0 154 107 248t282 94q166 0 271 -82q108 37 108 209l109 -23q0 -106 -54 -166.5t-112 -68.5q72 -88 72 -211q0 -154 -107.5 -248t-284.5 -94q-106 0 -184 34q-55 -8 -86 -31t-31 -59q0 -56 56.5 -77t171.5 -21h209zM530 866q-121 0 -193.5 -65.5
t-72.5 -173.5t72 -174t192 -66q121 0 195 66t74 174q0 107 -73.5 173t-193.5 66zM535 -322q362 0 362 189q0 82 -62.5 120t-189.5 38h-221q-124 0 -187 -46t-63 -122q0 -179 361 -179z" />
    <glyph glyph-name="Gcommaaccent" unicode="&#x122;" horiz-adv-x="1347" 
d="M633 643h581v-643h-77q-18 79 -25 213q-53 -106 -160.5 -164.5t-257.5 -58.5q-262 0 -421.5 187t-159.5 495q0 307 164.5 495.5t427.5 188.5q108 0 196.5 -30t142.5 -75t91 -103t52.5 -109.5t16.5 -98.5l-121 -20q0 34 -10.5 73t-38.5 84.5t-68.5 81.5t-108 60t-150.5 24
q-204 0 -334.5 -154.5t-130.5 -416.5q0 -257 127 -413.5t342 -156.5q80 0 147 21t112 55.5t76.5 80t45.5 92.5t14 95v89h-473v108zM694 -88q42 0 70.5 -29.5t28.5 -81.5t-15 -96.5t-36.5 -71t-43 -45.5t-36.5 -26l-15 -8l-43 63q4 2 10 5.5t22 15t28.5 23.5t22.5 30t11 35
q-41 0 -69.5 27t-28.5 65q0 39 27.5 66.5t66.5 27.5z" />
    <glyph glyph-name="gcommaaccent" unicode="&#x123;" horiz-adv-x="1067" 
d="M547 1047q-42 0 -70 29t-28 81t15 96.5t36.5 71.5t42.5 46t36 27l15 7l43 -64q-4 -2 -10 -5.5t-22 -15t-28.5 -23.5t-22.5 -29.5t-11 -34.5q41 0 69.5 -27t28.5 -65q0 -39 -27.5 -66.5t-66.5 -27.5zM666 131q167 0 260.5 -69.5t93.5 -194.5q0 -136 -121.5 -215.5
t-363.5 -79.5q-233 0 -358.5 71t-125.5 197q0 155 176 217q-110 47 -110 158q0 59 40 100.5t99 55.5q-117 96 -117 256q0 154 107 248t282 94q166 0 271 -82q108 37 108 209l109 -23q0 -106 -54 -166.5t-112 -68.5q72 -88 72 -211q0 -154 -107.5 -248t-284.5 -94
q-106 0 -184 34q-55 -8 -86 -31t-31 -59q0 -56 56.5 -77t171.5 -21h209zM530 866q-121 0 -193.5 -65.5t-72.5 -173.5t72 -174t192 -66q121 0 195 66t74 174q0 107 -73.5 173t-193.5 66zM535 -322q362 0 362 189q0 82 -62.5 120t-189.5 38h-221q-124 0 -187 -46t-63 -122
q0 -179 361 -179z" />
    <glyph glyph-name="Hcircumflex" unicode="&#x124;" horiz-adv-x="1443" 
d="M735 1563l-153 -154l-117 -4l201 258h143l199 -258l-115 4zM1124 1343h129v-1343h-129v645h-805v-645h-126v1343h126v-589h805v589z" />
    <glyph glyph-name="Hbar" unicode="&#x126;" horiz-adv-x="1443" 
d="M1354 1163v-104h-101v-1059h-129v645h-805v-645h-126v1059h-119v104h119v180h126v-180h805v180h129v-180h101zM1124 754v305h-805v-305h805z" />
    <glyph glyph-name="hbar" unicode="&#x127;" horiz-adv-x="1155" 
d="M635 969q170 0 270.5 -105t100.5 -276v-588h-125v588q0 125 -71.5 200.5t-195.5 75.5q-78 0 -143 -32t-104.5 -83t-60.5 -110t-21 -117v-522h-125v1145h-121v92h121v209h123v-209h305v-92h-305v-397q45 97 135 159t217 62z" />
    <glyph glyph-name="Itilde" unicode="&#x128;" horiz-adv-x="512" 
d="M541 1616q8 -29 8 -70q0 -68 -41.5 -114t-116.5 -46q-41 0 -85 19t-74.5 41.5t-65.5 41.5t-60 19q-33 0 -52 -19t-19 -52q0 -10 2 -23t4 -21l2 -8h-102q-7 31 -7 68q0 69 44.5 111.5t117.5 42.5q44 0 88 -19t74 -41.5t63 -41.5t56 -19q69 0 69 76q0 13 -2 26.5t-4 20.5
l-2 8h103zM193 0v1343h126v-1343h-126z" />
    <glyph glyph-name="itilde" unicode="&#x129;" horiz-adv-x="450" 
d="M506 1380q8 -28 8 -69q0 -69 -42.5 -114.5t-121.5 -45.5q-49 0 -102.5 30.5t-98 60.5t-73.5 30q-33 0 -54.5 -19t-21.5 -57q0 -12 2 -26t4 -22l2 -7h-102q-6 30 -6 69q0 66 44.5 113t116.5 47q44 0 88 -19t74 -41.5t63 -41.5t56 -19q70 0 70 76q0 13 -2 26.5t-4 20.5
l-3 8h103zM164 0v958l125 5v-963h-125z" />
    <glyph glyph-name="Imacron" unicode="&#x12a;" horiz-adv-x="512" 
d="M-6 1454v94h545v-94h-545zM193 0v1343h126v-1343h-126z" />
    <glyph glyph-name="imacron" unicode="&#x12b;" horiz-adv-x="450" 
d="M-43 1223v96h541v-96h-541zM164 0v958l125 5v-963h-125z" />
    <glyph glyph-name="Ibreve" unicode="&#x12c;" horiz-adv-x="512" 
d="M494 1642q0 -104 -64 -171.5t-174 -67.5t-174 67.5t-64 171.5h99q0 -68 36.5 -107t102.5 -40q65 0 102 39.5t37 107.5h99zM193 0v1343h126v-1343h-126z" />
    <glyph glyph-name="ibreve" unicode="&#x12d;" horiz-adv-x="450" 
d="M479 1393q0 -126 -68 -203.5t-190 -77.5t-190 77.5t-68 203.5h107q0 -90 40.5 -138.5t110.5 -50.5q70 0 111 49.5t41 139.5h106zM164 0v958l125 5v-963h-125z" />
    <glyph glyph-name="Iogonek" unicode="&#x12e;" horiz-adv-x="512" 
d="M348 -256l37 -74q-6 -7 -18 -17t-52 -27t-84 -17q-82 0 -133 46t-51 122q0 143 146 231v1335h126v-1343q-7 -2 -18.5 -6.5t-41 -22.5t-52.5 -39t-41.5 -58t-18.5 -79q0 -45 27.5 -71.5t71.5 -26.5q27 0 52.5 11.5t37.5 23.5z" />
    <glyph glyph-name="iogonek" unicode="&#x12f;" horiz-adv-x="450" 
d="M229 1178q-40 0 -68 27t-28 67q0 41 28 68.5t68 27.5t69.5 -27.5t29.5 -68.5q0 -39 -29.5 -66.5t-69.5 -27.5zM317 -256l37 -74q-6 -7 -17.5 -17t-51.5 -27t-84 -17q-82 0 -133.5 46t-51.5 122q0 81 42.5 138.5t105.5 92.5v950l125 5v-963q-7 -2 -18.5 -6.5t-41 -22.5
t-52.5 -39t-41.5 -58t-18.5 -79q0 -45 27.5 -71.5t70.5 -26.5q27 0 52.5 11.5t37.5 23.5z" />
    <glyph glyph-name="Idotaccent" unicode="&#x130;" horiz-adv-x="512" 
d="M256 1430q-40 0 -68 27t-28 67t28 68t68 28t69 -28t29 -68q0 -39 -29 -66.5t-69 -27.5zM193 0v1343h126v-1343h-126z" />
    <glyph glyph-name="dotlessi" unicode="&#x131;" horiz-adv-x="450" 
d="M164 0v958l125 5v-963h-125z" />
    <glyph glyph-name="IJ" unicode="&#x132;" horiz-adv-x="1425" 
d="M193 0v1343h126v-1343h-126zM612 217q115 -115 250 -115q254 0 254 260v981h129v-972q0 -191 -102 -286t-281 -95q-189 0 -330 131z" />
    <glyph glyph-name="ij" unicode="&#x133;" horiz-adv-x="886" 
d="M225 1368q40 0 69.5 -27.5t29.5 -68.5q0 -39 -29.5 -66.5t-69.5 -27.5t-68 27t-28 67q0 41 28 68.5t68 27.5zM668 1368q41 0 69.5 -27.5t28.5 -68.5q0 -40 -28.5 -67t-69.5 -27q-40 0 -68.5 27.5t-28.5 66.5q0 41 28.5 68.5t68.5 27.5zM164 0v958l125 5v-963h-125z
M283 -285q47 -34 127 -34q98 0 144 52.5t46 166.5v1058l125 5v-1043q0 -346 -305 -346q-52 0 -95.5 13t-60.5 27l-18 13z" />
    <glyph glyph-name="Jcircumflex" unicode="&#x134;" horiz-adv-x="913" 
d="M739 1663l199 -258l-115 4l-157 154l-154 -154l-117 -4l201 258h143zM100 217q115 -115 250 -115q254 0 254 260v981h129v-972q0 -191 -102 -286t-281 -95q-189 0 -330 131z" />
    <glyph glyph-name="jcircumflex" unicode="&#x135;" horiz-adv-x="464" 
d="M-33 1143l199 299h145l199 -299l-117 4l-155 194l-156 -194zM-139 -285q47 -34 127 -34q98 0 143 52.5t45 166.5v1058l125 5v-1043q0 -346 -303 -346q-53 0 -97 13t-61 27l-18 13z" />
    <glyph glyph-name="Kcommaaccent" unicode="&#x136;" horiz-adv-x="1173" 
d="M600 659l545 -657h-144l-493 602h-189v-604h-126v1343h126v-630h187l495 630h140zM627 -88q42 0 70 -29.5t28 -81.5t-15 -96.5t-36 -71t-42.5 -45.5t-36.5 -26l-15 -8l-43 63q4 2 10 5.5t22 15t28.5 23.5t22.5 30t11 35q-41 0 -70 27t-29 65q0 39 28 66.5t67 27.5z" />
    <glyph glyph-name="kcommaaccent" unicode="&#x137;" horiz-adv-x="1001" 
d="M522 524l469 -524h-157l-420 477h-129v-477h-125v1446h125v-866h151l367 378h147zM516 -88q42 0 70 -29.5t28 -81.5t-15 -96.5t-36 -71t-42.5 -45.5t-36.5 -26l-15 -8l-43 63q4 2 10 5.5t22 15t28.5 23.5t22.5 30t11 35q-41 0 -69.5 27t-28.5 65q0 39 27.5 66.5
t66.5 27.5z" />
    <glyph glyph-name="kgreenlandic" unicode="&#x138;" horiz-adv-x="999" 
d="M834 0l-416 428h-133v-428h-125v958h125v-428h145l373 428h147l-428 -481l469 -477h-157z" />
    <glyph glyph-name="Lacute" unicode="&#x139;" horiz-adv-x="1046" 
d="M489 1653l-180 -240l-110 -8l127 248h163zM319 111h701v-111h-827v1343h126v-1232z" />
    <glyph glyph-name="lacute" unicode="&#x13a;" horiz-adv-x="450" 
d="M276 1610l-112 -8l127 301h162zM164 0v1446h123v-1446h-123z" />
    <glyph glyph-name="Lcommaaccent" unicode="&#x13b;" horiz-adv-x="1046" 
d="M319 111h701v-111h-827v1343h126v-1232zM637 -88q42 0 70 -29.5t28 -81.5t-15 -96.5t-36 -71t-42.5 -45.5t-36.5 -26l-15 -8l-43 63q4 2 10 5.5t22 15t28.5 23.5t22.5 30t11 35q-41 0 -69.5 27t-28.5 65q0 39 27.5 66.5t66.5 27.5z" />
    <glyph glyph-name="lcommaaccent" unicode="&#x13c;" horiz-adv-x="450" 
d="M164 0v1446h123v-1446h-123zM129 -182q0 39 27.5 66.5t66.5 27.5q42 0 70.5 -29.5t28.5 -81.5t-15 -96.5t-36.5 -71t-43 -45.5t-36.5 -26l-15 -8l-43 63q4 2 10 5.5t22 15t28.5 23.5t22.5 30t11 35q-41 0 -69.5 27t-28.5 65z" />
    <glyph glyph-name="Lcaron" unicode="&#x13d;" horiz-adv-x="1046" 
d="M700 1100q4 2 10.5 6.5t24 19.5t30.5 30.5t23.5 39t10.5 47.5q-41 0 -70 27t-29 65t28 65t67 27q43 0 71.5 -28.5t28.5 -77.5q0 -56 -14.5 -107t-35.5 -83t-41.5 -56t-35.5 -35l-14 -10zM319 111h701v-111h-827v1343h126v-1232z" />
    <glyph glyph-name="lcaron" unicode="&#x13e;" horiz-adv-x="471" 
d="M401 1374q0 39 28 66.5t67 27.5q42 0 70 -28.5t28 -77.5q0 -56 -14.5 -107t-35 -83t-41.5 -56t-35 -34l-15 -11l-52 68q4 2 10.5 7t23.5 20t30 30.5t23.5 39t11.5 46.5q-41 0 -70 27t-29 65zM164 0v1446h123v-1446h-123z" />
    <glyph glyph-name="Ldot" unicode="&#x13f;" horiz-adv-x="1046" 
d="M319 111h701v-111h-827v1343h126v-1232zM670 524q-39 0 -67 27t-28 65t28.5 66.5t66.5 28.5t65 -28t27 -67q0 -38 -27 -65t-65 -27z" />
    <glyph glyph-name="ldot" unicode="&#x140;" horiz-adv-x="577" 
d="M164 0v1446h123v-1446h-123zM612 717q0 -39 -29 -66.5t-69 -27.5t-68 27t-28 67t28 68t68 28t69 -28t29 -68z" />
    <glyph glyph-name="Lslash" unicode="&#x141;" horiz-adv-x="1046" 
d="M319 111h701v-111h-827v516l-173 -100l-47 82l220 129v716h126v-643l310 181l47 -82l-357 -209v-479z" />
    <glyph glyph-name="lslash" unicode="&#x142;" horiz-adv-x="589" 
d="M549 852l-191 -113v-739h-122v668l-138 -80l-47 84l185 106v668h122v-596l144 84z" />
    <glyph glyph-name="Nacute" unicode="&#x143;" horiz-adv-x="1411" 
d="M752 1413l-111 -8l127 248h164zM1219 1343v-1343h-148l-637 975q-94 153 -117 199l-8 -5q8 -32 8 -182l5 -987h-129v1343h147l637 -981q82 -131 115 -196l10 4q-10 115 -10 184l-2 989h129z" />
    <glyph glyph-name="nacute" unicode="&#x144;" horiz-adv-x="1155" 
d="M762 1415l-176 -293l-113 -8l127 301h162zM633 969q170 0 271.5 -105.5t101.5 -275.5v-588h-125v588q0 124 -72 200t-195 76q-78 0 -143 -32.5t-104 -84t-60.5 -109.5t-21.5 -114v-524h-125v958l88 5q18 -120 18 -244h4q42 108 134.5 179t228.5 71z" />
    <glyph glyph-name="Ncommaaccent" unicode="&#x145;" horiz-adv-x="1411" 
d="M1219 1343v-1343h-148l-637 975q-94 153 -117 199l-8 -5q8 -32 8 -182l5 -987h-129v1343h147l637 -981q82 -131 115 -196l10 4q-10 115 -10 184l-2 989h129zM610 -182q0 39 28 66.5t67 27.5q42 0 70 -29.5t28 -81.5t-15 -96.5t-36.5 -71t-43 -45.5t-36.5 -26l-15 -8
l-43 63q4 2 10 5.5t22.5 15t29 23.5t22.5 30t11 35q-41 0 -70 27t-29 65z" />
    <glyph glyph-name="ncommaaccent" unicode="&#x146;" horiz-adv-x="1155" 
d="M633 969q170 0 271.5 -105.5t101.5 -275.5v-588h-125v588q0 124 -72 200t-195 76q-78 0 -143 -32.5t-104 -84t-60.5 -109.5t-21.5 -114v-524h-125v958l88 5q18 -120 18 -244h4q42 108 134.5 179t228.5 71zM582 -88q42 0 70 -29.5t28 -81.5t-15 -96.5t-36 -71t-42.5 -45.5
t-36.5 -26l-15 -8l-43 63q4 2 10 5.5t22 15t28.5 23.5t22.5 30t11 35q-41 0 -70 27t-29 65q0 39 28 66.5t67 27.5z" />
    <glyph glyph-name="Ncaron" unicode="&#x147;" horiz-adv-x="1411" 
d="M434 1673l117 -4l154 -153l157 153l115 4l-199 -258h-143zM1219 1343v-1343h-148l-637 975q-94 153 -117 199l-8 -5q8 -32 8 -182l5 -987h-129v1343h147l637 -981q82 -131 115 -196l10 4q-10 115 -10 184l-2 989h129z" />
    <glyph glyph-name="ncaron" unicode="&#x148;" horiz-adv-x="1155" 
d="M655 1114h-143l-201 299l117 -4l154 -195l157 195l115 4zM633 969q170 0 271.5 -105.5t101.5 -275.5v-588h-125v588q0 124 -72 200t-195 76q-78 0 -143 -32.5t-104 -84t-60.5 -109.5t-21.5 -114v-524h-125v958l88 5q18 -120 18 -244h4q42 108 134.5 179t228.5 71z" />
    <glyph glyph-name="napostrophe" unicode="&#x149;" horiz-adv-x="1155" 
d="M55 1475q43 0 72 -29t29 -78q0 -56 -14.5 -107t-35.5 -83t-42 -56t-36 -34l-14 -11l-53 70q4 2 10.5 6.5t23.5 19.5t30 30.5t23.5 39t10.5 47.5q-41 0 -69.5 27t-28.5 65t28 65.5t66 27.5zM633 969q170 0 271.5 -105.5t101.5 -275.5v-588h-125v588q0 124 -72 200t-195 76
q-78 0 -143 -32.5t-104 -84t-60.5 -109.5t-21.5 -114v-524h-125v958l88 5q18 -120 18 -244h4q42 108 134.5 179t228.5 71z" />
    <glyph glyph-name="Eng" unicode="&#x14a;" horiz-adv-x="1411" 
d="M1090 1343h129v-1449q0 -181 -95 -279t-254 -98q-53 0 -102 12.5t-81 30.5t-56.5 36.5t-35.5 31.5l-11 12l80 90q3 -4 9 -11t26.5 -25t43 -31.5t57 -24.5t70.5 -11q105 0 162.5 65t57.5 193v115h-19l-637 975q-94 153 -117 199l-8 -5q8 -32 8 -182l5 -987h-129v1343h147
l637 -981q82 -131 115 -196l10 4q-10 115 -10 184z" />
    <glyph glyph-name="eng" unicode="&#x14b;" horiz-adv-x="1155" 
d="M633 969q170 0 271.5 -105.5t101.5 -275.5v-668q0 -346 -306 -346q-52 0 -95.5 13t-60.5 27l-18 13l37 88q47 -34 127 -34q99 0 145 52.5t46 166.5v688q0 124 -72 200t-195 76q-78 0 -143 -32.5t-104 -84t-60.5 -109.5t-21.5 -114v-524h-125v958l88 5q18 -120 18 -244h4
q42 108 134.5 179t228.5 71z" />
    <glyph glyph-name="Omacron" unicode="&#x14c;" horiz-adv-x="1458" 
d="M467 1454v94h545v-94h-545zM729 1356q273 0 446 -185t173 -499q0 -156 -46.5 -285t-128.5 -215.5t-196 -134t-248 -47.5q-133 0 -246.5 47.5t-196 134t-129 215.5t-46.5 285q0 157 46.5 286t129 216t196 134.5t246.5 47.5zM729 102q216 0 353 155t137 415t-137 415.5
t-353 155.5q-214 0 -350.5 -155.5t-136.5 -415.5t136.5 -415t350.5 -155z" />
    <glyph glyph-name="omacron" unicode="&#x14d;" horiz-adv-x="1150" 
d="M311 1223v96h541v-96h-541zM575 969q214 0 346 -136.5t132 -355.5t-131.5 -353t-346.5 -134t-346 134t-131 353t131.5 355.5t345.5 136.5zM575 94q158 0 254.5 106t96.5 277t-97 279t-254 108t-254.5 -108t-97.5 -279t97 -277t255 -106z" />
    <glyph glyph-name="Obreve" unicode="&#x14e;" horiz-adv-x="1458" 
d="M967 1642q0 -104 -64 -171.5t-174 -67.5t-173.5 67.5t-63.5 171.5h98q0 -68 36.5 -107t102.5 -40q65 0 102 39.5t37 107.5h99zM729 1356q273 0 446 -185t173 -499q0 -156 -46.5 -285t-128.5 -215.5t-196 -134t-248 -47.5q-133 0 -246.5 47.5t-196 134t-129 215.5
t-46.5 285q0 157 46.5 286t129 216t196 134.5t246.5 47.5zM729 102q216 0 353 155t137 415t-137 415.5t-353 155.5q-214 0 -350.5 -155.5t-136.5 -415.5t136.5 -415t350.5 -155z" />
    <glyph glyph-name="obreve" unicode="&#x14f;" horiz-adv-x="1150" 
d="M834 1393q0 -126 -68.5 -203.5t-190.5 -77.5t-190 77.5t-68 203.5h107q0 -90 40.5 -138.5t110.5 -50.5q70 0 111 49.5t41 139.5h107zM575 969q214 0 346 -136.5t132 -355.5t-131.5 -353t-346.5 -134t-346 134t-131 353t131.5 355.5t345.5 136.5zM575 94q158 0 254.5 106
t96.5 277t-97 279t-254 108t-254.5 -108t-97.5 -279t97 -277t255 -106z" />
    <glyph glyph-name="Ohungarumlaut" unicode="&#x150;" horiz-adv-x="1458" 
d="M594 1413l-111 -8l127 248h164zM913 1413l-112 -8l127 248h164zM729 1356q273 0 446 -185t173 -499q0 -156 -46.5 -285t-128.5 -215.5t-196 -134t-248 -47.5q-133 0 -246.5 47.5t-196 134t-129 215.5t-46.5 285q0 157 46.5 286t129 216t196 134.5t246.5 47.5zM729 102
q216 0 353 155t137 415t-137 415.5t-353 155.5q-214 0 -350.5 -155.5t-136.5 -415.5t136.5 -415t350.5 -155z" />
    <glyph glyph-name="ohungarumlaut" unicode="&#x151;" horiz-adv-x="1150" 
d="M479 1122l-108 -8l127 301h161zM768 1122l-109 -8l125 301h164zM575 969q214 0 346 -136.5t132 -355.5t-131.5 -353t-346.5 -134t-346 134t-131 353t131.5 355.5t345.5 136.5zM575 94q158 0 254.5 106t96.5 277t-97 279t-254 108t-254.5 -108t-97.5 -279t97 -277
t255 -106z" />
    <glyph glyph-name="OE" unicode="&#x152;" horiz-adv-x="2146" 
d="M2038 1233h-686v-479h618v-109h-618v-534h686v-111h-813v236q-83 -119 -211.5 -182.5t-284.5 -63.5q-133 0 -246.5 47.5t-196 134t-129 215.5t-46.5 285q0 157 46.5 286t129 216t196 134.5t246.5 47.5q157 0 285 -64t211 -184v235h813v-110zM729 102q216 0 353 155
t137 415t-137 415.5t-353 155.5q-214 0 -350.5 -155.5t-136.5 -415.5t136.5 -415t350.5 -155z" />
    <glyph glyph-name="oe" unicode="&#x153;" horiz-adv-x="1896" 
d="M1386 969q191 0 303.5 -120.5t112.5 -313.5q0 -23 -1.5 -43.5t-2.5 -29.5l-2 -9h-741q8 -164 105.5 -261.5t258.5 -97.5q185 0 285 125l78 -72q-127 -157 -371 -157q-146 0 -254.5 59t-167.5 166q-59 -106 -167 -165.5t-247 -59.5q-215 0 -346 134t-131 353t131.5 355.5
t345.5 136.5q139 0 247 -60.5t167 -167.5q58 107 161.5 167.5t235.5 60.5zM575 94q158 0 254.5 106t96.5 277t-97 279t-254 108t-254.5 -108t-97.5 -279t97 -277t255 -106zM1386 864q-132 0 -221 -87t-106 -232h616v8q0 144 -79 227.5t-210 83.5z" />
    <glyph glyph-name="Racute" unicode="&#x154;" horiz-adv-x="1218" 
d="M803 1653l-180 -240l-111 -8l127 248h164zM1178 98l10 -102q-35 -6 -78 -6q-70 0 -123 30t-86.5 77.5t-62.5 105.5t-59 116t-66.5 105.5t-94 77.5t-133.5 30h-166v-532h-126v1343h393q223 0 347 -104.5t124 -304.5q0 -148 -89.5 -246.5t-240.5 -134.5q47 -18 87.5 -61
t67 -93t56 -104.5t56 -99t65.5 -73t86 -28.5zM319 635h244q161 0 263 79t102 220q0 142 -92 220.5t-256 78.5h-261v-598z" />
    <glyph glyph-name="racute" unicode="&#x155;" horiz-adv-x="675" 
d="M561 1415l-176 -293l-113 -8l127 301h162zM543 969q61 0 108 -15l-30 -123q-30 17 -84 17q-69 0 -128 -48t-91.5 -123.5t-32.5 -158.5v-518h-125v958l88 5q18 -120 18 -244h4q31 108 100.5 179t172.5 71z" />
    <glyph glyph-name="Rcommaaccent" unicode="&#x156;" horiz-adv-x="1218" 
d="M1178 98l10 -102q-35 -6 -78 -6q-70 0 -123 30t-86.5 77.5t-62.5 105.5t-59 116t-66.5 105.5t-94 77.5t-133.5 30h-166v-532h-126v1343h393q223 0 347 -104.5t124 -304.5q0 -148 -89.5 -246.5t-240.5 -134.5q47 -18 87.5 -61t67 -93t56 -104.5t56 -99t65.5 -73t86 -28.5z
M319 635h244q161 0 263 79t102 220q0 142 -92 220.5t-256 78.5h-261v-598zM643 -88q42 0 70 -29.5t28 -81.5t-15 -96.5t-36 -71t-42.5 -45.5t-36.5 -26l-15 -8l-43 63q4 2 10 5.5t22 15t28.5 23.5t22.5 30t11 35q-41 0 -69.5 27t-28.5 65q0 39 27.5 66.5t66.5 27.5z" />
    <glyph glyph-name="rcommaaccent" unicode="&#x157;" horiz-adv-x="675" 
d="M543 969q61 0 108 -15l-30 -123q-30 17 -84 17q-69 0 -128 -48t-91.5 -123.5t-32.5 -158.5v-518h-125v958l88 5q18 -120 18 -244h4q31 108 100.5 179t172.5 71zM229 -88q42 0 70.5 -29.5t28.5 -81.5t-15 -96.5t-36.5 -71t-43 -45.5t-36.5 -26l-15 -8l-43 63q4 2 10 5.5
t22 15t28.5 23.5t22.5 30t11 35q-41 0 -69.5 27t-28.5 65q0 39 27.5 66.5t66.5 27.5z" />
    <glyph glyph-name="Rcaron" unicode="&#x158;" horiz-adv-x="1218" 
d="M649 1415h-143l-201 258l117 -4l153 -153l158 153l115 4zM1178 98l10 -102q-35 -6 -78 -6q-70 0 -123 30t-86.5 77.5t-62.5 105.5t-59 116t-66.5 105.5t-94 77.5t-133.5 30h-166v-532h-126v1343h393q223 0 347 -104.5t124 -304.5q0 -148 -89.5 -246.5t-240.5 -134.5
q47 -18 87.5 -61t67 -93t56 -104.5t56 -99t65.5 -73t86 -28.5zM319 635h244q161 0 263 79t102 220q0 142 -92 220.5t-256 78.5h-261v-598z" />
    <glyph glyph-name="rcaron" unicode="&#x159;" horiz-adv-x="675" 
d="M455 1114h-144l-200 299l116 -4l154 -195l158 195l114 4zM270 719q31 108 100.5 179t172.5 71q61 0 108 -15l-30 -123q-30 17 -84 17q-69 0 -128 -48t-91.5 -123.5t-32.5 -158.5v-518h-125v958l88 5q18 -120 18 -244h4z" />
    <glyph glyph-name="Sacute" unicode="&#x15a;" horiz-adv-x="1130" 
d="M590 1413l-111 -8l127 248h164zM891 1022q-6 24 -19 50t-39.5 57.5t-61 56t-89 41t-119.5 16.5q-136 0 -219.5 -64.5t-83.5 -172.5q0 -55 26 -97.5t70.5 -69.5t102 -48.5t121 -40.5t127 -40.5t121 -52.5t102 -72t70.5 -104.5t26 -144.5q0 -156 -126 -251t-337 -95
q-168 0 -290.5 46t-196.5 109l80 101q171 -144 407 -144q155 0 245.5 64.5t90.5 169.5q0 64 -26.5 113t-70.5 79.5t-102 54.5t-121.5 42.5t-127 38.5t-121.5 48t-102 64.5t-70.5 94.5t-26.5 133q0 158 120.5 255t311.5 97q351 0 451 -303z" />
    <glyph glyph-name="sacute" unicode="&#x15b;" horiz-adv-x="942" 
d="M469 1122l-113 -8l127 301h162zM702 635q7 35 7 49q0 84 -67.5 132t-174.5 48q-103 0 -163 -45t-60 -119q0 -51 33 -85.5t85.5 -52.5t116 -32t127.5 -31.5t117 -44t86.5 -77.5t34.5 -123q1 -123 -101 -193.5t-274 -70.5q-230 0 -389 136q-4 3 -6 5l78 82q16 -15 37.5 -30
t62.5 -38t98 -37t119 -14q119 0 184.5 43.5t65.5 116.5q0 48 -33 81.5t-86.5 52t-117.5 33.5t-128 34.5t-117.5 47t-86.5 78t-33 121.5q0 117 98 192t256 75q156 0 254 -72t98 -190l-6 -62z" />
    <glyph glyph-name="Scircumflex" unicode="&#x15c;" horiz-adv-x="1130" 
d="M616 1663l199 -258l-115 4l-157 154l-154 -154l-117 -4l201 258h143zM891 1022q-6 24 -19 50t-39.5 57.5t-61 56t-89 41t-119.5 16.5q-136 0 -219.5 -64.5t-83.5 -172.5q0 -55 26 -97.5t70.5 -69.5t102 -48.5t121 -40.5t127 -40.5t121 -52.5t102 -72t70.5 -104.5
t26 -144.5q0 -156 -126 -251t-337 -95q-168 0 -290.5 46t-196.5 109l80 101q171 -144 407 -144q155 0 245.5 64.5t90.5 169.5q0 64 -26.5 113t-70.5 79.5t-102 54.5t-121.5 42.5t-127 38.5t-121.5 48t-102 64.5t-70.5 94.5t-26.5 133q0 158 120.5 255t311.5 97
q351 0 451 -303z" />
    <glyph glyph-name="scircumflex" unicode="&#x15d;" horiz-adv-x="942" 
d="M190 1114l201 299h144l198 -299l-115 4l-157 195l-154 -195zM702 635q7 35 7 49q0 84 -67.5 132t-174.5 48q-103 0 -163 -45t-60 -119q0 -51 33 -85.5t85.5 -52.5t116 -32t127.5 -31.5t117 -44t86.5 -77.5t34.5 -123q1 -123 -101 -193.5t-274 -70.5q-230 0 -389 136
q-4 3 -6 5l78 82q16 -15 37.5 -30t62.5 -38t98 -37t119 -14q119 0 184.5 43.5t65.5 116.5q0 48 -33 81.5t-86.5 52t-117.5 33.5t-128 34.5t-117.5 47t-86.5 78t-33 121.5q0 117 98 192t256 75q156 0 254 -72t98 -190l-6 -62z" />
    <glyph glyph-name="Scedilla" unicode="&#x15e;" horiz-adv-x="1130" 
d="M1026 336q0 -147 -113 -240.5t-305 -103.5l-24 -60q64 -7 111.5 -47t47.5 -112q0 -75 -54.5 -118.5t-141.5 -43.5q-49 0 -91.5 16.5t-60.5 32.5l-18 16l39 74q6 -6 16 -14.5t44.5 -22.5t70.5 -14q46 0 75 21.5t29 56.5q0 39 -43.5 67.5t-138.5 28.5l47 119
q-266 10 -440 153l80 101q171 -144 407 -144q155 0 245.5 64.5t90.5 169.5q0 64 -26.5 113t-70.5 79.5t-102 54.5t-121.5 42.5t-127 38.5t-121.5 48t-102 64.5t-70.5 94.5t-26.5 133q0 158 120.5 255t311.5 97q351 0 451 -303l-123 -31q-6 24 -19 50t-39.5 57.5t-61 56
t-89 41t-119.5 16.5q-136 0 -219.5 -64.5t-83.5 -172.5q0 -55 26 -97.5t70.5 -69.5t102 -48.5t121 -40.5t127 -40.5t121 -52.5t102 -72t70.5 -104.5t26 -144.5z" />
    <glyph glyph-name="scedilla" unicode="&#x15f;" horiz-adv-x="942" 
d="M844 254q1 -114 -87.5 -183.5t-240.5 -78.5l-24 -60q64 -7 111.5 -47t47.5 -112q0 -75 -54.5 -118.5t-141.5 -43.5q-49 0 -91.5 16.5t-60.5 32.5l-18 16l39 74q6 -6 16 -14.5t44.5 -22.5t70.5 -14q46 0 75 21.5t29 56.5q0 39 -43.5 67.5t-138.5 28.5l49 119
q-201 11 -345 133q-5 4 -7 6l78 82q16 -15 37.5 -30t62.5 -38t98 -37t119 -14q119 0 184.5 43.5t65.5 116.5q0 48 -33 81.5t-86.5 52t-117.5 33.5t-128 34.5t-117.5 47t-86.5 78t-33 121.5q0 117 98 192t256 75q156 0 254 -72t98 -190l-6 -62l-115 -10q7 35 7 49
q0 84 -67.5 132t-174.5 48q-103 0 -163 -45t-60 -119q0 -51 33 -85.5t85.5 -52.5t116 -32t127.5 -31.5t117 -44t86.5 -77.5t34.5 -123z" />
    <glyph glyph-name="Scaron" unicode="&#x160;" horiz-adv-x="1130" 
d="M272 1673l117 -4l154 -153l157 153l115 4l-199 -258h-143zM891 1022q-6 24 -19 50t-39.5 57.5t-61 56t-89 41t-119.5 16.5q-136 0 -219.5 -64.5t-83.5 -172.5q0 -55 26 -97.5t70.5 -69.5t102 -48.5t121 -40.5t127 -40.5t121 -52.5t102 -72t70.5 -104.5t26 -144.5
q0 -156 -126 -251t-337 -95q-168 0 -290.5 46t-196.5 109l80 101q171 -144 407 -144q155 0 245.5 64.5t90.5 169.5q0 64 -26.5 113t-70.5 79.5t-102 54.5t-121.5 42.5t-127 38.5t-121.5 48t-102 64.5t-70.5 94.5t-26.5 133q0 158 120.5 255t311.5 97q351 0 451 -303z" />
    <glyph glyph-name="scaron" unicode="&#x161;" horiz-adv-x="942" 
d="M195 1413l116 -4l154 -195l158 195l114 4l-198 -299h-144zM702 635q7 35 7 49q0 84 -67.5 132t-174.5 48q-103 0 -163 -45t-60 -119q0 -51 33 -85.5t85.5 -52.5t116 -32t127.5 -31.5t117 -44t86.5 -77.5t34.5 -123q1 -123 -101 -193.5t-274 -70.5q-230 0 -389 136
q-4 3 -6 5l78 82q16 -15 37.5 -30t62.5 -38t98 -37t119 -14q119 0 184.5 43.5t65.5 116.5q0 48 -33 81.5t-86.5 52t-117.5 33.5t-128 34.5t-117.5 47t-86.5 78t-33 121.5q0 117 98 192t256 75q156 0 254 -72t98 -190l-6 -62z" />
    <glyph glyph-name="uni0162" unicode="&#x162;" horiz-adv-x="1089" 
d="M608 0h-20l-29 -68q64 -7 112 -47t48 -112q0 -75 -55 -118.5t-142 -43.5q-49 0 -91.5 16.5t-60.5 32.5l-18 16l39 74q6 -6 16 -14.5t44.5 -22.5t70.5 -14q46 0 75.5 21.5t29.5 56.5q0 39 -43.5 67.5t-139.5 28.5l52 127h-17v1233h-452v110h1036v-110h-455v-1233z" />
    <glyph glyph-name="uni0163" unicode="&#x163;" horiz-adv-x="792" 
d="M494 -68q64 -7 111.5 -47t47.5 -112q0 -75 -54.5 -118.5t-141.5 -43.5q-49 0 -91.5 16.5t-60.5 32.5l-18 16l39 74q6 -6 16 -14.5t44.5 -22.5t70.5 -14q46 0 75 21.5t29 56.5q0 39 -43.5 67.5t-138.5 28.5l51 125q-111 26 -162 109t-51 227v522h-158v102h158v291l125 8
v-299h389v-102h-389v-518q0 -122 48.5 -182t154.5 -60q52 0 99 15t68 30l21 15l43 -101q-11 -8 -30.5 -19t-82.5 -29.5t-128 -18.5h-17z" />
    <glyph glyph-name="Tcaron" unicode="&#x164;" horiz-adv-x="1089" 
d="M276 1673l117 -4l154 -153l158 153l114 4l-198 -258h-144zM479 0v1233h-452v110h1036v-110h-455v-1233h-129z" />
    <glyph glyph-name="tcaron" unicode="&#x165;" horiz-adv-x="792" 
d="M590 1208q-41 0 -69.5 27t-28.5 65t28 65.5t66 27.5q43 0 71.5 -29t28.5 -78q0 -53 -15 -97t-37 -69t-43.5 -42.5t-36.5 -23.5l-15 -7l-43 65q4 1 10 4t22 12.5t28.5 19.5t22.5 26.5t11 33.5zM733 156l43 -101q-11 -8 -30.5 -19t-82.5 -29.5t-128 -18.5
q-165 0 -241.5 86.5t-76.5 259.5v522h-158v102h158v291l125 8v-299h389v-102h-389v-518q0 -122 48.5 -182t154.5 -60q52 0 99 15t68 30z" />
    <glyph glyph-name="Tbar" unicode="&#x166;" horiz-adv-x="1089" 
d="M1063 1233h-455v-469h275v-105h-275v-659h-129v659h-278v105h278v469h-452v110h1036v-110z" />
    <glyph glyph-name="tbar" unicode="&#x167;" horiz-adv-x="792" 
d="M733 156l43 -101q-11 -8 -30.5 -19t-82.5 -29.5t-128 -18.5q-165 0 -241.5 86.5t-76.5 259.5v141h-133v92h133v289h-158v102h158v291l125 8v-299h389v-102h-389v-289h291v-92h-291v-137q0 -122 48.5 -182t154.5 -60q52 0 99 15t68 30z" />
    <glyph glyph-name="Utilde" unicode="&#x168;" horiz-adv-x="1394" 
d="M1016 1616q8 -29 8 -70q0 -68 -41.5 -114t-116.5 -46q-41 0 -84.5 19t-74.5 41.5t-65.5 41.5t-59.5 19q-33 0 -52.5 -19t-19.5 -52q0 -10 2 -23t4 -21l2 -8h-102q-6 31 -6 68q0 69 44 111.5t117 42.5q44 0 88 -19t74 -41.5t63 -41.5t56 -19q70 0 70 76q0 13 -2 26.5
t-4 20.5l-3 8h103zM1090 1343h127v-813q0 -252 -140.5 -396t-378.5 -144q-240 0 -381 144t-141 396v813h129v-808q0 -208 105 -320.5t288 -112.5q181 0 286.5 112t105.5 316v813z" />
    <glyph glyph-name="utilde" unicode="&#x169;" horiz-adv-x="1128" 
d="M344 1141h-102q-6 30 -6 69q0 66 44.5 113t116.5 47q44 0 88 -19t74 -41.5t63 -41.5t56 -19q70 0 70 76q0 13 -2 26.5t-4 20.5l-3 8h103q8 -28 8 -69q0 -69 -42.5 -114.5t-121.5 -45.5q-49 0 -102.5 30.5t-98 60.5t-73.5 30q-33 0 -54.5 -19t-21.5 -57q0 -12 2 -26t4 -22
zM846 958h123v-958l-90 -4q-19 127 -19 231h-2q-41 -104 -130 -170.5t-216 -66.5q-168 0 -265 103.5t-97 275.5v589h124v-589q0 -127 67 -201t189 -74q74 0 136 32.5t100 84t59 110t21 113.5v524z" />
    <glyph glyph-name="Umacron" unicode="&#x16a;" horiz-adv-x="1394" 
d="M436 1454v94h545v-94h-545zM1090 1343h127v-813q0 -252 -140.5 -396t-378.5 -144q-240 0 -381 144t-141 396v813h129v-808q0 -208 105 -320.5t288 -112.5q181 0 286.5 112t105.5 316v813z" />
    <glyph glyph-name="umacron" unicode="&#x16b;" horiz-adv-x="1128" 
d="M834 1319v-96h-541v96h541zM846 958h123v-958l-90 -4q-19 127 -19 231h-2q-41 -104 -130 -170.5t-216 -66.5q-168 0 -265 103.5t-97 275.5v589h124v-589q0 -127 67 -201t189 -74q74 0 136 32.5t100 84t59 110t21 113.5v524z" />
    <glyph glyph-name="Ubreve" unicode="&#x16c;" horiz-adv-x="1394" 
d="M936 1642q0 -104 -64 -171.5t-174 -67.5t-173.5 67.5t-63.5 171.5h98q0 -68 36.5 -107t102.5 -40q66 0 103 39.5t37 107.5h98zM1090 1343h127v-813q0 -252 -140.5 -396t-378.5 -144q-240 0 -381 144t-141 396v813h129v-808q0 -208 105 -320.5t288 -112.5q181 0 286.5 112
t105.5 316v813z" />
    <glyph glyph-name="ubreve" unicode="&#x16d;" horiz-adv-x="1128" 
d="M557 1112q-122 0 -190 77.5t-68 203.5h107q0 -90 40.5 -138.5t110.5 -50.5q70 0 111 49.5t41 139.5h106q0 -126 -68 -203.5t-190 -77.5zM846 958h123v-958l-90 -4q-19 127 -19 231h-2q-41 -104 -130 -170.5t-216 -66.5q-168 0 -265 103.5t-97 275.5v589h124v-589
q0 -127 67 -201t189 -74q74 0 136 32.5t100 84t59 110t21 113.5v524z" />
    <glyph glyph-name="Uring" unicode="&#x16e;" horiz-adv-x="1394" 
d="M698 1382q-65 0 -110 44t-45 108q0 66 45 110t110 44t109.5 -44t44.5 -110q0 -64 -44.5 -108t-109.5 -44zM774 1534q0 34 -22 56t-54 22t-53.5 -22t-21.5 -56q0 -32 21.5 -54t53.5 -22t54 22t22 54zM1090 1343h127v-813q0 -252 -140.5 -396t-378.5 -144q-240 0 -381 144
t-141 396v813h129v-808q0 -208 105 -320.5t288 -112.5q181 0 286.5 112t105.5 316v813z" />
    <glyph glyph-name="uring" unicode="&#x16f;" horiz-adv-x="1128" 
d="M557 1102q-69 0 -117.5 46.5t-48.5 115.5q0 70 48 116.5t118 46.5t118 -46.5t48 -116.5q0 -69 -48.5 -115.5t-117.5 -46.5zM557 1343q-34 0 -57 -22t-23 -57q0 -34 23 -57t57 -23t57 23t23 57q0 35 -23 57t-57 22zM846 958h123v-958l-90 -4q-19 127 -19 231h-2
q-41 -104 -130 -170.5t-216 -66.5q-168 0 -265 103.5t-97 275.5v589h124v-589q0 -127 67 -201t189 -74q74 0 136 32.5t100 84t59 110t21 113.5v524z" />
    <glyph glyph-name="Uhungarumlaut" unicode="&#x170;" horiz-adv-x="1394" 
d="M563 1413l-110 -8l127 248h163zM883 1413l-113 -8l127 248h164zM1090 1343h127v-813q0 -252 -140.5 -396t-378.5 -144q-240 0 -381 144t-141 396v813h129v-808q0 -208 105 -320.5t288 -112.5q181 0 286.5 112t105.5 316v813z" />
    <glyph glyph-name="uhungarumlaut" unicode="&#x171;" horiz-adv-x="1128" 
d="M641 1415l-180 -293l-109 -8l127 301h162zM750 1122l-109 -8l125 301h164zM846 958h123v-958l-90 -4q-19 127 -19 231h-2q-41 -104 -130 -170.5t-216 -66.5q-168 0 -265 103.5t-97 275.5v589h124v-589q0 -127 67 -201t189 -74q74 0 136 32.5t100 84t59 110t21 113.5v524z
" />
    <glyph glyph-name="Uogonek" unicode="&#x172;" horiz-adv-x="1394" 
d="M1090 1343h127v-813q0 -201 -92 -335.5t-255 -182.5q-22 -9 -43.5 -23t-47 -37.5t-41 -58.5t-15.5 -75q0 -45 27.5 -72t70.5 -27q27 0 53 12t38 24l12 12l37 -74q-6 -7 -18 -17.5t-52 -27.5t-84 -17q-82 0 -133 46t-51 122q0 112 90 191h-15q-240 0 -381 144t-141 396
v813h129v-808q0 -208 105 -320.5t288 -112.5q181 0 286.5 112t105.5 316v813z" />
    <glyph glyph-name="uogonek" unicode="&#x173;" horiz-adv-x="1128" 
d="M997 -256l37 -74q-6 -7 -17.5 -17t-51.5 -27t-84 -17q-82 0 -133.5 46t-51.5 122q0 49 17 91t45 72t56 50t60 35q-14 106 -14 202h-2q-41 -104 -130 -170.5t-216 -66.5q-168 0 -265 103.5t-97 275.5v589h124v-589q0 -127 67 -201t189 -74q74 0 136 32.5t100 84t59 110
t21 113.5v524h123v-958q-7 -2 -18.5 -6.5t-41 -22.5t-52.5 -39t-41.5 -58t-18.5 -79q0 -45 27.5 -71.5t70.5 -26.5q27 0 52.5 11.5t37.5 23.5z" />
    <glyph glyph-name="Wcircumflex" unicode="&#x174;" horiz-adv-x="1830" 
d="M989 1663l199 -258l-115 4l-158 154l-153 -154l-117 -4l201 258h143zM1651 1343h129l-391 -1343h-146l-291 1018q-18 58 -34 149h-3q-16 -91 -34 -149l-299 -1018h-142l-389 1343h133l299 -1085q26 -103 29 -115h4q8 38 27 115l313 1085h121l315 -1085l27 -115h4
q3 12 29 115z" />
    <glyph glyph-name="wcircumflex" unicode="&#x175;" horiz-adv-x="1505" 
d="M754 1313l-154 -195l-117 -4l201 299h143l199 -299l-115 4zM1323 958h127l-297 -958h-152l-225 729q-12 46 -16 70h-4q-2 -13 -17 -70l-229 -729h-152l-307 958h139l224 -757q4 -15 10 -32t9.5 -28.5t4.5 -15.5h4q1 5 10 33t13 43l229 757h129l230 -753q7 -26 18 -80h4
q2 4 10 32.5t15 47.5z" />
    <glyph glyph-name="Ycircumflex" unicode="&#x176;" horiz-adv-x="1173" 
d="M588 1563l-154 -154l-117 -4l201 258h144l198 -258l-115 4zM1128 1343l-475 -831v-512h-129v504l-481 839h141l344 -589q46 -79 60 -138h4q15 62 59 138l344 589h133z" />
    <glyph glyph-name="ycircumflex" unicode="&#x177;" horiz-adv-x="1032" 
d="M242 1114l200 299h144l198 -299l-114 4l-158 195l-154 -195zM514 -199q-42 -110 -105 -169.5t-173 -59.5q-36 0 -68.5 7t-47.5 13l-14 7l23 104q41 -22 98 -22q69 0 106.5 37t67.5 114l60 145l-410 981h137l312 -763q17 -38 22 -70h4q7 34 23 70l313 763h127z" />
    <glyph glyph-name="Ydieresis" unicode="&#x178;" horiz-adv-x="1173" 
d="M406 1444q-36 0 -61.5 24.5t-25.5 59.5t26 60.5t61 25.5q34 0 58.5 -25.5t24.5 -60.5t-24.5 -59.5t-58.5 -24.5zM778 1444q-34 0 -60 24.5t-26 59.5t26 60.5t60 25.5q35 0 60.5 -25.5t25.5 -60.5t-25.5 -59.5t-60.5 -24.5zM1128 1343l-475 -831v-512h-129v504l-481 839
h141l344 -589q46 -79 60 -138h4q15 62 59 138l344 589h133z" />
    <glyph glyph-name="Zacute" unicode="&#x179;" horiz-adv-x="1132" 
d="M612 1413l-110 -8l127 248h164zM72 0v111l768 1038q47 61 67 84l-4 6q-60 -6 -121 -6h-690v110h967v-110l-766 -1038q-15 -20 -29.5 -37.5t-26.5 -31t-14 -15.5l4 -5q35 5 121 5h699v-111h-975z" />
    <glyph glyph-name="zacute" unicode="&#x17a;" horiz-adv-x="915" 
d="M481 1122l-112 -8l127 301h161zM76 0v102l573 711q27 31 39 43l-2 4q-16 -4 -65 -4h-533v102h741v-102l-555 -692q-40 -50 -53 -62l2 -4q14 4 70 4h545v-102h-762z" />
    <glyph glyph-name="Zdotaccent" unicode="&#x17b;" horiz-adv-x="1132" 
d="M565 1430q-40 0 -68 27t-28 67t28 68t68 28t69.5 -28.5t29.5 -67.5t-29.5 -66.5t-69.5 -27.5zM72 0v111l768 1038q47 61 67 84l-4 6q-60 -6 -121 -6h-690v110h967v-110l-766 -1038q-15 -20 -29.5 -37.5t-26.5 -31t-14 -15.5l4 -5q35 5 121 5h699v-111h-975z" />
    <glyph glyph-name="zdotaccent" unicode="&#x17c;" horiz-adv-x="915" 
d="M575 1272q0 -39 -29 -66.5t-69 -27.5t-68 27t-28 67q0 41 28 68.5t68 27.5t69 -27.5t29 -68.5zM76 0v102l573 711q27 31 39 43l-2 4q-16 -4 -65 -4h-533v102h741v-102l-555 -692q-40 -50 -53 -62l2 -4q14 4 70 4h545v-102h-762z" />
    <glyph glyph-name="Zcaron" unicode="&#x17d;" horiz-adv-x="1132" 
d="M295 1673l117 -4l153 -153l158 153l115 4l-199 -258h-143zM72 0v111l768 1038q47 61 67 84l-4 6q-60 -6 -121 -6h-690v110h967v-110l-766 -1038q-15 -20 -29.5 -37.5t-26.5 -31t-14 -15.5l4 -5q35 5 121 5h699v-111h-975z" />
    <glyph glyph-name="zcaron" unicode="&#x17e;" horiz-adv-x="915" 
d="M207 1413l117 -4l153 -195l158 195l115 4l-199 -299h-143zM76 0v102l573 711q27 31 39 43l-2 4q-16 -4 -65 -4h-533v102h741v-102l-555 -692q-40 -50 -53 -62l2 -4q14 4 70 4h545v-102h-762z" />
    <glyph glyph-name="uni01EA" unicode="&#x1ea;" horiz-adv-x="1458" 
d="M868 4q-21 -9 -42.5 -22t-50.5 -37t-47.5 -61t-18.5 -81q0 -45 27.5 -71.5t70.5 -26.5q27 0 52.5 11.5t37.5 23.5l12 12l37 -74q-6 -7 -17.5 -17t-51.5 -27t-84 -17q-82 0 -133.5 46t-51.5 122q0 121 107 205q-130 2 -241 50.5t-191.5 135.5t-126 214.5t-45.5 281.5
q0 157 46.5 286t129 216t196 134.5t246.5 47.5q273 0 446 -185t173 -499q0 -270 -131 -446.5t-349 -221.5zM242 672q0 -260 136.5 -415t350.5 -155q216 0 353 155t137 415t-137 415.5t-353 155.5q-214 0 -350.5 -155.5t-136.5 -415.5z" />
    <glyph glyph-name="uni01EB" unicode="&#x1eb;" horiz-adv-x="1150" 
d="M711 6q-133 -70 -133 -188q0 -45 27.5 -72t70.5 -27q27 0 52.5 12t37.5 24l12 12l37 -74q-2 -3 -6 -7t-19 -14.5t-31 -19t-42.5 -15t-54.5 -6.5q-82 0 -133.5 46t-51.5 122q0 112 90 191q-212 3 -340.5 136.5t-128.5 350.5q0 219 131.5 355.5t345.5 136.5t346 -136.5
t132 -355.5q0 -181 -91.5 -307t-250.5 -164zM223 477q0 -171 97 -277t255 -106t254.5 106t96.5 277t-97 279t-254 108t-254.5 -108t-97.5 -279z" />
    <glyph glyph-name="AEacute" unicode="&#x1fc;" horiz-adv-x="1935" 
d="M1348 1653l-181 -240l-110 -8l127 248h164zM1827 1233h-686v-479h618v-109h-618v-534h686v-111h-813v365h-615l-278 -365h-135l1024 1343h817v-110zM481 473h533v698z" />
    <glyph glyph-name="aeacute" unicode="&#x1fd;" horiz-adv-x="1738" 
d="M1024 1415l-176 -293l-113 -8l127 301h162zM1229 969q191 0 303.5 -120.5t112.5 -313.5q0 -23 -1.5 -43.5t-3.5 -29.5l-2 -9h-741q8 -164 106 -261.5t261 -97.5q182 0 282 125l78 -72q-127 -157 -371 -157q-150 0 -261 64.5t-169 181.5h-6q-11 -36 -37 -74t-72 -79
t-123 -67t-171 -26q-150 0 -233 68.5t-83 185.5q0 155 153.5 222.5t461.5 70.5l59 2v73q0 117 -71.5 184.5t-200.5 67.5q-118 0 -188 -52.5t-70 -143.5q0 -22 10 -62l-115 -20q-14 35 -14 88q0 131 104 213t275 82q125 0 217.5 -52.5t138.5 -140.5q61 91 157 142t214 51z
M1231 864q-133 0 -223 -87t-107 -232h619v8q0 143 -79.5 227t-209.5 84zM440 94q84 0 151.5 26.5t104.5 65t56.5 76.5t19.5 68v119l-59 -3q-249 -3 -368.5 -49t-119.5 -149q0 -72 54.5 -113t160.5 -41z" />
    <glyph glyph-name="Oslashacute" unicode="&#x1fe;" horiz-adv-x="1458" 
d="M938 1651l-180 -240l-111 -8l127 248h164zM1147 1198q96 -90 148.5 -224t52.5 -302q0 -156 -46.5 -285t-128.5 -215.5t-196 -134t-248 -47.5q-189 0 -332 90l-112 -170h-133l159 237q-96 89 -148 223.5t-52 301.5q0 157 46.5 286t129 216t196 134.5t246.5 47.5
q189 0 332 -90l96 143h131zM242 672q0 -260 139 -418l612 911q-113 78 -264 78q-214 0 -350.5 -155.5t-136.5 -415.5zM729 102q216 0 353 155t137 415q0 261 -142 422l-612 -914q116 -78 264 -78z" />
    <glyph glyph-name="oslashacute" unicode="&#x1ff;" horiz-adv-x="1150" 
d="M756 1415l-176 -293l-113 -8l127 301h162zM881 870q83 -67 127.5 -167.5t44.5 -225.5q0 -219 -131.5 -353t-346.5 -134q-127 0 -229 51l-63 -98h-105l92 143q-83 65 -127.5 165.5t-44.5 225.5q0 219 131.5 355.5t345.5 136.5q130 0 232 -54l63 99h103zM223 477
q0 -184 113 -291l412 635q-73 43 -173 43q-157 0 -254.5 -108t-97.5 -279zM575 94q158 0 254.5 106t96.5 277q0 185 -111 293l-409 -635q74 -41 169 -41z" />
    <glyph glyph-name="Scommaaccent" unicode="&#x218;" horiz-adv-x="1130" 
d="M891 1022q-6 24 -19 50t-39.5 57.5t-61 56t-89 41t-119.5 16.5q-136 0 -219.5 -64.5t-83.5 -172.5q0 -55 26 -97.5t70.5 -69.5t102 -48.5t121 -40.5t127 -40.5t121 -52.5t102 -72t70.5 -104.5t26 -144.5q0 -156 -126 -251t-337 -95q-168 0 -290.5 46t-196.5 109l80 101
q171 -144 407 -144q155 0 245.5 64.5t90.5 169.5q0 64 -26.5 113t-70.5 79.5t-102 54.5t-121.5 42.5t-127 38.5t-121.5 48t-102 64.5t-70.5 94.5t-26.5 133q0 158 120.5 255t311.5 97q351 0 451 -303zM471 -182q0 39 27.5 66.5t66.5 27.5q42 0 70.5 -29.5t28.5 -81.5
t-15 -96.5t-36.5 -71t-43 -45.5t-36.5 -26l-15 -8l-43 63q4 2 10 5.5t22 15t28.5 23.5t22.5 30t11 35q-41 0 -69.5 27t-28.5 65z" />
    <glyph glyph-name="scommaaccent" unicode="&#x219;" horiz-adv-x="942" 
d="M702 635q7 35 7 49q0 84 -67.5 132t-174.5 48q-103 0 -163 -45t-60 -119q0 -51 33 -85.5t85.5 -52.5t116 -32t127.5 -31.5t117 -44t86.5 -77.5t34.5 -123q1 -123 -101 -193.5t-274 -70.5q-230 0 -389 136q-4 3 -6 5l78 82q16 -15 37.5 -30t62.5 -38t98 -37t119 -14
q119 0 184.5 43.5t65.5 116.5q0 48 -33 81.5t-86.5 52t-117.5 33.5t-128 34.5t-117.5 47t-86.5 78t-33 121.5q0 117 98 192t256 75q156 0 254 -72t98 -190l-6 -62zM379 -182q0 39 27.5 66.5t66.5 27.5q42 0 70 -29.5t28 -81.5t-15 -96.5t-36 -71t-42.5 -45.5t-36.5 -26
l-15 -8l-43 63q4 2 10 5.5t22 15t28.5 23.5t22.5 30t11 35q-41 0 -69.5 27t-28.5 65z" />
    <glyph glyph-name="uni021A" unicode="&#x21a;" horiz-adv-x="1089" 
d="M479 0v1233h-452v110h1036v-110h-455v-1233h-129zM446 -182q0 39 28 66.5t67 27.5q42 0 70 -29.5t28 -81.5t-15 -96.5t-36.5 -71t-42.5 -45.5t-36 -26l-15 -8l-43 63q4 2 10 5.5t22 15t28.5 23.5t22.5 30t11 35q-41 0 -70 27t-29 65z" />
    <glyph glyph-name="uni021B" unicode="&#x21b;" horiz-adv-x="792" 
d="M776 55q-11 -8 -30.5 -19t-82.5 -29.5t-128 -18.5q-165 0 -241.5 86.5t-76.5 259.5v522h-158v102h158v291l125 8v-299h389v-102h-389v-518q0 -122 48.5 -182t154.5 -60q52 0 99 15t68 30l21 15zM475 -88q42 0 70 -29.5t28 -81.5t-15 -96.5t-36 -71t-42.5 -45.5t-36.5 -26
l-15 -8l-43 63q4 2 10 5.5t22 15t28.5 23.5t22.5 30t11 35q-41 0 -69.5 27t-28.5 65q0 39 27.5 66.5t66.5 27.5z" />
    <glyph glyph-name="uni0237" unicode="&#x237;" horiz-adv-x="464" 
d="M-139 -285q47 -34 127 -34q98 0 143 52.5t45 166.5v1058l125 5v-1043q0 -346 -303 -346q-53 0 -97 13t-61 27l-18 13z" />
    <glyph glyph-name="circumflex" unicode="&#x2c6;" horiz-adv-x="684" 
d="M70 1114l200 299h144l198 -299l-114 4l-158 195l-154 -195z" />
    <glyph glyph-name="caron" unicode="&#x2c7;" horiz-adv-x="667" 
d="M70 1413l116 -4l154 -195l158 195l114 4l-198 -299h-144z" />
    <glyph glyph-name="breve" unicode="&#x2d8;" horiz-adv-x="634" 
d="M575 1393q0 -126 -68 -203.5t-190 -77.5t-190 77.5t-68 203.5h107q0 -90 40.5 -138.5t110.5 -50.5q70 0 111 49.5t41 139.5h106z" />
    <glyph glyph-name="dotaccent" unicode="&#x2d9;" horiz-adv-x="385" 
d="M291 1272q0 -39 -29 -66.5t-69 -27.5t-68.5 27.5t-28.5 66.5q0 41 28.5 68.5t68.5 27.5t69 -27.5t29 -68.5z" />
    <glyph glyph-name="ring" unicode="&#x2da;" horiz-adv-x="516" 
d="M258 1102q-69 0 -117.5 46.5t-48.5 115.5q0 70 48 116.5t118 46.5t118 -46.5t48 -116.5q0 -69 -48.5 -115.5t-117.5 -46.5zM338 1264q0 35 -23 57t-57 22t-57 -22t-23 -57q0 -34 23 -57t57 -23t57 23t23 57z" />
    <glyph glyph-name="ogonek" unicode="&#x2db;" horiz-adv-x="518" 
d="M416 -328q-6 -7 -18 -17t-52 -27t-84 -17q-82 0 -133 46t-51 122q0 60 26 110t62.5 79.5t73 50t62.5 28.5l26 8l22 -53q-7 -2 -18.5 -6.5t-41 -22.5t-52.5 -39t-41.5 -58t-18.5 -79q0 -45 27.5 -71.5t70.5 -26.5q27 0 53 11.5t38 23.5l12 12z" />
    <glyph glyph-name="tilde" unicode="&#x2dc;" horiz-adv-x="788" 
d="M686 1380q8 -28 8 -69q0 -69 -42.5 -114.5t-121.5 -45.5q-49 0 -102.5 30.5t-98 60.5t-73.5 30q-33 0 -54.5 -19t-21.5 -57q0 -12 2 -26t4 -22l2 -7h-102q-6 30 -6 69q0 66 45 113t117 47q44 0 88 -19t73.5 -41.5t62.5 -41.5t56 -19q70 0 70 76q0 13 -2 26.5t-4 20.5
l-2 8h102z" />
    <glyph glyph-name="hungarumlaut" unicode="&#x2dd;" horiz-adv-x="770" 
d="M205 1122l-109 -8l127 301h162zM494 1122l-109 -8l125 301h164z" />
    <glyph glyph-name="gravecomb" unicode="&#x300;" 
d="M-213 1114l-180 301h164l125 -293z" />
    <glyph glyph-name="acutecomb" unicode="&#x301;" 
d="M-305 1122l-113 -8l127 301h162z" />
    <glyph glyph-name="uni0302" unicode="&#x302;" 
d="M-614 1114l200 299h144l198 -299l-114 4l-158 195l-154 -195z" />
    <glyph glyph-name="tildecomb" unicode="&#x303;" 
d="M-102 1380q8 -28 8 -69q0 -69 -42.5 -114.5t-121.5 -45.5q-49 0 -102.5 30.5t-98 60.5t-73.5 30q-33 0 -54.5 -19t-21.5 -57q0 -12 2 -25.5t4 -21.5l2 -8h-102q-7 30 -7 69q0 66 45 113t117 47q44 0 88 -19t74 -41.5t63 -41.5t56 -19q69 0 69 76q0 13 -2 26.5t-4 20.5
l-2 8h103z" />
    <glyph glyph-name="uni0304" unicode="&#x304;" 
d="M-647 1223v96h541v-96h-541z" />
    <glyph glyph-name="uni0306" unicode="&#x306;" 
d="M-59 1393q0 -126 -68 -203.5t-190 -77.5t-190 77.5t-68 203.5h106q0 -90 40.5 -138.5t111.5 -50.5q70 0 110.5 49.5t40.5 139.5h107z" />
    <glyph glyph-name="uni0307" unicode="&#x307;" 
d="M-94 1272q0 -39 -29.5 -66.5t-69.5 -27.5t-68 27t-28 67q0 41 28 68.5t68 27.5t69.5 -27.5t29.5 -68.5z" />
    <glyph glyph-name="uni0308" unicode="&#x308;" 
d="M-532 1186q-36 0 -61 25t-25 61t25 62t61 26q35 0 60.5 -26.5t25.5 -61.5t-25.5 -60.5t-60.5 -25.5zM-160 1186q-35 0 -60.5 25.5t-25.5 60.5t25.5 61.5t60.5 26.5q36 0 61 -26t25 -62t-25 -61t-61 -25z" />
    <glyph glyph-name="uni030A" unicode="&#x30a;" 
d="M-258 1102q-69 0 -117.5 46.5t-48.5 115.5q0 70 48 116.5t118 46.5t118 -46.5t48 -116.5q0 -69 -48.5 -115.5t-117.5 -46.5zM-178 1264q0 35 -23 57t-57 22t-57 -22t-23 -57q0 -34 23 -57t57 -23t57 23t23 57z" />
    <glyph glyph-name="uni030B" unicode="&#x30b;" 
d="M-565 1122l-109 -8l127 301h162zM-276 1122l-109 -8l125 301h164z" />
    <glyph glyph-name="uni030C" unicode="&#x30c;" 
d="M-598 1413l117 -4l153 -195l158 195l115 4l-199 -299h-143z" />
    <glyph glyph-name="uni0326" unicode="&#x326;" 
d="M-287 -182q0 39 27.5 66.5t66.5 27.5q42 0 70.5 -29.5t28.5 -81.5t-15 -96.5t-36.5 -71t-43 -45.5t-36.5 -26l-15 -8l-43 63q4 2 10 5.5t22.5 15t29 23.5t22.5 30t11 35q-41 0 -70 27t-29 65z" />
    <glyph glyph-name="uni0327" unicode="&#x327;" 
d="M-248 -68q64 -7 112 -47t48 -112q0 -75 -55 -118.5t-142 -43.5q-49 0 -91.5 16.5t-60.5 32.5l-18 16l39 74q6 -6 16 -14.5t44.5 -22.5t70.5 -14q46 0 75.5 21.5t29.5 56.5q0 39 -43.5 67.5t-138.5 28.5l59 145h92z" />
    <glyph glyph-name="uni0328" unicode="&#x328;" 
d="M-102 -328q-6 -7 -18 -17t-52 -27t-84 -17q-82 0 -133 46t-51 122q0 60 26 110t62.5 79.5t73 50t62.5 28.5l26 8l22 -53q-7 -2 -18.5 -6.5t-41 -22.5t-52.5 -39t-41.5 -58t-18.5 -79q0 -45 27.5 -71.5t70.5 -26.5q27 0 53 11.5t38 23.5l12 12z" />
    <glyph glyph-name="uni0335" unicode="&#x335;" 
d="M-590 432h549v-92h-549v92z" />
    <glyph glyph-name="uni0336" unicode="&#x336;" 
d="M-717 444h682v-104h-682v104z" />
    <glyph glyph-name="uni0337" unicode="&#x337;" 
d="M-541 694l453 264l47 -81l-453 -265z" />
    <glyph glyph-name="uni0338" unicode="&#x338;" 
d="M-283 1030h103l-690 -1071h-105z" />
    <glyph glyph-name="Wgrave" unicode="&#x1e80;" horiz-adv-x="1830" 
d="M868 1405l-180 248h166l127 -240zM1651 1343h129l-391 -1343h-146l-291 1018q-18 58 -34 149h-3q-16 -91 -34 -149l-299 -1018h-142l-389 1343h133l299 -1085q26 -103 29 -115h4q8 38 27 115l313 1085h121l315 -1085l27 -115h4q3 12 29 115z" />
    <glyph glyph-name="wgrave" unicode="&#x1e81;" horiz-adv-x="1505" 
d="M827 1122l-108 -8l-180 301h163zM1323 958h127l-297 -958h-152l-225 729q-12 46 -16 70h-4q-2 -13 -17 -70l-229 -729h-152l-307 958h139l224 -757q4 -15 10 -32t9.5 -28.5t4.5 -15.5h4q1 5 10 33t13 43l229 757h129l230 -753q7 -26 18 -80h4q2 4 10 32.5t15 47.5z" />
    <glyph glyph-name="Wacute" unicode="&#x1e82;" horiz-adv-x="1830" 
d="M963 1413l-111 -8l127 248h164zM1651 1343h129l-391 -1343h-146l-291 1018q-18 58 -34 149h-3q-16 -91 -34 -149l-299 -1018h-142l-389 1343h133l299 -1085q26 -103 29 -115h4q8 38 27 115l313 1085h121l315 -1085l27 -115h4q3 12 29 115z" />
    <glyph glyph-name="wacute" unicode="&#x1e83;" horiz-adv-x="1505" 
d="M993 1415l-176 -293l-112 -8l126 301h162zM1323 958h127l-297 -958h-152l-225 729q-12 46 -16 70h-4q-2 -13 -17 -70l-229 -729h-152l-307 958h139l224 -757q4 -15 10 -32t9.5 -28.5t4.5 -15.5h4q1 5 10 33t13 43l229 757h129l230 -753q7 -26 18 -80h4q2 4 10 32.5
t15 47.5z" />
    <glyph glyph-name="Wdieresis" unicode="&#x1e84;" horiz-adv-x="1830" 
d="M733 1444q-35 0 -60.5 24.5t-25.5 59.5t25.5 60.5t60.5 25.5q34 0 59 -25.5t25 -60.5t-25 -59.5t-59 -24.5zM1106 1444q-34 0 -60 24.5t-26 59.5t26 60.5t60 25.5q35 0 60.5 -25.5t25.5 -60.5t-25.5 -59.5t-60.5 -24.5zM1651 1343h129l-391 -1343h-146l-291 1018
q-18 58 -34 149h-3q-16 -91 -34 -149l-299 -1018h-142l-389 1343h133l299 -1085q26 -103 29 -115h4q8 38 27 115l313 1085h121l315 -1085l27 -115h4q3 12 29 115z" />
    <glyph glyph-name="wdieresis" unicode="&#x1e85;" horiz-adv-x="1505" 
d="M578 1186q-36 0 -61 25t-25 61t25 62t61 26q35 0 60.5 -26.5t25.5 -61.5t-25.5 -60.5t-60.5 -25.5zM950 1186q-35 0 -60.5 25.5t-25.5 60.5t25.5 61.5t60.5 26.5q36 0 61 -26t25 -62t-25 -61t-61 -25zM1323 958h127l-297 -958h-152l-225 729q-12 46 -16 70h-4
q-2 -13 -17 -70l-229 -729h-152l-307 958h139l224 -757q4 -15 10 -32t9.5 -28.5t4.5 -15.5h4q1 5 10 33t13 43l229 757h129l230 -753q7 -26 18 -80h4q2 4 10 32.5t15 47.5z" />
    <glyph glyph-name="Ygrave" unicode="&#x1ef2;" horiz-adv-x="1173" 
d="M653 1413l-112 -8l-181 248h166zM1128 1343l-475 -831v-512h-129v504l-481 839h141l344 -589q46 -79 60 -138h4q15 62 59 138l344 589h133z" />
    <glyph glyph-name="ygrave" unicode="&#x1ef3;" horiz-adv-x="1032" 
d="M477 1114l-180 301h164l125 -293zM514 -199q-42 -110 -105 -169.5t-173 -59.5q-36 0 -68.5 7t-47.5 13l-14 7l23 104q41 -22 98 -22q69 0 106.5 37t67.5 114l60 145l-410 981h137l312 -763q17 -38 22 -70h4q7 34 23 70l313 763h127z" />
    <glyph glyph-name="uni1EF8" unicode="&#x1ef8;" horiz-adv-x="1173" 
d="M397 1384h-102q-6 31 -6 68q0 69 44.5 111.5t117.5 42.5q44 0 88 -19t73.5 -41.5t62.5 -41.5t56 -19q70 0 70 76q0 13 -2 26.5t-4 20.5l-2 8h102q8 -29 8 -70q0 -68 -41.5 -114t-116.5 -46q-41 0 -84.5 19t-74.5 41.5t-65.5 41.5t-59.5 19q-33 0 -52.5 -19t-19.5 -52
q0 -10 2 -23t4 -21zM1128 1343l-475 -831v-512h-129v504l-481 839h141l344 -589q46 -79 60 -138h4q15 62 59 138l344 589h133z" />
    <glyph glyph-name="uni1EF9" unicode="&#x1ef9;" horiz-adv-x="1032" 
d="M801 1380q8 -28 8 -69q0 -69 -42.5 -114.5t-121.5 -45.5q-49 0 -102.5 30.5t-98 60.5t-73.5 30q-33 0 -54.5 -19t-21.5 -57q0 -12 2 -26t4 -22l2 -7h-102q-6 30 -6 69q0 66 44.5 113t116.5 47q44 0 88 -19t74 -41.5t63 -41.5t56 -19q70 0 70 76q0 13 -2.5 26.5t-4.5 20.5
l-2 8h103zM514 -199q-42 -110 -105 -169.5t-173 -59.5q-36 0 -68.5 7t-47.5 13l-14 7l23 104q41 -22 98 -22q69 0 106.5 37t67.5 114l60 145l-410 981h137l312 -763q17 -38 22 -70h4q7 34 23 70l313 763h127z" />
    <glyph glyph-name="endash" unicode="&#x2013;" horiz-adv-x="966" 
d="M121 512v96h725v-96h-725z" />
    <glyph glyph-name="emdash" unicode="&#x2014;" horiz-adv-x="1470" 
d="M121 512v96h1229v-96h-1229z" />
    <glyph glyph-name="quoteleft" unicode="&#x2018;" horiz-adv-x="442" 
d="M317 993q0 -40 -27 -65t-71 -25q-50 0 -80 34.5t-30 92.5q0 60 17 115.5t41.5 92t49.5 64.5t42 41l17 13l62 -74q-5 -4 -13 -10.5t-28.5 -28t-36 -44t-28.5 -55t-13 -63.5q41 0 69.5 -24.5t28.5 -63.5z" />
    <glyph glyph-name="quoteright" unicode="&#x2019;" horiz-adv-x="436" 
d="M129 1268q0 40 27 65t71 25q50 0 80.5 -34.5t30.5 -92.5q0 -60 -17.5 -115.5t-42 -92t-49 -64.5t-41.5 -41l-18 -13l-61 74q5 4 13 10.5t28 28t35.5 44t28.5 55t13 63.5q-41 0 -69.5 24.5t-28.5 63.5z" />
    <glyph glyph-name="quotesinglbase" unicode="&#x201a;" horiz-adv-x="458" 
d="M125 76q0 40 27 65t71 25q50 0 80.5 -34.5t30.5 -92.5q0 -60 -17.5 -115.5t-42 -92t-49 -64.5t-41.5 -41l-18 -13l-62 74q5 4 13 10.5t28.5 28t36 44t28.5 55t13 63.5q-41 0 -69.5 24.5t-28.5 63.5z" />
    <glyph glyph-name="quotedblleft" unicode="&#x201c;" horiz-adv-x="733" 
d="M317 993q0 -40 -27 -65t-71 -25q-50 0 -80 34.5t-30 92.5q0 60 17 115.5t41.5 92t49.5 64.5t42 41l17 13l62 -74q-5 -4 -13 -10.5t-28.5 -28t-36 -44t-28.5 -55t-13 -63.5q41 0 69.5 -24.5t28.5 -63.5zM608 993q0 -40 -27 -65t-71 -25q-50 0 -80.5 34.5t-30.5 92.5
q0 60 17.5 115.5t42 92t49 64.5t42.5 41l17 13l62 -74q-5 -4 -13 -10.5t-28.5 -28t-36 -44t-28.5 -55t-13 -63.5q41 0 69.5 -24.5t28.5 -63.5z" />
    <glyph glyph-name="quotedblright" unicode="&#x201d;" horiz-adv-x="727" 
d="M229 1358q48 0 78.5 -34.5t30.5 -92.5q0 -60 -17.5 -115.5t-42 -92t-49 -64.5t-41.5 -41l-18 -13l-61 74q5 4 13 10.5t28 28t35.5 44t28.5 55t13 63.5q-41 0 -69.5 24.5t-28.5 63.5q0 40 27.5 65t72.5 25zM520 1358q48 0 79.5 -35t31.5 -92q0 -60 -17.5 -115.5t-42.5 -92
t-50 -64.5t-43 -41l-17 -13l-62 74q5 4 13 10.5t28.5 28t36.5 44t29 55t14 63.5q-42 0 -71 24.5t-29 63.5q0 40 27.5 65t72.5 25z" />
    <glyph glyph-name="quotedblbase" unicode="&#x201e;" horiz-adv-x="751" 
d="M125 76q0 40 27 65t71 25q50 0 80.5 -34.5t30.5 -92.5q0 -60 -17.5 -115.5t-42 -92t-49 -64.5t-41.5 -41l-18 -13l-62 74q5 4 13 10.5t28.5 28t36 44t28.5 55t13 63.5q-41 0 -69.5 24.5t-28.5 63.5zM416 76q0 40 27 65t71 25q50 0 80.5 -34.5t30.5 -92.5
q0 -60 -17.5 -115.5t-42 -92t-49 -64.5t-42.5 -41l-17 -13l-62 74q5 4 13 10.5t28.5 28t36 44t28.5 55t13 63.5q-41 0 -69.5 24.5t-28.5 63.5z" />
    <glyph glyph-name="dagger" unicode="&#x2020;" horiz-adv-x="829" 
d="M721 858l-256 6l-4 -407l10 -875h-113l9 875l-5 407l-253 -6v100l253 -6l-4 387h113l-4 -387l254 6v-100z" />
    <glyph glyph-name="daggerdbl" unicode="&#x2021;" horiz-adv-x="829" 
d="M721 848l-254 4l-6 -363l6 -380l254 6v-97l-254 5l4 -441h-113l2 441l-251 -5v97l251 -6l7 380l-7 363l-251 -4v100l251 -4l-2 399h113l-4 -399l254 4v-100z" />
    <glyph glyph-name="bullet" unicode="&#x2022;" horiz-adv-x="702" 
d="M528 592q0 -72 -52.5 -124t-125.5 -52q-72 0 -124 52t-52 124q0 73 52 125.5t124 52.5q74 0 126 -52t52 -126z" />
    <glyph glyph-name="ellipsis" unicode="&#x2026;" horiz-adv-x="1105" 
d="M125 80q0 38 28 66t66 28t65 -28t27 -66t-27 -65t-65 -27t-66 27t-28 65zM455 80q0 38 28 66t66 28t65 -28t27 -66t-27 -65t-65 -27t-66 27t-28 65zM795 80q0 38 28 66t66 28t65 -28t27 -66t-27 -65t-65 -27t-66 27t-28 65z" />
    <glyph glyph-name="perthousand" unicode="&#x2030;" horiz-adv-x="2547" 
d="M528 0l613 1356h121l-611 -1356h-123zM410 594q-152 0 -244 102t-92 271q0 174 91.5 278.5t244.5 104.5t245.5 -104.5t92.5 -278.5q0 -169 -93 -271t-245 -102zM410 705q97 0 157 71.5t60 190.5q0 124 -60 198t-157 74q-96 0 -155.5 -74t-59.5 -198q0 -119 59.5 -190.5
t155.5 -71.5zM1346 -8q-151 0 -243.5 102.5t-92.5 270.5q0 174 92.5 278.5t243.5 104.5q153 0 246.5 -104.5t93.5 -278.5q0 -168 -93.5 -270.5t-246.5 -102.5zM2138 -8q-151 0 -243.5 102.5t-92.5 270.5q0 174 92.5 278.5t243.5 104.5q154 0 247 -104.5t93 -278.5
q0 -169 -93 -271t-247 -102zM1346 102q98 0 157.5 71.5t59.5 191.5q0 124 -59 198t-158 74q-96 0 -156 -74.5t-60 -197.5q0 -119 60 -191t156 -72zM2138 102q98 0 157.5 71.5t59.5 191.5q0 124 -59 198t-158 74q-96 0 -155.5 -74t-59.5 -198q0 -119 59.5 -191t155.5 -72z
" />
    <glyph glyph-name="guilsinglleft" unicode="&#x2039;" horiz-adv-x="563" 
d="M94 489v103l283 274l65 -73l-266 -252l266 -252l-65 -74z" />
    <glyph glyph-name="guilsinglright" unicode="&#x203a;" horiz-adv-x="563" 
d="M186 215l-65 74l266 252l-266 252l65 73l283 -274v-103z" />
    <glyph glyph-name="fraction" unicode="&#x2044;" horiz-adv-x="647" 
d="M37 0l452 1487h125l-452 -1487h-125z" />
    <glyph glyph-name="Euro" unicode="&#x20ac;" horiz-adv-x="1452" 
d="M881 102q74 0 140 18t114 48.5t81 61t58 65.5l80 -78q-16 -23 -37.5 -47.5t-64.5 -58.5t-93 -59.5t-124.5 -43.5t-157.5 -18q-223 0 -378 130.5t-202 360.5h-213l22 94h177q-4 62 -4 97q0 54 6 106h-201l22 92h193q49 228 204 357t376 129q80 0 154 -19t124 -45.5
t93.5 -61.5t66 -60t37.5 -48l-80 -78q-56 78 -156.5 138.5t-236.5 60.5q-159 0 -282 -96.5t-169 -276.5h598l-22 -92h-592q-6 -50 -6 -106q0 -50 6 -97h553l-23 -94h-514q44 -183 167.5 -281t283.5 -98z" />
    <glyph glyph-name="trademark" unicode="&#x2122;" horiz-adv-x="1435" 
d="M74 1266v77h520v-77h-213v-488h-94v488h-213zM1182 1343h96v-565h-84v402l-182 -402h-64l-180 402v-402h-86v565h102l197 -434z" />
    <glyph glyph-name="minus" unicode="&#x2212;" horiz-adv-x="1019" 
d="M147 459v96h725v-96h-725z" />
    <glyph glyph-name="uni2215" unicode="&#x2215;" horiz-adv-x="808" 
d="M20 0l650 1487h123l-648 -1487h-125z" />
    <glyph glyph-name="uni2219" unicode="&#x2219;" horiz-adv-x="655" 
d="M328 485q-33 0 -54.5 21.5t-21.5 54.5q0 34 21 56t55 22q32 0 53.5 -22t21.5 -56q0 -32 -21.5 -54t-53.5 -22z" />
    <glyph glyph-name="approxequal" unicode="&#x2248;" horiz-adv-x="1157" 
d="M150 618v93q86 63 217 63q82 0 212.5 -41t211.5 -41q55 0 116 16.5t103 47.5v-94q-97 -64 -219 -64q-81 0 -211.5 41t-212.5 41q-52 0 -115 -17t-102 -45zM150 266v92q90 66 217 66q82 0 212.5 -41t211.5 -41q56 0 117 15.5t102 45.5v-94q-95 -63 -219 -63
q-81 0 -211.5 41t-212.5 41q-52 0 -115 -17t-102 -45z" />
    <glyph glyph-name="notequal" unicode="&#x2260;" horiz-adv-x="1079" 
d="M932 662h-291l-88 -297h379v-95h-408l-80 -270h-104l82 270h-275v95h304l88 297h-392v94h420l64 211h102l-63 -211h262v-94z" />
    <glyph glyph-name="uniF8FF" unicode="&#xf8ff;" horiz-adv-x="2971" 
d="M1415 1194q0 54 36 90.5t89 36.5q54 0 90.5 -36.5t36.5 -90.5q0 -53 -36.5 -89t-90.5 -36q-52 0 -88.5 36.5t-36.5 88.5zM449 553h-244q0 274 18 643h205q1 -10 4 -65t5.5 -108t5.5 -128t4.5 -164t1.5 -178zM1421 553q0 187 6 301h-124l6 -133q8 -8 30 -8q27 0 37 10
v-152q-26 -30 -139 -30q-168 0 -168 135q0 25 4 100.5t4 77.5h-45v162l244 61l2 -35h364q21 -138 21 -489h-242zM672 543q-90 0 -139.5 58t-49.5 175q0 133 68.5 205t206.5 72q128 0 191 -62t63 -178v-260h-170l-17 125q-13 -67 -48 -101t-105 -34zM2232 553h-233
q0 54 2 115t2 75q0 33 -6 46.5t-25 13.5q-23 0 -30 -15t-7 -45q0 -14 3.5 -75t3.5 -115h-234q0 351 21 489h163q13 -97 13 -155q2 20 9 42t23 53t50 51t81 20q87 0 121 -51t37 -166zM2767 801q0 -125 -62 -191.5t-190 -66.5q-127 0 -188.5 66.5t-61.5 187.5q0 53 12 96
t39 80.5t79 58.5t124 21q248 0 248 -252zM799 768q0 53 -49 53q-24 0 -34.5 -12t-10.5 -41q0 -61 45 -61q49 0 49 61zM2562 768q0 53 -47 53q-22 0 -32.5 -12t-10.5 -41q0 -61 43 -61q22 0 34.5 16t12.5 45zM877 487h213q20 -107 20 -282q0 -166 -68.5 -236.5t-242.5 -70.5
q-127 0 -181 34v170q48 -32 144 -32q43 0 69.5 12.5t33.5 24t7 20.5q-35 -23 -100 -23q-184 0 -184 170v27h-113l6 -133q12 -8 31 -8q27 0 37 10v-150q-37 -30 -139 -30q-91 0 -128.5 34.5t-37.5 110.5q0 79 6 166h-37v164l240 59l-2 -37h362v-243q0 -33 6 -44.5t25 -11.5
t26 12.5t7 43.5v243zM1501 498q76 0 120 -60t44 -172q0 -276 -281 -276q2 -31 2 -80h-243q0 292 20 577h160q14 -87 14 -155q3 16 7 29.5t16.5 41t28.5 46.5t46 34t66 15zM2191 260q0 -45 -6 -72h-254q23 -36 103 -36q68 0 112 24v-153q-47 -33 -159 -33q-289 0 -289 250
q0 121 67 189.5t189 68.5q113 0 175 -61.5t62 -176.5zM2003 223q6 56 -35 56q-47 0 -47 -56h82zM1372 147q11 0 26.5 5t32.5 24t17 47q0 47 -41 47q-45 0 -45 -63q0 -30 10 -60zM2200 27q0 -22 13.5 -34.5t35.5 -12.5t35.5 12.5t13.5 34.5t-13.5 34.5t-35.5 12.5
t-35.5 -12.5t-13.5 -34.5zM2212 27q0 36 37 36t37 -36q0 -37 -37 -37t-37 37zM2269 4l-12 19q14 0 14 14t-20 14h-23v-47h10v19h11l8 -19h12zM2253 31h-15v12h15q8 0 8 -6t-8 -6z" />
    <glyph glyph-name="I.ss01" horiz-adv-x="700" 
d="M614 1233h-198v-1122h198v-111h-528v111h199v1122h-199v110h528v-110z" />
    <glyph glyph-name="Iacute.ss01" horiz-adv-x="700" 
d="M578 1653l-181 -240l-110 -8l127 248h164zM614 1233h-198v-1122h198v-111h-528v111h199v1122h-199v110h528v-110z" />
    <glyph glyph-name="Ibreve.ss01" horiz-adv-x="700" 
d="M350 1403q-110 0 -173.5 67.5t-63.5 171.5h98q0 -68 36.5 -107t102.5 -40q65 0 102 39.5t37 107.5h99q0 -104 -64 -171.5t-174 -67.5zM614 1233h-198v-1122h198v-111h-528v111h199v1122h-199v110h528v-110z" />
    <glyph glyph-name="Icircumflex.ss01" horiz-adv-x="700" 
d="M350 1563l-153 -154l-117 -4l201 258h143l199 -258l-115 4zM614 1343v-110h-198v-1122h198v-111h-528v111h199v1122h-199v110h528z" />
    <glyph glyph-name="Idieresis.ss01" horiz-adv-x="700" 
d="M168 1444q-35 0 -60.5 24.5t-25.5 59.5t25.5 60.5t60.5 25.5q34 0 59 -25.5t25 -60.5t-25 -59.5t-59 -24.5zM541 1444q-34 0 -60 24.5t-26 59.5t26 60.5t60 25.5q35 0 60.5 -25.5t25.5 -60.5t-25.5 -59.5t-60.5 -24.5zM614 1343v-110h-198v-1122h198v-111h-528v111h199
v1122h-199v110h528z" />
    <glyph glyph-name="Idotaccent.ss01" horiz-adv-x="700" 
d="M350 1430q-40 0 -68 27t-28 67t28 68t68 28t69.5 -28.5t29.5 -67.5t-29.5 -66.5t-69.5 -27.5zM614 1233h-198v-1122h198v-111h-528v111h199v1122h-199v110h528v-110z" />
    <glyph glyph-name="Igrave.ss01" horiz-adv-x="700" 
d="M416 1413l-113 -8l-180 248h166zM614 1233h-198v-1122h198v-111h-528v111h199v1122h-199v110h528v-110z" />
    <glyph glyph-name="Imacron.ss01" horiz-adv-x="700" 
d="M88 1548h545v-94h-545v94zM614 1343v-110h-198v-1122h198v-111h-528v111h199v1122h-199v110h528z" />
    <glyph glyph-name="Iogonek.ss01" horiz-adv-x="700" 
d="M614 1233h-198v-1122h198v-111h-198q-7 -2 -18.5 -6.5t-41 -22.5t-52.5 -39t-41.5 -58t-18.5 -79q0 -45 27.5 -71.5t70.5 -26.5q27 0 52.5 11.5t37.5 23.5l12 12l37 -74q-6 -7 -17.5 -17t-51.5 -27t-84 -17q-82 0 -133.5 46t-51.5 122q0 140 133 223h-190v111h199v1122
h-199v110h528v-110z" />
    <glyph glyph-name="Itilde.ss01" horiz-adv-x="700" 
d="M129 1436q0 -10 2 -23t4 -21l2 -8h-102q-6 31 -6 68q0 69 44 111.5t117 42.5q44 0 88 -19t74 -41.5t63 -41.5t56 -19q70 0 70 76q0 13 -2.5 26.5t-4.5 20.5l-2 8h103q8 -29 8 -70q0 -68 -41.5 -114t-116.5 -46q-41 0 -84.5 19t-74.5 41.5t-65.5 41.5t-59.5 19
q-33 0 -52.5 -19t-19.5 -52zM614 1343v-110h-198v-1122h198v-111h-528v111h199v1122h-199v110h528z" />
    <glyph glyph-name="K.ss01" horiz-adv-x="1310" 
d="M1296 2q-1 0 -14.5 -1.5t-34 -3t-39.5 -1.5q-62 0 -114 26t-87 68t-69 96.5t-59.5 110.5t-58 110.5t-65 96.5t-80 68t-104.5 26h-249v-598h-129v1343h129v-636h239q59 0 114 17.5t112 63t99 115t68.5 183t26.5 257.5h129q0 -545 -354 -688q62 -25 116 -92t92.5 -143.5
t78 -150.5t89.5 -122.5t109 -48.5h55v-96z" />
    <glyph glyph-name="Kcommaaccent.ss01" horiz-adv-x="1310" 
d="M1296 2q-1 0 -14.5 -1.5t-34 -3t-39.5 -1.5q-62 0 -114 26t-87 68t-69 96.5t-59.5 110.5t-58 110.5t-65 96.5t-80 68t-104.5 26h-249v-598h-129v1343h129v-636h239q59 0 114 17.5t112 63t99 115t68.5 183t26.5 257.5h129q0 -545 -354 -688q62 -25 116 -92t92.5 -143.5
t78 -150.5t89.5 -122.5t109 -48.5h55v-96zM590 -182q0 39 27.5 66.5t66.5 27.5q42 0 70 -29.5t28 -81.5t-15 -96.5t-36 -71t-42.5 -45.5t-36.5 -26l-15 -8l-43 63q4 2 10 5.5t22 15t28.5 23.5t22.5 30t11 35q-41 0 -69.5 27t-28.5 65z" />
    <glyph glyph-name="R.ss01" horiz-adv-x="1191" 
d="M1108 0h-156l-317 537q-68 -5 -82 -5h-234v-532h-126v1343h395q223 0 347 -104.5t124 -304.5q0 -135 -76.5 -230t-208.5 -139zM319 635h246q159 0 261 79t102 220q0 142 -92 220.5t-254 78.5h-263v-598z" />
    <glyph glyph-name="i.loclTRK" horiz-adv-x="450" 
d="M319 1272q0 -39 -29 -66.5t-69 -27.5t-68 27t-28 67q0 41 28 68.5t68 27.5t69 -27.5t29 -68.5zM164 0v958l125 5v-963h-125z" />
    <glyph glyph-name="a.ss01" horiz-adv-x="1216" 
d="M1130 104l9 -104l-5 -1q-4 -1 -11.5 -2.5t-16.5 -3t-20.5 -2.5t-22.5 -1q-67 0 -106 35t-39 108v82h-5q-42 -101 -136.5 -163t-227.5 -62q-200 0 -325.5 135.5t-125.5 355.5q0 219 126.5 353.5t330.5 134.5q140 0 237 -70t134 -180h2q-3 103 18 239h86v-780
q0 -41 16 -59.5t50 -18.5q16 0 32 4zM569 94q80 0 146.5 32.5t107.5 83.5t63.5 110t22.5 116v33l2 59l-2 -6q0 58 -21.5 116t-62 109.5t-109.5 84t-155 32.5q-152 0 -244 -105.5t-92 -277.5q0 -174 94 -280.5t250 -106.5z" />
    <glyph glyph-name="aacute.ss01" horiz-adv-x="1216" 
d="M782 1415l-176 -293l-112 -8l127 301h161zM1130 104l9 -104l-5 -1q-4 -1 -11.5 -2.5t-16.5 -3t-20.5 -2.5t-22.5 -1q-67 0 -106 35t-39 108v82h-5q-42 -101 -136.5 -163t-227.5 -62q-200 0 -325.5 135.5t-125.5 355.5q0 219 126.5 353.5t330.5 134.5q140 0 237 -70
t134 -180h2q-3 103 18 239h86v-780q0 -41 16 -59.5t50 -18.5q16 0 32 4zM569 94q80 0 146.5 32.5t107.5 83.5t63.5 110t22.5 116v33l2 59l-2 -6q0 58 -21.5 116t-62 109.5t-109.5 84t-155 32.5q-152 0 -244 -105.5t-92 -277.5q0 -174 94 -280.5t250 -106.5z" />
    <glyph glyph-name="abreve.ss01" horiz-adv-x="1216" 
d="M602 1112q-122 0 -190 77.5t-68 203.5h107q0 -90 40.5 -138.5t110.5 -50.5q70 0 111 49.5t41 139.5h106q0 -126 -68 -203.5t-190 -77.5zM1130 104l9 -104l-5 -1q-4 -1 -11.5 -2.5t-16.5 -3t-20.5 -2.5t-22.5 -1q-67 0 -106 35t-39 108v82h-5q-42 -101 -136.5 -163
t-227.5 -62q-200 0 -325.5 135.5t-125.5 355.5q0 219 126.5 353.5t330.5 134.5q140 0 237 -70t134 -180h2q-3 103 18 239h86v-780q0 -41 16 -59.5t50 -18.5q16 0 32 4zM569 94q80 0 146.5 32.5t107.5 83.5t63.5 110t22.5 116v33l2 59l-2 -6q0 58 -21.5 116t-62 109.5
t-109.5 84t-155 32.5q-152 0 -244 -105.5t-92 -277.5q0 -174 94 -280.5t250 -106.5z" />
    <glyph glyph-name="acircumflex.ss01" horiz-adv-x="1216" 
d="M598 1313l-154 -195l-116 -4l200 299h144l198 -299l-114 4zM1130 104l9 -104l-5 -1q-4 -1 -11.5 -2.5t-16.5 -3t-20.5 -2.5t-22.5 -1q-67 0 -106 35t-39 108v82h-5q-42 -101 -136.5 -163t-227.5 -62q-200 0 -325.5 135.5t-125.5 355.5q0 219 126.5 353.5t330.5 134.5
q140 0 237 -70t134 -180h2q-3 103 18 239h86v-780q0 -41 16 -59.5t50 -18.5q16 0 32 4zM569 94q80 0 146.5 32.5t107.5 83.5t63.5 110t22.5 116v33l2 59l-2 -6q0 58 -21.5 116t-62 109.5t-109.5 84t-155 32.5q-152 0 -244 -105.5t-92 -277.5q0 -174 94 -280.5t250 -106.5z
" />
    <glyph glyph-name="adieresis.ss01" horiz-adv-x="1216" 
d="M422 1186q-36 0 -61 25t-25 61t25 62t61 26q35 0 60.5 -26.5t25.5 -61.5t-25.5 -60.5t-60.5 -25.5zM795 1186q-35 0 -60.5 25.5t-25.5 60.5t25.5 61.5t60.5 26.5q36 0 61 -26t25 -62t-25 -61t-61 -25zM1130 104l9 -104l-5 -1q-4 -1 -11.5 -2.5t-16.5 -3t-20.5 -2.5
t-22.5 -1q-67 0 -106 35t-39 108v82h-5q-42 -101 -136.5 -163t-227.5 -62q-200 0 -325.5 135.5t-125.5 355.5q0 219 126.5 353.5t330.5 134.5q140 0 237 -70t134 -180h2q-3 103 18 239h86v-780q0 -41 16 -59.5t50 -18.5q16 0 32 4zM569 94q80 0 146.5 32.5t107.5 83.5
t63.5 110t22.5 116v33l2 59l-2 -6q0 58 -21.5 116t-62 109.5t-109.5 84t-155 32.5q-152 0 -244 -105.5t-92 -277.5q0 -174 94 -280.5t250 -106.5z" />
    <glyph glyph-name="agrave.ss01" horiz-adv-x="1216" 
d="M672 1122l-109 -8l-180 301h164zM1130 104l9 -104l-5 -1q-4 -1 -11.5 -2.5t-16.5 -3t-20.5 -2.5t-22.5 -1q-67 0 -106 35t-39 108v82h-5q-42 -101 -136.5 -163t-227.5 -62q-200 0 -325.5 135.5t-125.5 355.5q0 219 126.5 353.5t330.5 134.5q140 0 237 -70t134 -180h2
q-3 103 18 239h86v-780q0 -41 16 -59.5t50 -18.5q16 0 32 4zM569 94q80 0 146.5 32.5t107.5 83.5t63.5 110t22.5 116v33l2 59l-2 -6q0 58 -21.5 116t-62 109.5t-109.5 84t-155 32.5q-152 0 -244 -105.5t-92 -277.5q0 -174 94 -280.5t250 -106.5z" />
    <glyph glyph-name="amacron.ss01" horiz-adv-x="1216" 
d="M879 1319v-96h-541v96h541zM1130 104l9 -104l-5 -1q-4 -1 -11.5 -2.5t-16.5 -3t-20.5 -2.5t-22.5 -1q-67 0 -106 35t-39 108v82h-5q-42 -101 -136.5 -163t-227.5 -62q-200 0 -325.5 135.5t-125.5 355.5q0 219 126.5 353.5t330.5 134.5q140 0 237 -70t134 -180h2
q-3 103 18 239h86v-780q0 -41 16 -59.5t50 -18.5q16 0 32 4zM569 94q80 0 146.5 32.5t107.5 83.5t63.5 110t22.5 116v33l2 59l-2 -6q0 58 -21.5 116t-62 109.5t-109.5 84t-155 32.5q-152 0 -244 -105.5t-92 -277.5q0 -174 94 -280.5t250 -106.5z" />
    <glyph glyph-name="aogonek.ss01" horiz-adv-x="1216" 
d="M1167 -256l37 -74q-6 -7 -17.5 -17t-51.5 -27t-84 -17q-82 0 -133.5 46t-51.5 122q0 136 133 223q-81 30 -81 133v82h-5q-42 -101 -136.5 -163t-227.5 -62q-200 0 -325.5 135.5t-125.5 355.5q0 219 126.5 353.5t330.5 134.5q140 0 237 -70t134 -180h2q-3 103 18 239h86
v-780q0 -41 16 -59.5t50 -18.5q16 0 32 4l9 -104q-7 -2 -18.5 -6.5t-41 -22.5t-52.5 -39t-41.5 -58t-18.5 -79q0 -45 27.5 -71.5t70.5 -26.5q27 0 52.5 11.5t37.5 23.5zM569 94q80 0 146.5 32.5t107.5 83.5t63.5 110t22.5 116v33l2 59l-2 -6q0 58 -21.5 116t-62 109.5
t-109.5 84t-155 32.5q-152 0 -244 -105.5t-92 -277.5q0 -174 94 -280.5t250 -106.5z" />
    <glyph glyph-name="aring.ss01" horiz-adv-x="1216" 
d="M602 1102q-69 0 -117.5 46.5t-48.5 115.5q0 70 48 116.5t118 46.5t118 -46.5t48 -116.5q0 -69 -48.5 -115.5t-117.5 -46.5zM602 1343q-34 0 -57 -22t-23 -57q0 -34 23 -57t57 -23t57 23t23 57q0 35 -23 57t-57 22zM1130 104l9 -104l-5 -1q-4 -1 -11.5 -2.5t-16.5 -3
t-20.5 -2.5t-22.5 -1q-67 0 -106 35t-39 108v82h-5q-42 -101 -136.5 -163t-227.5 -62q-200 0 -325.5 135.5t-125.5 355.5q0 219 126.5 353.5t330.5 134.5q140 0 237 -70t134 -180h2q-3 103 18 239h86v-780q0 -41 16 -59.5t50 -18.5q16 0 32 4zM569 94q80 0 146.5 32.5
t107.5 83.5t63.5 110t22.5 116v33l2 59l-2 -6q0 58 -21.5 116t-62 109.5t-109.5 84t-155 32.5q-152 0 -244 -105.5t-92 -277.5q0 -174 94 -280.5t250 -106.5z" />
    <glyph glyph-name="atilde.ss01" horiz-adv-x="1216" 
d="M389 1141h-102q-6 30 -6 69q0 66 44.5 113t116.5 47q44 0 88 -19t74 -41.5t63 -41.5t56 -19q70 0 70 76q0 13 -2.5 26.5t-4.5 20.5l-2 8h103q8 -28 8 -69q0 -69 -42.5 -114.5t-121.5 -45.5q-49 0 -102.5 30.5t-98 60.5t-73.5 30q-33 0 -54.5 -19t-21.5 -57q0 -12 2 -26
t4 -22zM1130 104l9 -104l-5 -1q-4 -1 -11.5 -2.5t-16.5 -3t-20.5 -2.5t-22.5 -1q-67 0 -106 35t-39 108v82h-5q-42 -101 -136.5 -163t-227.5 -62q-200 0 -325.5 135.5t-125.5 355.5q0 219 126.5 353.5t330.5 134.5q140 0 237 -70t134 -180h2q-3 103 18 239h86v-780
q0 -41 16 -59.5t50 -18.5q16 0 32 4zM569 94q80 0 146.5 32.5t107.5 83.5t63.5 110t22.5 116v33l2 59l-2 -6q0 58 -21.5 116t-62 109.5t-109.5 84t-155 32.5q-152 0 -244 -105.5t-92 -277.5q0 -174 94 -280.5t250 -106.5z" />
    <glyph glyph-name="d.ss01" horiz-adv-x="1216" 
d="M1130 104l9 -104l-5 -1q-4 -1 -11.5 -2.5t-16.5 -3t-20.5 -2.5t-22.5 -1q-67 0 -106 35t-39 108v84h-5q-44 -101 -137.5 -164t-226.5 -63q-200 0 -325.5 135.5t-125.5 355.5t126.5 355t330.5 135q125 0 216 -55t138 -146v672h123v-1264q0 -41 16 -59.5t50 -18.5
q16 0 32 4zM569 96q81 0 148 32.5t107.5 83.5t62.5 110t22 116v86q0 57 -22 115.5t-63 109.5t-110 83t-153 32q-152 0 -244 -105.5t-92 -277.5q0 -174 94 -279.5t250 -105.5z" />
    <glyph glyph-name="dcaron.ss01" horiz-adv-x="1214" 
d="M1243 1468q43 0 71.5 -28.5t28.5 -77.5q0 -56 -14.5 -107t-35.5 -83t-41.5 -56t-35.5 -34l-14 -11l-51 68q4 2 10.5 7t23 20t29 30.5t23 39t10.5 46.5q-40 0 -69 27t-29 65q0 39 27.5 66.5t66.5 27.5zM1098 100q16 0 32 4l9 -104l-5 -1q-4 -1 -11.5 -2.5t-16.5 -3
t-20.5 -2.5t-22.5 -1q-67 0 -106 35t-39 108v84h-5q-44 -101 -137.5 -164t-226.5 -63q-200 0 -325.5 135.5t-125.5 355.5t126.5 355t330.5 135q125 0 216 -55t138 -146v672h123v-1264q0 -41 16 -59.5t50 -18.5zM569 96q81 0 148 32.5t107.5 83.5t62.5 110t22 116v86
q0 57 -22 115.5t-63 109.5t-110 83t-153 32q-152 0 -244 -105.5t-92 -277.5q0 -174 94 -279.5t250 -105.5z" />
    <glyph glyph-name="dcroat.ss01" horiz-adv-x="1216" 
d="M1157 1145h-125v-967q0 -41 16 -59.5t50 -18.5q16 0 32 4l9 -104l-5 -1q-4 -1 -11.5 -2.5t-16.5 -3t-20.5 -2.5t-22.5 -1q-67 0 -106 35t-39 108v84h-5q-44 -101 -137.5 -164t-226.5 -63q-200 0 -325.5 135.5t-125.5 355.5t126.5 355t330.5 135q125 0 216 -55t138 -146
v375h-301v92h301v205h123v-205h125v-92zM569 96q81 0 148 32.5t107.5 83.5t62.5 110t22 116v86q0 57 -22 115.5t-63 109.5t-110 83t-153 32q-152 0 -244 -105.5t-92 -277.5q0 -174 94 -279.5t250 -105.5z" />
    <glyph glyph-name="e.ss01" horiz-adv-x="1056" 
d="M590 94q184 0 284 125l78 -72q-127 -157 -370 -157q-222 0 -353 133t-131 354q0 220 129.5 356t333.5 136q189 0 294.5 -87.5t105.5 -234.5q0 -287 -508 -287l-215 2q31 -126 123 -197t229 -71zM567 864q-151 0 -246.5 -104t-95.5 -281v-24l217 -2q216 0 306 47.5
t90 152.5q0 96 -73 153.5t-198 57.5z" />
    <glyph glyph-name="eacute.ss01" horiz-adv-x="1056" 
d="M741 1415l-176 -293l-112 -8l127 301h161zM590 94q184 0 284 125l78 -72q-127 -157 -370 -157q-222 0 -353 133t-131 354q0 220 129.5 356t333.5 136q189 0 294.5 -87.5t105.5 -234.5q0 -287 -508 -287l-215 2q31 -126 123 -197t229 -71zM567 864q-151 0 -246.5 -104
t-95.5 -281v-24l217 -2q216 0 306 47.5t90 152.5q0 96 -73 153.5t-198 57.5z" />
    <glyph glyph-name="ebreve.ss01" horiz-adv-x="1056" 
d="M561 1112q-122 0 -190 77.5t-68 203.5h107q0 -90 40.5 -138.5t110.5 -50.5q70 0 111 49.5t41 139.5h106q0 -126 -68 -203.5t-190 -77.5zM590 94q184 0 284 125l78 -72q-127 -157 -370 -157q-222 0 -353 133t-131 354q0 220 129.5 356t333.5 136q189 0 294.5 -87.5
t105.5 -234.5q0 -287 -508 -287l-215 2q31 -126 123 -197t229 -71zM567 864q-151 0 -246.5 -104t-95.5 -281v-24l217 -2q216 0 306 47.5t90 152.5q0 96 -73 153.5t-198 57.5z" />
    <glyph glyph-name="ecaron.ss01" horiz-adv-x="1056" 
d="M635 1114h-143l-201 299l117 -4l153 -195l158 195l115 4zM590 94q184 0 284 125l78 -72q-127 -157 -370 -157q-222 0 -353 133t-131 354q0 220 129.5 356t333.5 136q189 0 294.5 -87.5t105.5 -234.5q0 -287 -508 -287l-215 2q31 -126 123 -197t229 -71zM567 864
q-151 0 -246.5 -104t-95.5 -281v-24l217 -2q216 0 306 47.5t90 152.5q0 96 -73 153.5t-198 57.5z" />
    <glyph glyph-name="ecircumflex.ss01" horiz-adv-x="1056" 
d="M557 1313l-154 -195l-116 -4l200 299h144l198 -299l-114 4zM590 94q184 0 284 125l78 -72q-127 -157 -370 -157q-222 0 -353 133t-131 354q0 220 129.5 356t333.5 136q189 0 294.5 -87.5t105.5 -234.5q0 -287 -508 -287l-215 2q31 -126 123 -197t229 -71zM567 864
q-151 0 -246.5 -104t-95.5 -281v-24l217 -2q216 0 306 47.5t90 152.5q0 96 -73 153.5t-198 57.5z" />
    <glyph glyph-name="edieresis.ss01" horiz-adv-x="1056" 
d="M381 1186q-36 0 -61 25t-25 61t25 62t61 26q35 0 60.5 -26.5t25.5 -61.5t-25.5 -60.5t-60.5 -25.5zM754 1186q-35 0 -60.5 25.5t-25.5 60.5t25.5 61.5t60.5 26.5q36 0 61 -26t25 -62t-25 -61t-61 -25zM590 94q184 0 284 125l78 -72q-127 -157 -370 -157q-222 0 -353 133
t-131 354q0 220 129.5 356t333.5 136q189 0 294.5 -87.5t105.5 -234.5q0 -287 -508 -287l-215 2q31 -126 123 -197t229 -71zM567 864q-151 0 -246.5 -104t-95.5 -281v-24l217 -2q216 0 306 47.5t90 152.5q0 96 -73 153.5t-198 57.5z" />
    <glyph glyph-name="edotaccent.ss01" horiz-adv-x="1056" 
d="M561 1178q-40 0 -68 27t-28 67q0 41 28 68.5t68 27.5t69 -27.5t29 -68.5q0 -39 -29 -66.5t-69 -27.5zM590 94q184 0 284 125l78 -72q-127 -157 -370 -157q-222 0 -353 133t-131 354q0 220 129.5 356t333.5 136q189 0 294.5 -87.5t105.5 -234.5q0 -287 -508 -287l-215 2
q31 -126 123 -197t229 -71zM567 864q-151 0 -246.5 -104t-95.5 -281v-24l217 -2q216 0 306 47.5t90 152.5q0 96 -73 153.5t-198 57.5z" />
    <glyph glyph-name="egrave.ss01" horiz-adv-x="1056" 
d="M631 1122l-109 -8l-180 301h164zM590 94q184 0 284 125l78 -72q-127 -157 -370 -157q-222 0 -353 133t-131 354q0 220 129.5 356t333.5 136q189 0 294.5 -87.5t105.5 -234.5q0 -287 -508 -287l-215 2q31 -126 123 -197t229 -71zM567 864q-151 0 -246.5 -104t-95.5 -281
v-24l217 -2q216 0 306 47.5t90 152.5q0 96 -73 153.5t-198 57.5z" />
    <glyph glyph-name="emacron.ss01" horiz-adv-x="1056" 
d="M838 1319v-96h-541v96h541zM590 94q184 0 284 125l78 -72q-127 -157 -370 -157q-222 0 -353 133t-131 354q0 220 129.5 356t333.5 136q189 0 294.5 -87.5t105.5 -234.5q0 -287 -508 -287l-215 2q31 -126 123 -197t229 -71zM567 864q-151 0 -246.5 -104t-95.5 -281v-24
l217 -2q216 0 306 47.5t90 152.5q0 96 -73 153.5t-198 57.5z" />
    <glyph glyph-name="eogonek.ss01" horiz-adv-x="1056" 
d="M590 94q184 0 284 125l78 -72q-95 -118 -262 -147q-125 -71 -125 -184q0 -45 28 -72t71 -27q27 0 52.5 11.5t37.5 23.5l12 12l37 -73q-6 -7 -18 -17.5t-52 -27.5t-84 -17q-82 0 -133 46t-51 122q0 112 92 193q-211 7 -335 139.5t-124 347.5q0 220 129.5 356t333.5 136
q189 0 294.5 -87.5t105.5 -234.5q0 -287 -508 -287l-215 2q31 -126 123 -197t229 -71zM567 864q-151 0 -246.5 -104t-95.5 -281v-24l217 -2q216 0 306 47.5t90 152.5q0 96 -73 153.5t-198 57.5z" />
    <glyph glyph-name="g.ss01" horiz-adv-x="1193" 
d="M946 958h86v-974q0 -191 -123.5 -301.5t-343.5 -110.5q-103 0 -195 23t-136 45.5t-76 46.5l57 100q55 -46 148 -78.5t202 -32.5q164 0 254 79.5t90 226.5v221q-46 -97 -139 -155t-221 -58q-200 0 -325.5 135.5t-125.5 355.5q0 219 126.5 353.5t330.5 134.5q140 0 237 -70
t134 -180h2q-3 103 18 239zM569 94q80 0 146.5 32.5t107.5 83.5t63.5 110t22.5 116v86q0 58 -21.5 116t-62 109.5t-109.5 84t-155 32.5q-152 0 -244 -105.5t-92 -277.5q0 -174 94 -280.5t250 -106.5z" />
    <glyph glyph-name="gbreve.ss01" horiz-adv-x="1193" 
d="M592 1112q-122 0 -190 77.5t-68 203.5h106q0 -90 40.5 -138.5t111.5 -50.5q70 0 110.5 49.5t40.5 139.5h107q0 -126 -68 -203.5t-190 -77.5zM946 958h86v-974q0 -191 -123.5 -301.5t-343.5 -110.5q-103 0 -195 23t-136 45.5t-76 46.5l57 100q55 -46 148 -78.5t202 -32.5
q164 0 254 79.5t90 226.5v221q-46 -97 -139 -155t-221 -58q-200 0 -325.5 135.5t-125.5 355.5q0 219 126.5 353.5t330.5 134.5q140 0 237 -70t134 -180h2q-3 103 18 239zM569 94q80 0 146.5 32.5t107.5 83.5t63.5 110t22.5 116v86q0 58 -21.5 116t-62 109.5t-109.5 84
t-155 32.5q-152 0 -244 -105.5t-92 -277.5q0 -174 94 -280.5t250 -106.5z" />
    <glyph glyph-name="gcircumflex.ss01" horiz-adv-x="1193" 
d="M588 1313l-154 -195l-117 -4l201 299h144l198 -299l-115 4zM946 958h86v-974q0 -191 -123.5 -301.5t-343.5 -110.5q-103 0 -195 23t-136 45.5t-76 46.5l57 100q55 -46 148 -78.5t202 -32.5q164 0 254 79.5t90 226.5v221q-46 -97 -139 -155t-221 -58q-200 0 -325.5 135.5
t-125.5 355.5q0 219 126.5 353.5t330.5 134.5q140 0 237 -70t134 -180h2q-3 103 18 239zM569 94q80 0 146.5 32.5t107.5 83.5t63.5 110t22.5 116v86q0 58 -21.5 116t-62 109.5t-109.5 84t-155 32.5q-152 0 -244 -105.5t-92 -277.5q0 -174 94 -280.5t250 -106.5z" />
    <glyph glyph-name="gcommaaccent.ss01" horiz-adv-x="1193" 
d="M592 1047q-42 0 -70 29t-28 81t15 96.5t36 71.5t42.5 46t36.5 27l15 7l43 -64q-4 -2 -10 -5.5t-22 -15t-28.5 -23.5t-22.5 -29.5t-11 -34.5q41 0 69.5 -27t28.5 -65q0 -39 -27.5 -66.5t-66.5 -27.5zM946 958h86v-974q0 -191 -123.5 -301.5t-343.5 -110.5q-103 0 -195 23
t-136 45.5t-76 46.5l57 100q55 -46 148 -78.5t202 -32.5q164 0 254 79.5t90 226.5v221q-46 -97 -139 -155t-221 -58q-200 0 -325.5 135.5t-125.5 355.5q0 219 126.5 353.5t330.5 134.5q140 0 237 -70t134 -180h2q-3 103 18 239zM569 94q80 0 146.5 32.5t107.5 83.5t63.5 110
t22.5 116v86q0 58 -21.5 116t-62 109.5t-109.5 84t-155 32.5q-152 0 -244 -105.5t-92 -277.5q0 -174 94 -280.5t250 -106.5z" />
    <glyph glyph-name="gdotaccent.ss01" horiz-adv-x="1193" 
d="M592 1178q-40 0 -68 27t-28 67q0 41 28 68.5t68 27.5t69 -27.5t29 -68.5q0 -39 -29 -66.5t-69 -27.5zM946 958h86v-974q0 -191 -123.5 -301.5t-343.5 -110.5q-103 0 -195 23t-136 45.5t-76 46.5l57 100q55 -46 148 -78.5t202 -32.5q164 0 254 79.5t90 226.5v221
q-46 -97 -139 -155t-221 -58q-200 0 -325.5 135.5t-125.5 355.5q0 219 126.5 353.5t330.5 134.5q140 0 237 -70t134 -180h2q-3 103 18 239zM569 94q80 0 146.5 32.5t107.5 83.5t63.5 110t22.5 116v86q0 58 -21.5 116t-62 109.5t-109.5 84t-155 32.5q-152 0 -244 -105.5
t-92 -277.5q0 -174 94 -280.5t250 -106.5z" />
    <glyph glyph-name="h.ss01" horiz-adv-x="1181" 
d="M1106 104l8 -104q-33 -10 -88 -10q-69 0 -107 41t-38 110v447q0 125 -71.5 200.5t-195.5 75.5q-78 0 -143 -32t-104.5 -83t-60.5 -110t-21 -117v-522h-125v1446h123v-698q45 97 135 159t217 62q170 0 270.5 -105t100.5 -276v-422q0 -31 17 -48.5t44 -17.5q23 0 39 4z" />
    <glyph glyph-name="hbar.ss01" horiz-adv-x="1181" 
d="M1106 104l8 -104q-33 -10 -88 -10q-69 0 -107 41t-38 110v447q0 125 -71.5 200.5t-195.5 75.5q-78 0 -143 -32t-104.5 -83t-60.5 -110t-21 -117v-522h-125v1145h-121v92h121v209h123v-209h305v-92h-305v-397q45 97 135 159t217 62q170 0 270.5 -105t100.5 -276v-422
q0 -31 17 -48.5t44 -17.5q23 0 39 4z" />
    <glyph glyph-name="i.ss01" horiz-adv-x="462" 
d="M324 1272q0 -40 -29 -67t-70 -27q-40 0 -68 27t-28 67q0 41 28 68.5t68 27.5q42 0 70.5 -27.5t28.5 -68.5zM369 104l8 -104q-33 -10 -82 -10q-135 0 -135 137v831l125 5v-805q0 -58 49 -58q19 0 35 4z" />
    <glyph glyph-name="dotlessi.ss01" horiz-adv-x="462" 
d="M369 104l8 -104q-33 -10 -82 -10q-135 0 -135 137v831l125 5v-805q0 -58 49 -58q19 0 35 4z" />
    <glyph glyph-name="iacute.ss01" horiz-adv-x="462" 
d="M451 1415l-177 -293l-112 -8l127 301h162zM334 100q19 0 35 4l8 -104q-33 -10 -82 -10q-135 0 -135 137v831l125 5v-805q0 -58 49 -58z" />
    <glyph glyph-name="ibreve.ss01" horiz-adv-x="462" 
d="M371 1393h106q0 -126 -68 -203.5t-190 -77.5t-190 77.5t-68 203.5h107q0 -90 40.5 -138.5t110.5 -50.5q70 0 111 49.5t41 139.5zM334 100q19 0 35 4l8 -104q-33 -10 -82 -10q-135 0 -135 137v831l125 5v-805q0 -58 49 -58z" />
    <glyph glyph-name="icircumflex.ss01" horiz-adv-x="462" 
d="M373 1118l-158 195l-154 -195l-116 -4l200 299h144l198 -299zM334 100q19 0 35 4l8 -104q-33 -10 -82 -10q-135 0 -135 137v831l125 5v-805q0 -58 49 -58z" />
    <glyph glyph-name="idieresis.ss01" horiz-adv-x="462" 
d="M39 1360q35 0 60.5 -26.5t25.5 -61.5t-25.5 -60.5t-60.5 -25.5q-36 0 -61 25t-25 61t25 62t61 26zM412 1360q36 0 61 -26t25 -62t-25 -61t-61 -25q-35 0 -60.5 25.5t-25.5 60.5t25.5 61.5t60.5 26.5zM334 100q19 0 35 4l8 -104q-33 -10 -82 -10q-135 0 -135 137v831
l125 5v-805q0 -58 49 -58z" />
    <glyph glyph-name="igrave.ss01" horiz-adv-x="462" 
d="M272 1122l-108 -8l-180 301h163zM369 104l8 -104q-33 -10 -82 -10q-135 0 -135 137v831l125 5v-805q0 -58 49 -58q19 0 35 4z" />
    <glyph glyph-name="imacron.ss01" horiz-adv-x="462" 
d="M-45 1319h541v-96h-541v96zM334 100q19 0 35 4l8 -104q-33 -10 -82 -10q-135 0 -135 137v831l125 5v-805q0 -58 49 -58z" />
    <glyph glyph-name="iogonek.ss01" horiz-adv-x="462" 
d="M225 1178q-40 0 -68 27t-28 67q0 41 28 68.5t68 27.5q42 0 70.5 -27.5t28.5 -68.5q0 -40 -29 -67t-70 -27zM406 -256l36 -74q-6 -7 -17.5 -17t-51.5 -27t-84 -17q-82 0 -133.5 46t-51.5 122q0 135 132 221q-76 28 -76 129v831l125 5v-805q0 -58 49 -58q19 0 35 4l8 -104
q-7 -2 -18.5 -6.5t-41 -22.5t-52.5 -39t-41.5 -58t-18.5 -79q0 -45 27.5 -71.5t70.5 -26.5q27 0 53 11.5t38 23.5z" />
    <glyph glyph-name="itilde.ss01" horiz-adv-x="462" 
d="M504 1380q8 -28 8 -69q0 -69 -42.5 -114.5t-121.5 -45.5q-49 0 -102.5 30.5t-98 60.5t-73.5 30q-33 0 -54.5 -19t-21.5 -57q0 -12 2 -26t4 -22l2 -7h-102q-6 30 -6 69q0 66 44.5 113t116.5 47q44 0 88 -19t74 -41.5t63 -41.5t56 -19q70 0 70 76q0 13 -2 26.5t-4 20.5
l-3 8h103zM334 100q19 0 35 4l8 -104q-33 -10 -82 -10q-135 0 -135 137v831l125 5v-805q0 -58 49 -58z" />
    <glyph glyph-name="k.ss01" horiz-adv-x="1069" 
d="M1020 0h-148l-280 444q-40 -6 -82 -6h-225v-438h-125v1446h125v-905h207q143 0 231 89t88 249q0 41 -6 79h125q4 -54 4 -81q0 -140 -55 -245.5t-168 -154.5z" />
    <glyph glyph-name="kcommaaccent.ss01" horiz-adv-x="1069" 
d="M711 477l309 -477h-148l-280 444q-40 -6 -82 -6h-225v-438h-125v1446h125v-905h207q143 0 231 89t88 249q0 41 -6 79h125q4 -54 4 -81q0 -140 -55 -245.5t-168 -154.5zM545 -88q42 0 70 -29.5t28 -81.5t-15 -96.5t-36 -71t-42.5 -45.5t-36.5 -26l-15 -8l-43 63
q4 2 10 5.5t22 15t28.5 23.5t22.5 30t11 35q-41 0 -69.5 27t-28.5 65q0 39 27.5 66.5t66.5 27.5z" />
    <glyph glyph-name="m.ss01" horiz-adv-x="1845" 
d="M1767 104l9 -104q-30 -10 -88 -10q-68 0 -106 41t-38 110v443q0 126 -69.5 202t-190.5 76q-73 0 -133 -32.5t-97 -83.5t-57 -109t-20 -113v-524h-125v584q0 126 -69.5 202t-190.5 76q-73 0 -133 -32.5t-97 -83.5t-57 -109t-20 -113v-524h-125v958l88 5q18 -120 18 -244
q38 109 126.5 178.5t217.5 69.5q132 0 223 -66.5t125 -183.5q38 109 127.5 179.5t217.5 70.5q168 0 267 -105.5t99 -277.5v-418q0 -32 17 -49t45 -17q20 0 36 4z" />
    <glyph glyph-name="n.ss01" horiz-adv-x="1179" 
d="M1104 104l8 -104q-33 -10 -88 -10q-68 0 -105.5 41t-37.5 110v447q0 124 -72 200t-195 76q-78 0 -143 -32.5t-104 -84t-60.5 -109.5t-21.5 -114v-524h-125v958l88 5q18 -120 18 -244h4q42 108 134.5 179t228.5 71q170 0 271.5 -105.5t101.5 -275.5v-422q0 -32 16.5 -49
t44.5 -17q21 0 37 4z" />
    <glyph glyph-name="nacute.ss01" horiz-adv-x="1179" 
d="M766 1415l-176 -293l-113 -8l127 301h162zM1104 104l8 -104q-33 -10 -88 -10q-68 0 -105.5 41t-37.5 110v447q0 124 -72 200t-195 76q-78 0 -143 -32.5t-104 -84t-60.5 -109.5t-21.5 -114v-524h-125v958l88 5q18 -120 18 -244h4q42 108 134.5 179t228.5 71
q170 0 271.5 -105.5t101.5 -275.5v-422q0 -32 16.5 -49t44.5 -17q21 0 37 4z" />
    <glyph glyph-name="napostrophe.ss01" horiz-adv-x="1179" 
d="M55 1475q43 0 72 -29t29 -78q0 -56 -14.5 -107t-35.5 -83t-42 -56t-36 -34l-14 -11l-53 70q4 2 10.5 6.5t23.5 19.5t30 30.5t23.5 39t10.5 47.5q-41 0 -69.5 27t-28.5 65t28 65.5t66 27.5zM1104 104l8 -104q-33 -10 -88 -10q-68 0 -105.5 41t-37.5 110v447q0 124 -72 200
t-195 76q-78 0 -143 -32.5t-104 -84t-60.5 -109.5t-21.5 -114v-524h-125v958l88 5q18 -120 18 -244h4q42 108 134.5 179t228.5 71q170 0 271.5 -105.5t101.5 -275.5v-422q0 -32 16.5 -49t44.5 -17q21 0 37 4z" />
    <glyph glyph-name="ncaron.ss01" horiz-adv-x="1179" 
d="M659 1114h-143l-201 299l117 -4l154 -195l157 195l115 4zM1104 104l8 -104q-33 -10 -88 -10q-68 0 -105.5 41t-37.5 110v447q0 124 -72 200t-195 76q-78 0 -143 -32.5t-104 -84t-60.5 -109.5t-21.5 -114v-524h-125v958l88 5q18 -120 18 -244h4q42 108 134.5 179t228.5 71
q170 0 271.5 -105.5t101.5 -275.5v-422q0 -32 16.5 -49t44.5 -17q21 0 37 4z" />
    <glyph glyph-name="ncommaaccent.ss01" horiz-adv-x="1179" 
d="M1104 104l8 -104q-33 -10 -88 -10q-68 0 -105.5 41t-37.5 110v447q0 124 -72 200t-195 76q-78 0 -143 -32.5t-104 -84t-60.5 -109.5t-21.5 -114v-524h-125v958l88 5q18 -120 18 -244h4q42 108 134.5 179t228.5 71q170 0 271.5 -105.5t101.5 -275.5v-422q0 -32 16.5 -49
t44.5 -17q21 0 37 4zM582 -88q42 0 70 -29.5t28 -81.5t-15 -96.5t-36 -71t-42.5 -45.5t-36.5 -26l-15 -8l-43 63q4 2 10 5.5t22 15t28.5 23.5t22.5 30t11 35q-41 0 -70 27t-29 65q0 39 28 66.5t67 27.5z" />
    <glyph glyph-name="ntilde.ss01" horiz-adv-x="1179" 
d="M373 1141h-103q-6 30 -6 69q0 66 45 113t117 47q44 0 88 -19t74 -41.5t63 -41.5t56 -19q69 0 69 76q0 13 -2 26.5t-4 20.5l-2 8h102q9 -28 9 -69q0 -69 -42.5 -114.5t-121.5 -45.5q-49 0 -102.5 30.5t-98.5 60.5t-74 30q-33 0 -54 -19t-21 -57q0 -12 2 -26t4 -22z
M1104 104l8 -104q-33 -10 -88 -10q-68 0 -105.5 41t-37.5 110v447q0 124 -72 200t-195 76q-78 0 -143 -32.5t-104 -84t-60.5 -109.5t-21.5 -114v-524h-125v958l88 5q18 -120 18 -244h4q42 108 134.5 179t228.5 71q170 0 271.5 -105.5t101.5 -275.5v-422q0 -32 16.5 -49
t44.5 -17q21 0 37 4z" />
    <glyph glyph-name="u.ss01" horiz-adv-x="1153" 
d="M1067 104l8 -104l-5 -1q-4 -1 -11.5 -2.5t-16.5 -3t-20.5 -2.5t-22.5 -1q-67 0 -107 35t-40 108v74h-4q-40 -97 -127.5 -157t-208.5 -60q-168 0 -265 103.5t-97 275.5v589h124v-589q0 -127 67 -201t189 -74q74 0 136 32.5t100 84t59 110t21 113.5v524h123v-780
q0 -41 15.5 -59.5t49.5 -18.5q17 0 33 4z" />
    <glyph glyph-name="uacute.ss01" horiz-adv-x="1153" 
d="M737 1415l-176 -293l-112 -8l126 301h162zM1067 104l8 -104l-5 -1q-4 -1 -11.5 -2.5t-16.5 -3t-20.5 -2.5t-22.5 -1q-67 0 -107 35t-40 108v74h-4q-40 -97 -127.5 -157t-208.5 -60q-168 0 -265 103.5t-97 275.5v589h124v-589q0 -127 67 -201t189 -74q74 0 136 32.5
t100 84t59 110t21 113.5v524h123v-780q0 -41 15.5 -59.5t49.5 -18.5q17 0 33 4z" />
    <glyph glyph-name="ubreve.ss01" horiz-adv-x="1153" 
d="M557 1112q-122 0 -190 77.5t-68 203.5h107q0 -90 40.5 -138.5t110.5 -50.5q70 0 111 49.5t41 139.5h106q0 -126 -68 -203.5t-190 -77.5zM1067 104l8 -104l-5 -1q-4 -1 -11.5 -2.5t-16.5 -3t-20.5 -2.5t-22.5 -1q-67 0 -107 35t-40 108v74h-4q-40 -97 -127.5 -157
t-208.5 -60q-168 0 -265 103.5t-97 275.5v589h124v-589q0 -127 67 -201t189 -74q74 0 136 32.5t100 84t59 110t21 113.5v524h123v-780q0 -41 15.5 -59.5t49.5 -18.5q17 0 33 4z" />
    <glyph glyph-name="ucircumflex.ss01" horiz-adv-x="1153" 
d="M553 1313l-154 -195l-116 -4l200 299h144l198 -299l-114 4zM1067 104l8 -104l-5 -1q-4 -1 -11.5 -2.5t-16.5 -3t-20.5 -2.5t-22.5 -1q-67 0 -107 35t-40 108v74h-4q-40 -97 -127.5 -157t-208.5 -60q-168 0 -265 103.5t-97 275.5v589h124v-589q0 -127 67 -201t189 -74
q74 0 136 32.5t100 84t59 110t21 113.5v524h123v-780q0 -41 15.5 -59.5t49.5 -18.5q17 0 33 4z" />
    <glyph glyph-name="udieresis.ss01" horiz-adv-x="1153" 
d="M377 1186q-36 0 -61 25t-25 61t25 62t61 26q35 0 60.5 -26.5t25.5 -61.5t-25.5 -60.5t-60.5 -25.5zM750 1186q-35 0 -60.5 25.5t-25.5 60.5t25.5 61.5t60.5 26.5q36 0 61 -26t25 -62t-25 -61t-61 -25zM1067 104l8 -104l-5 -1q-4 -1 -11.5 -2.5t-16.5 -3t-20.5 -2.5
t-22.5 -1q-67 0 -107 35t-40 108v74h-4q-40 -97 -127.5 -157t-208.5 -60q-168 0 -265 103.5t-97 275.5v589h124v-589q0 -127 67 -201t189 -74q74 0 136 32.5t100 84t59 110t21 113.5v524h123v-780q0 -41 15.5 -59.5t49.5 -18.5q17 0 33 4z" />
    <glyph glyph-name="ugrave.ss01" horiz-adv-x="1153" 
d="M627 1122l-109 -8l-180 301h164zM1067 104l8 -104l-5 -1q-4 -1 -11.5 -2.5t-16.5 -3t-20.5 -2.5t-22.5 -1q-67 0 -107 35t-40 108v74h-4q-40 -97 -127.5 -157t-208.5 -60q-168 0 -265 103.5t-97 275.5v589h124v-589q0 -127 67 -201t189 -74q74 0 136 32.5t100 84t59 110
t21 113.5v524h123v-780q0 -41 15.5 -59.5t49.5 -18.5q17 0 33 4z" />
    <glyph glyph-name="uhungarumlaut.ss01" horiz-adv-x="1153" 
d="M641 1415l-180 -293l-109 -8l127 301h162zM750 1122l-109 -8l125 301h164zM1067 104l8 -104l-5 -1q-4 -1 -11.5 -2.5t-16.5 -3t-20.5 -2.5t-22.5 -1q-67 0 -107 35t-40 108v74h-4q-40 -97 -127.5 -157t-208.5 -60q-168 0 -265 103.5t-97 275.5v589h124v-589
q0 -127 67 -201t189 -74q74 0 136 32.5t100 84t59 110t21 113.5v524h123v-780q0 -41 15.5 -59.5t49.5 -18.5q17 0 33 4z" />
    <glyph glyph-name="umacron.ss01" horiz-adv-x="1153" 
d="M834 1319v-96h-541v96h541zM1067 104l8 -104l-5 -1q-4 -1 -11.5 -2.5t-16.5 -3t-20.5 -2.5t-22.5 -1q-67 0 -107 35t-40 108v74h-4q-40 -97 -127.5 -157t-208.5 -60q-168 0 -265 103.5t-97 275.5v589h124v-589q0 -127 67 -201t189 -74q74 0 136 32.5t100 84t59 110
t21 113.5v524h123v-780q0 -41 15.5 -59.5t49.5 -18.5q17 0 33 4z" />
    <glyph glyph-name="uogonek.ss01" horiz-adv-x="1153" 
d="M1104 -256l37 -74q-6 -7 -18 -17t-52 -27t-84 -17q-82 0 -133 46t-51 122q0 136 133 223q-84 26 -84 133v74h-4q-40 -97 -127.5 -157t-208.5 -60q-168 0 -265 103.5t-97 275.5v589h124v-589q0 -127 67 -201t189 -74q74 0 136 32.5t100 84t59 110t21 113.5v524h123v-780
q0 -41 15.5 -59.5t49.5 -18.5q17 0 33 4l8 -104q-7 -2 -18.5 -6.5t-41 -22.5t-52.5 -39t-41.5 -58t-18.5 -79q0 -45 27.5 -71.5t70.5 -26.5q27 0 53 11.5t38 23.5z" />
    <glyph glyph-name="uring.ss01" horiz-adv-x="1153" 
d="M557 1102q-69 0 -117.5 46.5t-48.5 115.5q0 70 48 116.5t118 46.5t118 -46.5t48 -116.5q0 -69 -48.5 -115.5t-117.5 -46.5zM557 1343q-34 0 -57 -22t-23 -57q0 -34 23 -57t57 -23t57 23t23 57q0 35 -23 57t-57 22zM1067 104l8 -104l-5 -1q-4 -1 -11.5 -2.5t-16.5 -3
t-20.5 -2.5t-22.5 -1q-67 0 -107 35t-40 108v74h-4q-40 -97 -127.5 -157t-208.5 -60q-168 0 -265 103.5t-97 275.5v589h124v-589q0 -127 67 -201t189 -74q74 0 136 32.5t100 84t59 110t21 113.5v524h123v-780q0 -41 15.5 -59.5t49.5 -18.5q17 0 33 4z" />
    <glyph glyph-name="utilde.ss01" horiz-adv-x="1153" 
d="M344 1141h-102q-6 30 -6 69q0 66 44.5 113t116.5 47q44 0 88 -19t74 -41.5t63 -41.5t56 -19q70 0 70 76q0 13 -2 26.5t-4 20.5l-3 8h103q8 -28 8 -69q0 -69 -42.5 -114.5t-121.5 -45.5q-49 0 -102.5 30.5t-98 60.5t-73.5 30q-33 0 -54.5 -19t-21.5 -57q0 -12 2 -26t4 -22
zM1067 104l8 -104l-5 -1q-4 -1 -11.5 -2.5t-16.5 -3t-20.5 -2.5t-22.5 -1q-67 0 -107 35t-40 108v74h-4q-40 -97 -127.5 -157t-208.5 -60q-168 0 -265 103.5t-97 275.5v589h124v-589q0 -127 67 -201t189 -74q74 0 136 32.5t100 84t59 110t21 113.5v524h123v-780
q0 -41 15.5 -59.5t49.5 -18.5q17 0 33 4z" />
    <glyph glyph-name="y.ss01" horiz-adv-x="1128" 
d="M846 958h123v-976q0 -192 -114 -301t-335 -109q-209 0 -364 102l57 101q57 -43 137 -71t170 -28q168 0 251 78.5t83 227.5v229h-2q-43 -99 -129.5 -160t-210.5 -61q-168 0 -265 103.5t-97 275.5v589h124v-589q0 -127 67 -201t189 -74q74 0 136 32.5t100 84t59 110
t21 113.5v524z" />
    <glyph glyph-name="yacute.ss01" horiz-adv-x="1128" 
d="M719 1415l-176 -293l-113 -8l127 301h162zM846 958h123v-976q0 -192 -114 -301t-335 -109q-209 0 -364 102l57 101q57 -43 137 -71t170 -28q168 0 251 78.5t83 227.5v229h-2q-43 -99 -129.5 -160t-210.5 -61q-168 0 -265 103.5t-97 275.5v589h124v-589q0 -127 67 -201
t189 -74q74 0 136 32.5t100 84t59 110t21 113.5v524z" />
    <glyph glyph-name="ycircumflex.ss01" horiz-adv-x="1128" 
d="M535 1313l-154 -195l-117 -4l201 299h143l199 -299l-115 4zM846 958h123v-976q0 -192 -114 -301t-335 -109q-209 0 -364 102l57 101q57 -43 137 -71t170 -28q168 0 251 78.5t83 227.5v229h-2q-43 -99 -129.5 -160t-210.5 -61q-168 0 -265 103.5t-97 275.5v589h124v-589
q0 -127 67 -201t189 -74q74 0 136 32.5t100 84t59 110t21 113.5v524z" />
    <glyph glyph-name="ydieresis.ss01" horiz-adv-x="1128" 
d="M358 1186q-36 0 -61 25t-25 61t25 62t61 26q35 0 60.5 -26.5t25.5 -61.5t-25.5 -60.5t-60.5 -25.5zM731 1186q-35 0 -60.5 25.5t-25.5 60.5t25.5 61.5t60.5 26.5q36 0 61 -26t25 -62t-25 -61t-61 -25zM846 958h123v-976q0 -192 -114 -301t-335 -109q-209 0 -364 102
l57 101q57 -43 137 -71t170 -28q168 0 251 78.5t83 227.5v229h-2q-43 -99 -129.5 -160t-210.5 -61q-168 0 -265 103.5t-97 275.5v589h124v-589q0 -127 67 -201t189 -74q74 0 136 32.5t100 84t59 110t21 113.5v524z" />
    <glyph glyph-name="ygrave.ss01" horiz-adv-x="1128" 
d="M608 1122l-108 -8l-181 301h164zM846 958h123v-976q0 -192 -114 -301t-335 -109q-209 0 -364 102l57 101q57 -43 137 -71t170 -28q168 0 251 78.5t83 227.5v229h-2q-43 -99 -129.5 -160t-210.5 -61q-168 0 -265 103.5t-97 275.5v589h124v-589q0 -127 67 -201t189 -74
q74 0 136 32.5t100 84t59 110t21 113.5v524z" />
    <glyph glyph-name="z.ss01" horiz-adv-x="919" 
d="M76 0v102q486 389 622 754l-2 4q-16 -4 -63 -4h-545v102h739v-102q-136 -389 -583 -754l2 -4q16 4 69 4h523v-102h-762z" />
    <glyph glyph-name="zacute.ss01" horiz-adv-x="919" 
d="M475 1122l-113 -8l127 301h162zM76 0v102q486 389 622 754l-2 4q-16 -4 -63 -4h-545v102h739v-102q-136 -389 -583 -754l2 -4q16 4 69 4h523v-102h-762z" />
    <glyph glyph-name="zcaron.ss01" horiz-adv-x="919" 
d="M201 1413l116 -4l154 -195l158 195l114 4l-198 -299h-144zM76 0v102q486 389 622 754l-2 4q-16 -4 -63 -4h-545v102h739v-102q-136 -389 -583 -754l2 -4q16 4 69 4h523v-102h-762z" />
    <glyph glyph-name="zdotaccent.ss01" horiz-adv-x="919" 
d="M569 1272q0 -39 -29 -66.5t-69 -27.5t-68 27t-28 67q0 41 28 68.5t68 27.5t69 -27.5t29 -68.5zM76 0v102q486 389 622 754l-2 4q-16 -4 -63 -4h-545v102h739v-102q-136 -389 -583 -754l2 -4q16 4 69 4h523v-102h-762z" />
    <glyph glyph-name="g.ss02" horiz-adv-x="1067" 
d="M666 131q167 0 260.5 -69.5t93.5 -194.5q0 -136 -121.5 -215.5t-363.5 -79.5q-233 0 -358.5 71t-125.5 197q0 155 176 217q-110 46 -110 158q0 59 40 100.5t99 55.5q-117 96 -117 256q0 154 107 248t282 94q166 0 271 -82q108 37 108 209l109 -23q0 -106 -54 -166.5
t-112 -68.5q72 -88 72 -211q0 -154 -107.5 -248t-284.5 -94q-106 0 -184 34q-55 -8 -86 -31t-31 -59q0 -56 56.5 -77t171.5 -21h209zM530 866q-121 0 -193.5 -65.5t-72.5 -173.5t72 -174t192 -66q121 0 195 66t74 174q0 107 -73.5 173t-193.5 66zM535 -322q362 0 362 189
q0 82 -62.5 120t-189.5 38h-207h-18q-119 0 -182.5 -46t-63.5 -122q0 -179 361 -179z" />
    <glyph glyph-name="caroncomb.alt" 
d="M-233 823q0 38 28 65t66 27q43 0 71.5 -28.5t28.5 -77.5q0 -56 -14.5 -107t-35 -83t-41.5 -56t-36 -35l-14 -10l-53 70q4 2 10.5 6.5t23.5 19.5t30 30.5t23.5 39t10.5 47.5q-41 0 -69.5 27t-28.5 65z" />
    <glyph glyph-name="uni0306.case.001" 
d="M-80 1352q0 -104 -63.5 -172t-173.5 -68t-174 68t-64 172h98q0 -68 37 -107.5t103 -40.5q65 0 102 40t37 108h98z" />
    <glyph glyph-name="uni0308.case" 
d="M-532 1153q-35 0 -60.5 24.5t-25.5 59.5t25.5 60.5t60.5 25.5q34 0 58.5 -25.5t24.5 -60.5t-24.5 -59.5t-58.5 -24.5zM-160 1153q-34 0 -60 24.5t-26 59.5t26 60.5t60 25.5q35 0 60.5 -25.5t25.5 -60.5t-25.5 -59.5t-60.5 -24.5z" />
    <glyph glyph-name="uni0307.case" 
d="M-193 1139q-40 0 -68 27t-28 67t28 68t68 28t69.5 -28.5t29.5 -67.5t-29.5 -66.5t-69.5 -27.5z" />
    <glyph glyph-name="gravecomb.case" 
d="M-213 1114l-180 248h166l127 -240z" />
    <glyph glyph-name="acutecomb.case" 
d="M-307 1122l-111 -8l127 248h164z" />
    <glyph glyph-name="uni030B.case" 
d="M-543 1122l-110 -8l127 248h164zM-223 1122l-113 -8l127 248h164z" />
    <glyph glyph-name="uni0302.case" 
d="M-270 1372l198 -258l-114 4l-158 154l-154 -154l-116 -4l200 258h144z" />
    <glyph glyph-name="uni030C.case" 
d="M-614 1382l116 -4l154 -153l158 153l114 4l-198 -258h-144z" />
    <glyph glyph-name="uni0306.case" 
d="M-80 1352q0 -104 -63.5 -172t-173.5 -68t-174 68t-64 172h98q0 -68 37 -107.5t103 -40.5q65 0 102 40t37 108h98z" />
    <glyph glyph-name="uni030A.case" 
d="M-258 1092q-65 0 -110.5 43.5t-45.5 107.5q0 65 45.5 109.5t110.5 44.5t109.5 -44t44.5 -110q0 -64 -44.5 -107.5t-109.5 -43.5zM-182 1243q0 34 -22 56t-54 22t-54 -22t-22 -56q0 -32 22 -54t54 -22t54 22t22 54z" />
    <glyph glyph-name="tildecomb.case" 
d="M-102 1321q8 -29 8 -70q0 -68 -41.5 -113.5t-116.5 -45.5q-41 0 -85 19t-74.5 41t-65.5 41t-60 19q-33 0 -52 -19t-19 -52q0 -10 2 -23t4 -20l2 -8h-102q-7 30 -7 67q0 69 44.5 111.5t117.5 42.5q44 0 88 -19t74 -41.5t63 -41.5t56 -19q69 0 69 76q0 13 -2 26.5t-4 21.5
l-2 7h103z" />
    <glyph glyph-name="uni0304.case" 
d="M-649 1163v94h545v-94h-545z" />
    <glyph glyph-name="uni0337.case" 
d="M-745 694l655 383l47 -82l-655 -383z" />
    <glyph glyph-name="uni0338.case" 
d="M53 1466l-1003 -1499h-133l1005 1499h131z" />
    <glyph glyph-name="caron.alt" horiz-adv-x="276" 
d="M238 809q0 -53 -15 -97t-37 -69t-44 -43t-37 -24l-15 -7l-43 66q4 1 10 4t22 12.5t28.5 19.5t22.5 26.5t11 33.5q-41 0 -69.5 27t-28.5 65t28 65t66 27q43 0 72 -28.5t29 -77.5z" />
    <glyph glyph-name="acute.case" horiz-adv-x="522" 
d="M215 1122l-111 -8l127 248h164z" />
    <glyph glyph-name="breve.case" horiz-adv-x="634" 
d="M555 1352q0 -104 -64 -172t-174 -68t-173.5 68t-63.5 172h98q0 -68 36.5 -107.5t102.5 -40.5q65 0 102.5 40t37.5 108h98z" />
    <glyph glyph-name="caron.case" horiz-adv-x="667" 
d="M70 1382l116 -4l154 -153l158 153l114 4l-198 -258h-144z" />
    <glyph glyph-name="circumflex.case" horiz-adv-x="684" 
d="M414 1372l198 -258l-114 4l-158 154l-154 -154l-116 -4l200 258h144z" />
    <glyph glyph-name="dieresis.case" horiz-adv-x="694" 
d="M162 1153q-35 0 -60.5 24.5t-25.5 59.5t25.5 60.5t60.5 25.5q34 0 59 -25.5t25 -60.5t-25 -59.5t-59 -24.5zM535 1153q-34 0 -60 24.5t-26 59.5t26 60.5t60 25.5q35 0 60.5 -25.5t25.5 -60.5t-25.5 -59.5t-60.5 -24.5z" />
    <glyph glyph-name="dotaccent.case" horiz-adv-x="385" 
d="M193 1139q-40 0 -68.5 27.5t-28.5 66.5q0 40 28.5 68t68.5 28t69 -28t29 -68q0 -39 -29 -66.5t-69 -27.5z" />
    <glyph glyph-name="grave.case" horiz-adv-x="522" 
d="M309 1114l-180 248h166l127 -240z" />
    <glyph glyph-name="hungarumlaut.case" horiz-adv-x="770" 
d="M227 1122l-110 -8l127 248h164zM547 1122l-113 -8l127 248h164z" />
    <glyph glyph-name="macron.case" horiz-adv-x="753" 
d="M104 1163v94h545v-94h-545z" />
    <glyph glyph-name="ring.case" horiz-adv-x="516" 
d="M258 1092q-65 0 -110.5 43.5t-45.5 107.5q0 65 45.5 109.5t110.5 44.5t109.5 -44t44.5 -110q0 -64 -44.5 -107.5t-109.5 -43.5zM334 1243q0 34 -22 56t-54 22t-54 -22t-22 -56q0 -32 22 -54t54 -22t54 22t22 54z" />
    <glyph glyph-name="tilde.case" horiz-adv-x="788" 
d="M686 1321q8 -29 8 -70q0 -68 -41 -113.5t-116 -45.5q-41 0 -85 19t-74.5 41t-65.5 41t-60 19q-33 0 -52.5 -19t-19.5 -52q0 -10 2 -23t4 -20l2 -8h-102q-6 30 -6 67q0 69 44.5 111.5t117.5 42.5q44 0 88 -19t73.5 -41.5t62.5 -41.5t56 -19q70 0 70 76q0 13 -2 26.5
t-4 21.5l-2 7h102z" />
    <glyph glyph-name="Rem" horiz-adv-x="993" 
 />
    <glyph glyph-name="IJacute" horiz-adv-x="1427" 
d="M1225 1413l-111 -8l127 248h164zM307 1411l-110 -8l127 248h163zM193 0v1343h126v-1343h-126zM612 217q115 -115 250 -115q254 0 254 260v981h129v-972q0 -191 -102 -286t-281 -95q-189 0 -330 131z" />
    <glyph glyph-name="ijacute" horiz-adv-x="886" 
d="M283 1106l-113 -8l127 301h162zM731 1106l-113 -6l127 299h164zM164 0v958l125 5v-963h-125zM283 -285q47 -34 127 -34q98 0 144 52.5t46 166.5v1058l125 5v-1043q0 -346 -305 -346q-52 0 -95.5 13t-60.5 27l-18 13z" />
    <glyph glyph-name="commaccent" horiz-adv-x="1228" 
 />
    </font>
</defs>
</svg>
