<?xml version="1.0" standalone="no"?>
<!DOCTYPE svg PUBLIC "-//W3C//DTD SVG 1.1//EN" "http://www.w3.org/Graphics/SVG/1.1/DTD/svg11.dtd" >
<svg xmlns="http://www.w3.org/2000/svg" xmlns:xlink="http://www.w3.org/1999/xlink" version="1.1">
<metadata>
Created by FontForge 20170731 at Sun Jul 26 01:35:13 2020
 By Aleksey,,,
(c) 2009 exljbris Font Foundry. All rights reserved.
</metadata>
<defs>
<font id="Calluna-BoldIt" horiz-adv-x="1064" >
  <font-face 
    font-family="Calluna"
    font-weight="700"
    font-style="italic"
    font-stretch="normal"
    units-per-em="2048"
    panose-1="0 0 8 0 0 0 0 0 0 0"
    ascent="1536"
    descent="-512"
    x-height="948"
    cap-height="1374"
    bbox="-422 -516 2228 1958"
    underline-thickness="102"
    underline-position="-307"
    slope="-12"
    unicode-range="U+0020-FB06"
  />
<missing-glyph horiz-adv-x="1413" 
d="M92 -109v1584h1229v-1584h-1229zM246 301l82 -84l379 381l378 -381l82 84l-379 379l379 381l-80 84l-380 -383l-381 383l-80 -84l379 -381z" />
    <glyph glyph-name="f_b" unicode="fb" horiz-adv-x="1626" 
d="M637 2q0 73 57 332l189 860q2 12 6 30.5t6.5 32t3.5 23.5q-35 5 -71 25.5t-61.5 42t-59.5 38.5t-68 17q-39 0 -68.5 -34.5t-50 -105.5t-33.5 -145.5t-26 -185.5h219l-29 -121h-182l-25 -16q-14 -120 -26.5 -213.5t-31.5 -203t-39.5 -193.5t-49.5 -174t-63 -156.5
t-79 -129.5t-97.5 -104.5t-118.5 -69.5t-142 -36l-18 59q58 20 108.5 73.5t87.5 128t67.5 168t52 193t38.5 204t29 200t22 182.5q6 55 9 80h-127l6 86l139 45q16 95 39 172t64 153t95.5 127.5t137.5 83t186 31.5q159 0 238 -39q138 31 209 66l6 -6q-7 -135 -53 -342
l-62 -279l-43 -178h4q6 9 17.5 25t48 56t74 71t91.5 56t105 25q92 0 150.5 -79t58.5 -215q0 -92 -23 -187t-72 -185t-118 -160t-169 -112.5t-216 -42.5q-32 0 -136 15.5t-198 3.5zM899 88q43 -25 94 -25q83 0 157.5 82.5t117.5 212.5t43 267q0 157 -72 157
q-45 0 -102.5 -54.5t-105 -137.5t-64.5 -162l-25 -113q-11 -44 -22 -101t-16 -92z" />
    <glyph glyph-name="f_f_b" unicode="ffb" horiz-adv-x="2201" 
d="M1212 2q0 68 58 332l188 860q2 11 9 42t8 44q-35 5 -71.5 25.5t-61.5 42t-59.5 38.5t-68.5 17q-39 0 -69 -35t-50.5 -105t-33.5 -146t-25 -185h240l-29 -121h-200l-27 -18q-16 -145 -33 -263.5t-43 -241t-57 -219t-75 -187t-97 -156t-122.5 -114.5t-152.5 -73l-30 55
q86 62 149.5 190.5t105 330.5t58 313.5t40.5 324.5q5 40 7 58h-299l-27 -18q-15 -122 -27.5 -213.5t-32 -202.5t-39.5 -193.5t-49.5 -174t-63 -157t-78.5 -129t-97 -104.5t-118 -69t-142 -35l-18 59q58 20 107.5 72.5t86 123t67 164t51.5 187.5t38.5 200.5t29 197
t22.5 182.5q8 70 12 102h-127l6 86l139 45q16 86 40.5 157t66 139.5t96.5 115.5t136.5 75.5t182.5 28.5q174 0 250 -64q128 115 326 115q158 0 237 -39q138 31 209 66l6 -6q-7 -135 -53 -342l-61 -279l-43 -178h4q6 9 17.5 25t48 56t74 71t91.5 56t105 25q92 0 150 -79
t58 -215q0 -92 -23 -187t-72 -185t-118 -160t-169 -112.5t-216 -42.5q-32 0 -135.5 15.5t-197.5 3.5zM1475 88q43 -25 94 -25q83 0 157.5 82.5t117 212.5t42.5 267q0 157 -71 157q-45 0 -103 -54.5t-105.5 -137.5t-64.5 -162l-24 -113q-11 -44 -22 -101t-16 -92zM784 928
q26 170 84 297q-32 13 -68 47t-70.5 58t-74.5 24q-23 0 -43.5 -6.5t-36.5 -22t-29 -30.5t-23.5 -42.5t-18.5 -47t-14.5 -55t-10.5 -55t-8.5 -58.5t-6 -55t-5.5 -54h325z" />
    <glyph glyph-name="f_f_h" unicode="ffh" horiz-adv-x="2273" 
d="M1210 -12q0 90 52 323l196 883q2 11 9 42t8 44q-35 5 -71.5 25.5t-61.5 42t-59.5 38.5t-68.5 17q-39 0 -69 -35t-50.5 -105t-33.5 -146t-25 -185h219l-28 -121h-180l-27 -18q-16 -145 -33 -263.5t-43 -241t-57 -219t-75 -187t-97 -156t-122.5 -114.5t-152.5 -73l-30 55
q86 62 149.5 190.5t105 330.5t58 313.5t40.5 324.5q5 40 7 58h-299l-27 -18q-15 -122 -27.5 -213.5t-32 -202.5t-39.5 -193.5t-49.5 -174t-63 -157t-78.5 -129t-97 -104.5t-118 -69t-142 -35l-18 59q58 20 107.5 72.5t86 123t67 164t51.5 187.5t38.5 200.5t29 197
t22.5 182.5q8 70 12 102h-127l6 86l139 45q16 86 40.5 157t66 139.5t96.5 115.5t136.5 75.5t182.5 28.5q174 0 250 -64q128 115 326 115q158 0 237 -39q138 31 209 66l6 -6q-7 -135 -53 -342l-57 -277q-11 -50 -26 -101t-25 -76l-9 -26h4q69 108 167 182t204 74
q94 0 138 -51t44 -133q0 -73 -56 -325t-56 -293q0 -50 37 -50q20 0 49 13.5t48 26.5l19 14l9 -70q-5 -5 -13.5 -12.5t-37 -27t-58.5 -34.5t-74.5 -27t-87.5 -12q-72 0 -112.5 35t-40.5 99q0 59 55 293t55 296q0 38 -16.5 58t-46.5 20q-44 0 -92 -37.5t-85.5 -92
t-64.5 -113.5t-37 -105l-24 -111q-42 -192 -48 -313zM784 928q26 170 84 297q-32 13 -68 47t-70.5 58t-74.5 24q-23 0 -43.5 -6.5t-36.5 -22t-29 -30.5t-23.5 -42.5t-18.5 -47t-14.5 -55t-10.5 -55t-8.5 -58.5t-6 -55t-5.5 -54h325z" />
    <glyph glyph-name="f_f_j" unicode="ffj" horiz-adv-x="1685" 
d="M66 803l6 86l139 45q16 86 40.5 157t66 139.5t96.5 115.5t136.5 75.5t182.5 28.5q174 0 250 -64q128 115 326 115q85 0 150 -11.5t107 -39t42 -68.5q0 -44 -29.5 -74t-73.5 -30q-43 0 -84 19.5t-68 43t-64.5 43t-74.5 19.5q-32 0 -58.5 -25.5t-44 -65t-32.5 -105
t-25 -128t-20 -151.5h307q157 0 258 53l7 -6q0 -118 -33 -336l-64 -414q-18 -120 -54.5 -222t-80 -168.5t-92 -119t-93.5 -81.5t-81 -47.5t-58 -24.5l-22 -6l-31 55q8 6 20.5 18t47 55t64 93t60 133t44.5 174l92 588q0 3 3 17.5t3.5 20t2 19.5t1 21t-2 18.5t-6 17.5
t-10.5 12.5t-15.5 9.5t-22.5 3h-234l-22 -16q-16 -146 -34 -266.5t-45 -243t-59.5 -220.5t-77.5 -188.5t-99 -156t-124 -114.5t-153 -73l-31 55q59 44 109.5 124.5t86 183.5t64 214t48 234.5t33.5 225.5t26 204q3 25 4 37h-299l-27 -18q-15 -122 -27.5 -213.5t-32 -202.5
t-39.5 -193.5t-49.5 -174t-63 -157t-78.5 -129t-97 -104.5t-118 -69t-142 -35l-18 59q58 20 107.5 72.5t86 123t67 164t51.5 187.5t38.5 200.5t29 197t22.5 182.5q8 70 12 102h-127zM784 928q26 170 84 297q-32 13 -68 47t-70.5 58t-74.5 24q-33 0 -60 -15.5t-45.5 -38.5
t-33.5 -61t-23.5 -71t-16 -82t-10.5 -80t-7 -78h325z" />
    <glyph glyph-name="f_f_k" unicode="ffk" horiz-adv-x="2203" 
d="M1210 -12q0 95 58 346l190 860q2 11 9 42t8 44q-35 5 -71.5 25.5t-61.5 42t-59.5 38.5t-68.5 17q-39 0 -69 -35t-50.5 -105t-33.5 -146t-25 -185h219l-28 -121h-180l-27 -18q-16 -145 -33 -263.5t-43 -241t-57 -219t-75 -187t-97 -156t-122.5 -114.5t-152.5 -73l-30 55
q86 62 149.5 190.5t105 330.5t58 313.5t40.5 324.5q5 40 7 58h-299l-27 -18q-15 -122 -27.5 -213.5t-32 -202.5t-39.5 -193.5t-49.5 -174t-63 -157t-78.5 -129t-97 -104.5t-118 -69t-142 -35l-18 59q58 20 107.5 72.5t86 123t67 164t51.5 187.5t38.5 200.5t29 197
t22.5 182.5q8 70 12 102h-127l6 86l139 45q16 86 40.5 157t66 139.5t96.5 115.5t136.5 75.5t182.5 28.5q174 0 250 -64q128 115 326 115q158 0 237 -39q138 31 209 66l6 -6q-7 -135 -53 -342l-135 -613h41l174 68q71 28 106 66.5t35 78.5q0 60 -76 60h-28v65l280 45l6 -6
q9 -18 9 -65q0 -96 -61 -169t-222 -135l-29 -12v-20q25 -43 59 -124.5t58.5 -144t58 -111t64.5 -48.5q14 0 37.5 9.5t40.5 18.5l16 9l8 -70q-15 -12 -40 -30t-89.5 -47.5t-113.5 -29.5q-60 0 -105 34t-74.5 94t-50.5 121t-46 137t-48 120h-31l-34 -159q-43 -187 -50 -318z
M784 928q26 170 84 297q-32 13 -68 47t-70.5 58t-74.5 24q-23 0 -43.5 -6.5t-36.5 -22t-29 -30.5t-23.5 -42.5t-18.5 -47t-14.5 -55t-10.5 -55t-8.5 -58.5t-6 -55t-5.5 -54h325z" />
    <glyph glyph-name="f_h" unicode="fh" horiz-adv-x="1695" 
d="M633 -12q0 94 51 323l197 883q2 12 6 30.5t6.5 32t3.5 23.5q-35 6 -71 26.5t-60.5 41.5t-58.5 38t-68 17q-39 0 -68.5 -34.5t-50 -105.5t-33.5 -145.5t-26 -185.5h219l-29 -121h-182l-25 -16q-14 -120 -26.5 -213.5t-31.5 -203t-39.5 -193.5t-49.5 -174t-63 -156.5
t-79 -129.5t-97.5 -104.5t-118.5 -69.5t-142 -36l-18 59q58 20 108.5 73.5t87.5 128t67.5 168t52 193t38.5 204t29 200t22 182.5q6 55 9 80h-127l6 86l139 45q16 95 39 172t64 153t95.5 127.5t137.5 83t186 31.5q159 0 238 -39q141 32 207 66l6 -6q-7 -129 -54 -342
l-57 -277q-11 -50 -26 -101t-24 -76l-9 -26h4q69 108 167 182t204 74q94 0 138 -51t44 -133q0 -73 -56.5 -325t-56.5 -293q0 -50 37 -50q20 0 49.5 13.5t48.5 26.5l19 14l8 -70q-5 -5 -13.5 -12.5t-37 -27t-58 -34.5t-74 -27t-87.5 -12q-73 0 -113.5 35t-40.5 99
q0 59 55.5 293t55.5 296q0 38 -17 58t-47 20q-58 0 -120.5 -63.5t-103.5 -142t-54 -142.5l-25 -111q-40 -186 -47 -313z" />
    <glyph glyph-name="f_k" unicode="fk" horiz-adv-x="1628" 
d="M635 -12q0 99 57 346l191 860q2 12 6 30.5t6.5 32t3.5 23.5q-35 5 -71 25.5t-61.5 42t-59.5 38.5t-68 17q-39 0 -68.5 -34.5t-50 -105.5t-33.5 -145.5t-26 -185.5h219l-29 -121h-182l-25 -16q-14 -120 -26.5 -213.5t-31.5 -203t-39.5 -193.5t-49.5 -174t-63 -156.5
t-79 -129.5t-97.5 -104.5t-118.5 -69.5t-142 -36l-18 59q58 20 108.5 73.5t87.5 128t67.5 168t52 193t38.5 204t29 200t22 182.5q6 55 9 80h-127l6 86l139 45q16 95 39 172t64 153t95.5 127.5t137.5 83t186 31.5q159 0 238 -39q138 31 209 66l6 -6q-7 -135 -53 -342
l-136 -613h41l174 68q71 28 106.5 66.5t35.5 78.5q0 60 -76 60h-29v65l281 45l6 -6q8 -18 8 -65q0 -97 -60.5 -169.5t-221.5 -134.5l-29 -12v-20q25 -43 59 -124.5t58.5 -144t58 -111t64.5 -48.5q14 0 37.5 9.5t39.5 18.5l17 9l8 -70q-5 -4 -15 -11.5t-39 -26t-56.5 -32.5
t-65 -25.5t-68.5 -11.5q-60 0 -105 34t-74.5 94t-50 121t-45.5 137t-48 120h-31l-35 -159q-42 -181 -49 -318z" />
    <glyph glyph-name="ff" unicode="ff" horiz-adv-x="1200" 
d="M66 803l6 86l139 45q16 86 40.5 157t66 139.5t96.5 115.5t136.5 75.5t182.5 28.5q170 0 250 -64q125 115 315 115q98 0 163 -29.5t65 -89.5q0 -43 -29.5 -74.5t-73.5 -31.5q-34 0 -65 20t-51.5 43.5t-48 43.5t-54.5 20q-30 0 -54.5 -25t-41.5 -65t-31.5 -104t-23.5 -127
t-19 -150h242l-29 -121h-200l-27 -18q-15 -145 -32 -263.5t-43 -241t-57.5 -219t-75 -187t-97 -156t-123 -114.5t-152.5 -73l-30 55q71 51 129 163t91.5 219t65 284.5t42 263t28.5 252.5q3 24 4 35h-299l-27 -18q-14 -119 -26.5 -212t-31.5 -202.5t-39.5 -193.5t-49.5 -174
t-63 -157t-79 -130t-97.5 -104.5t-118.5 -69.5t-142 -35l-18 59q58 20 107.5 72.5t86 123t67 164t51.5 187.5t38.5 200.5t29 197t22.5 182.5q8 70 12 102h-127zM784 928q23 173 84 297q-32 13 -68 47t-70.5 58t-74.5 24q-23 0 -43.5 -6.5t-36.5 -22t-29 -30.5t-23.5 -42.5
t-18.5 -47t-14.5 -55t-10.5 -55t-8.5 -58.5t-6 -55t-5.5 -54h325z" />
    <glyph glyph-name="fi" unicode="fi" horiz-adv-x="1157" 
d="M66 803l6 86l139 45q11 67 25.5 124t37 116.5t50.5 106t68.5 89t89 70.5t113 44.5t140.5 16.5q104 0 172 -31t68 -94q0 -41 -30 -70.5t-79 -29.5q-33 0 -65.5 20t-53.5 43.5t-50 43.5t-58 20q-28 0 -51 -17.5t-40.5 -54t-30.5 -76t-24 -100.5t-18 -109t-16 -118h338
q161 0 262 53l6 -6q0 -94 -77 -442t-77 -383q0 -46 37 -46q20 0 49 13.5t49 26.5l19 14l8 -70q-5 -5 -14 -12.5t-37 -27t-58 -34.5t-73.5 -27t-85.5 -12q-72 0 -114 34t-42 93q0 64 65.5 336.5t65.5 323.5q0 49 -45 49h-264l-27 -18q-13 -117 -24.5 -204t-30 -197t-38 -192
t-49 -174.5t-62.5 -159.5t-78.5 -133t-98.5 -109t-120.5 -72t-145.5 -37l-18 59q235 81 346 720q24 136 66 494q1 8 2 15h-127z" />
    <glyph glyph-name="fl" unicode="fl" horiz-adv-x="1165" 
d="M649 102q0 21 5.5 53t18.5 88t15 66l195 885q2 12 6 30.5t6.5 32t3.5 23.5q-35 5 -71 25.5t-61.5 42t-59.5 38.5t-68 17q-39 0 -68.5 -34.5t-50 -105.5t-33.5 -145.5t-26 -185.5h219l-29 -121h-182l-25 -16q-14 -120 -26.5 -213.5t-31.5 -203t-39.5 -193.5t-49.5 -174
t-63 -156.5t-79 -129.5t-97.5 -104.5t-118.5 -69.5t-142 -36l-18 59q58 20 108.5 73.5t87.5 128t67.5 168t52 193t38.5 204t29 200t22 182.5q6 55 9 80h-127l6 86l139 45q16 96 38.5 172.5t63.5 153t95.5 127.5t137.5 82.5t187 31.5q159 0 238 -39q138 31 209 66l6 -6
q-7 -135 -53 -342l-199 -899q-23 -101 -23 -129q0 -48 41 -48q21 0 57 18.5t56 35.5l8 -70q-5 -5 -13.5 -12.5t-36.5 -27t-58.5 -34.5t-77 -27t-92.5 -12q-70 0 -108 37.5t-38 89.5z" />
    <glyph glyph-name="f_f_i" unicode="ffi" horiz-adv-x="1730" 
d="M66 803l6 86l139 45q16 86 40.5 157t66 139.5t96.5 115.5t136.5 75.5t182.5 28.5q174 0 250 -64q128 115 326 115q104 0 171.5 -31t67.5 -94q0 -42 -29.5 -71t-78.5 -29q-33 0 -65.5 20t-54 43.5t-50.5 43.5t-58 20q-28 0 -51 -17.5t-40.5 -54t-30.5 -76t-24 -100.5
t-18 -109t-16 -118h338q161 0 262 53l6 -6q0 -94 -76.5 -442t-76.5 -383q0 -46 37 -46q20 0 49 13.5t48 26.5l19 14l9 -70q-5 -5 -14 -12.5t-37.5 -27t-58 -34.5t-73.5 -27t-86 -12q-72 0 -113.5 34t-41.5 93q0 64 65.5 336.5t65.5 323.5q0 49 -45 49h-265l-26 -18
q-13 -117 -24.5 -204t-30 -197t-38 -192t-49 -174.5t-62.5 -159.5t-78.5 -133t-98.5 -109t-120.5 -72t-145.5 -37l-19 59q45 15 85 51t71 80.5t59.5 113t49 128t40.5 148t32 150.5t26 157t20.5 147t17.5 142t15 120h-297l-27 -18q-14 -120 -26.5 -213.5t-31.5 -203
t-39.5 -193.5t-49.5 -174t-63 -156.5t-79 -129.5t-97.5 -104t-118.5 -69t-142 -35l-18 59q58 20 107.5 72.5t86 123t67 164t51.5 187.5t38.5 200.5t29 197t22.5 182.5q8 70 12 102h-127zM782 928q30 175 86 297q-32 13 -68 47t-70.5 58t-74.5 24q-33 0 -60 -15.5
t-45.5 -38.5t-33.5 -61t-23.5 -71t-16 -82t-10.5 -80t-7 -78h323z" />
    <glyph glyph-name="f_f_l" unicode="ffl" horiz-adv-x="1746" 
d="M66 803l6 86l139 45q16 86 40.5 157t66 139.5t96.5 115.5t136.5 75.5t182.5 28.5q174 0 252 -66q123 117 324 117q161 0 239 -41q146 37 209 68l6 -6q-7 -133 -53 -342l-199 -899q-22 -96 -22 -129q0 -48 41 -48q22 0 60 21t63 41l8 -70q-5 -5 -14 -13t-38.5 -29t-61 -37
t-79.5 -29t-96 -13q-70 0 -107.5 37.5t-37.5 89.5q0 36 45 234l170 776q31 140 35 168q-36 5 -72.5 25.5t-61.5 42t-60 38.5t-69 17q-39 0 -69 -35t-50.5 -105t-33.5 -146t-25 -185h219l-28 -121h-180l-27 -18q-16 -145 -33 -263.5t-43 -241t-57 -219t-75 -187t-97 -156
t-122.5 -114.5t-152.5 -73l-30 55q41 30 78.5 80.5t66 105t54.5 135t44 144t36 160.5t28 157t22.5 160.5t17 143t13.5 131.5h-299l-27 -18q-14 -120 -26.5 -213.5t-31.5 -203t-39.5 -193.5t-49.5 -174t-63 -156.5t-79 -129.5t-97.5 -104t-118.5 -69t-142 -35l-18 59
q58 20 107.5 72.5t86 123t67 164t51.5 187.5t38.5 200.5t29 197t22.5 182.5q8 70 12 102h-127zM786 928q28 180 84 295q-32 13 -68 47.5t-71 59t-76 24.5q-33 0 -60 -15.5t-45.5 -38.5t-33.5 -61t-23.5 -71t-16 -82t-10.5 -80t-7 -78h327z" />
    <glyph glyph-name="f_j" unicode="fj" horiz-adv-x="1112" 
d="M66 803l6 86l139 45q11 67 25.5 124t37 116.5t50.5 106t68.5 89t89 70.5t113 44.5t140.5 16.5q104 0 172 -31t68 -94q0 -41 -30 -70.5t-79 -29.5q-33 0 -65.5 20t-53.5 43.5t-50 43.5t-58 20q-28 0 -51 -17.5t-40.5 -54t-30.5 -76t-24 -100.5t-18 -109t-16 -118h309
q157 0 258 53l6 -6q0 -118 -33 -336l-63 -414q-18 -120 -55 -222.5t-82 -171t-94.5 -123t-95.5 -85t-83 -51t-60 -26.5l-22 -7l-30 55q8 7 21.5 20t49.5 58.5t66.5 98t62 137.5t45.5 176l93 588q5 32 6 51.5t-1 42.5t-13.5 34t-32.5 11h-240l-27 -18q-13 -117 -24.5 -204
t-30 -197t-38 -192t-49 -174.5t-62.5 -159.5t-78.5 -133t-98.5 -109t-120.5 -72t-145.5 -37l-18 59q235 81 346 720q24 136 66 494q1 8 2 15h-127z" />
    <glyph glyph-name=".notdef" horiz-adv-x="1413" 
d="M92 -109v1584h1229v-1584h-1229zM246 301l82 -84l379 381l378 -381l82 84l-379 379l379 381l-80 84l-380 -383l-381 383l-80 -84l379 -381z" />
    <glyph glyph-name=".null" horiz-adv-x="0" 
 />
    <glyph glyph-name="nonmarkingreturn" horiz-adv-x="682" 
 />
    <glyph glyph-name="space" unicode=" " horiz-adv-x="444" 
 />
    <glyph glyph-name="exclam" unicode="!" horiz-adv-x="571" 
d="M207 420l72 930q81 16 165.5 37t129.5 34l44 13l9 -17q-46 -75 -99 -241l-237 -756h-84zM41 88q0 79 47.5 142t134.5 63q58 0 87.5 -31.5t29.5 -79.5q0 -78 -48.5 -142.5t-137.5 -64.5q-56 0 -84.5 32.5t-28.5 80.5z" />
    <glyph glyph-name="quotedbl" unicode="&#x22;" horiz-adv-x="739" 
d="M500 821l108 545h219l-14 -76l-178 -469h-135zM150 821l108 545h219l-14 -76l-178 -469h-135z" />
    <glyph glyph-name="numbersign" unicode="#" horiz-adv-x="1294" 
d="M109 651l28 123h273l114 410h129l-112 -410h309l115 410h129l-113 -410h295l-29 -123h-299l-78 -278h297l-28 -123h-301l-119 -432h-131l119 432h-310l-118 -432h-132l119 432h-266l29 123h270l78 278h-268zM508 651l-78 -278h309l78 278h-309z" />
    <glyph glyph-name="dollar" unicode="$" horiz-adv-x="868" 
d="M-18 158q0 35 20 89.5t40 92.5l21 37h72q-10 -63 -10 -96q0 -74 41 -130t123 -69l84 383q-37 23 -55.5 35.5t-52 36.5t-51.5 41t-42 44t-36 51.5t-21 56t-9 65.5q0 133 115 236.5t303 113.5l39 178h94l-41 -178q43 -3 93 -9t105 -15t58 -9l-84 -305h-71q7 54 1.5 103
t-37 87.5t-85.5 49.5l-80 -359q60 -39 97 -67t80.5 -72.5t65 -97.5t21.5 -115q0 -102 -58.5 -180.5t-152.5 -120t-209 -47.5l-36 -170h-95l37 170q-74 6 -136 25.5t-105 57.5t-43 87zM567 246q0 46 -29 84t-83 78l-72 -324q77 11 130.5 55t53.5 107zM317 897q0 -43 30 -80
t87 -76l68 308q-77 -9 -131 -51t-54 -101z" />
    <glyph glyph-name="percent" unicode="%" horiz-adv-x="1507" 
d="M127 0l1194 1389l80 -70l-1133 -1319h-141zM422 719q-124 0 -197 72.5t-73 191.5q0 93 48.5 181.5t133 145t178.5 56.5q124 0 199 -74.5t75 -193.5q0 -73 -31.5 -143t-82 -121.5t-117 -83t-133.5 -31.5zM432 852q76 0 138.5 69.5t62.5 159.5q0 64 -35 107t-90 43
q-77 0 -140 -70t-63 -160q0 -64 35.5 -106.5t91.5 -42.5zM768 240q0 93 48.5 181.5t133 145t178.5 56.5q124 0 199.5 -75t75.5 -194q0 -97 -53 -185.5t-137.5 -141t-174.5 -52.5q-124 0 -197 73t-73 192zM922 258q0 -64 35.5 -106.5t91.5 -42.5q76 0 138 69.5t62 159.5
q0 64 -35 106.5t-90 42.5q-77 0 -139.5 -69.5t-62.5 -159.5z" />
    <glyph glyph-name="ampersand" unicode="&#x26;" horiz-adv-x="1282" 
d="M2 272q0 56 19.5 107.5t48 90.5t78 81.5t92.5 71.5t108 69q-63 163 -63 297q0 78 24 147.5t73 127.5t133 92.5t194 34.5q139 0 220 -56.5t81 -163.5q0 -41 -13 -80.5t-32.5 -73t-53 -69t-63.5 -62t-75.5 -58.5t-78 -52.5t-80.5 -50.5q91 -206 258 -438q105 90 169.5 198
t64.5 220q0 121 -119 143v61q41 23 127 23q73 0 109.5 -27.5t36.5 -111.5q0 -133 -93 -290.5t-243 -285.5q72 -95 139.5 -166t110.5 -102l-31 -49q-197 45 -381 198q-206 -123 -404 -123q-94 0 -173 31.5t-131 101t-52 164.5zM461 98q96 0 229 68q-192 192 -307 438
q-59 -54 -100 -131.5t-41 -148.5q0 -112 60.5 -169t158.5 -57zM535 1047q0 -105 45 -232q98 74 152 157t54 199q0 58 -22 96t-64 38q-72 0 -118.5 -78.5t-46.5 -179.5z" />
    <glyph glyph-name="quotesingle" unicode="'" horiz-adv-x="389" 
d="M150 821l108 545h219l-14 -76l-178 -469h-135z" />
    <glyph glyph-name="parenleft" unicode="(" horiz-adv-x="612" 
d="M57 451q0 96 15 190.5t40.5 173.5t58.5 154t69.5 134.5t72.5 112t69 90t58.5 65t40.5 41.5l15 13l79 -34q-13 -17 -34 -48t-75 -132.5t-95 -208.5t-75 -266.5t-34 -315.5q0 -129 21.5 -254.5t52.5 -212.5t62.5 -155.5t53.5 -101.5l21 -34l-84 -43q-7 7 -19 19.5
t-46.5 55.5t-66 90.5t-69.5 123t-65.5 154t-46.5 181.5t-19 208z" />
    <glyph glyph-name="parenright" unicode=")" horiz-adv-x="573" 
d="M-45 -338q7 9 20 25t49.5 72t70 116.5t74.5 154.5t70.5 191t49.5 222.5t20 250.5q0 115 -16 228.5t-39.5 192.5t-46.5 141.5t-39 93.5l-16 30l86 45q11 -12 29.5 -34.5t66.5 -98.5t84 -159t66 -212.5t30 -263.5q0 -130 -26.5 -257t-69.5 -227t-94.5 -190.5t-103.5 -155.5
t-95 -113t-69 -72l-27 -23z" />
    <glyph glyph-name="asterisk" unicode="*" horiz-adv-x="1040" 
d="M598 1049q-19 20 -31 53l-92 239q-11 30 33 49t90 19t90 -19t33 -49l-92 -239q-5 -16 -13 -29t-13 -19zM215 1051q-22 4 -25 30t6 55.5t23 53.5q23 40 60.5 68.5t58.5 3.5l162 -199q11 -13 18.5 -26t9.5 -20l2 -7q-26 -6 -61 0zM666 1010q5 24 30 53l162 199
q21 25 58.5 -3.5t60.5 -68.5q14 -24 23 -53.5t5.5 -55.5t-26.5 -30l-252 -41q-16 -3 -31 -3t-22 1zM858 680l-162 199q-10 12 -17.5 25.5t-10.5 20.5l-2 7q24 6 61 0l254 -41q22 -4 25 -30t-6 -55.5t-23 -53.5q-23 -40 -60.5 -68.5t-58.5 -3.5zM338 680q-21 -25 -58.5 3.5
t-60.5 68.5q-14 24 -23 53.5t-5.5 55.5t26.5 30l252 41q16 3 31.5 3t22.5 -1l7 -2q-7 -26 -30 -53zM475 600l92 240q5 15 13 28t13 19l5 6q19 -18 31 -53l92 -240q11 -30 -33 -49t-90 -19t-90 19t-33 49z" />
    <glyph glyph-name="plus" unicode="+" 
d="M57 451v145h396v424h153v-424h389v-145h-389v-451h-153v451h-396z" />
    <glyph glyph-name="comma" unicode="," horiz-adv-x="458" 
d="M-6 102l20 105l215 106q64 -94 64 -192q0 -129 -99 -248t-251 -213l-52 78q104 68 157.5 124.5t53.5 106.5q0 34 -27 67t-54 50z" />
    <glyph glyph-name="hyphen" unicode="-" horiz-adv-x="765" 
d="M100 440v164h545v-164h-545z" />
    <glyph glyph-name="period" unicode="." horiz-adv-x="468" 
d="M6 88q0 79 47.5 142t134.5 63q58 0 87.5 -31.5t29.5 -79.5q0 -78 -48.5 -142.5t-137.5 -64.5q-56 0 -84.5 32.5t-28.5 80.5z" />
    <glyph glyph-name="slash" unicode="/" horiz-adv-x="600" 
d="M-16 -401h-162l772 1767h162z" />
    <glyph glyph-name="zero" unicode="0" horiz-adv-x="1130" 
d="M76 383q-2 110 36.5 219t107.5 197t177 143t234 55q186 0 290 -111.5t109 -283.5q3 -110 -36 -221t-110 -201.5t-179.5 -147.5t-233.5 -57q-185 0 -288.5 114t-106.5 294zM322 362q0 -111 38 -185.5t117 -74.5q78 0 149.5 76t113.5 194t42 240q0 113 -38.5 185.5
t-118.5 72.5q-83 0 -154 -77.5t-110 -194t-39 -236.5z" />
    <glyph glyph-name="one" unicode="1" horiz-adv-x="755" 
d="M-6 -10v80q88 0 127 29.5t53 101.5l125 571q14 71 -14 96t-123 25v80h581l-8 -76l-168 -23l-147 -673q-5 -27 -13.5 -54.5t-14.5 -40.5l-5 -14l186 -20l-6 -72z" />
    <glyph glyph-name="two" unicode="2" horiz-adv-x="948" 
d="M-18 0l-2 74q104 71 303 235q134 112 194 193t60 168q0 80 -40.5 118.5t-105.5 38.5q-53 0 -105.5 -17.5t-79.5 -34.5l-26 -17l-39 59q6 7 17.5 19.5t50 43.5t80 54.5t104.5 43t127 19.5q118 0 195.5 -60.5t77.5 -164.5q0 -33 -9.5 -66.5t-22 -62.5t-40 -64.5t-48 -61
t-63.5 -64.5t-68 -61t-79.5 -65t-81.5 -63.5t-88 -66.5h242q36 0 67 11t51 25.5t41.5 42t32 46t29.5 53.5h90l-144 -375h-720z" />
    <glyph glyph-name="three" unicode="3" horiz-adv-x="796" 
d="M-158 -319q84 1 173 30.5t165.5 81t126 131t49.5 170.5q0 55 -17.5 93t-50 57t-69 27t-84.5 8q-14 0 -24.5 -1.5t-14.5 -2.5l-4 -1v109q75 13 158 60t146 124t63 158q0 62 -35 89.5t-86 27.5q-46 0 -103 -21t-91 -42l-33 -21l-37 61q6 7 18 19t50.5 43t80 54.5
t103.5 42.5t123 19q115 0 193.5 -58t78.5 -161q0 -57 -27.5 -112.5t-67.5 -96.5t-96.5 -80t-102.5 -63.5t-97 -46.5q137 -14 216 -83.5t79 -180.5q0 -101 -66.5 -199t-169.5 -167.5t-229.5 -112t-243.5 -42.5l-74 5v82z" />
    <glyph glyph-name="four" unicode="4" horiz-adv-x="1071" 
d="M-51 61v70l721 832l221 38l2 -6q-33 -88 -66 -233l-118 -539h260l-64 -162h-231l-29 -129q-42 -182 -49 -315l-252 -18q2 98 45 288l39 174h-479zM162 223h303l80 365q7 37 39 135z" />
    <glyph glyph-name="five" unicode="5" horiz-adv-x="813" 
d="M-123 -319q127 0 249.5 53t201 142.5t78.5 186.5q0 49 -21 90.5t-54 69.5t-73 50t-80.5 34t-73.5 20t-54 11l-21 2l170 633h444q34 0 68 3t51 6l18 3l-51 -205h-473l-61 -225q10 -2 26.5 -5t64 -18t90.5 -34t96 -54t91 -76.5t64 -104t26 -134.5q0 -115 -62 -216
t-162.5 -169.5t-227 -107.5t-256.5 -39l-68 2v82z" />
    <glyph glyph-name="six" unicode="6" horiz-adv-x="1040" 
d="M78 424q0 123 36.5 254t114 259t186 228.5t266.5 163t341 62.5v-78q-103 -11 -192.5 -49t-157.5 -94.5t-123.5 -130.5t-93 -155.5t-63 -171.5t-37 -177.5t-11.5 -174.5q0 -299 131 -299q52 0 98.5 48.5t76 121t46.5 152.5t17 147q0 99 -36 165.5t-97 66.5l-27 -4v80
q47 32 127 32q139 0 215 -90.5t76 -226.5q0 -74 -23 -154t-69 -155t-107.5 -135.5t-145 -97t-175.5 -36.5q-177 0 -275 124.5t-98 324.5z" />
    <glyph glyph-name="seven" unicode="7" horiz-adv-x="942" 
d="M98 -174q152 173 467 661l160 250q-78 -8 -123 -8h-252q-89 0 -123.5 -22t-91.5 -115h-82l127 381h680q38 0 72 2t48 4l15 2v-55q-90 -98 -133 -166l-626 -983q-69 -110 -102 -147.5t-75 -37.5q-39 0 -58.5 24.5t-16.5 59.5q1 15 10 30t18.5 26.5t37.5 41t48 52.5z" />
    <glyph glyph-name="eight" unicode="8" horiz-adv-x="1021" 
d="M35 268q0 68 28 131.5t80 118.5t111 100.5t137 92.5q-73 86 -113 161t-40 160q0 161 122.5 260t301.5 99q154 0 251 -72.5t97 -190.5q0 -39 -11.5 -75t-35 -68.5t-51 -60.5t-67.5 -57t-76 -52t-85 -51q50 -56 77.5 -89t62.5 -85t51 -103.5t16 -105.5q0 -115 -68 -209
t-178 -145.5t-237 -51.5q-57 0 -111 11t-101.5 35t-83 58t-56.5 82.5t-21 106.5zM256 283q0 -98 39.5 -160t126.5 -62q96 0 155.5 75t59.5 177q0 57 -28 117.5t-60 101.5t-90 105q-201 -156 -203 -354zM492 1094q0 -65 33.5 -126t95.5 -132q77 54 122 118t45 160
q0 86 -37 138.5t-102 52.5q-48 0 -85 -33.5t-54.5 -80.5t-17.5 -97z" />
    <glyph glyph-name="nine" unicode="9" horiz-adv-x="1058" 
d="M23 -330q141 16 257 82t192 161t128.5 215.5t75 242t22.5 243.5q0 299 -131 299q-50 0 -94.5 -48.5t-72.5 -121t-44 -152.5t-16 -147q0 -94 33 -157.5t90 -63.5l26 4v-80q-47 -32 -127 -32q-134 0 -207 87.5t-73 219.5q0 74 22.5 153.5t67.5 155t105.5 135.5t142.5 96.5
t172 36.5q177 0 275 -124t98 -324q0 -101 -26.5 -208.5t-76.5 -215.5t-131 -204t-182 -170t-237 -117.5t-289 -43.5v78z" />
    <glyph glyph-name="colon" unicode=":" horiz-adv-x="526" 
d="M29 88q0 79 47.5 142t134.5 63q58 0 87.5 -31.5t29.5 -79.5q0 -78 -49 -142.5t-138 -64.5q-56 0 -84 32.5t-28 80.5zM164 752q0 79 47.5 141.5t134.5 62.5q58 0 87.5 -31t29.5 -79q0 -78 -49 -142.5t-138 -64.5q-56 0 -84 32.5t-28 80.5z" />
    <glyph glyph-name="semicolon" unicode=";" horiz-adv-x="524" 
d="M145 752q0 79 48 141.5t135 62.5q58 0 87 -31t29 -79q0 -78 -48.5 -142.5t-137.5 -64.5q-56 0 -84.5 32.5t-28.5 80.5zM41 102l20 105l215 106q64 -94 64 -192q0 -129 -99 -248t-251 -213l-51 78q104 68 157.5 124.5t53.5 106.5q0 34 -27 67t-55 50z" />
    <glyph glyph-name="less" unicode="&#x3c;" 
d="M29 473v94l872 469l41 -149l-711 -367l711 -387l-41 -147z" />
    <glyph glyph-name="equal" unicode="=" 
d="M72 621v143h897v-143h-897zM72 262v144h897v-144h-897z" />
    <glyph glyph-name="greater" unicode="&#x3e;" 
d="M156 -14l-41 147l710 387l-710 367l41 149l872 -469v-94z" />
    <glyph glyph-name="question" unicode="?" horiz-adv-x="727" 
d="M233 412q-26 40 -26 92q0 53 30.5 109.5t74.5 103.5t87.5 91t74 88t30.5 79q0 36 -30 73.5t-73.5 65.5t-86.5 50.5t-73 33.5l-30 12l111 238q10 -4 27 -11t67 -31t95 -49t100.5 -62.5t95 -74.5t67 -82.5t27.5 -88.5q0 -50 -37 -106.5t-92.5 -106t-120.5 -103
t-120.5 -97.5t-92.5 -90.5t-37 -82.5q0 -17 6 -41zM45 92q0 76 48 138.5t134 62.5q59 0 88 -31.5t29 -83.5q0 -45 -18.5 -89.5t-62.5 -79t-103 -34.5q-60 0 -87.5 32t-27.5 85z" />
    <glyph glyph-name="at" unicode="@" horiz-adv-x="1679" 
d="M8 317q0 119 36 236t100 217t154 185.5t194.5 145.5t225.5 94t243 34q143 0 266.5 -46t210.5 -127t136.5 -197.5t49.5 -252.5q0 -204 -106 -352t-281 -215q-70 -26 -142.5 -37t-166.5 -16t-150 -13l-10 9q-1 4 3 14.5t12 36.5t14 59l12 66q-66 -93 -125.5 -138
t-130.5 -45q-89 0 -145 69t-56 196q0 121 53.5 245t142 222.5t214.5 160.5t260 62q37 0 86.5 -5t79.5 -9l31 -5q-34 -86 -52 -180l-86 -438q-18 -90 -18 -131q0 -31 16.5 -50.5t50.5 -19.5q45 0 94.5 36t92.5 97t71.5 155t28.5 198q0 114 -32 212t-93 173t-158 118t-219 43
q-197 0 -358 -108t-250.5 -288.5t-89.5 -393.5q0 -132 37.5 -242.5t101.5 -184t147 -116t177 -47.5l-21 -92q-190 8 -338.5 95.5t-230.5 236t-82 333.5zM623 287q0 -137 61 -137q22 0 54 17t54 33l21 17l123 621q-78 -4 -151.5 -87.5t-117.5 -210.5t-44 -253z" />
    <glyph glyph-name="A" unicode="A" horiz-adv-x="1202" 
d="M-123 0v70q89 9 135 92l690 1198l115 18l199 -1153q13 -70 25.5 -101t28 -40.5t50.5 -15.5l-6 -68h-102l-334 -8v76q42 2 67.5 23t18.5 63l-43 266h-412l-33 -21l-172 -307l152 -24l-6 -68h-373zM639 926q-3 14 -5 30.5t-4 37.5t-3 32l-279 -498h354z" />
    <glyph glyph-name="B" unicode="B" horiz-adv-x="1228" 
d="M8 -6v76q57 8 99 39t51 77l190 957q14 75 14 87q-2 34 -43 52q-28 11 -86 23v61h472q241 0 352.5 -73t111.5 -197q0 -120 -89 -214t-236 -151q34 -9 66 -21t74 -37t72 -55.5t51 -78.5t21 -105q0 -188 -164.5 -311t-437.5 -123h-149q-101 0 -193 -1.5t-134 -2.5zM399 102
h78q83 0 149 19.5t106 50t66.5 71.5t37 81t10.5 82q0 64 -20.5 111.5t-49.5 73t-69.5 40t-71.5 18.5t-66 4h-28l-29 -24l-80 -408q-5 -27 -13.5 -57t-14.5 -46zM537 756h135q76 5 144.5 98.5t68.5 206.5q0 37 -8 70t-27 64.5t-56 50t-89 18.5h-43l-31 -27z" />
    <glyph glyph-name="C" unicode="C" horiz-adv-x="1312" 
d="M86 569q0 156 66 305t179 263t276.5 184t346.5 70q86 0 239.5 -21.5t172.5 -23.5l-90 -334h-80q2 21 2 37q0 124 -61.5 182.5t-194.5 58.5q-108 0 -204.5 -37.5t-166.5 -101.5t-121 -147.5t-76.5 -177.5t-25.5 -189q0 -119 36.5 -213t101 -152.5t148.5 -89t181 -30.5
q83 0 169.5 23t131.5 46l45 23l27 -56q-8 -9 -22 -23t-64 -51t-105.5 -65t-144 -51t-182.5 -23q-141 0 -254.5 50t-184 134t-108 189t-37.5 221z" />
    <glyph glyph-name="D" unicode="D" horiz-adv-x="1482" 
d="M8 -6v76q57 8 99 39t51 77l190 957q14 75 14 87q-2 34 -43 52q-28 11 -86 23v61h508q114 0 213.5 -18t190.5 -60t156 -106.5t103 -163t38 -223.5q0 -171 -69.5 -318.5t-192.5 -252.5t-299.5 -164.5t-382.5 -59.5h-201zM399 102h109q131 0 240 37t183.5 101.5t126.5 151.5
t75.5 185.5t23.5 206.5q0 230 -109 355t-313 125h-76l-26 -25l-201 -1018q-5 -27 -13.5 -57t-14.5 -46z" />
    <glyph glyph-name="E" unicode="E" horiz-adv-x="1175" 
d="M8 -6v76q62 9 102 40.5t50 84.5l188 948q14 75 14 87q-2 34 -43 52q-28 11 -86 23v61h832q36 0 74 2t58 4l20 2l-99 -362h-80q30 140 -9.5 196t-158.5 56h-206l-31 -25l-96 -494h325l37 132h86l-78 -388h-102l31 154h-295l-31 -25l-78 -397q-5 -27 -13.5 -57t-14.5 -46
l-5 -16h267q50 0 84 7t62 20t56.5 45t54.5 69t68 105h80l-125 -348h-604z" />
    <glyph glyph-name="F" unicode="F" horiz-adv-x="1093" 
d="M8 -6v76q62 9 102 40.5t50 84.5l188 948q14 75 14 87q-2 34 -43 52q-28 11 -86 23v61h832q36 0 74 2t58 4l20 2l-101 -362h-80q30 140 -8.5 196t-157.5 56h-206l-31 -25l-98 -502h325l37 131h86l-78 -387h-102l31 154h-295l-31 -25l-78 -397q-6 -30 -14.5 -60.5
t-13.5 -45.5l-5 -15l213 -18l-8 -68z" />
    <glyph glyph-name="G" unicode="G" horiz-adv-x="1411" 
d="M88 561q0 120 34.5 238t106.5 225t173.5 188.5t246 130t312.5 48.5q101 0 270 -22t178 -23l-90 -334h-80q2 26 2 51q0 75 -24.5 122.5t-92.5 76t-184 28.5q-130 0 -239 -58.5t-179.5 -155.5t-109.5 -220.5t-39 -255.5q0 -235 103.5 -373.5t295.5 -138.5q68 0 174 27
l53 260q15 76 -11 105.5t-116 43.5v62h488l6 -29q-3 -2 -9 -5t-22 -18t-30 -35t-29.5 -56.5t-24.5 -80.5l-67 -333q-29 -2 -200 -28t-253 -26q-184 0 -327.5 65.5t-229.5 200t-86 320.5z" />
    <glyph glyph-name="H" unicode="H" horiz-adv-x="1611" 
d="M8 -6v76q62 9 102 40.5t50 84.5l192 966q18 71 2.5 97t-104.5 47v61h151q109 0 187.5 2t102.5 4l24 2l8 -8q-3 -3 -8.5 -9.5t-21.5 -29t-29.5 -48.5t-29 -69.5t-24.5 -91.5l-73 -368h602l28 26l78 385q18 71 2.5 97t-104.5 47v61h151q109 0 187.5 2t102.5 4l24 2l8 -8
q-3 -3 -8.5 -9.5t-21.5 -29t-29.5 -48.5t-29 -69.5t-24.5 -91.5l-180 -905q-6 -30 -14.5 -60.5t-13.5 -45.5l-5 -15l162 -18l-8 -68l-543 -12v76q62 9 102 40.5t50 84.5l88 446h-600l-31 -29l-80 -399q-6 -30 -14.5 -60.5t-13.5 -45.5l-5 -15l162 -18l-8 -68z" />
    <glyph glyph-name="I" unicode="I" horiz-adv-x="718" 
d="M8 -6v76q62 9 102 40.5t50 84.5l192 966q18 71 2.5 97t-104.5 47v61h151q109 0 187.5 2t102.5 4l24 2l8 -8q-3 -3 -8.5 -9.5t-21.5 -29t-29.5 -48.5t-29 -69.5t-24.5 -91.5l-180 -905q-6 -30 -14.5 -60.5t-13.5 -45.5l-5 -15l162 -18l-8 -68z" />
    <glyph glyph-name="J" unicode="J" horiz-adv-x="659" 
d="M119 113l209 1048q18 71 2 97t-105 47v61h152q109 0 187.5 2t101.5 4l24 2l8 -8q-9 -9 -22.5 -26.5t-43.5 -81.5t-46 -140l-183 -909q-55 -271 -203.5 -407t-346.5 -136l-13 60q85 13 165.5 115.5t113.5 271.5z" />
    <glyph glyph-name="K" unicode="K" horiz-adv-x="1337" 
d="M8 -6v76q62 9 102 40.5t50 84.5l192 966q18 71 2.5 97t-104.5 47v61h151q109 0 187.5 2t102.5 4l24 2l8 -8q-3 -3 -8.5 -9.5t-21.5 -29t-29.5 -48.5t-29 -69.5t-24.5 -91.5l-71 -358h41q40 22 69 49l430 391q24 22 33 42.5t-5.5 38.5t-57.5 24v61h397l8 -39
q-4 0 -10.5 -1.5t-31 -11.5t-52.5 -26.5t-73.5 -50t-94.5 -78.5l-389 -356v-31l301 -565q37 -71 65 -98.5t68 -30.5l23 -2l-7 -76h-374l-5 6q1 6 -0.5 19.5t-21.5 69t-59 128.5l-230 428h-47l-86 -438q-6 -30 -14.5 -60.5t-13.5 -45.5l-5 -15l162 -18l-8 -68z" />
    <glyph glyph-name="L" unicode="L" horiz-adv-x="1097" 
d="M8 -6v76q62 9 102 40.5t50 84.5l192 966q18 71 2.5 97t-104.5 47v61h151q109 0 187.5 2t102.5 4l24 2l8 -8q-3 -3 -8.5 -9.5t-21.5 -29t-29.5 -48.5t-29 -69.5t-24.5 -91.5l-174 -874q-6 -30 -15.5 -65.5t-15.5 -56.5l-6 -20h246q30 0 52.5 2t45.5 10.5t38 15t37 28
t34.5 35.5t39 51.5t43 61.5t52.5 79h80l-139 -385h-627z" />
    <glyph glyph-name="M" unicode="M" horiz-adv-x="1787" 
d="M-10 -6v76q129 16 153 127l228 968q20 66 0.5 92t-121.5 48v61h186q69 0 138.5 2t103.5 4l35 2l4 -8q6 -96 20 -188l109 -672q11 -84 12 -103l467 822l76 141h43q82 0 158 2t112 4l35 2l8 -8q-3 -4 -8.5 -10.5t-20 -31t-27.5 -52t-26.5 -72t-21.5 -92.5l-137 -895
q-4 -30 -12.5 -60.5t-14.5 -45.5l-6 -15l162 -18l-9 -68l-542 -12v76q131 20 151 125l141 921l-634 -1116l-82 25l-187 1124q-7 -21 -18 -66l-209 -886l-31 -111l172 -12l-6 -68z" />
    <glyph glyph-name="N" unicode="N" horiz-adv-x="1529" 
d="M8 -6v76q63 8 103.5 40.5t50.5 86.5l180 911q25 101 5.5 142t-114.5 55v61h64l276 8q11 -47 50 -106l512 -789q20 -33 53 -96l151 762q9 45 9.5 76t-28.5 50t-97 27v68h389l4 -29q-5 -2 -14 -5.5t-33.5 -19.5t-45 -37t-42 -60t-31.5 -87l-227 -1138h-84l-637 983
q-33 50 -56 94l-172 -870q-5 -27 -12.5 -55t-12.5 -42l-5 -14l172 -12l-6 -68z" />
    <glyph glyph-name="O" unicode="O" horiz-adv-x="1552" 
d="M92 580q0 117 34.5 233.5t103.5 220.5t164 183.5t226 126.5t279 47q284 0 448 -161.5t164 -426.5q0 -125 -37.5 -246.5t-110 -226t-169.5 -184.5t-224.5 -125.5t-267.5 -45.5q-185 0 -324.5 79t-212.5 216t-73 310zM377 571q0 -133 36.5 -243.5t115.5 -182t188 -71.5
q132 0 250 102t188 271t70 356q0 72 -11.5 140.5t-38 132.5t-65 111.5t-97 76t-130.5 28.5q-109 0 -206 -65.5t-161.5 -169.5t-101.5 -231.5t-37 -254.5z" />
    <glyph glyph-name="P" unicode="P" horiz-adv-x="1171" 
d="M8 -6v76q62 9 102 40.5t50 84.5l188 948q14 75 14 87q-2 34 -43 52q-28 11 -86 23v61h525q75 0 141.5 -11t126 -37t102.5 -64.5t68 -96.5t25 -131q0 -87 -35 -163.5t-93.5 -131t-133.5 -93.5t-157 -57t-163 -16v74q145 22 221 121.5t76 236.5q0 128 -71.5 197.5
t-176.5 69.5h-24l-31 -25l-203 -1026q-7 -36 -15.5 -66.5t-12.5 -42.5l-5 -12l183 -18l-9 -68z" />
    <glyph glyph-name="Q" unicode="Q" horiz-adv-x="1552" 
d="M238 -164q382 67 485 139h-21q-185 0 -324.5 79t-212.5 216t-73 310q0 117 34.5 233.5t103.5 220.5t164 183.5t226 126.5t279 47q285 0 448.5 -161.5t163.5 -432.5q0 -147 -51.5 -282t-138.5 -240.5t-205.5 -195t-247.5 -152.5t-270 -105q225 -88 457 -88q276 0 479 119
l18 -62q-106 -115 -249 -187.5t-318 -72.5q-145 0 -319.5 57t-427.5 179v69zM377 571q0 -132 37 -242t115.5 -181.5t185.5 -71.5q133 0 251.5 102t188.5 270t70 353q0 73 -11.5 141.5t-38 132.5t-65 111t-97 75.5t-130.5 28.5q-109 0 -206 -65t-161.5 -168.5t-101.5 -231
t-37 -254.5z" />
    <glyph glyph-name="R" unicode="R" horiz-adv-x="1277" 
d="M8 -6v76q62 9 102 40.5t50 84.5l188 948q14 75 14 87q-2 34 -43 52q-28 11 -86 23v61h502q123 0 217 -26t147.5 -70.5t80 -98t26.5 -114.5q0 -63 -23.5 -120.5t-58.5 -100t-83 -79.5t-91 -60.5t-88 -41.5v-32l201 -420q34 -71 64 -95.5t73 -29.5l21 -2l-9 -76h-364l-8 6
q-25 94 -86 225l-168 353h-58l-30 -25l-68 -346q-7 -36 -15.5 -66.5t-12.5 -42.5l-5 -12l162 -18l-8 -68zM524 686h97q47 2 97.5 24.5t97 63.5t76.5 108.5t30 147.5q0 99 -59 166.5t-165 67.5h-34l-31 -25z" />
    <glyph glyph-name="S" unicode="S" horiz-adv-x="1007" 
d="M27 168q0 38 19.5 99t39.5 103l20 42h80q0 -30 0.5 -50.5t3 -51t7 -51.5t13.5 -47.5t21.5 -44t32 -36.5t43.5 -30t57.5 -18t73.5 -7q92 0 154.5 55t62.5 152q0 56 -26 108t-68 93.5t-92.5 82.5t-101.5 84.5t-93 90t-68 108.5t-26 131q0 82 34 156.5t96 131t156 89.5
t206 33q101 0 358 -39l-92 -340h-80q48 278 -196 278q-101 0 -174.5 -53t-73.5 -145q0 -52 26.5 -99t68.5 -85.5t93 -77.5t102.5 -83t93.5 -93t68.5 -117.5t26.5 -147.5q0 -101 -40.5 -181.5t-109 -130.5t-154 -76t-181.5 -26q-95 0 -179 19.5t-143 65t-59 108.5z" />
    <glyph glyph-name="T" unicode="T" horiz-adv-x="1249" 
d="M256 -6v76q62 9 102 40.5t50 84.5l213 1069h-140q-105 0 -173.5 -52.5t-133.5 -199.5h-80l90 366q49 -12 129 -12h949q36 0 71 3t53 6l17 3l-92 -366h-80q10 147 -18.5 199.5t-137.5 52.5h-164l-30 -25l-203 -1026q-6 -30 -14.5 -60.5t-13.5 -45.5l-5 -15l193 -18l-9 -68
z" />
    <glyph glyph-name="U" unicode="U" horiz-adv-x="1447" 
d="M160 399q0 80 12 136l125 626q15 75 -1 99t-101 45v61h151q109 0 187.5 2t102.5 4l23 2l9 -8q-3 -3 -8.5 -9.5t-21.5 -30t-29.5 -49.5t-29 -69.5t-24.5 -89.5l-123 -620q-14 -72 -14 -129q0 -135 73.5 -207t190.5 -72q70 0 140 25t136.5 74.5t117.5 136t73 198.5l123 619
q30 147 -115 155v68h383l6 -39q-5 -2 -14 -6.5t-32.5 -21.5t-43 -37.5t-39.5 -56.5t-28 -77l-127 -636q-32 -161 -123.5 -279.5t-217 -178t-270.5 -59.5q-237 0 -364 111.5t-127 312.5z" />
    <glyph glyph-name="V" unicode="V" horiz-adv-x="1200" 
d="M424 6l-209 1186q-6 40 -29.5 68t-43.5 36l-21 9v61h129q79 0 146 2t94 4l28 2l6 -8q-54 -98 -41 -188l119 -750q7 -58 10 -102l473 813q39 60 28 100t-87 66v61h336l8 -29q-8 -5 -22.5 -17t-59.5 -68t-90 -134l-663 -1136z" />
    <glyph glyph-name="W" unicode="W" horiz-adv-x="1816" 
d="M1116 6l-153 868l-439 -892l-112 24l-209 1186q-7 40 -30.5 68t-43.5 36l-20 9v61h129q79 0 145 2t93 4l26 2l6 -8q-54 -98 -41 -188l115 -725q4 -25 8 -95l342 697l-25 137q-7 40 -30.5 68t-43.5 36l-20 9v61h129q79 0 145 2t93 4l26 2l6 -8q-54 -98 -41 -188l115 -719
q7 -53 10 -97l379 777q35 63 25.5 101.5t-84.5 64.5v61h332l8 -29q-3 -2 -9 -5.5t-25 -19.5t-38.5 -38t-47 -63.5t-52.5 -92.5l-555 -1136z" />
    <glyph glyph-name="X" unicode="X" horiz-adv-x="1224" 
d="M-72 0v76q113 11 164 76l432 501l-250 561q-15 33 -44.5 55.5t-51.5 28.5l-22 7v61h114q82 0 150.5 2t96.5 4l28 2l6 -8q-3 -10 -6.5 -26t-4.5 -55.5t11 -65.5l162 -377l295 342q36 38 26 74t-76 47v61h363l10 -33q-8 -2 -22 -8t-55.5 -38t-79.5 -79l-414 -477l289 -647
l90 -16l-6 -68h-95l-366 -8v76q50 8 68.5 26.5t2.5 55.5l-170 393l-391 -453l172 -18l-6 -72h-420z" />
    <glyph glyph-name="Y" unicode="Y" horiz-adv-x="1124" 
d="M211 -6v76q131 20 151 125l87 430l-232 589q-14 35 -36 57.5t-37 28.5l-15 5v61h96q73 0 140 2t98 4l31 2l6 -8l-3 -9t-5.5 -23t-5 -34t0.5 -39.5t9 -41.5l129 -363q8 -24 34 -121l336 453q20 26 25 49t-13 42t-63 26v61h344l8 -29q-8 -3 -22.5 -9.5t-53.5 -39t-73 -78.5
l-432 -583l-82 -414q-6 -30 -14.5 -60.5t-13.5 -45.5l-5 -15l162 -18l-8 -68z" />
    <glyph glyph-name="Z" unicode="Z" horiz-adv-x="1196" 
d="M-39 -8l-10 74q51 36 135 145l739 960q25 31 78 93h-330q-112 0 -171 -49t-140 -203h-80l88 354h850q35 0 64.5 2t41.5 4l13 2l21 -63q-52 -45 -138 -156l-735 -960q-50 -63 -80 -93h373q30 0 52.5 2t45.5 10.5t38 15t37 28t34.5 35.5t39 51.5t43 61.5t52.5 79h80
l-139 -385h-883q-34 0 -63.5 -2t-42.5 -4z" />
    <glyph glyph-name="bracketleft" unicode="[" horiz-adv-x="634" 
d="M123 -317l88 1683h420l-4 -104h-242l-80 -1475h242l-4 -104h-420z" />
    <glyph glyph-name="backslash" unicode="\" horiz-adv-x="804" 
d="M666 -401l-588 1767h153l590 -1767h-155z" />
    <glyph glyph-name="bracketright" unicode="]" horiz-adv-x="663" 
d="M14 -213h242l80 1475h-242l4 104h420l-88 -1683h-420z" />
    <glyph glyph-name="asciicircum" unicode="^" horiz-adv-x="1126" 
d="M63 512l439 879h143l438 -879h-165l-347 696l-346 -696h-162z" />
    <glyph glyph-name="underscore" unicode="_" horiz-adv-x="1054" 
d="M-121 -76h1024v-121h-1024v121z" />
    <glyph glyph-name="grave" unicode="`" horiz-adv-x="1024" 
d="M680 1034l-236 361v55l226 -23l96 -350z" />
    <glyph glyph-name="a" unicode="a" horiz-adv-x="1044" 
d="M233 -25q-99 0 -159 79t-60 218q0 91 26.5 186t80 184t125.5 159t172.5 112.5t212.5 42.5q52 0 148 -12t136 -12q27 0 62 6l4 -6q-31 -61 -66 -221l-90 -406q-28 -129 -28 -153q0 -48 43 -48q24 0 56 17t58 41l7 -74q-119 -113 -267 -113q-44 0 -74.5 12t-45.5 33
t-21 42.5t-6 46.5q0 16 3.5 43.5t7.5 47.5l3 19h-4q-5 -10 -15.5 -26.5t-44 -58.5t-69 -74t-89 -58.5t-106.5 -26.5zM358 150q49 0 96.5 48.5t82.5 122.5t58.5 140.5t37.5 124.5l59 254q-39 28 -86 28q-69 0 -145 -82.5t-128 -215.5t-52 -265q0 -155 77 -155z" />
    <glyph glyph-name="b" unicode="b" horiz-adv-x="1009" 
d="M20 2q0 68 58 332l188 860q19 86 19 104q0 64 -80 64h-41v65q104 11 224 42.5t175 58.5l6 -6q-7 -135 -53 -342l-61 -279l-43 -178h4q6 9 17.5 25t48 56t74 71t91.5 56t105 25q92 0 150.5 -79t58.5 -215q0 -92 -23 -187t-72.5 -185t-118 -160t-169 -112.5t-216.5 -42.5
q-32 0 -135.5 15.5t-197.5 3.5zM283 88q43 -25 94 -25q83 0 157.5 82.5t117 212.5t42.5 267q0 157 -71 157q-45 0 -103 -54.5t-105.5 -137.5t-64.5 -162l-24 -113q-11 -44 -22 -101t-16 -92z" />
    <glyph glyph-name="c" unicode="c" horiz-adv-x="845" 
d="M20 344q0 82 26 168.5t76 165.5t117 141.5t156.5 99.5t186.5 37q42 0 85.5 -6.5t87.5 -21t71.5 -43.5t27.5 -68q0 -37 -27 -66.5t-67 -29.5q-31 0 -55 15.5t-40.5 37.5t-32.5 44.5t-38.5 38t-50.5 15.5q-68 0 -131 -70t-99.5 -175t-36.5 -209q0 -77 21.5 -139t74 -104
t130.5 -42q51 0 107.5 23.5t86.5 47.5l31 23l8 -71q-5 -7 -14.5 -19.5t-43 -43.5t-72 -55t-102 -43.5t-132.5 -19.5q-163 0 -257 105.5t-94 263.5z" />
    <glyph glyph-name="d" unicode="d" horiz-adv-x="1056" 
d="M229 -25q-97 0 -158 79t-61 218q0 89 28 185t83 184.5t128 159t172 113t206 42.5q38 0 100 -8l53 246q19 89 19 104q0 64 -80 64h-41v65q104 11 224 42.5t175 58.5l6 -6q-7 -128 -53 -342l-199 -899q-22 -108 -22 -131q0 -21 11.5 -33.5t27.5 -12.5q24 0 59 18t56 36
l8 -70q-5 -5 -14 -12.5t-37.5 -27t-58.5 -34.5t-74 -27t-87 -12q-74 0 -108.5 36.5t-34.5 88.5q0 21 3 49.5t6 46.5l3 19h-4q-6 -10 -16.5 -26t-45 -57.5t-71.5 -73t-92.5 -57.5t-110.5 -26zM358 150q79 0 162 127.5t125 308.5l45 205q8 38 -20.5 57.5t-65.5 19.5
q-69 0 -145.5 -82t-129.5 -214t-53 -261q0 -161 82 -161z" />
    <glyph glyph-name="e" unicode="e" horiz-adv-x="847" 
d="M18 326q0 110 43.5 222t117 202.5t181 148t224.5 57.5q44 0 83 -8.5t74 -27t55.5 -54.5t20.5 -86t-22.5 -95.5t-57.5 -79t-85 -63.5t-96 -50t-100 -37.5t-88 -26t-69 -16.5l-25 -27q3 -248 205 -248q40 0 80.5 10t69 24.5t52 29.5t35.5 25l11 10l6 -66q-3 -4 -8 -11
t-22.5 -27.5t-38 -38.5t-54 -40.5t-69.5 -39t-85.5 -27.5t-101.5 -11q-167 0 -251.5 99.5t-84.5 251.5zM281 485q47 11 84 23.5t78 36t68.5 53.5t45.5 77t18 105q0 88 -59 88q-75 0 -145 -115t-90 -268z" />
    <glyph glyph-name="f" unicode="f" horiz-adv-x="624" 
d="M66 803l6 86l139 45q16 96 38.5 172.5t62.5 153t93.5 127.5t134.5 82.5t183 31.5q98 0 162.5 -29.5t64.5 -89.5q0 -44 -29 -75t-73 -31q-34 0 -65 20t-51.5 43.5t-48 43.5t-54.5 20q-25 0 -46 -16t-37 -49.5t-28 -71.5t-23 -97.5t-18 -110.5t-16 -126h239l-28 -121h-203
l-25 -16q-12 -105 -23.5 -188t-27.5 -181.5t-33.5 -176t-41 -162.5t-51.5 -150.5t-62.5 -131t-77 -113t-92 -86.5t-109.5 -61.5t-129 -29.5l-18 59q58 20 108.5 73.5t87.5 128t67.5 168t52 193t38.5 204t29 200t22 182.5q6 55 9 80h-127z" />
    <glyph glyph-name="g" unicode="g" horiz-adv-x="999" 
d="M102 -127h78q-24 -70 -24 -135q0 -144 112 -144q136 0 211 187q26 68 39 153.5t19.5 164t17.5 116.5h-4q-5 -10 -15 -26t-43 -57.5t-68.5 -73t-89 -57.5t-106.5 -26q-98 0 -158.5 79.5t-60.5 217.5q0 91 27.5 186.5t82 184.5t127.5 159t172.5 112t209.5 42
q50 0 143.5 -12t130.5 -12q38 0 68 6l4 -6q-29 -72 -89.5 -338t-72.5 -371q-2 -13 -5 -45q-24 -212 -71 -333q-127 -329 -469 -330q-143 0 -222 51.5t-79 124.5q0 32 19 64t40.5 52t63.5 56q8 7 12 10zM358 150q49 0 97 51.5t83 127.5t58.5 141.5t34.5 115.5l57 254
q-41 28 -86 28q-68 0 -144 -81t-129 -214.5t-53 -267.5q0 -155 82 -155z" />
    <glyph glyph-name="h" unicode="h" horiz-adv-x="1083" 
d="M20 -12q0 90 52 323l196 883q19 86 19 104q0 64 -80 64h-41v65q104 11 224 42.5t175 58.5l6 -6q-7 -135 -53 -342l-57 -277q-11 -50 -26 -101t-25 -76l-9 -26h5q70 108 167 182t203 74q94 0 138 -51t44 -133q0 -73 -56 -325t-56 -293q0 -50 37 -50q20 0 49 13.5t48 26.5
l19 14l9 -70q-5 -5 -13.5 -12.5t-37 -27t-58.5 -34.5t-74.5 -27t-87.5 -12q-72 0 -112.5 35t-40.5 99q0 59 55 293t55 296q0 38 -16.5 58t-46.5 20q-44 0 -92 -37.5t-85.5 -92t-64.5 -113.5t-37 -105l-24 -111q-40 -186 -47 -313z" />
    <glyph glyph-name="i" unicode="i" horiz-adv-x="575" 
d="M395 1135q-60 0 -95.5 31.5t-35.5 82.5q0 74 43 124t115 50q61 0 96 -32.5t35 -87.5q0 -73 -45 -120.5t-113 -47.5zM63 109q0 55 66 331.5t66 319.5q0 29 -11.5 43t-42.5 14h-63v66q108 10 225.5 40t169.5 58l6 -6q0 -93 -76.5 -442t-76.5 -379q0 -50 36 -50
q20 0 49 13.5t49 26.5l19 14l8 -70q-5 -5 -13.5 -12.5t-37 -27t-58 -34.5t-74 -27t-87.5 -12q-73 0 -113.5 35t-40.5 99z" />
    <glyph glyph-name="j" unicode="j" horiz-adv-x="536" 
d="M401 1135q-60 0 -95.5 31.5t-35.5 82.5q0 74 43 124t115 50q61 0 96 -32.5t35 -87.5q0 -73 -45 -120.5t-113 -47.5zM31 -39l157 711q15 68 15 88q0 30 -11 43.5t-42 13.5h-68v66q108 10 227.5 40t171.5 58l6 -6q-8 -124 -53 -336l-119 -537q-65 -290 -213 -438.5
t-364 -148.5l-12 59q90 12 180.5 123t124.5 264z" />
    <glyph glyph-name="k" unicode="k" horiz-adv-x="1013" 
d="M20 -12q0 95 58 346l190 860q19 86 19 104q0 64 -80 64h-41v65q104 11 224 42.5t175 58.5l6 -6q-7 -135 -53 -342l-135 -613h41l174 68q71 28 106 66.5t35 78.5q0 60 -75 60h-29v65l280 45l7 -6q8 -18 8 -65q0 -96 -61 -169t-222 -135l-29 -12v-20q25 -43 59 -124.5
t58.5 -144t58 -111t64.5 -48.5q14 0 37.5 9.5t40.5 18.5l16 9l9 -70q-5 -4 -15 -11.5t-39 -26t-56.5 -32.5t-65 -25.5t-68.5 -11.5q-60 0 -105 34t-74.5 94t-50.5 121t-46 137t-48 120h-31l-34 -159q-42 -181 -49 -318z" />
    <glyph glyph-name="l" unicode="l" horiz-adv-x="548" 
d="M33 102q0 21 5.5 53t18.5 88t15 66l194 885q19 86 19 104q0 64 -80 64h-41v65q104 11 224 42.5t175 58.5l6 -6q-7 -135 -53 -342l-199 -899q-22 -96 -22 -129q0 -48 41 -48q21 0 57 18.5t56 35.5l8 -70q-5 -5 -13.5 -12.5t-37 -27t-59 -34.5t-77 -27t-92.5 -12
q-70 0 -107.5 37.5t-37.5 89.5z" />
    <glyph glyph-name="m" unicode="m" horiz-adv-x="1644" 
d="M55 -14q0 96 74 423.5t74 350.5q0 57 -47 57h-74v66q287 40 395 98l6 -6q0 -43 -11.5 -111.5t-23.5 -115.5l-12 -48h4q68 107 163.5 181.5t197.5 74.5q94 0 138 -51t44 -133q0 -14 -3 -32t-6 -29l-3 -11h4q68 107 164 181.5t198 74.5q94 0 138.5 -51t44.5 -133
q0 -73 -56.5 -325t-56.5 -293q0 -22 9.5 -36t27.5 -14q20 0 49 13.5t49 26.5l19 14l8 -70q-5 -5 -13.5 -12.5t-37 -27t-58.5 -34.5t-74.5 -27t-87.5 -12q-72 0 -112.5 35t-40.5 99q0 59 55 293t55 296q0 38 -16.5 58t-46.5 20q-53 0 -110.5 -55.5t-99 -135.5t-58.5 -157
l-23 -104q-41 -180 -49 -320l-260 -18q0 85 32 233t63.5 284.5t31.5 194.5q0 38 -17 58t-47 20q-51 0 -108.5 -55.5t-100 -135.5t-59.5 -157l-22 -104q-44 -206 -50 -320z" />
    <glyph glyph-name="n" unicode="n" horiz-adv-x="1118" 
d="M55 -14q0 96 74 423.5t74 350.5q0 57 -47 57h-74v66q287 40 395 98l6 -6q0 -43 -11.5 -111.5t-23.5 -115.5l-12 -48h4q69 108 167 182t204 74q94 0 138 -51t44 -133q0 -73 -56 -325t-56 -293q0 -50 37 -50q20 0 49 13.5t48 26.5l19 14l8 -70q-5 -5 -13.5 -12.5t-37 -27
t-58 -34.5t-74 -27t-87.5 -12q-73 0 -113.5 35t-40.5 99q0 59 55.5 293t55.5 296q0 38 -16.5 58t-46.5 20q-47 0 -95.5 -38.5t-85 -94.5t-62.5 -113.5t-36 -101.5l-22 -104q-43 -186 -50 -320z" />
    <glyph glyph-name="o" unicode="o" horiz-adv-x="1032" 
d="M23 344q0 80 22.5 164t70 164.5t114 143.5t163.5 101.5t209 38.5q187 0 281 -97.5t94 -258.5q0 -79 -22.5 -164t-70.5 -167.5t-115 -148t-164 -105.5t-208 -40q-182 0 -278 103t-96 266zM289 260q0 -201 117 -201q65 0 123.5 58.5t96.5 147.5t60.5 192t22.5 194
q0 221 -121 221q-70 0 -129 -59.5t-95 -152.5t-55.5 -197.5t-19.5 -202.5z" />
    <glyph glyph-name="p" unicode="p" horiz-adv-x="1044" 
d="M-4 -205l186 852q21 95 21 113q0 57 -47 57h-74v66q287 40 395 98l6 -6q0 -89 -37 -252h5q6 9 17 25t47 56t72.5 71t90.5 56t106 25q93 0 152 -78t59 -214q0 -93 -23 -188t-72.5 -185.5t-118 -160.5t-168 -112.5t-214.5 -42.5q-40 0 -110 9l-43 -199q-2 -10 -7 -31.5
t-6.5 -30t-3.5 -24.5t2 -23t10.5 -15.5t20 -11.5t33.5 -3q16 0 37 2.5t34 5.5l13 2l4 -72q-120 -12 -246 -38.5t-178 -49.5l-8 8q9 127 45 291zM322 135q-9 -36 24 -54t72 -18q81 0 154 83t115 213t42 266q0 157 -72 157q-70 0 -156 -113.5t-114 -240.5z" />
    <glyph glyph-name="q" unicode="q" horiz-adv-x="1021" 
d="M231 -25q-99 0 -160 79t-61 220q0 90 28 185t83 183.5t128.5 159t173.5 112.5t210 42q63 0 153.5 -12t131.5 -12q32 0 73 6l4 -6q-34 -74 -104 -393l-166 -748q-19 -86 -14 -109q9 -35 63 -36q16 0 37 2.5t34 5.5l13 2l4 -72q-120 -12 -246 -38.5t-178 -49.5l-8 8
q9 132 45 299l43 199l47 207h-4q-6 -10 -17 -25.5t-46 -56t-71.5 -71t-90 -56t-105.5 -25.5zM358 150q75 0 161 126t126 306l60 258q-44 28 -95 28q-70 0 -148 -82t-132 -213.5t-54 -259.5q0 -163 82 -163z" />
    <glyph glyph-name="r" unicode="r" horiz-adv-x="782" 
d="M55 -14q0 96 74 423.5t74 350.5q0 57 -47 57h-74v66q287 40 395 98l6 -6q0 -48 -11.5 -117t-23.5 -114l-12 -44h4q69 115 140 185.5t135 70.5q59 0 94 -36.5t35 -83.5t-32.5 -87t-94.5 -40q-24 0 -56.5 14t-58.5 14q-53 0 -121 -97.5t-88 -186.5l-28 -129
q-46 -198 -50 -320z" />
    <glyph glyph-name="s" unicode="s" horiz-adv-x="741" 
d="M-39 115q0 40 25.5 68t74.5 28q31 0 53.5 -11.5t34.5 -28t25.5 -36.5t26 -36.5t35.5 -28t55 -11.5q56 0 95.5 36t39.5 87q0 37 -24.5 70.5t-61 59.5t-79.5 59.5t-79.5 68t-61 87.5t-24.5 116q0 134 101 223.5t284 89.5q39 0 76.5 -5t78.5 -16.5t66 -37t25 -61.5
q0 -41 -28 -70t-70 -29q-28 0 -49.5 14t-35.5 33.5t-28 39.5t-35.5 34t-50.5 14q-48 0 -90.5 -34t-42.5 -84q0 -32 18.5 -61t47.5 -53t64.5 -48.5t71 -53.5t64.5 -62t47.5 -79.5t18.5 -101.5q0 -135 -100 -227.5t-277 -92.5q-43 0 -88 6t-93.5 20.5t-79 44t-30.5 69.5z" />
    <glyph glyph-name="t" unicode="t" horiz-adv-x="724" 
d="M76 172q0 39 8 78l88 420l33 133h-121l8 86q86 16 139 61q49 76 74 191l197 45q0 -53 -29 -254h289l-33 -121h-252l-28 -23l-101 -491q-8 -46 -8 -64q0 -94 92 -94q44 0 94 22.5t78 44.5l29 23l10 -71q-6 -7 -16 -19.5t-44.5 -44t-71.5 -55.5t-92.5 -44t-111.5 -20
q-115 0 -173 51.5t-58 145.5z" />
    <glyph glyph-name="u" unicode="u" horiz-adv-x="1107" 
d="M78 160q0 84 55 325t55 275q0 57 -47 57h-63v68q89 13 144.5 22.5t125.5 29t115 44.5l6 -6q0 -101 -31.5 -258t-63.5 -294t-32 -190q0 -38 17 -57.5t47 -19.5q52 0 111 60t100.5 139.5t56.5 148.5q55 258 63 331q4 35 6 74l263 37q1 -78 -36.5 -254.5t-75.5 -337.5
t-38 -200q0 -50 37 -50q20 0 49.5 13.5t48.5 26.5l19 14l8 -70q-5 -5 -13.5 -12.5t-37 -27t-58 -34.5t-74 -27t-87.5 -12q-69 0 -106.5 35t-37.5 99q0 23 4 51t8 44l5 17h-5q-67 -104 -162.5 -175t-193.5 -71q-94 0 -138 51.5t-44 133.5z" />
    <glyph glyph-name="v" unicode="v" horiz-adv-x="892" 
d="M252 -6q-77 232 -119 743q-3 45 -16.5 62.5t-59.5 17.5h-30v66q89 13 211.5 44.5t158.5 53.5l6 -6q-20 -129 -8.5 -338.5t47.5 -407.5q185 233 260 402q90 200 -40 200v62l290 63l6 -12q-49 -137 -125 -281t-157 -262.5t-131 -185.5t-94 -121q-21 -26 -43.5 -58
t-35.5 -50l-12 -19z" />
    <glyph glyph-name="w" unicode="w" horiz-adv-x="1388" 
d="M242 -6q-68 220 -109 743q-3 45 -16.5 62.5t-59.5 17.5h-30v66q89 13 211.5 44.5t158.5 53.5l6 -6q-17 -128 -8 -332.5t39 -402.5q84 122 153.5 254t65.5 186l-4 57q-3 45 -16.5 62.5t-59.5 17.5h-26v66q88 13 209.5 44.5t156.5 53.5l7 -6q-17 -127 -8.5 -334.5
t38.5 -404.5q170 220 244 388q92 207 -37 207v62l291 63l6 -12q-48 -137 -122.5 -280.5t-155 -263.5t-128 -185t-92.5 -121q-21 -26 -43.5 -58t-34.5 -50l-12 -19l-108 27q-54 176 -84 469q-115 -213 -228 -369l-90 -127z" />
    <glyph glyph-name="x" unicode="x" horiz-adv-x="974" 
d="M47 -25q-43 0 -69.5 24t-26.5 62q0 37 22.5 63t57.5 32q12 2 36.5 3.5t38 4.5t40.5 20t59 49q67 67 133 183q-66 198 -121 325q-13 29 -24 45t-25.5 22.5t-24 7.5t-32.5 1h-39v66q92 12 180 40.5t143 57.5l6 -6q16 -47 55 -162t60 -176q102 174 182 256q60 63 127 63
q45 0 72 -23.5t27 -62.5q0 -40 -23.5 -63.5t-58.5 -30.5q-7 -1 -33.5 -3.5t-42.5 -6.5t-44.5 -21t-55.5 -47q-63 -71 -117 -153q72 -198 117 -303q32 -75 52 -103t44 -28q47 0 117 55l8 -70q-5 -5 -14.5 -13t-39 -29t-59 -37t-72 -29t-81.5 -13q-67 0 -105.5 36.5
t-75.5 125.5q-14 31 -69 185q-115 -201 -197 -283q-64 -64 -127 -64z" />
    <glyph glyph-name="y" unicode="y" horiz-adv-x="905" 
d="M-231 -389q0 49 33 81t104 32q82 0 137.5 25t103.5 73l17 16q59 59 59 162q0 190 -20 433t-53 331q-18 53 -89 53h-38v66q280 51 360 98l8 -4q64 -432 66 -756q127 189 213 349.5t86 211.5q0 25 -21.5 40.5t-56.5 15.5v57l287 61l6 -12q-29 -74 -109 -219
q-34 -62 -71.5 -128t-129 -215.5t-177 -274.5t-199.5 -267t-213 -233q-51 -46 -95.5 -69t-95.5 -23t-81.5 30.5t-30.5 65.5z" />
    <glyph glyph-name="z" unicode="z" horiz-adv-x="878" 
d="M-18 0l-41 49q81 59 149 137l469 533h-182h-10q-123 0 -158 -12.5t-64 -75.5l-61 12l80 289h526q41 0 74.5 4t47.5 8l13 4l29 -53q-102 -98 -135 -137l-481 -547q147 -23 227 -23q96 0 163 39.5t109 139.5h64q-16 -73 -33.5 -128.5t-44 -107t-59 -84.5t-78 -52.5
t-101.5 -19.5q-59 0 -197 24t-184 24q-25 0 -55.5 -5.5t-48.5 -11.5z" />
    <glyph glyph-name="braceleft" unicode="{" horiz-adv-x="694" 
d="M182 143q0 351 -186 353v84q47 1 86.5 23t66.5 54.5t48.5 82.5t34 94.5t22.5 104t14 97.5t8.5 89t6.5 65q40 328 465 328l2 -84q-61 -5 -104 -15.5t-72.5 -34.5t-46 -44t-28.5 -67.5t-16.5 -79.5t-12.5 -103v-3t-0.5 -3t-0.5 -3q-4 -40 -7 -64t-10.5 -71.5t-17 -81
t-24 -79t-34.5 -79t-45.5 -67.5t-60 -58.5t-75.5 -39.5v-4q77 -30 130.5 -133.5t53.5 -286.5q0 -55 -7 -147t-7 -132q0 -111 48 -158t179 -59l-19 -84q-96 0 -168.5 15t-128 48.5t-84 91t-28.5 138.5q0 31 9 137.5t9 175.5z" />
    <glyph glyph-name="bar" unicode="|" horiz-adv-x="598" 
d="M203 -461v1995h174v-1995h-174z" />
    <glyph glyph-name="braceright" unicode="}" horiz-adv-x="684" 
d="M205 -27q5 43 9 75t14.5 88t23 98.5t34 94.5t47.5 89.5t64.5 70t83.5 48.5v4q-37 13 -68.5 40.5t-59 73.5t-43 119.5t-15.5 167.5q0 50 6 141.5t6 128.5q0 116 -47 164t-178 58l18 84q193 0 301.5 -72.5t108.5 -226.5q0 -27 -9 -129.5t-9 -169.5q0 -338 188 -340v-84
q-48 -1 -87.5 -24t-66.5 -58t-49 -86.5t-34.5 -99.5t-22.5 -108t-14 -101t-8.5 -90t-6.5 -64q-21 -179 -137.5 -253.5t-325.5 -74.5l-2 84q61 6 103.5 17.5t71 32t46.5 45.5t28.5 63.5t16.5 80t12 100.5q1 9 1 13z" />
    <glyph glyph-name="asciitilde" unicode="~" horiz-adv-x="1165" 
d="M104 344q0 175 75.5 260.5t205.5 85.5q65 0 116.5 -22t84.5 -53t62 -62.5t65.5 -53.5t79.5 -22q41 0 70.5 20.5t43.5 54t19.5 65.5t5.5 65h147q0 -175 -75 -260.5t-205 -85.5q-65 0 -116.5 22t-84.5 53.5t-62 62.5t-65.5 53t-79.5 22q-41 0 -70.5 -20.5t-43.5 -54
t-19.5 -65.5t-5.5 -65h-148z" />
    <glyph glyph-name="uni00A0" unicode="&#xa0;" horiz-adv-x="444" 
 />
    <glyph glyph-name="exclamdown" unicode="&#xa1;" horiz-adv-x="555" 
d="M317 512l-71 -930q-81 -16 -166 -37t-130 -34l-44 -13l-8 17q45 75 98 241l237 756h84zM483 844q0 -79 -47.5 -142t-134.5 -63q-58 0 -87.5 31.5t-29.5 79.5q0 77 49 141.5t138 64.5q56 0 84 -32t28 -80z" />
    <glyph glyph-name="cent" unicode="&#xa2;" horiz-adv-x="868" 
d="M55 465q0 69 20.5 140.5t62.5 139.5t100 122t140 89.5t175 40.5l41 185h90l-41 -185q40 -3 75 -10.5t68 -21t52.5 -36.5t19.5 -52q0 -32 -24 -58t-58 -26q-38 0 -64 16t-52 48t-39 42l-140 -620q18 -3 39 -3q53 0 107.5 20t82.5 40l29 20l21 -69q-4 -5 -12.5 -14t-38 -32
t-62.5 -41.5t-86 -36t-110 -22.5l-41 -186h-91l41 186q-139 12 -222 103.5t-83 220.5zM309 526q0 -154 90 -215l138 613q-59 -8 -112.5 -70.5t-84.5 -151.5t-31 -176z" />
    <glyph glyph-name="sterling" unicode="&#xa3;" horiz-adv-x="1034" 
d="M84 500v92h154l57 180q57 184 174.5 289.5t298.5 105.5q41 0 80 -6.5t74.5 -19.5t57 -37t21.5 -55q0 -45 -27.5 -73t-72.5 -28q-26 0 -47 12.5t-35 30.5t-28.5 36.5t-35.5 31t-48 12.5q-51 0 -81.5 -57.5t-88.5 -247.5l-54 -174h318l-33 -92h-313l-2 -8q-24 -80 -63 -154
t-66 -108l-27 -35q13 -7 36 -17.5t94.5 -27.5t143.5 -17q223 0 293 207h78q-13 -106 -59 -192.5t-131 -142.5t-195 -56q-75 0 -211 44t-182 44q-20 0 -40.5 -3.5t-34 -7t-41.5 -12.5t-44 -14l-29 70q5 2 12.5 6t29 20t40.5 35t40 52t34 71l78 246h-125z" />
    <glyph glyph-name="yen" unicode="&#xa5;" horiz-adv-x="1062" 
d="M141 557v88h248l-139 369q-10 26 -28 43t-31 21l-13 3v62h86q60 0 115.5 1.5t80.5 3.5l25 1l4 -6q-1 -2 -3 -6.5t-5.5 -17.5t-5.5 -26t-1.5 -30t5.5 -31l84 -235q27 -82 35 -121l264 317q18 23 23 39t-10 29.5t-54 19.5v62h283l10 -33q-4 -1 -12.5 -4t-36.5 -24t-57 -56
l-318 -381h256l-20 -88h-291l-31 -133h291l-21 -88h-290l-31 -139q-6 -27 -15 -55t-14 -42l-6 -14l152 -16l-6 -64l-484 -12v69q124 14 150 134l30 139h-272v88h293l31 133h-271z" />
    <glyph glyph-name="brokenbar" unicode="&#xa6;" horiz-adv-x="497" 
d="M180 682v733h189v-733h-189zM180 365h189v-734h-189v734z" />
    <glyph glyph-name="section" unicode="&#xa7;" horiz-adv-x="1073" 
d="M195 84l94 747q15 119 56 220.5t105 177.5t155 119t200 43q60 0 112.5 -13.5t84.5 -32.5t56 -38.5t34 -32.5l10 -14l-49 -60q-3 3 -9 8t-28 17t-47.5 21.5t-68.5 17.5t-91 8q-68 0 -125.5 -27.5t-98.5 -73t-72 -108.5t-49.5 -131.5t-27.5 -143.5l-63 -546
q-6 -47 -8.5 -66.5t-12.5 -74t-20 -85.5t-30 -78.5t-43.5 -77.5t-59 -59t-78.5 -43l-6 11q54 109 80 315zM-117 -295q3 -3 9 -8t28 -17t47.5 -21.5t68.5 -17.5t91 -8q68 0 125.5 27.5t98.5 73t72 108.5t49.5 131.5t27.5 143.5l63 547q5 37 6.5 50t8 55.5t12 64t17 62.5
t23.5 65.5t31 58t40.5 54.5t50.5 41.5t63 31.5l6 -10q-59 -118 -80 -316l-94 -747q-20 -161 -84 -285t-176 -199t-256 -75q-60 0 -112.5 13.5t-84.5 32.5t-56 38.5t-34 32.5l-10 14z" />
    <glyph glyph-name="dieresis" unicode="&#xa8;" horiz-adv-x="1024" 
d="M827 1141q-56 0 -90.5 30t-34.5 78q0 71 41.5 118.5t108.5 47.5q58 0 91.5 -31.5t33.5 -83.5q0 -68 -43.5 -113.5t-106.5 -45.5zM385 1141q-56 0 -90.5 30t-34.5 78q0 71 41.5 118.5t108.5 47.5q58 0 91.5 -31.5t33.5 -83.5q0 -68 -43.5 -113.5t-106.5 -45.5z" />
    <glyph glyph-name="copyright" unicode="&#xa9;" horiz-adv-x="1560" 
d="M98 682q0 191 95 354t258 258t354 95q143 0 274 -56t225.5 -151t150.5 -226t56 -274t-56 -274t-150.5 -226t-225.5 -151t-274 -56q-191 0 -354 95t-258 258t-95 354zM203 682q0 -167 79.5 -307.5t218 -222.5t304.5 -82t304.5 82t218 222.5t79.5 307.5t-79.5 307.5
t-218 222.5t-304.5 82t-304.5 -82t-218 -222.5t-79.5 -307.5zM389 674q0 63 17 124.5t54 118t89 99.5t128.5 68.5t166.5 25.5q46 0 96 -10.5t99 -26t63 -18.5l-35 -238h-74q-7 123 -55 167t-125 44q-93 0 -152 -88.5t-59 -216.5q0 -148 75.5 -236t192.5 -88q61 0 121.5 21.5
t90.5 43.5l30 21l23 -69q-49 -64 -138 -104t-166 -40q-184 0 -313 110.5t-129 291.5z" />
    <glyph glyph-name="ordfeminine" unicode="&#xaa;" horiz-adv-x="833" 
d="M299 702q-69 0 -113.5 56.5t-44.5 154.5q0 63 19 130t57.5 129t90 111t122 78.5t148.5 29.5q34 0 92 -8.5t88 -8.5t65 6l4 -6q-16 -42 -41 -155l-61 -277q-18 -88 -18 -104q0 -29 26 -29q14 0 34.5 12.5t34.5 24.5l13 12l10 -70q-38 -36 -90 -61t-106 -25
q-58 0 -88.5 29.5t-30.5 75.5l6 45h-4q-4 -6 -10.5 -16t-28.5 -36t-45 -46t-58.5 -36t-70.5 -16zM387 831q45 0 102.5 98t81.5 206l39 178q-22 8 -45 8q-49 0 -100.5 -56.5t-85 -148.5t-33.5 -186q0 -99 41 -99z" />
    <glyph glyph-name="guillemotleft" unicode="&#xab;" horiz-adv-x="1003" 
d="M444 516v8q38 28 114 100.5t337 331.5l68 -20l-271 -416q17 -32 199 -418l-68 -20q-153 185 -234.5 280t-101 114.5t-43.5 39.5zM422 82q-153 185 -234.5 280t-101 114.5t-43.5 39.5v8q38 28 114 100.5t337 331.5l67 -20l-270 -416q16 -32 198 -418z" />
    <glyph glyph-name="logicalnot" unicode="&#xac;" 
d="M47 664v143h928v-580h-152v437h-776z" />
    <glyph glyph-name="registered" unicode="&#xae;" horiz-adv-x="841" 
d="M516 733q-146 0 -250 104t-104 250t104 250.5t250 104.5t250 -104.5t104 -250.5t-104 -250t-250 -104zM516 799q111 0 195 86.5t84 201.5t-84 201t-195 86q-114 0 -196 -85.5t-82 -201.5t82.5 -202t195.5 -86zM352 913v37q15 2 25 10.5t10 20.5v221q0 19 -6.5 25.5
t-34.5 13.5v25h150q153 0 153 -86q0 -49 -67 -88q12 -27 28 -50l45 -65q4 -7 9 -11.5t8 -7t8 -4.5t7 -2.5t8 -1t7 -0.5l-2 -35l-114 -2q-10 27 -33 62l-55 82h-17v-76l-4 -25l51 -6l-2 -32zM481 1225v-127h33q12 2 24.5 18.5t12.5 46.5q0 26 -16.5 44t-47.5 18h-6z" />
    <glyph glyph-name="macron" unicode="&#xaf;" horiz-adv-x="1024" 
d="M117 1186l33 151h528l-33 -151h-528z" />
    <glyph glyph-name="degree" unicode="&#xb0;" horiz-adv-x="614" 
d="M416 899q-104 0 -177 72t-73 174t73 174t177 72t177 -72t73 -174t-73 -174t-177 -72zM416 1008q56 0 94.5 39.5t38.5 97.5t-38.5 96.5t-94.5 38.5t-94.5 -38.5t-38.5 -96.5t38.5 -97.5t94.5 -39.5z" />
    <glyph glyph-name="plusminus" unicode="&#xb1;" 
d="M76 635v145h354v363h154v-363h348v-145h-348v-389h-154v389h-354zM106 0v145h836v-145h-836z" />
    <glyph glyph-name="twosuperior" unicode="&#xb2;" horiz-adv-x="673" 
d="M88 770l-10 55q135 100 256 211q40 36 65.5 62t59 67.5t50.5 85.5t17 90q0 49 -23.5 80t-49 40t-52.5 9q-34 0 -70 -17t-55 -35l-20 -17l-37 57q5 6 14 16.5t39.5 37t63.5 47t82.5 37t99.5 16.5q92 0 158.5 -49.5t66.5 -132.5q0 -53 -27.5 -108.5t-89.5 -122.5
t-127 -125.5t-173 -149.5h186q27 0 46.5 5.5t31.5 11t26 24.5t20 29t23 42h64l-84 -266h-551z" />
    <glyph glyph-name="threesuperior" unicode="&#xb3;" horiz-adv-x="632" 
d="M279 756q-32 0 -63 4.5t-63.5 14t-52.5 29t-20 46.5q0 28 20.5 45.5t51.5 17.5q28 0 49 -15t32 -33t28 -33t38 -15q50 0 96.5 60.5t46.5 138.5q0 59 -28.5 98t-79.5 39l-60 -6l15 82q31 12 39 15t36.5 15.5t38.5 20t30.5 23t28.5 30t15.5 35t7.5 43.5q0 76 -71 76
q-30 0 -64 -12.5t-52 -24.5l-19 -12l-31 59q5 5 13.5 12.5t36.5 27.5t57.5 35t73.5 27.5t87 12.5q85 0 140 -39.5t55 -110.5q0 -42 -25.5 -81t-68 -68.5t-77.5 -48.5t-73 -35q98 -12 153.5 -64.5t55.5 -126.5q0 -77 -57.5 -142.5t-149 -102.5t-190.5 -37z" />
    <glyph glyph-name="acute" unicode="&#xb4;" horiz-adv-x="1024" 
d="M453 1030l-78 51l235 346l234 23v-55z" />
    <glyph glyph-name="mu" unicode="&#xb5;" horiz-adv-x="1150" 
d="M-57 -379q0 27 10 68t27 98.5t26 95.5l164 725q37 172 44 254q2 23 3 47l262 37q0 -97 -64.5 -375t-64.5 -338q0 -38 17 -57.5t47 -19.5q52 0 111 60t100.5 139.5t56.5 148.5q5 22 16 74.5t14 67t11 52t10 50t6.5 39.5t6 42.5t3.5 36.5t3 43l262 37q1 -78 -36.5 -254.5
t-75.5 -337.5t-38 -200q0 -50 37 -50q22 0 53.5 15.5t52.5 30.5l21 16l8 -70q-5 -5 -14 -13t-38 -29t-59.5 -37t-76 -29t-90.5 -13q-72 0 -109 35t-37 101q0 21 4 48.5t8 44.5l5 17h-4q-59 -99 -153.5 -172.5t-184.5 -73.5q-73 0 -133 48q-4 -34 -4 -81.5t2 -110t2 -93.5
q0 -115 -25 -169t-88 -54q-52 0 -75 30.5t-23 75.5z" />
    <glyph glyph-name="paragraph" unicode="&#xb6;" horiz-adv-x="1302" 
d="M242 -293q15 0 48 -8t56 -8q25 0 45.5 9t35.5 21.5t29 39t23 48.5t20 65t17.5 72t18.5 85l59 295h-27q-114 0 -206.5 37.5t-150 101t-88 144.5t-30.5 171q0 87 27.5 172t83.5 159.5t132.5 131.5t182 90t225.5 33h482q114 0 155 8l-43 -125h-143l-248 -1249h-133l248 1249
h-146l-213 -1075q-38 -197 -72 -295q-61 -175 -159 -268q-103 -96 -213 -96q-54 0 -82.5 26t-28.5 70q0 46 30 71t65 25z" />
    <glyph glyph-name="periodcentered" unicode="&#xb7;" horiz-adv-x="485" 
d="M199 365q-57 0 -85 32t-28 80q0 79 47.5 142t134.5 63q58 0 87.5 -31.5t29.5 -79.5q0 -78 -48.5 -142t-137.5 -64z" />
    <glyph glyph-name="cedilla" unicode="&#xb8;" horiz-adv-x="1024" 
d="M281 -180q0 29 30 74t60 76l30 30h76q-41 -65 -41 -98q0 -22 21.5 -39t48 -28.5t48 -40t21.5 -70.5q0 -84 -80.5 -146.5t-181.5 -62.5q-62 0 -114.5 20.5t-74.5 40.5l-22 21l56 75q6 -6 17.5 -15t48 -24.5t73.5 -15.5q39 0 74 17t35 47q0 20 -19.5 38t-43 30t-43 31
t-19.5 40z" />
    <glyph glyph-name="onesuperior" unicode="&#xb9;" horiz-adv-x="552" 
d="M94 766l2 63q62 2 97.5 15t45 27.5t13.5 37.5l100 477q9 52 3 64t-33 6l-111 -26v75q111 24 215.5 53t153.5 46l49 18l2 -4q-21 -57 -39 -143l-121 -566l-20 -67l147 -11l-6 -57z" />
    <glyph glyph-name="ordmasculine" unicode="&#xba;" horiz-adv-x="780" 
d="M414 702q-131 0 -201 73.5t-70 189.5q0 71 26.5 144t75.5 137t130.5 104.5t181.5 40.5q131 0 199.5 -69.5t68.5 -180.5q0 -71 -27 -146t-76 -141.5t-130 -109t-178 -42.5zM422 772q55 0 101.5 67.5t70.5 161.5t24 185q0 135 -77 135q-57 0 -103 -69t-68 -162t-22 -181
q0 -137 74 -137z" />
    <glyph glyph-name="guillemotright" unicode="&#xbb;" horiz-adv-x="1013" 
d="M436 102l271 416q-17 32 -199 418l67 20q157 -189 235 -280.5t99 -113t45 -40.5v-8q-37 -27 -111.5 -98t-338.5 -334zM35 102l270 416q-17 32 -199 418l68 20q157 -189 235 -280.5t99 -113t45 -40.5v-8q-38 -28 -114 -100.5t-337 -331.5z" />
    <glyph glyph-name="onequarter" unicode="&#xbc;" horiz-adv-x="1728" 
d="M1155 -4v57q80 10 92 74l19 90h-328l-4 88l467 512l215 29l2 -4q-17 -39 -37 -135l-84 -388h125l-29 -102h-116l-17 -78l-18 -73l94 -11l-4 -51zM1055 319h231l55 261l21 82zM86 545l2 63q62 2 97.5 15t45 27.5t13.5 37.5l100 477q9 52 3 64t-34 6l-110 -27v76
q111 24 215.5 53t153.5 47l49 17l2 -4q-21 -58 -39 -144l-121 -565q-4 -16 -9 -33t-8 -25l-4 -9l148 -11l-6 -57zM436 0h-139l1102 1397l112 -31z" />
    <glyph glyph-name="onehalf" unicode="&#xbd;" horiz-adv-x="1783" 
d="M82 545l2 63q62 2 97.5 15t45 27.5t13.5 37.5l100 477q9 52 3 64t-34 6l-110 -27v76q111 24 215.5 53t153.5 47l48 17l2 -4q-20 -58 -38 -144l-121 -565q-4 -16 -9 -33t-8 -25l-4 -9l148 -11l-6 -57zM1032 0l-10 55q135 100 256 211q40 36 65.5 62t59 67.5t50.5 85.5
t17 90q0 37 -13 64.5t-33.5 40.5t-39.5 18.5t-38 5.5q-34 0 -70.5 -17t-55.5 -35l-20 -17l-37 57q5 6 14 16.5t39.5 37t63.5 47t82.5 37t99.5 16.5q92 0 159 -50t67 -133q0 -42 -21 -89t-53 -90t-90.5 -101t-112.5 -105t-141 -120h186q33 0 54.5 5.5t39 23.5t26 32t28.5 51
h63l-84 -266h-551zM432 0h-139l1102 1397l112 -31z" />
    <glyph glyph-name="threequarters" unicode="&#xbe;" horiz-adv-x="1742" 
d="M1165 -4v57q80 10 92 74l19 90h-328l-4 88l467 512l215 29l2 -4q-17 -39 -37 -135l-84 -388h125l-28 -102h-117l-17 -78l-18 -73l94 -11l-4 -51zM268 524q-32 0 -63 4.5t-63 14t-52 29t-20 46.5q0 28 20 46t51 18q28 0 49 -15t32 -33t28.5 -33t38.5 -15q50 0 96.5 60
t46.5 138q0 59 -28.5 98.5t-79.5 39.5q-14 0 -29 -2t-23 -4l-8 -1l15 82q29 11 39 15t37 16t38.5 20t31 23.5t28 30t15.5 35t7 43.5q0 75 -72 75q-30 0 -64 -12.5t-53 -24.5l-18 -12l-30 60q5 5 13.5 12.5t36.5 27t57.5 34.5t73.5 27.5t87 12.5q85 0 139.5 -39t54.5 -110
q0 -42 -25.5 -81t-67.5 -69t-77 -49t-73 -35q98 -12 153.5 -64t55.5 -126q0 -77 -58 -143t-149.5 -103t-190.5 -37zM444 0h-139l1102 1397l113 -31zM1065 319h231l56 261l20 82z" />
    <glyph glyph-name="questiondown" unicode="&#xbf;" horiz-adv-x="743" 
d="M467 520q27 -42 27 -92q0 -53 -30.5 -109.5t-74 -103.5t-87.5 -91t-74.5 -88t-30.5 -79q0 -36 30 -73.5t73 -65.5t86 -50.5t73 -34.5l30 -12l-110 -237q-10 4 -27 11t-67 31t-95 49t-100.5 62.5t-95 74.5t-67 82.5t-27.5 88.5q0 50 37 106.5t92.5 106t120 103t120 97.5
t92.5 90.5t37 82.5q0 17 -6 41zM655 840q0 -76 -48 -138.5t-134 -62.5q-59 0 -88 31.5t-29 83.5q0 72 49 137t136 65q114 0 114 -116z" />
    <glyph glyph-name="Agrave" unicode="&#xc0;" horiz-adv-x="1202" 
d="M-123 0v70q89 9 135 92l690 1198l115 18l199 -1153q13 -70 25.5 -101t28 -40.5t50.5 -15.5l-6 -68h-102l-334 -8v76q42 2 67.5 23t18.5 63l-43 266h-412l-33 -21l-172 -307l152 -24l-6 -68h-373zM639 926q-3 14 -5 30.5t-4 37.5t-3 32l-279 -498h354zM512 1579v59
l109 146h10l366 -232l-39 -84z" />
    <glyph glyph-name="Aacute" unicode="&#xc1;" horiz-adv-x="1202" 
d="M-123 0v70q89 9 135 92l690 1198l115 18l199 -1153q13 -70 25.5 -101t28 -40.5t50.5 -15.5l-6 -68h-102l-334 -8v76q42 2 67.5 23t18.5 63l-43 266h-412l-33 -21l-172 -307l152 -24l-6 -68h-373zM639 926q-3 14 -5 30.5t-4 37.5t-3 32l-279 -498h354zM641 1468l-33 86
l408 230h10l68 -146v-59z" />
    <glyph glyph-name="Acircumflex" unicode="&#xc2;" horiz-adv-x="1202" 
d="M-123 0v70q89 9 135 92l690 1198l115 18l199 -1153q13 -70 25.5 -101t28 -40.5t50.5 -15.5l-6 -68h-102l-334 -8v76q42 2 67.5 23t18.5 63l-43 266h-412l-33 -21l-172 -307l152 -24l-6 -68h-373zM639 926q-3 14 -5 30.5t-4 37.5t-3 32l-279 -498h354zM512 1468l-63 66
l325 250h150l219 -260l-76 -56l-240 152h-20z" />
    <glyph glyph-name="Atilde" unicode="&#xc3;" horiz-adv-x="1202" 
d="M-123 0v70q89 9 135 92l690 1198l115 18l199 -1153q13 -70 25.5 -101t28 -40.5t50.5 -15.5l-6 -68h-102l-334 -8v76q42 2 67.5 23t18.5 63l-43 266h-412l-33 -21l-172 -307l152 -24l-6 -68h-373zM639 926q-3 14 -5 30.5t-4 37.5t-3 32l-279 -498h354zM430 1516
q3 10 8.5 26t27.5 57.5t49.5 73.5t77 58t107.5 26q42 0 83.5 -17t70 -38t66 -38t71.5 -17q24 0 46 11.5t35.5 27.5t24 32t15.5 28l4 11l92 -10q-2 -10 -7 -27t-27 -60t-50 -76t-80.5 -60t-115.5 -27q-45 0 -87 17.5t-68.5 38t-61 38t-66.5 17.5q-37 0 -68.5 -28t-44.5 -56
l-12 -27z" />
    <glyph glyph-name="Adieresis" unicode="&#xc4;" horiz-adv-x="1202" 
d="M-123 0v70q89 9 135 92l690 1198l115 18l199 -1153q13 -70 25.5 -101t28 -40.5t50.5 -15.5l-6 -68h-102l-334 -8v76q42 2 67.5 23t18.5 63l-43 266h-412l-33 -21l-172 -307l152 -24l-6 -68h-373zM639 926q-3 14 -5 30.5t-4 37.5t-3 32l-279 -498h354zM1053 1489
q-56 0 -90.5 30t-34.5 78q0 71 41 118.5t108 47.5q58 0 91.5 -31t33.5 -83q0 -69 -43 -114.5t-106 -45.5zM557 1489q-56 0 -90.5 30t-34.5 78q0 71 41.5 118.5t108.5 47.5q58 0 91.5 -31t33.5 -83q0 -69 -43.5 -114.5t-106.5 -45.5z" />
    <glyph glyph-name="Aring" unicode="&#xc5;" horiz-adv-x="1202" 
d="M-123 0v70q89 9 135 92l690 1198l115 18l199 -1153q13 -70 25.5 -101t28 -40.5t50.5 -15.5l-6 -68h-102l-334 -8v76q42 2 67.5 23t18.5 63l-43 266h-412l-33 -21l-172 -307l152 -24l-6 -68h-373zM797 1450q-95 0 -142 40t-47 105q0 73 60 131t172 58q95 0 141.5 -41
t46.5 -103q0 -77 -62 -133.5t-169 -56.5zM639 926q-3 14 -5 30.5t-4 37.5t-3 32l-279 -498h354zM801 1532q39 0 75.5 27.5t36.5 72.5q0 29 -19.5 49.5t-57.5 20.5q-56 0 -83.5 -33t-27.5 -72q0 -65 76 -65z" />
    <glyph glyph-name="AE" unicode="&#xc6;" horiz-adv-x="1744" 
d="M461 600l-361 -508l154 -22l-8 -70h-385v70q86 9 153 96l721 1001q32 43 32 68.5t-28.5 41t-95.5 28.5v61h991q36 0 74 2t58 4l20 2l-98 -362h-80q30 140 -9.5 196t-158.5 56h-207l-31 -25l-100 -514h325l41 152h86l-77 -388h-103l27 134h-295l-31 -25l-74 -377
q-5 -27 -13 -57t-14 -46l-5 -16h266q62 0 100 8.5t76 39t67.5 72t82.5 126.5h79l-124 -348h-605l-333 -6v76q131 20 151 125l84 428h-313zM852 1151l-303 -426h285l102 516q-43 -32 -84 -90z" />
    <glyph glyph-name="Ccedilla" unicode="&#xc7;" horiz-adv-x="1312" 
d="M457 -180q0 34 33 81t69 83q-115 18 -206.5 73.5t-149 135t-87.5 176t-30 200.5q0 156 66 305t179 263t276.5 184t346.5 70q86 0 239.5 -21.5t172.5 -23.5l-90 -334h-80q2 21 2 37q0 124 -61.5 182.5t-194.5 58.5q-108 0 -204.5 -37.5t-166.5 -101.5t-121 -147.5
t-76.5 -177.5t-25.5 -189q0 -119 36.5 -213t101 -152.5t148.5 -89t181 -30.5q83 0 169.5 23t131.5 46l45 23l27 -56q-8 -9 -22 -23t-64 -51t-105.5 -65t-144 -51t-182.5 -23q-5 0 -15.5 1t-15.5 1q-27 -52 -27 -75q0 -22 22 -39t48 -28.5t48 -40t22 -70.5q0 -84 -81 -146.5
t-182 -62.5q-39 0 -75 8.5t-59.5 20.5t-41.5 24t-26 20l-8 9l55 75q6 -6 17.5 -15t48 -24.5t73.5 -15.5q39 0 74 17t35 47q0 20 -19.5 38t-43 30t-43 31t-19.5 40z" />
    <glyph glyph-name="Egrave" unicode="&#xc8;" horiz-adv-x="1175" 
d="M8 -6v76q62 9 102 40.5t50 84.5l188 948q14 75 14 87q-2 34 -43 52q-28 11 -86 23v61h832q36 0 74 2t58 4l20 2l-99 -362h-80q30 140 -9.5 196t-158.5 56h-206l-31 -25l-96 -494h325l37 132h86l-78 -388h-102l31 154h-295l-31 -25l-78 -397q-5 -27 -13.5 -57t-14.5 -46
l-5 -16h267q50 0 84 7t62 20t56.5 45t54.5 69t68 105h80l-125 -348h-604zM504 1579v59l108 146h11l366 -232l-39 -84z" />
    <glyph glyph-name="Eacute" unicode="&#xc9;" horiz-adv-x="1175" 
d="M8 -6v76q62 9 102 40.5t50 84.5l188 948q14 75 14 87q-2 34 -43 52q-28 11 -86 23v61h832q36 0 74 2t58 4l20 2l-99 -362h-80q30 140 -9.5 196t-158.5 56h-206l-31 -25l-96 -494h325l37 132h86l-78 -388h-102l31 154h-295l-31 -25l-78 -397q-5 -27 -13.5 -57t-14.5 -46
l-5 -16h267q50 0 84 7t62 20t56.5 45t54.5 69t68 105h80l-125 -348h-604zM633 1468l-33 86l408 230h10l67 -146v-59z" />
    <glyph glyph-name="Ecircumflex" unicode="&#xca;" horiz-adv-x="1175" 
d="M8 -6v76q62 9 102 40.5t50 84.5l188 948q14 75 14 87q-2 34 -43 52q-28 11 -86 23v61h832q36 0 74 2t58 4l20 2l-99 -362h-80q30 140 -9.5 196t-158.5 56h-206l-31 -25l-96 -494h325l37 132h86l-78 -388h-102l31 154h-295l-31 -25l-78 -397q-5 -27 -13.5 -57t-14.5 -46
l-5 -16h267q50 0 84 7t62 20t56.5 45t54.5 69t68 105h80l-125 -348h-604zM504 1468l-64 66l326 250h149l220 -260l-76 -56l-240 152h-20z" />
    <glyph glyph-name="Edieresis" unicode="&#xcb;" horiz-adv-x="1175" 
d="M8 -6v76q62 9 102 40.5t50 84.5l188 948q14 75 14 87q-2 34 -43 52q-28 11 -86 23v61h832q36 0 74 2t58 4l20 2l-99 -362h-80q30 140 -9.5 196t-158.5 56h-206l-31 -25l-96 -494h325l37 132h86l-78 -388h-102l31 154h-295l-31 -25l-78 -397q-5 -27 -13.5 -57t-14.5 -46
l-5 -16h267q50 0 84 7t62 20t56.5 45t54.5 69t68 105h80l-125 -348h-604zM1044 1489q-56 0 -90 30t-34 78q0 71 41 118.5t108 47.5q58 0 91.5 -31t33.5 -83q0 -69 -43.5 -114.5t-106.5 -45.5zM549 1489q-56 0 -90.5 30t-34.5 78q0 71 41 118.5t108 47.5q58 0 91.5 -31
t33.5 -83q0 -69 -43 -114.5t-106 -45.5z" />
    <glyph glyph-name="Igrave" unicode="&#xcc;" horiz-adv-x="718" 
d="M8 -6v76q62 9 102 40.5t50 84.5l192 966q18 71 2.5 97t-104.5 47v61h151q109 0 187.5 2t102.5 4l24 2l8 -8q-3 -3 -8.5 -9.5t-21.5 -29t-29.5 -48.5t-29 -69.5t-24.5 -91.5l-180 -905q-6 -30 -14.5 -60.5t-13.5 -45.5l-5 -15l162 -18l-8 -68zM252 1579v59l108 146h11
l366 -232l-39 -84z" />
    <glyph glyph-name="Iacute" unicode="&#xcd;" horiz-adv-x="718" 
d="M8 -6v76q62 9 102 40.5t50 84.5l192 966q18 71 2.5 97t-104.5 47v61h151q109 0 187.5 2t102.5 4l24 2l8 -8q-3 -3 -8.5 -9.5t-21.5 -29t-29.5 -48.5t-29 -69.5t-24.5 -91.5l-180 -905q-6 -30 -14.5 -60.5t-13.5 -45.5l-5 -15l162 -18l-8 -68zM381 1468l-33 86l408 230h10
l68 -146v-59z" />
    <glyph glyph-name="Icircumflex" unicode="&#xce;" horiz-adv-x="718" 
d="M8 -6v76q62 9 102 40.5t50 84.5l192 966q18 71 2.5 97t-104.5 47v61h151q109 0 187.5 2t102.5 4l24 2l8 -8q-3 -3 -8.5 -9.5t-21.5 -29t-29.5 -48.5t-29 -69.5t-24.5 -91.5l-180 -905q-6 -30 -14.5 -60.5t-13.5 -45.5l-5 -15l162 -18l-8 -68zM252 1468l-64 66l326 250
h150l219 -260l-76 -56l-240 152h-20z" />
    <glyph glyph-name="Idieresis" unicode="&#xcf;" horiz-adv-x="718" 
d="M741 1489q-56 0 -90.5 30t-34.5 78q0 71 41.5 118.5t108.5 47.5q58 0 91.5 -31t33.5 -83q0 -69 -43.5 -114.5t-106.5 -45.5zM348 1489q-56 0 -90.5 30t-34.5 78q0 71 41.5 118.5t108.5 47.5q58 0 91.5 -31t33.5 -83q0 -69 -43.5 -114.5t-106.5 -45.5zM8 -6v76
q62 9 102 40.5t50 84.5l192 966q18 71 2.5 97t-104.5 47v61h151q109 0 187.5 2t102.5 4l24 2l8 -8q-3 -3 -8.5 -9.5t-21.5 -29t-29.5 -48.5t-29 -69.5t-24.5 -91.5l-180 -905q-6 -30 -14.5 -60.5t-13.5 -45.5l-5 -15l162 -18l-8 -68z" />
    <glyph glyph-name="Eth" unicode="&#xd0;" horiz-adv-x="1484" 
d="M86 639l20 113h166l78 391q2 10 6 29t5 25.5t2.5 21t0 19t-4.5 14.5t-10 13.5t-16 10.5t-23.5 11t-32 8.5t-41.5 9.5v61h507q114 0 213.5 -18t190.5 -60t156 -106.5t103 -163t38 -223.5q0 -171 -69.5 -318.5t-192.5 -252.5t-299.5 -164.5t-382.5 -59.5h-201l-289 -6v76
q57 8 99 39t51 77l90 453h-164zM401 102h109q131 0 240 37t183.5 101.5t126.5 151.5t75.5 185.5t23.5 206.5q0 230 -109 355t-313 125h-75l-27 -25l-96 -487h280l-20 -113h-283l-82 -418q-5 -27 -13.5 -57t-14.5 -46z" />
    <glyph glyph-name="Ntilde" unicode="&#xd1;" horiz-adv-x="1529" 
d="M8 -6v76q63 8 103.5 40.5t50.5 86.5l180 911q25 101 5.5 142t-114.5 55v61h64l276 8q11 -47 50 -106l512 -789q20 -33 53 -96l151 762q9 45 9.5 76t-28.5 50t-97 27v68h389l4 -29q-5 -2 -14 -5.5t-33.5 -19.5t-45 -37t-42 -60t-31.5 -87l-227 -1138h-84l-637 983
q-33 50 -56 94l-172 -870q-5 -27 -12.5 -55t-12.5 -42l-5 -14l172 -12l-6 -68zM594 1516q3 10 8.5 26t27.5 57.5t49.5 73.5t77 58t107.5 26q42 0 83.5 -17t70 -38t66 -38t71.5 -17q24 0 46 11.5t35.5 27.5t24 32t15.5 28l4 11l92 -10q-2 -10 -7 -27t-27 -60t-50 -76
t-80.5 -60t-115.5 -27q-45 0 -87 17.5t-68.5 38t-61 38t-66.5 17.5q-37 0 -68.5 -28t-44.5 -56l-12 -27z" />
    <glyph glyph-name="Ograve" unicode="&#xd2;" horiz-adv-x="1552" 
d="M92 580q0 117 34.5 233.5t103.5 220.5t164 183.5t226 126.5t279 47q284 0 448 -161.5t164 -426.5q0 -125 -37.5 -246.5t-110 -226t-169.5 -184.5t-224.5 -125.5t-267.5 -45.5q-185 0 -324.5 79t-212.5 216t-73 310zM377 571q0 -133 36.5 -243.5t115.5 -182t188 -71.5
q132 0 250 102t188 271t70 356q0 72 -11.5 140.5t-38 132.5t-65 111.5t-97 76t-130.5 28.5q-109 0 -206 -65.5t-161.5 -169.5t-101.5 -231.5t-37 -254.5zM686 1579v59l109 146h10l366 -232l-38 -84z" />
    <glyph glyph-name="Oacute" unicode="&#xd3;" horiz-adv-x="1552" 
d="M92 580q0 117 34.5 233.5t103.5 220.5t164 183.5t226 126.5t279 47q284 0 448 -161.5t164 -426.5q0 -125 -37.5 -246.5t-110 -226t-169.5 -184.5t-224.5 -125.5t-267.5 -45.5q-185 0 -324.5 79t-212.5 216t-73 310zM377 571q0 -133 36.5 -243.5t115.5 -182t188 -71.5
q132 0 250 102t188 271t70 356q0 72 -11.5 140.5t-38 132.5t-65 111.5t-97 76t-130.5 28.5q-109 0 -206 -65.5t-161.5 -169.5t-101.5 -231.5t-37 -254.5zM815 1468l-33 86l408 230h10l68 -146v-59z" />
    <glyph glyph-name="Ocircumflex" unicode="&#xd4;" horiz-adv-x="1552" 
d="M92 580q0 117 34.5 233.5t103.5 220.5t164 183.5t226 126.5t279 47q284 0 448 -161.5t164 -426.5q0 -125 -37.5 -246.5t-110 -226t-169.5 -184.5t-224.5 -125.5t-267.5 -45.5q-185 0 -324.5 79t-212.5 216t-73 310zM377 571q0 -133 36.5 -243.5t115.5 -182t188 -71.5
q132 0 250 102t188 271t70 356q0 72 -11.5 140.5t-38 132.5t-65 111.5t-97 76t-130.5 28.5q-109 0 -206 -65.5t-161.5 -169.5t-101.5 -231.5t-37 -254.5zM686 1468l-63 66l325 250h150l219 -260l-76 -56l-240 152h-20z" />
    <glyph glyph-name="Otilde" unicode="&#xd5;" horiz-adv-x="1552" 
d="M92 580q0 117 34.5 233.5t103.5 220.5t164 183.5t226 126.5t279 47q284 0 448 -161.5t164 -426.5q0 -125 -37.5 -246.5t-110 -226t-169.5 -184.5t-224.5 -125.5t-267.5 -45.5q-185 0 -324.5 79t-212.5 216t-73 310zM377 571q0 -133 36.5 -243.5t115.5 -182t188 -71.5
q132 0 250 102t188 271t70 356q0 72 -11.5 140.5t-38 132.5t-65 111.5t-97 76t-130.5 28.5q-109 0 -206 -65.5t-161.5 -169.5t-101.5 -231.5t-37 -254.5zM604 1516q3 10 8.5 26t27.5 57.5t49.5 73.5t77 58t107.5 26q42 0 83.5 -17t70 -38t66 -38t71.5 -17q24 0 46 11.5
t35.5 27.5t24 32t15.5 28l4 11l92 -10q-2 -10 -7 -27t-27 -60t-50 -76t-80.5 -60t-115.5 -27q-45 0 -87 17.5t-68.5 38t-61 38t-66.5 17.5q-37 0 -68.5 -28t-44.5 -56l-12 -27z" />
    <glyph glyph-name="Odieresis" unicode="&#xd6;" horiz-adv-x="1552" 
d="M92 580q0 117 34.5 233.5t103.5 220.5t164 183.5t226 126.5t279 47q284 0 448 -161.5t164 -426.5q0 -125 -37.5 -246.5t-110 -226t-169.5 -184.5t-224.5 -125.5t-267.5 -45.5q-185 0 -324.5 79t-212.5 216t-73 310zM377 571q0 -133 36.5 -243.5t115.5 -182t188 -71.5
q132 0 250 102t188 271t70 356q0 72 -11.5 140.5t-38 132.5t-65 111.5t-97 76t-130.5 28.5q-109 0 -206 -65.5t-161.5 -169.5t-101.5 -231.5t-37 -254.5zM1227 1489q-56 0 -90.5 30t-34.5 78q0 71 41 118.5t108 47.5q58 0 91.5 -31t33.5 -83q0 -69 -43 -114.5t-106 -45.5z
M731 1489q-56 0 -90.5 30t-34.5 78q0 71 41.5 118.5t108.5 47.5q58 0 91.5 -31t33.5 -83q0 -69 -43.5 -114.5t-106.5 -45.5z" />
    <glyph glyph-name="multiply" unicode="&#xd7;" 
d="M53 889l105 100l364 -364l367 368l100 -104l-364 -367l376 -372l-104 -103l-375 373l-372 -375l-103 105l373 372z" />
    <glyph glyph-name="Oslash" unicode="&#xd8;" horiz-adv-x="1552" 
d="M92 580q0 117 34.5 233.5t103.5 220.5t164 183.5t226 126.5t279 47q182 0 324 -74l84 110h127l-125 -165q98 -76 150 -194.5t52 -264.5q0 -125 -37.5 -246.5t-110 -226t-169.5 -184.5t-224.5 -125.5t-267.5 -45.5q-175 0 -317 74l-84 -110h-129l127 167
q-100 82 -153.5 204.5t-53.5 269.5zM377 571q0 -165 55 -290l684 897q-86 114 -233 114q-109 0 -206 -65.5t-161.5 -169.5t-101.5 -231.5t-37 -254.5zM1225 803q0 157 -54 280l-682 -899q89 -110 228 -110q132 0 250 102t188 271t70 356z" />
    <glyph glyph-name="Ugrave" unicode="&#xd9;" horiz-adv-x="1447" 
d="M160 399q0 80 12 136l125 626q15 75 -1 99t-101 45v61h151q109 0 187.5 2t102.5 4l23 2l9 -8q-3 -3 -8.5 -9.5t-21.5 -30t-29.5 -49.5t-29 -69.5t-24.5 -89.5l-123 -620q-14 -72 -14 -129q0 -135 73.5 -207t190.5 -72q70 0 140 25t136.5 74.5t117.5 136t73 198.5l123 619
q30 147 -115 155v68h383l6 -39q-5 -2 -14 -6.5t-32.5 -21.5t-43 -37.5t-39.5 -56.5t-28 -77l-127 -636q-32 -161 -123.5 -279.5t-217 -178t-270.5 -59.5q-237 0 -364 111.5t-127 312.5zM670 1579v59l108 146h10l367 -232l-39 -84z" />
    <glyph glyph-name="Uacute" unicode="&#xda;" horiz-adv-x="1447" 
d="M160 399q0 80 12 136l125 626q15 75 -1 99t-101 45v61h151q109 0 187.5 2t102.5 4l23 2l9 -8q-3 -3 -8.5 -9.5t-21.5 -30t-29.5 -49.5t-29 -69.5t-24.5 -89.5l-123 -620q-14 -72 -14 -129q0 -135 73.5 -207t190.5 -72q70 0 140 25t136.5 74.5t117.5 136t73 198.5l123 619
q30 147 -115 155v68h383l6 -39q-5 -2 -14 -6.5t-32.5 -21.5t-43 -37.5t-39.5 -56.5t-28 -77l-127 -636q-32 -161 -123.5 -279.5t-217 -178t-270.5 -59.5q-237 0 -364 111.5t-127 312.5zM799 1468l-33 86l408 230h10l67 -146v-59z" />
    <glyph glyph-name="Ucircumflex" unicode="&#xdb;" horiz-adv-x="1447" 
d="M160 399q0 80 12 136l125 626q15 75 -1 99t-101 45v61h151q109 0 187.5 2t102.5 4l23 2l9 -8q-3 -3 -8.5 -9.5t-21.5 -30t-29.5 -49.5t-29 -69.5t-24.5 -89.5l-123 -620q-14 -72 -14 -129q0 -135 73.5 -207t190.5 -72q70 0 140 25t136.5 74.5t117.5 136t73 198.5l123 619
q30 147 -115 155v68h383l6 -39q-5 -2 -14 -6.5t-32.5 -21.5t-43 -37.5t-39.5 -56.5t-28 -77l-127 -636q-32 -161 -123.5 -279.5t-217 -178t-270.5 -59.5q-237 0 -364 111.5t-127 312.5zM670 1468l-64 66l326 250h149l219 -260l-75 -56l-240 152h-20z" />
    <glyph glyph-name="Udieresis" unicode="&#xdc;" horiz-adv-x="1447" 
d="M160 399q0 80 12 136l125 626q15 75 -1 99t-101 45v61h151q109 0 187.5 2t102.5 4l23 2l9 -8q-3 -3 -8.5 -9.5t-21.5 -30t-29.5 -49.5t-29 -69.5t-24.5 -89.5l-123 -620q-14 -72 -14 -129q0 -135 73.5 -207t190.5 -72q70 0 140 25t136.5 74.5t117.5 136t73 198.5l123 619
q30 147 -115 155v68h383l6 -39q-5 -2 -14 -6.5t-32.5 -21.5t-43 -37.5t-39.5 -56.5t-28 -77l-127 -636q-32 -161 -123.5 -279.5t-217 -178t-270.5 -59.5q-237 0 -364 111.5t-127 312.5zM1210 1489q-56 0 -90.5 30t-34.5 78q0 71 41.5 118.5t108.5 47.5q58 0 91.5 -31
t33.5 -83q0 -69 -43.5 -114.5t-106.5 -45.5zM715 1489q-56 0 -90.5 30t-34.5 78q0 71 41 118.5t108 47.5q58 0 91.5 -31t33.5 -83q0 -69 -43 -114.5t-106 -45.5z" />
    <glyph glyph-name="Yacute" unicode="&#xdd;" horiz-adv-x="1124" 
d="M211 -6v76q131 20 151 125l87 430l-232 589q-14 35 -36 57.5t-37 28.5l-15 5v61h96q73 0 140 2t98 4l31 2l6 -8l-3 -9t-5.5 -23t-5 -34t0.5 -39.5t9 -41.5l129 -363q8 -24 34 -121l336 453q20 26 25 49t-13 42t-63 26v61h344l8 -29q-8 -3 -22.5 -9.5t-53.5 -39t-73 -78.5
l-432 -583l-82 -414q-6 -30 -14.5 -60.5t-13.5 -45.5l-5 -15l162 -18l-8 -68zM606 1468l-33 86l408 230h10l68 -146v-59z" />
    <glyph glyph-name="Thorn" unicode="&#xde;" horiz-adv-x="1161" 
d="M8 -6v76q62 9 102 40.5t50 84.5l192 966q18 71 2.5 97t-104.5 47v61h151q109 0 187.5 2t102.5 4l24 2l8 -8q-3 -3 -8.5 -9.5t-21.5 -29t-29.5 -48.5t-29 -69.5t-24.5 -91.5l-12 -61h98q93 0 174.5 -18.5t147 -55t103.5 -97t38 -138.5q0 -102 -53 -187t-138 -137.5
t-186.5 -80.5t-203.5 -26v74q146 22 221 112t75 216q0 117 -72 176t-190 59h-10l-29 -24l-143 -717q-6 -30 -14.5 -60.5t-13.5 -45.5l-5 -15l162 -18l-8 -68z" />
    <glyph glyph-name="germandbls" unicode="&#xdf;" horiz-adv-x="1124" 
d="M72 803l6 86l143 47q27 122 70 222t106.5 180t153.5 124.5t199 44.5q147 0 239 -67.5t92 -184.5q0 -55 -32 -107.5t-77.5 -96t-90.5 -88.5t-77 -101.5t-32 -116.5q0 -38 21 -74t52 -64.5t67.5 -64t67.5 -70.5t52 -86.5t21 -109.5q0 -72 -34.5 -131t-90.5 -95t-121 -55.5
t-131 -19.5q-47 0 -87 5.5t-76.5 18t-57.5 36.5t-21 57q0 37 24.5 62.5t61.5 25.5q33 0 58.5 -18.5t39.5 -41t36 -41t48 -18.5q47 0 81 30.5t34 82.5q0 50 -27.5 92.5t-66.5 76.5t-78 72t-66.5 97t-27.5 133q0 54 23.5 106.5t58.5 92t76.5 85t76.5 86.5t58.5 96.5
t23.5 113.5q0 82 -42 133t-111 51q-30 0 -56.5 -9t-46 -22.5t-37 -39t-29.5 -48t-23 -60t-17.5 -65.5t-13.5 -74t-11 -75t-10 -80t-10 -78q-17 -124 -31.5 -219t-34 -203t-38.5 -190t-43.5 -170t-52 -153t-61.5 -129.5t-73.5 -109.5t-86 -82t-102 -58.5t-118.5 -28.5l-15 49
q49 24 92.5 78t75 118.5t61 159t48 175t38.5 192.5t30.5 185.5t25 180t21.5 150.5h-125z" />
    <glyph glyph-name="agrave" unicode="&#xe0;" horiz-adv-x="1044" 
d="M233 -25q-99 0 -159 79t-60 218q0 91 26.5 186t80 184t125.5 159t172.5 112.5t212.5 42.5q52 0 148 -12t136 -12q27 0 62 6l4 -6q-31 -61 -66 -221l-90 -406q-28 -129 -28 -153q0 -48 43 -48q24 0 56 17t58 41l7 -74q-119 -113 -267 -113q-44 0 -74.5 12t-45.5 33
t-21 42.5t-6 46.5q0 16 3.5 43.5t7.5 47.5l3 19h-4q-5 -10 -15.5 -26.5t-44 -58.5t-69 -74t-89 -58.5t-106.5 -26.5zM358 150q49 0 96.5 48.5t82.5 122.5t58.5 140.5t37.5 124.5l59 254q-39 28 -86 28q-69 0 -145 -82.5t-128 -215.5t-52 -265q0 -155 77 -155zM621 1034
l-236 361v55l225 -23l97 -350z" />
    <glyph glyph-name="aacute" unicode="&#xe1;" horiz-adv-x="1044" 
d="M233 -25q-99 0 -159 79t-60 218q0 91 26.5 186t80 184t125.5 159t172.5 112.5t212.5 42.5q52 0 148 -12t136 -12q27 0 62 6l4 -6q-31 -61 -66 -221l-90 -406q-28 -129 -28 -153q0 -48 43 -48q24 0 56 17t58 41l7 -74q-119 -113 -267 -113q-44 0 -74.5 12t-45.5 33
t-21 42.5t-6 46.5q0 16 3.5 43.5t7.5 47.5l3 19h-4q-5 -10 -15.5 -26.5t-44 -58.5t-69 -74t-89 -58.5t-106.5 -26.5zM358 150q49 0 96.5 48.5t82.5 122.5t58.5 140.5t37.5 124.5l59 254q-39 28 -86 28q-69 0 -145 -82.5t-128 -215.5t-52 -265q0 -155 77 -155zM565 1030
l-78 51l236 346l233 23v-55z" />
    <glyph glyph-name="acircumflex" unicode="&#xe2;" horiz-adv-x="1044" 
d="M233 -25q-99 0 -159 79t-60 218q0 91 26.5 186t80 184t125.5 159t172.5 112.5t212.5 42.5q52 0 148 -12t136 -12q27 0 62 6l4 -6q-31 -61 -66 -221l-90 -406q-28 -129 -28 -153q0 -48 43 -48q24 0 56 17t58 41l7 -74q-119 -113 -267 -113q-44 0 -74.5 12t-45.5 33
t-21 42.5t-6 46.5q0 16 3.5 43.5t7.5 47.5l3 19h-4q-5 -10 -15.5 -26.5t-44 -58.5t-69 -74t-89 -58.5t-106.5 -26.5zM358 150q49 0 96.5 48.5t82.5 122.5t58.5 140.5t37.5 124.5l59 254q-39 28 -86 28q-69 0 -145 -82.5t-128 -215.5t-52 -265q0 -155 77 -155zM377 1030
l-78 51l322 363h108l148 -363l-78 -51l-164 227z" />
    <glyph glyph-name="atilde" unicode="&#xe3;" horiz-adv-x="1044" 
d="M233 -25q-99 0 -159 79t-60 218q0 91 26.5 186t80 184t125.5 159t172.5 112.5t212.5 42.5q52 0 148 -12t136 -12q27 0 62 6l4 -6q-31 -61 -66 -221l-90 -406q-28 -129 -28 -153q0 -48 43 -48q24 0 56 17t58 41l7 -74q-119 -113 -267 -113q-44 0 -74.5 12t-45.5 33
t-21 42.5t-6 46.5q0 16 3.5 43.5t7.5 47.5l3 19h-4q-5 -10 -15.5 -26.5t-44 -58.5t-69 -74t-89 -58.5t-106.5 -26.5zM358 150q49 0 96.5 48.5t82.5 122.5t58.5 140.5t37.5 124.5l59 254q-39 28 -86 28q-69 0 -145 -82.5t-128 -215.5t-52 -265q0 -155 77 -155zM305 1165
q1 6 3 15.5t9.5 37.5t17.5 53.5t27 56.5t36.5 53t48.5 37.5t61 15.5q40 0 79.5 -24t66.5 -52t62.5 -52t67.5 -24q28 0 53 32t37 64l11 31l92 -10q-1 -6 -2.5 -16t-9 -38.5t-17 -55t-26.5 -58.5t-37.5 -54.5t-50.5 -38.5t-64 -16q-44 0 -84.5 24t-66 52t-58.5 52t-65 24
q-26 0 -51.5 -32t-37.5 -64l-12 -31z" />
    <glyph glyph-name="adieresis" unicode="&#xe4;" horiz-adv-x="1044" 
d="M233 -25q-99 0 -159 79t-60 218q0 91 26.5 186t80 184t125.5 159t172.5 112.5t212.5 42.5q52 0 148 -12t136 -12q27 0 62 6l4 -6q-31 -61 -66 -221l-90 -406q-28 -129 -28 -153q0 -48 43 -48q24 0 56 17t58 41l7 -74q-119 -113 -267 -113q-44 0 -74.5 12t-45.5 33
t-21 42.5t-6 46.5q0 16 3.5 43.5t7.5 47.5l3 19h-4q-5 -10 -15.5 -26.5t-44 -58.5t-69 -74t-89 -58.5t-106.5 -26.5zM358 150q49 0 96.5 48.5t82.5 122.5t58.5 140.5t37.5 124.5l59 254q-39 28 -86 28q-69 0 -145 -82.5t-128 -215.5t-52 -265q0 -155 77 -155zM850 1141
q-56 0 -90.5 30t-34.5 78q0 71 41 118.5t108 47.5q58 0 91.5 -31.5t33.5 -83.5q0 -69 -43 -114t-106 -45zM408 1141q-56 0 -90.5 30t-34.5 78q0 71 41 118.5t108 47.5q58 0 91.5 -31.5t33.5 -83.5q0 -69 -43 -114t-106 -45z" />
    <glyph glyph-name="aring" unicode="&#xe5;" horiz-adv-x="1044" 
d="M233 -25q-99 0 -159 79t-60 218q0 91 26.5 186t80 184t125.5 159t172.5 112.5t212.5 42.5q52 0 148 -12t136 -12q27 0 62 6l4 -6q-31 -61 -66 -221l-90 -406q-28 -129 -28 -153q0 -48 43 -48q24 0 56 17t58 41l7 -74q-119 -113 -267 -113q-44 0 -74.5 12t-45.5 33
t-21 42.5t-6 46.5q0 16 3.5 43.5t7.5 47.5l3 19h-4q-5 -10 -15.5 -26.5t-44 -58.5t-69 -74t-89 -58.5t-106.5 -26.5zM358 150q49 0 96.5 48.5t82.5 122.5t58.5 140.5t37.5 124.5l59 254q-39 28 -86 28q-69 0 -145 -82.5t-128 -215.5t-52 -265q0 -155 77 -155zM616 1096
q-93 0 -138.5 47.5t-45.5 113.5q0 75 63 140t173 65q93 0 138.5 -46t45.5 -111q0 -45 -25 -91.5t-81 -82t-130 -35.5zM623 1184q48 0 82 35.5t34 80.5q0 33 -19 53.5t-58 20.5q-53 0 -83 -36t-30 -83q0 -32 18.5 -51.5t55.5 -19.5z" />
    <glyph glyph-name="ae" unicode="&#xe6;" horiz-adv-x="1349" 
d="M-39 164q0 78 49.5 140.5t135.5 103.5t182.5 67t210.5 41q45 198 45 272q0 84 -78 84q-37 0 -66.5 -20t-50 -49t-40 -58t-45.5 -49t-58 -20q-38 0 -65 27.5t-27 64.5q0 46 44.5 83.5t112 59.5t139 33.5t132.5 11.5q159 0 196 -106q135 106 301 106q62 0 114 -14.5
t91 -54.5t39 -101q0 -49 -26.5 -93t-66 -76t-96 -59.5t-106.5 -44.5t-108.5 -32t-90.5 -21t-63 -11q-2 -18 -2 -54q0 -258 209 -258q43 0 84.5 10t71 24.5t52.5 29.5t35 25l11 10l6 -66q-5 -8 -14.5 -21t-45 -46.5t-76 -59.5t-108 -47t-141.5 -21q-238 0 -311 256
q-14 -33 -32 -63.5t-48 -67t-65 -63t-85 -44.5t-106 -18q-99 0 -169.5 48t-70.5 141zM289 137q69 0 130.5 67t82.5 158l14 68q-140 -21 -225.5 -74t-85.5 -133q0 -40 23 -63t61 -23zM778 537q303 62 303 241q0 90 -65 90q-71 0 -139.5 -97t-98.5 -234z" />
    <glyph glyph-name="ccedilla" unicode="&#xe7;" horiz-adv-x="845" 
d="M184 -180q0 34 33.5 81t69.5 83q-126 26 -196.5 125t-70.5 235q0 82 26 168.5t76 165.5t117 141.5t156.5 99.5t186.5 37q42 0 85.5 -6.5t87.5 -21t71.5 -43.5t27.5 -68q0 -37 -27 -66.5t-67 -29.5q-31 0 -55 15.5t-40.5 37.5t-32.5 44.5t-38.5 38t-50.5 15.5
q-68 0 -131 -70t-99.5 -175t-36.5 -209q0 -77 21.5 -139t74 -104t130.5 -42q51 0 107.5 23.5t86.5 47.5l31 23l8 -71q-5 -7 -14.5 -19.5t-43 -43.5t-72 -55t-102 -43.5t-132.5 -19.5h-4q-27 -52 -27 -73q0 -22 21.5 -39t48 -28.5t48 -40t21.5 -70.5q0 -84 -80.5 -146.5
t-181.5 -62.5q-62 0 -114.5 20.5t-74.5 40.5l-22 21l55 75q6 -6 18 -15t48.5 -24.5t73.5 -15.5q39 0 73.5 17t34.5 47q0 20 -19.5 38t-43 30t-43 31t-19.5 40z" />
    <glyph glyph-name="egrave" unicode="&#xe8;" horiz-adv-x="847" 
d="M18 326q0 110 43.5 222t117 202.5t181 148t224.5 57.5q44 0 83 -8.5t74 -27t55.5 -54.5t20.5 -86t-22.5 -95.5t-57.5 -79t-85 -63.5t-96 -50t-100 -37.5t-88 -26t-69 -16.5l-25 -27q3 -248 205 -248q40 0 80.5 10t69 24.5t52 29.5t35.5 25l11 10l6 -66q-3 -4 -8 -11
t-22.5 -27.5t-38 -38.5t-54 -40.5t-69.5 -39t-85.5 -27.5t-101.5 -11q-167 0 -251.5 99.5t-84.5 251.5zM281 485q47 11 84 23.5t78 36t68.5 53.5t45.5 77t18 105q0 88 -59 88q-75 0 -145 -115t-90 -268zM563 1034l-235 361v55l225 -23l96 -350z" />
    <glyph glyph-name="eacute" unicode="&#xe9;" horiz-adv-x="847" 
d="M18 326q0 110 43.5 222t117 202.5t181 148t224.5 57.5q44 0 83 -8.5t74 -27t55.5 -54.5t20.5 -86t-22.5 -95.5t-57.5 -79t-85 -63.5t-96 -50t-100 -37.5t-88 -26t-69 -16.5l-25 -27q3 -248 205 -248q40 0 80.5 10t69 24.5t52 29.5t35.5 25l11 10l6 -66q-3 -4 -8 -11
t-22.5 -27.5t-38 -38.5t-54 -40.5t-69.5 -39t-85.5 -27.5t-101.5 -11q-167 0 -251.5 99.5t-84.5 251.5zM281 485q47 11 84 23.5t78 36t68.5 53.5t45.5 77t18 105q0 88 -59 88q-75 0 -145 -115t-90 -268zM508 1030l-78 51l236 346l233 23v-55z" />
    <glyph glyph-name="ecircumflex" unicode="&#xea;" horiz-adv-x="847" 
d="M18 326q0 110 43.5 222t117 202.5t181 148t224.5 57.5q44 0 83 -8.5t74 -27t55.5 -54.5t20.5 -86t-22.5 -95.5t-57.5 -79t-85 -63.5t-96 -50t-100 -37.5t-88 -26t-69 -16.5l-25 -27q3 -248 205 -248q40 0 80.5 10t69 24.5t52 29.5t35.5 25l11 10l6 -66q-3 -4 -8 -11
t-22.5 -27.5t-38 -38.5t-54 -40.5t-69.5 -39t-85.5 -27.5t-101.5 -11q-167 0 -251.5 99.5t-84.5 251.5zM281 485q47 11 84 23.5t78 36t68.5 53.5t45.5 77t18 105q0 88 -59 88q-75 0 -145 -115t-90 -268zM319 1030l-77 51l321 363h109l147 -363l-78 -51l-163 227z" />
    <glyph glyph-name="edieresis" unicode="&#xeb;" horiz-adv-x="847" 
d="M18 326q0 110 43.5 222t117 202.5t181 148t224.5 57.5q44 0 83 -8.5t74 -27t55.5 -54.5t20.5 -86t-22.5 -95.5t-57.5 -79t-85 -63.5t-96 -50t-100 -37.5t-88 -26t-69 -16.5l-25 -27q3 -248 205 -248q40 0 80.5 10t69 24.5t52 29.5t35.5 25l11 10l6 -66q-3 -4 -8 -11
t-22.5 -27.5t-38 -38.5t-54 -40.5t-69.5 -39t-85.5 -27.5t-101.5 -11q-167 0 -251.5 99.5t-84.5 251.5zM281 485q47 11 84 23.5t78 36t68.5 53.5t45.5 77t18 105q0 88 -59 88q-75 0 -145 -115t-90 -268zM793 1141q-56 0 -90.5 30t-34.5 78q0 71 41 118.5t108 47.5
q58 0 91.5 -31.5t33.5 -83.5q0 -69 -43 -114t-106 -45zM350 1141q-56 0 -90.5 30t-34.5 78q0 71 41.5 118.5t108.5 47.5q58 0 91.5 -31.5t33.5 -83.5q0 -68 -43.5 -113.5t-106.5 -45.5z" />
    <glyph glyph-name="igrave" unicode="&#xec;" horiz-adv-x="579" 
d="M63 109q0 55 66 331.5t66 319.5q0 29 -11.5 43t-42.5 14h-63v66q108 10 225.5 40t169.5 58l6 -6q0 -93 -76.5 -442t-76.5 -379q0 -50 36 -50q22 0 53.5 15.5t52.5 30.5l21 16l9 -70q-5 -5 -14 -13t-38.5 -29t-60.5 -37t-77 -29t-91 -13q-73 0 -113.5 35t-40.5 99z
M389 1034l-235 361v55l225 -23l96 -350z" />
    <glyph glyph-name="iacute" unicode="&#xed;" horiz-adv-x="579" 
d="M63 109q0 55 66 331.5t66 319.5q0 29 -11.5 43t-42.5 14h-63v66q108 10 225.5 40t169.5 58l6 -6q0 -93 -76.5 -442t-76.5 -379q0 -50 36 -50q22 0 53.5 15.5t52.5 30.5l21 16l9 -70q-5 -5 -14 -13t-38.5 -29t-60.5 -37t-77 -29t-91 -13q-73 0 -113.5 35t-40.5 99z
M334 1030l-78 51l236 346l233 23v-55z" />
    <glyph glyph-name="icircumflex" unicode="&#xee;" horiz-adv-x="579" 
d="M63 109q0 55 66 331.5t66 319.5q0 29 -11.5 43t-42.5 14h-63v66q108 10 225.5 40t169.5 58l6 -6q0 -93 -76.5 -442t-76.5 -379q0 -50 36 -50q22 0 53.5 15.5t52.5 30.5l21 16l9 -70q-5 -5 -14 -13t-38.5 -29t-60.5 -37t-77 -29t-91 -13q-73 0 -113.5 35t-40.5 99z
M145 1030l-77 51l321 363h109l147 -363l-78 -51l-164 227z" />
    <glyph glyph-name="idieresis" unicode="&#xef;" horiz-adv-x="579" 
d="M588 1141q-56 0 -90.5 30t-34.5 78q0 71 41 118.5t108 47.5q58 0 91.5 -31.5t33.5 -83.5q0 -69 -43 -114t-106 -45zM207 1141q-56 0 -90.5 30t-34.5 78q0 71 41 118.5t108 47.5q58 0 91.5 -31.5t33.5 -83.5q0 -69 -43 -114t-106 -45zM63 109q0 55 66 331.5t66 319.5
q0 29 -11.5 43t-42.5 14h-63v66q108 10 225.5 40t169.5 58l6 -6q0 -93 -76.5 -442t-76.5 -379q0 -50 36 -50q22 0 53.5 15.5t52.5 30.5l21 16l9 -70q-5 -5 -14 -13t-38.5 -29t-60.5 -37t-77 -29t-91 -13q-73 0 -113.5 35t-40.5 99z" />
    <glyph glyph-name="eth" unicode="&#xf0;" horiz-adv-x="1044" 
d="M358 1034l-45 96l273 144q-91 114 -240 174l39 74q219 -47 363 -164l307 162l41 -97l-267 -141q179 -207 179 -502q0 -159 -49.5 -306t-134 -257t-205 -176t-254.5 -66q-172 0 -262.5 95.5t-90.5 246.5q0 109 48.5 223.5t127.5 206t191 150.5t229 59q71 0 119 -20
q-22 139 -82 250zM399 59q36 0 77 24t83 75t78 121t62.5 171t35.5 216q0 64 -7.5 104t-33.5 68t-73 28q-85 0 -164 -79.5t-128.5 -214.5t-49.5 -285q0 -228 120 -228z" />
    <glyph glyph-name="ntilde" unicode="&#xf1;" horiz-adv-x="1118" 
d="M55 -14q0 96 74 423.5t74 350.5q0 57 -47 57h-74v66q287 40 395 98l6 -6q0 -43 -11.5 -111.5t-23.5 -115.5l-12 -48h4q69 108 167 182t204 74q94 0 138 -51t44 -133q0 -73 -56 -325t-56 -293q0 -50 37 -50q20 0 49 13.5t48 26.5l19 14l8 -70q-5 -5 -13.5 -12.5t-37 -27
t-58 -34.5t-74 -27t-87.5 -12q-73 0 -113.5 35t-40.5 99q0 59 55.5 293t55.5 296q0 38 -16.5 58t-46.5 20q-47 0 -95.5 -38.5t-85 -94.5t-62.5 -113.5t-36 -101.5l-22 -104q-43 -186 -50 -320zM371 1165q1 6 3 15.5t9.5 37.5t17 53.5t26.5 56.5t36.5 53t48.5 37.5t61 15.5
q40 0 79.5 -24t67 -52t63 -52t67.5 -24q28 0 53 32t36 64l11 31l92 -10q-1 -6 -2.5 -16t-9 -38.5t-16.5 -55t-26 -58.5t-37.5 -54.5t-50.5 -38.5t-64 -16q-44 0 -84.5 24t-66 52t-59 52t-65.5 24q-26 0 -51 -32t-37 -64l-12 -31z" />
    <glyph glyph-name="ograve" unicode="&#xf2;" horiz-adv-x="1032" 
d="M23 344q0 80 22.5 164t70 164.5t114 143.5t163.5 101.5t209 38.5q187 0 281 -97.5t94 -258.5q0 -79 -22.5 -164t-70.5 -167.5t-115 -148t-164 -105.5t-208 -40q-182 0 -278 103t-96 266zM289 260q0 -201 117 -201q65 0 123.5 58.5t96.5 147.5t60.5 192t22.5 194
q0 221 -121 221q-70 0 -129 -59.5t-95 -152.5t-55.5 -197.5t-19.5 -202.5zM653 1034l-235 361v55l225 -23l96 -350z" />
    <glyph glyph-name="oacute" unicode="&#xf3;" horiz-adv-x="1032" 
d="M23 344q0 80 22.5 164t70 164.5t114 143.5t163.5 101.5t209 38.5q187 0 281 -97.5t94 -258.5q0 -79 -22.5 -164t-70.5 -167.5t-115 -148t-164 -105.5t-208 -40q-182 0 -278 103t-96 266zM289 260q0 -201 117 -201q65 0 123.5 58.5t96.5 147.5t60.5 192t22.5 194
q0 221 -121 221q-70 0 -129 -59.5t-95 -152.5t-55.5 -197.5t-19.5 -202.5zM598 1030l-78 51l236 346l233 23v-55z" />
    <glyph glyph-name="ocircumflex" unicode="&#xf4;" horiz-adv-x="1032" 
d="M23 344q0 80 22.5 164t70 164.5t114 143.5t163.5 101.5t209 38.5q187 0 281 -97.5t94 -258.5q0 -79 -22.5 -164t-70.5 -167.5t-115 -148t-164 -105.5t-208 -40q-182 0 -278 103t-96 266zM289 260q0 -201 117 -201q65 0 123.5 58.5t96.5 147.5t60.5 192t22.5 194
q0 221 -121 221q-70 0 -129 -59.5t-95 -152.5t-55.5 -197.5t-19.5 -202.5zM410 1030l-78 51l321 363h109l147 -363l-78 -51l-163 227z" />
    <glyph glyph-name="otilde" unicode="&#xf5;" horiz-adv-x="1032" 
d="M23 344q0 80 22.5 164t70 164.5t114 143.5t163.5 101.5t209 38.5q187 0 281 -97.5t94 -258.5q0 -79 -22.5 -164t-70.5 -167.5t-115 -148t-164 -105.5t-208 -40q-182 0 -278 103t-96 266zM289 260q0 -201 117 -201q65 0 123.5 58.5t96.5 147.5t60.5 192t22.5 194
q0 221 -121 221q-70 0 -129 -59.5t-95 -152.5t-55.5 -197.5t-19.5 -202.5zM338 1165q1 6 3 15.5t9.5 37.5t17.5 53.5t27 56.5t36.5 53t48.5 37.5t61 15.5q40 0 79.5 -24t66.5 -52t62.5 -52t67.5 -24q28 0 53.5 32t36.5 64l11 31l92 -10q-1 -6 -2.5 -16t-9 -38.5t-17 -55
t-26.5 -58.5t-37.5 -54.5t-50.5 -38.5t-64 -16q-44 0 -84.5 24t-66 52t-59 52t-65.5 24q-26 0 -51 -32t-37 -64l-12 -31z" />
    <glyph glyph-name="odieresis" unicode="&#xf6;" horiz-adv-x="1032" 
d="M23 344q0 80 22.5 164t70 164.5t114 143.5t163.5 101.5t209 38.5q187 0 281 -97.5t94 -258.5q0 -79 -22.5 -164t-70.5 -167.5t-115 -148t-164 -105.5t-208 -40q-182 0 -278 103t-96 266zM289 260q0 -201 117 -201q65 0 123.5 58.5t96.5 147.5t60.5 192t22.5 194
q0 221 -121 221q-70 0 -129 -59.5t-95 -152.5t-55.5 -197.5t-19.5 -202.5zM883 1141q-56 0 -90.5 30t-34.5 78q0 71 41 118.5t108 47.5q58 0 91.5 -31.5t33.5 -83.5q0 -69 -43 -114t-106 -45zM440 1141q-56 0 -90.5 30t-34.5 78q0 71 41.5 118.5t108.5 47.5q58 0 91.5 -31.5
t33.5 -83.5q0 -68 -43.5 -113.5t-106.5 -45.5z" />
    <glyph glyph-name="divide" unicode="&#xf7;" 
d="M526 758q-58 0 -99.5 42t-41.5 101t41.5 101t99.5 42q60 0 102 -42t42 -101t-42 -101t-102 -42zM68 446v146h917v-146h-917zM385 135q0 60 41.5 103t99.5 43q60 0 102 -43t42 -103q0 -59 -42 -100t-102 -41q-58 0 -99.5 41t-41.5 100z" />
    <glyph glyph-name="oslash" unicode="&#xf8;" horiz-adv-x="1032" 
d="M23 344q0 80 22.5 164t70 164.5t114 143.5t163.5 101.5t209 38.5q100 0 182 -32l50 69h118l-90 -116q115 -97 115 -277q0 -79 -22.5 -164t-70.5 -167.5t-115 -148t-164 -105.5t-208 -40q-102 0 -180 35l-49 -71h-121l92 120q-116 98 -116 285zM289 270v-14l401 539
q-29 77 -102 77q-70 0 -129 -60t-95 -152.5t-55.5 -194.5t-19.5 -195zM406 59q65 0 123.5 58.5t96.5 147.5t60.5 192t22.5 194v19l-402 -539q25 -72 99 -72z" />
    <glyph glyph-name="ugrave" unicode="&#xf9;" horiz-adv-x="1107" 
d="M78 160q0 84 55 325t55 275q0 57 -47 57h-63v68q89 13 144.5 22.5t125.5 29t115 44.5l6 -6q0 -101 -31.5 -258t-63.5 -294t-32 -190q0 -38 17 -57.5t47 -19.5q52 0 111 60t100.5 139.5t56.5 148.5q55 258 63 331q4 35 6 74l263 37q1 -78 -36.5 -254.5t-75.5 -337.5
t-38 -200q0 -50 37 -50q20 0 49.5 13.5t48.5 26.5l19 14l8 -70q-5 -5 -13.5 -12.5t-37 -27t-58 -34.5t-74 -27t-87.5 -12q-69 0 -106.5 35t-37.5 99q0 23 4 51t8 44l5 17h-5q-67 -104 -162.5 -175t-193.5 -71q-94 0 -138 51.5t-44 133.5zM657 1034l-235 361v55l225 -23
l96 -350z" />
    <glyph glyph-name="uacute" unicode="&#xfa;" horiz-adv-x="1107" 
d="M78 160q0 84 55 325t55 275q0 57 -47 57h-63v68q89 13 144.5 22.5t125.5 29t115 44.5l6 -6q0 -101 -31.5 -258t-63.5 -294t-32 -190q0 -38 17 -57.5t47 -19.5q52 0 111 60t100.5 139.5t56.5 148.5q55 258 63 331q4 35 6 74l263 37q1 -78 -36.5 -254.5t-75.5 -337.5
t-38 -200q0 -50 37 -50q20 0 49.5 13.5t48.5 26.5l19 14l8 -70q-5 -5 -13.5 -12.5t-37 -27t-58 -34.5t-74 -27t-87.5 -12q-69 0 -106.5 35t-37.5 99q0 23 4 51t8 44l5 17h-5q-67 -104 -162.5 -175t-193.5 -71q-94 0 -138 51.5t-44 133.5zM602 1030l-78 51l236 346l233 23
v-55z" />
    <glyph glyph-name="ucircumflex" unicode="&#xfb;" horiz-adv-x="1107" 
d="M78 160q0 84 55 325t55 275q0 57 -47 57h-63v68q89 13 144.5 22.5t125.5 29t115 44.5l6 -6q0 -101 -31.5 -258t-63.5 -294t-32 -190q0 -38 17 -57.5t47 -19.5q52 0 111 60t100.5 139.5t56.5 148.5q55 258 63 331q4 35 6 74l263 37q1 -78 -36.5 -254.5t-75.5 -337.5
t-38 -200q0 -50 37 -50q20 0 49.5 13.5t48.5 26.5l19 14l8 -70q-5 -5 -13.5 -12.5t-37 -27t-58 -34.5t-74 -27t-87.5 -12q-69 0 -106.5 35t-37.5 99q0 23 4 51t8 44l5 17h-5q-67 -104 -162.5 -175t-193.5 -71q-94 0 -138 51.5t-44 133.5zM414 1030l-78 51l321 363h109
l147 -363l-77 -51l-164 227z" />
    <glyph glyph-name="udieresis" unicode="&#xfc;" horiz-adv-x="1107" 
d="M78 160q0 84 55 325t55 275q0 57 -47 57h-63v68q89 13 144.5 22.5t125.5 29t115 44.5l6 -6q0 -101 -31.5 -258t-63.5 -294t-32 -190q0 -38 17 -57.5t47 -19.5q52 0 111 60t100.5 139.5t56.5 148.5q55 258 63 331q4 35 6 74l263 37q1 -78 -36.5 -254.5t-75.5 -337.5
t-38 -200q0 -50 37 -50q20 0 49.5 13.5t48.5 26.5l19 14l8 -70q-5 -5 -13.5 -12.5t-37 -27t-58 -34.5t-74 -27t-87.5 -12q-69 0 -106.5 35t-37.5 99q0 23 4 51t8 44l5 17h-5q-67 -104 -162.5 -175t-193.5 -71q-94 0 -138 51.5t-44 133.5zM887 1141q-56 0 -90.5 30t-34.5 78
q0 71 41 118.5t108 47.5q58 0 91.5 -31.5t33.5 -83.5q0 -69 -43 -114t-106 -45zM444 1141q-56 0 -90.5 30t-34.5 78q0 71 41.5 118.5t108.5 47.5q58 0 91.5 -31.5t33.5 -83.5q0 -68 -43.5 -113.5t-106.5 -45.5z" />
    <glyph glyph-name="yacute" unicode="&#xfd;" horiz-adv-x="905" 
d="M-231 -389q0 49 33 81t104 32q82 0 137.5 25t103.5 73l17 16q59 59 59 162q0 190 -20 433t-53 331q-18 53 -89 53h-38v66q280 51 360 98l8 -4q64 -432 66 -756q127 189 213 349.5t86 211.5q0 25 -21.5 40.5t-56.5 15.5v57l287 61l6 -12q-29 -74 -109 -219
q-34 -62 -71.5 -128t-129 -215.5t-177 -274.5t-199.5 -267t-213 -233q-51 -46 -95.5 -69t-95.5 -23t-81.5 30.5t-30.5 65.5zM573 1030l-77 51l235 346l234 23v-55z" />
    <glyph glyph-name="thorn" unicode="&#xfe;" horiz-adv-x="1009" 
d="M-39 -205l289 1317q37 166 37 184q0 32 -18 49t-62 17h-41v65q104 11 224 42.5t175 58.5l6 -6q-7 -133 -53 -342l-45 -203l-61 -254h4q6 9 17.5 25t47 56t72.5 71t91 56t106 25q93 0 152 -78t59 -214q0 -93 -23 -188t-72.5 -185.5t-118 -160.5t-168 -112.5t-214.5 -42.5
q-41 0 -111 9l-43 -199q-2 -10 -7 -31.5t-6.5 -30t-3.5 -24.5t2 -23t10.5 -15.5t20 -11.5t33.5 -3q16 0 37 2.5t34 5.5l13 2l4 -72q-120 -12 -246 -38.5t-178 -49.5l-8 8q9 127 45 291zM287 135q-9 -36 24 -54t72 -18q81 0 154 83t115 213t42 266q0 157 -71 157
q-70 0 -156.5 -113.5t-114.5 -240.5z" />
    <glyph glyph-name="ydieresis" unicode="&#xff;" horiz-adv-x="905" 
d="M-231 -389q0 49 33 81t104 32q82 0 137.5 25t103.5 73l17 16q59 59 59 162q0 190 -20 433t-53 331q-18 53 -89 53h-38v66q280 51 360 98l8 -4q64 -432 66 -756q127 189 213 349.5t86 211.5q0 25 -21.5 40.5t-56.5 15.5v57l287 61l6 -12q-29 -74 -109 -219
q-34 -62 -71.5 -128t-129 -215.5t-177 -274.5t-199.5 -267t-213 -233q-51 -46 -95.5 -69t-95.5 -23t-81.5 30.5t-30.5 65.5zM858 1141q-56 0 -90.5 30t-34.5 78q0 71 41.5 118.5t108.5 47.5q58 0 91.5 -31.5t33.5 -83.5q0 -68 -43.5 -113.5t-106.5 -45.5zM416 1141
q-56 0 -90.5 30t-34.5 78q0 71 41 118.5t108 47.5q58 0 91.5 -31.5t33.5 -83.5q0 -69 -43 -114t-106 -45z" />
    <glyph glyph-name="Amacron" unicode="&#x100;" horiz-adv-x="1202" 
d="M-123 0v70q89 9 135 92l690 1198l115 18l199 -1153q13 -70 25.5 -101t28 -40.5t50.5 -15.5l-6 -68h-102l-334 -8v76q42 2 67.5 23t18.5 63l-43 266h-412l-33 -21l-172 -307l152 -24l-6 -68h-373zM639 926q-3 14 -5 30.5t-4 37.5t-3 32l-279 -498h354zM520 1550l33 152
h561l-33 -152h-561z" />
    <glyph glyph-name="amacron" unicode="&#x101;" horiz-adv-x="1044" 
d="M233 -25q-99 0 -159 79t-60 218q0 91 26.5 186t80 184t125.5 159t172.5 112.5t212.5 42.5q52 0 148 -12t136 -12q27 0 62 6l4 -6q-31 -61 -66 -221l-90 -406q-28 -129 -28 -153q0 -48 43 -48q24 0 56 17t58 41l7 -74q-119 -113 -267 -113q-44 0 -74.5 12t-45.5 33
t-21 42.5t-6 46.5q0 16 3.5 43.5t7.5 47.5l3 19h-4q-5 -10 -15.5 -26.5t-44 -58.5t-69 -74t-89 -58.5t-106.5 -26.5zM358 150q49 0 96.5 48.5t82.5 122.5t58.5 140.5t37.5 124.5l59 254q-39 28 -86 28q-69 0 -145 -82.5t-128 -215.5t-52 -265q0 -155 77 -155zM356 1186
l33 151h529l-33 -151h-529z" />
    <glyph glyph-name="Abreve" unicode="&#x102;" horiz-adv-x="1202" 
d="M-123 0v70q89 9 135 92l690 1198l115 18l199 -1153q13 -70 25.5 -101t28 -40.5t50.5 -15.5l-6 -68h-102l-334 -8v76q42 2 67.5 23t18.5 63l-43 266h-412l-33 -21l-172 -307l152 -24l-6 -68h-373zM797 1468q-113 0 -190 60t-77 141q0 33 6 63t12 44l5 14h94q-6 -27 -6 -45
q0 -117 178 -117q207 0 230 162h94q0 -138 -96 -230t-250 -92zM639 926q-3 14 -5 30.5t-4 37.5t-3 32l-279 -498h354z" />
    <glyph glyph-name="abreve" unicode="&#x103;" horiz-adv-x="1044" 
d="M233 -25q-99 0 -159 79t-60 218q0 91 26.5 186t80 184t125.5 159t172.5 112.5t212.5 42.5q52 0 148 -12t136 -12q27 0 62 6l4 -6q-31 -61 -66 -221l-90 -406q-28 -129 -28 -153q0 -48 43 -48q24 0 56 17t58 41l7 -74q-119 -113 -267 -113q-44 0 -74.5 12t-45.5 33
t-21 42.5t-6 46.5q0 16 3.5 43.5t7.5 47.5l3 19h-4q-5 -10 -15.5 -26.5t-44 -58.5t-69 -74t-89 -58.5t-106.5 -26.5zM358 150q49 0 96.5 48.5t82.5 122.5t58.5 140.5t37.5 124.5l59 254q-39 28 -86 28q-69 0 -145 -82.5t-128 -215.5t-52 -265q0 -155 77 -155zM616 1112
q-111 0 -177 56.5t-66 148.5q0 59 30 127h93q-9 -24 -9 -53q0 -49 33 -85t119 -36q58 0 102 18t65 43.5t34 51t16 43.5l2 18h92q0 -152 -91 -242t-243 -90z" />
    <glyph glyph-name="Aogonek" unicode="&#x104;" horiz-adv-x="1202" 
d="M-123 0v70q89 9 135 92l690 1198l115 18l199 -1153q13 -70 25.5 -101t28 -40.5t50.5 -15.5l-6 -68h-61q-40 0 -101.5 -45t-110 -114t-48.5 -128q0 -45 29 -71.5t71 -26.5l47 4v-70q-90 -34 -178 -34q-82 0 -133 41t-51 106q0 43 23.5 87t69 87.5t85.5 76t98 75.5
q3 2 5 3.5t4.5 3t4.5 3.5l-190 -6v76q42 2 67.5 23t18.5 63l-43 266h-412l-33 -21l-172 -307l152 -24l-6 -68h-373zM639 926q-3 14 -5 30.5t-4 37.5t-3 32l-279 -498h354z" />
    <glyph glyph-name="aogonek" unicode="&#x105;" horiz-adv-x="1046" 
d="M233 -25q-99 0 -159 79t-60 218q0 91 26.5 186t80 184t125.5 159t172.5 112.5t212.5 42.5q52 0 148 -12t136 -12q27 0 62 6l4 -6q-31 -61 -66 -221l-90 -406q-28 -129 -28 -153q0 -48 43 -48q24 0 56 17t58 41l7 -74q-35 -33 -87 -65q-82 -57 -157.5 -146.5t-75.5 -163.5
q0 -45 29 -71.5t71 -26.5l47 4v-70q-90 -34 -178 -34q-82 0 -133 41t-51 106q0 41 21.5 83t65 84.5t80.5 73t95 72.5q-141 2 -141 134q0 16 3.5 43.5t7.5 47.5l3 19h-4q-5 -10 -15.5 -26.5t-44 -58.5t-69 -74t-89 -58.5t-106.5 -26.5zM358 150q49 0 96.5 48.5t82.5 122.5
t58.5 140.5t37.5 124.5l59 254q-39 28 -86 28q-69 0 -145 -82.5t-128 -215.5t-52 -265q0 -155 77 -155z" />
    <glyph glyph-name="Cacute" unicode="&#x106;" horiz-adv-x="1312" 
d="M86 569q0 156 66 305t179 263t276.5 184t346.5 70q86 0 239.5 -21.5t172.5 -23.5l-90 -334h-80q2 21 2 37q0 124 -61.5 182.5t-194.5 58.5q-108 0 -204.5 -37.5t-166.5 -101.5t-121 -147.5t-76.5 -177.5t-25.5 -189q0 -119 36.5 -213t101 -152.5t148.5 -89t181 -30.5
q83 0 169.5 23t131.5 46l45 23l27 -56q-8 -9 -22 -23t-64 -51t-105.5 -65t-144 -51t-182.5 -23q-141 0 -254.5 50t-184 134t-108 189t-37.5 221zM772 1468l-33 86l408 230h10l68 -146v-59z" />
    <glyph glyph-name="cacute" unicode="&#x107;" horiz-adv-x="845" 
d="M20 344q0 82 26 168.5t76 165.5t117 141.5t156.5 99.5t186.5 37q42 0 85.5 -6.5t87.5 -21t71.5 -43.5t27.5 -68q0 -37 -27 -66.5t-67 -29.5q-31 0 -55 15.5t-40.5 37.5t-32.5 44.5t-38.5 38t-50.5 15.5q-68 0 -131 -70t-99.5 -175t-36.5 -209q0 -77 21.5 -139t74 -104
t130.5 -42q51 0 107.5 23.5t86.5 47.5l31 23l8 -71q-5 -7 -14.5 -19.5t-43 -43.5t-72 -55t-102 -43.5t-132.5 -19.5q-163 0 -257 105.5t-94 263.5zM545 1030l-78 51l235 346l234 23v-55z" />
    <glyph glyph-name="Ccircumflex" unicode="&#x108;" horiz-adv-x="1312" 
d="M86 569q0 156 66 305t179 263t276.5 184t346.5 70q86 0 239.5 -21.5t172.5 -23.5l-90 -334h-80q2 21 2 37q0 124 -61.5 182.5t-194.5 58.5q-108 0 -204.5 -37.5t-166.5 -101.5t-121 -147.5t-76.5 -177.5t-25.5 -189q0 -119 36.5 -213t101 -152.5t148.5 -89t181 -30.5
q83 0 169.5 23t131.5 46l45 23l27 -56q-8 -9 -22 -23t-64 -51t-105.5 -65t-144 -51t-182.5 -23q-141 0 -254.5 50t-184 134t-108 189t-37.5 221zM643 1468l-63 66l325 250h150l219 -260l-76 -56l-240 152h-20z" />
    <glyph glyph-name="ccircumflex" unicode="&#x109;" horiz-adv-x="845" 
d="M20 344q0 82 26 168.5t76 165.5t117 141.5t156.5 99.5t186.5 37q42 0 85.5 -6.5t87.5 -21t71.5 -43.5t27.5 -68q0 -37 -27 -66.5t-67 -29.5q-31 0 -55 15.5t-40.5 37.5t-32.5 44.5t-38.5 38t-50.5 15.5q-68 0 -131 -70t-99.5 -175t-36.5 -209q0 -77 21.5 -139t74 -104
t130.5 -42q51 0 107.5 23.5t86.5 47.5l31 23l8 -71q-5 -7 -14.5 -19.5t-43 -43.5t-72 -55t-102 -43.5t-132.5 -19.5q-163 0 -257 105.5t-94 263.5zM356 1030l-77 51l321 363h109l147 -363l-78 -51l-164 227z" />
    <glyph glyph-name="Cdotaccent" unicode="&#x10a;" horiz-adv-x="1312" 
d="M86 569q0 156 66 305t179 263t276.5 184t346.5 70q86 0 239.5 -21.5t172.5 -23.5l-90 -334h-80q2 21 2 37q0 124 -61.5 182.5t-194.5 58.5q-108 0 -204.5 -37.5t-166.5 -101.5t-121 -147.5t-76.5 -177.5t-25.5 -189q0 -119 36.5 -213t101 -152.5t148.5 -89t181 -30.5
q83 0 169.5 23t131.5 46l45 23l27 -56q-8 -9 -22 -23t-64 -51t-105.5 -65t-144 -51t-182.5 -23q-141 0 -254.5 50t-184 134t-108 189t-37.5 221zM936 1483q-60 0 -95.5 31.5t-35.5 82.5q0 74 43 124.5t115 50.5q61 0 96 -33t35 -88q0 -73 -45 -120.5t-113 -47.5z" />
    <glyph glyph-name="cdotaccent" unicode="&#x10b;" horiz-adv-x="845" 
d="M20 344q0 82 26 168.5t76 165.5t117 141.5t156.5 99.5t186.5 37q42 0 85.5 -6.5t87.5 -21t71.5 -43.5t27.5 -68q0 -37 -27 -66.5t-67 -29.5q-31 0 -55 15.5t-40.5 37.5t-32.5 44.5t-38.5 38t-50.5 15.5q-68 0 -131 -70t-99.5 -175t-36.5 -209q0 -77 21.5 -139t74 -104
t130.5 -42q51 0 107.5 23.5t86.5 47.5l31 23l8 -71q-5 -7 -14.5 -19.5t-43 -43.5t-72 -55t-102 -43.5t-132.5 -19.5q-163 0 -257 105.5t-94 263.5zM608 1135q-60 0 -95.5 31.5t-35.5 82.5q0 74 43 124t115 50q61 0 96 -32.5t35 -87.5q0 -73 -45 -120.5t-113 -47.5z" />
    <glyph glyph-name="Ccaron" unicode="&#x10c;" horiz-adv-x="1312" 
d="M86 569q0 156 66 305t179 263t276.5 184t346.5 70q86 0 239.5 -21.5t172.5 -23.5l-90 -334h-80q2 21 2 37q0 124 -61.5 182.5t-194.5 58.5q-108 0 -204.5 -37.5t-166.5 -101.5t-121 -147.5t-76.5 -177.5t-25.5 -189q0 -119 36.5 -213t101 -152.5t148.5 -89t181 -30.5
q83 0 169.5 23t131.5 46l45 23l27 -56q-8 -9 -22 -23t-64 -51t-105.5 -65t-144 -51t-182.5 -23q-141 0 -254.5 50t-184 134t-108 189t-37.5 221zM844 1468l-219 261l75 55l240 -152h21l294 152l64 -66l-326 -250h-149z" />
    <glyph glyph-name="ccaron" unicode="&#x10d;" horiz-adv-x="845" 
d="M20 344q0 82 26 168.5t76 165.5t117 141.5t156.5 99.5t186.5 37q42 0 85.5 -6.5t87.5 -21t71.5 -43.5t27.5 -68q0 -37 -27 -66.5t-67 -29.5q-31 0 -55 15.5t-40.5 37.5t-32.5 44.5t-38.5 38t-50.5 15.5q-68 0 -131 -70t-99.5 -175t-36.5 -209q0 -77 21.5 -139t74 -104
t130.5 -42q51 0 107.5 23.5t86.5 47.5l31 23l8 -71q-5 -7 -14.5 -19.5t-43 -43.5t-72 -55t-102 -43.5t-132.5 -19.5q-163 0 -257 105.5t-94 263.5zM522 1071l-149 342l78 51l163 -223l258 223l78 -51l-319 -342h-109z" />
    <glyph glyph-name="Dcaron" unicode="&#x10e;" horiz-adv-x="1482" 
d="M8 -6v76q57 8 99 39t51 77l190 957q14 75 14 87q-2 34 -43 52q-28 11 -86 23v61h508q114 0 213.5 -18t190.5 -60t156 -106.5t103 -163t38 -223.5q0 -171 -69.5 -318.5t-192.5 -252.5t-299.5 -164.5t-382.5 -59.5h-201zM399 102h109q131 0 240 37t183.5 101.5t126.5 151.5
t75.5 185.5t23.5 206.5q0 230 -109 355t-313 125h-76l-26 -25l-201 -1018q-5 -27 -13.5 -57t-14.5 -46zM788 1468l-219 261l76 55l240 -152h20l295 152l64 -66l-326 -250h-150z" />
    <glyph glyph-name="dcaron" unicode="&#x10f;" horiz-adv-x="1056" 
d="M229 -25q-97 0 -158 79t-61 218q0 89 28 185t83 184.5t128 159t172 113t206 42.5q38 0 100 -8l53 246q19 89 19 104q0 64 -80 64h-41v65q104 11 224 42.5t175 58.5l6 -6q-7 -128 -53 -342l-199 -899q-22 -108 -22 -131q0 -21 11.5 -33.5t27.5 -12.5q24 0 59 18t56 36
l8 -70q-5 -5 -14 -12.5t-37.5 -27t-58.5 -34.5t-74 -27t-87 -12q-74 0 -108.5 36.5t-34.5 88.5q0 21 3 49.5t6 46.5l3 19h-4q-6 -10 -16.5 -26t-45 -57.5t-71.5 -73t-92.5 -57.5t-110.5 -26zM358 150q79 0 162 127.5t125 308.5l45 205q8 38 -20.5 57.5t-65.5 19.5
q-69 0 -145.5 -82t-129.5 -214t-53 -261q0 -161 82 -161zM1128 1106l132 403l253 21l-14 -68l-258 -356h-113z" />
    <glyph glyph-name="Dcroat" unicode="&#x110;" horiz-adv-x="1484" 
d="M86 639l20 113h166l78 391q2 10 6 29t5 25.5t2.5 21t0 19t-4.5 14.5t-10 13.5t-16 10.5t-23.5 11t-32 8.5t-41.5 9.5v61h507q114 0 213.5 -18t190.5 -60t156 -106.5t103 -163t38 -223.5q0 -171 -69.5 -318.5t-192.5 -252.5t-299.5 -164.5t-382.5 -59.5h-201l-289 -6v76
q57 8 99 39t51 77l90 453h-164zM401 102h109q131 0 240 37t183.5 101.5t126.5 151.5t75.5 185.5t23.5 206.5q0 230 -109 355t-313 125h-75l-27 -25l-96 -487h280l-20 -113h-283l-82 -418q-5 -27 -13.5 -57t-14.5 -46z" />
    <glyph glyph-name="dcroat" unicode="&#x111;" horiz-adv-x="1056" 
d="M496 1085l22 109h262q19 89 19 104q0 64 -80 64h-41v65q104 11 224 42.5t175 58.5l6 -6q-7 -123 -49 -328h144l-23 -109h-145l-179 -804q-22 -108 -22 -131q0 -21 11.5 -33.5t27.5 -12.5q24 0 59 18t56 36l8 -70q-5 -5 -14 -12.5t-37.5 -27t-58.5 -34.5t-74 -27t-87 -12
q-74 0 -108.5 36.5t-34.5 88.5q0 21 3 49.5t6 46.5l3 19h-4q-6 -10 -16.5 -26t-45 -57.5t-71.5 -73t-92.5 -57.5t-110.5 -26q-97 0 -158 79t-61 218q0 89 28 185t83 184.5t128 159t172 113t206 42.5q38 0 100 -8l29 137h-260zM358 150q79 0 162 127.5t125 308.5l45 205
q8 38 -20.5 57.5t-65.5 19.5q-69 0 -145.5 -82t-129.5 -214t-53 -261q0 -161 82 -161z" />
    <glyph glyph-name="Emacron" unicode="&#x112;" horiz-adv-x="1175" 
d="M8 -6v76q62 9 102 40.5t50 84.5l188 948q14 75 14 87q-2 34 -43 52q-28 11 -86 23v61h832q36 0 74 2t58 4l20 2l-99 -362h-80q30 140 -9.5 196t-158.5 56h-206l-31 -25l-96 -494h325l37 132h86l-78 -388h-102l31 154h-295l-31 -25l-78 -397q-5 -27 -13.5 -57t-14.5 -46
l-5 -16h267q50 0 84 7t62 20t56.5 45t54.5 69t68 105h80l-125 -348h-604zM512 1550l33 152h561l-33 -152h-561z" />
    <glyph glyph-name="emacron" unicode="&#x113;" horiz-adv-x="847" 
d="M18 326q0 110 43.5 222t117 202.5t181 148t224.5 57.5q44 0 83 -8.5t74 -27t55.5 -54.5t20.5 -86t-22.5 -95.5t-57.5 -79t-85 -63.5t-96 -50t-100 -37.5t-88 -26t-69 -16.5l-25 -27q3 -248 205 -248q40 0 80.5 10t69 24.5t52 29.5t35.5 25l11 10l6 -66q-3 -4 -8 -11
t-22.5 -27.5t-38 -38.5t-54 -40.5t-69.5 -39t-85.5 -27.5t-101.5 -11q-167 0 -251.5 99.5t-84.5 251.5zM281 485q47 11 84 23.5t78 36t68.5 53.5t45.5 77t18 105q0 88 -59 88q-75 0 -145 -115t-90 -268zM299 1186l33 151h528l-33 -151h-528z" />
    <glyph glyph-name="Ebreve" unicode="&#x114;" horiz-adv-x="1175" 
d="M8 -6v76q62 9 102 40.5t50 84.5l188 948q14 75 14 87q-2 34 -43 52q-28 11 -86 23v61h832q36 0 74 2t58 4l20 2l-99 -362h-80q30 140 -9.5 196t-158.5 56h-206l-31 -25l-96 -494h325l37 132h86l-78 -388h-102l31 154h-295l-31 -25l-78 -397q-5 -27 -13.5 -57t-14.5 -46
l-5 -16h267q50 0 84 7t62 20t56.5 45t54.5 69t68 105h80l-125 -348h-604zM788 1468q-113 0 -189.5 60t-76.5 141q0 33 6 63t12 44l5 14h94q-6 -27 -6 -45q0 -117 178 -117q206 0 229 162h95q0 -137 -96.5 -229.5t-250.5 -92.5z" />
    <glyph glyph-name="ebreve" unicode="&#x115;" horiz-adv-x="847" 
d="M18 326q0 110 43.5 222t117 202.5t181 148t224.5 57.5q44 0 83 -8.5t74 -27t55.5 -54.5t20.5 -86t-22.5 -95.5t-57.5 -79t-85 -63.5t-96 -50t-100 -37.5t-88 -26t-69 -16.5l-25 -27q3 -248 205 -248q40 0 80.5 10t69 24.5t52 29.5t35.5 25l11 10l6 -66q-3 -4 -8 -11
t-22.5 -27.5t-38 -38.5t-54 -40.5t-69.5 -39t-85.5 -27.5t-101.5 -11q-167 0 -251.5 99.5t-84.5 251.5zM281 485q47 11 84 23.5t78 36t68.5 53.5t45.5 77t18 105q0 88 -59 88q-75 0 -145 -115t-90 -268zM559 1112q-111 0 -177.5 56.5t-66.5 148.5q0 57 31 127h92
q-8 -24 -8 -53q0 -49 33 -85t119 -36q58 0 102 18t65 43.5t34 51t15 43.5l3 18h92q0 -152 -91 -242t-243 -90z" />
    <glyph glyph-name="Edotaccent" unicode="&#x116;" horiz-adv-x="1175" 
d="M8 -6v76q62 9 102 40.5t50 84.5l188 948q14 75 14 87q-2 34 -43 52q-28 11 -86 23v61h832q36 0 74 2t58 4l20 2l-99 -362h-80q30 140 -9.5 196t-158.5 56h-206l-31 -25l-96 -494h325l37 132h86l-78 -388h-102l31 154h-295l-31 -25l-78 -397q-5 -27 -13.5 -57t-14.5 -46
l-5 -16h267q50 0 84 7t62 20t56.5 45t54.5 69t68 105h80l-125 -348h-604zM797 1483q-60 0 -95.5 31.5t-35.5 82.5q0 74 43 124.5t114 50.5q61 0 96 -33t35 -88q0 -73 -44.5 -120.5t-112.5 -47.5z" />
    <glyph glyph-name="edotaccent" unicode="&#x117;" horiz-adv-x="847" 
d="M18 326q0 110 43.5 222t117 202.5t181 148t224.5 57.5q44 0 83 -8.5t74 -27t55.5 -54.5t20.5 -86t-22.5 -95.5t-57.5 -79t-85 -63.5t-96 -50t-100 -37.5t-88 -26t-69 -16.5l-25 -27q3 -248 205 -248q40 0 80.5 10t69 24.5t52 29.5t35.5 25l11 10l6 -66q-3 -4 -8 -11
t-22.5 -27.5t-38 -38.5t-54 -40.5t-69.5 -39t-85.5 -27.5t-101.5 -11q-167 0 -251.5 99.5t-84.5 251.5zM281 485q47 11 84 23.5t78 36t68.5 53.5t45.5 77t18 105q0 88 -59 88q-75 0 -145 -115t-90 -268zM571 1135q-60 0 -95.5 31.5t-35.5 82.5q0 74 43 124t115 50
q61 0 96 -32.5t35 -87.5q0 -73 -45 -120.5t-113 -47.5z" />
    <glyph glyph-name="Eogonek" unicode="&#x118;" horiz-adv-x="1175" 
d="M8 -6v76q62 9 102 40.5t50 84.5l188 948q14 75 14 87q-2 34 -43 52q-28 11 -86 23v61h832q36 0 74 2t58 4l20 2l-99 -362h-80q30 140 -9.5 196t-158.5 56h-206l-31 -25l-96 -494h325l37 132h86l-78 -388h-102l31 154h-295l-31 -25l-78 -397q-5 -27 -13.5 -57t-14.5 -46
l-5 -16h267q50 0 84 7t62 20t56.5 45t54.5 69t68 105h80l-125 -348h-2q-40 0 -101.5 -45t-110 -114t-48.5 -128q0 -45 29 -71.5t71 -26.5l47 4v-70q-90 -34 -178 -34q-82 0 -133 41t-51 106q0 26 10.5 54t23.5 50t42 52t46.5 47t57.5 48.5t56 43t59 43.5h-422z" />
    <glyph glyph-name="eogonek" unicode="&#x119;" horiz-adv-x="847" 
d="M18 326q0 110 43.5 222t117 202.5t181 148t224.5 57.5q44 0 83 -8.5t74 -27t55.5 -54.5t20.5 -86t-22.5 -95.5t-57.5 -79t-85 -63.5t-96 -50t-100 -37.5t-88 -26t-69 -16.5l-25 -27q3 -248 205 -248q40 0 80.5 10t69 24.5t52 29.5t35.5 25l11 10l6 -66q-47 -68 -131 -123
l2 -2q-30 -19 -71 -53.5t-86 -81t-76 -100t-31 -97.5q0 -45 29 -71.5t71 -26.5l47 4v-70q-90 -34 -178 -34q-82 0 -133 41t-51 106q0 41 21.5 83t65.5 85t80 73t95 74q-10 -2 -33 -2q-167 0 -251.5 99.5t-84.5 251.5zM281 485q47 11 84 23.5t78 36t68.5 53.5t45.5 77t18 105
q0 88 -59 88q-75 0 -145 -115t-90 -268z" />
    <glyph glyph-name="Ecaron" unicode="&#x11a;" horiz-adv-x="1175" 
d="M8 -6v76q62 9 102 40.5t50 84.5l188 948q14 75 14 87q-2 34 -43 52q-28 11 -86 23v61h832q36 0 74 2t58 4l20 2l-99 -362h-80q30 140 -9.5 196t-158.5 56h-206l-31 -25l-96 -494h325l37 132h86l-78 -388h-102l31 154h-295l-31 -25l-78 -397q-5 -27 -13.5 -57t-14.5 -46
l-5 -16h267q50 0 84 7t62 20t56.5 45t54.5 69t68 105h80l-125 -348h-604zM705 1468l-220 261l76 55l240 -152h20l295 152l64 -66l-326 -250h-149z" />
    <glyph glyph-name="ecaron" unicode="&#x11b;" horiz-adv-x="847" 
d="M18 326q0 110 43.5 222t117 202.5t181 148t224.5 57.5q44 0 83 -8.5t74 -27t55.5 -54.5t20.5 -86t-22.5 -95.5t-57.5 -79t-85 -63.5t-96 -50t-100 -37.5t-88 -26t-69 -16.5l-25 -27q3 -248 205 -248q40 0 80.5 10t69 24.5t52 29.5t35.5 25l11 10l6 -66q-3 -4 -8 -11
t-22.5 -27.5t-38 -38.5t-54 -40.5t-69.5 -39t-85.5 -27.5t-101.5 -11q-167 0 -251.5 99.5t-84.5 251.5zM281 485q47 11 84 23.5t78 36t68.5 53.5t45.5 77t18 105q0 88 -59 88q-75 0 -145 -115t-90 -268zM485 1071l-149 342l78 51l164 -223l258 223l77 -51l-319 -342h-109z
" />
    <glyph glyph-name="Gcircumflex" unicode="&#x11c;" horiz-adv-x="1411" 
d="M88 561q0 120 34.5 238t106.5 225t173.5 188.5t246 130t312.5 48.5q101 0 270 -22t178 -23l-90 -334h-80q2 26 2 51q0 75 -24.5 122.5t-92.5 76t-184 28.5q-130 0 -239 -58.5t-179.5 -155.5t-109.5 -220.5t-39 -255.5q0 -235 103.5 -373.5t295.5 -138.5q68 0 174 27
l53 260q15 76 -11 105.5t-116 43.5v62h488l6 -29q-3 -2 -9 -5t-22 -18t-30 -35t-29.5 -56.5t-24.5 -80.5l-67 -333q-29 -2 -200 -28t-253 -26q-184 0 -327.5 65.5t-229.5 200t-86 320.5zM649 1468l-63 66l325 250h150l219 -260l-76 -56l-239 152h-21z" />
    <glyph glyph-name="gcircumflex" unicode="&#x11d;" horiz-adv-x="999" 
d="M102 -127h78q-24 -70 -24 -135q0 -144 112 -144q136 0 211 187q26 68 39 153.5t19.5 164t17.5 116.5h-4q-5 -10 -15 -26t-43 -57.5t-68.5 -73t-89 -57.5t-106.5 -26q-98 0 -158.5 79.5t-60.5 217.5q0 91 27.5 186.5t82 184.5t127.5 159t172.5 112t209.5 42
q50 0 143.5 -12t130.5 -12q38 0 68 6l4 -6q-29 -72 -89.5 -338t-72.5 -371q-2 -13 -5 -45q-24 -212 -71 -333q-127 -329 -469 -330q-143 0 -222 51.5t-79 124.5q0 32 19 64t40.5 52t63.5 56q8 7 12 10zM358 150q49 0 97 51.5t83 127.5t58.5 141.5t34.5 115.5l57 254
q-41 28 -86 28q-68 0 -144 -81t-129 -214.5t-53 -267.5q0 -155 82 -155zM381 1030l-78 51l322 363h108l148 -363l-78 -51l-164 227z" />
    <glyph glyph-name="Gbreve" unicode="&#x11e;" horiz-adv-x="1411" 
d="M88 561q0 120 34.5 238t106.5 225t173.5 188.5t246 130t312.5 48.5q101 0 270 -22t178 -23l-90 -334h-80q2 26 2 51q0 75 -24.5 122.5t-92.5 76t-184 28.5q-130 0 -239 -58.5t-179.5 -155.5t-109.5 -220.5t-39 -255.5q0 -235 103.5 -373.5t295.5 -138.5q68 0 174 27
l53 260q15 76 -11 105.5t-116 43.5v62h488l6 -29q-3 -2 -9 -5t-22 -18t-30 -35t-29.5 -56.5t-24.5 -80.5l-67 -333q-29 -2 -200 -28t-253 -26q-184 0 -327.5 65.5t-229.5 200t-86 320.5zM934 1468q-113 0 -189.5 60t-76.5 141q0 33 5.5 63t10.5 44l6 14h94q-6 -27 -6 -45
q0 -117 178 -117q207 0 230 162h94q0 -138 -96 -230t-250 -92z" />
    <glyph glyph-name="gbreve" unicode="&#x11f;" horiz-adv-x="999" 
d="M102 -127h78q-24 -70 -24 -135q0 -144 112 -144q136 0 211 187q26 68 39 153.5t19.5 164t17.5 116.5h-4q-5 -10 -15 -26t-43 -57.5t-68.5 -73t-89 -57.5t-106.5 -26q-98 0 -158.5 79.5t-60.5 217.5q0 91 27.5 186.5t82 184.5t127.5 159t172.5 112t209.5 42
q50 0 143.5 -12t130.5 -12q38 0 68 6l4 -6q-29 -72 -89.5 -338t-72.5 -371q-2 -13 -5 -45q-24 -212 -71 -333q-127 -329 -469 -330q-143 0 -222 51.5t-79 124.5q0 32 19 64t40.5 52t63.5 56q8 7 12 10zM358 150q49 0 97 51.5t83 127.5t58.5 141.5t34.5 115.5l57 254
q-41 28 -86 28q-68 0 -144 -81t-129 -214.5t-53 -267.5q0 -155 82 -155zM621 1112q-111 0 -177.5 56.5t-66.5 148.5q0 57 31 127h92q-8 -24 -8 -53q0 -121 151 -121q58 0 102 18t65 43.5t34 51t16 43.5l2 18h92q0 -152 -90.5 -242t-242.5 -90z" />
    <glyph glyph-name="Gdotaccent" unicode="&#x120;" horiz-adv-x="1411" 
d="M88 561q0 120 34.5 238t106.5 225t173.5 188.5t246 130t312.5 48.5q101 0 270 -22t178 -23l-90 -334h-80q2 26 2 51q0 75 -24.5 122.5t-92.5 76t-184 28.5q-130 0 -239 -58.5t-179.5 -155.5t-109.5 -220.5t-39 -255.5q0 -235 103.5 -373.5t295.5 -138.5q68 0 174 27
l53 260q15 76 -11 105.5t-116 43.5v62h488l6 -29q-3 -2 -9 -5t-22 -18t-30 -35t-29.5 -56.5t-24.5 -80.5l-67 -333q-29 -2 -200 -28t-253 -26q-184 0 -327.5 65.5t-229.5 200t-86 320.5zM942 1483q-60 0 -95.5 31.5t-35.5 82.5q0 74 43 124.5t115 50.5q61 0 96 -33t35 -88
q0 -73 -45 -120.5t-113 -47.5z" />
    <glyph glyph-name="gdotaccent" unicode="&#x121;" horiz-adv-x="999" 
d="M102 -127h78q-24 -70 -24 -135q0 -144 112 -144q136 0 211 187q26 68 39 153.5t19.5 164t17.5 116.5h-4q-5 -10 -15 -26t-43 -57.5t-68.5 -73t-89 -57.5t-106.5 -26q-98 0 -158.5 79.5t-60.5 217.5q0 91 27.5 186.5t82 184.5t127.5 159t172.5 112t209.5 42
q50 0 143.5 -12t130.5 -12q38 0 68 6l4 -6q-29 -72 -89.5 -338t-72.5 -371q-2 -13 -5 -45q-24 -212 -71 -333q-127 -329 -469 -330q-143 0 -222 51.5t-79 124.5q0 32 19 64t40.5 52t63.5 56q8 7 12 10zM358 150q49 0 97 51.5t83 127.5t58.5 141.5t34.5 115.5l57 254
q-41 28 -86 28q-68 0 -144 -81t-129 -214.5t-53 -267.5q0 -155 82 -155zM633 1135q-60 0 -95.5 31.5t-35.5 82.5q0 74 42.5 124t114.5 50q61 0 96.5 -33t35.5 -87q0 -73 -45 -120.5t-113 -47.5z" />
    <glyph glyph-name="Gcommaaccent" unicode="&#x122;" horiz-adv-x="1411" 
d="M88 561q0 120 34.5 238t106.5 225t173.5 188.5t246 130t312.5 48.5q101 0 270 -22t178 -23l-90 -334h-80q2 26 2 51q0 75 -24.5 122.5t-92.5 76t-184 28.5q-130 0 -239 -58.5t-179.5 -155.5t-109.5 -220.5t-39 -255.5q0 -235 103.5 -373.5t295.5 -138.5q68 0 174 27
l53 260q15 76 -11 105.5t-116 43.5v62h488l6 -29q-3 -2 -9 -5t-22 -18t-30 -35t-29.5 -56.5t-24.5 -80.5l-67 -333q-29 -2 -200 -28t-253 -26q-184 0 -327.5 65.5t-229.5 200t-86 320.5zM512 -133l31 45h229q21 -39 21 -92q0 -93 -96 -182.5t-238 -147.5l-35 68
q78 40 113.5 75.5t35.5 79.5q0 65 -61 154z" />
    <glyph glyph-name="gcommaaccent" unicode="&#x123;" horiz-adv-x="999" 
d="M102 -127h78q-24 -70 -24 -135q0 -144 112 -144q136 0 211 187q26 68 39 153.5t19.5 164t17.5 116.5h-4q-5 -10 -15 -26t-43 -57.5t-68.5 -73t-89 -57.5t-106.5 -26q-98 0 -158.5 79.5t-60.5 217.5q0 91 27.5 186.5t82 184.5t127.5 159t172.5 112t209.5 42
q50 0 143.5 -12t130.5 -12q38 0 68 6l4 -6q-29 -72 -89.5 -338t-72.5 -371q-2 -13 -5 -45q-24 -212 -71 -333q-127 -329 -469 -330q-143 0 -222 51.5t-79 124.5q0 32 19 64t40.5 52t63.5 56q8 7 12 10zM358 150q49 0 97 51.5t83 127.5t58.5 141.5t34.5 115.5l57 254
q-41 28 -86 28q-68 0 -144 -81t-129 -214.5t-53 -267.5q0 -155 82 -155zM735 1092l-30 -45h-230q-20 39 -20 92q0 93 95.5 182t237.5 147l35 -67q-78 -40 -113.5 -76t-35.5 -80q0 -64 61 -153z" />
    <glyph glyph-name="Hcircumflex" unicode="&#x124;" horiz-adv-x="1611" 
d="M8 -6v76q62 9 102 40.5t50 84.5l192 966q18 71 2.5 97t-104.5 47v61h151q109 0 187.5 2t102.5 4l24 2l8 -8q-3 -3 -8.5 -9.5t-21.5 -29t-29.5 -48.5t-29 -69.5t-24.5 -91.5l-73 -368h602l28 26l78 385q18 71 2.5 97t-104.5 47v61h151q109 0 187.5 2t102.5 4l24 2l8 -8
q-3 -3 -8.5 -9.5t-21.5 -29t-29.5 -48.5t-29 -69.5t-24.5 -91.5l-180 -905q-6 -30 -14.5 -60.5t-13.5 -45.5l-5 -15l162 -18l-8 -68l-543 -12v76q62 9 102 40.5t50 84.5l88 446h-600l-31 -29l-80 -399q-6 -30 -14.5 -60.5t-13.5 -45.5l-5 -15l162 -18l-8 -68zM692 1468
l-63 66l325 250h150l219 -260l-76 -56l-239 152h-21z" />
    <glyph glyph-name="hcircumflex" unicode="&#x125;" horiz-adv-x="1083" 
d="M20 -12q0 90 52 323l196 883q19 86 19 104q0 64 -80 64h-41v65q104 11 224 42.5t175 58.5l6 -6q-7 -135 -53 -342l-57 -277q-11 -50 -26 -101t-25 -76l-9 -26h5q70 108 167 182t203 74q94 0 138 -51t44 -133q0 -73 -56 -325t-56 -293q0 -50 37 -50q20 0 49 13.5t48 26.5
l19 14l9 -70q-5 -5 -13.5 -12.5t-37 -27t-58.5 -34.5t-74.5 -27t-87.5 -12q-72 0 -112.5 35t-40.5 99q0 59 55 293t55 296q0 38 -16.5 58t-46.5 20q-44 0 -92 -37.5t-85.5 -92t-64.5 -113.5t-37 -105l-24 -111q-40 -186 -47 -313zM199 1552l-54 78l318 238h127l209 -248
l-64 -68l-231 158h-12z" />
    <glyph glyph-name="Hbar" unicode="&#x126;" horiz-adv-x="1611" 
d="M166 967l20 100h148l18 94q18 71 2.5 97t-104.5 47v61h151q109 0 187.5 2t102.5 4l24 2l8 -8q-3 -3 -8.5 -9.5t-21.5 -29t-29.5 -48.5t-29 -69.5t-24.5 -91.5l-10 -51h627l18 94q18 71 2.5 97t-104.5 47v61h151q109 0 187.5 2t102.5 4l24 2l8 -8q-3 -3 -8.5 -9.5
t-21.5 -29t-29.5 -48.5t-29 -69.5t-24.5 -91.5l-10 -51h143l-20 -100h-143l-150 -754q-6 -30 -14.5 -60.5t-13.5 -45.5l-5 -15l162 -18l-8 -68l-543 -12v76q62 9 102 40.5t50 84.5l88 446h-600l-31 -29l-80 -399q-6 -30 -14.5 -60.5t-13.5 -45.5l-5 -15l162 -18l-8 -68
l-543 -12v76q62 9 102 40.5t50 84.5l153 772h-147zM1139 750l28 26l39 191h-626l-43 -217h602z" />
    <glyph glyph-name="hbar" unicode="&#x127;" horiz-adv-x="1083" 
d="M115 1085l22 109h131q19 86 19 104q0 64 -80 64h-41v65q104 11 224 42.5t175 58.5l6 -6q-7 -129 -49 -328h283l-23 -109h-284l-37 -182q-11 -50 -26 -101t-25 -76l-9 -26h5q70 108 167 182t203 74q94 0 138 -51t44 -133q0 -73 -56 -325t-56 -293q0 -50 37 -50
q20 0 49 13.5t48 26.5l19 14l9 -70q-5 -5 -13.5 -12.5t-37 -27t-58.5 -34.5t-74.5 -27t-87.5 -12q-72 0 -112.5 35t-40.5 99q0 59 55 293t55 296q0 38 -16.5 58t-46.5 20q-44 0 -92 -37.5t-85.5 -92t-64.5 -113.5t-37 -105l-24 -111q-40 -186 -47 -313l-261 -16q0 90 52 323
l172 774h-129z" />
    <glyph glyph-name="Itilde" unicode="&#x128;" horiz-adv-x="718" 
d="M8 -6v76q62 9 102 40.5t50 84.5l192 966q18 71 2.5 97t-104.5 47v61h151q109 0 187.5 2t102.5 4l24 2l8 -8q-3 -3 -8.5 -9.5t-21.5 -29t-29.5 -48.5t-29 -69.5t-24.5 -91.5l-180 -905q-6 -30 -14.5 -60.5t-13.5 -45.5l-5 -15l162 -18l-8 -68zM170 1516q3 10 8.5 26
t27.5 57.5t49.5 73.5t77 58t107.5 26q42 0 83.5 -17t70 -38t66 -38t71.5 -17q24 0 46 11.5t35.5 27.5t24 32t15.5 28l4 11l92 -10q-2 -10 -7 -27t-27 -60t-50 -76t-80.5 -60t-115.5 -27q-45 0 -87 17.5t-68.5 38t-61 38t-66.5 17.5q-37 0 -68.5 -28t-44.5 -56l-12 -27z" />
    <glyph glyph-name="itilde" unicode="&#x129;" horiz-adv-x="579" 
d="M63 109q0 55 66 331.5t66 319.5q0 29 -11.5 43t-42.5 14h-63v66q108 10 225.5 40t169.5 58l6 -6q0 -93 -76.5 -442t-76.5 -379q0 -50 36 -50q22 0 53.5 15.5t52.5 30.5l21 16l9 -70q-5 -5 -14 -13t-38.5 -29t-60.5 -37t-77 -29t-91 -13q-73 0 -113.5 35t-40.5 99z
M74 1165q1 6 3 15.5t9.5 37.5t17 53.5t26.5 56.5t36.5 53t48.5 37.5t61 15.5q40 0 79.5 -24t67 -52t63 -52t67.5 -24q28 0 53 32t36 64l11 31l92 -10q-1 -6 -2.5 -16t-9 -38.5t-16.5 -55t-26 -58.5t-37.5 -54.5t-50.5 -38.5t-64 -16q-44 0 -84.5 24t-66 52t-59 52t-65.5 24
q-26 0 -51 -32t-37 -64l-12 -31z" />
    <glyph glyph-name="Imacron" unicode="&#x12a;" horiz-adv-x="718" 
d="M8 -6v76q62 9 102 40.5t50 84.5l192 966q18 71 2.5 97t-104.5 47v61h151q109 0 187.5 2t102.5 4l24 2l8 -8q-3 -3 -8.5 -9.5t-21.5 -29t-29.5 -48.5t-29 -69.5t-24.5 -91.5l-180 -905q-6 -30 -14.5 -60.5t-13.5 -45.5l-5 -15l162 -18l-8 -68zM260 1550l33 152h561
l-33 -152h-561z" />
    <glyph glyph-name="imacron" unicode="&#x12b;" horiz-adv-x="579" 
d="M63 109q0 55 66 331.5t66 319.5q0 29 -11.5 43t-42.5 14h-63v66q108 10 225.5 40t169.5 58l6 -6q0 -93 -76.5 -442t-76.5 -379q0 -50 36 -50q22 0 53.5 15.5t52.5 30.5l21 16l9 -70q-5 -5 -14 -13t-38.5 -29t-60.5 -37t-77 -29t-91 -13q-73 0 -113.5 35t-40.5 99z
M125 1186l33 151h528l-33 -151h-528z" />
    <glyph glyph-name="Ibreve" unicode="&#x12c;" horiz-adv-x="718" 
d="M8 -6v76q62 9 102 40.5t50 84.5l192 966q18 71 2.5 97t-104.5 47v61h151q109 0 187.5 2t102.5 4l24 2l8 -8q-3 -3 -8.5 -9.5t-21.5 -29t-29.5 -48.5t-29 -69.5t-24.5 -91.5l-180 -905q-6 -30 -14.5 -60.5t-13.5 -45.5l-5 -15l162 -18l-8 -68zM537 1468q-113 0 -190 60
t-77 141q0 33 6 63t12 44l5 14h94q-6 -27 -6 -45q0 -117 178 -117q206 0 229 162h95q0 -138 -96 -230t-250 -92z" />
    <glyph glyph-name="ibreve" unicode="&#x12d;" horiz-adv-x="579" 
d="M63 109q0 55 66 331.5t66 319.5q0 29 -11.5 43t-42.5 14h-63v66q108 10 225.5 40t169.5 58l6 -6q0 -93 -76.5 -442t-76.5 -379q0 -50 36 -50q22 0 53.5 15.5t52.5 30.5l21 16l9 -70q-5 -5 -14 -13t-38.5 -29t-60.5 -37t-77 -29t-91 -13q-73 0 -113.5 35t-40.5 99z
M385 1112q-111 0 -177.5 56.5t-66.5 148.5q0 57 31 127h92q-8 -24 -8 -53q0 -49 33 -85t119 -36q58 0 102 18t65 43.5t34 51t15 43.5l3 18h92q0 -152 -91 -242t-243 -90z" />
    <glyph glyph-name="Iogonek" unicode="&#x12e;" horiz-adv-x="718" 
d="M8 -6v76q62 9 102 40.5t50 84.5l192 966q18 71 2.5 97t-104.5 47v61h151q109 0 187.5 2t102.5 4l24 2l8 -8q-3 -3 -8.5 -9.5t-21.5 -29t-29.5 -48.5t-29 -69.5t-24.5 -91.5l-180 -905q-6 -30 -14.5 -60.5t-13.5 -45.5l-5 -15l162 -18l-8 -68l-123 -4q-72 -11 -162 -107.5
t-90 -181.5q0 -45 29 -71.5t71 -26.5l48 4v-70q-91 -34 -179 -34q-82 0 -133 41t-51 106q0 56 50.5 122t93 101t135.5 104q9 7 14 11z" />
    <glyph glyph-name="iogonek" unicode="&#x12f;" horiz-adv-x="577" 
d="M63 109q0 55 66 331.5t66 319.5q0 29 -11.5 43t-42.5 14h-63v66q108 10 225.5 40t169.5 58l6 -6q0 -93 -76.5 -442t-76.5 -379q0 -50 36 -50q20 0 49 13.5t49 26.5l19 14l8 -70q-32 -28 -77 -55q-47 -33 -99.5 -81.5t-98.5 -117t-46 -121.5q0 -45 29 -71.5t71 -26.5l47 4
v-70q-90 -34 -178 -34q-82 0 -133 41t-51 106q0 41 21.5 83t65 84.5t80.5 73t95 72.5q-71 2 -110.5 36t-39.5 98zM395 1135q-60 0 -95.5 31.5t-35.5 82.5q0 74 43 124t115 50q61 0 96 -32.5t35 -87.5q0 -73 -45 -120.5t-113 -47.5z" />
    <glyph glyph-name="Idotaccent" unicode="&#x130;" horiz-adv-x="718" 
d="M8 -6v76q62 9 102 40.5t50 84.5l192 966q18 71 2.5 97t-104.5 47v61h151q109 0 187.5 2t102.5 4l24 2l8 -8q-3 -3 -8.5 -9.5t-21.5 -29t-29.5 -48.5t-29 -69.5t-24.5 -91.5l-180 -905q-6 -30 -14.5 -60.5t-13.5 -45.5l-5 -15l162 -18l-8 -68zM545 1483q-60 0 -95.5 31.5
t-35.5 82.5q0 74 43 124.5t114 50.5q61 0 96 -33t35 -88q0 -73 -44.5 -120.5t-112.5 -47.5z" />
    <glyph glyph-name="dotlessi" unicode="&#x131;" horiz-adv-x="579" 
d="M63 109q0 55 66 331.5t66 319.5q0 29 -11.5 43t-42.5 14h-63v66q108 10 225.5 40t169.5 58l6 -6q0 -93 -76.5 -442t-76.5 -379q0 -50 36 -50q22 0 53.5 15.5t52.5 30.5l21 16l9 -70q-5 -5 -14 -13t-38.5 -29t-60.5 -37t-77 -29t-91 -13q-73 0 -113.5 35t-40.5 99z" />
    <glyph glyph-name="IJ" unicode="&#x132;" horiz-adv-x="1359" 
d="M8 -6v76q62 9 102 40.5t50 84.5l192 966q18 71 2.5 97t-104.5 47v61h151q109 0 187.5 2t102.5 4l24 2l8 -8q-3 -3 -8.5 -9.5t-21.5 -29t-29.5 -48.5t-29 -69.5t-24.5 -91.5l-180 -905q-6 -30 -14.5 -60.5t-13.5 -45.5l-5 -15l162 -18l-8 -68zM819 113l209 1048
q18 71 2.5 97t-104.5 47v61h151q109 0 187.5 2t102.5 4l24 2l8 -8q-3 -3 -8.5 -9.5t-21 -29t-29 -48.5t-29 -69.5t-25.5 -91.5l-182 -909q-55 -271 -204 -407t-347 -136l-12 60q85 13 165 115t113 272z" />
    <glyph glyph-name="ij" unicode="&#x133;" horiz-adv-x="1099" 
d="M395 1135q-60 0 -95.5 31.5t-35.5 82.5q0 74 43 124t115 50q61 0 96 -32.5t35 -87.5q0 -73 -45 -120.5t-113 -47.5zM63 109q0 55 66 331.5t66 319.5q0 29 -11.5 43t-42.5 14h-63v66q108 10 225.5 40t169.5 58l6 -6q0 -93 -76.5 -442t-76.5 -379q0 -50 36 -50
q20 0 49 13.5t49 26.5l19 14l8 -70q-5 -5 -13.5 -12.5t-37 -27t-58 -34.5t-74 -27t-87.5 -12q-73 0 -113.5 35t-40.5 99zM965 1135q-60 0 -95.5 31.5t-35.5 82.5q0 74 42.5 124t114.5 50q61 0 96 -32.5t35 -87.5q0 -73 -44.5 -120.5t-112.5 -47.5zM594 -39l158 711
q14 63 14 88q0 30 -11 43.5t-42 13.5h-68v66q108 10 227.5 40t171.5 58l7 -6q-8 -117 -54 -336l-118 -537q-65 -290 -213.5 -438.5t-364.5 -148.5l-12 59q90 12 180.5 123t124.5 264z" />
    <glyph glyph-name="Jcircumflex" unicode="&#x134;" horiz-adv-x="659" 
d="M119 113l209 1048q18 71 2 97t-105 47v61h152q109 0 187.5 2t101.5 4l24 2l8 -8q-9 -9 -22.5 -26.5t-43.5 -81.5t-46 -140l-183 -909q-55 -271 -203.5 -407t-346.5 -136l-13 60q85 13 165.5 115.5t113.5 271.5zM248 1468l-64 66l326 250h149l220 -260l-76 -56l-240 152
h-20z" />
    <glyph glyph-name="jcircumflex" unicode="&#x135;" horiz-adv-x="536" 
d="M31 -39l157 711q15 68 15 88q0 30 -11 43.5t-42 13.5h-68v66q108 10 227.5 40t171.5 58l6 -6q-8 -124 -53 -336l-119 -537q-65 -290 -213 -438.5t-364 -148.5l-12 59q90 12 180.5 123t124.5 264zM154 1030l-78 51l321 363h109l147 -363l-78 -51l-163 227z" />
    <glyph glyph-name="Kcommaaccent" unicode="&#x136;" horiz-adv-x="1337" 
d="M8 -6v76q62 9 102 40.5t50 84.5l192 966q18 71 2.5 97t-104.5 47v61h151q109 0 187.5 2t102.5 4l24 2l8 -8q-3 -3 -8.5 -9.5t-21.5 -29t-29.5 -48.5t-29 -69.5t-24.5 -91.5l-71 -358h41q40 22 69 49l430 391q24 22 33 42.5t-5.5 38.5t-57.5 24v61h397l8 -39
q-4 0 -10.5 -1.5t-31 -11.5t-52.5 -26.5t-73.5 -50t-94.5 -78.5l-389 -356v-31l301 -565q37 -71 65 -98.5t68 -30.5l23 -2l-7 -76h-374l-5 6q1 6 -0.5 19.5t-21.5 69t-59 128.5l-230 428h-47l-86 -438q-6 -30 -14.5 -60.5t-13.5 -45.5l-5 -15l162 -18l-8 -68zM489 -133
l31 45h230q20 -39 20 -92q0 -93 -96 -182.5t-238 -147.5l-35 68q78 40 114 75.5t36 79.5q0 63 -62 154z" />
    <glyph glyph-name="kcommaaccent" unicode="&#x137;" horiz-adv-x="1013" 
d="M20 -12q0 95 58 346l190 860q19 86 19 104q0 64 -80 64h-41v65q104 11 224 42.5t175 58.5l6 -6q-7 -135 -53 -342l-135 -613h41l174 68q71 28 106 66.5t35 78.5q0 60 -75 60h-29v65l280 45l7 -6q8 -18 8 -65q0 -96 -61 -169t-222 -135l-29 -12v-20q25 -43 59 -124.5
t58.5 -144t58 -111t64.5 -48.5q14 0 37.5 9.5t40.5 18.5l16 9l9 -70q-5 -4 -15 -11.5t-39 -26t-56.5 -32.5t-65 -25.5t-68.5 -11.5q-60 0 -105 34t-74.5 94t-50.5 121t-46 137t-48 120h-31l-34 -159q-42 -181 -49 -318zM281 -133l30 45h230q20 -39 20 -92q0 -93 -96 -182.5
t-238 -147.5l-34 68q78 40 113.5 75.5t35.5 79.5q0 65 -61 154z" />
    <glyph glyph-name="kgreenlandic" unicode="&#x138;" horiz-adv-x="1056" 
d="M53 -12q0 110 47 303l90 381q11 50 12.5 80t-9 44t-24 17.5t-40.5 3.5h-45v66q106 12 224 41t171 55l6 -6q-6 -112 -55 -342l-24 -105h45l174 68q151 60 151 176q0 70 -76 70h-28v65l280 45l6 -6q9 -21 9 -76q0 -72 -22 -125.5t-88.5 -108t-182.5 -99.5l-29 -13v-20
q24 -41 54.5 -116.5t52 -130t52.5 -97.5t62 -43q16 0 42 11.5t44 22.5l19 11l8 -70q-6 -5 -15.5 -12.5t-40 -27.5t-60 -35t-69 -27.5t-73.5 -12.5q-58 0 -100 30.5t-69 85t-45.5 110t-41.5 126t-45 113.5h-33l-27 -118q-42 -181 -49 -318z" />
    <glyph glyph-name="Lacute" unicode="&#x139;" horiz-adv-x="1097" 
d="M8 -6v76q62 9 102 40.5t50 84.5l192 966q18 71 2.5 97t-104.5 47v61h151q109 0 187.5 2t102.5 4l24 2l8 -8q-3 -3 -8.5 -9.5t-21.5 -29t-29.5 -48.5t-29 -69.5t-24.5 -91.5l-174 -874q-6 -30 -15.5 -65.5t-15.5 -56.5l-6 -20h246q30 0 52.5 2t45.5 10.5t38 15t37 28
t34.5 35.5t39 51.5t43 61.5t52.5 79h80l-139 -385h-627zM406 1468l-33 86l407 230h11l67 -146v-59z" />
    <glyph glyph-name="lacute" unicode="&#x13a;" horiz-adv-x="548" 
d="M33 102q0 21 5.5 53t18.5 88t15 66l194 885q19 86 19 104q0 64 -80 64h-41v65q104 11 224 42.5t175 58.5l6 -6q-7 -135 -53 -342l-199 -899q-22 -96 -22 -129q0 -48 41 -48q21 0 57 18.5t56 35.5l8 -70q-5 -5 -13.5 -12.5t-37 -27t-59 -34.5t-77 -27t-92.5 -12
q-70 0 -107.5 37.5t-37.5 89.5zM225 1559l-32 86l407 229h10l68 -145v-60z" />
    <glyph glyph-name="Lcommaaccent" unicode="&#x13b;" horiz-adv-x="1097" 
d="M8 -6v76q62 9 102 40.5t50 84.5l192 966q18 71 2.5 97t-104.5 47v61h151q109 0 187.5 2t102.5 4l24 2l8 -8q-3 -3 -8.5 -9.5t-21.5 -29t-29.5 -48.5t-29 -69.5t-24.5 -91.5l-174 -874q-6 -30 -15.5 -65.5t-15.5 -56.5l-6 -20h246q30 0 52.5 2t45.5 10.5t38 15t37 28
t34.5 35.5t39 51.5t43 61.5t52.5 79h80l-139 -385h-627zM362 -133l31 45h230q20 -39 20 -92q0 -93 -96 -182.5t-238 -147.5l-35 68q78 40 114 75.5t36 79.5q0 63 -62 154z" />
    <glyph glyph-name="lcommaaccent" unicode="&#x13c;" horiz-adv-x="548" 
d="M33 102q0 21 5.5 53t18.5 88t15 66l194 885q19 86 19 104q0 64 -80 64h-41v65q104 11 224 42.5t175 58.5l6 -6q-7 -135 -53 -342l-199 -899q-22 -96 -22 -129q0 -48 41 -48q21 0 57 18.5t56 35.5l8 -70q-5 -5 -13.5 -12.5t-37 -27t-59 -34.5t-77 -27t-92.5 -12
q-70 0 -107.5 37.5t-37.5 89.5zM-4 -133l31 45h229q20 -39 20 -92q0 -93 -96 -182.5t-237 -147.5l-35 68q78 40 113.5 75.5t35.5 79.5q0 65 -61 154z" />
    <glyph glyph-name="Lcaron" unicode="&#x13d;" horiz-adv-x="1097" 
d="M8 -6v76q62 9 102 40.5t50 84.5l192 966q18 71 2.5 97t-104.5 47v61h151q109 0 187.5 2t102.5 4l24 2l8 -8q-3 -3 -8.5 -9.5t-21.5 -29t-29.5 -48.5t-29 -69.5t-24.5 -91.5l-174 -874q-6 -30 -15.5 -65.5t-15.5 -56.5l-6 -20h246q30 0 52.5 2t45.5 10.5t38 15t37 28
t34.5 35.5t39 51.5t43 61.5t52.5 79h80l-139 -385h-627zM782 1110l131 403l254 21l-14 -68l-258 -356h-113z" />
    <glyph glyph-name="lcaron" unicode="&#x13e;" horiz-adv-x="548" 
d="M33 102q0 21 5.5 53t18.5 88t15 66l194 885q19 86 19 104q0 64 -80 64h-41v65q104 11 224 42.5t175 58.5l6 -6q-7 -135 -53 -342l-199 -899q-22 -96 -22 -129q0 -48 41 -48q21 0 57 18.5t56 35.5l8 -70q-5 -5 -13.5 -12.5t-37 -27t-59 -34.5t-77 -27t-92.5 -12
q-70 0 -107.5 37.5t-37.5 89.5zM608 1110l131 403l254 21l-14 -68l-258 -356h-113z" />
    <glyph glyph-name="Ldot" unicode="&#x13f;" horiz-adv-x="1097" 
d="M8 -6v76q62 9 102 40.5t50 84.5l192 966q18 71 2.5 97t-104.5 47v61h151q109 0 187.5 2t102.5 4l24 2l8 -8q-3 -3 -8.5 -9.5t-21.5 -29t-29.5 -48.5t-29 -69.5t-24.5 -91.5l-174 -874q-6 -30 -15.5 -65.5t-15.5 -56.5l-6 -20h246q30 0 52.5 2t45.5 10.5t38 15t37 28
t34.5 35.5t39 51.5t43 61.5t52.5 79h80l-139 -385h-627zM901 580q-57 0 -85 32t-28 80q0 79 48 142t135 63q58 0 87 -31.5t29 -79.5q0 -78 -48.5 -142t-137.5 -64z" />
    <glyph glyph-name="ldot" unicode="&#x140;" horiz-adv-x="811" 
d="M33 102q0 21 5.5 53t18.5 88t15 66l194 885q19 86 19 104q0 64 -80 64h-41v65q104 11 224 42.5t175 58.5l6 -6q-7 -135 -53 -342l-199 -899q-22 -96 -22 -129q0 -48 41 -48q21 0 57 18.5t56 35.5l8 -70q-5 -5 -13.5 -12.5t-37 -27t-59 -34.5t-77 -27t-92.5 -12
q-70 0 -107.5 37.5t-37.5 89.5zM659 582q-56 0 -84 32t-28 80q0 79 47.5 142t134.5 63q58 0 87.5 -31.5t29.5 -79.5q0 -77 -49 -141.5t-138 -64.5z" />
    <glyph glyph-name="Lslash" unicode="&#x141;" horiz-adv-x="1103" 
d="M57 440l27 133l178 111l96 477q18 71 2.5 97t-104.5 47v61h152q109 0 187.5 2t102.5 4l23 2l8 -8q-3 -3 -8.5 -9.5t-21.5 -29t-29.5 -48.5t-29 -69.5t-24.5 -91.5l-51 -256l324 207l-27 -133l-323 -205l-97 -487l-36 -142h245q30 0 52.5 2t45.5 10.5t38 15t37 28
t34.5 35.5t39 51.5t43 61.5t52.5 79h80l-139 -385h-627l-293 -6v76q62 9 102 40.5t50 84.5l70 356z" />
    <glyph glyph-name="lslash" unicode="&#x142;" horiz-adv-x="606" 
d="M10 436l25 129l158 105l114 524q19 86 19 104q0 64 -80 64h-41v65q104 11 224 42.5t175 58.5l6 -6q-7 -135 -53 -342l-74 -328l160 104l-27 -129l-161 -104l-97 -442q-22 -96 -22 -129q0 -48 41 -48q21 0 56.5 18.5t55.5 35.5l9 -70q-5 -5 -13.5 -12.5t-37 -27t-59 -34.5
t-77 -27t-92.5 -12q-70 0 -107.5 37.5t-37.5 89.5q0 21 5.5 53t18.5 88t15 66l49 228z" />
    <glyph glyph-name="Nacute" unicode="&#x143;" horiz-adv-x="1529" 
d="M8 -6v76q63 8 103.5 40.5t50.5 86.5l180 911q25 101 5.5 142t-114.5 55v61h64l276 8q11 -47 50 -106l512 -789q20 -33 53 -96l151 762q9 45 9.5 76t-28.5 50t-97 27v68h389l4 -29q-5 -2 -14 -5.5t-33.5 -19.5t-45 -37t-42 -60t-31.5 -87l-227 -1138h-84l-637 983
q-33 50 -56 94l-172 -870q-5 -27 -12.5 -55t-12.5 -42l-5 -14l172 -12l-6 -68zM805 1468l-33 86l408 230h10l67 -146v-59z" />
    <glyph glyph-name="nacute" unicode="&#x144;" horiz-adv-x="1118" 
d="M55 -14q0 96 74 423.5t74 350.5q0 57 -47 57h-74v66q287 40 395 98l6 -6q0 -43 -11.5 -111.5t-23.5 -115.5l-12 -48h4q69 108 167 182t204 74q94 0 138 -51t44 -133q0 -73 -56 -325t-56 -293q0 -50 37 -50q20 0 49 13.5t48 26.5l19 14l8 -70q-5 -5 -13.5 -12.5t-37 -27
t-58 -34.5t-74 -27t-87.5 -12q-73 0 -113.5 35t-40.5 99q0 59 55.5 293t55.5 296q0 38 -16.5 58t-46.5 20q-47 0 -95.5 -38.5t-85 -94.5t-62.5 -113.5t-36 -101.5l-22 -104q-43 -186 -50 -320zM631 1030l-78 51l235 346l234 23v-55z" />
    <glyph glyph-name="Ncommaaccent" unicode="&#x145;" horiz-adv-x="1529" 
d="M8 -6v76q63 8 103.5 40.5t50.5 86.5l180 911q25 101 5.5 142t-114.5 55v61h64l276 8q11 -47 50 -106l512 -789q20 -33 53 -96l151 762q9 45 9.5 76t-28.5 50t-97 27v68h389l4 -29q-5 -2 -14 -5.5t-33.5 -19.5t-45 -37t-42 -60t-31.5 -87l-227 -1138h-84l-637 983
q-33 50 -56 94l-172 -870q-5 -27 -12.5 -55t-12.5 -42l-5 -14l172 -12l-6 -68zM508 -133l31 45h229q20 -39 20 -92q0 -93 -96 -182.5t-237 -147.5l-35 68q78 40 113.5 75.5t35.5 79.5q0 65 -61 154z" />
    <glyph glyph-name="ncommaaccent" unicode="&#x146;" horiz-adv-x="1118" 
d="M55 -14q0 96 74 423.5t74 350.5q0 57 -47 57h-74v66q287 40 395 98l6 -6q0 -43 -11.5 -111.5t-23.5 -115.5l-12 -48h4q69 108 167 182t204 74q94 0 138 -51t44 -133q0 -73 -56 -325t-56 -293q0 -50 37 -50q20 0 49 13.5t48 26.5l19 14l8 -70q-5 -5 -13.5 -12.5t-37 -27
t-58 -34.5t-74 -27t-87.5 -12q-73 0 -113.5 35t-40.5 99q0 59 55.5 293t55.5 296q0 38 -16.5 58t-46.5 20q-47 0 -95.5 -38.5t-85 -94.5t-62.5 -113.5t-36 -101.5l-22 -104q-43 -186 -50 -320zM317 -133l31 45h230q20 -39 20 -92q0 -93 -96 -182.5t-238 -147.5l-35 68
q78 40 114 75.5t36 79.5q0 63 -62 154z" />
    <glyph glyph-name="Ncaron" unicode="&#x147;" horiz-adv-x="1529" 
d="M8 -6v76q63 8 103.5 40.5t50.5 86.5l180 911q25 101 5.5 142t-114.5 55v61h64l276 8q11 -47 50 -106l512 -789q20 -33 53 -96l151 762q9 45 9.5 76t-28.5 50t-97 27v68h389l4 -29q-5 -2 -14 -5.5t-33.5 -19.5t-45 -37t-42 -60t-31.5 -87l-227 -1138h-84l-637 983
q-33 50 -56 94l-172 -870q-5 -27 -12.5 -55t-12.5 -42l-5 -14l172 -12l-6 -68zM877 1468l-220 261l76 55l240 -152h20l295 152l64 -66l-326 -250h-149z" />
    <glyph glyph-name="ncaron" unicode="&#x148;" horiz-adv-x="1118" 
d="M55 -14q0 96 74 423.5t74 350.5q0 57 -47 57h-74v66q287 40 395 98l6 -6q0 -43 -11.5 -111.5t-23.5 -115.5l-12 -48h4q69 108 167 182t204 74q94 0 138 -51t44 -133q0 -73 -56 -325t-56 -293q0 -50 37 -50q20 0 49 13.5t48 26.5l19 14l8 -70q-5 -5 -13.5 -12.5t-37 -27
t-58 -34.5t-74 -27t-87.5 -12q-73 0 -113.5 35t-40.5 99q0 59 55.5 293t55.5 296q0 38 -16.5 58t-46.5 20q-47 0 -95.5 -38.5t-85 -94.5t-62.5 -113.5t-36 -101.5l-22 -104q-43 -186 -50 -320zM608 1071l-149 342l78 51l163 -223l258 223l78 -51l-319 -342h-109z" />
    <glyph glyph-name="napostrophe" unicode="&#x149;" horiz-adv-x="1118" 
d="M55 -14q0 96 74 423.5t74 350.5q0 57 -47 57h-74v66q287 40 395 98l6 -6q0 -43 -11.5 -111.5t-23.5 -115.5l-12 -48h4q69 108 167 182t204 74q94 0 138 -51t44 -133q0 -73 -56 -325t-56 -293q0 -50 37 -50q20 0 49 13.5t48 26.5l19 14l8 -70q-5 -5 -13.5 -12.5t-37 -27
t-58 -34.5t-74 -27t-87.5 -12q-73 0 -113.5 35t-40.5 99q0 59 55.5 293t55.5 296q0 38 -16.5 58t-46.5 20q-47 0 -95.5 -38.5t-85 -94.5t-62.5 -113.5t-36 -101.5l-22 -104q-43 -186 -50 -320zM252 1466l31 45h229q20 -39 20 -92q0 -93 -95.5 -182t-237.5 -147l-35 67
q78 40 113.5 76t35.5 80q0 64 -61 153z" />
    <glyph glyph-name="Eng" unicode="&#x14a;" horiz-adv-x="1529" 
d="M8 -6v76q63 8 103.5 40.5t50.5 86.5l180 911q25 101 5.5 142t-114.5 55v61h64l276 8q11 -47 50 -106l512 -789q20 -33 53 -96l151 762q9 45 9.5 76t-28.5 50t-97 27v68h389l4 -29q-5 -2 -14 -5.5t-33.5 -19.5t-45 -37t-42 -60t-31.5 -87l-197 -983q-17 -78 -44.5 -160
t-69 -166.5t-99 -138t-120.5 -53.5q-43 0 -71 25.5t-28 66.5q0 26 10 47t29.5 35t34.5 22t37 17q10 4 32.5 11.5t35 12.5t32 16.5t31.5 25.5t24 37.5t19 54.5l6 31l-610 944q-33 50 -56 94l-172 -870q-5 -27 -12.5 -55t-12.5 -42l-5 -14l172 -12l-6 -68z" />
    <glyph glyph-name="eng" unicode="&#x14b;" horiz-adv-x="1071" 
d="M55 -14q0 96 74 423.5t74 350.5q0 57 -47 57h-74v66q287 40 395 98l6 -6q0 -45 -11.5 -114t-23.5 -115l-12 -46h4q69 108 167 182t204 74q94 0 138 -51t44 -133q0 -61 -32 -217l-101 -453q-18 -87 -49 -162t-67.5 -129.5t-79 -100t-84.5 -75t-82.5 -52.5t-75.5 -35.5
t-62 -20.5t-42 -10l-15 -2l-12 59q9 4 24.5 12.5t57.5 41.5t77.5 73.5t71.5 110t53 149.5l134 594q20 98 20 143q0 38 -16.5 58t-46.5 20q-47 0 -95.5 -38.5t-85 -94.5t-62.5 -113.5t-36 -101.5l-25 -106q-39 -170 -47 -318z" />
    <glyph glyph-name="Omacron" unicode="&#x14c;" horiz-adv-x="1552" 
d="M92 580q0 117 34.5 233.5t103.5 220.5t164 183.5t226 126.5t279 47q284 0 448 -161.5t164 -426.5q0 -125 -37.5 -246.5t-110 -226t-169.5 -184.5t-224.5 -125.5t-267.5 -45.5q-185 0 -324.5 79t-212.5 216t-73 310zM377 571q0 -133 36.5 -243.5t115.5 -182t188 -71.5
q132 0 250 102t188 271t70 356q0 72 -11.5 140.5t-38 132.5t-65 111.5t-97 76t-130.5 28.5q-109 0 -206 -65.5t-161.5 -169.5t-101.5 -231.5t-37 -254.5zM694 1550l33 152h561l-33 -152h-561z" />
    <glyph glyph-name="omacron" unicode="&#x14d;" horiz-adv-x="1032" 
d="M23 344q0 80 22.5 164t70 164.5t114 143.5t163.5 101.5t209 38.5q187 0 281 -97.5t94 -258.5q0 -79 -22.5 -164t-70.5 -167.5t-115 -148t-164 -105.5t-208 -40q-182 0 -278 103t-96 266zM289 260q0 -201 117 -201q65 0 123.5 58.5t96.5 147.5t60.5 192t22.5 194
q0 221 -121 221q-70 0 -129 -59.5t-95 -152.5t-55.5 -197.5t-19.5 -202.5zM389 1186l33 151h528l-32 -151h-529z" />
    <glyph glyph-name="Obreve" unicode="&#x14e;" horiz-adv-x="1552" 
d="M92 580q0 117 34.5 233.5t103.5 220.5t164 183.5t226 126.5t279 47q284 0 448 -161.5t164 -426.5q0 -125 -37.5 -246.5t-110 -226t-169.5 -184.5t-224.5 -125.5t-267.5 -45.5q-185 0 -324.5 79t-212.5 216t-73 310zM377 571q0 -133 36.5 -243.5t115.5 -182t188 -71.5
q132 0 250 102t188 271t70 356q0 72 -11.5 140.5t-38 132.5t-65 111.5t-97 76t-130.5 28.5q-109 0 -206 -65.5t-161.5 -169.5t-101.5 -231.5t-37 -254.5zM971 1468q-113 0 -189.5 60t-76.5 141q0 33 5.5 63t11.5 44l5 14h94q-6 -27 -6 -45q0 -117 178 -117q207 0 230 162h94
q0 -138 -96 -230t-250 -92z" />
    <glyph glyph-name="obreve" unicode="&#x14f;" horiz-adv-x="1032" 
d="M23 344q0 80 22.5 164t70 164.5t114 143.5t163.5 101.5t209 38.5q187 0 281 -97.5t94 -258.5q0 -79 -22.5 -164t-70.5 -167.5t-115 -148t-164 -105.5t-208 -40q-182 0 -278 103t-96 266zM289 260q0 -201 117 -201q65 0 123.5 58.5t96.5 147.5t60.5 192t22.5 194
q0 221 -121 221q-70 0 -129 -59.5t-95 -152.5t-55.5 -197.5t-19.5 -202.5zM649 1112q-111 0 -177 56.5t-66 148.5q0 59 30 127h92q-8 -24 -8 -53q0 -49 33 -85t119 -36q58 0 102 18t65 43.5t34 51t15 43.5l3 18h92q0 -152 -91 -242t-243 -90z" />
    <glyph glyph-name="Ohungarumlaut" unicode="&#x150;" horiz-adv-x="1552" 
d="M92 580q0 117 34.5 233.5t103.5 220.5t164 183.5t226 126.5t279 47q284 0 448 -161.5t164 -426.5q0 -125 -37.5 -246.5t-110 -226t-169.5 -184.5t-224.5 -125.5t-267.5 -45.5q-185 0 -324.5 79t-212.5 216t-73 310zM377 571q0 -133 36.5 -243.5t115.5 -182t188 -71.5
q132 0 250 102t188 271t70 356q0 72 -11.5 140.5t-38 132.5t-65 111.5t-97 76t-130.5 28.5q-109 0 -206 -65.5t-161.5 -169.5t-101.5 -231.5t-37 -254.5zM1130 1470l-71 60l176 242l240 18v-55zM768 1470l-72 60l156 242l235 18v-55z" />
    <glyph glyph-name="ohungarumlaut" unicode="&#x151;" horiz-adv-x="1032" 
d="M23 344q0 80 22.5 164t70 164.5t114 143.5t163.5 101.5t209 38.5q187 0 281 -97.5t94 -258.5q0 -79 -22.5 -164t-70.5 -167.5t-115 -148t-164 -105.5t-208 -40q-182 0 -278 103t-96 266zM289 260q0 -201 117 -201q65 0 123.5 58.5t96.5 147.5t60.5 192t22.5 194
q0 221 -121 221q-70 0 -129 -59.5t-95 -152.5t-55.5 -197.5t-19.5 -202.5zM793 1034l-80 49l217 349l215 22v-55zM492 1034l-80 49l182 349l205 22v-55z" />
    <glyph glyph-name="OE" unicode="&#x152;" horiz-adv-x="1976" 
d="M92 580q0 117 34.5 233.5t103.5 220.5t164 183.5t226 126.5t279 47q89 0 237.5 -12.5t206.5 -12.5h523q36 0 73.5 2t57.5 4l20 2l-98 -362h-80q12 62 12 106q0 80 -42.5 113t-137.5 33h-207l-30 -25l-97 -494h326l37 132h86l-78 -388h-102l30 154h-295l-30 -25l-78 -397
q-5 -27 -13.5 -57t-13.5 -46l-6 -16h266q62 0 100 8.5t76 39t67.5 72t82.5 126.5h80l-125 -348h-645q-116 -1 -229.5 -13t-170.5 -12q-185 0 -324.5 79t-212.5 216t-73 310zM377 571q0 -132 36.5 -242t115.5 -181.5t188 -71.5q50 0 84.5 4t71.5 17.5t60 42.5t32 75l178 901
q18 92 -38.5 134t-170.5 42q-102 0 -192 -42.5t-155.5 -114.5t-113.5 -165t-72 -195.5t-24 -203.5z" />
    <glyph glyph-name="oe" unicode="&#x153;" horiz-adv-x="1507" 
d="M23 344q0 80 22.5 164t70 164.5t114 143.5t163.5 101.5t209 38.5q108 0 183.5 -42t113.5 -117q152 159 344 159q44 0 83 -8.5t74.5 -27t56 -54.5t20.5 -86t-23 -95.5t-57.5 -79t-85 -63.5t-96.5 -50t-100 -37.5t-88 -26t-69 -16.5l-24 -27q3 -248 205 -248q40 0 80 10
t69 24.5t52 29.5t34 25l12 10l7 -66q-3 -4 -8 -11t-22.5 -27.5t-37.5 -38.5t-53 -40.5t-68 -39t-83 -27.5t-99 -11q-203 0 -285 144q-144 -144 -340 -144q-182 0 -278 103t-96 266zM289 260q0 -201 117 -201q65 0 123.5 58.5t96.5 147.5t60.5 192t22.5 194q0 221 -121 221
q-70 0 -129 -59.5t-95 -152.5t-55.5 -197.5t-19.5 -202.5zM940 485q47 11 84 23.5t78.5 36t69 53.5t45.5 77t18 105q0 88 -59 88q-75 0 -145.5 -115t-90.5 -268z" />
    <glyph glyph-name="Racute" unicode="&#x154;" horiz-adv-x="1277" 
d="M8 -6v76q62 9 102 40.5t50 84.5l188 948q14 75 14 87q-2 34 -43 52q-28 11 -86 23v61h502q123 0 217 -26t147.5 -70.5t80 -98t26.5 -114.5q0 -63 -23.5 -120.5t-58.5 -100t-83 -79.5t-91 -60.5t-88 -41.5v-32l201 -420q34 -71 64 -95.5t73 -29.5l21 -2l-9 -76h-364l-8 6
q-25 94 -86 225l-168 353h-58l-30 -25l-68 -346q-7 -36 -15.5 -66.5t-12.5 -42.5l-5 -12l162 -18l-8 -68zM524 686h97q47 2 97.5 24.5t97 63.5t76.5 108.5t30 147.5q0 99 -59 166.5t-165 67.5h-34l-31 -25zM645 1468l-33 86l408 230h10l68 -146v-59z" />
    <glyph glyph-name="racute" unicode="&#x155;" horiz-adv-x="782" 
d="M55 -14q0 96 74 423.5t74 350.5q0 57 -47 57h-74v66q287 40 395 98l6 -6q0 -48 -11.5 -117t-23.5 -114l-12 -44h4q69 115 140 185.5t135 70.5q59 0 94 -36.5t35 -83.5t-32.5 -87t-94.5 -40q-24 0 -56.5 14t-58.5 14q-53 0 -121 -97.5t-88 -186.5l-28 -129
q-46 -198 -50 -320zM467 1030l-78 51l236 346l233 23v-55z" />
    <glyph glyph-name="Rcommaaccent" unicode="&#x156;" horiz-adv-x="1277" 
d="M8 -6v76q62 9 102 40.5t50 84.5l188 948q14 75 14 87q-2 34 -43 52q-28 11 -86 23v61h502q123 0 217 -26t147.5 -70.5t80 -98t26.5 -114.5q0 -63 -23.5 -120.5t-58.5 -100t-83 -79.5t-91 -60.5t-88 -41.5v-32l201 -420q34 -71 64 -95.5t73 -29.5l21 -2l-9 -76h-364l-8 6
q-25 94 -86 225l-168 353h-58l-30 -25l-68 -346q-7 -36 -15.5 -66.5t-12.5 -42.5l-5 -12l162 -18l-8 -68zM524 686h97q47 2 97.5 24.5t97 63.5t76.5 108.5t30 147.5q0 99 -59 166.5t-165 67.5h-34l-31 -25zM463 -133l31 45h229q20 -39 20 -92q0 -93 -96 -182.5t-237 -147.5
l-35 68q78 40 113.5 75.5t35.5 79.5q0 65 -61 154z" />
    <glyph glyph-name="rcommaaccent" unicode="&#x157;" horiz-adv-x="782" 
d="M55 -14q0 96 74 423.5t74 350.5q0 57 -47 57h-74v66q287 40 395 98l6 -6q0 -48 -11.5 -117t-23.5 -114l-12 -44h4q69 115 140 185.5t135 70.5q59 0 94 -36.5t35 -83.5t-32.5 -87t-94.5 -40q-24 0 -56.5 14t-58.5 14q-53 0 -121 -97.5t-88 -186.5l-28 -129
q-46 -198 -50 -320zM49 -133l31 45h229q21 -39 21 -92q0 -93 -96 -182.5t-238 -147.5l-35 68q78 40 114 75.5t36 79.5q0 63 -62 154z" />
    <glyph glyph-name="Rcaron" unicode="&#x158;" horiz-adv-x="1277" 
d="M8 -6v76q62 9 102 40.5t50 84.5l188 948q14 75 14 87q-2 34 -43 52q-28 11 -86 23v61h502q123 0 217 -26t147.5 -70.5t80 -98t26.5 -114.5q0 -63 -23.5 -120.5t-58.5 -100t-83 -79.5t-91 -60.5t-88 -41.5v-32l201 -420q34 -71 64 -95.5t73 -29.5l21 -2l-9 -76h-364l-8 6
q-25 94 -86 225l-168 353h-58l-30 -25l-68 -346q-7 -36 -15.5 -66.5t-12.5 -42.5l-5 -12l162 -18l-8 -68zM524 686h97q47 2 97.5 24.5t97 63.5t76.5 108.5t30 147.5q0 99 -59 166.5t-165 67.5h-34l-31 -25zM717 1468l-219 261l75 55l240 -152h21l294 152l64 -66l-326 -250
h-149z" />
    <glyph glyph-name="rcaron" unicode="&#x159;" horiz-adv-x="782" 
d="M55 -14q0 96 74 423.5t74 350.5q0 57 -47 57h-74v66q287 40 395 98l6 -6q0 -48 -11.5 -117t-23.5 -114l-12 -44h4q69 115 140 185.5t135 70.5q59 0 94 -36.5t35 -83.5t-32.5 -87t-94.5 -40q-24 0 -56.5 14t-58.5 14q-53 0 -121 -97.5t-88 -186.5l-28 -129
q-46 -198 -50 -320zM444 1071l-149 342l78 51l164 -223l258 223l77 -51l-319 -342h-109z" />
    <glyph glyph-name="Sacute" unicode="&#x15a;" horiz-adv-x="1007" 
d="M27 168q0 38 19.5 99t39.5 103l20 42h80q0 -30 0.5 -50.5t3 -51t7 -51.5t13.5 -47.5t21.5 -44t32 -36.5t43.5 -30t57.5 -18t73.5 -7q92 0 154.5 55t62.5 152q0 56 -26 108t-68 93.5t-92.5 82.5t-101.5 84.5t-93 90t-68 108.5t-26 131q0 82 34 156.5t96 131t156 89.5
t206 33q101 0 358 -39l-92 -340h-80q48 278 -196 278q-101 0 -174.5 -53t-73.5 -145q0 -52 26.5 -99t68.5 -85.5t93 -77.5t102.5 -83t93.5 -93t68.5 -117.5t26.5 -147.5q0 -101 -40.5 -181.5t-109 -130.5t-154 -76t-181.5 -26q-95 0 -179 19.5t-143 65t-59 108.5zM563 1468
l-33 86l408 230h10l68 -146v-59z" />
    <glyph glyph-name="sacute" unicode="&#x15b;" horiz-adv-x="741" 
d="M-39 115q0 40 25.5 68t74.5 28q31 0 53.5 -11.5t34.5 -28t25.5 -36.5t26 -36.5t35.5 -28t55 -11.5q56 0 95.5 36t39.5 87q0 37 -24.5 70.5t-61 59.5t-79.5 59.5t-79.5 68t-61 87.5t-24.5 116q0 134 101 223.5t284 89.5q39 0 76.5 -5t78.5 -16.5t66 -37t25 -61.5
q0 -41 -28 -70t-70 -29q-28 0 -49.5 14t-35.5 33.5t-28 39.5t-35.5 34t-50.5 14q-48 0 -90.5 -34t-42.5 -84q0 -32 18.5 -61t47.5 -53t64.5 -48.5t71 -53.5t64.5 -62t47.5 -79.5t18.5 -101.5q0 -135 -100 -227.5t-277 -92.5q-43 0 -88 6t-93.5 20.5t-79 44t-30.5 69.5z
M453 1030l-78 51l235 346l234 23v-55z" />
    <glyph glyph-name="Scircumflex" unicode="&#x15c;" horiz-adv-x="1007" 
d="M27 168q0 38 19.5 99t39.5 103l20 42h80q0 -30 0.5 -50.5t3 -51t7 -51.5t13.5 -47.5t21.5 -44t32 -36.5t43.5 -30t57.5 -18t73.5 -7q92 0 154.5 55t62.5 152q0 56 -26 108t-68 93.5t-92.5 82.5t-101.5 84.5t-93 90t-68 108.5t-26 131q0 82 34 156.5t96 131t156 89.5
t206 33q101 0 358 -39l-92 -340h-80q48 278 -196 278q-101 0 -174.5 -53t-73.5 -145q0 -52 26.5 -99t68.5 -85.5t93 -77.5t102.5 -83t93.5 -93t68.5 -117.5t26.5 -147.5q0 -101 -40.5 -181.5t-109 -130.5t-154 -76t-181.5 -26q-95 0 -179 19.5t-143 65t-59 108.5zM434 1468
l-63 66l325 250h150l219 -260l-76 -56l-239 152h-21z" />
    <glyph glyph-name="scircumflex" unicode="&#x15d;" horiz-adv-x="741" 
d="M-39 115q0 40 25.5 68t74.5 28q31 0 53.5 -11.5t34.5 -28t25.5 -36.5t26 -36.5t35.5 -28t55 -11.5q56 0 95.5 36t39.5 87q0 37 -24.5 70.5t-61 59.5t-79.5 59.5t-79.5 68t-61 87.5t-24.5 116q0 134 101 223.5t284 89.5q39 0 76.5 -5t78.5 -16.5t66 -37t25 -61.5
q0 -41 -28 -70t-70 -29q-28 0 -49.5 14t-35.5 33.5t-28 39.5t-35.5 34t-50.5 14q-48 0 -90.5 -34t-42.5 -84q0 -32 18.5 -61t47.5 -53t64.5 -48.5t71 -53.5t64.5 -62t47.5 -79.5t18.5 -101.5q0 -135 -100 -227.5t-277 -92.5q-43 0 -88 6t-93.5 20.5t-79 44t-30.5 69.5z
M264 1030l-78 51l322 363h108l148 -363l-78 -51l-164 227z" />
    <glyph glyph-name="Scedilla" unicode="&#x15e;" horiz-adv-x="1007" 
d="M266 -180q0 56 96 157q-139 7 -237 56t-98 135q0 38 19.5 99t39.5 103l20 42h80q0 -30 0.5 -50.5t3 -51t7 -51.5t13.5 -47.5t21.5 -44t32 -36.5t43.5 -30t57.5 -18t73.5 -7q92 0 154.5 55t62.5 152q0 56 -26 108t-68 93.5t-92.5 82.5t-101.5 84.5t-93 90t-68 108.5
t-26 131q0 82 34 156.5t96 131t156 89.5t206 33q101 0 358 -39l-92 -340h-80q48 278 -196 278q-101 0 -174.5 -53t-73.5 -145q0 -52 26.5 -99t68.5 -85.5t93 -77.5t102.5 -83t93.5 -93t68.5 -117.5t26.5 -147.5q0 -96 -36.5 -173.5t-98.5 -127t-141 -78t-168 -33.5
q-27 -52 -27 -75q0 -22 21.5 -39t48 -28.5t48 -40t21.5 -70.5q0 -84 -80.5 -146.5t-181.5 -62.5q-62 0 -114.5 20.5t-74.5 40.5l-22 21l55 75q6 -6 18 -15t48.5 -24.5t73.5 -15.5q39 0 73.5 17t34.5 47q0 20 -19.5 38t-43 30t-43 31t-19.5 40z" />
    <glyph glyph-name="scedilla" unicode="&#x15f;" horiz-adv-x="741" 
d="M109 -180q0 56 96 157q-42 2 -81.5 10.5t-78 23.5t-61.5 42t-23 62q0 40 25.5 68t74.5 28q31 0 53.5 -11.5t34.5 -28t25.5 -36.5t26 -36.5t35.5 -28t55 -11.5q56 0 95.5 36t39.5 87q0 37 -24.5 70.5t-61 59.5t-79.5 59.5t-79.5 68t-61 87.5t-24.5 116q0 134 101 223.5
t284 89.5q39 0 76.5 -5t78.5 -16.5t66 -37t25 -61.5q0 -41 -28 -70t-70 -29q-28 0 -49.5 14t-35.5 33.5t-28 39.5t-35.5 34t-50.5 14q-48 0 -90.5 -34t-42.5 -84q0 -32 18.5 -61t47.5 -53t64.5 -48.5t71 -53.5t64.5 -62t47.5 -79.5t18.5 -101.5q0 -127 -89.5 -217.5
t-248.5 -100.5q-27 -52 -27 -75q0 -22 21.5 -39t48 -28.5t48 -40t21.5 -70.5q0 -84 -80.5 -146.5t-181.5 -62.5q-62 0 -114.5 20.5t-74.5 40.5l-22 21l56 75q6 -6 17.5 -15t48 -24.5t73.5 -15.5q39 0 73.5 17t34.5 47q0 20 -19.5 38t-42.5 30t-42.5 31t-19.5 40z" />
    <glyph glyph-name="Scaron" unicode="&#x160;" horiz-adv-x="1007" 
d="M27 168q0 38 19.5 99t39.5 103l20 42h80q0 -30 0.5 -50.5t3 -51t7 -51.5t13.5 -47.5t21.5 -44t32 -36.5t43.5 -30t57.5 -18t73.5 -7q92 0 154.5 55t62.5 152q0 56 -26 108t-68 93.5t-92.5 82.5t-101.5 84.5t-93 90t-68 108.5t-26 131q0 82 34 156.5t96 131t156 89.5
t206 33q101 0 358 -39l-92 -340h-80q48 278 -196 278q-101 0 -174.5 -53t-73.5 -145q0 -52 26.5 -99t68.5 -85.5t93 -77.5t102.5 -83t93.5 -93t68.5 -117.5t26.5 -147.5q0 -101 -40.5 -181.5t-109 -130.5t-154 -76t-181.5 -26q-95 0 -179 19.5t-143 65t-59 108.5zM635 1468
l-219 261l76 55l239 -152h21l295 152l63 -66l-326 -250h-149z" />
    <glyph glyph-name="scaron" unicode="&#x161;" horiz-adv-x="741" 
d="M-39 115q0 40 25.5 68t74.5 28q31 0 53.5 -11.5t34.5 -28t25.5 -36.5t26 -36.5t35.5 -28t55 -11.5q56 0 95.5 36t39.5 87q0 37 -24.5 70.5t-61 59.5t-79.5 59.5t-79.5 68t-61 87.5t-24.5 116q0 134 101 223.5t284 89.5q39 0 76.5 -5t78.5 -16.5t66 -37t25 -61.5
q0 -41 -28 -70t-70 -29q-28 0 -49.5 14t-35.5 33.5t-28 39.5t-35.5 34t-50.5 14q-48 0 -90.5 -34t-42.5 -84q0 -32 18.5 -61t47.5 -53t64.5 -48.5t71 -53.5t64.5 -62t47.5 -79.5t18.5 -101.5q0 -135 -100 -227.5t-277 -92.5q-43 0 -88 6t-93.5 20.5t-79 44t-30.5 69.5z
M430 1071l-149 342l77 51l164 -223l258 223l78 -51l-319 -342h-109z" />
    <glyph glyph-name="Tcommaaccent" unicode="&#x162;" horiz-adv-x="1249" 
d="M256 -6v76q62 9 102 40.5t50 84.5l213 1069h-140q-105 0 -173.5 -52.5t-133.5 -199.5h-80l90 366q49 -12 129 -12h949q36 0 71 3t53 6l17 3l-92 -366h-80q10 147 -18.5 199.5t-137.5 52.5h-164l-30 -25l-203 -1026q-6 -30 -14.5 -60.5t-13.5 -45.5l-5 -15l193 -18l-9 -68
l-305 -6h29q-41 -65 -41 -98q0 -22 21.5 -39t48 -28.5t48 -40t21.5 -70.5q0 -84 -80.5 -146.5t-181.5 -62.5q-62 0 -114.5 20.5t-74.5 40.5l-22 21l55 75q6 -6 18 -15t48.5 -24.5t73.5 -15.5q39 0 73.5 17t34.5 47q0 20 -19.5 38t-43 30t-43 31t-19.5 40q0 61 119 180z" />
    <glyph glyph-name="tcommaaccent" unicode="&#x163;" horiz-adv-x="724" 
d="M164 -180q0 53 98 157q-186 21 -186 195q0 39 8 78l88 420l33 133h-121l8 86q86 16 139 61q49 76 74 191l197 45q0 -53 -29 -254h289l-33 -121h-252l-28 -23l-101 -491q-8 -46 -8 -64q0 -94 92 -94q44 0 94 22.5t78 44.5l29 23l10 -71q-5 -6 -14 -17t-39.5 -39.5
t-63 -51.5t-82 -45t-98.5 -28q-27 -45 -27 -75q0 -22 22 -39t48 -28.5t48 -40t22 -70.5q0 -84 -80.5 -146.5t-181.5 -62.5q-62 0 -114.5 20.5t-74.5 40.5l-22 21l55 75q6 -6 17.5 -15t48 -24.5t73.5 -15.5q39 0 74 17t35 47q0 20 -19.5 38t-43 30t-43 31t-19.5 40z" />
    <glyph glyph-name="Tcaron" unicode="&#x164;" horiz-adv-x="1249" 
d="M256 -6v76q62 9 102 40.5t50 84.5l213 1069h-140q-105 0 -173.5 -52.5t-133.5 -199.5h-80l90 366q49 -12 129 -12h949q36 0 71 3t53 6l17 3l-92 -366h-80q10 147 -18.5 199.5t-137.5 52.5h-164l-30 -25l-203 -1026q-6 -30 -14.5 -60.5t-13.5 -45.5l-5 -15l193 -18l-9 -68
zM727 1468l-219 261l76 55l239 -152h21l295 152l63 -66l-325 -250h-150z" />
    <glyph glyph-name="tcaron" unicode="&#x165;" horiz-adv-x="724" 
d="M76 172q0 39 8 78l88 420l33 133h-121l8 86q86 16 139 61q49 76 74 191l197 45q0 -53 -29 -254h289l-33 -121h-252l-28 -23l-101 -491q-8 -46 -8 -64q0 -94 92 -94q44 0 94 22.5t78 44.5l29 23l10 -71q-6 -7 -16 -19.5t-44.5 -44t-71.5 -55.5t-92.5 -44t-111.5 -20
q-115 0 -173 51.5t-58 145.5zM639 1110l131 403l254 21l-14 -68l-258 -356h-113z" />
    <glyph glyph-name="Tbar" unicode="&#x166;" horiz-adv-x="1249" 
d="M217 643l23 109h278l103 512h-140q-105 0 -173.5 -52.5t-133.5 -199.5h-80l90 366q49 -12 129 -12h949q36 0 71 3t53 6l17 3l-92 -366h-80q10 147 -18.5 199.5t-137.5 52.5h-164l-30 -25l-97 -487h271l-23 -109h-270l-84 -430q-6 -30 -14.5 -60.5t-13.5 -45.5l-5 -15
l193 -18l-9 -68l-573 -12v76q62 9 102 40.5t50 84.5l88 448h-279z" />
    <glyph glyph-name="tbar" unicode="&#x167;" horiz-adv-x="724" 
d="M18 492l23 108h117l14 70l33 133h-121l8 86q86 16 139 61q49 76 74 191l197 45q0 -53 -29 -254h289l-33 -121h-252l-28 -23l-39 -188h276l-22 -108h-277l-39 -195q-8 -46 -8 -64q0 -94 92 -94q44 0 94 22.5t78 44.5l29 23l10 -71q-6 -7 -16 -19.5t-44.5 -44t-71.5 -55.5
t-92.5 -44t-111.5 -20q-115 0 -173 51.5t-58 145.5q0 39 8 78l51 242h-117z" />
    <glyph glyph-name="Utilde" unicode="&#x168;" horiz-adv-x="1447" 
d="M160 399q0 80 12 136l125 626q15 75 -1 99t-101 45v61h151q109 0 187.5 2t102.5 4l23 2l9 -8q-3 -3 -8.5 -9.5t-21.5 -30t-29.5 -49.5t-29 -69.5t-24.5 -89.5l-123 -620q-14 -72 -14 -129q0 -135 73.5 -207t190.5 -72q70 0 140 25t136.5 74.5t117.5 136t73 198.5l123 619
q30 147 -115 155v68h383l6 -39q-5 -2 -14 -6.5t-32.5 -21.5t-43 -37.5t-39.5 -56.5t-28 -77l-127 -636q-32 -161 -123.5 -279.5t-217 -178t-270.5 -59.5q-237 0 -364 111.5t-127 312.5zM588 1516q3 10 8.5 26t27.5 57.5t49.5 73.5t77 58t107.5 26q42 0 83.5 -17t70 -38
t66 -38t71.5 -17q24 0 46 11.5t35.5 27.5t24 32t15.5 28l4 11l92 -10q-1 -5 -3.5 -14t-13 -35t-23.5 -49.5t-36 -52.5t-50.5 -50t-68 -35t-86.5 -14q-45 0 -87 17.5t-68 38t-60.5 38t-66.5 17.5q-37 0 -68.5 -28t-44.5 -56l-12 -27z" />
    <glyph glyph-name="utilde" unicode="&#x169;" horiz-adv-x="1107" 
d="M78 160q0 84 55 325t55 275q0 57 -47 57h-63v68q89 13 144.5 22.5t125.5 29t115 44.5l6 -6q0 -101 -31.5 -258t-63.5 -294t-32 -190q0 -38 17 -57.5t47 -19.5q52 0 111 60t100.5 139.5t56.5 148.5q55 258 63 331q4 35 6 74l263 37q1 -78 -36.5 -254.5t-75.5 -337.5
t-38 -200q0 -50 37 -50q20 0 49.5 13.5t48.5 26.5l19 14l8 -70q-5 -5 -13.5 -12.5t-37 -27t-58 -34.5t-74 -27t-87.5 -12q-69 0 -106.5 35t-37.5 99q0 23 4 51t8 44l5 17h-5q-67 -104 -162.5 -175t-193.5 -71q-94 0 -138 51.5t-44 133.5zM342 1165q1 6 3 15.5t9.5 37.5
t17.5 53.5t27 56.5t36.5 53t48.5 37.5t61 15.5q40 0 79.5 -24t66.5 -52t62.5 -52t67.5 -24q28 0 53.5 32t36.5 64l11 31l92 -10q-1 -6 -2.5 -16t-9 -38.5t-17 -55t-26.5 -58.5t-37.5 -54.5t-50.5 -38.5t-64 -16q-44 0 -84.5 24t-66 52t-59 52t-65.5 24q-26 0 -51 -32
t-37 -64l-12 -31z" />
    <glyph glyph-name="Umacron" unicode="&#x16a;" horiz-adv-x="1447" 
d="M160 399q0 80 12 136l125 626q15 75 -1 99t-101 45v61h151q109 0 187.5 2t102.5 4l23 2l9 -8q-3 -3 -8.5 -9.5t-21.5 -30t-29.5 -49.5t-29 -69.5t-24.5 -89.5l-123 -620q-14 -72 -14 -129q0 -135 73.5 -207t190.5 -72q70 0 140 25t136.5 74.5t117.5 136t73 198.5l123 619
q30 147 -115 155v68h383l6 -39q-5 -2 -14 -6.5t-32.5 -21.5t-43 -37.5t-39.5 -56.5t-28 -77l-127 -636q-32 -161 -123.5 -279.5t-217 -178t-270.5 -59.5q-237 0 -364 111.5t-127 312.5zM678 1550l33 152h561l-33 -152h-561z" />
    <glyph glyph-name="umacron" unicode="&#x16b;" horiz-adv-x="1107" 
d="M78 160q0 84 55 325t55 275q0 57 -47 57h-63v68q89 13 144.5 22.5t125.5 29t115 44.5l6 -6q0 -101 -31.5 -258t-63.5 -294t-32 -190q0 -38 17 -57.5t47 -19.5q52 0 111 60t100.5 139.5t56.5 148.5q55 258 63 331q4 35 6 74l263 37q1 -78 -36.5 -254.5t-75.5 -337.5
t-38 -200q0 -50 37 -50q20 0 49.5 13.5t48.5 26.5l19 14l8 -70q-5 -5 -13.5 -12.5t-37 -27t-58 -34.5t-74 -27t-87.5 -12q-69 0 -106.5 35t-37.5 99q0 23 4 51t8 44l5 17h-5q-67 -104 -162.5 -175t-193.5 -71q-94 0 -138 51.5t-44 133.5zM393 1186l33 151h528l-32 -151h-529
z" />
    <glyph glyph-name="Ubreve" unicode="&#x16c;" horiz-adv-x="1447" 
d="M160 399q0 80 12 136l125 626q15 75 -1 99t-101 45v61h151q109 0 187.5 2t102.5 4l23 2l9 -8q-3 -3 -8.5 -9.5t-21.5 -30t-29.5 -49.5t-29 -69.5t-24.5 -89.5l-123 -620q-14 -72 -14 -129q0 -135 73.5 -207t190.5 -72q70 0 140 25t136.5 74.5t117.5 136t73 198.5l123 619
q30 147 -115 155v68h383l6 -39q-5 -2 -14 -6.5t-32.5 -21.5t-43 -37.5t-39.5 -56.5t-28 -77l-127 -636q-32 -161 -123.5 -279.5t-217 -178t-270.5 -59.5q-237 0 -364 111.5t-127 312.5zM954 1468q-113 0 -189.5 60t-76.5 141q0 33 6 63t12 44l5 14h94q-6 -27 -6 -45
q0 -117 178 -117q206 0 229 162h94q0 -138 -96 -230t-250 -92z" />
    <glyph glyph-name="ubreve" unicode="&#x16d;" horiz-adv-x="1107" 
d="M78 160q0 84 55 325t55 275q0 57 -47 57h-63v68q89 13 144.5 22.5t125.5 29t115 44.5l6 -6q0 -101 -31.5 -258t-63.5 -294t-32 -190q0 -38 17 -57.5t47 -19.5q52 0 111 60t100.5 139.5t56.5 148.5q55 258 63 331q4 35 6 74l263 37q1 -78 -36.5 -254.5t-75.5 -337.5
t-38 -200q0 -50 37 -50q20 0 49.5 13.5t48.5 26.5l19 14l8 -70q-5 -5 -13.5 -12.5t-37 -27t-58 -34.5t-74 -27t-87.5 -12q-69 0 -106.5 35t-37.5 99q0 23 4 51t8 44l5 17h-5q-67 -104 -162.5 -175t-193.5 -71q-94 0 -138 51.5t-44 133.5zM653 1112q-111 0 -177 56.5
t-66 148.5q0 59 30 127h92q-8 -24 -8 -53q0 -49 33 -85t119 -36q58 0 102 18t65 43.5t34 51t15 43.5l3 18h92q0 -152 -91 -242t-243 -90z" />
    <glyph glyph-name="Uring" unicode="&#x16e;" horiz-adv-x="1447" 
d="M160 399q0 80 12 136l125 626q15 75 -1 99t-101 45v61h151q109 0 187.5 2t102.5 4l23 2l9 -8q-3 -3 -8.5 -9.5t-21.5 -30t-29.5 -49.5t-29 -69.5t-24.5 -89.5l-123 -620q-14 -72 -14 -129q0 -135 73.5 -207t190.5 -72q70 0 140 25t136.5 74.5t117.5 136t73 198.5l123 619
q30 147 -115 155v68h383l6 -39q-5 -2 -14 -6.5t-32.5 -21.5t-43 -37.5t-39.5 -56.5t-28 -77l-127 -636q-32 -161 -123.5 -279.5t-217 -178t-270.5 -59.5q-237 0 -364 111.5t-127 312.5zM942 1403q-92 0 -138 48t-46 114q0 75 62.5 139.5t172.5 64.5q93 0 139 -46t46 -111
q0 -45 -25 -91.5t-81 -82t-130 -35.5zM948 1491q48 0 82.5 36t34.5 81q0 33 -19.5 53t-58.5 20q-53 0 -83 -35.5t-30 -82.5q0 -32 18.5 -52t55.5 -20z" />
    <glyph glyph-name="uring" unicode="&#x16f;" horiz-adv-x="1107" 
d="M78 160q0 84 55 325t55 275q0 57 -47 57h-63v68q89 13 144.5 22.5t125.5 29t115 44.5l6 -6q0 -101 -31.5 -258t-63.5 -294t-32 -190q0 -38 17 -57.5t47 -19.5q52 0 111 60t100.5 139.5t56.5 148.5q55 258 63 331q4 35 6 74l263 37q1 -78 -36.5 -254.5t-75.5 -337.5
t-38 -200q0 -50 37 -50q20 0 49.5 13.5t48.5 26.5l19 14l8 -70q-5 -5 -13.5 -12.5t-37 -27t-58 -34.5t-74 -27t-87.5 -12q-69 0 -106.5 35t-37.5 99q0 23 4 51t8 44l5 17h-5q-67 -104 -162.5 -175t-193.5 -71q-94 0 -138 51.5t-44 133.5zM653 1096q-93 0 -138.5 47.5
t-45.5 113.5q0 75 63 140t173 65q93 0 138.5 -46t45.5 -111q0 -45 -25 -91.5t-81 -82t-130 -35.5zM659 1184q48 0 82.5 35.5t34.5 80.5q0 33 -19.5 53.5t-58.5 20.5q-53 0 -82.5 -36t-29.5 -83q0 -32 18 -51.5t55 -19.5z" />
    <glyph glyph-name="Uhungarumlaut" unicode="&#x170;" horiz-adv-x="1447" 
d="M160 399q0 80 12 136l125 626q15 75 -1 99t-101 45v61h151q109 0 187.5 2t102.5 4l23 2l9 -8q-3 -3 -8.5 -9.5t-21.5 -30t-29.5 -49.5t-29 -69.5t-24.5 -89.5l-123 -620q-14 -72 -14 -129q0 -135 73.5 -207t190.5 -72q70 0 140 25t136.5 74.5t117.5 136t73 198.5l123 619
q30 147 -115 155v68h383l6 -39q-5 -2 -14 -6.5t-32.5 -21.5t-43 -37.5t-39.5 -56.5t-28 -77l-127 -636q-32 -161 -123.5 -279.5t-217 -178t-270.5 -59.5q-237 0 -364 111.5t-127 312.5zM1114 1470l-72 60l177 242l239 18v-55zM752 1470l-72 60l156 242l235 18v-55z" />
    <glyph glyph-name="uhungarumlaut" unicode="&#x171;" horiz-adv-x="1107" 
d="M78 160q0 84 55 325t55 275q0 57 -47 57h-63v68q89 13 144.5 22.5t125.5 29t115 44.5l6 -6q0 -101 -31.5 -258t-63.5 -294t-32 -190q0 -38 17 -57.5t47 -19.5q52 0 111 60t100.5 139.5t56.5 148.5q55 258 63 331q4 35 6 74l263 37q1 -78 -36.5 -254.5t-75.5 -337.5
t-38 -200q0 -50 37 -50q20 0 49.5 13.5t48.5 26.5l19 14l8 -70q-5 -5 -13.5 -12.5t-37 -27t-58 -34.5t-74 -27t-87.5 -12q-69 0 -106.5 35t-37.5 99q0 23 4 51t8 44l5 17h-5q-67 -104 -162.5 -175t-193.5 -71q-94 0 -138 51.5t-44 133.5zM797 1034l-80 49l217 349l215 22
v-55zM496 1034l-80 49l182 349l205 22v-55z" />
    <glyph glyph-name="Uogonek" unicode="&#x172;" horiz-adv-x="1452" 
d="M160 399q0 80 12 136l125 626q15 75 -1 99t-101 45v61h151q109 0 187.5 2t102.5 4l23 2l9 -8q-3 -3 -8.5 -9.5t-21.5 -30t-29.5 -49.5t-29 -69.5t-24.5 -89.5l-123 -620q-14 -72 -14 -129q0 -135 73.5 -207t190.5 -72q70 0 140 25t136.5 74.5t117.5 136t73 198.5l123 619
q30 147 -115 155v68h383l6 -39q-5 -2 -14 -6.5t-32.5 -21.5t-43 -37.5t-39.5 -56.5t-28 -77l-127 -636q-31 -160 -120 -276.5t-216 -178.5q-46 -31 -99.5 -79.5t-103 -119t-49.5 -125.5q0 -45 29 -71.5t71 -26.5l47 4v-70q-90 -34 -178 -34q-82 0 -133 41t-51 106
q0 42 22 84.5t66 86t81.5 73.5t96.5 74q-63 -5 -74 -5q-237 0 -364 111.5t-127 312.5z" />
    <glyph glyph-name="uogonek" unicode="&#x173;" horiz-adv-x="1110" 
d="M78 160q0 84 55 325t55 275q0 57 -47 57h-63v68q89 13 144.5 22.5t125.5 29t115 44.5l6 -6q0 -101 -31.5 -258t-63.5 -294t-32 -190q0 -38 17 -57.5t47 -19.5q52 0 111 60t100.5 139.5t56.5 148.5q55 258 63 331q4 35 6 74l263 37q1 -78 -36.5 -254.5t-75.5 -337.5
t-38 -200q0 -50 37 -50q20 0 49.5 13.5t48.5 26.5l19 14l8 -70q-33 -28 -78 -55q-47 -33 -99.5 -81.5t-98.5 -117t-46 -121.5q0 -45 29.5 -71.5t71.5 -26.5l47 4v-70q-90 -34 -178 -34q-82 0 -133.5 41t-51.5 106q0 41 21.5 83t65 84.5t80.5 73t95 72.5q-68 2 -103.5 36
t-35.5 98q0 23 4 51t8 44l5 17h-5q-67 -104 -162.5 -175t-193.5 -71q-94 0 -138 51.5t-44 133.5z" />
    <glyph glyph-name="Wcircumflex" unicode="&#x174;" horiz-adv-x="1816" 
d="M1116 6l-153 868l-439 -892l-112 24l-209 1186q-7 40 -30.5 68t-43.5 36l-20 9v61h129q79 0 145 2t93 4l26 2l6 -8q-54 -98 -41 -188l115 -725q4 -25 8 -95l342 697l-25 137q-7 40 -30.5 68t-43.5 36l-20 9v61h129q79 0 145 2t93 4l26 2l6 -8q-54 -98 -41 -188l115 -719
q7 -53 10 -97l379 777q35 63 25.5 101.5t-84.5 64.5v61h332l8 -29q-3 -2 -9 -5.5t-25 -19.5t-38.5 -38t-47 -63.5t-52.5 -92.5l-555 -1136zM795 1468l-64 66l326 250h149l219 -260l-75 -56l-240 152h-20z" />
    <glyph glyph-name="wcircumflex" unicode="&#x175;" horiz-adv-x="1388" 
d="M242 -6q-68 220 -109 743q-3 45 -16.5 62.5t-59.5 17.5h-30v66q89 13 211.5 44.5t158.5 53.5l6 -6q-17 -128 -8 -332.5t39 -402.5q84 122 153.5 254t65.5 186l-4 57q-3 45 -16.5 62.5t-59.5 17.5h-26v66q88 13 209.5 44.5t156.5 53.5l7 -6q-17 -127 -8.5 -334.5
t38.5 -404.5q170 220 244 388q92 207 -37 207v62l291 63l6 -12q-48 -137 -122.5 -280.5t-155 -263.5t-128 -185t-92.5 -121q-21 -26 -43.5 -58t-34.5 -50l-12 -19l-108 27q-54 176 -84 469q-115 -213 -228 -369l-90 -127zM592 1030l-78 51l322 363h108l148 -363l-78 -51
l-164 227z" />
    <glyph glyph-name="Ycircumflex" unicode="&#x176;" horiz-adv-x="1124" 
d="M211 -6v76q131 20 151 125l87 430l-232 589q-14 35 -36 57.5t-37 28.5l-15 5v61h96q73 0 140 2t98 4l31 2l6 -8l-3 -9t-5.5 -23t-5 -34t0.5 -39.5t9 -41.5l129 -363q8 -24 34 -121l336 453q20 26 25 49t-13 42t-63 26v61h344l8 -29q-8 -3 -22.5 -9.5t-53.5 -39t-73 -78.5
l-432 -583l-82 -414q-6 -30 -14.5 -60.5t-13.5 -45.5l-5 -15l162 -18l-8 -68zM477 1468l-63 66l325 250h150l219 -260l-76 -56l-239 152h-21z" />
    <glyph glyph-name="ycircumflex" unicode="&#x177;" horiz-adv-x="905" 
d="M-231 -389q0 49 33 81t104 32q82 0 137.5 25t103.5 73l17 16q59 59 59 162q0 190 -20 433t-53 331q-18 53 -89 53h-38v66q280 51 360 98l8 -4q64 -432 66 -756q127 189 213 349.5t86 211.5q0 25 -21.5 40.5t-56.5 15.5v57l287 61l6 -12q-29 -74 -109 -219
q-34 -62 -71.5 -128t-129 -215.5t-177 -274.5t-199.5 -267t-213 -233q-51 -46 -95.5 -69t-95.5 -23t-81.5 30.5t-30.5 65.5zM385 1030l-78 51l322 363h108l148 -363l-78 -51l-164 227z" />
    <glyph glyph-name="Ydieresis" unicode="&#x178;" horiz-adv-x="1124" 
d="M211 -6v76q131 20 151 125l87 430l-232 589q-14 35 -36 57.5t-37 28.5l-15 5v61h96q73 0 140 2t98 4l31 2l6 -8l-3 -9t-5.5 -23t-5 -34t0.5 -39.5t9 -41.5l129 -363q8 -24 34 -121l336 453q20 26 25 49t-13 42t-63 26v61h344l8 -29q-8 -3 -22.5 -9.5t-53.5 -39t-73 -78.5
l-432 -583l-82 -414q-6 -30 -14.5 -60.5t-13.5 -45.5l-5 -15l162 -18l-8 -68zM522 1489q-56 0 -90.5 30t-34.5 78q0 71 41.5 118.5t108.5 47.5q58 0 91.5 -31t33.5 -83q0 -69 -43.5 -114.5t-106.5 -45.5zM1018 1489q-56 0 -90.5 30t-34.5 78q0 71 41 118.5t108 47.5
q58 0 91.5 -31t33.5 -83q0 -69 -43 -114.5t-106 -45.5z" />
    <glyph glyph-name="Zacute" unicode="&#x179;" horiz-adv-x="1196" 
d="M-39 -8l-10 74q51 36 135 145l739 960q25 31 78 93h-330q-112 0 -171 -49t-140 -203h-80l88 354h850q35 0 64.5 2t41.5 4l13 2l21 -63q-52 -45 -138 -156l-735 -960q-50 -63 -80 -93h373q30 0 52.5 2t45.5 10.5t38 15t37 28t34.5 35.5t39 51.5t43 61.5t52.5 79h80
l-139 -385h-883q-34 0 -63.5 -2t-42.5 -4zM670 1468l-33 86l407 230h11l67 -146v-59z" />
    <glyph glyph-name="zacute" unicode="&#x17a;" horiz-adv-x="878" 
d="M-18 0l-41 49q81 59 149 137l469 533h-182h-10q-123 0 -158 -12.5t-64 -75.5l-61 12l80 289h526q41 0 74.5 4t47.5 8l13 4l29 -53q-102 -98 -135 -137l-481 -547q147 -23 227 -23q96 0 163 39.5t109 139.5h64q-16 -73 -33.5 -128.5t-44 -107t-59 -84.5t-78 -52.5
t-101.5 -19.5q-59 0 -197 24t-184 24q-25 0 -55.5 -5.5t-48.5 -11.5zM487 1030l-77 51l235 346l234 23v-55z" />
    <glyph glyph-name="Zdotaccent" unicode="&#x17b;" horiz-adv-x="1196" 
d="M-39 -8l-10 74q51 36 135 145l739 960q25 31 78 93h-330q-112 0 -171 -49t-140 -203h-80l88 354h850q35 0 64.5 2t41.5 4l13 2l21 -63q-52 -45 -138 -156l-735 -960q-50 -63 -80 -93h373q30 0 52.5 2t45.5 10.5t38 15t37 28t34.5 35.5t39 51.5t43 61.5t52.5 79h80
l-139 -385h-883q-34 0 -63.5 -2t-42.5 -4zM834 1483q-60 0 -96 31.5t-36 82.5q0 74 43 124.5t115 50.5q61 0 96 -33t35 -88q0 -73 -44.5 -120.5t-112.5 -47.5z" />
    <glyph glyph-name="zdotaccent" unicode="&#x17c;" horiz-adv-x="878" 
d="M-18 0l-41 49q81 59 149 137l469 533h-182h-10q-123 0 -158 -12.5t-64 -75.5l-61 12l80 289h526q41 0 74.5 4t47.5 8l13 4l29 -53q-102 -98 -135 -137l-481 -547q147 -23 227 -23q96 0 163 39.5t109 139.5h64q-16 -73 -33.5 -128.5t-44 -107t-59 -84.5t-78 -52.5
t-101.5 -19.5q-59 0 -197 24t-184 24q-25 0 -55.5 -5.5t-48.5 -11.5zM551 1135q-60 0 -95.5 31.5t-35.5 82.5q0 74 43 124t115 50q61 0 96 -32.5t35 -87.5q0 -73 -45 -120.5t-113 -47.5z" />
    <glyph glyph-name="Zcaron" unicode="&#x17d;" horiz-adv-x="1196" 
d="M-39 -8l-10 74q51 36 135 145l739 960q25 31 78 93h-330q-112 0 -171 -49t-140 -203h-80l88 354h850q35 0 64.5 2t41.5 4l13 2l21 -63q-52 -45 -138 -156l-735 -960q-50 -63 -80 -93h373q30 0 52.5 2t45.5 10.5t38 15t37 28t34.5 35.5t39 51.5t43 61.5t52.5 79h80
l-139 -385h-883q-34 0 -63.5 -2t-42.5 -4zM741 1468l-219 261l76 55l240 -152h20l295 152l64 -66l-326 -250h-150z" />
    <glyph glyph-name="zcaron" unicode="&#x17e;" horiz-adv-x="878" 
d="M-18 0l-41 49q81 59 149 137l469 533h-182h-10q-123 0 -158 -12.5t-64 -75.5l-61 12l80 289h526q41 0 74.5 4t47.5 8l13 4l29 -53q-102 -98 -135 -137l-481 -547q147 -23 227 -23q96 0 163 39.5t109 139.5h64q-16 -73 -33.5 -128.5t-44 -107t-59 -84.5t-78 -52.5
t-101.5 -19.5q-59 0 -197 24t-184 24q-25 0 -55.5 -5.5t-48.5 -11.5zM465 1071l-150 342l78 51l164 -223l258 223l78 -51l-320 -342h-108z" />
    <glyph glyph-name="longs" unicode="&#x17f;" horiz-adv-x="536" 
d="M66 803l6 86l139 45q16 96 38.5 172.5t62.5 153t93.5 127.5t134.5 82.5t183 31.5q99 0 163 -29t64 -92q0 -41 -29.5 -72.5t-72.5 -31.5q-34 0 -65 20t-51.5 43.5t-48 43.5t-54.5 20q-90 0 -137 -235q-18 -93 -43 -310q-14 -129 -24.5 -211.5t-29 -204.5t-36.5 -202.5
t-47 -183t-62 -170t-79 -140t-99.5 -116.5t-123.5 -75.5t-151 -39.5l-18 59q58 20 108.5 73.5t87.5 128t67.5 168t52 193t38.5 204t29 200t22 182.5q6 55 9 80h-127z" />
    <glyph glyph-name="florin" unicode="&#x192;" horiz-adv-x="802" 
d="M20 612v88h271q59 249 140.5 403.5t181 221t229.5 66.5q81 0 133.5 -26t52.5 -77q0 -42 -32 -65t-74 -23q-48 0 -107 37t-94 37q-17 0 -27.5 -4.5t-23.5 -25.5t-23.5 -54.5t-27 -102t-34 -157.5t-44.5 -230h295l-39 -88h-273l-10 -55q-42 -223 -91.5 -389t-104.5 -275.5
t-121.5 -177t-136 -95.5t-154.5 -28q-81 0 -134 25.5t-53 75.5q0 42 32.5 66t74.5 24q48 0 106 -37t93 -37q27 0 42 16.5t41.5 107t58.5 249t93 475.5l10 55h-250z" />
    <glyph glyph-name="Aringacute" unicode="&#x1fa;" horiz-adv-x="1206" 
d="M-121 0v70q89 9 135 92l660 1147q-105 28 -105 135q0 73 60 130.5t172 57.5q95 0 141.5 -40.5t46.5 -102.5t-42 -113t-116 -69l187 -1082q13 -70 25.5 -101t28 -40.5t50.5 -15.5l-6 -68h-102l-334 -8v76q42 2 67.5 23t18.5 63l-43 266h-412l-32 -21l-173 -307l152 -24
l-6 -68h-373zM641 926q-3 14 -5 30.5t-4 37.5t-3 32l-279 -498h355zM643 1642l-33 87l408 229h10l68 -146v-59zM762 1380q39 0 75.5 27.5t36.5 73.5q0 29 -19 49t-58 20q-56 0 -83.5 -32.5t-27.5 -71.5q0 -66 76 -66z" />
    <glyph glyph-name="aringacute" unicode="&#x1fb;" horiz-adv-x="1044" 
d="M233 -25q-99 0 -159 79t-60 218q0 129 51 260.5t155 241.5t239 154q-51 45 -51 121q0 75 62.5 139.5t172.5 64.5q93 0 138.5 -46t45.5 -111q0 -37 -18.5 -78t-52.5 -72q133 -14 159 -14q27 0 62 6l4 -6q-31 -61 -66 -221l-90 -406q-28 -129 -28 -153q0 -48 43 -48
q24 0 56 17t58 41l7 -74q-119 -113 -267 -113q-44 0 -74.5 12t-45.5 33t-21 42.5t-6 46.5q0 16 3.5 43.5t7.5 47.5l3 19h-4q-5 -10 -15.5 -26.5t-44 -58.5t-69 -74t-89 -58.5t-106.5 -26.5zM358 150q49 0 96.5 48.5t82.5 122.5t58.5 140.5t37.5 124.5l59 254q-39 28 -86 28
q-69 0 -145 -82.5t-128 -215.5t-52 -265q0 -155 77 -155zM487 1272l-32 86l407 229h10l68 -145v-60zM598 975q48 0 82.5 36t34.5 81q0 33 -19.5 53t-58.5 20q-53 0 -83 -35.5t-30 -82.5q0 -32 18.5 -52t55.5 -20z" />
    <glyph glyph-name="AEacute" unicode="&#x1fc;" horiz-adv-x="1744" 
d="M461 600l-361 -508l154 -22l-8 -70h-385v70q86 9 153 96l721 1001q32 43 32 68.5t-28.5 41t-95.5 28.5v61h991q36 0 74 2t58 4l20 2l-98 -362h-80q30 140 -9.5 196t-158.5 56h-207l-31 -25l-100 -514h325l41 152h86l-77 -388h-103l27 134h-295l-31 -25l-74 -377
q-5 -27 -13 -57t-14 -46l-5 -16h266q62 0 100 8.5t76 39t67.5 72t82.5 126.5h79l-124 -348h-605l-333 -6v76q131 20 151 125l84 428h-313zM852 1151l-303 -426h285l102 516q-43 -32 -84 -90zM1178 1468l-33 86l407 230h11l67 -146v-59z" />
    <glyph glyph-name="aeacute" unicode="&#x1fd;" horiz-adv-x="1349" 
d="M-39 164q0 78 49.5 140.5t135.5 103.5t182.5 67t210.5 41q45 198 45 272q0 84 -78 84q-37 0 -66.5 -20t-50 -49t-40 -58t-45.5 -49t-58 -20q-38 0 -65 27.5t-27 64.5q0 46 44.5 83.5t112 59.5t139 33.5t132.5 11.5q159 0 196 -106q135 106 301 106q62 0 114 -14.5
t91 -54.5t39 -101q0 -49 -26.5 -93t-66 -76t-96 -59.5t-106.5 -44.5t-108.5 -32t-90.5 -21t-63 -11q-2 -18 -2 -54q0 -258 209 -258q43 0 84.5 10t71 24.5t52.5 29.5t35 25l11 10l6 -66q-5 -8 -14.5 -21t-45 -46.5t-76 -59.5t-108 -47t-141.5 -21q-238 0 -311 256
q-14 -33 -32 -63.5t-48 -67t-65 -63t-85 -44.5t-106 -18q-99 0 -169.5 48t-70.5 141zM289 137q69 0 130.5 67t82.5 158l14 68q-140 -21 -225.5 -74t-85.5 -133q0 -40 23 -63t61 -23zM778 537q303 62 303 241q0 90 -65 90q-71 0 -139.5 -97t-98.5 -234zM805 1030l-78 51
l236 346l233 23v-55z" />
    <glyph glyph-name="Oslashacute" unicode="&#x1fe;" horiz-adv-x="1552" 
d="M92 580q0 117 34.5 233.5t103.5 220.5t164 183.5t226 126.5t279 47q182 0 324 -74l84 110h127l-125 -165q98 -76 150 -194.5t52 -264.5q0 -125 -37.5 -246.5t-110 -226t-169.5 -184.5t-224.5 -125.5t-267.5 -45.5q-175 0 -317 74l-84 -110h-129l127 167
q-100 82 -153.5 204.5t-53.5 269.5zM377 571q0 -165 55 -290l684 897q-86 114 -233 114q-109 0 -206 -65.5t-161.5 -169.5t-101.5 -231.5t-37 -254.5zM1225 803q0 157 -54 280l-682 -899q89 -110 228 -110q132 0 250 102t188 271t70 356zM815 1468l-33 86l408 230h10
l68 -146v-59z" />
    <glyph glyph-name="oslashacute" unicode="&#x1ff;" horiz-adv-x="1032" 
d="M23 344q0 80 22.5 164t70 164.5t114 143.5t163.5 101.5t209 38.5q100 0 182 -32l50 69h118l-90 -116q115 -97 115 -277q0 -79 -22.5 -164t-70.5 -167.5t-115 -148t-164 -105.5t-208 -40q-102 0 -180 35l-49 -71h-121l92 120q-116 98 -116 285zM289 270v-14l401 539
q-29 77 -102 77q-70 0 -129 -60t-95 -152.5t-55.5 -194.5t-19.5 -195zM406 59q65 0 123.5 58.5t96.5 147.5t60.5 192t22.5 194v19l-402 -539q25 -72 99 -72zM598 1030l-78 51l236 346l233 23v-55z" />
    <glyph glyph-name="Scommaaccent" unicode="&#x218;" horiz-adv-x="1007" 
d="M27 168q0 38 19.5 99t39.5 103l20 42h80q0 -30 0.5 -50.5t3 -51t7 -51.5t13.5 -47.5t21.5 -44t32 -36.5t43.5 -30t57.5 -18t73.5 -7q92 0 154.5 55t62.5 152q0 56 -26 108t-68 93.5t-92.5 82.5t-101.5 84.5t-93 90t-68 108.5t-26 131q0 82 34 156.5t96 131t156 89.5
t206 33q101 0 358 -39l-92 -340h-80q48 278 -196 278q-101 0 -174.5 -53t-73.5 -145q0 -52 26.5 -99t68.5 -85.5t93 -77.5t102.5 -83t93.5 -93t68.5 -117.5t26.5 -147.5q0 -101 -40.5 -181.5t-109 -130.5t-154 -76t-181.5 -26q-95 0 -179 19.5t-143 65t-59 108.5zM268 -133
l31 45h229q21 -39 21 -92q0 -93 -96 -182.5t-238 -147.5l-35 68q78 40 114 75.5t36 79.5q0 63 -62 154z" />
    <glyph glyph-name="scommaaccent" unicode="&#x219;" horiz-adv-x="741" 
d="M-39 115q0 40 25.5 68t74.5 28q31 0 53.5 -11.5t34.5 -28t25.5 -36.5t26 -36.5t35.5 -28t55 -11.5q56 0 95.5 36t39.5 87q0 37 -24.5 70.5t-61 59.5t-79.5 59.5t-79.5 68t-61 87.5t-24.5 116q0 134 101 223.5t284 89.5q39 0 76.5 -5t78.5 -16.5t66 -37t25 -61.5
q0 -41 -28 -70t-70 -29q-28 0 -49.5 14t-35.5 33.5t-28 39.5t-35.5 34t-50.5 14q-48 0 -90.5 -34t-42.5 -84q0 -32 18.5 -61t47.5 -53t64.5 -48.5t71 -53.5t64.5 -62t47.5 -79.5t18.5 -101.5q0 -135 -100 -227.5t-277 -92.5q-43 0 -88 6t-93.5 20.5t-79 44t-30.5 69.5z
M111 -133l30 45h230q20 -39 20 -92q0 -93 -96 -182.5t-238 -147.5l-34 68q78 40 113.5 75.5t35.5 79.5q0 65 -61 154z" />
    <glyph glyph-name="uni021A" unicode="&#x21a;" horiz-adv-x="1249" 
d="M256 -6v76q62 9 102 40.5t50 84.5l213 1069h-140q-105 0 -173.5 -52.5t-133.5 -199.5h-80l90 366q49 -12 129 -12h949q36 0 71 3t53 6l17 3l-92 -366h-80q10 147 -18.5 199.5t-137.5 52.5h-164l-30 -25l-203 -1026q-6 -30 -14.5 -60.5t-13.5 -45.5l-5 -15l193 -18l-9 -68
zM358 -133l31 45h229q21 -39 21 -92q0 -93 -96 -182.5t-238 -147.5l-35 68q78 40 114 75.5t36 79.5q0 63 -62 154z" />
    <glyph glyph-name="uni021B" unicode="&#x21b;" horiz-adv-x="724" 
d="M76 172q0 39 8 78l88 420l33 133h-121l8 86q86 16 139 61q49 76 74 191l197 45q0 -53 -29 -254h289l-33 -121h-252l-28 -23l-101 -491q-8 -46 -8 -64q0 -94 92 -94q44 0 94 22.5t78 44.5l29 23l10 -71q-6 -7 -16 -19.5t-44.5 -44t-71.5 -55.5t-92.5 -44t-111.5 -20
q-115 0 -173 51.5t-58 145.5zM166 -133l31 45h229q20 -39 20 -92q0 -93 -96 -182.5t-237 -147.5l-35 68q78 40 113.5 75.5t35.5 79.5q0 65 -61 154z" />
    <glyph glyph-name="circumflex" unicode="&#x2c6;" horiz-adv-x="1024" 
d="M354 1030l-78 51l322 363h109l147 -363l-78 -51l-164 227z" />
    <glyph glyph-name="caron" unicode="&#x2c7;" horiz-adv-x="1024" 
d="M520 1071l-149 342l78 51l163 -223l258 223l78 -51l-319 -342h-109z" />
    <glyph glyph-name="breve" unicode="&#x2d8;" horiz-adv-x="1024" 
d="M539 1112q-111 0 -177.5 56.5t-66.5 148.5q0 57 31 127h92q-8 -24 -8 -53q0 -121 151 -121q58 0 102 18t65 43.5t34 51t16 43.5l2 18h92q0 -152 -90.5 -242t-242.5 -90z" />
    <glyph glyph-name="dotaccent" unicode="&#x2d9;" horiz-adv-x="1024" 
d="M606 1135q-60 0 -95.5 31.5t-35.5 82.5q0 74 43 124t115 50q61 0 96 -32.5t35 -87.5q0 -73 -45 -120.5t-113 -47.5z" />
    <glyph glyph-name="ring" unicode="&#x2da;" horiz-adv-x="1024" 
d="M594 1096q-93 0 -138.5 47.5t-45.5 113.5q0 75 62.5 140t172.5 65q93 0 138.5 -46t45.5 -111q0 -33 -15 -68.5t-43 -67.5t-74.5 -52.5t-102.5 -20.5zM600 1184q48 0 82.5 35.5t34.5 80.5q0 33 -19.5 53.5t-58.5 20.5q-53 0 -83 -36t-30 -83q0 -32 18.5 -51.5t55.5 -19.5z
" />
    <glyph glyph-name="ogonek" unicode="&#x2db;" horiz-adv-x="1024" 
d="M133 -338q0 33 17.5 69.5t39 64.5t64.5 66.5t68.5 58.5t79 60t69.5 52l133 22l8 -10q-30 -19 -71 -53.5t-86 -81t-76 -100t-31 -97.5q0 -45 29.5 -71.5t71.5 -26.5l47 4v-70q-91 -34 -179 -34q-82 0 -133 41t-51 106z" />
    <glyph glyph-name="tilde" unicode="&#x2dc;" horiz-adv-x="1024" 
d="M283 1165q1 6 3 15.5t9.5 37.5t17 53.5t26.5 56.5t36.5 53t48.5 37.5t61 15.5q40 0 79.5 -24t67 -52t63 -52t67.5 -24q28 0 53 32t36 64l11 31l92 -10q-1 -6 -2.5 -16t-9 -38.5t-16.5 -55t-26 -58.5t-37.5 -54.5t-50.5 -38.5t-64 -16q-44 0 -84.5 24t-66 52t-59 52
t-65.5 24q-26 0 -51 -32t-37 -64l-12 -31z" />
    <glyph glyph-name="hungarumlaut" unicode="&#x2dd;" horiz-adv-x="1024" 
d="M631 1034l-80 49l217 349l215 22v-55zM330 1034l-80 49l182 349l205 22v-55z" />
    <glyph glyph-name="Omega" unicode="&#x3a9;" horiz-adv-x="1591" 
d="M59 0v365h68q14 -46 33.5 -76.5t41 -48t58 -26t70 -11t90.5 -2.5h24q-45 50 -77.5 92t-73 107.5t-62.5 140.5t-22 153q0 134 63.5 262.5t166.5 223.5t240.5 153t278.5 58q245 0 394 -135.5t149 -362.5q0 -75 -19 -147t-55 -134.5t-75.5 -115.5t-93 -104.5t-93.5 -86.5
t-90 -77q-23 -18 -33 -27h31q57 0 91.5 2.5t74.5 11t68.5 26t60.5 48t64 76.5h67l-147 -365h-535l-2 37q4 6 36 48t50.5 68.5t56 80.5t63 98.5t59 106t56 119.5t43.5 123t31.5 132.5t10.5 132.5q0 156 -70 246t-197 90q-92 0 -177.5 -50t-150.5 -139t-104 -221.5t-39 -287.5
q0 -86 15.5 -181t31 -150t41 -131.5l27.5 -82.5l-25 -39h-514z" />
    <glyph glyph-name="pi" unicode="&#x3c0;" horiz-adv-x="1185" 
d="M-31 63q0 33 17.5 55t47 36.5t62 28.5t69 40.5t60.5 63.5q29 43 76 158.5t72 222.5l14 59q-152 -6 -252 -65l-37 34q62 108 150 172t188 64h748l-43 -203h-162l-31 -22l-80 -369q-32 -144 -32 -178q0 -27 7.5 -41.5t30.5 -14.5q38 0 125 62l9 -70q-5 -5 -14 -13
t-38.5 -29t-60.5 -37t-77 -29t-91 -13q-83 0 -118.5 37.5t-35.5 91.5q0 24 41 211l93 414h-189l-31 -22l-12 -58q-11 -52 -33.5 -127t-62.5 -173t-86 -179.5t-107.5 -138t-122.5 -56.5q-40 0 -67 23.5t-27 64.5z" />
    <glyph glyph-name="Wgrave" unicode="&#x1e80;" horiz-adv-x="1816" 
d="M1116 6l-153 868l-439 -892l-112 24l-209 1186q-7 40 -30.5 68t-43.5 36l-20 9v61h129q79 0 145 2t93 4l26 2l6 -8q-54 -98 -41 -188l115 -725q4 -25 8 -95l342 697l-25 137q-7 40 -30.5 68t-43.5 36l-20 9v61h129q79 0 145 2t93 4l26 2l6 -8q-54 -98 -41 -188l115 -719
q7 -53 10 -97l379 777q35 63 25.5 101.5t-84.5 64.5v61h332l8 -29q-3 -2 -9 -5.5t-25 -19.5t-38.5 -38t-47 -63.5t-52.5 -92.5l-555 -1136zM795 1579v59l108 146h10l367 -232l-39 -84z" />
    <glyph glyph-name="wgrave" unicode="&#x1e81;" horiz-adv-x="1388" 
d="M242 -6q-68 220 -109 743q-3 45 -16.5 62.5t-59.5 17.5h-30v66q89 13 211.5 44.5t158.5 53.5l6 -6q-17 -128 -8 -332.5t39 -402.5q84 122 153.5 254t65.5 186l-4 57q-3 45 -16.5 62.5t-59.5 17.5h-26v66q88 13 209.5 44.5t156.5 53.5l7 -6q-17 -127 -8.5 -334.5
t38.5 -404.5q170 220 244 388q92 207 -37 207v62l291 63l6 -12q-48 -137 -122.5 -280.5t-155 -263.5t-128 -185t-92.5 -121q-21 -26 -43.5 -58t-34.5 -50l-12 -19l-108 27q-54 176 -84 469q-115 -213 -228 -369l-90 -127zM836 1034l-236 361v55l225 -23l97 -350z" />
    <glyph glyph-name="Wacute" unicode="&#x1e82;" horiz-adv-x="1816" 
d="M1116 6l-153 868l-439 -892l-112 24l-209 1186q-7 40 -30.5 68t-43.5 36l-20 9v61h129q79 0 145 2t93 4l26 2l6 -8q-54 -98 -41 -188l115 -725q4 -25 8 -95l342 697l-25 137q-7 40 -30.5 68t-43.5 36l-20 9v61h129q79 0 145 2t93 4l26 2l6 -8q-54 -98 -41 -188l115 -719
q7 -53 10 -97l379 777q35 63 25.5 101.5t-84.5 64.5v61h332l8 -29q-3 -2 -9 -5.5t-25 -19.5t-38.5 -38t-47 -63.5t-52.5 -92.5l-555 -1136zM924 1468l-33 86l407 230h11l67 -146v-59z" />
    <glyph glyph-name="wacute" unicode="&#x1e83;" horiz-adv-x="1388" 
d="M242 -6q-68 220 -109 743q-3 45 -16.5 62.5t-59.5 17.5h-30v66q89 13 211.5 44.5t158.5 53.5l6 -6q-17 -128 -8 -332.5t39 -402.5q84 122 153.5 254t65.5 186l-4 57q-3 45 -16.5 62.5t-59.5 17.5h-26v66q88 13 209.5 44.5t156.5 53.5l7 -6q-17 -127 -8.5 -334.5
t38.5 -404.5q170 220 244 388q92 207 -37 207v62l291 63l6 -12q-48 -137 -122.5 -280.5t-155 -263.5t-128 -185t-92.5 -121q-21 -26 -43.5 -58t-34.5 -50l-12 -19l-108 27q-54 176 -84 469q-115 -213 -228 -369l-90 -127zM780 1030l-78 51l236 346l233 23v-55z" />
    <glyph glyph-name="Wdieresis" unicode="&#x1e84;" horiz-adv-x="1816" 
d="M1116 6l-153 868l-439 -892l-112 24l-209 1186q-7 40 -30.5 68t-43.5 36l-20 9v61h129q79 0 145 2t93 4l26 2l6 -8q-54 -98 -41 -188l115 -725q4 -25 8 -95l342 697l-25 137q-7 40 -30.5 68t-43.5 36l-20 9v61h129q79 0 145 2t93 4l26 2l6 -8q-54 -98 -41 -188l115 -719
q7 -53 10 -97l379 777q35 63 25.5 101.5t-84.5 64.5v61h332l8 -29q-3 -2 -9 -5.5t-25 -19.5t-38.5 -38t-47 -63.5t-52.5 -92.5l-555 -1136zM1335 1489q-56 0 -90.5 30t-34.5 78q0 71 41.5 118.5t108.5 47.5q58 0 91.5 -31t33.5 -83q0 -69 -43.5 -114.5t-106.5 -45.5z
M840 1489q-56 0 -90.5 30t-34.5 78q0 71 41 118.5t108 47.5q58 0 91.5 -31t33.5 -83q0 -69 -43 -114.5t-106 -45.5z" />
    <glyph glyph-name="wdieresis" unicode="&#x1e85;" horiz-adv-x="1388" 
d="M242 -6q-68 220 -109 743q-3 45 -16.5 62.5t-59.5 17.5h-30v66q89 13 211.5 44.5t158.5 53.5l6 -6q-17 -128 -8 -332.5t39 -402.5q84 122 153.5 254t65.5 186l-4 57q-3 45 -16.5 62.5t-59.5 17.5h-26v66q88 13 209.5 44.5t156.5 53.5l7 -6q-17 -127 -8.5 -334.5
t38.5 -404.5q170 220 244 388q92 207 -37 207v62l291 63l6 -12q-48 -137 -122.5 -280.5t-155 -263.5t-128 -185t-92.5 -121q-21 -26 -43.5 -58t-34.5 -50l-12 -19l-108 27q-54 176 -84 469q-115 -213 -228 -369l-90 -127zM1065 1141q-56 0 -90.5 30t-34.5 78
q0 71 41.5 118.5t108.5 47.5q58 0 91 -31.5t33 -83.5q0 -69 -43 -114t-106 -45zM623 1141q-56 0 -90.5 30t-34.5 78q0 71 41 118.5t108 47.5q58 0 91.5 -31.5t33.5 -83.5q0 -69 -43 -114t-106 -45z" />
    <glyph glyph-name="uni1E9E" unicode="&#x1e9e;" horiz-adv-x="1384" 
d="M-43 -6v76q52 9 87.5 41t45.5 84l103 507q70 345 252.5 517t445.5 172q86 0 245.5 -12.5t198.5 -12.5l8 -63q-61 -54 -131 -138l-258 -311q63 -26 118 -61t108 -85.5t84.5 -119.5t31.5 -148q0 -88 -42.5 -173.5t-112 -149.5t-164 -103t-193.5 -39q-110 0 -194 44t-84 114
q0 41 27.5 67.5t66.5 26.5q33 0 54 -16t31.5 -39.5t21.5 -46.5t33 -39t57 -16q48 0 101.5 36.5t92.5 105t39 146.5q0 62 -27 115t-63.5 86.5t-87.5 61.5t-84.5 40.5t-69.5 22.5l2 74q66 49 136 135l225 274l51 68q-84 55 -227 55q-158 0 -261 -137t-159 -416l-105 -524
q-5 -30 -13 -60.5t-13 -45.5l-6 -15l82 -18l-9 -68z" />
    <glyph glyph-name="Ygrave" unicode="&#x1ef2;" horiz-adv-x="1124" 
d="M211 -6v76q131 20 151 125l87 430l-232 589q-14 35 -36 57.5t-37 28.5l-15 5v61h96q73 0 140 2t98 4l31 2l6 -8l-3 -9t-5.5 -23t-5 -34t0.5 -39.5t9 -41.5l129 -363q8 -24 34 -121l336 453q20 26 25 49t-13 42t-63 26v61h344l8 -29q-8 -3 -22.5 -9.5t-53.5 -39t-73 -78.5
l-432 -583l-82 -414q-6 -30 -14.5 -60.5t-13.5 -45.5l-5 -15l162 -18l-8 -68zM477 1579v59l109 146h10l367 -232l-39 -84z" />
    <glyph glyph-name="ygrave" unicode="&#x1ef3;" horiz-adv-x="905" 
d="M-231 -389q0 49 33 81t104 32q82 0 137.5 25t103.5 73l17 16q59 59 59 162q0 190 -20 433t-53 331q-18 53 -89 53h-38v66q280 51 360 98l8 -4q64 -432 66 -756q127 189 213 349.5t86 211.5q0 25 -21.5 40.5t-56.5 15.5v57l287 61l6 -12q-29 -74 -109 -219
q-34 -62 -71.5 -128t-129 -215.5t-177 -274.5t-199.5 -267t-213 -233q-51 -46 -95.5 -69t-95.5 -23t-81.5 30.5t-30.5 65.5zM629 1034l-236 361v55l225 -23l97 -350z" />
    <glyph glyph-name="thinspace" unicode="&#x2009;" horiz-adv-x="30" 
 />
    <glyph glyph-name="endash" unicode="&#x2013;" horiz-adv-x="1062" 
d="M102 453v145h840v-145h-840z" />
    <glyph glyph-name="emdash" unicode="&#x2014;" horiz-adv-x="1861" 
d="M102 453v145h1639v-145h-1639z" />
    <glyph glyph-name="quoteleft" unicode="&#x2018;" horiz-adv-x="409" 
d="M150 1102q0 223 337 448l45 -65q-96 -78 -145 -136.5t-49 -109.5q0 -75 108 -135l-20 -94l-207 -103q-69 93 -69 195z" />
    <glyph glyph-name="quoteright" unicode="&#x2019;" horiz-adv-x="403" 
d="M131 989q96 78 145.5 136.5t49.5 109.5q0 70 -109 135l21 94l206 103q70 -98 70 -195q0 -222 -338 -448z" />
    <glyph glyph-name="quotesinglbase" unicode="&#x201a;" horiz-adv-x="458" 
d="M-90 -266q96 78 145 136.5t49 109.5q0 71 -108 135l20 94l207 102q70 -98 70 -194q0 -223 -338 -449z" />
    <glyph glyph-name="quotedblleft" unicode="&#x201c;" horiz-adv-x="792" 
d="M150 1102q0 223 337 448l45 -65q-96 -78 -145 -136.5t-49 -109.5q0 -75 108 -135l-20 -94l-207 -103q-69 93 -69 195zM532 1102q0 222 338 448l45 -65q-96 -78 -145 -136.5t-49 -109.5q0 -75 108 -135l-20 -94l-207 -103q-70 94 -70 195z" />
    <glyph glyph-name="quotedblright" unicode="&#x201d;" horiz-adv-x="784" 
d="M131 989q96 78 145.5 136.5t49.5 109.5q0 70 -109 135l21 94l206 103q70 -98 70 -195q0 -222 -338 -448zM512 989q96 78 145.5 136.5t49.5 109.5q0 70 -109 135l20 94l207 103q70 -98 70 -195q0 -222 -338 -448z" />
    <glyph glyph-name="quotedblbase" unicode="&#x201e;" horiz-adv-x="827" 
d="M-90 -266q96 78 145 136.5t49 109.5q0 71 -108 135l20 94l207 102q70 -98 70 -194q0 -223 -338 -449zM279 -266q96 78 145 136.5t49 109.5q0 71 -108 135l20 94l207 102q70 -98 70 -194q0 -223 -338 -449z" />
    <glyph glyph-name="dagger" unicode="&#x2020;" horiz-adv-x="1075" 
d="M209 758q-47 0 -68.5 27t-21.5 61q0 37 31 73.5t86 36.5q23 0 132 -25.5t183 -33.5q4 34 6 75.5t2.5 67t0 84t-0.5 78.5q0 85 40.5 124.5t92.5 39.5q37 0 66.5 -22t29.5 -70q0 -31 -22 -85.5t-55 -135.5t-52 -154q73 7 186.5 32t137.5 25q47 0 68.5 -27t21.5 -61
q0 -37 -31 -73.5t-86 -36.5q-23 0 -132 25.5t-183 33.5l-119 -594q-7 -39 -10.5 -87t-4 -74.5t0 -96t0.5 -86.5q0 -85 -40.5 -124.5t-92.5 -39.5q-37 0 -66.5 22t-29.5 70q0 32 25 92.5t60 150t52 173.5l119 592q-75 -8 -188.5 -32.5t-137.5 -24.5z" />
    <glyph glyph-name="daggerdbl" unicode="&#x2021;" horiz-adv-x="1075" 
d="M281 -193q0 31 22.5 87t56.5 142.5t54 168.5q-75 -8 -187.5 -33t-136.5 -25q-47 0 -68.5 27.5t-21.5 61.5q0 37 31 73.5t86 36.5q23 0 131 -25.5t182 -33.5l107 528q-75 -8 -188.5 -32.5t-137.5 -24.5q-47 0 -68.5 27t-21.5 61q0 37 31 73.5t86 36.5q23 0 132 -25.5
t183 -33.5q4 37 6 79.5t2.5 68t0 82t-0.5 75.5q0 85 40.5 124.5t92.5 39.5q37 0 67 -22t30 -70q0 -31 -22 -85.5t-55 -135.5t-52 -154q73 7 186 32t137 25q47 0 68.5 -27t21.5 -61q0 -37 -31 -73.5t-86 -36.5q-23 0 -132 25.5t-183 33.5l-106 -528q76 7 190 32t137 25
q47 0 68.5 -27t21.5 -61q0 -37 -30.5 -74t-85.5 -37q-25 0 -134.5 26t-183.5 34q-6 -37 -8.5 -81.5t-2.5 -74t0.5 -88.5t0.5 -84q0 -85 -40.5 -124.5t-92.5 -39.5q-37 0 -66.5 22t-29.5 70z" />
    <glyph glyph-name="bullet" unicode="&#x2022;" horiz-adv-x="854" 
d="M420 213q-132 0 -221.5 89.5t-89.5 221.5t89.5 222t221.5 90t221.5 -90t89.5 -222t-89.5 -221.5t-221.5 -89.5z" />
    <glyph glyph-name="ellipsis" unicode="&#x2026;" horiz-adv-x="1452" 
d="M1051 63q0 61 37 109.5t104 48.5q45 0 67.5 -24t22.5 -62q0 -60 -37.5 -110t-105.5 -50q-45 0 -66.5 25t-21.5 63zM528 63q0 61 37.5 109.5t104.5 48.5q45 0 67.5 -24t22.5 -62q0 -60 -38 -110t-106 -50q-45 0 -66.5 25t-21.5 63zM2 63q0 61 37 109.5t104 48.5
q45 0 67.5 -24t22.5 -62q0 -60 -37.5 -110t-105.5 -50q-45 0 -66.5 25t-21.5 63z" />
    <glyph glyph-name="perthousand" unicode="&#x2030;" horiz-adv-x="2240" 
d="M133 0l1194 1389l80 -70l-1133 -1319h-141zM428 719q-124 0 -197 72.5t-73 191.5q0 93 48.5 181.5t133 145t178.5 56.5q124 0 199.5 -74.5t75.5 -193.5q0 -97 -53 -185.5t-137.5 -141t-174.5 -52.5zM438 852q76 0 138.5 69.5t62.5 159.5q0 64 -35 107t-90 43
q-77 0 -140 -70t-63 -160q0 -64 35.5 -106.5t91.5 -42.5zM774 240q0 93 49 181.5t133.5 145t178.5 56.5q124 0 199 -75t75 -194q0 -97 -53 -185.5t-137.5 -141t-174.5 -52.5q-124 0 -197 73t-73 192zM928 258q0 -64 35.5 -106.5t91.5 -42.5q76 0 138 69.5t62 159.5
q0 64 -35 106.5t-90 42.5q-77 0 -139.5 -69.5t-62.5 -159.5zM1507 240q0 93 49 181.5t133.5 145t178.5 56.5q124 0 199 -75t75 -194q0 -73 -31.5 -143t-82 -121.5t-117 -83t-133.5 -31.5q-124 0 -197.5 73.5t-73.5 191.5zM1661 258q0 -64 35.5 -106.5t91.5 -42.5
q76 0 138.5 69.5t62.5 159.5q0 64 -35 106.5t-90 42.5q-77 0 -140 -69.5t-63 -159.5z" />
    <glyph glyph-name="guilsinglleft" unicode="&#x2039;" horiz-adv-x="610" 
d="M430 82q-161 189 -240.5 280.5t-101 113t-45.5 40.5v8q36 26 108.5 93.5t350.5 338.5l67 -20l-270 -416q17 -32 199 -418z" />
    <glyph glyph-name="guilsinglright" unicode="&#x203a;" horiz-adv-x="620" 
d="M35 102l270 416q-17 32 -199 418l68 20q158 -186 240.5 -280t103 -114t45.5 -40v-8q-38 -27 -114.5 -98t-346.5 -334z" />
    <glyph glyph-name="fraction" unicode="&#x2044;" horiz-adv-x="264" 
d="M-283 0h-139l1102 1397l113 -31z" />
    <glyph glyph-name="zerosuperior" unicode="&#x2070;" horiz-adv-x="745" 
d="M401 756q-65 0 -113 22t-75.5 61.5t-40 89t-12.5 109.5q0 96 31 197t85 185t136.5 138t175.5 54q128 0 184.5 -77t56.5 -200q0 -98 -31 -199.5t-85 -186.5t-136.5 -139t-175.5 -54zM424 821q56 0 102.5 118t68 252t21.5 226q0 129 -51 129q-43 0 -81.5 -69.5t-61.5 -168
t-36 -195t-13 -161.5q0 -131 51 -131z" />
    <glyph glyph-name="foursuperior" unicode="&#x2074;" horiz-adv-x="724" 
d="M326 766v57q80 10 92 74l18 90h-327l-5 88l467 512l215 29l2 -4q-16 -39 -36 -135l-84 -387h125l-29 -103h-117l-16 -78l-19 -73l95 -11l-5 -51zM225 1090h232l55 260l20 82z" />
    <glyph glyph-name="fivesuperior" unicode="&#x2075;" horiz-adv-x="595" 
d="M297 756q-85 0 -142 24.5t-57 71.5q0 27 20.5 44t53.5 17q27 0 47.5 -15t30.5 -33t25.5 -33t33.5 -15q42 0 87.5 47t45.5 111q0 41 -24.5 76.5t-59.5 57.5t-70.5 38t-59.5 23l-25 6l110 421h324q21 0 42 2.5t31 4.5l11 2l-43 -150h-322l-28 -115q36 -13 70 -27.5
t81.5 -43t81 -60.5t58 -80.5t24.5 -101.5q0 -105 -103 -188.5t-243 -83.5z" />
    <glyph glyph-name="sixsuperior" unicode="&#x2076;" horiz-adv-x="706" 
d="M422 756q-129 0 -200.5 75.5t-71.5 200.5q0 61 17.5 126.5t50.5 130.5t85.5 123t118.5 103t154.5 71t187.5 26v-62q-104 -12 -184.5 -67t-126.5 -136t-68.5 -171t-22.5 -183q0 -174 74 -174q35 0 64.5 42.5t46 110t16.5 140.5q0 54 -16 83.5t-39 29.5h-12v65q22 8 63 8
q103 0 160 -54t57 -136q0 -85 -42 -164.5t-125 -133.5t-187 -54z" />
    <glyph glyph-name="sevensuperior" unicode="&#x2077;" horiz-adv-x="598" 
d="M528 1305l66 106q-55 -6 -127 -6h-111q-52 0 -68.5 -12t-51.5 -70h-62l90 274h449l92 5v-33q-55 -60 -80 -99l-373 -604q-37 -60 -62.5 -85t-58.5 -25q-30 0 -42.5 17.5t-12.5 37.5q0 10 5 21t16 25.5t20 24t26.5 28.5t26.5 28q61 67 118 149.5t140 217.5z" />
    <glyph glyph-name="eightsuperior" unicode="&#x2078;" horiz-adv-x="688" 
d="M403 756q-107 0 -190.5 48t-83.5 136q0 129 215 250q-96 100 -96 201q0 97 79 159t203 62q108 0 181 -46.5t73 -121.5q0 -62 -50.5 -109t-143.5 -96q59 -57 93 -111t34 -118q0 -107 -91 -180.5t-223 -73.5zM408 819q58 0 90 38t32 85q0 30 -20.5 65t-37.5 53.5t-62 61.5
l-15 15q-100 -75 -100 -185q0 -61 30 -97t83 -36zM438 1448q0 -63 97 -156q88 66 88 148q0 51 -27.5 78.5t-67.5 27.5q-43 0 -66.5 -30t-23.5 -68z" />
    <glyph glyph-name="ninesuperior" unicode="&#x2079;" horiz-adv-x="702" 
d="M182 756v61q104 12 184.5 67t126.5 136t68.5 171t22.5 183q0 174 -74 174q-49 0 -85 -90.5t-36 -202.5q0 -53 15 -82.5t32 -29.5h15v-66q-23 -8 -64 -8q-99 0 -155 54.5t-56 136.5q0 85 42 164.5t123.5 133.5t182.5 54q129 0 201 -76t72 -201q0 -74 -24 -152.5t-75 -155
t-122 -137t-173.5 -97.5t-220.5 -37z" />
    <glyph glyph-name="n.sups" unicode="&#x207f;" horiz-adv-x="823" 
d="M133 600q0 81 49 298t49 243q0 35 -26 35h-55v53q181 24 294 65l7 -6q0 -34 -8.5 -76.5t-17.5 -67.5l-9 -26h4q4 7 12.5 17.5t34.5 38.5t52.5 49.5t66 39t76.5 17.5q71 0 106 -35.5t35 -93.5q0 -51 -38 -220t-38 -198q0 -35 25 -35q16 0 37 12.5t34 25.5l13 12l10 -70
q-3 -3 -9.5 -9t-26.5 -21t-41.5 -26t-53.5 -20.5t-64 -9.5q-63 0 -93 32t-30 81q0 48 36 205.5t36 185.5q0 51 -37 51q-39 0 -102 -83t-80 -161l-19 -84q-28 -127 -30 -209z" />
    <glyph glyph-name="zeroinferior" unicode="&#x2080;" horiz-adv-x="745" 
d="M207 -246q-65 0 -113 22t-75.5 62t-40.5 89.5t-13 109.5q0 96 31 196.5t85 185t136.5 138t175.5 53.5q88 0 144 -39.5t77 -98.5t21 -138q0 -98 -31 -200t-85 -187t-136.5 -139t-175.5 -54zM229 -180q56 0 102.5 118t68.5 252t22 226q0 129 -51 129q-57 0 -103.5 -117.5
t-68 -251t-21.5 -225.5q0 -131 51 -131z" />
    <glyph glyph-name="oneinferior" unicode="&#x2081;" horiz-adv-x="552" 
d="M-100 -236l2 64q48 1 79.5 8.5t46.5 20t20.5 23.5t8.5 28l101 477q9 52 3 64t-34 6l-111 -27v76q111 24 215.5 53t153.5 47l49 17l2 -5q-21 -57 -39 -143l-121 -565l-20 -68l147 -10l-6 -57z" />
    <glyph glyph-name="twoinferior" unicode="&#x2082;" horiz-adv-x="673" 
d="M-106 -231l-11 55q135 100 256 211q41 37 66 62t59 67t51 86t17 90q0 49 -23.5 80t-49 40t-52.5 9q-34 0 -70.5 -17.5t-56.5 -35.5l-19 -17l-36 58q5 6 14 16.5t39.5 37t63.5 46.5t82.5 36.5t99.5 16.5q92 0 158.5 -49.5t66.5 -132.5q0 -42 -21 -89t-53 -90.5t-90.5 -101
t-113 -105.5t-140.5 -120h186q33 0 54.5 5.5t39 24t26 32t28.5 51.5h63l-84 -266h-550z" />
    <glyph glyph-name="threeinferior" unicode="&#x2083;" horiz-adv-x="632" 
d="M84 -246q-32 0 -63 4.5t-63.5 14t-52.5 29t-20 46.5q0 28 20.5 46t51.5 18q28 0 49 -15t32 -33t28 -33t38 -15q50 0 97 60t47 138q0 59 -29 98.5t-80 39.5q-14 0 -28.5 -2t-22.5 -4l-8 -1l14 82q30 11 39 15t36.5 16t39 20t31.5 23.5t28 30t15.5 35t7.5 43.5q0 75 -72 75
q-30 0 -64 -12.5t-53 -24.5l-18 -12l-31 60q5 5 13.5 12.5t36.5 27t58 34.5t74 27.5t87 12.5q85 0 139.5 -39t54.5 -110q0 -42 -25.5 -81t-67.5 -69t-77.5 -49t-73.5 -35q98 -12 153.5 -64t55.5 -126q0 -77 -57.5 -143t-149 -103t-190.5 -37z" />
    <glyph glyph-name="fourinferior" unicode="&#x2084;" horiz-adv-x="722" 
d="M131 -236v58q80 10 92 74l19 90h-328l-4 88l467 512l215 28l2 -4q-17 -39 -37 -135l-84 -387h125l-29 -102h-116l-17 -78l-18 -74l94 -10l-4 -51zM31 88h231l55 260l21 82z" />
    <glyph glyph-name="fiveinferior" unicode="&#x2085;" horiz-adv-x="593" 
d="M100 -246q-85 0 -141.5 24.5t-56.5 71.5q0 27 20 44.5t53 17.5q27 0 47.5 -15t31 -33t26 -33t33.5 -15q42 0 87.5 46.5t45.5 110.5q0 41 -24.5 76.5t-60 57.5t-71 38t-60.5 23l-24 6l111 422h323q21 0 42 2t32 4l10 2l-43 -149h-321l-29 -115q36 -13 70 -27.5t81.5 -43
t81 -60.5t58 -80.5t24.5 -101.5q0 -105 -103 -189t-243 -84z" />
    <glyph glyph-name="sixinferior" unicode="&#x2086;" horiz-adv-x="704" 
d="M225 -246q-129 0 -200.5 76t-71.5 201q0 74 24 152.5t75 155t121.5 137t173 97.5t220.5 37v-61q-104 -12 -184.5 -67t-126 -136.5t-68 -171t-22.5 -182.5q0 -174 74 -174q35 0 64.5 42.5t46 110t16.5 140.5q0 54 -16.5 83t-39.5 29h-12v66q22 8 63 8q103 0 160.5 -54.5
t57.5 -136.5q0 -85 -42.5 -164.5t-125.5 -133.5t-187 -54z" />
    <glyph glyph-name="seveninferior" unicode="&#x2087;" horiz-adv-x="598" 
d="M334 303l65 107q-55 -7 -127 -7h-110q-53 0 -69.5 -12t-51.5 -69h-61l90 274h448l92 4v-33q-55 -59 -80 -98l-372 -604q-37 -61 -62.5 -86t-58.5 -25q-30 0 -42.5 18t-12.5 38q0 10 5 21t16 25.5t20 24t26.5 28.5t26.5 28q102 111 258 366z" />
    <glyph glyph-name="eightinferior" unicode="&#x2088;" horiz-adv-x="686" 
d="M207 -246q-107 0 -191 48.5t-84 136.5q0 71 57 131.5t158 117.5q-96 100 -96 201q0 97 79.5 159t203.5 62q108 0 181 -46.5t73 -121.5q0 -61 -50.5 -107.5t-144.5 -96.5q59 -56 93 -111t34 -119q0 -107 -90.5 -180.5t-222.5 -73.5zM211 -182q58 0 90.5 38t32.5 85
q0 11 -2 22t-7.5 23.5t-9.5 21t-15 22t-16 20t-20 22t-20 20t-23 22t-22 21.5q-101 -75 -101 -184q0 -61 30 -97t83 -36zM242 446q0 -38 24.5 -74t71.5 -81q88 66 88 147q0 51 -27.5 79t-66.5 28q-42 0 -66 -30.5t-24 -68.5z" />
    <glyph glyph-name="nineinferior" unicode="&#x2089;" horiz-adv-x="698" 
d="M-14 -246v62q104 12 184.5 67t126 136.5t68 171t22.5 182.5q0 174 -74 174q-32 0 -60 -42.5t-44 -110t-16 -140.5q0 -53 15 -83t32 -30h14v-65q-23 -8 -64 -8q-99 0 -154.5 54t-55.5 136q0 85 42 164.5t123.5 133.5t182.5 54q129 0 200.5 -75.5t71.5 -200.5
q0 -61 -17.5 -126.5t-50.5 -130.5t-85.5 -123t-118.5 -103t-154.5 -71t-187.5 -26z" />
    <glyph glyph-name="Euro" unicode="&#x20ac;" horiz-adv-x="1097" 
d="M94 627v88h125q80 194 239 323t359 129q73 0 153.5 -17.5t124.5 -34.5l44 -17l-101 -230h-67q18 87 -25.5 151t-138.5 64q-82 0 -151 -55t-111.5 -134t-71.5 -179h510l-41 -88h-491q-18 -103 -19 -133h455l-41 -88h-416q2 -53 14 -99.5t36.5 -91.5t70 -71.5t106.5 -26.5
q51 0 114 16.5t101 33.5l37 17l21 -55l-16.5 -16.5t-47 -37t-76 -47t-102 -37t-127.5 -16.5q-96 0 -173 34.5t-126.5 94t-75.5 136.5t-28 166h-113v88h117q7 71 26 133h-94z" />
    <glyph glyph-name="trademark" unicode="&#x2122;" horiz-adv-x="1622" 
d="M326 813v53q33 1 52 16.5t19 37.5v387h-57q-41 0 -64.5 -22.5t-50.5 -90.5h-51l27 176q37 -4 80 -4h409l84 4l-26 -176h-50q0 66 -21 89.5t-69 23.5h-65v-387l-4 -46l94 -8l-2 -49zM791 813v53q26 1 41.5 14.5t17.5 34.5l16 355q1 29 -9 39.5t-48 21.5v35h74l180 4l4 -4
q13 -37 27 -76l71 -203l15 -53l102 275l21 57h24l191 4l4 -4q-3 -4 -8.5 -11.5t-13 -34.5t-5.5 -58l18 -349q1 -10 0 -21t-3 -16l-1 -6l86 -4l-4 -49l-297 -4v53q72 3 72 47l-14 373l-178 -471l-66 8l-168 461l-14 -369l-6 -45l88 -4l-4 -49z" />
    <glyph glyph-name="arrowleft" unicode="&#x2190;" horiz-adv-x="1292" 
d="M803 164q-335 341 -421.5 425.5t-131.5 115.5v10q42 29 125 110t428 432l92 -26q-111 -201 -254 -449h657v-145h-659q15 -27 46 -81t89 -155.5t121 -212.5z" />
    <glyph glyph-name="arrowup" unicode="&#x2191;" horiz-adv-x="1292" 
d="M711 164v704q-147 -87 -449 -254l-26 93q351 345 432 428t110 125h10q31 -45 115.5 -131.5t425.5 -421.5l-24 -93q-334 188 -449 256v-706h-145z" />
    <glyph glyph-name="arrowright" unicode="&#x2192;" horiz-adv-x="1292" 
d="M264 637v145h658q-87 147 -254 449l92 26q345 -351 428 -432t125 -110v-10q-45 -31 -131.5 -115.5t-421.5 -425.5l-92 24q213 378 256 449h-660z" />
    <glyph glyph-name="arrowdown" unicode="&#x2193;" horiz-adv-x="1292" 
d="M778 164q-29 42 -110 125t-432 428l26 92l449 -254v705h145v-707q67 39 449 256l24 -92q-341 -335 -425.5 -421.5t-115.5 -131.5h-10z" />
    <glyph glyph-name="partialdiff" unicode="&#x2202;" horiz-adv-x="1089" 
d="M51 393q0 89 31.5 173.5t88.5 153t147 110.5t198 42q147 0 246 -79q4 78 4 118q0 118 -19 211t-47 148t-66 90.5t-71.5 48t-66.5 12.5q-42 0 -105 -32.5t-100 -32.5t-60.5 20t-23.5 58q0 33 20.5 55.5t53 31t54 11t42.5 2.5q124 0 232.5 -40.5t185.5 -108.5t133 -156.5
t83 -186.5t27 -196q0 -54 -8 -122t-28 -152.5t-49.5 -166.5t-77.5 -160.5t-107 -138t-142.5 -95.5t-179.5 -36q-79 0 -145.5 24t-112 65t-77 95t-46 113t-14.5 121zM424 66q79 0 149.5 95t115.5 239t65 311q-66 34 -125 34q-70 0 -133 -51t-104.5 -127.5t-66 -162
t-24.5 -158.5q0 -80 31 -130t92 -50z" />
    <glyph glyph-name="Delta" unicode="&#x2206;" horiz-adv-x="1236" 
d="M-33 0v70l781 1296h88l235 -1296v-70h-1104zM135 123h678l-151 901z" />
    <glyph glyph-name="product" unicode="&#x220f;" horiz-adv-x="1540" 
d="M-20 -195v76q131 20 151 125l250 1254h-164v106h1401v-106h-158l-26 -25l-242 -1210q-6 -30 -14.5 -60.5t-13.5 -45.5l-5 -15l162 -19l-8 -67l-543 -13v76q62 9 102 40.5t50 84.5l252 1254h-502l-29 -25l-242 -1210q-6 -30 -14 -60.5t-13 -45.5l-5 -15l161 -19l-8 -67z
" />
    <glyph glyph-name="summation" unicode="&#x2211;" horiz-adv-x="1282" 
d="M-86 -190v71l674 678l-377 750v57h1014l-13 -317l-77 -15q-23 75 -41.5 114.5t-50.5 68.5t-74.5 38t-114.5 9h-315l305 -611l-611 -614h455q135 0 207.5 40t167.5 175h86l-184 -438h-723z" />
    <glyph glyph-name="minus" unicode="&#x2212;" 
d="M63 446v146h918v-146h-918z" />
    <glyph glyph-name="radical" unicode="&#x221a;" horiz-adv-x="1243" 
d="M68 778v144h393l82 -576l637 1190h155l-868 -1610h-4l-131 852h-264z" />
    <glyph glyph-name="infinity" unicode="&#x221e;" horiz-adv-x="1615" 
d="M408 172q-138 0 -237 99t-99 241t99 241t237 99q198 0 389 -234q196 234 393 234q138 0 237 -99t99 -241t-99 -241t-237 -99q-201 0 -393 234q-34 -42 -72 -79.5t-88 -74.5t-109.5 -58.5t-119.5 -21.5zM877 512q6 -8 18 -22.5t47.5 -50.5t71 -63.5t84.5 -50t92 -22.5
q72 0 129 61.5t57 147.5t-57 147.5t-129 61.5q-43 0 -91 -21.5t-86 -52.5t-69.5 -61.5t-49.5 -51.5zM408 303q43 0 91 21.5t85.5 52.5t69 61.5t48.5 51.5l17 22q-6 8 -17.5 22.5t-47 50.5t-70.5 63.5t-84 50t-92 22.5q-72 0 -129.5 -61.5t-57.5 -147.5t57.5 -147.5
t129.5 -61.5z" />
    <glyph glyph-name="integral" unicode="&#x222b;" horiz-adv-x="1099" 
d="M-14 -295q46 0 89 -29.5t77 -29.5q26 0 40.5 8.5t35 47t41.5 122.5t50 229q13 64 50 256.5t51 261.5q101 502 260.5 732.5t386.5 230.5q63 0 101 -23t38 -63q0 -52 -34 -77t-80 -25q-35 0 -81.5 29.5t-82.5 29.5q-21 0 -35.5 -9t-34 -40t-39.5 -102t-43 -185
q-14 -68 -43.5 -229t-48.5 -256q-115 -571 -270.5 -820t-403.5 -249q-62 0 -97.5 27t-35.5 69q0 46 35 70t74 24z" />
    <glyph glyph-name="approxequal" unicode="&#x2248;" 
d="M111 592l-78 113q59 59 140.5 102t164.5 43q59 0 112.5 -22.5t87 -49t77.5 -49t87 -22.5q62 0 122.5 31t105.5 79l80 -112q-57 -59 -140 -102.5t-168 -43.5q-59 0 -112.5 22.5t-87 49t-77.5 49t-87 22.5q-117 0 -227 -110zM111 205l-78 112q60 60 141 103t164 43
q59 0 112.5 -22.5t87 -49.5t77.5 -49.5t87 -22.5q62 0 122.5 31.5t105.5 79.5l80 -113q-57 -59 -140 -102t-168 -43q-59 0 -112.5 22.5t-87 49t-77.5 49t-87 22.5q-117 0 -227 -110z" />
    <glyph glyph-name="notequal" unicode="&#x2260;" 
d="M72 621v143h540l150 250l102 -62l-112 -188h217v-143h-301l-127 -215h428v-144h-514l-154 -260l-102 61l116 199h-243v144h329l127 215h-456z" />
    <glyph glyph-name="lessequal" unicode="&#x2264;" 
d="M43 657v95l872 417l41 -145l-686 -319l686 -340l-41 -144zM43 0v145h918v-145h-918z" />
    <glyph glyph-name="greaterequal" unicode="&#x2265;" 
d="M123 221l-41 144l686 340l-686 319l41 145l872 -417v-95zM78 0v145h917v-145h-917z" />
    </font>
</defs>
</svg>
