<?xml version="1.0" standalone="no"?>
<!DOCTYPE svg PUBLIC "-//W3C//DTD SVG 1.1//EN" "http://www.w3.org/Graphics/SVG/1.1/DTD/svg11.dtd" >
<svg xmlns="http://www.w3.org/2000/svg" xmlns:xlink="http://www.w3.org/1999/xlink" version="1.1">
<metadata>
Created by FontForge 20170731 at Sun Jul 26 01:35:12 2020
 By Aleksey,,,
(c) 2009 exljbris Font Foundry. All rights reserved.
</metadata>
<defs>
<font id="Calluna-Regular" horiz-adv-x="1024" >
  <font-face 
    font-family="Calluna"
    font-weight="400"
    font-stretch="normal"
    units-per-em="2048"
    panose-1="0 0 5 0 0 0 0 0 0 0"
    ascent="1536"
    descent="-512"
    x-height="930"
    cap-height="1374"
    bbox="-322 -514 2324 1925"
    underline-thickness="102"
    underline-position="-307"
    unicode-range="U+0020-FB06"
  />
<missing-glyph horiz-adv-x="1413" 
d="M246 301l82 -84l379 381l378 -381l82 84l-379 379l379 381l-80 84l-380 -383l-381 383l-80 -84l379 -381zM92 -109v1584h1229v-1584h-1229z" />
    <glyph glyph-name="f_b" unicode="fb" horiz-adv-x="1697" 
d="M76 -6v59q127 14 127 133v631h-129v62l129 45v55q0 233 116 372.5t322 139.5q100 0 174 -29q49 13 88.5 25.5t54.5 18.5l15 7l6 -6q-21 -75 -21 -233v-328q0 -42 -2 -79.5t-4 -54.5l-2 -17q54 67 121 109t170 42q120 0 208 -65.5t129.5 -165t41.5 -215.5q0 -99 -33 -191
t-96 -167.5t-166.5 -121t-232.5 -45.5q-60 0 -171.5 12.5t-142.5 12.5l-6 6q19 95 19 205v1016q0 40 -3 67q-29 6 -67.5 32.5t-82 48.5t-93.5 22q-90 0 -132 -84.5t-42 -278.5v-112h258l-17 -99h-221l-20 -20v-617q0 -27 -2.5 -54.5t-5.5 -41.5l-3 -14l215 -19l-8 -51z
M958 82q64 -29 150 -29q150 0 242 106.5t92 280.5q0 102 -30.5 188t-95.5 142.5t-153 56.5q-61 0 -119 -24t-86 -51v-670z" />
    <glyph glyph-name="f_f_b" unicode="ffb" horiz-adv-x="2283" 
d="M664 -6v59q127 14 127 133v637h-400l-20 -20v-617q0 -27 -2.5 -54.5t-5.5 -41.5l-3 -14l164 -19l-8 -51l-440 -12v59q127 14 127 133v631h-129v62l129 45v4q0 232 124.5 372t344.5 140q73 0 141.5 -21.5t99.5 -60.5q117 133 316 133q100 0 174 -29q49 13 88.5 25.5
t54.5 18.5l15 7l6 -6q-21 -75 -21 -233v-328q0 -42 -2 -79.5t-4 -54.5l-2 -17q54 67 121 109t170 42q120 0 208 -65.5t129.5 -165t41.5 -215.5q0 -99 -33 -191t-96.5 -167.5t-167 -121t-232.5 -45.5q-60 0 -171 12.5t-142 12.5l-6 6q18 90 18 205v1016q0 49 -2 67
q-29 6 -67.5 32.5t-82 48.5t-93.5 22q-90 0 -132.5 -84.5t-42.5 -278.5v-112h259l-17 -99h-221l-21 -20v-617q0 -27 -2.5 -54.5t-5.5 -41.5l-2 -14l215 -19l-8 -51zM1546 82q64 -29 150 -29q150 0 242 106.5t92 280.5q0 102 -30.5 188t-95.5 142.5t-153 56.5q-61 0 -119 -24
t-86 -51v-670zM371 983v-65h420v61q0 139 45 254q-32 5 -73.5 33.5t-88.5 54t-99 25.5q-104 0 -154 -84.5t-50 -278.5z" />
    <glyph glyph-name="f_f_h" unicode="ffh" horiz-adv-x="2344" 
d="M664 -6v59q127 14 127 133v637h-400l-20 -20v-617q0 -27 -2.5 -54.5t-5.5 -41.5l-3 -14l164 -19l-8 -51l-440 -12v59q127 14 127 133v631h-129v62l129 45v4q0 232 124.5 372t344.5 140q73 0 141.5 -21.5t99.5 -60.5q117 133 316 133q100 0 174 -29q49 13 88.5 25.5
t54.5 18.5l15 7l6 -6q-21 -75 -21 -233v-397q0 -41 -2 -75.5t-4 -53.5t-2 -23q63 91 166.5 156t222.5 65q234 0 234 -276v-484q0 -27 -2.5 -54.5t-5.5 -41.5l-3 -14l174 -19l-8 -51l-450 -12v59q127 14 127 133v439q0 109 -37 152.5t-105 43.5q-70 0 -155 -38.5t-150 -100.5
v-496q0 -27 -2.5 -54.5t-5.5 -41.5l-2 -14l174 -19l-8 -51l-451 -12v59q127 14 127 133v1041q0 49 -2 67q-29 6 -67.5 32.5t-82 48.5t-93.5 22q-90 0 -132.5 -84.5t-42.5 -278.5v-112h259l-17 -99h-221l-21 -20v-617q0 -27 -2.5 -54.5t-5.5 -41.5l-2 -14l164 -19l-8 -51z
M371 983v-65h420v61q0 139 45 254q-32 5 -73.5 33.5t-88.5 54t-99 25.5q-104 0 -154 -84.5t-50 -278.5z" />
    <glyph glyph-name="f_f_j" unicode="ffj" horiz-adv-x="1695" 
d="M664 -6v59q127 14 127 133v637h-400l-20 -20v-617q0 -27 -2.5 -54.5t-5.5 -41.5l-3 -14l164 -19l-8 -51l-440 -12v59q127 14 127 133v631h-129v62l129 45v4q0 232 124.5 372t344.5 140q73 0 142.5 -21.5t98.5 -60.5q123 133 326 133q92 0 166 -31t74 -90
q0 -31 -23.5 -54.5t-62.5 -23.5q-33 0 -71 26t-83 52.5t-96 26.5q-95 0 -140 -84.5t-45 -278.5v-116h306q191 0 303 57l2 -6q-23 -60 -23 -226v-686q0 -257 -94.5 -399.5t-265.5 -142.5l-25 49q86 12 151.5 123.5t65.5 263.5v733q0 38 -1 58t-6 41.5t-16 30.5t-30 9h-346
l-21 -20v-617q0 -27 -2.5 -54.5t-5.5 -41.5l-2 -14l215 -19l-8 -51zM371 983v-65h420v61q0 142 47 254q-27 4 -59 22.5t-57.5 38.5t-65 36t-81.5 16q-104 0 -154 -84.5t-50 -278.5z" />
    <glyph glyph-name="f_f_k" unicode="ffk" horiz-adv-x="2252" 
d="M664 -6v59q127 14 127 133v637h-400l-20 -20v-617q0 -27 -2.5 -54.5t-5.5 -41.5l-3 -14l164 -19l-8 -51l-440 -12v59q127 14 127 133v631h-129v62l129 45v4q0 232 124.5 372t344.5 140q73 0 141.5 -21.5t99.5 -60.5q117 133 316 133q100 0 174 -29q49 13 88.5 25.5
t54.5 18.5l15 7l6 -6q-21 -75 -21 -233v-727h25l207 174q3 3 16.5 14.5t18.5 16t15.5 15t14.5 17.5t8 16.5t4 18.5q0 33 -67 51v52h375l10 -33q-13 -3 -35.5 -10.5t-79.5 -37t-100 -65.5l-238 -203v-20q19 -27 33 -41l303 -328q70 -76 100 -96.5t85 -24.5l22 -2l-8 -61
l-295 -6q-25 75 -84 141l-305 344h-25v-293q0 -27 -2.5 -54.5t-5.5 -41.5l-2 -14l164 -19l-8 -51l-441 -12v59q127 14 127 133v1041q0 49 -2 67q-29 6 -67.5 32.5t-82 48.5t-93.5 22q-90 0 -132.5 -84.5t-42.5 -278.5v-112h259l-17 -99h-221l-21 -20v-617q0 -27 -2.5 -54.5
t-5.5 -41.5l-2 -14l164 -19l-8 -51zM371 983v-65h420v61q0 139 45 254q-32 5 -73.5 33.5t-88.5 54t-99 25.5q-104 0 -154 -84.5t-50 -278.5z" />
    <glyph glyph-name="f_h" unicode="fh" horiz-adv-x="1757" 
d="M664 -6v59q127 14 127 133v1041q0 40 -3 67q-29 6 -67.5 32.5t-82 48.5t-93.5 22q-90 0 -132 -84.5t-42 -278.5v-112h258l-17 -99h-221l-20 -20v-617q0 -27 -2.5 -54.5t-5.5 -41.5l-3 -14l164 -19l-8 -51l-440 -12v59q127 14 127 133v631h-129v62l129 45v55
q0 233 116 372.5t322 139.5q100 0 174 -29q49 13 88.5 25.5t54.5 18.5l15 7l6 -6q-21 -75 -21 -233v-397q0 -41 -2 -75.5t-4 -53t-2 -23.5q63 91 166.5 156t222.5 65q234 0 234 -276v-484q0 -27 -2.5 -54.5t-4.5 -41.5l-3 -14l174 -19l-8 -51l-451 -12v59q127 14 127 133
v439q0 110 -36.5 153t-104.5 43q-71 0 -156.5 -39t-149.5 -100v-496q0 -27 -2.5 -54.5t-5.5 -41.5l-2 -14l174 -19l-8 -51z" />
    <glyph glyph-name="f_k" unicode="fk" horiz-adv-x="1665" 
d="M664 -6v59q127 14 127 133v1041q0 40 -3 67q-29 6 -67.5 32.5t-82 48.5t-93.5 22q-90 0 -132 -84.5t-42 -278.5v-112h258l-17 -99h-221l-20 -20v-617q0 -27 -2.5 -54.5t-5.5 -41.5l-3 -14l164 -19l-8 -51l-440 -12v59q127 14 127 133v631h-129v62l129 45v55
q0 233 116 372.5t322 139.5q100 0 174 -29q49 13 88.5 25.5t54.5 18.5l15 7l6 -6q-21 -75 -21 -233v-727h25l207 174q4 4 16.5 14.5t18.5 16t16 15.5t14.5 17t8.5 16.5t4 18.5q0 33 -68 51v52h375l10 -33q-13 -3 -35.5 -10.5t-79.5 -37t-100 -65.5l-237 -203v-20
q18 -27 32 -41l303 -328q70 -76 100 -96.5t85 -24.5l22 -2l-8 -61l-295 -6q-25 75 -84 141l-305 344h-25v-293q0 -27 -2.5 -54.5t-5.5 -41.5l-2 -14l164 -19l-8 -51z" />
    <glyph glyph-name="ff" unicode="ff" horiz-adv-x="1257" 
d="M664 -6v59q127 14 127 133v637h-400l-20 -20v-617q0 -27 -2.5 -54.5t-5.5 -41.5l-3 -14l164 -19l-8 -51l-440 -12v59q127 14 127 133v631h-129v62l129 45v4q0 232 124.5 372t344.5 140q72 0 139.5 -20.5t97.5 -57.5q113 129 299 129q85 0 152 -31t67 -90
q0 -31 -23.5 -54.5t-62.5 -23.5q-24 0 -51.5 16.5t-49 36t-56.5 36t-72 16.5q-80 0 -117 -84.5t-37 -278.5v-112h289l-16 -99h-252l-21 -20v-617q0 -27 -2.5 -54.5t-5.5 -41.5l-2 -14l215 -19l-8 -51zM371 983v-65h420v61q0 144 43 254q-32 5 -73 34t-87.5 54t-98.5 25
q-104 0 -154 -84.5t-50 -278.5z" />
    <glyph glyph-name="fi" unicode="fi" horiz-adv-x="1150" 
d="M76 -6v59q127 14 127 133v631h-129v62l129 45v55q0 233 118.5 372.5t329.5 139.5q92 0 166 -31t74 -90q0 -31 -23.5 -54.5t-62.5 -23.5q-33 0 -71 26t-83 52.5t-96 26.5q-94 0 -139 -84.5t-45 -278.5v-116h305q191 0 303 57l2 -6q-23 -68 -23 -234v-549q0 -27 -2.5 -54.5
t-5.5 -41.5l-2 -14l174 -19l-8 -51l-450 -12v59q127 14 127 133v498q0 39 -1.5 60t-7.5 41.5t-18.5 29t-34.5 8.5h-338l-20 -20v-617q0 -27 -2.5 -54.5t-5.5 -41.5l-3 -14l164 -19l-8 -51z" />
    <glyph glyph-name="fl" unicode="fl" horiz-adv-x="1153" 
d="M664 -6v59q127 14 127 133v1041q0 40 -3 67q-29 6 -67.5 32.5t-82 48.5t-93.5 22q-90 0 -132 -84.5t-42 -278.5v-112h258l-17 -99h-221l-20 -20v-617q0 -27 -2.5 -54.5t-5.5 -41.5l-3 -14l164 -19l-8 -51l-440 -12v59q127 14 127 133v631h-129v62l129 45v55
q0 233 116 372.5t322 139.5q100 0 174 -29q49 13 88.5 25.5t54.5 18.5l15 7l6 -6q-21 -75 -21 -233v-1088q0 -27 -2.5 -54.5t-5.5 -41.5l-2 -14l174 -19l-8 -51z" />
    <glyph glyph-name="f_f_i" unicode="ffi" horiz-adv-x="1738" 
d="M664 -6v59q127 14 127 133v637h-400l-20 -20v-617q0 -27 -2.5 -54.5t-5.5 -41.5l-3 -14l164 -19l-8 -51l-440 -12v59q127 14 127 133v631h-129v62l129 45v4q0 230 125 370t338 140q78 0 148.5 -19.5t100.5 -60.5q120 133 324 133q92 0 165 -30t73 -89q0 -32 -22.5 -56
t-61.5 -24q-33 0 -71 26t-83 52.5t-96 26.5q-95 0 -140 -84.5t-45 -278.5v-116h306q186 0 303 57l2 -6q-23 -68 -23 -234v-549q0 -27 -2.5 -54.5t-5.5 -41.5l-2 -14l174 -19l-8 -51l-451 -12v59q127 14 127 133v498q0 38 -1 58t-6 41.5t-16 30.5t-30 9h-346l-21 -20v-617
q0 -27 -2.5 -54.5t-5.5 -41.5l-2 -14l164 -19l-8 -51zM371 983v-65h420v61q0 145 45 252q-23 4 -52 23t-53.5 38.5t-66.5 35t-89 15.5q-104 0 -154 -84t-50 -276z" />
    <glyph glyph-name="f_f_l" unicode="ffl" horiz-adv-x="1740" 
d="M664 -6v59q127 14 127 133v637h-400l-20 -20v-617q0 -27 -2.5 -54.5t-5.5 -41.5l-3 -14l164 -19l-8 -51l-440 -12v59q127 14 127 133v631h-129v62l129 45v4q0 232 124.5 372t344.5 140q73 0 141.5 -21.5t99.5 -60.5q117 133 316 133q100 0 174 -29q49 13 88.5 25.5
t54.5 18.5l15 7l6 -6q-21 -75 -21 -233v-1088q0 -27 -2.5 -54.5t-5.5 -41.5l-2 -14l174 -19l-8 -51l-451 -12v59q127 14 127 133v1041q0 49 -2 67q-29 6 -67.5 32.5t-82 48.5t-93.5 22q-90 0 -132.5 -84.5t-42.5 -278.5v-112h259l-17 -99h-221l-21 -20v-617
q0 -27 -2.5 -54.5t-5.5 -41.5l-2 -14l164 -19l-8 -51zM371 983v-65h420v61q0 139 45 254q-32 5 -73.5 33.5t-88.5 54t-99 25.5q-104 0 -154 -84.5t-50 -278.5z" />
    <glyph glyph-name="f_j" unicode="fj" horiz-adv-x="1107" 
d="M76 -6v59q127 14 127 133v631h-129v62l129 45v55q0 233 118.5 372.5t329.5 139.5q92 0 166 -31t74 -90q0 -31 -23.5 -54.5t-62.5 -23.5q-33 0 -71 26t-83 52.5t-96 26.5q-94 0 -139 -84.5t-45 -278.5v-116h305q186 0 303 57l2 -6q-23 -60 -23 -226v-686
q0 -257 -94.5 -399.5t-265.5 -142.5l-25 49q86 12 152 123.5t66 263.5v733q0 39 -1.5 60t-7.5 41.5t-18.5 29t-34.5 8.5h-338l-20 -20v-617q0 -27 -2.5 -54.5t-5.5 -41.5l-3 -14l215 -19l-8 -51z" />
    <glyph glyph-name=".notdef" horiz-adv-x="1413" 
d="M246 301l82 -84l379 381l378 -381l82 84l-379 379l379 381l-80 84l-380 -383l-381 383l-80 -84l379 -381zM92 -109v1584h1229v-1584h-1229z" />
    <glyph glyph-name=".null" horiz-adv-x="0" 
 />
    <glyph glyph-name="nonmarkingreturn" horiz-adv-x="682" 
 />
    <glyph glyph-name="space" unicode=" " horiz-adv-x="460" 
 />
    <glyph glyph-name="exclam" unicode="!" horiz-adv-x="565" 
d="M254 360l-90 983q81 22 140 40.5t78 26.5l19 7l7 -6q-23 -65 -35 -221l-68 -830h-51zM154 98q0 51 35.5 87t86.5 36t87 -36t36 -87t-36 -87t-87 -36t-86.5 36t-35.5 87z" />
    <glyph glyph-name="quotedbl" unicode="&#x22;" horiz-adv-x="700" 
d="M127 883v483h166v-76l-88 -407h-78zM446 883v483h166v-76l-88 -407h-78z" />
    <glyph glyph-name="numbersign" unicode="#" horiz-adv-x="1296" 
d="M655 -182l93 448h-332l-90 -448h-101l92 448h-258l17 92h260l63 312h-262l17 92h264l88 422h98l-88 -422h332l88 422h98l-88 -422h285l-17 -92h-286l-64 -312h289l-16 -92h-291l-90 -448h-101zM498 670l-64 -312h332l63 312h-331z" />
    <glyph glyph-name="dollar" unicode="$" horiz-adv-x="901" 
d="M74 174q0 11 3 25.5t6.5 27t14 47.5t19.5 64h63q0 -132 58 -198t151 -79l17 428q-45 22 -66.5 33.5t-61.5 35t-61 40.5t-49.5 45t-42.5 55t-24.5 62.5t-10.5 75.5q0 121 89 207t253 100l8 180h82l-8 -176q109 -2 291 -35l-57 -287h-64q9 99 -34.5 167.5t-137.5 78.5
l-16 -414q141 -70 193 -107q139 -102 140 -251q0 -139 -101.5 -219.5t-260.5 -91.5l-6 -170h-82l6 170q-80 3 -148 23t-115.5 62.5t-47.5 100.5zM668 231q0 71 -47.5 121.5t-133.5 96.5l-16 -390q85 8 141 51.5t56 120.5zM250 901q0 -66 42.5 -113.5t121.5 -91.5l16 373
q-80 -9 -130 -52.5t-50 -115.5z" />
    <glyph glyph-name="percent" unicode="%" horiz-adv-x="1468" 
d="M66 1038q0 127 90.5 217.5t218.5 90.5t218.5 -90.5t90.5 -217.5t-90.5 -217t-218.5 -90t-218.5 90t-90.5 217zM176 1038q0 -86 58.5 -148.5t140.5 -62.5t140 62.5t58 148.5t-58 148.5t-140 62.5t-140.5 -62.5t-58.5 -148.5zM205 0l956 1376l80 -55l-919 -1321h-117z
M791 281q0 127 90.5 217t218.5 90t218.5 -90t90.5 -217t-90.5 -217.5t-218.5 -90.5t-218.5 90.5t-90.5 217.5zM901 281q0 -86 58.5 -148.5t140.5 -62.5t140 62.5t58 148.5t-58 148.5t-140 62.5t-140.5 -62.5t-58.5 -148.5z" />
    <glyph glyph-name="ampersand" unicode="&#x26;" horiz-adv-x="1347" 
d="M76 315q0 53 18.5 101.5t44 84t72.5 76.5t82 66t94 64q-125 223 -125 374q0 59 19 112.5t57.5 98.5t105 72t152.5 27q139 0 216 -72t77 -176q0 -52 -18 -101t-44 -87t-70.5 -80.5t-81.5 -71t-93 -68.5q136 -226 352 -452q80 99 126 220t46 236q0 61 -33 92t-100 39v52
h293l10 -31q-12 -22 -21.5 -46t-15.5 -42t-16.5 -54t-18.5 -59q-44 -138 -94 -253t-123 -210q205 -211 326 -270l-29 -43q-185 29 -401 201q-167 -140 -394 -140q-76 0 -147.5 20.5t-132 60.5t-97 107t-36.5 152zM545 74q142 0 272 96q-232 206 -393 473
q-83 -61 -127.5 -123.5t-44.5 -136.5q0 -148 82.5 -228.5t210.5 -80.5zM436 1130q0 -131 109 -331q168 140 168 303q0 52 -11.5 97t-46.5 81.5t-90 36.5q-59 0 -94 -53t-35 -134z" />
    <glyph glyph-name="quotesingle" unicode="'" horiz-adv-x="380" 
d="M127 883v483h162v-76l-76 -407h-86z" />
    <glyph glyph-name="parenleft" unicode="(" horiz-adv-x="577" 
d="M92 553q0 110 18 216.5t46.5 188.5t63.5 156t70 126t63.5 90t46.5 56l18 19l69 -25q-10 -14 -26 -39.5t-57.5 -110.5t-73.5 -175.5t-58 -227.5t-26 -274q0 -110 16 -217.5t41.5 -192.5t56 -162t61.5 -132t56.5 -96t41.5 -61l16 -20l-66 -30q-8 7 -21.5 20.5t-52.5 60
t-75 98t-79.5 133.5t-74.5 168t-52.5 200t-21.5 231z" />
    <glyph glyph-name="parenright" unicode=")" horiz-adv-x="577" 
d="M43 -328q12 14 31.5 40.5t69 114.5t88 184t69.5 244t31 298q0 137 -25 272.5t-60.5 231t-71 172t-60.5 113.5l-25 38l70 25q13 -13 35 -37t78 -107.5t99 -175t78 -236.5t35 -296q0 -117 -20.5 -230.5t-54 -201.5t-73.5 -167t-80 -134.5t-73.5 -96.5t-53.5 -61l-21 -20z
" />
    <glyph glyph-name="asterisk" unicode="*" horiz-adv-x="1009" 
d="M422 1352q-7 26 22 41.5t60 15.5t60 -15.5t22 -41.5l-62 -240q-3 -12 -8 -23t-8 -15l-4 -5q-15 16 -21 43zM504 573q-31 0 -60 16t-22 42l61 239q3 12 8 23t9 15l4 5q14 -16 20 -43l62 -239q7 -26 -22 -42t-60 -16zM152 1100q-18 5 -23.5 24t-1 39.5t13.5 36.5t24.5 30.5
t34 20.5t33.5 -8l177 -174q9 -8 15.5 -17.5t8.5 -15.5l2 -6q-20 -4 -47 4zM774 739l-176 174q-9 8 -15.5 17.5t-8.5 15.5l-3 6q20 4 47 -4l238 -65q18 -5 23 -24.5t0.5 -40t-13.5 -36.5t-24.5 -30.5t-34 -20.5t-33.5 8zM233 741q-15 -15 -34 -9t-34 20t-24 30t-13.5 36.5
t0.5 40t22 24.5l239 65q12 4 23.5 5t17.5 0l6 -1q-6 -21 -26 -39zM571 1030q7 21 27 39l176 172q15 15 34 9t34 -20t24 -30t13.5 -36.5t0 -39.5t-21.5 -24l-240 -66q-12 -4 -24 -5t-18 0z" />
    <glyph glyph-name="plus" unicode="+" horiz-adv-x="1064" 
d="M74 457v112h401v430h121v-430h395v-112h-395v-457h-121v457h-401z" />
    <glyph glyph-name="comma" unicode="," horiz-adv-x="473" 
d="M113 88v72l157 84q92 -95 92 -230q0 -82 -29.5 -151t-70 -114t-106.5 -99l-52 53q67 57 104.5 107.5t37.5 109.5q0 93 -133 168z" />
    <glyph glyph-name="hyphen" unicode="-" horiz-adv-x="737" 
d="M127 444v136h483v-136h-483z" />
    <glyph glyph-name="period" unicode="." horiz-adv-x="479" 
d="M117 98q0 51 36 87t87 36t86.5 -36t35.5 -87t-35.5 -87t-86.5 -36t-87 36t-36 87z" />
    <glyph glyph-name="slash" unicode="/" horiz-adv-x="720" 
d="M-53 -401l682 1767h131l-680 -1767h-133z" />
    <glyph glyph-name="zero" unicode="0" horiz-adv-x="1157" 
d="M578 72q87 0 154 61t99.5 154.5t32.5 201.5q0 102 -33 192.5t-99.5 150t-151.5 59.5q-87 0 -154 -60t-100 -151.5t-33 -194.5q0 -106 33.5 -199.5t99.5 -153.5t152 -60zM119 467q0 100 30.5 191.5t87.5 165.5t149.5 118.5t207.5 44.5q86 0 159 -26.5t125 -72t88.5 -106.5
t54 -130.5t17.5 -143.5q0 -100 -30.5 -193.5t-87.5 -170t-150 -123t-207 -46.5q-86 0 -159 27.5t-125 75t-88.5 110.5t-54 134t-17.5 145z" />
    <glyph glyph-name="one" unicode="1" horiz-adv-x="755" 
d="M119 -10v69q97 0 134.5 29.5t37.5 101.5v582q0 71 -37 96t-145 25v70h536l-8 -66l-182 -23v-684q0 -27 -2.5 -54t-5.5 -40l-3 -14l211 -21l-8 -61z" />
    <glyph glyph-name="two" unicode="2" horiz-adv-x="960" 
d="M121 0l-17 63q4 4 49.5 44t58.5 52t57 53.5t62 61t56 61t55.5 67.5t43.5 66t38 71t21.5 68t9.5 71q0 91 -50.5 134.5t-127.5 43.5q-58 0 -121 -24t-115 -62l-39 45q5 7 15 18.5t44 41t72 52.5t98 41.5t122 18.5q73 0 136.5 -26.5t107.5 -86.5t44 -143q0 -224 -430 -586
h297q50 0 86.5 13.5t59.5 42t34.5 52.5t26.5 66h59l-63 -319h-690z" />
    <glyph glyph-name="three" unicode="3" horiz-adv-x="823" 
d="M57 -324q64 0 126.5 10.5t127 38t112.5 68t78.5 107t30.5 149.5q0 54 -18.5 96.5t-48 68.5t-70 43t-81 23.5t-85.5 6.5l-59 -4v96q75 7 147.5 47.5t122 111.5t49.5 152q0 79 -44 129.5t-126 50.5q-54 0 -112 -25t-89 -50l-32 -25l-39 45q5 7 15 18.5t43 41t69.5 52.5
t93 41.5t115.5 18.5q127 0 210 -69t83 -185q0 -76 -52.5 -151.5t-120.5 -125.5t-138 -79q165 -17 260.5 -97.5t95.5 -199.5q0 -98 -39 -179.5t-101.5 -135.5t-143 -91.5t-162.5 -54t-162 -16.5l-43 2z" />
    <glyph glyph-name="four" unicode="4" horiz-adv-x="1046" 
d="M59 70l-14 61l617 827l108 33l4 -6q-16 -78 -16 -223v-572h225l-25 -120h-200v-338q0 -36 -2.5 -64t-5.5 -38l-2 -11l-158 -16l-8 6q10 38 10 112v349h-533zM193 190h399v414q0 55 8 133z" />
    <glyph glyph-name="five" unicode="5" horiz-adv-x="839" 
d="M86 -324q210 0 348.5 102.5t138.5 256.5q0 63 -26.5 116.5t-68.5 88t-93 62t-101.5 41.5t-92.5 23.5t-69 11.5l-26 3l31 582h432q36 0 71.5 3t53.5 6l18 3l-28 -158h-471l-17 -291q12 -1 32 -4.5t79 -18t112 -34t118 -56.5t112 -82.5t79 -114.5t32 -150q0 -126 -84 -234
t-220 -168.5t-288 -60.5l-60 2z" />
    <glyph glyph-name="six" unicode="6" horiz-adv-x="1052" 
d="M547 -25q-106 0 -190 48t-136.5 131.5t-80 189.5t-27.5 227q0 101 20 199t59 190t101 170t141 136.5t184 91.5t226 33l12 -72q-116 -7 -211 -53t-158 -117t-106.5 -163.5t-62.5 -190.5t-19 -201q0 -144 33 -268t97 -202.5t146 -78.5q68 0 119.5 51.5t76 127.5t24.5 161
q0 65 -12 127t-38 119t-66.5 92.5t-97 47.5t-130.5 -17l-15 65q86 51 191 51q86 0 154 -34.5t109 -93.5t62 -133.5t21 -159.5q0 -87 -27.5 -170t-79 -151.5t-135 -110.5t-184.5 -42z" />
    <glyph glyph-name="seven" unicode="7" horiz-adv-x="970" 
d="M272 -188q45 70 75.5 120.5t109 200.5t166.5 344l149 330q-78 -8 -133 -8h-311q-99 0 -126 -10q-39 -14 -64 -68q-10 -21 -21 -53h-60l60 295h676q36 0 68.5 2t47.5 4l15 2l10 -56q-69 -93 -100 -165l-433 -973q-7 -17 -19.5 -45.5t-17.5 -40t-14.5 -30.5t-16 -26.5
t-16 -16.5t-20 -12t-23.5 -3q-37 0 -54 19.5t-17 47.5q0 9 1 16t4 16.5t5.5 15t10 18.5t12 20t17 26t19.5 30z" />
    <glyph glyph-name="eight" unicode="8" horiz-adv-x="1036" 
d="M111 317q0 71 22.5 131.5t66.5 109.5t88 84t107 75q-72 60 -118.5 109t-81.5 116.5t-35 136.5q0 134 107.5 223t275.5 89q153 0 246.5 -78.5t93.5 -206.5q0 -51 -17.5 -97.5t-39.5 -78t-65.5 -67.5t-70 -54t-78.5 -51q47 -37 67.5 -54t61.5 -53t61 -58t49 -57t42.5 -64
t24 -65.5t10.5 -72.5q0 -144 -123 -251.5t-301 -107.5q-73 0 -140.5 20t-125 59.5t-92.5 107.5t-35 155zM276 342q0 -136 69 -215.5t169 -79.5q58 0 113.5 26.5t94 81t38.5 124.5q0 53 -22.5 104t-66 97.5t-88 85.5t-106.5 88q-17 13 -26 20q-175 -134 -175 -332zM328 1124
q0 -84 58.5 -157t170.5 -164q160 119 160 289q0 107 -55 167t-134 60q-76 0 -138 -54t-62 -141z" />
    <glyph glyph-name="nine" unicode="9" horiz-adv-x="1079" 
d="M231 -326q116 7 211 51.5t158 113t106.5 158t62.5 185.5t19 197q0 141 -33 263t-97 199t-146 77q-63 0 -112 -51.5t-73 -128t-24 -160.5q0 -60 11.5 -119.5t37 -116.5t64.5 -93t94 -48t127 18l14 -65q-88 -52 -190 -52q-109 0 -187 59t-113.5 150.5t-35.5 202.5
q0 87 27.5 170t78.5 151.5t132 110t178 41.5q106 0 190 -47.5t136.5 -129t80 -186t27.5 -223.5q0 -120 -28 -234t-87 -216.5t-143.5 -179.5t-206.5 -122.5t-266 -45.5z" />
    <glyph glyph-name="colon" unicode=":" horiz-adv-x="561" 
d="M158 799q0 51 36 87t87 36t86.5 -36t35.5 -87t-35.5 -87t-86.5 -36t-87 36t-36 87zM158 98q0 51 36 87t87 36t86.5 -36t35.5 -87t-35.5 -87t-86.5 -36t-87 36t-36 87z" />
    <glyph glyph-name="semicolon" unicode=";" horiz-adv-x="555" 
d="M158 88v72l157 84q93 -96 93 -230q0 -62 -15 -115t-46 -97.5t-64 -78t-82 -73.5l-51 53q67 56 104 106.5t37 110.5q0 93 -133 168zM154 799q0 51 35.5 87t86.5 36t87 -36t36 -87t-36 -87t-87 -36t-86.5 36t-35.5 87z" />
    <glyph glyph-name="less" unicode="&#x3c;" horiz-adv-x="1064" 
d="M57 463v94l873 469l31 -119l-756 -397l756 -418l-31 -117z" />
    <glyph glyph-name="equal" unicode="=" horiz-adv-x="1064" 
d="M74 651v113h917v-113h-917zM74 262v113h917v-113h-917z" />
    <glyph glyph-name="greater" unicode="&#x3e;" horiz-adv-x="1064" 
d="M102 92l756 418l-756 397l31 119l873 -469v-94l-873 -488z" />
    <glyph glyph-name="question" unicode="?" horiz-adv-x="718" 
d="M248 360q-10 46 -10 103q0 77 26 147t63 119.5t73.5 92t62.5 82t26 71.5q0 39 -40.5 82t-97.5 77t-114.5 62t-98.5 44l-40 15l33 181q11 -4 31 -11.5t76.5 -31.5t108.5 -50t115 -65t108.5 -77.5t76.5 -86.5t31 -94q0 -34 -21 -71t-54.5 -72.5t-74 -75t-80.5 -86
t-73.5 -97.5t-54.5 -118t-21 -140h-51zM158 98q0 51 36 87t87 36t86.5 -36t35.5 -87t-35.5 -87t-86.5 -36t-87 36t-36 87z" />
    <glyph glyph-name="at" unicode="@" horiz-adv-x="1675" 
d="M594 387q0 -145 47 -213t115 -68q87 0 200 109v633q-8 0 -21 -2t-50.5 -13t-71.5 -28t-76 -52.5t-72 -81.5t-50.5 -120t-20.5 -164zM72 377q0 166 65.5 320.5t176 269t264 183.5t321.5 69q192 0 349 -86t247 -239t90 -341q0 -73 -13.5 -143t-45.5 -138.5t-79 -123
t-119 -93.5t-161 -51l-215 -31l-4 9q17 59 17 110v80q-48 -91 -121 -144t-156 -53q-113 0 -192.5 96.5t-79.5 266.5q0 122 44.5 232t119 189t176.5 125t213 46q108 0 182 -19q-27 -98 -27 -180v-549q0 -51 17.5 -73.5t56.5 -22.5q22 0 46.5 7.5t53.5 23.5t54 47t46 73
t33.5 106t12.5 142q0 183 -65 326t-196.5 228t-312.5 85q-193 0 -343 -96t-230 -259t-80 -363q0 -146 44.5 -270t119.5 -207t171.5 -132t201.5 -55l-21 -82q-186 8 -338 105t-237.5 258.5t-85.5 353.5z" />
    <glyph glyph-name="A" unicode="A" horiz-adv-x="1275" 
d="M-27 0v59q106 10 138 93l485 1208l84 18l455 -1163q20 -51 37.5 -82t37.5 -46.5t36 -21.5t44 -10l-8 -55h-88l-311 -6v69q50 2 76 20t10 60l-125 328h-490l-26 -20l-142 -369l174 -25l-8 -57h-379zM635 1024q-26 66 -41 125l-227 -592h444z" />
    <glyph glyph-name="B" unicode="B" horiz-adv-x="1234" 
d="M111 -6v65q70 8 108.5 40t38.5 87v979q0 54 -9.5 77.5t-43.5 40t-115 32.5v51h479q243 0 360.5 -83.5t117.5 -215.5q0 -107 -68.5 -191.5t-175.5 -144.5q37 -8 73.5 -19.5t88.5 -38.5t89.5 -62.5t65 -94t27.5 -129.5q0 -170 -144 -278.5t-411 -108.5h-184zM428 80h131
q91 0 159.5 15.5t110 41t67 62.5t35 74.5t9.5 82.5q0 309 -419 308h-7h-55l-21 -21v-450q0 -27 -2.5 -55.5t-5.5 -43.5zM438 743h211q75 4 136 94.5t61 190.5q0 48 -16.5 92t-49.5 82t-91 61t-134 23h-96l-21 -20v-523z" />
    <glyph glyph-name="C" unicode="C" horiz-adv-x="1390" 
d="M92 668q0 155 55.5 289t154 229.5t238 150t302.5 54.5q92 0 264.5 -24t177.5 -24l-61 -311h-70q0 76 -30 133t-81.5 88t-110 45.5t-124.5 14.5q-154 0 -274.5 -77t-185 -210.5t-64.5 -298.5q0 -136 45.5 -251.5t124.5 -195t188 -124.5t233 -45q72 0 140.5 15t115.5 36.5
t84 42.5t54 36l18 15l29 -43q-3 -5 -9.5 -13.5t-29.5 -33.5t-49.5 -47.5t-71 -49.5t-93.5 -47t-116.5 -33.5t-140.5 -13.5q-138 0 -265.5 47t-227.5 133t-160 219.5t-60 293.5z" />
    <glyph glyph-name="D" unicode="D" horiz-adv-x="1527" 
d="M111 -6v65q70 8 108.5 40t38.5 87v979q0 54 -9.5 77.5t-43.5 40t-115 32.5v51h561q125 0 234.5 -19t211.5 -65t175 -117t116.5 -181.5t43.5 -250.5q0 -228 -108 -394.5t-301.5 -252.5t-449.5 -86h-165zM428 80h145q140 0 251.5 30.5t186.5 84.5t124.5 131t71.5 166
t22 194q0 277 -152 438.5t-434 161.5h-184l-21 -20v-1071q0 -27 -2.5 -56t-5.5 -44z" />
    <glyph glyph-name="E" unicode="E" horiz-adv-x="1198" 
d="M111 -6v65q70 8 108.5 40t38.5 87v979q0 54 -9.5 77.5t-43.5 40t-115 32.5v51h844q37 0 74 2t55 4l18 2l-63 -342h-70q4 79 -6.5 128.5t-39.5 77.5t-69.5 38t-105.5 10h-268l-21 -20v-533h379l17 117l75 12v-360h-96v151h-354l-21 -20v-438q0 -27 -2.5 -56t-5.5 -44
l-2 -15h322q46 0 76.5 3t58 16t44.5 26.5t39.5 48t38.5 66.5t46 94h69l-75 -334h-639z" />
    <glyph glyph-name="F" unicode="F" horiz-adv-x="1087" 
d="M111 -6v65q69 8 108 43.5t39 90.5v972q0 54 -9.5 77.5t-43.5 40t-115 32.5v51h823q37 0 74 2t55 4l19 2l-64 -342h-69q4 79 -6.5 128.5t-39.5 77.5t-69.5 38t-105.5 10h-248l-21 -20v-543h365l16 117l76 12v-360h-96v151h-340l-21 -20v-430q0 -27 -2.5 -55t-5.5 -42
l-2 -14l225 -19l-8 -57z" />
    <glyph glyph-name="G" unicode="G" horiz-adv-x="1458" 
d="M94 655q0 112 28 217.5t89 200t148.5 165t215 112t279.5 41.5q77 0 173.5 -9.5t182.5 -22t103 -13.5l-62 -314h-69q-1 65 -21.5 115.5t-53 81t-78 50t-91.5 27t-98 7.5q-105 0 -194 -32.5t-153 -89.5t-109 -134t-67 -167t-22 -188q0 -184 78 -329.5t221.5 -227.5
t329.5 -82q88 0 204 25v297q0 42 -4 62t-23 39t-55.5 29t-105.5 20v51h436l10 -29q-3 -2 -8.5 -5t-19 -18t-24 -35t-19 -56.5t-8.5 -80.5v-333q-11 -2 -102 -16t-130 -19.5t-109.5 -12t-123.5 -6.5q-123 0 -235 28t-205.5 85t-162 137.5t-107 190.5t-38.5 239z" />
    <glyph glyph-name="H" unicode="H" horiz-adv-x="1640" 
d="M109 -6v65q69 8 108 43.5t39 90.5v972q0 31 -0.5 44t-5 31t-13 25.5t-26.5 18t-43 17t-64 14.5v51h160q82 0 139.5 2t74.5 4l16 2l10 -8q-8 -9 -19 -26.5t-30 -81.5t-19 -140v-381h762l21 21v407q0 31 -0.5 44t-5 31t-13 25.5t-26.5 18t-43 17t-64 14.5v51h160
q82 0 139 1.5t74 2.5l16 2l10 -8q-3 -3 -7.5 -9t-16 -28.5t-20.5 -48.5t-16 -69t-7 -91v-925q0 -27 -2.5 -55t-4.5 -42l-3 -14l184 -19l-8 -57l-494 -12v65q68 8 108 41.5t40 85.5v465h-762l-21 -20v-438q0 -27 -2.5 -55t-5.5 -42l-2 -14l184 -19l-8 -57z" />
    <glyph glyph-name="I" unicode="I" horiz-adv-x="677" 
d="M109 -6v65q68 8 107.5 41.5t39.5 85.5v979q0 31 -0.5 44t-5 31t-13 25.5t-26.5 18t-43 17t-64 14.5v51h160q82 0 139.5 2t74.5 4l16 2l10 -8q-8 -9 -19 -26.5t-30 -81.5t-19 -140v-932q0 -26 -2.5 -52t-5.5 -39l-2 -13l195 -19l-9 -57z" />
    <glyph glyph-name="J" unicode="J" horiz-adv-x="628" 
d="M238 102v1063q0 31 -0.5 44t-5 31t-13 25.5t-26.5 18t-43 17t-64 14.5v51h160q82 0 139 2t73 4l17 2l10 -8q-3 -3 -7.5 -9.5t-16 -29t-20.5 -48.5t-16 -69.5t-7 -91.5v-909q0 -255 -100 -399t-273 -144l-25 49q86 12 152 123.5t66 263.5z" />
    <glyph glyph-name="K" unicode="K" horiz-adv-x="1316" 
d="M109 -6v65q68 8 107.5 41.5t39.5 85.5v979q0 31 -0.5 44t-5 31t-13 25.5t-26.5 18t-43 17t-64 14.5v51h160q82 0 139.5 2t74.5 4l16 2l10 -8q-8 -9 -19 -26.5t-30 -81.5t-19 -140v-360h39q37 22 70 55l399 397q21 21 25 42t-16 39t-66 24v51h383l10 -29q-4 -1 -12.5 -3.5
t-36 -15t-56.5 -30t-72.5 -52t-86.5 -77.5l-387 -385v-20l495 -570q66 -76 94 -93.5t80 -22.5l23 -2l-8 -66h-301l-6 6q-21 61 -154 217l-383 445h-33v-482q0 -26 -2.5 -52t-5.5 -39l-2 -13l184 -19l-8 -57z" />
    <glyph glyph-name="L" unicode="L" horiz-adv-x="1155" 
d="M115 -6v65q137 15 137 127v979q0 31 -0.5 44t-5 31t-13 25.5t-26.5 18t-43 17t-64 14.5v51h160q82 0 139 2t73 4l17 2l11 -8q-8 -9 -19 -26.5t-30 -81.5t-19 -140v-925q0 -27 -2.5 -55.5t-5.5 -43.5l-2 -14h342q38 0 67.5 5t53 12.5t44.5 27t36 36.5t35 55t34.5 69
t40.5 90h70l-84 -375h-660z" />
    <glyph glyph-name="M" unicode="M" horiz-adv-x="1843" 
d="M90 -6v65q142 15 148 127l38 979q2 54 -7 77.5t-43 40t-115 32.5v51h163q73 0 129.5 2t76.5 4l20 2l8 -8q26 -106 59 -188l314 -803q23 -57 39 -117l397 967l45 141h53q80 0 135.5 2t70.5 4l15 2l11 -8q-3 -3 -8 -10t-17 -31t-21 -51t-15.5 -72t-4.5 -94l39 -928
q1 -28 -0.5 -54t-3.5 -38l-2 -12l180 -13l-8 -57l-490 -12v65q70 8 109.5 39t38.5 82l-45 1010l-492 -1190l-63 25l-473 1163q-4 -41 -6 -80l-37 -922q-1 -25 -4.5 -52.5t-7.5 -42.5l-3 -15l189 -13l-8 -57z" />
    <glyph glyph-name="N" unicode="N" horiz-adv-x="1568" 
d="M113 -6v65q70 8 108.5 40t38.5 87v922q0 106 -33.5 147t-134.5 60v51h62q44 0 95 2t80 4l29 2q25 -47 76 -106l742 -856q34 -42 81 -109v852q0 28 -1 42t-5.5 34t-15 29.5t-28.5 21t-47 17.5t-70 10v57h389l10 -29q-6 -2 -15.5 -5.5t-33.5 -19.5t-43 -37t-34 -60t-15 -87
v-1138h-54l-870 1028q-43 50 -74 98v-930q0 -27 -2.5 -54.5t-5.5 -41.5l-2 -14l184 -13l-8 -57z" />
    <glyph glyph-name="O" unicode="O" horiz-adv-x="1628" 
d="M295 719q0 -92 22 -185.5t67.5 -179t107.5 -152t148.5 -106t184.5 -39.5q94 0 176.5 36t142 97.5t103 141t65 169t21.5 179.5q0 117 -36 228t-101.5 201t-168.5 145t-226 55q-116 0 -213 -49.5t-160 -132.5t-98 -188.5t-35 -219.5zM92 666q0 111 31 217t93.5 198t150 161
t208.5 109t261 40q157 0 289.5 -51t222 -139.5t139 -209.5t49.5 -260q0 -117 -34 -228.5t-100.5 -206.5t-156.5 -167t-209 -113t-252 -41q-154 0 -285 55.5t-219.5 150t-138 220.5t-49.5 265z" />
    <glyph glyph-name="P" unicode="P" horiz-adv-x="1150" 
d="M111 -6v65q68 8 107.5 41.5t39.5 85.5v979q0 54 -9.5 77.5t-43.5 40t-115 32.5v51h508q76 0 143.5 -10t135 -36.5t115.5 -67.5t78 -108.5t30 -154.5q0 -95 -34 -171.5t-89 -124.5t-125.5 -78t-142 -39.5t-140.5 -2.5v58q86 2 151.5 28.5t103.5 71t56.5 98.5t18.5 117
q0 72 -22 129.5t-59.5 96.5t-90.5 65t-112 37.5t-126 11.5h-30l-21 -20v-1080q0 -26 -2.5 -52t-5.5 -39l-2 -13l195 -19l-9 -57z" />
    <glyph glyph-name="Q" unicode="Q" horiz-adv-x="1628" 
d="M631 -8q-245 49 -392 237t-147 437q0 111 31 217t93.5 198t150 161t208.5 109t261 40q157 0 289.5 -51t222 -139.5t139 -209.5t49.5 -260q0 -161 -63.5 -308t-185.5 -258t-283 -159q33 -27 81.5 -80.5t91 -99t95.5 -90.5t118 -71.5t136 -26.5q39 0 78 8v-54
q-12 -7 -32.5 -16.5t-79 -26t-110.5 -16.5q-56 0 -112.5 19t-96 42t-87.5 67t-70 68t-62 72l-45 54q-34 40 -59.5 64t-53.5 36.5t-43.5 16.5t-56 9.5t-65.5 10.5zM295 719q0 -92 22 -185.5t67.5 -179t107.5 -152t148.5 -106t184.5 -39.5q94 0 176.5 36t142 97.5t103 141
t65 169t21.5 179.5q0 117 -36 228t-101.5 201t-168.5 145t-226 55q-116 0 -213 -49.5t-160 -132.5t-98 -188.5t-35 -219.5z" />
    <glyph glyph-name="R" unicode="R" horiz-adv-x="1286" 
d="M111 -6v65q68 8 107.5 41.5t39.5 85.5v979q0 54 -9.5 77.5t-43.5 40t-115 32.5v51h475q134 0 234.5 -26t159 -72.5t86.5 -104.5t28 -127q0 -68 -27.5 -131.5t-72 -110t-86 -78.5t-84.5 -54v-27l295 -432q32 -46 57 -74t48 -40t37.5 -15.5t39.5 -5.5l23 -2l-9 -66h-297
l-8 6q-43 102 -127 225l-254 375h-149l-21 -20v-400q0 -26 -2.5 -52t-5.5 -39l-2 -13l184 -19l-8 -57zM438 686h172q102 0 183 79t81 218q0 61 -18 113.5t-56.5 96t-106 68.5t-158.5 25h-76l-21 -20v-580z" />
    <glyph glyph-name="S" unicode="S" horiz-adv-x="1036" 
d="M90 186q0 35 47 183h70q0 -72 18 -128.5t46.5 -91t68 -57t79.5 -31t85 -8.5q111 0 185.5 52.5t74.5 162.5q0 72 -35.5 132t-92 103.5t-124.5 84t-136.5 83t-125 91t-92 118.5t-35.5 154q0 159 118.5 258t338.5 99q65 0 134.5 -8t136 -19.5t67.5 -11.5l-64 -320h-70
q16 121 -44.5 201t-184.5 80q-111 0 -182.5 -53.5t-71.5 -159.5q0 -72 35.5 -131t92 -100.5t124.5 -80t136.5 -80.5t125 -90t92 -120.5t35.5 -161.5t-36.5 -159.5t-100 -113.5t-145 -65.5t-175.5 -22.5q-70 0 -137.5 12.5t-126.5 36.5t-95 66t-36 96z" />
    <glyph glyph-name="T" unicode="T" horiz-adv-x="1320" 
d="M418 -6v65q69 8 108 43.5t39 90.5v1093h-203q-109 0 -166 -49.5t-114 -204.5h-70l64 346q53 -12 137 -12h958q37 0 74 3t55 6l19 3l-64 -346h-69q5 104 -17.5 160t-68.5 75t-131 19h-203l-21 -20v-1073q0 -27 -2.5 -55t-4.5 -42l-3 -14l205 -19l-8 -57z" />
    <glyph glyph-name="U" unicode="U" horiz-adv-x="1505" 
d="M203 481v684q0 31 -0.5 44t-5 31t-13 25.5t-26.5 18t-43 17t-64 14.5v51h160q82 0 139 2t74 4l16 2l11 -8q-8 -9 -19 -26.5t-30 -81.5t-19 -140v-620q0 -108 34.5 -192.5t93 -135t130 -76.5t150.5 -26t152.5 26.5t133.5 76.5t96.5 131t36.5 181v672q0 28 -1 42t-5.5 33.5
t-15 29.5t-28.5 21.5t-46.5 17.5t-69.5 10v57h398l10 -29q-6 -2 -15.5 -5.5t-33.5 -19.5t-43 -37t-34 -60t-15 -87v-639q0 -122 -45 -220.5t-123 -162t-180 -97.5t-218 -34q-84 0 -160 16t-147 54.5t-122.5 95t-82 144t-30.5 196.5z" />
    <glyph glyph-name="V" unicode="V" horiz-adv-x="1257" 
d="M584 6l-471 1196q-16 39 -46 67.5t-53 36.5l-22 9v51h125q57 0 110 2t77 4l24 2l8 -8q-19 -40 -23.5 -90.5t11.5 -97.5l301 -809q31 -95 39 -127l368 895q30 70 6.5 112.5t-104.5 65.5v51h313l8 -29q-7 -5 -18.5 -16.5t-46.5 -67.5t-68 -135l-471 -1136z" />
    <glyph glyph-name="W" unicode="W" horiz-adv-x="1968" 
d="M1352 6l-377 973l-316 -997l-79 24l-471 1196q-16 39 -46 67.5t-53 36.5l-22 9v51h125q57 0 110 2t77 4l24 2l8 -8q-19 -40 -24 -90t11 -98l295 -791q19 -53 39 -131l271 852l-35 94q-16 39 -46 67.5t-53 36.5l-22 9v51h125q57 0 110 2t77 4l24 2l8 -8
q-19 -40 -23.5 -90.5t11.5 -97.5l289 -795q19 -58 36 -125l279 879q24 72 2 113.5t-100 64.5v51h311l8 -29q-3 -2 -8 -5.5t-21 -19.5t-31 -38t-35.5 -63.5t-37.5 -92.5l-360 -1136z" />
    <glyph glyph-name="X" unicode="X" horiz-adv-x="1275" 
d="M18 0v59q114 10 168 84l369 527l-375 555q-23 34 -57 56.5t-57 28.5l-23 5v51h127q58 0 109 2t73 4l21 2l8 -8q-3 -9 -7 -24t-1.5 -54t22.5 -69l279 -418l268 391q17 28 18.5 52t-24 43.5t-74.5 27.5v51h348l11 -33q-3 -1 -8.5 -2.5t-22.5 -10t-34 -20.5t-41 -35.5
t-46 -52.5l-344 -491l440 -647l105 -17l-8 -57h-93l-325 -8v65q63 7 76 24.5t-13 57.5l-299 449l-350 -500l188 -25l-8 -63h-420z" />
    <glyph glyph-name="Y" unicode="Y" horiz-adv-x="1198" 
d="M362 -6v65q68 8 108 41.5t40 85.5v418l-393 621q-22 35 -49 57.5t-44 27.5l-16 5v51h98q57 0 109.5 2t76.5 4l23 2l9 -8q-4 -9 -9.5 -23.5t-5.5 -53.5t19 -70l254 -410q26 -43 59 -115l305 494q15 28 16.5 53t-23.5 45.5t-75 28.5v51h334l8 -29q-9 -3 -24 -10t-52.5 -39
t-64.5 -76l-375 -604v-422q0 -26 -2.5 -52t-5.5 -39l-2 -13l184 -19l-8 -57z" />
    <glyph glyph-name="Z" unicode="Z" horiz-adv-x="1249" 
d="M70 -8l-13 74q43 45 113 145l684 975q41 55 80 100h-451q-127 0 -185 -48.5t-116 -205.5h-69l51 334h840q36 0 68.5 2t47.5 4l15 2l8 -74q-29 -41 -103 -145l-678 -975q-36 -52 -81 -100h516q38 0 67.5 5t53 12.5t44.5 27t36 36.5t35 55t34.5 69t40.5 90h70l-84 -375
h-893q-36 0 -68.5 -2t-47.5 -4z" />
    <glyph glyph-name="bracketleft" unicode="[" horiz-adv-x="589" 
d="M174 -317v1683h375v-92h-242v-1499h242v-92h-375z" />
    <glyph glyph-name="backslash" unicode="\" horiz-adv-x="720" 
d="M641 -401l-680 1767h131l682 -1767h-133z" />
    <glyph glyph-name="bracketright" unicode="]" horiz-adv-x="589" 
d="M41 -225h242v1499h-242v92h375v-1683h-375v92z" />
    <glyph glyph-name="asciicircum" unicode="^" horiz-adv-x="1126" 
d="M74 512l438 879h102l439 -879h-135l-357 717l-356 -717h-131z" />
    <glyph glyph-name="underscore" unicode="_" horiz-adv-x="1073" 
d="M25 -76h1024v-100h-1024v100z" />
    <glyph glyph-name="grave" unicode="`" 
d="M346 1382v56l178 -19l174 -350l-63 -35z" />
    <glyph glyph-name="a" unicode="a" horiz-adv-x="942" 
d="M57 182q0 57 27.5 107t72 86t105 64.5t123 46.5t129.5 28l70 10q6 133 -9 219q-24 131 -129 131q-39 0 -75.5 -20t-61 -49t-43.5 -58t-28 -49l-9 -20h-65l-35 153q6 5 17.5 12.5t50 27.5t79.5 35t104.5 27.5t127.5 12.5q142 0 193 -64t51 -229v-471q0 -53 11 -74.5
t44 -21.5q24 0 52.5 10t44.5 20l16 11l26 -43q-4 -4 -11 -11.5t-30 -26.5t-47.5 -33t-59.5 -26t-69 -12q-62 0 -100.5 37t-38.5 109v49q-4 -8 -13 -21t-39 -46.5t-64 -59.5t-89.5 -47t-114.5 -21q-98 0 -155.5 60t-57.5 147zM352 92q87 0 232 123v242l-64 -11
q-49 -8 -94.5 -23t-89.5 -41.5t-71 -68.5t-27 -94q0 -59 33 -93t81 -34z" />
    <glyph glyph-name="b" unicode="b" horiz-adv-x="1062" 
d="M324 82q63 -29 149 -29q150 0 242 106.5t92 280.5q0 102 -30.5 188t-95.5 142.5t-153 56.5q-61 0 -118 -24t-86 -51v-670zM137 6q19 90 19 205v1016q0 39 -1.5 60t-7.5 41.5t-18.5 29t-34.5 8.5h-86v55q105 23 187.5 46t112.5 35l30 11l6 -6q-20 -75 -20 -233v-328
q0 -41 -2 -75t-4.5 -52.5t-2.5 -23.5q54 67 121 109t170 42q120 0 208 -65.5t129.5 -165t41.5 -215.5q0 -99 -33 -191t-96 -167.5t-166.5 -121t-232.5 -45.5q-60 0 -171.5 12.5t-142.5 12.5z" />
    <glyph glyph-name="c" unicode="c" horiz-adv-x="903" 
d="M78 442q0 94 29.5 183.5t83 161.5t138.5 115.5t187 43.5q49 0 103.5 -9.5t105 -27.5t83 -49t32.5 -69q0 -31 -21.5 -52.5t-56.5 -21.5q-28 0 -52.5 16.5t-43.5 40t-40 47t-52.5 40t-71.5 16.5q-118 0 -187 -109t-69 -266q0 -77 19.5 -144.5t58.5 -123.5t106 -88.5
t154 -32.5q43 0 83.5 8.5t67 21t47 25t30.5 20.5l9 9l23 -43q-4 -7 -11.5 -19t-36.5 -43t-64 -54.5t-94 -43t-126 -19.5q-104 0 -188.5 39.5t-137 106t-80.5 149t-28 172.5z" />
    <glyph glyph-name="d" unicode="d" horiz-adv-x="1103" 
d="M76 420q0 99 33.5 191.5t96.5 168t165.5 121t228.5 45.5q33 0 69 -3t56 -6l20 -3v293q0 32 -0.5 49t-4 37.5t-9.5 30t-18 16t-29 6.5h-86v55q105 23 187.5 46t112.5 35l30 11l6 -6q-21 -75 -21 -233v-1079q0 -29 3.5 -49.5t12 -33t16 -20t24 -10.5t27 -3.5t32.5 -0.5h57
l-6 -55q-99 -10 -181 -20t-114 -15l-32 -4l-7 6q9 57 9 108v43q-111 -166 -293 -166q-91 0 -166 38t-121.5 101t-72 142t-25.5 164zM532 94q67 0 123.5 28.5t89.5 61.5v576q0 108 -147 108q-157 0 -250.5 -104.5t-93.5 -282.5q0 -102 30 -188t95 -142.5t153 -56.5z" />
    <glyph glyph-name="e" unicode="e" horiz-adv-x="942" 
d="M78 442q0 211 124 357.5t308 146.5q91 0 169 -37t131 -116t56 -187q-53 -20 -94 -26l-510 -74l-20 -25q3 -73 23.5 -136.5t58.5 -116.5t102 -84t147 -31q47 0 92 10t75 24.5t54 29t35 24.5l11 10l22 -43q-4 -8 -13 -21t-40 -46t-68 -58.5t-99 -46.5t-130 -21
q-105 0 -189.5 39t-137 105t-80 148.5t-27.5 174.5zM479 868q-98 0 -158.5 -82t-74.5 -206l430 55q0 5 -1 13.5t-6.5 32.5t-13.5 46t-23 49t-35 46t-50.5 32.5t-67.5 13.5z" />
    <glyph glyph-name="f" unicode="f" horiz-adv-x="669" 
d="M76 -6v59q127 14 127 133v631h-129v62l129 45v55q0 233 111 372.5t307 139.5q85 0 152 -31t67 -90q0 -31 -23.5 -54.5t-62.5 -23.5q-24 0 -51.5 16.5t-49.5 36t-57 36t-72 16.5q-79 0 -116 -84t-37 -279v-112h288l-16 -99h-252l-20 -20v-617q0 -27 -2.5 -54.5t-5.5 -41.5
l-3 -14l215 -19l-8 -51z" />
    <glyph glyph-name="g" unicode="g" horiz-adv-x="989" 
d="M137 150q0 25 11.5 46t36.5 39t43.5 29t54.5 28t47 23q-110 31 -178 107.5t-68 193.5q0 153 111.5 241.5t271.5 88.5q62 0 141.5 -20.5t128.5 -20.5h99q29 0 63 6.5t53 13.5l19 7l-19 -133h-108q-20 0 -38 1.5t-26 3.5l-8 1q3 -3 9 -8.5t20.5 -25t25.5 -41t20 -56
t9 -70.5q0 -139 -114 -223t-275 -84q-56 0 -100 8q-52 -59 -52 -86q0 -9 4 -17t13.5 -14.5t20 -12t28 -11t33 -9.5t40 -9t44 -9t49 -10t51.5 -10q59 -12 104 -24.5t95 -34t82 -47.5t53.5 -65t21.5 -87q0 -97 -78 -177.5t-196.5 -123.5t-245.5 -43q-71 0 -138 15t-123 43.5
t-90 77.5t-34 111q0 33 10.5 62.5t23.5 50.5t39 42.5t43 33.5t50.5 28t46.5 21.5t45 17.5q-170 44 -170 132zM528 -27q-24 5 -83 16.5t-89 18.5q-145 -98 -145 -221q0 -91 75.5 -143t182.5 -52q120 0 217.5 59t97.5 148q0 37 -20 66.5t-58.5 49.5t-79.5 33t-98 25zM473 369
q103 0 154 67.5t51 167.5q0 108 -56 189t-159 81q-100 0 -150.5 -73t-50.5 -180q0 -106 52.5 -179t158.5 -73z" />
    <glyph glyph-name="h" unicode="h" horiz-adv-x="1150" 
d="M57 -6v59q127 14 127 133v1041q0 32 -0.5 49t-4 37.5t-9.5 30t-18 16t-29 6.5h-86v55q105 23 187.5 46t112.5 35l30 11l6 -6q-21 -75 -21 -233v-397q0 -41 -2 -75.5t-4 -53.5t-2 -23q63 91 166.5 156t222.5 65q234 0 234 -276v-484q0 -27 -2.5 -54.5t-5.5 -41.5l-3 -14
l174 -19l-8 -51l-440 -12v59q117 14 117 133v439q0 109 -37 152.5t-105 43.5q-70 0 -155 -38.5t-150 -100.5v-496q0 -27 -2.5 -54.5t-5.5 -41.5l-2 -14l164 -19l-8 -51z" />
    <glyph glyph-name="i" unicode="i" horiz-adv-x="567" 
d="M78 -6v59q127 14 127 133v498q0 39 -1.5 60t-7.5 41.5t-18.5 29t-34.5 8.5h-92v56q133 31 218.5 55t104.5 32l19 9l2 -6q-22 -68 -22 -234v-549q0 -27 -2.5 -54.5t-5.5 -41.5l-3 -14l175 -19l-9 -51zM270 1155q-44 0 -77 33.5t-33 77.5t33 77t77 33t77.5 -33t33.5 -77
t-33.5 -77.5t-77.5 -33.5z" />
    <glyph glyph-name="j" unicode="j" horiz-adv-x="514" 
d="M188 -49v733q0 32 -0.5 49t-4 37.5t-9.5 30t-18 16t-29 6.5h-92v56q132 31 217.5 55t105.5 32l19 9l2 -6q-23 -60 -23 -226v-686q0 -257 -94.5 -399.5t-265.5 -142.5l-25 49q86 12 151.5 123.5t65.5 263.5zM254 1155q-44 0 -77.5 33.5t-33.5 77.5t33.5 77t77.5 33
t77.5 -33t33.5 -77t-33.5 -77.5t-77.5 -33.5z" />
    <glyph glyph-name="k" unicode="k" horiz-adv-x="1058" 
d="M57 -6v59q127 14 127 133v1041q0 32 -0.5 49t-4 37.5t-9.5 30t-18 16t-29 6.5h-86v55q105 23 187.5 46t112.5 35l30 11l6 -6q-21 -75 -21 -233v-727h25l207 174q4 4 16.5 14.5t18.5 16t16 15.5t14.5 17t8.5 16.5t4 18.5q0 33 -68 51v52h375l10 -33q-13 -3 -35.5 -10.5
t-79.5 -37t-100 -65.5l-238 -203v-20q19 -27 33 -41l303 -328q70 -76 100 -96.5t85 -24.5l22 -2l-8 -61l-295 -6q-27 73 -84 141l-305 344h-25v-293q0 -27 -2.5 -54.5t-5.5 -41.5l-2 -14l164 -19l-8 -51z" />
    <glyph glyph-name="l" unicode="l" horiz-adv-x="546" 
d="M57 -6v59q127 14 127 133v1041q0 32 -0.5 49t-4 37.5t-9.5 30t-18 16t-29 6.5h-86v55q105 23 187.5 46t112.5 35l30 11l6 -6q-21 -75 -21 -233v-1088q0 -27 -2.5 -54.5t-5.5 -41.5l-2 -14l174 -19l-8 -51z" />
    <glyph glyph-name="m" unicode="m" horiz-adv-x="1728" 
d="M76 -6v59q127 14 127 133v498q0 39 -1.5 60t-7.5 41.5t-18.5 29t-34.5 8.5h-88v56q89 18 171 42t120 39l37 15l6 -6q-19 -66 -25 -248q65 94 161 159.5t210 65.5q102 0 158.5 -58.5t56.5 -176.5q64 101 162.5 168t212.5 67q106 0 162.5 -64.5t56.5 -211.5v-484
q0 -27 -2.5 -54.5t-5.5 -41.5l-2 -14l174 -19l-8 -51l-441 -12v59q65 7 91 40t26 93v439q0 111 -29 153.5t-90 42.5q-50 0 -118.5 -25t-125.5 -74t-57 -104v-432q0 -27 -2.5 -54.5t-5.5 -41.5l-2 -14l164 -19l-8 -51l-430 -12v59q65 7 90.5 40t25.5 93v439q0 112 -29 154
t-91 42q-69 0 -149 -38.5t-146 -104.5v-492q0 -27 -2.5 -54.5t-5.5 -41.5l-3 -14l164 -19l-8 -51z" />
    <glyph glyph-name="n" unicode="n" horiz-adv-x="1171" 
d="M78 -6v59q127 14 127 133v498q0 39 -1.5 60t-7.5 41.5t-18.5 29t-34.5 8.5h-92v56q89 18 171 42t120 39l37 15l6 -6q-18 -68 -20 -250q62 94 165.5 160.5t223.5 66.5q233 0 233 -276v-484q0 -27 -2.5 -54t-4.5 -40l-3 -14l174 -21l-8 -51l-441 -12v59q65 7 91 40t26 93
v439q0 110 -36.5 153t-104.5 43q-72 0 -157 -39t-148 -104v-492q0 -27 -2.5 -54t-5.5 -40l-3 -14l164 -21l-8 -51z" />
    <glyph glyph-name="o" unicode="o" horiz-adv-x="1089" 
d="M78 440q0 75 16 145t53.5 136.5t91.5 115.5t136.5 79t183.5 30q145 0 249 -60t154 -160t50 -228q0 -78 -18.5 -152t-58.5 -141.5t-96 -118.5t-137 -81t-176 -30q-210 0 -329 130.5t-119 334.5zM266 487q0 -63 10 -124.5t33 -119.5t55.5 -101.5t82 -70t108.5 -26.5
q126 0 197 112t71 283q0 80 -16.5 154.5t-49.5 139.5t-90.5 104t-131.5 39q-90 0 -152.5 -57.5t-89.5 -143.5t-27 -189z" />
    <glyph glyph-name="p" unicode="p" horiz-adv-x="1093" 
d="M78 -502v60q66 36 86 76.5t20 115.5v934q0 32 -0.5 49t-4 37.5t-9.5 30t-18 16t-29 6.5h-82v56q89 18 169.5 42t115.5 39l36 15l7 -6q-13 -52 -21 -183q26 34 48 56t58 49t84 41t105 14q120 0 206.5 -65.5t126.5 -164.5t40 -216q0 -79 -20 -154.5t-62.5 -143t-103 -118
t-148.5 -80t-193 -29.5q-53 0 -137 13v-236q0 -27 -2.5 -56.5t-5.5 -45.5l-2 -15h215l-8 -49q-324 -39 -471 -88zM500 53q158 0 248 105t90 282q0 102 -28.5 188t-91 142.5t-149.5 56.5q-106 0 -217 -86v-577q0 -111 148 -111z" />
    <glyph glyph-name="q" unicode="q" horiz-adv-x="1062" 
d="M76 420q0 100 35.5 193.5t101.5 168t170 119.5t231 45q55 0 161.5 -11.5t148.5 -12.5l6 -7q-19 -75 -19 -204v-967q0 -26 -2.5 -55t-4.5 -45l-3 -15h154l-8 -49q-115 -15 -222.5 -36.5t-158.5 -35.5l-50 -14v60q70 39 98.5 82.5t28.5 113.5v225q0 41 2.5 75.5t4.5 53.5
t2 23q-114 -152 -291 -152q-89 0 -163.5 38t-122 101t-73.5 142t-26 164zM254 477q0 -100 32 -186t97.5 -141.5t151.5 -55.5q60 0 117 24t91 52v670q-65 28 -149 28q-144 0 -242 -108t-98 -283z" />
    <glyph glyph-name="r" unicode="r" horiz-adv-x="768" 
d="M78 -6v59q127 14 127 133v498q0 39 -1.5 60t-7.5 41.5t-18.5 29t-34.5 8.5h-92v56q89 18 172 42t121 39l39 15l6 -6q-18 -67 -24 -260q51 96 126.5 166.5t149.5 70.5q43 0 77 -23t34 -71q0 -45 -28 -72.5t-69 -27.5q-23 0 -50 17t-50 17q-78 0 -182 -118v-482
q0 -27 -2.5 -54.5t-5.5 -41.5l-3 -14l195 -19l-8 -51z" />
    <glyph glyph-name="s" unicode="s" horiz-adv-x="790" 
d="M80 115q0 18 6.5 57t13.5 68l6 30h62q4 -62 26.5 -108t57 -70.5t71 -35.5t76.5 -11q76 0 123 37.5t47 101.5q0 44 -26 80.5t-67 63t-91 52t-100.5 53.5t-91.5 61t-67 82.5t-26 109.5q0 117 87.5 188.5t246.5 71.5q55 0 119 -9t101 -19l36 -9l-41 -211h-63q0 48 -15.5 83
t-36.5 53t-49.5 28.5t-47 12.5t-36.5 2q-77 0 -115 -39t-38 -93q0 -44 26 -78.5t67 -59.5t90.5 -48t99.5 -50.5t91 -61t67 -85.5t26 -118q0 -126 -90 -197.5t-238 -71.5q-42 0 -88.5 6t-99 20t-86 43.5t-33.5 70.5z" />
    <glyph glyph-name="t" unicode="t" horiz-adv-x="710" 
d="M178 244v440l6 133h-135v62q90 18 139 63l76 223l92 -2l6 -6q-18 -60 -18 -205v-30h320l-15 -99h-282l-21 -20v-520q0 -94 32 -139.5t111 -45.5q41 0 87 11t72 21l26 11l26 -39l-13.5 -13.5t-38.5 -30.5t-62 -39t-81 -30.5t-99 -13.5q-228 0 -228 269z" />
    <glyph glyph-name="u" unicode="u" horiz-adv-x="1144" 
d="M176 250v434q0 32 -0.5 49t-4 37.5t-9.5 30t-18 16t-29 6.5h-72v58q88 16 166 34.5t111 29.5l34 11l8 -6q-18 -57 -18 -215v-438q0 -110 35.5 -153.5t103.5 -43.5q71 0 151 39.5t146 106.5v438q0 32 -0.5 49t-4 37.5t-9.5 30t-18 16t-29 6.5h-68v58q88 16 164.5 34.5
t109.5 29.5l33 11l9 -6q-19 -57 -19 -215v-540q0 -29 3.5 -49.5t12 -33t16 -20t24 -10.5t27 -3.5t32.5 -0.5h57l-6 -55q-99 -10 -183 -20.5t-119 -15.5l-34 -5l-8 6q18 59 18 110v107q-65 -95 -163.5 -162.5t-216.5 -67.5q-232 0 -232 275z" />
    <glyph glyph-name="v" unicode="v" horiz-adv-x="935" 
d="M410 0l-293 752q-18 46 -46.5 75.5t-47.5 36.5l-19 6v52h94q57 0 108.5 2t73.5 4l23 2l8 -8q-19 -41 -19 -92.5t17 -96.5l156 -432q21 -65 37 -127l241 547q49 114 -102 149v52h277l10 -33q-3 -1 -9.5 -6t-26 -32t-38.5 -69l-358 -809z" />
    <glyph glyph-name="w" unicode="w" horiz-adv-x="1495" 
d="M410 0l-293 752q-18 46 -46.5 75.5t-47.5 36.5l-19 6v52h94q57 0 107.5 2t72.5 4l21 2l8 -8q-2 -4 -4 -10.5t-7 -27t-6.5 -42t2 -51.5t13.5 -58l160 -432l33 -111l190 453q21 57 12 94l-4 15q-17 46 -45 75.5t-47 36.5l-20 6v52h94q57 0 107.5 2t72.5 4l21 2l8 -8
q-2 -4 -4 -10.5t-7 -27t-6.5 -42t2 -51.5t13.5 -58l157 -424q17 -50 35 -116l223 530q25 58 -6 95t-96 52v52h275l10 -33q-4 -2 -11 -7.5t-26.5 -33t-36.5 -68.5l-344 -807l-76 27l-235 602l-269 -629z" />
    <glyph glyph-name="x" unicode="x" horiz-adv-x="1001" 
d="M580 -6v63q65 0 78.5 19t-15.5 57l-174 252l-244 -309l156 -19l-8 -51l-340 -12v59q37 4 68 20.5t43 28.5t30 33l252 316l-219 311q-31 44 -69.5 71t-61.5 32l-23 5v52h99q61 0 113.5 2t74.5 4l22 2l9 -8q-3 -8 -5.5 -21.5t3.5 -52.5t30 -74l138 -203l159 203
q27 33 7 59.5t-91 36.5v52h322l10 -33q-8 -1 -21.5 -6t-50.5 -31t-69 -66l-223 -280l311 -443l92 -8l-8 -49z" />
    <glyph glyph-name="y" unicode="y" horiz-adv-x="944" 
d="M145 -315q77 0 132 42.5t85 110.5l66 154q-27 80 -49 133l-262 627q-19 45 -48 74.5t-48 36.5l-19 7v52h96q57 0 109.5 2t76.5 4l23 2l8 -8q-19 -36 -19 -92t17 -97l166 -416q28 -83 39 -122l232 528q24 56 -11 92.5t-102 54.5v52h285l10 -33q-4 -2 -11 -8t-27 -34
t-36 -67l-354 -805q-6 -14 -23.5 -54.5t-30 -70t-35 -74.5t-42.5 -77.5t-48.5 -69.5t-56.5 -60t-62.5 -38.5t-70.5 -15.5q-42 0 -66 25t-24 61q0 35 24.5 59.5t75.5 24.5z" />
    <glyph glyph-name="z" unicode="z" horiz-adv-x="899" 
d="M82 -8l-16 53q22 20 73 98l398 613q20 32 73 98h-272q-44 0 -80.5 -18.5t-59.5 -48t-36.5 -55.5t-20.5 -52h-59l37 242h538q39 0 74 2t51 4l15 2l16 -53q-9 -5 -70 -99l-387 -606q-22 -36 -75 -102h249q56 0 101.5 21t71 51t42.5 60t23 51l6 21h60l-56 -274h-557
q-39 0 -74 -2t-50 -4z" />
    <glyph glyph-name="braceleft" unicode="{" horiz-adv-x="712" 
d="M274 -135q0 211 -11 303q-42 329 -249 334v71q54 1 96.5 25t69.5 55.5t46 88t28.5 98.5t14 114t5 106t0.5 101v29q0 166 114 247t304 81l10 -74q-64 -5 -108.5 -15t-76 -31t-50 -46.5t-29 -68.5t-13.5 -88t-3 -114q0 -452 -227 -540v-4q34 -13 64.5 -38t61 -70t52.5 -106
t35.5 -151t13.5 -199q0 -69 3 -114t13.5 -87.5t29 -67.5t50 -46t76 -31.5t108.5 -15.5l-10 -74q-418 0 -418 328z" />
    <glyph glyph-name="bar" unicode="|" horiz-adv-x="477" 
d="M172 -461v1995h133v-1995h-133z" />
    <glyph glyph-name="braceright" unicode="}" horiz-adv-x="712" 
d="M291 -27q0 109 13.5 199t35.5 151t52.5 106t61 70t64.5 38v4q-227 88 -227 540q0 69 -3.5 114.5t-13.5 88t-29 68t-50.5 46.5t-76 31t-108.5 15l10 74q190 0 304 -81t114 -247q0 -206 11 -295q41 -317 249 -322v-71q-54 -1 -96.5 -26t-69.5 -58t-46 -92t-28.5 -102.5
t-14 -117.5t-5 -109t-0.5 -103v-29q0 -328 -418 -328l-10 74q55 4 95 13.5t70.5 22.5t51 35.5t33.5 47.5t19.5 64t9 79.5t2.5 99.5z" />
    <glyph glyph-name="asciitilde" unicode="~" horiz-adv-x="1206" 
d="M135 358q0 162 69.5 240t190.5 78q65 0 116.5 -22t84.5 -53t62 -62.5t65.5 -53.5t79.5 -22t74 20.5t45 54.5t20 65.5t6 64.5h121q0 -162 -69.5 -240t-190.5 -78q-65 0 -116.5 22t-84.5 53.5t-62 62.5t-65.5 53t-79.5 22t-74 -20.5t-45 -54.5t-20 -65.5t-6 -64.5h-121z
" />
    <glyph glyph-name="uni00A0" unicode="&#xa0;" horiz-adv-x="460" 
 />
    <glyph glyph-name="exclamdown" unicode="&#xa1;" horiz-adv-x="559" 
d="M307 561l90 -983q-81 -22 -140 -40.5t-78 -25.5l-19 -8l-6 7q22 65 34 221l68 829h51zM408 823q0 -51 -36 -87t-87 -36t-87 36t-36 87t36 87t87 36t87 -36t36 -87z" />
    <glyph glyph-name="cent" unicode="&#xa2;" horiz-adv-x="884" 
d="M78 561q0 80 24.5 154.5t71 135.5t121.5 100.5t168 45.5l10 185h82l-10 -185q62 -7 120.5 -24.5t103 -51t44.5 -73.5q0 -36 -21 -57t-59 -21q-27 0 -52.5 17.5t-42.5 40t-43.5 48.5t-53.5 39l-31 -628q40 -4 63 -4q132 0 238 90l23 -43q-4 -7 -12 -19.5t-37 -44.5
t-64 -56.5t-94 -45.5t-125 -23l-8 -186h-82l8 190q-165 24 -253.5 142t-88.5 274zM246 629q0 -103 46.5 -190t135.5 -128l33 617q-98 -9 -156.5 -96.5t-58.5 -202.5z" />
    <glyph glyph-name="sterling" unicode="&#xa3;" horiz-adv-x="1042" 
d="M111 500v82h137l22 180q11 90 36.5 159.5t69.5 124t112 83t159 28.5q57 0 109 -10.5t91.5 -38t39.5 -66.5q0 -36 -23 -60t-61 -24q-28 0 -54.5 17.5t-45.5 39t-50.5 39t-68.5 17.5q-75 0 -106 -64t-46 -251l-18 -174h379l-11 -82h-376v-8q-7 -90 -26 -173t-34 -121
l-16 -38q18 -8 49 -20t116 -32t156 -20q47 0 88 8.5t79 27.5t65 53.5t37 82.5l14 66h63q-6 -61 -16.5 -109.5t-34 -100.5t-57 -87t-88.5 -57.5t-127 -22.5q-65 0 -158 22l-172 43q-72 15 -90 15q-71 0 -145 -29l-25 59q4 2 11.5 6t27 20t35 35.5t30.5 52.5t19 71l31 256
h-127z" />
    <glyph glyph-name="yen" unicode="&#xa5;" horiz-adv-x="1046" 
d="M145 553v82h244l-239 379q-16 26 -39 43t-37 21l-15 3v52h82l189 6l6 -6q-3 -7 -6.5 -18t-3.5 -40.5t14 -52.5l166 -272q33 -61 57 -113l215 346q14 23 15 42t-18.5 34.5t-61.5 21.5v52h262l8 -33q-5 -1 -13.5 -4t-32.5 -24t-46 -56l-244 -381h268v-82h-307v-139h307v-82
h-307v-146q0 -27 -2.5 -54.5t-5.5 -41.5l-2 -14l174 -19l-8 -51l-451 -12v59q127 14 127 133v146h-295v82h295v139h-295z" />
    <glyph glyph-name="brokenbar" unicode="&#xa6;" horiz-adv-x="516" 
d="M184 672v733h148v-733h-148zM184 354h148v-733h-148v733z" />
    <glyph glyph-name="section" unicode="&#xa7;" horiz-adv-x="958" 
d="M68 -299q3 -3 9.5 -8.5t30.5 -19t51 -23.5t72.5 -18.5t94.5 -8.5q72 0 127.5 25t87.5 68.5t50.5 101.5t17.5 124t-11 136l-106 586q-8 41 -12 66t-10 75t-5.5 84t6.5 79.5t20 76.5t40.5 59.5t64.5 42.5l10 -10q-42 -123 -8 -316l129 -727q13 -87 11.5 -170t-28.5 -157
t-70 -130t-113.5 -89t-159.5 -33q-58 0 -113.5 13.5t-93.5 32.5t-67.5 38.5t-43.5 32.5l-14 14zM309 84l-129 727q-13 87 -11.5 170t28.5 157.5t70.5 130.5t114 89t159.5 33q58 0 113.5 -13.5t93 -32.5t67 -38.5t43.5 -32.5l14 -14l-32 -56q-3 3 -9.5 8.5t-30.5 19t-51 23.5
t-72.5 18.5t-94.5 8.5q-72 0 -127.5 -25t-87.5 -68.5t-51 -101.5t-18 -124t11 -136l107 -585q8 -40 12 -65.5t9.5 -75t5 -84.5t-6.5 -80t-20 -76.5t-40.5 -60t-64.5 -42.5l-10 11q42 122 8 315z" />
    <glyph glyph-name="dieresis" unicode="&#xa8;" 
d="M326 1155q-44 0 -77.5 33.5t-33.5 77.5t33.5 77t77.5 33t77 -33t33 -77t-33 -77.5t-77 -33.5zM696 1155q-44 0 -77 33.5t-33 77.5t33 77t77 33t77.5 -33t33.5 -77t-33.5 -77.5t-77.5 -33.5z" />
    <glyph glyph-name="copyright" unicode="&#xa9;" horiz-adv-x="1556" 
d="M72 682q0 143 56 274t150.5 226t225.5 151t274 56q191 0 354 -95t258 -258t95 -354t-95 -354t-258 -258t-354 -95q-143 0 -274 56t-225.5 151t-150.5 226t-56 274zM166 682q0 -170 80.5 -313t221.5 -226.5t310 -83.5t310 83.5t222 226.5t81 313t-81 313t-222 226.5
t-310 83.5t-310 -83.5t-221.5 -226.5t-80.5 -313zM373 674q0 63 16.5 124.5t52 118t86 99.5t123.5 68.5t160 25.5q46 0 96 -10.5t99 -26t63 -18.5l-35 -217h-63q0 61 -16.5 103t-46 62t-60 27.5t-68.5 7.5q-110 0 -180 -91.5t-70 -223.5q0 -159 87 -253.5t221 -94.5
q61 0 121 25t90 50l30 25l23 -59q-44 -63 -134.5 -103.5t-168.5 -40.5q-113 0 -209 47.5t-156.5 140.5t-60.5 214z" />
    <glyph glyph-name="ordfeminine" unicode="&#xaa;" horiz-adv-x="794" 
d="M252 711q-75 0 -118.5 42t-43.5 105q0 67 51 119t129.5 81.5t175.5 39.5v59v22t-0.5 25.5t-2.5 31t-5.5 28.5t-9.5 28.5t-14 21t-20 16.5t-27 5q-24 0 -48 -14.5t-41 -35.5t-30.5 -42.5t-19.5 -36.5l-7 -14h-57l-25 117q4 3 12.5 8.5t35.5 20t56.5 25t75 19.5t91.5 9
q104 0 141 -44.5t37 -162.5v-326q0 -35 5 -49t21 -14q14 0 34 9t33 18l13 9l27 -38l-8.5 -8.5t-23 -20t-35 -25t-43.5 -19.5t-50 -9q-48 0 -78 29t-30 91q-3 -5 -9.5 -13t-27 -28.5t-42.5 -36.5t-55.5 -29t-66.5 -13zM303 799q28 0 63.5 20.5t57.5 40.5l22 21v161
q-85 -10 -145.5 -51t-60.5 -106q0 -40 17.5 -63t45.5 -23z" />
    <glyph glyph-name="guillemotleft" unicode="&#xab;" horiz-adv-x="1062" 
d="M76 510v8q27 19 49 38.5t113 110.5t274 279l59 -20l-268 -412q22 -30 268 -412l-59 -20q-172 177 -264 269t-118 115.5t-54 43.5zM475 510v8q27 19 49 38.5t113 110.5t274 279l60 -20l-269 -412q23 -30 269 -412l-60 -20q-172 177 -264 269t-118 115.5t-54 43.5z" />
    <glyph glyph-name="logicalnot" unicode="&#xac;" horiz-adv-x="1064" 
d="M49 684v113h918v-570h-121v457h-797z" />
    <glyph glyph-name="registered" unicode="&#xae;" horiz-adv-x="856" 
d="M428 733q-146 0 -250 104t-104 250t104 250.5t250 104.5t250 -104.5t104 -250.5t-104 -250t-250 -104zM428 793q116 0 200.5 87t84.5 207t-84.5 206.5t-200.5 86.5q-118 0 -201.5 -86.5t-83.5 -206.5q0 -121 83.5 -207.5t201.5 -86.5zM264 913v31q17 1 27 10t10 21v227
q0 19 -7 25.5t-36 13.5v25h152q147 0 147 -86q0 -48 -68 -90q11 -19 29 -48l45 -65q21 -29 50 -33h3l-2 -29l-108 -2q-10 27 -33 62l-55 82h-35v-82l-4 -25l51 -6l-2 -26zM383 1231v-139h45q7 1 16 7.5t18 23.5t9 40q0 31 -17.5 49.5t-52.5 18.5h-18z" />
    <glyph glyph-name="macron" unicode="&#xaf;" 
d="M279 1206v121h466v-121h-466z" />
    <glyph glyph-name="degree" unicode="&#xb0;" horiz-adv-x="659" 
d="M330 993q62 0 104.5 44t42.5 108t-42.5 107.5t-104.5 43.5t-105 -43.5t-43 -107.5t43 -108t105 -44zM330 899q-104 0 -177 72t-73 174t73 174t177 72t177 -72t73 -174t-73 -174t-177 -72z" />
    <glyph glyph-name="plusminus" unicode="&#xb1;" horiz-adv-x="1064" 
d="M74 651v113h401v379h121v-379h395v-113h-395v-405h-121v405h-401zM74 0v113h917v-113h-917z" />
    <glyph glyph-name="twosuperior" unicode="&#xb2;" horiz-adv-x="677" 
d="M59 770l-16 53q5 4 34 30.5t39 35.5t38 35.5t41.5 40.5t37.5 39.5t40 45t34 44t33 47.5q76 119 76 221q0 65 -39 99t-96 34q-107 0 -187 -70l-39 43q4 6 12.5 15.5t36 34.5t57.5 44t76 34.5t93 15.5q61 0 113.5 -21t89 -69t36.5 -115q0 -34 -11.5 -72t-25.5 -69
t-45.5 -74.5t-50.5 -68.5t-64.5 -72.5t-62.5 -65.5t-67 -67l-33 -33h235q57 0 79.5 23.5t41.5 86.5h58l-35 -225h-529z" />
    <glyph glyph-name="threesuperior" unicode="&#xb3;" horiz-adv-x="655" 
d="M262 756q-79 0 -150 26t-71 72q0 49 59 49q27 0 50 -15t37.5 -33t39.5 -33t56 -15q56 0 100.5 61.5t44.5 130.5q0 72 -52.5 118t-142.5 46l-53 -4v72q84 6 142.5 59t58.5 121q0 51 -29 73.5t-71 22.5q-87 0 -158 -49l-39 43q4 5 11 12t31 26.5t50.5 34t69 26.5t86.5 12
q51 0 96 -16.5t78 -56.5t33 -97q0 -58 -60.5 -116t-136.5 -99q110 -15 181 -74.5t71 -138.5q0 -73 -49.5 -133.5t-125 -92.5t-157.5 -32z" />
    <glyph glyph-name="acute" unicode="&#xb4;" 
d="M389 1034l-63 35l174 350l178 19v-56z" />
    <glyph glyph-name="mu" unicode="&#xb5;" horiz-adv-x="1105" 
d="M150 -117v805q0 57 -4 111t-8 79l-3 25l189 43l8 -6q-15 -57 -15 -215v-428q0 -109 34.5 -153t94.5 -44q75 0 152 39t145 107v442q0 57 -3.5 111t-7.5 79l-3 25l189 43l8 -6q-15 -57 -15 -215v-530q0 -68 12.5 -92.5t61.5 -24.5h78l6 -49q-120 -54 -186 -54
q-131 0 -131 123v107q-65 -98 -154.5 -164t-196.5 -66q-97 0 -163 66q5 -96 42 -241.5t37 -182.5q0 -45 -24.5 -73.5t-59.5 -28.5q-53 0 -72.5 37t-19.5 110q0 29 4.5 102.5t4.5 118.5z" />
    <glyph glyph-name="paragraph" unicode="&#xb6;" horiz-adv-x="1316" 
d="M362 -401q0 45 27.5 66.5t61.5 21.5q17 0 48.5 -8.5t45.5 -8.5q39 0 63.5 24t37 76t16.5 111t4 150v295h-29q-149 0 -266 43.5t-187.5 117t-106.5 164.5t-36 193q0 79 23 154t71 142t116 117t165 79.5t211 29.5h442q121 0 162 8l-19 -114h-151v-1260h-117v1260h-153
v-1086q0 -252 -21 -338q-34 -138 -114 -229.5t-197 -91.5q-48 0 -72.5 26.5t-24.5 57.5z" />
    <glyph glyph-name="periodcentered" unicode="&#xb7;" horiz-adv-x="516" 
d="M258 397q-51 0 -87 36t-36 87t36 87t87 36t87 -36t36 -87t-36 -87t-87 -36z" />
    <glyph glyph-name="cedilla" unicode="&#xb8;" 
d="M444 -166q0 26 20 67.5t40 70.5l20 28h64q-25 -63 -25 -92q0 -19 17.5 -34t43 -26.5t51 -26t43 -41.5t17.5 -65q0 -78 -66 -139t-161 -61q-51 0 -97.5 18.5t-67.5 36.5l-21 18l30 66q8 -6 21.5 -14.5t51.5 -22.5t71 -14q47 0 76.5 20.5t29.5 52.5q0 23 -24.5 42.5
t-54.5 32t-54.5 34.5t-24.5 49z" />
    <glyph glyph-name="onesuperior" unicode="&#xb9;" horiz-adv-x="548" 
d="M63 766v57l87 4q33 2 50 14t20 24.5t3 33.5v535q0 32 -5 45.5t-14.5 13t-23.5 -3.5l-129 -29l-8 62q105 28 190.5 52.5t118.5 35.5l33 10l6 -8q-16 -43 -16 -139v-574l-4 -61l161 -11l-6 -53z" />
    <glyph glyph-name="ordmasculine" unicode="&#xba;" horiz-adv-x="841" 
d="M408 711q-152 0 -237 91.5t-85 233.5q0 66 19.5 127t58.5 113t107.5 83.5t158.5 31.5q156 0 242 -88t86 -226q0 -68 -22 -132.5t-64 -117t-110.5 -84.5t-153.5 -32zM428 770q81 0 126.5 76.5t45.5 189.5q0 75 -17.5 139.5t-61 111t-107.5 46.5q-86 0 -130 -76.5
t-44 -185.5q0 -75 18.5 -141t62.5 -113t107 -47z" />
    <glyph glyph-name="guillemotright" unicode="&#xbb;" horiz-adv-x="1062" 
d="M492 102l268 412q-22 26 -268 412l59 20q183 -188 274 -279t113 -110.5t49 -38.5v-8q-28 -20 -54 -43.5t-118 -115.5t-264 -269zM92 102l268 412q-22 26 -268 412l60 20q183 -188 274 -279t113 -110.5t49 -38.5v-8q-28 -20 -54 -43.5t-118 -115.5t-264 -269z" />
    <glyph glyph-name="onequarter" unicode="&#xbc;" horiz-adv-x="1646" 
d="M956 233l-12 72l395 516l117 23q-8 -56 -8 -144v-381h139l-22 -86h-117v-110l-4 -62l110 -10l-4 -47l-344 -8v49q42 4 67 25.5t25 52.5v110h-342zM1038 319h260v330zM88 545v57l86 4q25 1 41 7.5t22.5 18t8.5 21.5t2 25v534q0 32 -5 46t-14.5 13.5t-23.5 -3.5l-129 -29
l-8 61q105 28 190.5 53t118.5 35l33 11l6 -8q-17 -44 -17 -140v-573l-4 -62l162 -10l-6 -53zM516 0h-117l805 1397l96 -33z" />
    <glyph glyph-name="onehalf" unicode="&#xbd;" horiz-adv-x="1765" 
d="M84 545v57l86 4q25 1 41 7.5t22.5 18t8.5 21.5t2 25v534q0 32 -5 46t-14.5 13.5t-23.5 -3.5l-129 -29l-9 61q105 28 190.5 53t118.5 35l34 11l6 -8q-17 -44 -17 -140v-573l-4 -62l162 -10l-6 -53zM1139 0l-17 53q5 4 34 30.5t39 35.5t38 35.5t41.5 40.5t37.5 39.5t40 45
t34 44t33 47.5q76 119 76 221q0 65 -39 99t-96 34q-106 0 -186 -70l-39 43q4 6 12.5 15.5t35.5 34.5t57 44t76 34.5t93 15.5q61 0 113.5 -21t89.5 -69t37 -115q0 -30 -6.5 -60.5t-24.5 -65t-31 -59.5t-46 -65t-47 -58.5t-57.5 -63.5t-55 -56.5l-58.5 -58.5l-12.5 -12.5
l-11 -11l-11.5 -11.5h236q57 0 79.5 23.5t41.5 86.5h57l-35 -225h-528zM514 0h-117l805 1397l96 -33z" />
    <glyph glyph-name="threequarters" unicode="&#xbe;" horiz-adv-x="1632" 
d="M938 233l-12 72l395 516l117 23q-8 -56 -8 -144v-381h139l-23 -86h-116v-110l-5 -62l111 -10l-4 -47l-344 -8v49q42 4 67 25.5t25 52.5v110h-342zM285 535q-79 0 -150.5 26t-71.5 72q0 49 60 49q27 0 50 -15t37 -33t39 -33t56 -15q56 0 101 61.5t45 130.5q0 72 -52.5 118
t-142.5 46l-53 -4v72q84 6 142 59t58 121q0 51 -29 73.5t-71 22.5q-87 0 -158 -49l-39 43q4 5 11 12t31 26.5t50.5 34t69 26.5t86.5 12q51 0 96 -16.5t78 -56.5t33 -97q0 -58 -60.5 -116.5t-135.5 -98.5q109 -15 180 -74.5t71 -138.5q0 -73 -49 -133.5t-124.5 -92.5
t-157.5 -32zM498 0h-117l805 1397l96 -33zM1020 319h260v330z" />
    <glyph glyph-name="questiondown" unicode="&#xbf;" horiz-adv-x="669" 
d="M453 561q10 -46 10 -102q0 -77 -26 -147t-63 -119.5t-74 -92t-63 -82t-26 -71.5q0 -39 40.5 -82t97.5 -77t114.5 -62.5t98.5 -43.5l40 -16l-33 -180q-11 4 -31 11.5t-76.5 31.5t-108 50t-114.5 65t-108.5 77.5t-76.5 86.5t-31 94q0 34 21 71t54 72.5t73.5 75t81 85.5
t73.5 97t54 118t21 140h52zM543 823q0 -51 -36 -87t-87 -36t-87 36t-36 87t36 87t87 36t87 -36t36 -87z" />
    <glyph glyph-name="Agrave" unicode="&#xc0;" horiz-adv-x="1275" 
d="M-27 0v59q106 10 138 93l485 1208l84 18l455 -1163q20 -51 37.5 -82t37.5 -46.5t36 -21.5t44 -10l-8 -55h-88l-311 -6v69q50 2 76 20t10 60l-125 328h-490l-26 -20l-142 -369l174 -25l-8 -57h-379zM635 1024q-26 66 -41 125l-227 -592h444zM375 1606v51l67 106h11
l362 -215l-27 -67z" />
    <glyph glyph-name="Aacute" unicode="&#xc1;" horiz-adv-x="1275" 
d="M-27 0v59q106 10 138 93l485 1208l84 18l455 -1163q20 -51 37.5 -82t37.5 -46.5t36 -21.5t44 -10l-8 -55h-88l-311 -6v69q50 2 76 20t10 60l-125 328h-490l-26 -20l-142 -369l174 -25l-8 -57h-379zM635 1024q-26 66 -41 125l-227 -592h444zM463 1548l362 215h11l67 -106
v-51l-414 -125z" />
    <glyph glyph-name="Acircumflex" unicode="&#xc2;" horiz-adv-x="1275" 
d="M-27 0v59q106 10 138 93l485 1208l84 18l455 -1163q20 -51 37.5 -82t37.5 -46.5t36 -21.5t44 -10l-8 -55h-88l-311 -6v69q50 2 76 20t10 60l-125 328h-490l-26 -20l-142 -369l174 -25l-8 -57h-379zM635 1024q-26 66 -41 125l-227 -592h444zM317 1518l269 266h108
l267 -266l-56 -48l-262 166h-8l-262 -166z" />
    <glyph glyph-name="Atilde" unicode="&#xc3;" horiz-adv-x="1275" 
d="M-27 0v59q106 10 138 93l485 1208l84 18l455 -1163q20 -51 37.5 -82t37.5 -46.5t36 -21.5t44 -10l-8 -55h-88l-311 -6v69q50 2 76 20t10 60l-125 328h-490l-26 -20l-142 -369l174 -25l-8 -57h-379zM635 1024q-26 66 -41 125l-227 -592h444zM346 1501l-70 15q1 9 3 25
t15 55.5t32.5 70t59 55.5t91.5 25q42 0 93 -19t90 -41.5t83.5 -41.5t75.5 -19q41 0 69 30t36 60l8 31l72 -6q-1 -10 -3 -26t-15.5 -57.5t-34.5 -73t-65 -57.5t-102 -26q-47 0 -96.5 19t-83 41.5t-73 41.5t-70.5 19q-24 0 -44.5 -12.5t-33 -30t-21.5 -35.5t-12 -30z" />
    <glyph glyph-name="Adieresis" unicode="&#xc4;" horiz-adv-x="1275" 
d="M-27 0v59q106 10 138 93l485 1208l84 18l455 -1163q20 -51 37.5 -82t37.5 -46.5t36 -21.5t44 -10l-8 -55h-88l-311 -6v69q50 2 76 20t10 60l-125 328h-490l-26 -20l-142 -369l174 -25l-8 -57h-379zM635 1024q-26 66 -41 125l-227 -592h444zM291 1624q0 44 33 77.5
t77 33.5t77.5 -33.5t33.5 -77.5t-33.5 -77.5t-77.5 -33.5t-77 33.5t-33 77.5zM764 1624q0 44 33 77.5t77 33.5t77.5 -33.5t33.5 -77.5t-33.5 -77.5t-77.5 -33.5t-77 33.5t-33 77.5z" />
    <glyph glyph-name="Aring" unicode="&#xc5;" horiz-adv-x="1275" 
d="M-27 0v59q106 10 138 93l485 1208l84 18l455 -1163q20 -51 37.5 -82t37.5 -46.5t36 -21.5t44 -10l-8 -55h-88l-311 -6v69q50 2 76 20t10 60l-125 328h-490l-26 -20l-142 -369l174 -25l-8 -57h-379zM635 1024q-26 66 -41 125l-227 -592h444zM639 1456q-93 0 -143 49
t-50 117q0 66 50.5 114t142.5 48t142 -48t50 -114q0 -69 -49.5 -117.5t-142.5 -48.5zM639 1526q45 0 71.5 28t26.5 66q0 39 -25 66.5t-73 27.5q-49 0 -72.5 -27.5t-23.5 -66.5t24.5 -66.5t71.5 -27.5z" />
    <glyph glyph-name="AE" unicode="&#xc6;" horiz-adv-x="1802" 
d="M-39 0v59q40 4 69 20.5t40.5 31.5t27.5 41l582 1046q27 42 6.5 69t-104.5 48v51h956q37 0 74 2t56 4l18 2l-64 -342h-70q4 79 -6.5 128.5t-39.5 77.5t-69.5 38t-105.5 10h-268l-21 -20v-553h379l17 137l75 12v-360h-96v131h-354l-21 -21v-417q0 -27 -2.5 -56t-5.5 -44
l-2 -15h322q46 0 76.5 3t58 16t44.5 26.5t39.5 48t38.5 66.5t46 94h69l-75 -334h-639l-297 -6v65q70 8 108.5 40t38.5 87v447h-370l-31 -21l-293 -530l174 -25l-8 -57h-373zM780 1188l-264 -475h346v561q-44 -17 -82 -86z" />
    <glyph glyph-name="Ccedilla" unicode="&#xc7;" horiz-adv-x="1390" 
d="M643 -166q0 53 66 148q-125 15 -235 68t-196 138t-136 209t-50 271q0 155 55.5 289t154 229.5t238 150t302.5 54.5q92 0 264.5 -24t177.5 -24l-61 -311h-70q0 76 -30 133t-81.5 88t-110 45.5t-124.5 14.5q-154 0 -274.5 -77t-185 -210.5t-64.5 -298.5q0 -136 45.5 -251.5
t124.5 -195t188 -124.5t233 -45q72 0 140.5 15t115.5 36.5t84 42.5t54 36l18 15l29 -43q-3 -5 -9.5 -13.5t-29.5 -33.5t-49.5 -47.5t-71 -49.5t-93.5 -47t-116.5 -33.5t-140.5 -13.5h-29q-14 -47 -14 -67q0 -19 17.5 -34t43 -26.5t51 -26t43 -41.5t17.5 -65q0 -78 -66 -139
t-161 -61q-51 0 -98 18.5t-68 36.5l-21 18l31 66q8 -6 21.5 -14.5t51 -22.5t70.5 -14q47 0 77 20.5t30 52.5q0 23 -24.5 42.5t-54.5 32t-54.5 34.5t-24.5 49z" />
    <glyph glyph-name="Egrave" unicode="&#xc8;" horiz-adv-x="1198" 
d="M111 -6v65q70 8 108.5 40t38.5 87v979q0 54 -9.5 77.5t-43.5 40t-115 32.5v51h844q37 0 74 2t55 4l18 2l-63 -342h-70q4 79 -6.5 128.5t-39.5 77.5t-69.5 38t-105.5 10h-268l-21 -20v-533h379l17 117l75 12v-360h-96v151h-354l-21 -20v-438q0 -27 -2.5 -56t-5.5 -44
l-2 -15h322q46 0 76.5 3t58 16t44.5 26.5t39.5 48t38.5 66.5t46 94h69l-75 -334h-639zM365 1606v51l67 106h10l363 -215l-27 -67z" />
    <glyph glyph-name="Eacute" unicode="&#xc9;" horiz-adv-x="1198" 
d="M111 -6v65q70 8 108.5 40t38.5 87v979q0 54 -9.5 77.5t-43.5 40t-115 32.5v51h844q37 0 74 2t55 4l18 2l-63 -342h-70q4 79 -6.5 128.5t-39.5 77.5t-69.5 38t-105.5 10h-268l-21 -20v-533h379l17 117l75 12v-360h-96v151h-354l-21 -20v-438q0 -27 -2.5 -56t-5.5 -44
l-2 -15h322q46 0 76.5 3t58 16t44.5 26.5t39.5 48t38.5 66.5t46 94h69l-75 -334h-639zM453 1548l362 215h10l68 -106v-51l-414 -125z" />
    <glyph glyph-name="Ecircumflex" unicode="&#xca;" horiz-adv-x="1198" 
d="M111 -6v65q70 8 108.5 40t38.5 87v979q0 54 -9.5 77.5t-43.5 40t-115 32.5v51h844q37 0 74 2t55 4l18 2l-63 -342h-70q4 79 -6.5 128.5t-39.5 77.5t-69.5 38t-105.5 10h-268l-21 -20v-533h379l17 117l75 12v-360h-96v151h-354l-21 -20v-438q0 -27 -2.5 -56t-5.5 -44
l-2 -15h322q46 0 76.5 3t58 16t44.5 26.5t39.5 48t38.5 66.5t46 94h69l-75 -334h-639zM307 1518l268 266h109l266 -266l-55 -48l-262 166h-8l-263 -166z" />
    <glyph glyph-name="Edieresis" unicode="&#xcb;" horiz-adv-x="1198" 
d="M111 -6v65q70 8 108.5 40t38.5 87v979q0 54 -9.5 77.5t-43.5 40t-115 32.5v51h844q37 0 74 2t55 4l18 2l-63 -342h-70q4 79 -6.5 128.5t-39.5 77.5t-69.5 38t-105.5 10h-268l-21 -20v-533h379l17 117l75 12v-360h-96v151h-354l-21 -20v-438q0 -27 -2.5 -56t-5.5 -44
l-2 -15h322q46 0 76.5 3t58 16t44.5 26.5t39.5 48t38.5 66.5t46 94h69l-75 -334h-639zM281 1624q0 44 33 77.5t77 33.5t77.5 -33.5t33.5 -77.5t-33.5 -77.5t-77.5 -33.5t-77 33.5t-33 77.5zM754 1624q0 44 33 77.5t77 33.5t77.5 -33.5t33.5 -77.5t-33.5 -77.5t-77.5 -33.5
t-77 33.5t-33 77.5z" />
    <glyph glyph-name="Igrave" unicode="&#xcc;" horiz-adv-x="677" 
d="M109 -6v65q68 8 107.5 41.5t39.5 85.5v979q0 31 -0.5 44t-5 31t-13 25.5t-26.5 18t-43 17t-64 14.5v51h160q82 0 139.5 2t74.5 4l16 2l10 -8q-8 -9 -19 -26.5t-30 -81.5t-19 -140v-932q0 -26 -2.5 -52t-5.5 -39l-2 -13l195 -19l-9 -57zM68 1606v51l67 106h10l363 -215
l-27 -67z" />
    <glyph glyph-name="Iacute" unicode="&#xcd;" horiz-adv-x="677" 
d="M109 -6v65q68 8 107.5 41.5t39.5 85.5v979q0 31 -0.5 44t-5 31t-13 25.5t-26.5 18t-43 17t-64 14.5v51h160q82 0 139.5 2t74.5 4l16 2l10 -8q-8 -9 -19 -26.5t-30 -81.5t-19 -140v-932q0 -26 -2.5 -52t-5.5 -39l-2 -13l195 -19l-9 -57zM156 1548l362 215h10l68 -106v-51
l-414 -125z" />
    <glyph glyph-name="Icircumflex" unicode="&#xce;" horiz-adv-x="677" 
d="M109 -6v65q68 8 107.5 41.5t39.5 85.5v979q0 31 -0.5 44t-5 31t-13 25.5t-26.5 18t-43 17t-64 14.5v51h160q82 0 139.5 2t74.5 4l16 2l10 -8q-8 -9 -19 -26.5t-30 -81.5t-19 -140v-932q0 -26 -2.5 -52t-5.5 -39l-2 -13l195 -19l-9 -57zM10 1518l269 266h108l266 -266
l-55 -48l-262 166h-8l-262 -166z" />
    <glyph glyph-name="Idieresis" unicode="&#xcf;" horiz-adv-x="677" 
d="M35 1624q0 44 33 77.5t77 33.5t77.5 -33.5t33.5 -77.5t-33.5 -77.5t-77.5 -33.5t-77 33.5t-33 77.5zM406 1624q0 44 33 77.5t77 33.5t77.5 -33.5t33.5 -77.5t-33.5 -77.5t-77.5 -33.5t-77 33.5t-33 77.5zM109 -6v65q68 8 107.5 41.5t39.5 85.5v979q0 31 -0.5 44t-5 31
t-13 25.5t-26.5 18t-43 17t-64 14.5v51h160q82 0 139.5 2t74.5 4l16 2l10 -8q-8 -9 -19 -26.5t-30 -81.5t-19 -140v-932q0 -26 -2.5 -52t-5.5 -39l-2 -13l195 -19l-9 -57z" />
    <glyph glyph-name="Eth" unicode="&#xd0;" horiz-adv-x="1527" 
d="M72 651v86h186v428q0 54 -9.5 77.5t-43.5 40t-115 32.5v51h561q125 0 234.5 -19t211.5 -65t175 -117t116.5 -181.5t43.5 -250.5q0 -228 -108 -394.5t-301.5 -252.5t-449.5 -86h-165l-297 -6v65q70 8 108.5 40t38.5 87v465h-186zM428 80h145q140 0 251.5 30.5t186.5 84.5
t124.5 131t71.5 166t22 194q0 277 -152 438.5t-434 161.5h-184l-21 -20v-529h340v-86h-340v-456q0 -27 -2.5 -56t-5.5 -44z" />
    <glyph glyph-name="Ntilde" unicode="&#xd1;" horiz-adv-x="1568" 
d="M113 -6v65q70 8 108.5 40t38.5 87v922q0 106 -33.5 147t-134.5 60v51h62q44 0 95 2t80 4l29 2q25 -47 76 -106l742 -856q34 -42 81 -109v852q0 28 -1 42t-5.5 34t-15 29.5t-28.5 21t-47 17.5t-70 10v57h389l10 -29q-6 -2 -15.5 -5.5t-33.5 -19.5t-43 -37t-34 -60t-15 -87
v-1138h-54l-870 1028q-43 50 -74 98v-930q0 -27 -2.5 -54.5t-5.5 -41.5l-2 -14l184 -13l-8 -57zM514 1501l-70 15q1 9 3 25t15 55.5t32.5 70t59 55.5t91.5 25q42 0 93 -19t90 -41.5t83.5 -41.5t75.5 -19q41 0 69 30t36 60l8 31l71 -6q0 -5 -1 -13.5t-6.5 -33.5t-13.5 -47.5
t-25 -50.5t-39 -48t-57 -33.5t-77 -13.5q-47 0 -96.5 19t-83 41.5t-73 41.5t-70.5 19q-24 0 -44.5 -12.5t-33 -30t-21.5 -35.5t-12 -30z" />
    <glyph glyph-name="Ograve" unicode="&#xd2;" horiz-adv-x="1628" 
d="M295 719q0 -92 22 -185.5t67.5 -179t107.5 -152t148.5 -106t184.5 -39.5q94 0 176.5 36t142 97.5t103 141t65 169t21.5 179.5q0 117 -36 228t-101.5 201t-168.5 145t-226 55q-116 0 -213 -49.5t-160 -132.5t-98 -188.5t-35 -219.5zM92 666q0 111 31 217t93.5 198t150 161
t208.5 109t261 40q157 0 289.5 -51t222 -139.5t139 -209.5t49.5 -260q0 -117 -34 -228.5t-100.5 -206.5t-156.5 -167t-209 -113t-252 -41q-154 0 -285 55.5t-219.5 150t-138 220.5t-49.5 265zM545 1606v51l67 106h11l362 -215l-27 -67z" />
    <glyph glyph-name="Oacute" unicode="&#xd3;" horiz-adv-x="1628" 
d="M295 719q0 -92 22 -185.5t67.5 -179t107.5 -152t148.5 -106t184.5 -39.5q94 0 176.5 36t142 97.5t103 141t65 169t21.5 179.5q0 117 -36 228t-101.5 201t-168.5 145t-226 55q-116 0 -213 -49.5t-160 -132.5t-98 -188.5t-35 -219.5zM92 666q0 111 31 217t93.5 198t150 161
t208.5 109t261 40q157 0 289.5 -51t222 -139.5t139 -209.5t49.5 -260q0 -117 -34 -228.5t-100.5 -206.5t-156.5 -167t-209 -113t-252 -41q-154 0 -285 55.5t-219.5 150t-138 220.5t-49.5 265zM633 1548l362 215h11l67 -106v-51l-414 -125z" />
    <glyph glyph-name="Ocircumflex" unicode="&#xd4;" horiz-adv-x="1628" 
d="M295 719q0 -92 22 -185.5t67.5 -179t107.5 -152t148.5 -106t184.5 -39.5q94 0 176.5 36t142 97.5t103 141t65 169t21.5 179.5q0 117 -36 228t-101.5 201t-168.5 145t-226 55q-116 0 -213 -49.5t-160 -132.5t-98 -188.5t-35 -219.5zM92 666q0 111 31 217t93.5 198t150 161
t208.5 109t261 40q157 0 289.5 -51t222 -139.5t139 -209.5t49.5 -260q0 -117 -34 -228.5t-100.5 -206.5t-156.5 -167t-209 -113t-252 -41q-154 0 -285 55.5t-219.5 150t-138 220.5t-49.5 265zM487 1518l269 266h108l266 -266l-55 -48l-262 166h-8l-262 -166z" />
    <glyph glyph-name="Otilde" unicode="&#xd5;" horiz-adv-x="1628" 
d="M295 719q0 -92 22 -185.5t67.5 -179t107.5 -152t148.5 -106t184.5 -39.5q94 0 176.5 36t142 97.5t103 141t65 169t21.5 179.5q0 117 -36 228t-101.5 201t-168.5 145t-226 55q-116 0 -213 -49.5t-160 -132.5t-98 -188.5t-35 -219.5zM92 666q0 111 31 217t93.5 198t150 161
t208.5 109t261 40q157 0 289.5 -51t222 -139.5t139 -209.5t49.5 -260q0 -117 -34 -228.5t-100.5 -206.5t-156.5 -167t-209 -113t-252 -41q-154 0 -285 55.5t-219.5 150t-138 220.5t-49.5 265zM516 1501l-70 15q1 9 3 25t15 55.5t32.5 70t59 55.5t91.5 25q42 0 93 -19
t90 -41.5t83.5 -41.5t75.5 -19q41 0 69 30t36 60l8 31l72 -6q-1 -10 -3 -26t-15.5 -57.5t-34.5 -73t-65 -57.5t-102 -26q-47 0 -96.5 19t-83 41.5t-73 41.5t-70.5 19q-24 0 -44.5 -12.5t-33 -30t-21.5 -35.5t-12 -30z" />
    <glyph glyph-name="Odieresis" unicode="&#xd6;" horiz-adv-x="1628" 
d="M295 719q0 -92 22 -185.5t67.5 -179t107.5 -152t148.5 -106t184.5 -39.5q94 0 176.5 36t142 97.5t103 141t65 169t21.5 179.5q0 117 -36 228t-101.5 201t-168.5 145t-226 55q-116 0 -213 -49.5t-160 -132.5t-98 -188.5t-35 -219.5zM92 666q0 111 31 217t93.5 198t150 161
t208.5 109t261 40q157 0 289.5 -51t222 -139.5t139 -209.5t49.5 -260q0 -117 -34 -228.5t-100.5 -206.5t-156.5 -167t-209 -113t-252 -41q-154 0 -285 55.5t-219.5 150t-138 220.5t-49.5 265zM461 1624q0 44 33 77.5t77 33.5t77.5 -33.5t33.5 -77.5t-33.5 -77.5t-77.5 -33.5
t-77 33.5t-33 77.5zM934 1624q0 44 33 77.5t77 33.5t77.5 -33.5t33.5 -77.5t-33.5 -77.5t-77.5 -33.5t-77 33.5t-33 77.5z" />
    <glyph glyph-name="multiply" unicode="&#xd7;" horiz-adv-x="1064" 
d="M72 893l80 84l380 -383l381 383l80 -84l-379 -381l379 -379l-82 -84l-379 381l-378 -381l-82 84l379 379z" />
    <glyph glyph-name="Oslash" unicode="&#xd8;" horiz-adv-x="1628" 
d="M92 666q0 111 31 217t93.5 198t150 161t208.5 109t261 40q210 0 381 -95l100 131h115l-140 -182q117 -89 180.5 -222.5t63.5 -291.5q0 -117 -34 -228.5t-100.5 -206.5t-156.5 -167t-209 -113t-252 -41q-216 0 -378 103l-107 -139h-117l148 194q-114 97 -176 236t-62 297z
M1333 680q0 117 -36.5 230.5t-104.5 201.5l-694 -915q140 -140 327 -140q94 0 176.5 36t142 97.5t103 141t65 169t21.5 179.5zM295 719q0 -117 36 -235t103 -214l694 910q-142 129 -327 129q-116 0 -213 -49.5t-160 -132.5t-98 -188.5t-35 -219.5z" />
    <glyph glyph-name="Ugrave" unicode="&#xd9;" horiz-adv-x="1505" 
d="M203 481v684q0 31 -0.5 44t-5 31t-13 25.5t-26.5 18t-43 17t-64 14.5v51h160q82 0 139 2t74 4l16 2l11 -8q-8 -9 -19 -26.5t-30 -81.5t-19 -140v-620q0 -108 34.5 -192.5t93 -135t130 -76.5t150.5 -26t152.5 26.5t133.5 76.5t96.5 131t36.5 181v672q0 28 -1 42t-5.5 33.5
t-15 29.5t-28.5 21.5t-46.5 17.5t-69.5 10v57h398l10 -29q-6 -2 -15.5 -5.5t-33.5 -19.5t-43 -37t-34 -60t-15 -87v-639q0 -122 -45 -220.5t-123 -162t-180 -97.5t-218 -34q-84 0 -160 16t-147 54.5t-122.5 95t-82 144t-30.5 196.5zM512 1606v51l68 106h10l362 -215l-26 -67
z" />
    <glyph glyph-name="Uacute" unicode="&#xda;" horiz-adv-x="1505" 
d="M203 481v684q0 31 -0.5 44t-5 31t-13 25.5t-26.5 18t-43 17t-64 14.5v51h160q82 0 139 2t74 4l16 2l11 -8q-8 -9 -19 -26.5t-30 -81.5t-19 -140v-620q0 -108 34.5 -192.5t93 -135t130 -76.5t150.5 -26t152.5 26.5t133.5 76.5t96.5 131t36.5 181v672q0 28 -1 42t-5.5 33.5
t-15 29.5t-28.5 21.5t-46.5 17.5t-69.5 10v57h398l10 -29q-6 -2 -15.5 -5.5t-33.5 -19.5t-43 -37t-34 -60t-15 -87v-639q0 -122 -45 -220.5t-123 -162t-180 -97.5t-218 -34q-84 0 -160 16t-147 54.5t-122.5 95t-82 144t-30.5 196.5zM600 1548l363 215h10l67 -106v-51
l-413 -125z" />
    <glyph glyph-name="Ucircumflex" unicode="&#xdb;" horiz-adv-x="1505" 
d="M203 481v684q0 31 -0.5 44t-5 31t-13 25.5t-26.5 18t-43 17t-64 14.5v51h160q82 0 139 2t74 4l16 2l11 -8q-8 -9 -19 -26.5t-30 -81.5t-19 -140v-620q0 -108 34.5 -192.5t93 -135t130 -76.5t150.5 -26t152.5 26.5t133.5 76.5t96.5 131t36.5 181v672q0 28 -1 42t-5.5 33.5
t-15 29.5t-28.5 21.5t-46.5 17.5t-69.5 10v57h398l10 -29q-6 -2 -15.5 -5.5t-33.5 -19.5t-43 -37t-34 -60t-15 -87v-639q0 -122 -45 -220.5t-123 -162t-180 -97.5t-218 -34q-84 0 -160 16t-147 54.5t-122.5 95t-82 144t-30.5 196.5zM455 1518l268 266h108l267 -266l-56 -48
l-262 166h-8l-262 -166z" />
    <glyph glyph-name="Udieresis" unicode="&#xdc;" horiz-adv-x="1505" 
d="M203 481v684q0 31 -0.5 44t-5 31t-13 25.5t-26.5 18t-43 17t-64 14.5v51h160q82 0 139 2t74 4l16 2l11 -8q-8 -9 -19 -26.5t-30 -81.5t-19 -140v-620q0 -108 34.5 -192.5t93 -135t130 -76.5t150.5 -26t152.5 26.5t133.5 76.5t96.5 131t36.5 181v672q0 28 -1 42t-5.5 33.5
t-15 29.5t-28.5 21.5t-46.5 17.5t-69.5 10v57h398l10 -29q-6 -2 -15.5 -5.5t-33.5 -19.5t-43 -37t-34 -60t-15 -87v-639q0 -122 -45 -220.5t-123 -162t-180 -97.5t-218 -34q-84 0 -160 16t-147 54.5t-122.5 95t-82 144t-30.5 196.5zM428 1624q0 44 33.5 77.5t77.5 33.5
t77 -33.5t33 -77.5t-33 -77.5t-77 -33.5t-77.5 33.5t-33.5 77.5zM901 1624q0 44 33.5 77.5t77.5 33.5t77 -33.5t33 -77.5t-33 -77.5t-77 -33.5t-77.5 33.5t-33.5 77.5z" />
    <glyph glyph-name="Yacute" unicode="&#xdd;" horiz-adv-x="1198" 
d="M362 -6v65q68 8 108 41.5t40 85.5v418l-393 621q-22 35 -49 57.5t-44 27.5l-16 5v51h98q57 0 109.5 2t76.5 4l23 2l9 -8q-4 -9 -9.5 -23.5t-5.5 -53.5t19 -70l254 -410q26 -43 59 -115l305 494q15 28 16.5 53t-23.5 45.5t-75 28.5v51h334l8 -29q-9 -3 -24 -10t-52.5 -39
t-64.5 -76l-375 -604v-422q0 -26 -2.5 -52t-5.5 -39l-2 -13l184 -19l-8 -57zM434 1548l363 215h10l67 -106v-51l-413 -125z" />
    <glyph glyph-name="Thorn" unicode="&#xde;" horiz-adv-x="1148" 
d="M567 322v57q86 2 151.5 26.5t103.5 65t56.5 89t18.5 104.5q0 106 -58.5 177.5t-148 101.5t-203.5 30h-30l-21 -21v-766q0 -26 -2.5 -52t-5.5 -39l-2 -13l195 -19l-9 -57l-503 -12v65q68 8 107.5 41.5t39.5 85.5v979q0 31 -0.5 44t-5 31t-13 25.5t-26.5 18t-43 17
t-64 14.5v51h160q82 0 139.5 2t74.5 4l16 2l10 -8q-8 -9 -19 -26.5t-30 -81.5t-19 -140v-65h160q94 0 179 -19t159.5 -57.5t119 -108t44.5 -161.5q0 -88 -34 -159t-89 -115.5t-125.5 -72.5t-142.5 -36.5t-140 -1.5z" />
    <glyph glyph-name="germandbls" unicode="&#xdf;" horiz-adv-x="1136" 
d="M76 -6v59q127 14 127 127v637h-129v62l129 45v47q0 71 14.5 140t48.5 134.5t84 115t125.5 79.5t167.5 30q135 0 218 -64t83 -169q0 -47 -23.5 -95.5t-57 -88.5t-66.5 -79.5t-56.5 -83.5t-23.5 -85q0 -40 21 -77t54 -67.5t73.5 -61.5t80.5 -65t73 -72t54 -89.5t21 -110.5
q0 -70 -29 -126.5t-77 -90.5t-107 -52t-123 -18q-42 0 -86 7.5t-87.5 24t-71.5 47t-28 71.5q0 22 7.5 50.5t14.5 46.5l7 18h61q15 -99 63 -147t122 -48q32 0 63 8.5t59 25.5t45 47t17 69q0 41 -20 79.5t-51.5 69.5t-70 62.5t-77 64.5t-70 69t-51.5 83t-20 100t20.5 103
t50 89.5t59 78.5t50 86.5t20.5 97.5q0 96 -54.5 151t-141.5 55q-217 0 -217 -378v-897q0 -27 2 -52t4 -36l2 -11l-6 -6z" />
    <glyph glyph-name="agrave" unicode="&#xe0;" horiz-adv-x="942" 
d="M57 182q0 57 27.5 107t72 86t105 64.5t123 46.5t129.5 28l70 10q6 133 -9 219q-24 131 -129 131q-39 0 -75.5 -20t-61 -49t-43.5 -58t-28 -49l-9 -20h-65l-35 153q6 5 17.5 12.5t50 27.5t79.5 35t104.5 27.5t127.5 12.5q142 0 193 -64t51 -229v-471q0 -53 11 -74.5
t44 -21.5q24 0 52.5 10t44.5 20l16 11l26 -43q-4 -4 -11 -11.5t-30 -26.5t-47.5 -33t-59.5 -26t-69 -12q-62 0 -100.5 37t-38.5 109v49q-4 -8 -13 -21t-39 -46.5t-64 -59.5t-89.5 -47t-114.5 -21q-98 0 -155.5 60t-57.5 147zM352 92q87 0 232 123v242l-64 -11
q-49 -8 -94.5 -23t-89.5 -41.5t-71 -68.5t-27 -94q0 -59 33 -93t81 -34zM180 1382v56l178 -19l174 -350l-63 -35z" />
    <glyph glyph-name="aacute" unicode="&#xe1;" horiz-adv-x="942" 
d="M57 182q0 57 27.5 107t72 86t105 64.5t123 46.5t129.5 28l70 10q6 133 -9 219q-24 131 -129 131q-39 0 -75.5 -20t-61 -49t-43.5 -58t-28 -49l-9 -20h-65l-35 153q6 5 17.5 12.5t50 27.5t79.5 35t104.5 27.5t127.5 12.5q142 0 193 -64t51 -229v-471q0 -53 11 -74.5
t44 -21.5q24 0 52.5 10t44.5 20l16 11l26 -43q-4 -4 -11 -11.5t-30 -26.5t-47.5 -33t-59.5 -26t-69 -12q-62 0 -100.5 37t-38.5 109v49q-4 -8 -13 -21t-39 -46.5t-64 -59.5t-89.5 -47t-114.5 -21q-98 0 -155.5 60t-57.5 147zM352 92q87 0 232 123v242l-64 -11
q-49 -8 -94.5 -23t-89.5 -41.5t-71 -68.5t-27 -94q0 -59 33 -93t81 -34zM432 1034l-63 35l174 350l178 19v-56z" />
    <glyph glyph-name="acircumflex" unicode="&#xe2;" horiz-adv-x="942" 
d="M57 182q0 57 27.5 107t72 86t105 64.5t123 46.5t129.5 28l70 10q6 133 -9 219q-24 131 -129 131q-39 0 -75.5 -20t-61 -49t-43.5 -58t-28 -49l-9 -20h-65l-35 153q6 5 17.5 12.5t50 27.5t79.5 35t104.5 27.5t127.5 12.5q142 0 193 -64t51 -229v-471q0 -53 11 -74.5
t44 -21.5q24 0 52.5 10t44.5 20l16 11l26 -43q-4 -4 -11 -11.5t-30 -26.5t-47.5 -33t-59.5 -26t-69 -12q-62 0 -100.5 37t-38.5 109v49q-4 -8 -13 -21t-39 -46.5t-64 -59.5t-89.5 -47t-114.5 -21q-98 0 -155.5 60t-57.5 147zM352 92q87 0 232 123v242l-64 -11
q-49 -8 -94.5 -23t-89.5 -41.5t-71 -68.5t-27 -94q0 -59 33 -93t81 -34zM174 1069l238 361h80l235 -361l-61 -39l-215 238l-215 -238z" />
    <glyph glyph-name="atilde" unicode="&#xe3;" horiz-adv-x="942" 
d="M57 182q0 57 27.5 107t72 86t105 64.5t123 46.5t129.5 28l70 10q6 133 -9 219q-24 131 -129 131q-39 0 -75.5 -20t-61 -49t-43.5 -58t-28 -49l-9 -20h-65l-35 153q6 5 17.5 12.5t50 27.5t79.5 35t104.5 27.5t127.5 12.5q142 0 193 -64t51 -229v-471q0 -53 11 -74.5
t44 -21.5q24 0 52.5 10t44.5 20l16 11l26 -43q-4 -4 -11 -11.5t-30 -26.5t-47.5 -33t-59.5 -26t-69 -12q-62 0 -100.5 37t-38.5 109v49q-4 -8 -13 -21t-39 -46.5t-64 -59.5t-89.5 -47t-114.5 -21q-98 0 -155.5 60t-57.5 147zM352 92q87 0 232 123v242l-64 -11
q-49 -8 -94.5 -23t-89.5 -41.5t-71 -68.5t-27 -94q0 -59 33 -93t81 -34zM154 1151q0 5 -0.5 14t2 35t7 49.5t17 52.5t30.5 50t48.5 35t69.5 14q38 0 70.5 -15.5t54.5 -37.5t42 -44t43 -37.5t48 -15.5q38 0 59.5 34.5t24.5 68.5l2 35h76q-2 -1 0 -14.5t-2 -37t-8 -50.5
t-17.5 -55t-31.5 -50.5t-49.5 -37t-70.5 -14.5q-38 0 -70.5 15.5t-54 37.5t-41 44t-42.5 37.5t-48 15.5q-37 0 -58 -32t-23 -64l-3 -33h-75z" />
    <glyph glyph-name="adieresis" unicode="&#xe4;" horiz-adv-x="942" 
d="M57 182q0 57 27.5 107t72 86t105 64.5t123 46.5t129.5 28l70 10q6 133 -9 219q-24 131 -129 131q-39 0 -75.5 -20t-61 -49t-43.5 -58t-28 -49l-9 -20h-65l-35 153q6 5 17.5 12.5t50 27.5t79.5 35t104.5 27.5t127.5 12.5q142 0 193 -64t51 -229v-471q0 -53 11 -74.5
t44 -21.5q24 0 52.5 10t44.5 20l16 11l26 -43q-4 -4 -11 -11.5t-30 -26.5t-47.5 -33t-59.5 -26t-69 -12q-62 0 -100.5 37t-38.5 109v49q-4 -8 -13 -21t-39 -46.5t-64 -59.5t-89.5 -47t-114.5 -21q-98 0 -155.5 60t-57.5 147zM352 92q87 0 232 123v242l-64 -11
q-49 -8 -94.5 -23t-89.5 -41.5t-71 -68.5t-27 -94q0 -59 33 -93t81 -34zM264 1155q-44 0 -77 33.5t-33 77.5t33 77t77 33t77.5 -33t33.5 -77t-33.5 -77.5t-77.5 -33.5zM635 1155q-44 0 -77.5 33.5t-33.5 77.5t33.5 77t77.5 33t77 -33t33 -77t-33 -77.5t-77 -33.5z" />
    <glyph glyph-name="aring" unicode="&#xe5;" horiz-adv-x="942" 
d="M57 182q0 57 27.5 107t72 86t105 64.5t123 46.5t129.5 28l70 10q6 133 -9 219q-24 131 -129 131q-39 0 -75.5 -20t-61 -49t-43.5 -58t-28 -49l-9 -20h-65l-35 153q6 5 17.5 12.5t50 27.5t79.5 35t104.5 27.5t127.5 12.5q142 0 193 -64t51 -229v-471q0 -53 11 -74.5
t44 -21.5q24 0 52.5 10t44.5 20l16 11l26 -43q-4 -4 -11 -11.5t-30 -26.5t-47.5 -33t-59.5 -26t-69 -12q-62 0 -100.5 37t-38.5 109v49q-4 -8 -13 -21t-39 -46.5t-64 -59.5t-89.5 -47t-114.5 -21q-98 0 -155.5 60t-57.5 147zM451 1098q-92 0 -142.5 51.5t-50.5 120.5
q0 68 50 117t143 49t142.5 -48.5t49.5 -117.5t-50 -120.5t-142 -51.5zM352 92q87 0 232 123v242l-64 -11q-49 -8 -94.5 -23t-89.5 -41.5t-71 -68.5t-27 -94q0 -59 33 -93t81 -34zM451 1167q45 0 71.5 30t26.5 71q0 40 -25 69t-73 29q-49 0 -73 -28.5t-24 -69.5
q0 -42 25 -71.5t72 -29.5z" />
    <glyph glyph-name="ae" unicode="&#xe6;" horiz-adv-x="1452" 
d="M53 186q0 92 72.5 165.5t192 120t280.5 71.5v51q0 65 -5 110t-18.5 86.5t-42 62.5t-71.5 21q-30 0 -58 -11t-49 -28t-40 -38t-31.5 -42t-22 -38t-14.5 -28l-4 -11h-66l-35 153q6 5 17.5 12.5t49.5 27.5t79 35t104 27.5t127 12.5q100 0 150 -32.5t71 -104.5
q110 137 283 137q92 0 168.5 -37t126.5 -114t53 -183q-59 -18 -94 -24l-520 -92q1 -60 12.5 -114t37 -104t63 -86t93.5 -57.5t125 -21.5q47 0 92 10t75 24.5t54 29t35 24.5l11 10l22 -43q-5 -8 -14 -21t-43 -46t-73 -58.5t-103 -46.5t-135 -21q-133 0 -228.5 68.5
t-134.5 198.5q-39 -113 -132 -190t-214 -77q-115 0 -180.5 60t-65.5 151zM350 92q37 0 77.5 17.5t79.5 51.5t64 95t25 139v74q-53 -9 -93 -18.5t-94.5 -30t-89.5 -45.5t-60.5 -65.5t-25.5 -90.5q0 -58 31 -92.5t86 -34.5zM991 868q-97 0 -158.5 -85.5t-74.5 -211.5l422 74
q-1 9 -3 24t-14 53.5t-30 68t-55.5 53.5t-86.5 24z" />
    <glyph glyph-name="ccedilla" unicode="&#xe7;" horiz-adv-x="903" 
d="M365 -168q0 9 2.5 19t5 19.5t8.5 22t10 20.5t11.5 21t10.5 18.5t10.5 18t8.5 13.5q-167 27 -260.5 158t-93.5 300q0 94 29.5 183.5t83 161.5t138.5 115.5t187 43.5q49 0 103.5 -9.5t105 -27.5t83 -49t32.5 -69q0 -31 -21.5 -52.5t-56.5 -21.5q-28 0 -52.5 16.5t-43.5 40
t-40 47t-52.5 40t-71.5 16.5q-118 0 -187 -109t-69 -266q0 -77 19.5 -144.5t58.5 -123.5t106 -88.5t154 -32.5q43 0 83.5 8.5t67 21t47 25t30.5 20.5l9 9l23 -43q-4 -7 -11.5 -19t-36.5 -43t-64 -54.5t-94 -43t-126 -19.5h-12q-17 -43 -17 -69q0 -19 17.5 -34t43 -26.5
t51 -26t43 -41.5t17.5 -65q0 -78 -66 -139t-161 -61q-51 0 -97.5 18.5t-67.5 36.5l-21 18l30 66q8 -6 21.5 -14.5t51.5 -22.5t71 -14q47 0 76.5 20.5t29.5 52.5q0 23 -24.5 42.5t-54 32t-54 34.5t-24.5 49z" />
    <glyph glyph-name="egrave" unicode="&#xe8;" horiz-adv-x="942" 
d="M78 442q0 211 124 357.5t308 146.5q91 0 169 -37t131 -116t56 -187q-53 -20 -94 -26l-510 -74l-20 -25q3 -73 23.5 -136.5t58.5 -116.5t102 -84t147 -31q47 0 92 10t75 24.5t54 29t35 24.5l11 10l22 -43q-4 -8 -13 -21t-40 -46t-68 -58.5t-99 -46.5t-130 -21
q-105 0 -189.5 39t-137 105t-80 148.5t-27.5 174.5zM479 868q-98 0 -158.5 -82t-74.5 -206l430 55q0 5 -1 13.5t-6.5 32.5t-13.5 46t-23 49t-35 46t-50.5 32.5t-67.5 13.5zM219 1382v56l178 -19l174 -350l-63 -35z" />
    <glyph glyph-name="eacute" unicode="&#xe9;" horiz-adv-x="942" 
d="M78 442q0 211 124 357.5t308 146.5q91 0 169 -37t131 -116t56 -187q-53 -20 -94 -26l-510 -74l-20 -25q3 -73 23.5 -136.5t58.5 -116.5t102 -84t147 -31q47 0 92 10t75 24.5t54 29t35 24.5l11 10l22 -43q-4 -8 -13 -21t-40 -46t-68 -58.5t-99 -46.5t-130 -21
q-105 0 -189.5 39t-137 105t-80 148.5t-27.5 174.5zM479 868q-98 0 -158.5 -82t-74.5 -206l430 55q0 5 -1 13.5t-6.5 32.5t-13.5 46t-23 49t-35 46t-50.5 32.5t-67.5 13.5zM471 1034l-63 35l174 350l178 19v-56z" />
    <glyph glyph-name="ecircumflex" unicode="&#xea;" horiz-adv-x="942" 
d="M78 442q0 211 124 357.5t308 146.5q91 0 169 -37t131 -116t56 -187q-53 -20 -94 -26l-510 -74l-20 -25q3 -73 23.5 -136.5t58.5 -116.5t102 -84t147 -31q47 0 92 10t75 24.5t54 29t35 24.5l11 10l22 -43q-4 -8 -13 -21t-40 -46t-68 -58.5t-99 -46.5t-130 -21
q-105 0 -189.5 39t-137 105t-80 148.5t-27.5 174.5zM479 868q-98 0 -158.5 -82t-74.5 -206l430 55q0 5 -1 13.5t-6.5 32.5t-13.5 46t-23 49t-35 46t-50.5 32.5t-67.5 13.5zM213 1069l238 361h79l236 -361l-61 -39l-216 238l-215 -238z" />
    <glyph glyph-name="edieresis" unicode="&#xeb;" horiz-adv-x="942" 
d="M78 442q0 211 124 357.5t308 146.5q91 0 169 -37t131 -116t56 -187q-53 -20 -94 -26l-510 -74l-20 -25q3 -73 23.5 -136.5t58.5 -116.5t102 -84t147 -31q47 0 92 10t75 24.5t54 29t35 24.5l11 10l22 -43q-4 -8 -13 -21t-40 -46t-68 -58.5t-99 -46.5t-130 -21
q-105 0 -189.5 39t-137 105t-80 148.5t-27.5 174.5zM479 868q-98 0 -158.5 -82t-74.5 -206l430 55q0 5 -1 13.5t-6.5 32.5t-13.5 46t-23 49t-35 46t-50.5 32.5t-67.5 13.5zM303 1155q-44 0 -77 33.5t-33 77.5t33 77t77 33t77.5 -33t33.5 -77t-33.5 -77.5t-77.5 -33.5z
M674 1155q-44 0 -77.5 33.5t-33.5 77.5t33.5 77t77.5 33t77 -33t33 -77t-33 -77.5t-77 -33.5z" />
    <glyph glyph-name="igrave" unicode="&#xec;" horiz-adv-x="567" 
d="M78 -6v59q127 14 127 133v498q0 39 -1.5 60t-7.5 41.5t-18.5 29t-34.5 8.5h-92v56q133 31 218.5 55t104.5 32l19 9l2 -6q-22 -68 -22 -234v-549q0 -27 -2.5 -54.5t-5.5 -41.5l-3 -14l175 -19l-9 -51zM0 1382v56l178 -19l174 -350l-63 -35z" />
    <glyph glyph-name="iacute" unicode="&#xed;" horiz-adv-x="567" 
d="M78 -6v59q127 14 127 133v498q0 39 -1.5 60t-7.5 41.5t-18.5 29t-34.5 8.5h-92v56q133 31 218.5 55t104.5 32l19 9l2 -6q-22 -68 -22 -234v-549q0 -27 -2.5 -54.5t-5.5 -41.5l-3 -14l175 -19l-9 -51zM252 1034l-64 35l174 350l179 19v-56z" />
    <glyph glyph-name="icircumflex" unicode="&#xee;" horiz-adv-x="567" 
d="M78 -6v59q127 14 127 133v498q0 39 -1.5 60t-7.5 41.5t-18.5 29t-34.5 8.5h-92v56q133 31 218.5 55t104.5 32l19 9l2 -6q-22 -68 -22 -234v-549q0 -27 -2.5 -54.5t-5.5 -41.5l-3 -14l175 -19l-9 -51zM-6 1069l237 361h80l236 -361l-62 -39l-215 238l-215 -238z" />
    <glyph glyph-name="idieresis" unicode="&#xef;" horiz-adv-x="567" 
d="M-16 1266q0 44 33 77t77 33t77.5 -33t33.5 -77t-33.5 -77.5t-77.5 -33.5t-77 33.5t-33 77.5zM334 1266q0 44 33 77t77 33t77.5 -33t33.5 -77t-33.5 -77.5t-77.5 -33.5t-77 33.5t-33 77.5zM78 -6v59q127 14 127 133v498q0 39 -1.5 60t-7.5 41.5t-18.5 29t-34.5 8.5h-92v56
q133 31 218.5 55t104.5 32l19 9l2 -6q-22 -68 -22 -234v-549q0 -27 -2.5 -54.5t-5.5 -41.5l-3 -14l175 -19l-9 -51z" />
    <glyph glyph-name="eth" unicode="&#xf0;" horiz-adv-x="1077" 
d="M270 1051l-41 71l258 156q-140 127 -317 184l20 54q225 -45 404 -173l272 166l39 -71l-243 -150q149 -136 232 -323t83 -387q0 -172 -55 -307.5t-164.5 -215.5t-257.5 -80q-102 0 -184.5 37.5t-133.5 101t-78.5 143.5t-27.5 169q0 97 32 189.5t89.5 166.5t148 119
t197.5 45q96 0 186 -35q-65 177 -182 308zM254 465q0 -73 16.5 -145.5t47.5 -134.5t82.5 -101t115.5 -39q120 0 201.5 128t81.5 353q0 48 -5 91.5t-20.5 91.5t-40.5 83t-68 57.5t-100 22.5q-139 0 -225 -115t-86 -292z" />
    <glyph glyph-name="ntilde" unicode="&#xf1;" horiz-adv-x="1171" 
d="M78 -6v59q127 14 127 133v498q0 39 -1.5 60t-7.5 41.5t-18.5 29t-34.5 8.5h-92v56q89 18 171 42t120 39l37 15l6 -6q-18 -68 -20 -250q62 94 165.5 160.5t223.5 66.5q233 0 233 -276v-484q0 -27 -2.5 -54t-4.5 -40l-3 -14l174 -21l-8 -51l-441 -12v59q65 7 91 40t26 93
v439q0 110 -36.5 153t-104.5 43q-72 0 -157 -39t-148 -104v-492q0 -27 -2.5 -54t-5.5 -40l-3 -14l164 -21l-8 -51zM299 1151q0 5 -0.5 14t2 35t7 49.5t17 52.5t30.5 50t48.5 35t69.5 14q38 0 70.5 -15.5t54.5 -37.5t42 -44t43 -37.5t48 -15.5q38 0 59.5 34.5t23.5 68.5l3 35
h76q-2 -1 0 -14.5t-1.5 -37t-7.5 -50.5t-17.5 -55t-31.5 -50.5t-49.5 -37t-70.5 -14.5q-38 0 -70.5 15.5t-54 37.5t-41 44t-42.5 37.5t-48 15.5q-37 0 -58 -32t-23 -64l-3 -33h-76z" />
    <glyph glyph-name="ograve" unicode="&#xf2;" horiz-adv-x="1089" 
d="M78 440q0 75 16 145t53.5 136.5t91.5 115.5t136.5 79t183.5 30q145 0 249 -60t154 -160t50 -228q0 -78 -18.5 -152t-58.5 -141.5t-96 -118.5t-137 -81t-176 -30q-210 0 -329 130.5t-119 334.5zM266 487q0 -63 10 -124.5t33 -119.5t55.5 -101.5t82 -70t108.5 -26.5
q126 0 197 112t71 283q0 80 -16.5 154.5t-49.5 139.5t-90.5 104t-131.5 39q-90 0 -152.5 -57.5t-89.5 -143.5t-27 -189zM270 1382v56l179 -19l174 -350l-64 -35z" />
    <glyph glyph-name="oacute" unicode="&#xf3;" horiz-adv-x="1089" 
d="M78 440q0 75 16 145t53.5 136.5t91.5 115.5t136.5 79t183.5 30q145 0 249 -60t154 -160t50 -228q0 -78 -18.5 -152t-58.5 -141.5t-96 -118.5t-137 -81t-176 -30q-210 0 -329 130.5t-119 334.5zM266 487q0 -63 10 -124.5t33 -119.5t55.5 -101.5t82 -70t108.5 -26.5
q126 0 197 112t71 283q0 80 -16.5 154.5t-49.5 139.5t-90.5 104t-131.5 39q-90 0 -152.5 -57.5t-89.5 -143.5t-27 -189zM522 1034l-63 35l174 350l178 19v-56z" />
    <glyph glyph-name="ocircumflex" unicode="&#xf4;" horiz-adv-x="1089" 
d="M78 440q0 75 16 145t53.5 136.5t91.5 115.5t136.5 79t183.5 30q145 0 249 -60t154 -160t50 -228q0 -78 -18.5 -152t-58.5 -141.5t-96 -118.5t-137 -81t-176 -30q-210 0 -329 130.5t-119 334.5zM266 487q0 -63 10 -124.5t33 -119.5t55.5 -101.5t82 -70t108.5 -26.5
q126 0 197 112t71 283q0 80 -16.5 154.5t-49.5 139.5t-90.5 104t-131.5 39q-90 0 -152.5 -57.5t-89.5 -143.5t-27 -189zM264 1069l238 361h80l235 -361l-61 -39l-215 238l-215 -238z" />
    <glyph glyph-name="otilde" unicode="&#xf5;" horiz-adv-x="1089" 
d="M78 440q0 75 16 145t53.5 136.5t91.5 115.5t136.5 79t183.5 30q145 0 249 -60t154 -160t50 -228q0 -78 -18.5 -152t-58.5 -141.5t-96 -118.5t-137 -81t-176 -30q-210 0 -329 130.5t-119 334.5zM266 487q0 -63 10 -124.5t33 -119.5t55.5 -101.5t82 -70t108.5 -26.5
q126 0 197 112t71 283q0 80 -16.5 154.5t-49.5 139.5t-90.5 104t-131.5 39q-90 0 -152.5 -57.5t-89.5 -143.5t-27 -189zM244 1151q0 5 -0.5 14t2 35t7 49.5t17 52.5t30.5 50t48.5 35t69.5 14q38 0 70.5 -15.5t54.5 -37.5t42 -44t43 -37.5t48 -15.5q38 0 59.5 34.5t24.5 68.5
l2 35h76q-2 -1 0 -14.5t-2 -37t-8 -50.5t-17.5 -55t-31.5 -50.5t-49.5 -37t-70.5 -14.5q-38 0 -70.5 15.5t-54 37.5t-41 44t-42.5 37.5t-48 15.5q-37 0 -58 -32t-23 -64l-3 -33h-75z" />
    <glyph glyph-name="odieresis" unicode="&#xf6;" horiz-adv-x="1089" 
d="M78 440q0 75 16 145t53.5 136.5t91.5 115.5t136.5 79t183.5 30q145 0 249 -60t154 -160t50 -228q0 -78 -18.5 -152t-58.5 -141.5t-96 -118.5t-137 -81t-176 -30q-210 0 -329 130.5t-119 334.5zM266 487q0 -63 10 -124.5t33 -119.5t55.5 -101.5t82 -70t108.5 -26.5
q126 0 197 112t71 283q0 80 -16.5 154.5t-49.5 139.5t-90.5 104t-131.5 39q-90 0 -152.5 -57.5t-89.5 -143.5t-27 -189zM354 1155q-44 0 -77 33.5t-33 77.5t33 77t77 33t77.5 -33t33.5 -77t-33.5 -77.5t-77.5 -33.5zM725 1155q-44 0 -77.5 33.5t-33.5 77.5t33.5 77t77.5 33
t77.5 -33t33.5 -77t-33.5 -77.5t-77.5 -33.5z" />
    <glyph glyph-name="divide" unicode="&#xf7;" horiz-adv-x="1064" 
d="M74 457v112h917v-112h-917zM410 121q0 51 35.5 87t86.5 36t87 -36t36 -87t-36 -87t-87 -36t-86.5 36t-35.5 87zM532 782q-51 0 -86.5 36t-35.5 87t35.5 87t86.5 36t87 -36t36 -87t-36 -87t-87 -36z" />
    <glyph glyph-name="oslash" unicode="&#xf8;" horiz-adv-x="1089" 
d="M102 -61l113 149q-137 128 -137 352q0 75 16 145t53.5 136.5t91.5 115.5t136.5 79t183.5 30q145 0 248 -61l74 98h106l-110 -147q135 -123 135 -338q0 -78 -18.5 -152t-58.5 -141.5t-96 -118.5t-137 -81t-176 -30q-135 0 -243 62l-72 -98h-109zM266 487q0 -153 49 -262
l412 553q-76 99 -192 99q-90 0 -152.5 -57.5t-89.5 -143.5t-27 -189zM823 440q0 140 -49 256l-412 -553q72 -98 193 -98q126 0 197 112t71 283z" />
    <glyph glyph-name="ugrave" unicode="&#xf9;" horiz-adv-x="1144" 
d="M176 250v434q0 32 -0.5 49t-4 37.5t-9.5 30t-18 16t-29 6.5h-72v58q88 16 166 34.5t111 29.5l34 11l8 -6q-18 -57 -18 -215v-438q0 -110 35.5 -153.5t103.5 -43.5q71 0 151 39.5t146 106.5v438q0 32 -0.5 49t-4 37.5t-9.5 30t-18 16t-29 6.5h-68v58q88 16 164.5 34.5
t109.5 29.5l33 11l9 -6q-19 -57 -19 -215v-540q0 -29 3.5 -49.5t12 -33t16 -20t24 -10.5t27 -3.5t32.5 -0.5h57l-6 -55q-99 -10 -183 -20.5t-119 -15.5l-34 -5l-8 6q18 59 18 110v107q-65 -95 -163.5 -162.5t-216.5 -67.5q-232 0 -232 275zM291 1382v56l178 -19l174 -350
l-63 -35z" />
    <glyph glyph-name="uacute" unicode="&#xfa;" horiz-adv-x="1144" 
d="M176 250v434q0 32 -0.5 49t-4 37.5t-9.5 30t-18 16t-29 6.5h-72v58q88 16 166 34.5t111 29.5l34 11l8 -6q-18 -57 -18 -215v-438q0 -110 35.5 -153.5t103.5 -43.5q71 0 151 39.5t146 106.5v438q0 32 -0.5 49t-4 37.5t-9.5 30t-18 16t-29 6.5h-68v58q88 16 164.5 34.5
t109.5 29.5l33 11l9 -6q-19 -57 -19 -215v-540q0 -29 3.5 -49.5t12 -33t16 -20t24 -10.5t27 -3.5t32.5 -0.5h57l-6 -55q-99 -10 -183 -20.5t-119 -15.5l-34 -5l-8 6q18 59 18 110v107q-65 -95 -163.5 -162.5t-216.5 -67.5q-232 0 -232 275zM543 1034l-64 35l174 350l178 19
v-56z" />
    <glyph glyph-name="ucircumflex" unicode="&#xfb;" horiz-adv-x="1144" 
d="M176 250v434q0 32 -0.5 49t-4 37.5t-9.5 30t-18 16t-29 6.5h-72v58q88 16 166 34.5t111 29.5l34 11l8 -6q-18 -57 -18 -215v-438q0 -110 35.5 -153.5t103.5 -43.5q71 0 151 39.5t146 106.5v438q0 32 -0.5 49t-4 37.5t-9.5 30t-18 16t-29 6.5h-68v58q88 16 164.5 34.5
t109.5 29.5l33 11l9 -6q-19 -57 -19 -215v-540q0 -29 3.5 -49.5t12 -33t16 -20t24 -10.5t27 -3.5t32.5 -0.5h57l-6 -55q-99 -10 -183 -20.5t-119 -15.5l-34 -5l-8 6q18 59 18 110v107q-65 -95 -163.5 -162.5t-216.5 -67.5q-232 0 -232 275zM285 1069l237 361h80l236 -361
l-62 -39l-215 238l-215 -238z" />
    <glyph glyph-name="udieresis" unicode="&#xfc;" horiz-adv-x="1144" 
d="M176 250v434q0 32 -0.5 49t-4 37.5t-9.5 30t-18 16t-29 6.5h-72v58q88 16 166 34.5t111 29.5l34 11l8 -6q-18 -57 -18 -215v-438q0 -110 35.5 -153.5t103.5 -43.5q71 0 151 39.5t146 106.5v438q0 32 -0.5 49t-4 37.5t-9.5 30t-18 16t-29 6.5h-68v58q88 16 164.5 34.5
t109.5 29.5l33 11l9 -6q-19 -57 -19 -215v-540q0 -29 3.5 -49.5t12 -33t16 -20t24 -10.5t27 -3.5t32.5 -0.5h57l-6 -55q-99 -10 -183 -20.5t-119 -15.5l-34 -5l-8 6q18 59 18 110v107q-65 -95 -163.5 -162.5t-216.5 -67.5q-232 0 -232 275zM375 1155q-44 0 -77.5 33.5
t-33.5 77.5t33.5 77t77.5 33t77 -33t33 -77t-33 -77.5t-77 -33.5zM745 1155q-44 0 -77 33.5t-33 77.5t33 77t77 33t77.5 -33t33.5 -77t-33.5 -77.5t-77.5 -33.5z" />
    <glyph glyph-name="yacute" unicode="&#xfd;" horiz-adv-x="944" 
d="M145 -315q77 0 132 42.5t85 110.5l66 154q-27 80 -49 133l-262 627q-19 45 -48 74.5t-48 36.5l-19 7v52h96q57 0 109.5 2t76.5 4l23 2l8 -8q-19 -36 -19 -92t17 -97l166 -416q28 -83 39 -122l232 528q24 56 -11 92.5t-102 54.5v52h285l10 -33q-4 -2 -11 -8t-27 -34
t-36 -67l-354 -805q-6 -14 -23.5 -54.5t-30 -70t-35 -74.5t-42.5 -77.5t-48.5 -69.5t-56.5 -60t-62.5 -38.5t-70.5 -15.5q-42 0 -66 25t-24 61q0 35 24.5 59.5t75.5 24.5zM475 1034l-63 35l174 350l178 19v-56z" />
    <glyph glyph-name="thorn" unicode="&#xfe;" horiz-adv-x="1064" 
d="M324 164q0 -111 147 -111q158 0 248 105t90 282q0 102 -28 188t-90.5 142.5t-149.5 56.5q-106 0 -217 -86v-577zM156 -250v1477q0 39 -1.5 60t-7.5 41.5t-18.5 29t-34.5 8.5h-86v55q105 23 187.5 46t112.5 35l30 11l6 -6q-20 -75 -20 -233v-305l-5 -183q26 34 48 56
t58 49t84 41t105 14q120 0 206.5 -65.5t126.5 -164.5t40 -216q0 -100 -32.5 -192t-95 -167.5t-165.5 -120.5t-233 -45q-53 0 -137 13v-236q0 -27 -3 -56.5t-5 -45.5l-3 -15h215l-8 -49q-324 -39 -471 -88v60q66 37 86.5 77t20.5 115z" />
    <glyph glyph-name="ydieresis" unicode="&#xff;" horiz-adv-x="944" 
d="M145 -315q77 0 132 42.5t85 110.5l66 154q-27 80 -49 133l-262 627q-19 45 -48 74.5t-48 36.5l-19 7v52h96q57 0 109.5 2t76.5 4l23 2l8 -8q-19 -36 -19 -92t17 -97l166 -416q28 -83 39 -122l232 528q24 56 -11 92.5t-102 54.5v52h285l10 -33q-4 -2 -11 -8t-27 -34
t-36 -67l-354 -805q-6 -14 -23.5 -54.5t-30 -70t-35 -74.5t-42.5 -77.5t-48.5 -69.5t-56.5 -60t-62.5 -38.5t-70.5 -15.5q-42 0 -66 25t-24 61q0 35 24.5 59.5t75.5 24.5zM678 1155q-44 0 -77.5 33.5t-33.5 77.5t33.5 77t77.5 33t77 -33t33 -77t-33 -77.5t-77 -33.5z
M307 1155q-44 0 -77 33.5t-33 77.5t33 77t77 33t77.5 -33t33.5 -77t-33.5 -77.5t-77.5 -33.5z" />
    <glyph glyph-name="Amacron" unicode="&#x100;" horiz-adv-x="1275" 
d="M-27 0v59q106 10 138 93l485 1208l84 18l455 -1163q20 -51 37.5 -82t37.5 -46.5t36 -21.5t44 -10l-8 -55h-88l-311 -6v69q50 2 76 20t10 60l-125 328h-490l-26 -20l-142 -369l174 -25l-8 -57h-379zM635 1024q-26 66 -41 125l-227 -592h444zM375 1567v121h528v-121h-528z
" />
    <glyph glyph-name="amacron" unicode="&#x101;" horiz-adv-x="942" 
d="M57 182q0 57 27.5 107t72 86t105 64.5t123 46.5t129.5 28l70 10q6 133 -9 219q-24 131 -129 131q-39 0 -75.5 -20t-61 -49t-43.5 -58t-28 -49l-9 -20h-65l-35 153q6 5 17.5 12.5t50 27.5t79.5 35t104.5 27.5t127.5 12.5q142 0 193 -64t51 -229v-471q0 -53 11 -74.5
t44 -21.5q24 0 52.5 10t44.5 20l16 11l26 -43q-4 -4 -11 -11.5t-30 -26.5t-47.5 -33t-59.5 -26t-69 -12q-62 0 -100.5 37t-38.5 109v49q-4 -8 -13 -21t-39 -46.5t-64 -59.5t-89.5 -47t-114.5 -21q-98 0 -155.5 60t-57.5 147zM352 92q87 0 232 123v242l-64 -11
q-49 -8 -94.5 -23t-89.5 -41.5t-71 -68.5t-27 -94q0 -59 33 -93t81 -34zM217 1206v121h467v-121h-467z" />
    <glyph glyph-name="Abreve" unicode="&#x102;" horiz-adv-x="1275" 
d="M-27 0v59q106 10 138 93l485 1208l84 18l455 -1163q20 -51 37.5 -82t37.5 -46.5t36 -21.5t44 -10l-8 -55h-88l-311 -6v69q50 2 76 20t10 60l-125 328h-490l-26 -20l-142 -369l174 -25l-8 -57h-379zM635 1024q-26 66 -41 125l-227 -592h444zM639 1475q-128 0 -208.5 62.5
t-80.5 164.5q0 36 12 76h72q-6 -48 11 -84t49.5 -55t68.5 -28t76 -9q39 0 73.5 8t66.5 26.5t49.5 55t13.5 86.5h73q11 -37 11 -76q0 -102 -80 -164.5t-207 -62.5z" />
    <glyph glyph-name="abreve" unicode="&#x103;" horiz-adv-x="942" 
d="M57 182q0 57 27.5 107t72 86t105 64.5t123 46.5t129.5 28l70 10q6 133 -9 219q-24 131 -129 131q-39 0 -75.5 -20t-61 -49t-43.5 -58t-28 -49l-9 -20h-65l-35 153q6 5 17.5 12.5t50 27.5t79.5 35t104.5 27.5t127.5 12.5q142 0 193 -64t51 -229v-471q0 -53 11 -74.5
t44 -21.5q24 0 52.5 10t44.5 20l16 11l26 -43q-4 -4 -11 -11.5t-30 -26.5t-47.5 -33t-59.5 -26t-69 -12q-62 0 -100.5 37t-38.5 109v49q-4 -8 -13 -21t-39 -46.5t-64 -59.5t-89.5 -47t-114.5 -21q-98 0 -155.5 60t-57.5 147zM352 92q87 0 232 123v242l-64 -11
q-49 -8 -94.5 -23t-89.5 -41.5t-71 -68.5t-27 -94q0 -59 33 -93t81 -34zM451 1108q-117 0 -192 68t-75 174q0 38 11 75h71v-18q0 -18 2.5 -36t14 -44t30 -45t54.5 -33t84 -14t83.5 14t54 33t30 44.5t14 44t2.5 36.5v18h72q10 -45 10 -75q0 -106 -74.5 -174t-191.5 -68z" />
    <glyph glyph-name="Aogonek" unicode="&#x104;" horiz-adv-x="1275" 
d="M-27 0v59q106 10 138 93l485 1208l84 18l455 -1163q20 -51 37.5 -82t37.5 -46.5t36 -21.5t44 -10l-8 -55h-45q-36 0 -86.5 -44t-88.5 -110.5t-38 -121.5q0 -63 41 -95t98 -32l43 4l15 -52q-90 -34 -164 -34q-90 0 -144.5 49t-54.5 123q0 17 3.5 33.5t7.5 30.5t15 32
t17.5 29t24 30.5t25.5 29t31 31t32 30t36.5 33.5t36.5 34l-204 -6v69q50 2 76 20t10 60l-125 328h-490l-26 -20l-142 -369l174 -25l-8 -57h-379zM635 1024q-26 66 -41 125l-227 -592h444z" />
    <glyph glyph-name="aogonek" unicode="&#x105;" horiz-adv-x="942" 
d="M57 182q0 57 27.5 107t72 86t105 64.5t123 46.5t129.5 28l70 10q6 133 -9 219q-24 131 -129 131q-39 0 -75.5 -20t-61 -49t-43.5 -58t-28 -49l-9 -20h-65l-35 153q6 5 17.5 12.5t50 27.5t79.5 35t104.5 27.5t127.5 12.5q142 0 193 -64t51 -229v-471q0 -53 11 -74.5
t44 -21.5q24 0 52.5 10t44.5 20l16 11l26 -43q-17 -17 -37 -35l4 -4q-25 -17 -58 -46.5t-73 -73t-67 -97t-27 -100.5q0 -64 36.5 -96t90.5 -35l45 4v-2l10 2l15 -52q-91 -31 -160 -34h-14q-90 0 -144.5 49t-54.5 123q0 71 48.5 132.5t154.5 155.5q-57 5 -91 41.5t-34 104.5
v49q-4 -8 -13 -21t-39 -46.5t-64 -59.5t-89.5 -47t-114.5 -21q-98 0 -155.5 60t-57.5 147zM352 92q87 0 232 123v242l-64 -11q-49 -8 -94.5 -23t-89.5 -41.5t-71 -68.5t-27 -94q0 -59 33 -93t81 -34z" />
    <glyph glyph-name="Cacute" unicode="&#x106;" horiz-adv-x="1390" 
d="M92 668q0 155 55.5 289t154 229.5t238 150t302.5 54.5q92 0 264.5 -24t177.5 -24l-61 -311h-70q0 76 -30 133t-81.5 88t-110 45.5t-124.5 14.5q-154 0 -274.5 -77t-185 -210.5t-64.5 -298.5q0 -136 45.5 -251.5t124.5 -195t188 -124.5t233 -45q72 0 140.5 15t115.5 36.5
t84 42.5t54 36l18 15l29 -43q-3 -5 -9.5 -13.5t-29.5 -33.5t-49.5 -47.5t-71 -49.5t-93.5 -47t-116.5 -33.5t-140.5 -13.5q-138 0 -265.5 47t-227.5 133t-160 219.5t-60 293.5zM592 1548l362 215h11l67 -106v-51l-414 -125z" />
    <glyph glyph-name="cacute" unicode="&#x107;" horiz-adv-x="903" 
d="M78 442q0 94 29.5 183.5t83 161.5t138.5 115.5t187 43.5q49 0 103.5 -9.5t105 -27.5t83 -49t32.5 -69q0 -31 -21.5 -52.5t-56.5 -21.5q-28 0 -52.5 16.5t-43.5 40t-40 47t-52.5 40t-71.5 16.5q-118 0 -187 -109t-69 -266q0 -77 19.5 -144.5t58.5 -123.5t106 -88.5
t154 -32.5q43 0 83.5 8.5t67 21t47 25t30.5 20.5l9 9l23 -43q-4 -7 -11.5 -19t-36.5 -43t-64 -54.5t-94 -43t-126 -19.5q-104 0 -188.5 39.5t-137 106t-80.5 149t-28 172.5zM475 1034l-63 35l174 350l178 19v-56z" />
    <glyph glyph-name="Ccircumflex" unicode="&#x108;" horiz-adv-x="1390" 
d="M92 668q0 155 55.5 289t154 229.5t238 150t302.5 54.5q92 0 264.5 -24t177.5 -24l-61 -311h-70q0 76 -30 133t-81.5 88t-110 45.5t-124.5 14.5q-154 0 -274.5 -77t-185 -210.5t-64.5 -298.5q0 -136 45.5 -251.5t124.5 -195t188 -124.5t233 -45q72 0 140.5 15t115.5 36.5
t84 42.5t54 36l18 15l29 -43q-3 -5 -9.5 -13.5t-29.5 -33.5t-49.5 -47.5t-71 -49.5t-93.5 -47t-116.5 -33.5t-140.5 -13.5q-138 0 -265.5 47t-227.5 133t-160 219.5t-60 293.5zM446 1518l269 266h108l267 -266l-56 -48l-262 166h-8l-262 -166z" />
    <glyph glyph-name="ccircumflex" unicode="&#x109;" horiz-adv-x="903" 
d="M78 442q0 94 29.5 183.5t83 161.5t138.5 115.5t187 43.5q49 0 103.5 -9.5t105 -27.5t83 -49t32.5 -69q0 -31 -21.5 -52.5t-56.5 -21.5q-28 0 -52.5 16.5t-43.5 40t-40 47t-52.5 40t-71.5 16.5q-118 0 -187 -109t-69 -266q0 -77 19.5 -144.5t58.5 -123.5t106 -88.5
t154 -32.5q43 0 83.5 8.5t67 21t47 25t30.5 20.5l9 9l23 -43q-4 -7 -11.5 -19t-36.5 -43t-64 -54.5t-94 -43t-126 -19.5q-104 0 -188.5 39.5t-137 106t-80.5 149t-28 172.5zM217 1069l238 361h80l235 -361l-61 -39l-215 238l-215 -238z" />
    <glyph glyph-name="Cdotaccent" unicode="&#x10a;" horiz-adv-x="1390" 
d="M92 668q0 155 55.5 289t154 229.5t238 150t302.5 54.5q92 0 264.5 -24t177.5 -24l-61 -311h-70q0 76 -30 133t-81.5 88t-110 45.5t-124.5 14.5q-154 0 -274.5 -77t-185 -210.5t-64.5 -298.5q0 -136 45.5 -251.5t124.5 -195t188 -124.5t233 -45q72 0 140.5 15t115.5 36.5
t84 42.5t54 36l18 15l29 -43q-3 -5 -9.5 -13.5t-29.5 -33.5t-49.5 -47.5t-71 -49.5t-93.5 -47t-116.5 -33.5t-140.5 -13.5q-138 0 -265.5 47t-227.5 133t-160 219.5t-60 293.5zM768 1516q-44 0 -77.5 33t-33.5 77t33.5 77.5t77.5 33.5t77.5 -33.5t33.5 -77.5t-33.5 -77
t-77.5 -33z" />
    <glyph glyph-name="cdotaccent" unicode="&#x10b;" horiz-adv-x="903" 
d="M78 442q0 94 29.5 183.5t83 161.5t138.5 115.5t187 43.5q49 0 103.5 -9.5t105 -27.5t83 -49t32.5 -69q0 -31 -21.5 -52.5t-56.5 -21.5q-28 0 -52.5 16.5t-43.5 40t-40 47t-52.5 40t-71.5 16.5q-118 0 -187 -109t-69 -266q0 -77 19.5 -144.5t58.5 -123.5t106 -88.5
t154 -32.5q43 0 83.5 8.5t67 21t47 25t30.5 20.5l9 9l23 -43q-4 -7 -11.5 -19t-36.5 -43t-64 -54.5t-94 -43t-126 -19.5q-104 0 -188.5 39.5t-137 106t-80.5 149t-28 172.5zM494 1155q-44 0 -77.5 33.5t-33.5 77.5t33.5 77t77.5 33t77 -33t33 -77t-33 -77.5t-77 -33.5z" />
    <glyph glyph-name="Ccaron" unicode="&#x10c;" horiz-adv-x="1390" 
d="M92 668q0 155 55.5 289t154 229.5t238 150t302.5 54.5q92 0 264.5 -24t177.5 -24l-61 -311h-70q0 76 -30 133t-81.5 88t-110 45.5t-124.5 14.5q-154 0 -274.5 -77t-185 -210.5t-64.5 -298.5q0 -136 45.5 -251.5t124.5 -195t188 -124.5t233 -45q72 0 140.5 15t115.5 36.5
t84 42.5t54 36l18 15l29 -43q-3 -5 -9.5 -13.5t-29.5 -33.5t-49.5 -47.5t-71 -49.5t-93.5 -47t-116.5 -33.5t-140.5 -13.5q-138 0 -265.5 47t-227.5 133t-160 219.5t-60 293.5zM446 1737l56 47l262 -166h8l262 166l56 -47l-267 -267h-108z" />
    <glyph glyph-name="ccaron" unicode="&#x10d;" horiz-adv-x="903" 
d="M78 442q0 94 29.5 183.5t83 161.5t138.5 115.5t187 43.5q49 0 103.5 -9.5t105 -27.5t83 -49t32.5 -69q0 -31 -21.5 -52.5t-56.5 -21.5q-28 0 -52.5 16.5t-43.5 40t-40 47t-52.5 40t-71.5 16.5q-118 0 -187 -109t-69 -266q0 -77 19.5 -144.5t58.5 -123.5t106 -88.5
t154 -32.5q43 0 83.5 8.5t67 21t47 25t30.5 20.5l9 9l23 -43q-4 -7 -11.5 -19t-36.5 -43t-64 -54.5t-94 -43t-126 -19.5q-104 0 -188.5 39.5t-137 106t-80.5 149t-28 172.5zM455 1071l-238 340l62 39l215 -221l215 221l61 -39l-235 -340h-80z" />
    <glyph glyph-name="Dcaron" unicode="&#x10e;" horiz-adv-x="1527" 
d="M111 -6v65q70 8 108.5 40t38.5 87v979q0 54 -9.5 77.5t-43.5 40t-115 32.5v51h561q125 0 234.5 -19t211.5 -65t175 -117t116.5 -181.5t43.5 -250.5q0 -228 -108 -394.5t-301.5 -252.5t-449.5 -86h-165zM428 80h145q140 0 251.5 30.5t186.5 84.5t124.5 131t71.5 166
t22 194q0 277 -152 438.5t-434 161.5h-184l-21 -20v-1071q0 -27 -2.5 -56t-5.5 -44zM408 1737l55 47l262 -166h8l262 166l56 -47l-267 -267h-108z" />
    <glyph glyph-name="dcaron" unicode="&#x10f;" horiz-adv-x="1103" 
d="M76 420q0 99 33.5 191.5t96.5 168t165.5 121t228.5 45.5q33 0 69 -3t56 -6l20 -3v293q0 32 -0.5 49t-4 37.5t-9.5 30t-18 16t-29 6.5h-86v55q105 23 187.5 46t112.5 35l30 11l6 -6q-21 -75 -21 -233v-1079q0 -29 3.5 -49.5t12 -33t16 -20t24 -10.5t27 -3.5t32.5 -0.5h57
l-6 -55q-99 -10 -181 -20t-114 -15l-32 -4l-7 6q9 57 9 108v43q-111 -166 -293 -166q-91 0 -166 38t-121.5 101t-72 142t-25.5 164zM532 94q67 0 123.5 28.5t89.5 61.5v576q0 108 -147 108q-157 0 -250.5 -104.5t-93.5 -282.5q0 -102 30 -188t95 -142.5t153 -56.5z
M1034 1124l51 385l168 21v-43l-147 -363h-72z" />
    <glyph glyph-name="Dcroat" unicode="&#x110;" horiz-adv-x="1527" 
d="M72 651v86h186v428q0 54 -9.5 77.5t-43.5 40t-115 32.5v51h561q125 0 234.5 -19t211.5 -65t175 -117t116.5 -181.5t43.5 -250.5q0 -228 -108 -394.5t-301.5 -252.5t-449.5 -86h-165l-297 -6v65q70 8 108.5 40t38.5 87v465h-186zM428 80h145q140 0 251.5 30.5t186.5 84.5
t124.5 131t71.5 166t22 194q0 277 -152 438.5t-434 161.5h-184l-21 -20v-529h340v-86h-340v-456q0 -27 -2.5 -56t-5.5 -44z" />
    <glyph glyph-name="dcroat" unicode="&#x111;" horiz-adv-x="1103" 
d="M463 1079v86h282v62q0 32 -0.5 49t-4 37.5t-9.5 30t-18 16t-29 6.5h-86v55q105 23 187.5 46t112.5 35l30 11l6 -6q-21 -75 -21 -233v-109h154v-86h-154v-884q0 -29 3.5 -49.5t12 -33t16 -20t24 -10.5t27 -3.5t32.5 -0.5h57l-6 -55q-99 -10 -181 -20t-114 -15l-32 -4l-7 6
q9 57 9 108v43q-111 -166 -293 -166q-91 0 -166 38t-121.5 101t-72 142t-25.5 164q0 99 33.5 191.5t96.5 168t165.5 121t228.5 45.5q33 0 69 -3t56 -6l20 -3v145h-282zM532 94q67 0 123.5 28.5t89.5 61.5v576q0 108 -147 108q-157 0 -250.5 -104.5t-93.5 -282.5
q0 -102 30 -188t95 -142.5t153 -56.5z" />
    <glyph glyph-name="Emacron" unicode="&#x112;" horiz-adv-x="1198" 
d="M111 -6v65q70 8 108.5 40t38.5 87v979q0 54 -9.5 77.5t-43.5 40t-115 32.5v51h844q37 0 74 2t55 4l18 2l-63 -342h-70q4 79 -6.5 128.5t-39.5 77.5t-69.5 38t-105.5 10h-268l-21 -20v-533h379l17 117l75 12v-360h-96v151h-354l-21 -20v-438q0 -27 -2.5 -56t-5.5 -44
l-2 -15h322q46 0 76.5 3t58 16t44.5 26.5t39.5 48t38.5 66.5t46 94h69l-75 -334h-639zM365 1567v121h528v-121h-528z" />
    <glyph glyph-name="emacron" unicode="&#x113;" horiz-adv-x="942" 
d="M78 442q0 211 124 357.5t308 146.5q91 0 169 -37t131 -116t56 -187q-53 -20 -94 -26l-510 -74l-20 -25q3 -73 23.5 -136.5t58.5 -116.5t102 -84t147 -31q47 0 92 10t75 24.5t54 29t35 24.5l11 10l22 -43q-4 -8 -13 -21t-40 -46t-68 -58.5t-99 -46.5t-130 -21
q-105 0 -189.5 39t-137 105t-80 148.5t-27.5 174.5zM479 868q-98 0 -158.5 -82t-74.5 -206l430 55q0 5 -1 13.5t-6.5 32.5t-13.5 46t-23 49t-35 46t-50.5 32.5t-67.5 13.5zM256 1206v121h467v-121h-467z" />
    <glyph glyph-name="Ebreve" unicode="&#x114;" horiz-adv-x="1198" 
d="M111 -6v65q70 8 108.5 40t38.5 87v979q0 54 -9.5 77.5t-43.5 40t-115 32.5v51h844q37 0 74 2t55 4l18 2l-63 -342h-70q4 79 -6.5 128.5t-39.5 77.5t-69.5 38t-105.5 10h-268l-21 -20v-533h379l17 117l75 12v-360h-96v151h-354l-21 -20v-438q0 -27 -2.5 -56t-5.5 -44
l-2 -15h322q46 0 76.5 3t58 16t44.5 26.5t39.5 48t38.5 66.5t46 94h69l-75 -334h-639zM629 1475q-128 0 -208.5 62.5t-80.5 164.5q0 36 12 76h72q-6 -48 11 -84t49.5 -55t68.5 -28t76 -9q39 0 73.5 8t66 26.5t49 55t13.5 86.5h74q10 -34 10 -76q0 -102 -79.5 -164.5
t-206.5 -62.5z" />
    <glyph glyph-name="ebreve" unicode="&#x115;" horiz-adv-x="942" 
d="M78 442q0 211 124 357.5t308 146.5q91 0 169 -37t131 -116t56 -187q-53 -20 -94 -26l-510 -74l-20 -25q3 -73 23.5 -136.5t58.5 -116.5t102 -84t147 -31q47 0 92 10t75 24.5t54 29t35 24.5l11 10l22 -43q-4 -8 -13 -21t-40 -46t-68 -58.5t-99 -46.5t-130 -21
q-105 0 -189.5 39t-137 105t-80 148.5t-27.5 174.5zM479 868q-98 0 -158.5 -82t-74.5 -206l430 55q0 5 -1 13.5t-6.5 32.5t-13.5 46t-23 49t-35 46t-50.5 32.5t-67.5 13.5zM489 1108q-117 0 -191.5 68t-74.5 174q0 41 10 75h72v-18q0 -18 2.5 -36t13.5 -44.5t29.5 -45
t54.5 -32.5t84 -14t83.5 14t54.5 33t30 44.5t14 44t3 36.5v18h71q11 -50 11 -75q0 -106 -75 -174t-192 -68z" />
    <glyph glyph-name="Edotaccent" unicode="&#x116;" horiz-adv-x="1198" 
d="M111 -6v65q70 8 108.5 40t38.5 87v979q0 54 -9.5 77.5t-43.5 40t-115 32.5v51h844q37 0 74 2t55 4l18 2l-63 -342h-70q4 79 -6.5 128.5t-39.5 77.5t-69.5 38t-105.5 10h-268l-21 -20v-533h379l17 117l75 12v-360h-96v151h-354l-21 -20v-438q0 -27 -2.5 -56t-5.5 -44
l-2 -15h322q46 0 76.5 3t58 16t44.5 26.5t39.5 48t38.5 66.5t46 94h69l-75 -334h-639zM629 1516q-44 0 -77.5 33t-33.5 77t33.5 77.5t77.5 33.5t77 -33.5t33 -77.5t-33 -77t-77 -33z" />
    <glyph glyph-name="edotaccent" unicode="&#x117;" horiz-adv-x="942" 
d="M78 442q0 211 124 357.5t308 146.5q91 0 169 -37t131 -116t56 -187q-53 -20 -94 -26l-510 -74l-20 -25q3 -73 23.5 -136.5t58.5 -116.5t102 -84t147 -31q47 0 92 10t75 24.5t54 29t35 24.5l11 10l22 -43q-4 -8 -13 -21t-40 -46t-68 -58.5t-99 -46.5t-130 -21
q-105 0 -189.5 39t-137 105t-80 148.5t-27.5 174.5zM479 868q-98 0 -158.5 -82t-74.5 -206l430 55q0 5 -1 13.5t-6.5 32.5t-13.5 46t-23 49t-35 46t-50.5 32.5t-67.5 13.5zM489 1155q-44 0 -77 33.5t-33 77.5t33 77t77 33t77.5 -33t33.5 -77t-33.5 -77.5t-77.5 -33.5z" />
    <glyph glyph-name="Eogonek" unicode="&#x118;" horiz-adv-x="1198" 
d="M111 -6v65q70 8 108.5 40t38.5 87v979q0 54 -9.5 77.5t-43.5 40t-115 32.5v51h844q37 0 74 2t55 4l18 2l-63 -342h-70q4 79 -6.5 128.5t-39.5 77.5t-69.5 38t-105.5 10h-268l-21 -20v-533h379l17 117l75 12v-360h-96v151h-354l-21 -20v-438q0 -27 -2.5 -56t-5.5 -44
l-2 -15h322q46 0 76.5 3t58 16t44.5 26.5t39.5 48t38.5 66.5t46 94h69l-75 -334h-9q-57 -5 -132 -99.5t-75 -176.5q0 -63 41.5 -95t98.5 -32l43 4l14 -52q-90 -34 -164 -34q-90 0 -144 49t-54 123q0 31 12 63t27 56t48 59t56 56t70 63q12 10 18 16h-489z" />
    <glyph glyph-name="eogonek" unicode="&#x119;" horiz-adv-x="942" 
d="M78 442q0 211 124 357.5t308 146.5q91 0 169 -37t131 -116t56 -187q-53 -20 -94 -26l-510 -74l-20 -25q3 -73 23.5 -136.5t58.5 -116.5t102 -84t147 -31q47 0 92 10t75 24.5t54 29t35 24.5l11 10l22 -43q-5 -9 -15 -23t-44.5 -49.5t-73.5 -60.5q-28 -20 -59.5 -50.5
t-68 -72t-60 -91t-23.5 -93.5q0 -68 40 -99.5t97 -31.5l45 4l15 -52q-90 -34 -164 -34q-90 0 -144.5 49t-54.5 123q0 31 11.5 62t26.5 55t47 58t54 54t68 61q-16 -2 -47 -2q-105 0 -189.5 39t-137 105t-80 148.5t-27.5 174.5zM479 868q-98 0 -158.5 -82t-74.5 -206l430 55
q0 5 -1 13.5t-6.5 32.5t-13.5 46t-23 49t-35 46t-50.5 32.5t-67.5 13.5z" />
    <glyph glyph-name="Ecaron" unicode="&#x11a;" horiz-adv-x="1198" 
d="M111 -6v65q70 8 108.5 40t38.5 87v979q0 54 -9.5 77.5t-43.5 40t-115 32.5v51h844q37 0 74 2t55 4l18 2l-63 -342h-70q4 79 -6.5 128.5t-39.5 77.5t-69.5 38t-105.5 10h-268l-21 -20v-533h379l17 117l75 12v-360h-96v151h-354l-21 -20v-438q0 -27 -2.5 -56t-5.5 -44
l-2 -15h322q46 0 76.5 3t58 16t44.5 26.5t39.5 48t38.5 66.5t46 94h69l-75 -334h-639zM307 1737l55 47l263 -166h8l262 166l55 -47l-266 -267h-109z" />
    <glyph glyph-name="ecaron" unicode="&#x11b;" horiz-adv-x="942" 
d="M78 442q0 211 124 357.5t308 146.5q91 0 169 -37t131 -116t56 -187q-53 -20 -94 -26l-510 -74l-20 -25q3 -73 23.5 -136.5t58.5 -116.5t102 -84t147 -31q47 0 92 10t75 24.5t54 29t35 24.5l11 10l22 -43q-4 -8 -13 -21t-40 -46t-68 -58.5t-99 -46.5t-130 -21
q-105 0 -189.5 39t-137 105t-80 148.5t-27.5 174.5zM479 868q-98 0 -158.5 -82t-74.5 -206l430 55q0 5 -1 13.5t-6.5 32.5t-13.5 46t-23 49t-35 46t-50.5 32.5t-67.5 13.5zM451 1071l-238 340l61 39l215 -221l216 221l61 -39l-236 -340h-79z" />
    <glyph glyph-name="Gcircumflex" unicode="&#x11c;" horiz-adv-x="1458" 
d="M94 655q0 112 28 217.5t89 200t148.5 165t215 112t279.5 41.5q77 0 173.5 -9.5t182.5 -22t103 -13.5l-62 -314h-69q-1 65 -21.5 115.5t-53 81t-78 50t-91.5 27t-98 7.5q-105 0 -194 -32.5t-153 -89.5t-109 -134t-67 -167t-22 -188q0 -184 78 -329.5t221.5 -227.5
t329.5 -82q88 0 204 25v297q0 42 -4 62t-23 39t-55.5 29t-105.5 20v51h436l10 -29q-3 -2 -8.5 -5t-19 -18t-24 -35t-19 -56.5t-8.5 -80.5v-333q-11 -2 -102 -16t-130 -19.5t-109.5 -12t-123.5 -6.5q-123 0 -235 28t-205.5 85t-162 137.5t-107 190.5t-38.5 239zM479 1518
l269 266h108l266 -266l-55 -48l-262 166h-8l-262 -166z" />
    <glyph glyph-name="gcircumflex" unicode="&#x11d;" horiz-adv-x="989" 
d="M137 150q0 25 11.5 46t36.5 39t43.5 29t54.5 28t47 23q-110 31 -178 107.5t-68 193.5q0 153 111.5 241.5t271.5 88.5q62 0 141.5 -20.5t128.5 -20.5h99q29 0 63 6.5t53 13.5l19 7l-19 -133h-108q-20 0 -38 1.5t-26 3.5l-8 1q3 -3 9 -8.5t20.5 -25t25.5 -41t20 -56
t9 -70.5q0 -139 -114 -223t-275 -84q-56 0 -100 8q-52 -59 -52 -86q0 -9 4 -17t13.5 -14.5t20 -12t28 -11t33 -9.5t40 -9t44 -9t49 -10t51.5 -10q59 -12 104 -24.5t95 -34t82 -47.5t53.5 -65t21.5 -87q0 -97 -78 -177.5t-196.5 -123.5t-245.5 -43q-71 0 -138 15t-123 43.5
t-90 77.5t-34 111q0 33 10.5 62.5t23.5 50.5t39 42.5t43 33.5t50.5 28t46.5 21.5t45 17.5q-170 44 -170 132zM528 -27q-24 5 -83 16.5t-89 18.5q-145 -98 -145 -221q0 -91 75.5 -143t182.5 -52q120 0 217.5 59t97.5 148q0 37 -20 66.5t-58.5 49.5t-79.5 33t-98 25zM473 369
q103 0 154 67.5t51 167.5q0 108 -56 189t-159 81q-100 0 -150.5 -73t-50.5 -180q0 -106 52.5 -179t158.5 -73zM190 1069l238 361h80l235 -361l-61 -39l-215 238l-215 -238z" />
    <glyph glyph-name="Gbreve" unicode="&#x11e;" horiz-adv-x="1458" 
d="M94 655q0 112 28 217.5t89 200t148.5 165t215 112t279.5 41.5q77 0 173.5 -9.5t182.5 -22t103 -13.5l-62 -314h-69q-1 65 -21.5 115.5t-53 81t-78 50t-91.5 27t-98 7.5q-105 0 -194 -32.5t-153 -89.5t-109 -134t-67 -167t-22 -188q0 -184 78 -329.5t221.5 -227.5
t329.5 -82q88 0 204 25v297q0 42 -4 62t-23 39t-55.5 29t-105.5 20v51h436l10 -29q-3 -2 -8.5 -5t-19 -18t-24 -35t-19 -56.5t-8.5 -80.5v-333q-11 -2 -102 -16t-130 -19.5t-109.5 -12t-123.5 -6.5q-123 0 -235 28t-205.5 85t-162 137.5t-107 190.5t-38.5 239zM801 1475
q-128 0 -208.5 62.5t-80.5 164.5q0 36 12 76h72q-6 -48 11 -84t49.5 -55t68.5 -28t76 -9q39 0 73.5 8t66.5 26.5t49.5 55t13.5 86.5h73q10 -34 10 -76q0 -102 -79.5 -164.5t-206.5 -62.5z" />
    <glyph glyph-name="gbreve" unicode="&#x11f;" horiz-adv-x="989" 
d="M137 150q0 25 11.5 46t36.5 39t43.5 29t54.5 28t47 23q-110 31 -178 107.5t-68 193.5q0 153 111.5 241.5t271.5 88.5q62 0 141.5 -20.5t128.5 -20.5h99q29 0 63 6.5t53 13.5l19 7l-19 -133h-108q-20 0 -38 1.5t-26 3.5l-8 1q3 -3 9 -8.5t20.5 -25t25.5 -41t20 -56
t9 -70.5q0 -139 -114 -223t-275 -84q-56 0 -100 8q-52 -59 -52 -86q0 -9 4 -17t13.5 -14.5t20 -12t28 -11t33 -9.5t40 -9t44 -9t49 -10t51.5 -10q59 -12 104 -24.5t95 -34t82 -47.5t53.5 -65t21.5 -87q0 -97 -78 -177.5t-196.5 -123.5t-245.5 -43q-71 0 -138 15t-123 43.5
t-90 77.5t-34 111q0 33 10.5 62.5t23.5 50.5t39 42.5t43 33.5t50.5 28t46.5 21.5t45 17.5q-170 44 -170 132zM528 -27q-24 5 -83 16.5t-89 18.5q-145 -98 -145 -221q0 -91 75.5 -143t182.5 -52q120 0 217.5 59t97.5 148q0 37 -20 66.5t-58.5 49.5t-79.5 33t-98 25zM473 369
q103 0 154 67.5t51 167.5q0 108 -56 189t-159 81q-100 0 -150.5 -73t-50.5 -180q0 -106 52.5 -179t158.5 -73zM467 1108q-117 0 -191.5 68t-74.5 174q0 41 10 75h72v-18q0 -18 2.5 -36t13.5 -44.5t29.5 -45t54.5 -32.5t84 -14t83.5 14t54 33t30 44.5t14 44t2.5 36.5v18h72
q10 -45 10 -75q0 -106 -74.5 -174t-191.5 -68z" />
    <glyph glyph-name="Gdotaccent" unicode="&#x120;" horiz-adv-x="1458" 
d="M94 655q0 112 28 217.5t89 200t148.5 165t215 112t279.5 41.5q77 0 173.5 -9.5t182.5 -22t103 -13.5l-62 -314h-69q-1 65 -21.5 115.5t-53 81t-78 50t-91.5 27t-98 7.5q-105 0 -194 -32.5t-153 -89.5t-109 -134t-67 -167t-22 -188q0 -184 78 -329.5t221.5 -227.5
t329.5 -82q88 0 204 25v297q0 42 -4 62t-23 39t-55.5 29t-105.5 20v51h436l10 -29q-3 -2 -8.5 -5t-19 -18t-24 -35t-19 -56.5t-8.5 -80.5v-333q-11 -2 -102 -16t-130 -19.5t-109.5 -12t-123.5 -6.5q-123 0 -235 28t-205.5 85t-162 137.5t-107 190.5t-38.5 239zM801 1516
q-44 0 -77.5 33t-33.5 77t33.5 77.5t77.5 33.5t77 -33.5t33 -77.5t-33 -77t-77 -33z" />
    <glyph glyph-name="gdotaccent" unicode="&#x121;" horiz-adv-x="989" 
d="M137 150q0 25 11.5 46t36.5 39t43.5 29t54.5 28t47 23q-110 31 -178 107.5t-68 193.5q0 153 111.5 241.5t271.5 88.5q62 0 141.5 -20.5t128.5 -20.5h99q29 0 63 6.5t53 13.5l19 7l-19 -133h-108q-20 0 -38 1.5t-26 3.5l-8 1q3 -3 9 -8.5t20.5 -25t25.5 -41t20 -56
t9 -70.5q0 -139 -114 -223t-275 -84q-56 0 -100 8q-52 -59 -52 -86q0 -9 4 -17t13.5 -14.5t20 -12t28 -11t33 -9.5t40 -9t44 -9t49 -10t51.5 -10q59 -12 104 -24.5t95 -34t82 -47.5t53.5 -65t21.5 -87q0 -97 -78 -177.5t-196.5 -123.5t-245.5 -43q-71 0 -138 15t-123 43.5
t-90 77.5t-34 111q0 33 10.5 62.5t23.5 50.5t39 42.5t43 33.5t50.5 28t46.5 21.5t45 17.5q-170 44 -170 132zM528 -27q-24 5 -83 16.5t-89 18.5q-145 -98 -145 -221q0 -91 75.5 -143t182.5 -52q120 0 217.5 59t97.5 148q0 37 -20 66.5t-58.5 49.5t-79.5 33t-98 25zM473 369
q103 0 154 67.5t51 167.5q0 108 -56 189t-159 81q-100 0 -150.5 -73t-50.5 -180q0 -106 52.5 -179t158.5 -73zM467 1155q-44 0 -77.5 33.5t-33.5 77.5t33.5 77t77.5 33t77.5 -33t33.5 -77t-33.5 -77.5t-77.5 -33.5z" />
    <glyph glyph-name="Gcommaaccent" unicode="&#x122;" horiz-adv-x="1458" 
d="M94 655q0 112 28 217.5t89 200t148.5 165t215 112t279.5 41.5q77 0 173.5 -9.5t182.5 -22t103 -13.5l-62 -314h-69q-1 65 -21.5 115.5t-53 81t-78 50t-91.5 27t-98 7.5q-105 0 -194 -32.5t-153 -89.5t-109 -134t-67 -167t-22 -188q0 -184 78 -329.5t221.5 -227.5
t329.5 -82q88 0 204 25v297q0 42 -4 62t-23 39t-55.5 29t-105.5 20v51h436l10 -29q-3 -2 -8.5 -5t-19 -18t-24 -35t-19 -56.5t-8.5 -80.5v-333q-11 -2 -102 -16t-130 -19.5t-109.5 -12t-123.5 -6.5q-123 0 -235 28t-205.5 85t-162 137.5t-107 190.5t-38.5 239zM707 -135
l22 47h154q5 -8 13.5 -21.5t22 -52.5t13.5 -74q0 -80 -65 -150t-150 -112l-41 60q60 35 88.5 67.5t28.5 69.5q0 62 -86 166z" />
    <glyph glyph-name="gcommaaccent" unicode="&#x123;" horiz-adv-x="989" 
d="M137 150q0 25 11.5 46t36.5 39t43.5 29t54.5 28t47 23q-110 31 -178 107.5t-68 193.5q0 153 111.5 241.5t271.5 88.5q62 0 141.5 -20.5t128.5 -20.5h99q29 0 63 6.5t53 13.5l19 7l-19 -133h-108q-20 0 -38 1.5t-26 3.5l-8 1q3 -3 9 -8.5t20.5 -25t25.5 -41t20 -56
t9 -70.5q0 -139 -114 -223t-275 -84q-56 0 -100 8q-52 -59 -52 -86q0 -9 4 -17t13.5 -14.5t20 -12t28 -11t33 -9.5t40 -9t44 -9t49 -10t51.5 -10q59 -12 104 -24.5t95 -34t82 -47.5t53.5 -65t21.5 -87q0 -97 -78 -177.5t-196.5 -123.5t-245.5 -43q-71 0 -138 15t-123 43.5
t-90 77.5t-34 111q0 33 10.5 62.5t23.5 50.5t39 42.5t43 33.5t50.5 28t46.5 21.5t45 17.5q-170 44 -170 132zM528 -27q-24 5 -83 16.5t-89 18.5q-145 -98 -145 -221q0 -91 75.5 -143t182.5 -52q120 0 217.5 59t97.5 148q0 37 -20 66.5t-58.5 49.5t-79.5 33t-98 25zM473 369
q103 0 154 67.5t51 167.5q0 108 -56 189t-159 81q-100 0 -150.5 -73t-50.5 -180q0 -106 52.5 -179t158.5 -73zM565 1094l-22 -47h-154q-5 8 -13.5 21.5t-22 52t-13.5 73.5q0 80 65 150t150 112l41 -59q-117 -67 -117 -137q0 -62 86 -166z" />
    <glyph glyph-name="Hcircumflex" unicode="&#x124;" horiz-adv-x="1640" 
d="M109 -6v65q69 8 108 43.5t39 90.5v972q0 31 -0.5 44t-5 31t-13 25.5t-26.5 18t-43 17t-64 14.5v51h160q82 0 139.5 2t74.5 4l16 2l10 -8q-8 -9 -19 -26.5t-30 -81.5t-19 -140v-381h762l21 21v407q0 31 -0.5 44t-5 31t-13 25.5t-26.5 18t-43 17t-64 14.5v51h160
q82 0 139 1.5t74 2.5l16 2l10 -8q-3 -3 -7.5 -9t-16 -28.5t-20.5 -48.5t-16 -69t-7 -91v-925q0 -27 -2.5 -55t-4.5 -42l-3 -14l184 -19l-8 -57l-494 -12v65q68 8 108 41.5t40 85.5v465h-762l-21 -20v-438q0 -27 -2.5 -55t-5.5 -42l-2 -14l184 -19l-8 -57zM506 1518l268 266
h109l266 -266l-55 -48l-263 166h-8l-262 -166z" />
    <glyph glyph-name="hcircumflex" unicode="&#x125;" horiz-adv-x="1150" 
d="M57 -6v59q127 14 127 133v1041q0 32 -0.5 49t-4 37.5t-9.5 30t-18 16t-29 6.5h-86v55q105 23 187.5 46t112.5 35l30 11l6 -6q-21 -75 -21 -233v-397q0 -41 -2 -75.5t-4 -53.5t-2 -23q63 91 166.5 156t222.5 65q234 0 234 -276v-484q0 -27 -2.5 -54.5t-5.5 -41.5l-3 -14
l174 -19l-8 -51l-440 -12v59q117 14 117 133v439q0 109 -37 152.5t-105 43.5q-70 0 -155 -38.5t-150 -100.5v-496q0 -27 -2.5 -54.5t-5.5 -41.5l-2 -14l164 -19l-8 -51zM16 1554l-45 58l254 237h88l254 -237l-45 -58l-250 144h-8z" />
    <glyph glyph-name="Hbar" unicode="&#x126;" horiz-adv-x="1640" 
d="M88 975v82h168v108q0 31 -0.5 44t-5 31t-13 25.5t-26.5 18t-43 17t-64 14.5v51h160q82 0 139.5 2t74.5 4l16 2l10 -8q-8 -9 -19 -26.5t-30 -81.5t-19 -140v-61h783v108q0 31 -0.5 44t-5 31t-13 25.5t-26.5 18t-43 17t-64 14.5v51h160q82 0 139 1.5t74 2.5l16 2l10 -8
q-3 -3 -7.5 -9t-16 -28.5t-20.5 -48.5t-16 -69t-7 -91v-61h172v-82h-172v-782q0 -27 -2.5 -55t-4.5 -42l-3 -14l184 -19l-8 -57l-494 -12v65q68 8 108 41.5t40 85.5v465h-762l-21 -20v-438q0 -27 -2.5 -55t-5.5 -42l-2 -14l184 -19l-8 -57l-493 -12v65q69 8 108 43.5
t39 90.5v782h-168zM1198 737l21 21v217h-783v-238h762z" />
    <glyph glyph-name="hbar" unicode="&#x127;" horiz-adv-x="1150" 
d="M51 1079v86h133v62q0 32 -0.5 49t-4 37.5t-9.5 30t-18 16t-29 6.5h-86v55q105 23 187.5 46t112.5 35l30 11l6 -6q-21 -75 -21 -233v-109h303v-86h-303v-202q0 -41 -2 -75.5t-4 -53.5t-2 -23q63 91 166.5 156t222.5 65q234 0 234 -276v-484q0 -27 -2.5 -54.5t-5.5 -41.5
l-3 -14l174 -19l-8 -51l-440 -12v59q117 14 117 133v439q0 109 -37 152.5t-105 43.5q-70 0 -155 -38.5t-150 -100.5v-496q0 -27 -2.5 -54.5t-5.5 -41.5l-2 -14l164 -19l-8 -51l-441 -12v59q127 14 127 133v893h-133z" />
    <glyph glyph-name="Itilde" unicode="&#x128;" horiz-adv-x="677" 
d="M109 -6v65q68 8 107.5 41.5t39.5 85.5v979q0 31 -0.5 44t-5 31t-13 25.5t-26.5 18t-43 17t-64 14.5v51h160q82 0 139.5 2t74.5 4l16 2l10 -8q-8 -9 -19 -26.5t-30 -81.5t-19 -140v-932q0 -26 -2.5 -52t-5.5 -39l-2 -13l195 -19l-9 -57zM39 1501l-70 15q1 9 3 25t15 55.5
t32.5 70t59 55.5t91.5 25q42 0 93 -19t90 -41.5t83.5 -41.5t75.5 -19q41 0 69 30t36 60l8 31l71 -6q0 -5 -1 -13.5t-6.5 -33.5t-13.5 -47.5t-25 -50.5t-39 -48t-57 -33.5t-77 -13.5q-47 0 -96.5 19t-83 41.5t-73 41.5t-70.5 19q-24 0 -44.5 -12.5t-33 -30t-21.5 -35.5
t-13 -30z" />
    <glyph glyph-name="itilde" unicode="&#x129;" horiz-adv-x="567" 
d="M78 -6v59q127 14 127 133v498q0 39 -1.5 60t-7.5 41.5t-18.5 29t-34.5 8.5h-92v56q133 31 218.5 55t104.5 32l19 9l2 -6q-22 -68 -22 -234v-549q0 -27 -2.5 -54.5t-5.5 -41.5l-3 -14l175 -19l-9 -51zM-27 1151q0 5 -0.5 14t2 35t7 49.5t17 52.5t30.5 50t48.5 35t69.5 14
q38 0 70.5 -15.5t54.5 -37.5t42 -44t43.5 -37.5t48.5 -15.5q38 0 59.5 34.5t24.5 68.5l2 35h75q-2 -1 0 -14.5t-1.5 -37t-7.5 -50.5t-17.5 -55t-31.5 -50.5t-49.5 -37t-70.5 -14.5q-38 0 -70.5 15.5t-54 37.5t-41 44t-42.5 37.5t-48 15.5q-37 0 -58 -32t-23 -64l-3 -33h-76z
" />
    <glyph glyph-name="Imacron" unicode="&#x12a;" horiz-adv-x="677" 
d="M109 -6v65q68 8 107.5 41.5t39.5 85.5v979q0 31 -0.5 44t-5 31t-13 25.5t-26.5 18t-43 17t-64 14.5v51h160q82 0 139.5 2t74.5 4l16 2l10 -8q-8 -9 -19 -26.5t-30 -81.5t-19 -140v-932q0 -26 -2.5 -52t-5.5 -39l-2 -13l195 -19l-9 -57zM68 1567v121h528v-121h-528z" />
    <glyph glyph-name="imacron" unicode="&#x12b;" horiz-adv-x="567" 
d="M78 -6v59q127 14 127 133v498q0 39 -1.5 60t-7.5 41.5t-18.5 29t-34.5 8.5h-92v56q133 31 218.5 55t104.5 32l19 9l2 -6q-22 -68 -22 -234v-549q0 -27 -2.5 -54.5t-5.5 -41.5l-3 -14l175 -19l-9 -51zM37 1206v121h467v-121h-467z" />
    <glyph glyph-name="Ibreve" unicode="&#x12c;" horiz-adv-x="677" 
d="M109 -6v65q68 8 107.5 41.5t39.5 85.5v979q0 31 -0.5 44t-5 31t-13 25.5t-26.5 18t-43 17t-64 14.5v51h160q82 0 139.5 2t74.5 4l16 2l10 -8q-8 -9 -19 -26.5t-30 -81.5t-19 -140v-932q0 -26 -2.5 -52t-5.5 -39l-2 -13l195 -19l-9 -57zM332 1475q-128 0 -208.5 62.5
t-80.5 164.5q0 36 12 76h72q-6 -48 11 -84t49.5 -55t68.5 -28t76 -9q39 0 73.5 8t66.5 26.5t49.5 55t13.5 86.5h73q10 -34 10 -76q0 -102 -79.5 -164.5t-206.5 -62.5z" />
    <glyph glyph-name="ibreve" unicode="&#x12d;" horiz-adv-x="567" 
d="M78 -6v59q127 14 127 133v498q0 39 -1.5 60t-7.5 41.5t-18.5 29t-34.5 8.5h-92v56q133 31 218.5 55t104.5 32l19 9l2 -6q-22 -68 -22 -234v-549q0 -27 -2.5 -54.5t-5.5 -41.5l-3 -14l175 -19l-9 -51zM270 1108q-117 0 -191.5 68t-74.5 174q0 41 10 75h72v-18
q0 -18 2.5 -36t13.5 -44.5t29.5 -45t54.5 -32.5t84 -14t83.5 14t54.5 33t30 44.5t14 44t3 36.5v18h71q11 -49 11 -75q0 -106 -75 -174t-192 -68z" />
    <glyph glyph-name="Iogonek" unicode="&#x12e;" horiz-adv-x="677" 
d="M109 -6v65q68 8 107.5 41.5t39.5 85.5v979q0 31 -0.5 44t-5 31t-13 25.5t-26.5 18t-43 17t-64 14.5v51h160q82 0 139.5 2t74.5 4l16 2l10 -8q-8 -9 -19 -26.5t-30 -81.5t-19 -140v-932q0 -26 -2.5 -52t-5.5 -39l-2 -13l195 -19l-9 -57l-98 -2q-36 -2 -86.5 -46.5
t-88.5 -111.5t-38 -122q0 -63 41 -95t98 -32l43 4l15 -52q-90 -34 -164 -34q-90 0 -144.5 49t-54.5 123q0 50 33 104t66 87t112 103q14 13 21 19z" />
    <glyph glyph-name="iogonek" unicode="&#x12f;" horiz-adv-x="567" 
d="M78 -6v59q127 14 127 133v498q0 39 -1.5 60t-7.5 41.5t-18.5 29t-34.5 8.5h-92v56q133 31 218.5 55t104.5 32l19 9l2 -6q-22 -68 -22 -234v-549q0 -27 -2.5 -54.5t-5.5 -41.5l-3 -14l175 -19l-9 -51l-82 -2q-36 -2 -86.5 -46.5t-88.5 -111.5t-38 -122q0 -63 41.5 -95
t98.5 -32l43 4l14 -52q-90 -34 -164 -34q-90 0 -144 49t-54 123q0 31 12 63t27 56t48 59t56 56t70 63q12 10 18 16zM270 1155q-44 0 -77 33.5t-33 77.5t33 77t77 33t77.5 -33t33.5 -77t-33.5 -77.5t-77.5 -33.5z" />
    <glyph glyph-name="Idotaccent" unicode="&#x130;" horiz-adv-x="677" 
d="M109 -6v65q68 8 107.5 41.5t39.5 85.5v979q0 31 -0.5 44t-5 31t-13 25.5t-26.5 18t-43 17t-64 14.5v51h160q82 0 139.5 2t74.5 4l16 2l10 -8q-8 -9 -19 -26.5t-30 -81.5t-19 -140v-932q0 -26 -2.5 -52t-5.5 -39l-2 -13l195 -19l-9 -57zM332 1516q-44 0 -77.5 33t-33.5 77
t33.5 77.5t77.5 33.5t77 -33.5t33 -77.5t-33 -77t-77 -33z" />
    <glyph glyph-name="dotlessi" unicode="&#x131;" horiz-adv-x="567" 
d="M78 -6v59q127 14 127 133v498q0 39 -1.5 60t-7.5 41.5t-18.5 29t-34.5 8.5h-92v56q133 31 218.5 55t104.5 32l19 9l2 -6q-22 -68 -22 -234v-549q0 -27 -2.5 -54.5t-5.5 -41.5l-3 -14l175 -19l-9 -51z" />
    <glyph glyph-name="IJ" unicode="&#x132;" horiz-adv-x="1298" 
d="M109 -6v65q68 8 107.5 41.5t39.5 85.5v979q0 31 -0.5 44t-5 31t-13 25.5t-26.5 18t-43 17t-64 14.5v51h160q82 0 139.5 2t74.5 4l16 2l10 -8q-8 -9 -19 -26.5t-30 -81.5t-19 -140v-932q0 -26 -2.5 -52t-5.5 -39l-2 -13l195 -19l-9 -57zM907 102v1063q0 31 -0.5 43.5
t-5 31.5t-13 26t-26 17.5t-42.5 17t-64 14.5v51h159q82 0 139.5 2t73.5 4l17 2l10 -8q-8 -9 -19 -26.5t-30 -81.5t-19 -140v-909q0 -255 -99.5 -399t-272.5 -144l-25 49q86 12 151.5 123.5t65.5 263.5z" />
    <glyph glyph-name="ij" unicode="&#x133;" horiz-adv-x="1079" 
d="M78 -6v59q127 14 127 133v498q0 39 -1.5 60t-7.5 41.5t-18.5 29t-34.5 8.5h-92v56q133 31 218.5 55t104.5 32l19 9l2 -6q-22 -68 -22 -234v-549q0 -27 -2.5 -54.5t-5.5 -41.5l-3 -14l175 -19l-9 -51zM270 1155q-44 0 -77 33.5t-33 77.5t33 77t77 33t77.5 -33t33.5 -77
t-33.5 -77.5t-77.5 -33.5zM756 -49v733q0 39 -1.5 60t-7.5 41.5t-18.5 29t-34.5 8.5h-92v56q132 31 217.5 55t104.5 32l20 9l2 -6q-22 -60 -22 -226v-686q0 -257 -94.5 -399.5t-266.5 -142.5l-24 49q86 12 151.5 123.5t65.5 263.5zM821 1155q-44 0 -77 33.5t-33 77.5t33 77
t77 33t77.5 -33t33.5 -77t-33.5 -77.5t-77.5 -33.5z" />
    <glyph glyph-name="Jcircumflex" unicode="&#x134;" horiz-adv-x="628" 
d="M238 102v1063q0 31 -0.5 44t-5 31t-13 25.5t-26.5 18t-43 17t-64 14.5v51h160q82 0 139 2t73 4l17 2l10 -8q-3 -3 -7.5 -9.5t-16 -29t-20.5 -48.5t-16 -69.5t-7 -91.5v-909q0 -255 -100 -399t-273 -144l-25 49q86 12 152 123.5t66 263.5zM6 1518l268 266h109l266 -266
l-55 -48l-262 166h-8l-263 -166z" />
    <glyph glyph-name="jcircumflex" unicode="&#x135;" horiz-adv-x="514" 
d="M188 -49v733q0 32 -0.5 49t-4 37.5t-9.5 30t-18 16t-29 6.5h-92v56q132 31 217.5 55t105.5 32l19 9l2 -6q-23 -60 -23 -226v-686q0 -257 -94.5 -399.5t-265.5 -142.5l-25 49q86 12 151.5 123.5t65.5 263.5zM-20 1069l237 361h80l235 -361l-61 -39l-215 238l-215 -238z
" />
    <glyph glyph-name="Kcommaaccent" unicode="&#x136;" horiz-adv-x="1316" 
d="M109 -6v65q68 8 107.5 41.5t39.5 85.5v979q0 31 -0.5 44t-5 31t-13 25.5t-26.5 18t-43 17t-64 14.5v51h160q82 0 139.5 2t74.5 4l16 2l10 -8q-8 -9 -19 -26.5t-30 -81.5t-19 -140v-360h39q37 22 70 55l399 397q21 21 25 42t-16 39t-66 24v51h383l10 -29q-4 -1 -12.5 -3.5
t-36 -15t-56.5 -30t-72.5 -52t-86.5 -77.5l-387 -385v-20l495 -570q66 -76 94 -93.5t80 -22.5l23 -2l-8 -66h-301l-6 6q-21 61 -154 217l-383 445h-33v-482q0 -26 -2.5 -52t-5.5 -39l-2 -13l184 -19l-8 -57zM618 -135l23 47h154q5 -8 13.5 -21.5t22 -52.5t13.5 -74
q0 -80 -65 -150t-150 -112l-41 60q60 35 88.5 67.5t28.5 69.5q0 61 -87 166z" />
    <glyph glyph-name="kcommaaccent" unicode="&#x137;" horiz-adv-x="1058" 
d="M57 -6v59q127 14 127 133v1041q0 32 -0.5 49t-4 37.5t-9.5 30t-18 16t-29 6.5h-86v55q105 23 187.5 46t112.5 35l30 11l6 -6q-21 -75 -21 -233v-727h25l207 174q4 4 16.5 14.5t18.5 16t16 15.5t14.5 17t8.5 16.5t4 18.5q0 33 -68 51v52h375l10 -33q-13 -3 -35.5 -10.5
t-79.5 -37t-100 -65.5l-238 -203v-20q19 -27 33 -41l303 -328q70 -76 100 -96.5t85 -24.5l22 -2l-8 -61l-295 -6q-27 73 -84 141l-305 344h-25v-293q0 -27 -2.5 -54.5t-5.5 -41.5l-2 -14l164 -19l-8 -51zM446 -135l23 47h154q5 -8 13.5 -21.5t22 -52.5t13.5 -74
q0 -80 -65 -150t-150 -112l-41 60q60 34 88 66.5t28 70.5q0 62 -86 166z" />
    <glyph glyph-name="kgreenlandic" unicode="&#x138;" horiz-adv-x="1064" 
d="M78 -6v59q127 14 127 133v498q0 39 -1.5 60t-7.5 41.5t-18.5 29t-34.5 8.5h-92v56q133 31 218.5 55t104.5 32l19 9l2 -6q-22 -68 -22 -234v-229h24l254 215q4 4 16.5 14.5t18.5 16t16 15.5t14.5 17t8.5 16.5t4 18.5q0 33 -67 51v52h354l10 -33q-103 -35 -195 -113
l-284 -244v-20q19 -27 33 -41l266 -287q70 -77 99.5 -97t84.5 -24l23 -2l-9 -61l-294 -6q-25 75 -84 141l-269 303h-24v-252q0 -27 -2.5 -54.5t-5.5 -41.5l-3 -14l154 -19l-8 -51z" />
    <glyph glyph-name="Lacute" unicode="&#x139;" horiz-adv-x="1155" 
d="M115 -6v65q137 15 137 127v979q0 31 -0.5 44t-5 31t-13 25.5t-26.5 18t-43 17t-64 14.5v51h160q82 0 139 2t73 4l17 2l11 -8q-8 -9 -19 -26.5t-30 -81.5t-19 -140v-925q0 -27 -2.5 -55.5t-5.5 -43.5l-2 -14h342q38 0 67.5 5t53 12.5t44.5 27t36 36.5t35 55t34.5 69
t40.5 90h70l-84 -375h-660zM166 1548l362 215h11l67 -106v-51l-413 -125z" />
    <glyph glyph-name="lacute" unicode="&#x13a;" horiz-adv-x="546" 
d="M78 1559l-27 67l363 215h10l68 -106v-52zM57 -6v59q127 14 127 133v1041q0 32 -0.5 49t-4 37.5t-9.5 30t-18 16t-29 6.5h-86v55q105 23 187.5 46t112.5 35l30 11l6 -6q-21 -75 -21 -233v-1088q0 -27 -2.5 -54.5t-5.5 -41.5l-2 -14l174 -19l-8 -51z" />
    <glyph glyph-name="Lcommaaccent" unicode="&#x13b;" horiz-adv-x="1155" 
d="M115 -6v65q137 15 137 127v979q0 31 -0.5 44t-5 31t-13 25.5t-26.5 18t-43 17t-64 14.5v51h160q82 0 139 2t73 4l17 2l11 -8q-8 -9 -19 -26.5t-30 -81.5t-19 -140v-925q0 -27 -2.5 -55.5t-5.5 -43.5l-2 -14h342q38 0 67.5 5t53 12.5t44.5 27t36 36.5t35 55t34.5 69
t40.5 90h70l-84 -375h-660zM535 -135l22 47h154q5 -8 13.5 -21.5t22 -52.5t13.5 -74q0 -80 -65 -150t-150 -112l-41 60q60 35 88.5 67.5t28.5 69.5q0 62 -86 166z" />
    <glyph glyph-name="lcommaaccent" unicode="&#x13c;" horiz-adv-x="546" 
d="M57 -6v59q127 14 127 133v1041q0 32 -0.5 49t-4 37.5t-9.5 30t-18 16t-29 6.5h-86v55q105 23 187.5 46t112.5 35l30 11l6 -6q-21 -75 -21 -233v-1088q0 -27 -2.5 -54.5t-5.5 -41.5l-2 -14l174 -19l-8 -51zM174 -135l23 47h153q5 -8 13.5 -21.5t22 -52.5t13.5 -74
q0 -80 -65 -150t-150 -112l-41 60q60 35 88.5 67.5t28.5 69.5q0 62 -86 166z" />
    <glyph glyph-name="Lcaron" unicode="&#x13d;" horiz-adv-x="1155" 
d="M115 -6v65q137 15 137 127v979q0 31 -0.5 44t-5 31t-13 25.5t-26.5 18t-43 17t-64 14.5v51h160q82 0 139 2t73 4l17 2l11 -8q-8 -9 -19 -26.5t-30 -81.5t-19 -140v-925q0 -27 -2.5 -55.5t-5.5 -43.5l-2 -14h342q38 0 67.5 5t53 12.5t44.5 27t36 36.5t35 55t34.5 69
t40.5 90h70l-84 -375h-660zM616 1126l52 385l168 21v-43l-148 -363h-72z" />
    <glyph glyph-name="lcaron" unicode="&#x13e;" horiz-adv-x="546" 
d="M57 -6v59q127 14 127 133v1041q0 32 -0.5 49t-4 37.5t-9.5 30t-18 16t-29 6.5h-86v55q105 23 187.5 46t112.5 35l30 11l6 -6q-21 -75 -21 -233v-1088q0 -27 -2.5 -54.5t-5.5 -41.5l-2 -14l174 -19l-8 -51zM475 1126l51 385l168 21v-43l-147 -363h-72z" />
    <glyph glyph-name="Ldot" unicode="&#x13f;" horiz-adv-x="1155" 
d="M115 -6v65q137 15 137 127v979q0 31 -0.5 44t-5 31t-13 25.5t-26.5 18t-43 17t-64 14.5v51h160q82 0 139 2t73 4l17 2l11 -8q-8 -9 -19 -26.5t-30 -81.5t-19 -140v-925q0 -27 -2.5 -55.5t-5.5 -43.5l-2 -14h342q38 0 67.5 5t53 12.5t44.5 27t36 36.5t35 55t34.5 69
t40.5 90h70l-84 -375h-660zM913 606q-51 0 -86.5 36t-35.5 87t35.5 87t86.5 36t87 -36t36 -87t-36 -87t-87 -36z" />
    <glyph glyph-name="ldot" unicode="&#x140;" horiz-adv-x="755" 
d="M57 -6v59q127 14 127 133v1041q0 32 -0.5 49t-4 37.5t-9.5 30t-18 16t-29 6.5h-86v55q105 23 187.5 46t112.5 35l30 11l6 -6q-21 -75 -21 -233v-1088q0 -27 -2.5 -54.5t-5.5 -41.5l-2 -14l174 -19l-8 -51zM643 606q-51 0 -87 36t-36 87t36 87t87 36t87 -36t36 -87
t-36 -87t-87 -36z" />
    <glyph glyph-name="Lslash" unicode="&#x141;" horiz-adv-x="1155" 
d="M68 483v105l184 125v452q0 31 -0.5 44t-5 31t-13 25.5t-26.5 18t-43 17t-64 14.5v51h160q82 0 139 2t73 4l17 2l11 -8q-8 -9 -19 -26.5t-30 -81.5t-19 -140v-291l322 222v-105l-322 -221v-530q0 -27 -2.5 -55.5t-5.5 -43.5l-2 -14h342q38 0 67.5 5t53 12.5t44.5 27
t36 36.5t35 55t34.5 69t40.5 90h70l-84 -375h-660l-286 -6v65q137 15 137 127v422z" />
    <glyph glyph-name="lslash" unicode="&#x142;" horiz-adv-x="593" 
d="M33 475v103l178 131v518q0 32 -0.5 49t-4 37.5t-9.5 30t-18 16t-29 6.5h-87v55q105 23 187.5 46t112.5 35l30 11l6 -6q-20 -75 -20 -233v-453l182 135v-102l-182 -137v-531q0 -27 -2.5 -54.5t-4.5 -41.5l-3 -14l174 -19l-8 -51l-451 -12v59q127 14 127 133v418z" />
    <glyph glyph-name="Nacute" unicode="&#x143;" horiz-adv-x="1568" 
d="M113 -6v65q70 8 108.5 40t38.5 87v922q0 106 -33.5 147t-134.5 60v51h62q44 0 95 2t80 4l29 2q25 -47 76 -106l742 -856q34 -42 81 -109v852q0 28 -1 42t-5.5 34t-15 29.5t-28.5 21t-47 17.5t-70 10v57h389l10 -29q-6 -2 -15.5 -5.5t-33.5 -19.5t-43 -37t-34 -60t-15 -87
v-1138h-54l-870 1028q-43 50 -74 98v-930q0 -27 -2.5 -54.5t-5.5 -41.5l-2 -14l184 -13l-8 -57zM631 1548l362 215h11l67 -106v-51l-414 -125z" />
    <glyph glyph-name="nacute" unicode="&#x144;" horiz-adv-x="1171" 
d="M78 -6v59q127 14 127 133v498q0 39 -1.5 60t-7.5 41.5t-18.5 29t-34.5 8.5h-92v56q89 18 171 42t120 39l37 15l6 -6q-18 -68 -20 -250q62 94 165.5 160.5t223.5 66.5q233 0 233 -276v-484q0 -27 -2.5 -54t-4.5 -40l-3 -14l174 -21l-8 -51l-441 -12v59q65 7 91 40t26 93
v439q0 110 -36.5 153t-104.5 43q-72 0 -157 -39t-148 -104v-492q0 -27 -2.5 -54t-5.5 -40l-3 -14l164 -21l-8 -51zM578 1034l-64 35l174 350l178 19v-56z" />
    <glyph glyph-name="Ncommaaccent" unicode="&#x145;" horiz-adv-x="1568" 
d="M113 -6v65q70 8 108.5 40t38.5 87v922q0 106 -33.5 147t-134.5 60v51h62q44 0 95 2t80 4l29 2q25 -47 76 -106l742 -856q34 -42 81 -109v852q0 28 -1 42t-5.5 34t-15 29.5t-28.5 21t-47 17.5t-70 10v57h389l10 -29q-6 -2 -15.5 -5.5t-33.5 -19.5t-43 -37t-34 -60t-15 -87
v-1138h-54l-870 1028q-43 50 -74 98v-930q0 -27 -2.5 -54.5t-5.5 -41.5l-2 -14l184 -13l-8 -57zM713 -135l22 47h154q5 -8 13.5 -21.5t22 -52.5t13.5 -74q0 -80 -65 -150t-150 -112l-41 60q60 35 88.5 67.5t28.5 69.5q0 62 -86 166z" />
    <glyph glyph-name="ncommaaccent" unicode="&#x146;" horiz-adv-x="1171" 
d="M78 -6v59q127 14 127 133v498q0 39 -1.5 60t-7.5 41.5t-18.5 29t-34.5 8.5h-92v56q89 18 171 42t120 39l37 15l6 -6q-18 -68 -20 -250q62 94 165.5 160.5t223.5 66.5q233 0 233 -276v-484q0 -27 -2.5 -54t-4.5 -40l-3 -14l174 -21l-8 -51l-441 -12v59q65 7 91 40t26 93
v439q0 110 -36.5 153t-104.5 43q-72 0 -157 -39t-148 -104v-492q0 -27 -2.5 -54t-5.5 -40l-3 -14l164 -21l-8 -51zM502 -135l22 47h154q5 -8 13.5 -21.5t22 -52.5t13.5 -74q0 -80 -65 -150t-150 -112l-41 60q60 35 88.5 67.5t28.5 69.5q0 62 -86 166z" />
    <glyph glyph-name="Ncaron" unicode="&#x147;" horiz-adv-x="1568" 
d="M113 -6v65q70 8 108.5 40t38.5 87v922q0 106 -33.5 147t-134.5 60v51h62q44 0 95 2t80 4l29 2q25 -47 76 -106l742 -856q34 -42 81 -109v852q0 28 -1 42t-5.5 34t-15 29.5t-28.5 21t-47 17.5t-70 10v57h389l10 -29q-6 -2 -15.5 -5.5t-33.5 -19.5t-43 -37t-34 -60t-15 -87
v-1138h-54l-870 1028q-43 50 -74 98v-930q0 -27 -2.5 -54.5t-5.5 -41.5l-2 -14l184 -13l-8 -57zM485 1737l56 47l262 -166h8l262 166l55 -47l-266 -267h-108z" />
    <glyph glyph-name="ncaron" unicode="&#x148;" horiz-adv-x="1171" 
d="M78 -6v59q127 14 127 133v498q0 39 -1.5 60t-7.5 41.5t-18.5 29t-34.5 8.5h-92v56q89 18 171 42t120 39l37 15l6 -6q-18 -68 -20 -250q62 94 165.5 160.5t223.5 66.5q233 0 233 -276v-484q0 -27 -2.5 -54t-4.5 -40l-3 -14l174 -21l-8 -51l-441 -12v59q65 7 91 40t26 93
v439q0 110 -36.5 153t-104.5 43q-72 0 -157 -39t-148 -104v-492q0 -27 -2.5 -54t-5.5 -40l-3 -14l164 -21l-8 -51zM557 1071l-238 340l62 39l215 -221l215 221l61 -39l-235 -340h-80z" />
    <glyph glyph-name="napostrophe" unicode="&#x149;" horiz-adv-x="1171" 
d="M78 -6v59q127 14 127 133v498q0 39 -1.5 60t-7.5 41.5t-18.5 29t-34.5 8.5h-92v56q89 18 171 42t120 39l37 15l6 -6q-18 -68 -20 -250q62 94 165.5 160.5t223.5 66.5q233 0 233 -276v-484q0 -27 -2.5 -54t-4.5 -40l-3 -14l174 -21l-8 -51l-441 -12v59q65 7 91 40t26 93
v439q0 110 -36.5 153t-104.5 43q-72 0 -157 -39t-148 -104v-492q0 -27 -2.5 -54t-5.5 -40l-3 -14l164 -21l-8 -51zM109 1462l22 47h154q5 -8 13.5 -21.5t22 -52t13.5 -73.5q0 -80 -65 -150t-150 -112l-41 59q117 67 117 137q0 62 -86 166z" />
    <glyph glyph-name="Eng" unicode="&#x14a;" horiz-adv-x="1568" 
d="M1348 1128v-1030q0 -70 -9.5 -142t-30.5 -147t-64.5 -122t-102.5 -47q-44 0 -68 25t-24 61q0 57 67 84q2 1 16 6.5t21 9t22 12.5t23.5 17.5t20.5 23.5t18.5 32t11 41t4.5 52v33l-829 981q-43 50 -74 98v-930q0 -27 -2.5 -54.5t-5.5 -41.5l-2 -14l184 -13l-8 -57l-403 -12
v65q70 8 108.5 40t38.5 87v922q0 106 -33.5 147t-134.5 60v51h62q44 0 95 2t80 4l29 2q25 -47 76 -106l742 -856q34 -42 81 -109v852q0 28 -1 42t-5.5 34t-15 29.5t-28.5 21t-47 17.5t-70 10v57h389l10 -29q-6 -2 -15.5 -5.5t-33.5 -19.5t-43 -37t-34 -60t-15 -87z" />
    <glyph glyph-name="eng" unicode="&#x14b;" horiz-adv-x="1130" 
d="M78 -6v59q127 14 127 133v498q0 39 -1.5 60t-7.5 41.5t-18.5 29t-34.5 8.5h-92v56q133 30 215 54t98 33l15 9l6 -6q-18 -68 -20 -250q62 94 165.5 160.5t223.5 66.5q233 0 233 -276v-592q0 -101 -20 -187t-51.5 -142t-70 -100.5t-77 -68.5t-70 -39.5t-51.5 -20.5l-20 -5
l-25 49q9 3 23.5 10.5t52 38.5t66 70.5t52 111t23.5 156.5v674q0 110 -36.5 153t-104.5 43q-72 0 -157 -39t-148 -104v-492q0 -27 -2.5 -54t-5.5 -40l-3 -14l164 -21l-8 -51z" />
    <glyph glyph-name="Omacron" unicode="&#x14c;" horiz-adv-x="1628" 
d="M295 719q0 -92 22 -185.5t67.5 -179t107.5 -152t148.5 -106t184.5 -39.5q94 0 176.5 36t142 97.5t103 141t65 169t21.5 179.5q0 117 -36 228t-101.5 201t-168.5 145t-226 55q-116 0 -213 -49.5t-160 -132.5t-98 -188.5t-35 -219.5zM92 666q0 111 31 217t93.5 198t150 161
t208.5 109t261 40q157 0 289.5 -51t222 -139.5t139 -209.5t49.5 -260q0 -117 -34 -228.5t-100.5 -206.5t-156.5 -167t-209 -113t-252 -41q-154 0 -285 55.5t-219.5 150t-138 220.5t-49.5 265zM545 1567v121h528v-121h-528z" />
    <glyph glyph-name="omacron" unicode="&#x14d;" horiz-adv-x="1089" 
d="M78 440q0 75 16 145t53.5 136.5t91.5 115.5t136.5 79t183.5 30q145 0 249 -60t154 -160t50 -228q0 -78 -18.5 -152t-58.5 -141.5t-96 -118.5t-137 -81t-176 -30q-210 0 -329 130.5t-119 334.5zM266 487q0 -63 10 -124.5t33 -119.5t55.5 -101.5t82 -70t108.5 -26.5
q126 0 197 112t71 283q0 80 -16.5 154.5t-49.5 139.5t-90.5 104t-131.5 39q-90 0 -152.5 -57.5t-89.5 -143.5t-27 -189zM307 1206v121h467v-121h-467z" />
    <glyph glyph-name="Obreve" unicode="&#x14e;" horiz-adv-x="1628" 
d="M295 719q0 -92 22 -185.5t67.5 -179t107.5 -152t148.5 -106t184.5 -39.5q94 0 176.5 36t142 97.5t103 141t65 169t21.5 179.5q0 117 -36 228t-101.5 201t-168.5 145t-226 55q-116 0 -213 -49.5t-160 -132.5t-98 -188.5t-35 -219.5zM92 666q0 111 31 217t93.5 198t150 161
t208.5 109t261 40q157 0 289.5 -51t222 -139.5t139 -209.5t49.5 -260q0 -117 -34 -228.5t-100.5 -206.5t-156.5 -167t-209 -113t-252 -41q-154 0 -285 55.5t-219.5 150t-138 220.5t-49.5 265zM809 1475q-128 0 -208.5 62.5t-80.5 164.5q0 36 12 76h72q-6 -48 11 -84
t49.5 -55t68.5 -28t76 -9q39 0 73.5 8t66.5 26.5t49.5 55t13.5 86.5h73q11 -37 11 -76q0 -102 -80 -164.5t-207 -62.5z" />
    <glyph glyph-name="obreve" unicode="&#x14f;" horiz-adv-x="1089" 
d="M78 440q0 75 16 145t53.5 136.5t91.5 115.5t136.5 79t183.5 30q145 0 249 -60t154 -160t50 -228q0 -78 -18.5 -152t-58.5 -141.5t-96 -118.5t-137 -81t-176 -30q-210 0 -329 130.5t-119 334.5zM266 487q0 -63 10 -124.5t33 -119.5t55.5 -101.5t82 -70t108.5 -26.5
q126 0 197 112t71 283q0 80 -16.5 154.5t-49.5 139.5t-90.5 104t-131.5 39q-90 0 -152.5 -57.5t-89.5 -143.5t-27 -189zM541 1108q-117 0 -192 68t-75 174q0 38 11 75h71v-18q0 -18 2.5 -36t14 -44t30 -45t54.5 -33t84 -14t83.5 14t54 33t30 44.5t14 44t2.5 36.5v18h72
q10 -45 10 -75q0 -106 -74.5 -174t-191.5 -68z" />
    <glyph glyph-name="Ohungarumlaut" unicode="&#x150;" horiz-adv-x="1628" 
d="M295 719q0 -92 22 -185.5t67.5 -179t107.5 -152t148.5 -106t184.5 -39.5q94 0 176.5 36t142 97.5t103 141t65 169t21.5 179.5q0 117 -36 228t-101.5 201t-168.5 145t-226 55q-116 0 -213 -49.5t-160 -132.5t-98 -188.5t-35 -219.5zM92 666q0 111 31 217t93.5 198t150 161
t208.5 109t261 40q157 0 289.5 -51t222 -139.5t139 -209.5t49.5 -260q0 -117 -34 -228.5t-100.5 -206.5t-156.5 -167t-209 -113t-252 -41q-154 0 -285 55.5t-219.5 150t-138 220.5t-49.5 265zM623 1470l-62 39l127 263l199 18v-55zM965 1470l-62 39l148 263l198 18v-55z" />
    <glyph glyph-name="ohungarumlaut" unicode="&#x151;" horiz-adv-x="1089" 
d="M78 440q0 75 16 145t53.5 136.5t91.5 115.5t136.5 79t183.5 30q145 0 249 -60t154 -160t50 -228q0 -78 -18.5 -152t-58.5 -141.5t-96 -118.5t-137 -81t-176 -30q-210 0 -329 130.5t-119 334.5zM266 487q0 -63 10 -124.5t33 -119.5t55.5 -101.5t82 -70t108.5 -26.5
q126 0 197 112t71 283q0 80 -16.5 154.5t-49.5 139.5t-90.5 104t-131.5 39q-90 0 -152.5 -57.5t-89.5 -143.5t-27 -189zM397 1034l-63 35l160 350l159 19v-56zM688 1034l-63 35l159 350l160 19v-56z" />
    <glyph glyph-name="OE" unicode="&#x152;" horiz-adv-x="2031" 
d="M92 662q0 140 51.5 270t144.5 232.5t237.5 164.5t316.5 62q63 0 169 -12.5t156 -12.5h600q37 0 74 2t55 4l19 2l-64 -342h-69q4 79 -6.5 128.5t-39.5 77.5t-69.5 38t-105.5 10h-269l-20 -20v-533h379l16 117l76 12v-360h-96v151h-355l-20 -20v-438q0 -27 -2.5 -56
t-5.5 -44l-2 -15h321q46 0 76.5 3t58 16t44.5 26.5t39.5 48t38.5 66.5t46 94h70l-76 -334h-721q-75 0 -179 -12.5t-165 -12.5q-163 0 -300.5 55.5t-229 149.5t-142.5 219t-51 263zM295 723q0 -95 22 -188t68.5 -180t113 -153t163 -105.5t210.5 -39.5q31 0 60 3.5t69.5 15
t65.5 40t25 70.5v1000q0 123 -226 123q-116 0 -212 -32.5t-161.5 -88t-111 -131t-66 -159.5t-20.5 -175z" />
    <glyph glyph-name="oe" unicode="&#x153;" horiz-adv-x="1703" 
d="M78 440q0 75 16 145t53.5 136.5t91.5 115.5t136.5 79t183.5 30q130 0 223 -51.5t144 -144.5q59 92 149.5 144t196.5 52q91 0 169 -37t131 -116t56 -187q-53 -20 -94 -26l-508 -76l-22 -25q3 -73 23.5 -136.5t58.5 -116t102 -83t147 -30.5q47 0 92 10t75 24.5t54 29
t35 24.5l11 10l22 -43q-5 -8 -14 -21t-42.5 -46t-72.5 -58.5t-103 -46.5t-135 -21q-228 0 -342 199q-63 -93 -161.5 -146t-227.5 -53q-210 0 -329 130.5t-119 334.5zM266 487q0 -63 10 -124.5t33 -119.5t55.5 -101.5t82 -70t108.5 -26.5q126 0 197 112t71 283
q0 80 -16.5 154.5t-49.5 139.5t-90.5 104t-131.5 39q-90 0 -152.5 -57.5t-89.5 -143.5t-27 -189zM1241 868q-98 0 -158.5 -82t-74.5 -206l430 55q0 5 -1 13.5t-6.5 32.5t-13.5 46t-23 49t-35 46t-50.5 32.5t-67.5 13.5z" />
    <glyph glyph-name="Racute" unicode="&#x154;" horiz-adv-x="1286" 
d="M111 -6v65q68 8 107.5 41.5t39.5 85.5v979q0 54 -9.5 77.5t-43.5 40t-115 32.5v51h475q134 0 234.5 -26t159 -72.5t86.5 -104.5t28 -127q0 -68 -27.5 -131.5t-72 -110t-86 -78.5t-84.5 -54v-27l295 -432q32 -46 57 -74t48 -40t37.5 -15.5t39.5 -5.5l23 -2l-9 -66h-297
l-8 6q-43 102 -127 225l-254 375h-149l-21 -20v-400q0 -26 -2.5 -52t-5.5 -39l-2 -13l184 -19l-8 -57zM438 686h172q102 0 183 79t81 218q0 61 -18 113.5t-56.5 96t-106 68.5t-158.5 25h-76l-21 -20v-580zM430 1548l363 215h10l67 -106v-51l-413 -125z" />
    <glyph glyph-name="racute" unicode="&#x155;" horiz-adv-x="768" 
d="M78 -6v59q127 14 127 133v498q0 39 -1.5 60t-7.5 41.5t-18.5 29t-34.5 8.5h-92v56q89 18 172 42t121 39l39 15l6 -6q-18 -67 -24 -260q51 96 126.5 166.5t149.5 70.5q43 0 77 -23t34 -71q0 -45 -28 -72.5t-69 -27.5q-23 0 -50 17t-50 17q-78 0 -182 -118v-482
q0 -27 -2.5 -54.5t-5.5 -41.5l-3 -14l195 -19l-8 -51zM383 1034l-64 35l175 350l178 19v-56z" />
    <glyph glyph-name="Rcommaaccent" unicode="&#x156;" horiz-adv-x="1286" 
d="M111 -6v65q68 8 107.5 41.5t39.5 85.5v979q0 54 -9.5 77.5t-43.5 40t-115 32.5v51h475q134 0 234.5 -26t159 -72.5t86.5 -104.5t28 -127q0 -68 -27.5 -131.5t-72 -110t-86 -78.5t-84.5 -54v-27l295 -432q32 -46 57 -74t48 -40t37.5 -15.5t39.5 -5.5l23 -2l-9 -66h-297
l-8 6q-43 102 -127 225l-254 375h-149l-21 -20v-400q0 -26 -2.5 -52t-5.5 -39l-2 -13l184 -19l-8 -57zM438 686h172q102 0 183 79t81 218q0 61 -18 113.5t-56.5 96t-106 68.5t-158.5 25h-76l-21 -20v-580zM596 -135l22 47h154q5 -8 13.5 -21.5t22 -52.5t13.5 -74
q0 -80 -65 -150t-150 -112l-41 60q60 35 88.5 67.5t28.5 69.5q0 62 -86 166z" />
    <glyph glyph-name="rcommaaccent" unicode="&#x157;" horiz-adv-x="768" 
d="M78 -6v59q127 14 127 133v498q0 39 -1.5 60t-7.5 41.5t-18.5 29t-34.5 8.5h-92v56q89 18 172 42t121 39l39 15l6 -6q-18 -67 -24 -260q51 96 126.5 166.5t149.5 70.5q43 0 77 -23t34 -71q0 -45 -28 -72.5t-69 -27.5q-23 0 -50 17t-50 17q-78 0 -182 -118v-482
q0 -27 -2.5 -54.5t-5.5 -41.5l-3 -14l195 -19l-8 -51zM195 -135l22 47h154q5 -8 13.5 -21.5t22 -52.5t13.5 -74q0 -80 -65 -150t-150 -112l-41 60q60 35 88.5 67.5t28.5 69.5q0 62 -86 166z" />
    <glyph glyph-name="Rcaron" unicode="&#x158;" horiz-adv-x="1286" 
d="M111 -6v65q68 8 107.5 41.5t39.5 85.5v979q0 54 -9.5 77.5t-43.5 40t-115 32.5v51h475q134 0 234.5 -26t159 -72.5t86.5 -104.5t28 -127q0 -68 -27.5 -131.5t-72 -110t-86 -78.5t-84.5 -54v-27l295 -432q32 -46 57 -74t48 -40t37.5 -15.5t39.5 -5.5l23 -2l-9 -66h-297
l-8 6q-43 102 -127 225l-254 375h-149l-21 -20v-400q0 -26 -2.5 -52t-5.5 -39l-2 -13l184 -19l-8 -57zM438 686h172q102 0 183 79t81 218q0 61 -18 113.5t-56.5 96t-106 68.5t-158.5 25h-76l-21 -20v-580zM285 1737l55 47l262 -166h8l262 166l56 -47l-266 -267h-109z" />
    <glyph glyph-name="rcaron" unicode="&#x159;" horiz-adv-x="768" 
d="M78 -6v59q127 14 127 133v498q0 39 -1.5 60t-7.5 41.5t-18.5 29t-34.5 8.5h-92v56q89 18 172 42t121 39l39 15l6 -6q-18 -67 -24 -260q51 96 126.5 166.5t149.5 70.5q43 0 77 -23t34 -71q0 -45 -28 -72.5t-69 -27.5q-23 0 -50 17t-50 17q-78 0 -182 -118v-482
q0 -27 -2.5 -54.5t-5.5 -41.5l-3 -14l195 -19l-8 -51zM362 1071l-237 340l61 39l215 -221l215 221l62 -39l-236 -340h-80z" />
    <glyph glyph-name="Sacute" unicode="&#x15a;" horiz-adv-x="1036" 
d="M90 186q0 35 47 183h70q0 -72 18 -128.5t46.5 -91t68 -57t79.5 -31t85 -8.5q111 0 185.5 52.5t74.5 162.5q0 72 -35.5 132t-92 103.5t-124.5 84t-136.5 83t-125 91t-92 118.5t-35.5 154q0 159 118.5 258t338.5 99q65 0 134.5 -8t136 -19.5t67.5 -11.5l-64 -320h-70
q16 121 -44.5 201t-184.5 80q-111 0 -182.5 -53.5t-71.5 -159.5q0 -72 35.5 -131t92 -100.5t124.5 -80t136.5 -80.5t125 -90t92 -120.5t35.5 -161.5t-36.5 -159.5t-100 -113.5t-145 -65.5t-175.5 -22.5q-70 0 -137.5 12.5t-126.5 36.5t-95 66t-36 96zM362 1548l363 215h10
l68 -106v-51l-414 -125z" />
    <glyph glyph-name="sacute" unicode="&#x15b;" horiz-adv-x="790" 
d="M80 115q0 18 6.5 57t13.5 68l6 30h62q4 -62 26.5 -108t57 -70.5t71 -35.5t76.5 -11q76 0 123 37.5t47 101.5q0 44 -26 80.5t-67 63t-91 52t-100.5 53.5t-91.5 61t-67 82.5t-26 109.5q0 117 87.5 188.5t246.5 71.5q55 0 119 -9t101 -19l36 -9l-41 -211h-63q0 48 -15.5 83
t-36.5 53t-49.5 28.5t-47 12.5t-36.5 2q-77 0 -115 -39t-38 -93q0 -44 26 -78.5t67 -59.5t90.5 -48t99.5 -50.5t91 -61t67 -85.5t26 -118q0 -126 -90 -197.5t-238 -71.5q-42 0 -88.5 6t-99 20t-86 43.5t-33.5 70.5zM389 1034l-63 35l174 350l178 19v-56z" />
    <glyph glyph-name="Scircumflex" unicode="&#x15c;" horiz-adv-x="1036" 
d="M90 186q0 35 47 183h70q0 -72 18 -128.5t46.5 -91t68 -57t79.5 -31t85 -8.5q111 0 185.5 52.5t74.5 162.5q0 72 -35.5 132t-92 103.5t-124.5 84t-136.5 83t-125 91t-92 118.5t-35.5 154q0 159 118.5 258t338.5 99q65 0 134.5 -8t136 -19.5t67.5 -11.5l-64 -320h-70
q16 121 -44.5 201t-184.5 80q-111 0 -182.5 -53.5t-71.5 -159.5q0 -72 35.5 -131t92 -100.5t124.5 -80t136.5 -80.5t125 -90t92 -120.5t35.5 -161.5t-36.5 -159.5t-100 -113.5t-145 -65.5t-175.5 -22.5q-70 0 -137.5 12.5t-126.5 36.5t-95 66t-36 96zM217 1518l268 266h109
l266 -266l-55 -48l-262 166h-8l-263 -166z" />
    <glyph glyph-name="scircumflex" unicode="&#x15d;" horiz-adv-x="790" 
d="M80 115q0 18 6.5 57t13.5 68l6 30h62q4 -62 26.5 -108t57 -70.5t71 -35.5t76.5 -11q76 0 123 37.5t47 101.5q0 44 -26 80.5t-67 63t-91 52t-100.5 53.5t-91.5 61t-67 82.5t-26 109.5q0 117 87.5 188.5t246.5 71.5q55 0 119 -9t101 -19l36 -9l-41 -211h-63q0 48 -15.5 83
t-36.5 53t-49.5 28.5t-47 12.5t-36.5 2q-77 0 -115 -39t-38 -93q0 -44 26 -78.5t67 -59.5t90.5 -48t99.5 -50.5t91 -61t67 -85.5t26 -118q0 -126 -90 -197.5t-238 -71.5q-42 0 -88.5 6t-99 20t-86 43.5t-33.5 70.5zM131 1069l238 361h80l235 -361l-61 -39l-215 238
l-215 -238z" />
    <glyph glyph-name="Scedilla" unicode="&#x15e;" horiz-adv-x="1036" 
d="M397 -166q0 47 62 141q-68 2 -131 15.5t-117.5 38t-87.5 65.5t-33 92q0 35 47 183h70q0 -72 18 -128.5t46.5 -91t68 -57t79.5 -31t85 -8.5q111 0 185.5 52.5t74.5 162.5q0 72 -35.5 132t-92 103.5t-124.5 84t-136.5 83t-125 91t-92 118.5t-35.5 154q0 159 118.5 258
t338.5 99q65 0 134.5 -8t136 -19.5t67.5 -11.5l-64 -320h-70q16 121 -44.5 201t-184.5 80q-111 0 -182.5 -53.5t-71.5 -159.5q0 -72 35.5 -131t92 -100.5t124.5 -80t136.5 -80.5t125 -90t92 -120.5t35.5 -161.5q0 -111 -56.5 -191.5t-147 -120.5t-206.5 -47q-16 -40 -16 -69
q0 -19 17.5 -34t43 -26.5t51 -26t43 -41.5t17.5 -65q0 -78 -66 -139t-161 -61q-51 0 -98 18.5t-68 36.5l-21 18l31 66q8 -6 21.5 -14.5t51.5 -22.5t71 -14q47 0 76.5 20.5t29.5 52.5q0 23 -24.5 42.5t-54.5 32t-54.5 34.5t-24.5 49z" />
    <glyph glyph-name="scedilla" unicode="&#x15f;" horiz-adv-x="790" 
d="M287 -166q0 55 63 143q-44 2 -87 9t-86.5 22t-70 42.5t-26.5 64.5q0 18 6.5 57t13.5 68l6 30h62q4 -62 26.5 -108t57 -70.5t71 -35.5t76.5 -11q76 0 123 37.5t47 101.5q0 44 -26 80.5t-67 63t-91 52t-100.5 53.5t-91.5 61t-67 82.5t-26 109.5q0 117 87.5 188.5
t246.5 71.5q55 0 119 -9t101 -19l36 -9l-41 -211h-63q0 48 -15.5 83t-36.5 53t-49.5 28.5t-47 12.5t-36.5 2q-77 0 -115 -39t-38 -93q0 -44 26 -78.5t67 -59.5t90.5 -48t99.5 -50.5t91 -61t67 -85.5t26 -118q0 -118 -80 -188.5t-213 -78.5q-16 -46 -16 -69q0 -19 17.5 -34
t43 -26.5t51 -26t43 -41.5t17.5 -65q0 -78 -66.5 -139t-161.5 -61q-51 0 -97.5 18.5t-67.5 36.5l-21 18l31 66q8 -6 21.5 -14.5t51 -22.5t70.5 -14q47 0 76.5 20.5t29.5 52.5q0 23 -24.5 42.5t-54 32t-54 34.5t-24.5 49z" />
    <glyph glyph-name="Scaron" unicode="&#x160;" horiz-adv-x="1036" 
d="M90 186q0 35 47 183h70q0 -72 18 -128.5t46.5 -91t68 -57t79.5 -31t85 -8.5q111 0 185.5 52.5t74.5 162.5q0 72 -35.5 132t-92 103.5t-124.5 84t-136.5 83t-125 91t-92 118.5t-35.5 154q0 159 118.5 258t338.5 99q65 0 134.5 -8t136 -19.5t67.5 -11.5l-64 -320h-70
q16 121 -44.5 201t-184.5 80q-111 0 -182.5 -53.5t-71.5 -159.5q0 -72 35.5 -131t92 -100.5t124.5 -80t136.5 -80.5t125 -90t92 -120.5t35.5 -161.5t-36.5 -159.5t-100 -113.5t-145 -65.5t-175.5 -22.5q-70 0 -137.5 12.5t-126.5 36.5t-95 66t-36 96zM217 1737l55 47
l263 -166h8l262 166l55 -47l-266 -267h-109z" />
    <glyph glyph-name="scaron" unicode="&#x161;" horiz-adv-x="790" 
d="M80 115q0 18 6.5 57t13.5 68l6 30h62q4 -62 26.5 -108t57 -70.5t71 -35.5t76.5 -11q76 0 123 37.5t47 101.5q0 44 -26 80.5t-67 63t-91 52t-100.5 53.5t-91.5 61t-67 82.5t-26 109.5q0 117 87.5 188.5t246.5 71.5q55 0 119 -9t101 -19l36 -9l-41 -211h-63q0 48 -15.5 83
t-36.5 53t-49.5 28.5t-47 12.5t-36.5 2q-77 0 -115 -39t-38 -93q0 -44 26 -78.5t67 -59.5t90.5 -48t99.5 -50.5t91 -61t67 -85.5t26 -118q0 -126 -90 -197.5t-238 -71.5q-42 0 -88.5 6t-99 20t-86 43.5t-33.5 70.5zM369 1071l-238 340l62 39l215 -221l215 221l61 -39
l-235 -340h-80z" />
    <glyph glyph-name="Tcommaaccent" unicode="&#x162;" horiz-adv-x="1320" 
d="M418 -6v65q69 8 108 43.5t39 90.5v1093h-203q-109 0 -166 -49.5t-114 -204.5h-70l64 346q53 -12 137 -12h958q37 0 74 3t55 6l19 3l-64 -346h-69q5 104 -17.5 160t-68.5 75t-131 19h-203l-21 -20v-1073q0 -27 -2.5 -55t-4.5 -42l-3 -14l205 -19l-8 -57l-264 -6h20
q-24 -63 -24 -92q0 -19 17.5 -34t43 -26.5t51 -26t43 -41.5t17.5 -65q0 -78 -66.5 -139t-161.5 -61q-51 0 -97.5 18.5t-67.5 36.5l-21 18l31 66q8 -6 21.5 -14.5t51 -22.5t70.5 -14q47 0 76.5 20.5t29.5 52.5q0 23 -24.5 42.5t-54 32t-54 34.5t-24.5 49q0 13 5.5 31t13.5 35
t18 35t18 30t15 23t8 12z" />
    <glyph glyph-name="tcommaaccent" unicode="&#x163;" horiz-adv-x="710" 
d="M295 -166q0 50 63 146q-180 25 -180 264v440l6 133h-135v62q90 18 139 63l76 223l92 -2l6 -6q-18 -60 -18 -205v-30h320l-15 -99h-282l-21 -20v-520q0 -94 32 -139.5t111 -45.5q41 0 87 11t72 21l26 11l26 -39q-4 -5 -12.5 -12.5t-35.5 -28t-56.5 -36.5t-74.5 -30.5
t-91 -17.5q-16 -46 -16 -69q0 -19 17.5 -34t43 -26.5t51 -26t43 -41.5t17.5 -65q0 -78 -66.5 -139t-161.5 -61q-51 0 -97.5 18.5t-67.5 36.5l-21 18l31 66q8 -6 21.5 -14.5t51 -22.5t70.5 -14q47 0 77 20.5t30 52.5q0 23 -24.5 42.5t-54.5 32t-54.5 34.5t-24.5 49z" />
    <glyph glyph-name="Tcaron" unicode="&#x164;" horiz-adv-x="1320" 
d="M418 -6v65q69 8 108 43.5t39 90.5v1093h-203q-109 0 -166 -49.5t-114 -204.5h-70l64 346q53 -12 137 -12h958q37 0 74 3t55 6l19 3l-64 -346h-69q5 104 -17.5 160t-68.5 75t-131 19h-203l-21 -20v-1073q0 -27 -2.5 -55t-4.5 -42l-3 -14l205 -19l-8 -57zM334 1737l55 47
l262 -166h8l263 166l55 -47l-266 -267h-109z" />
    <glyph glyph-name="tcaron" unicode="&#x165;" horiz-adv-x="710" 
d="M178 244v440l6 133h-135v62q90 18 139 63l76 223l92 -2l6 -6q-18 -60 -18 -205v-30h320l-15 -99h-282l-21 -20v-520q0 -94 32 -139.5t111 -45.5q41 0 87 11t72 21l26 11l26 -39l-13.5 -13.5t-38.5 -30.5t-62 -39t-81 -30.5t-99 -13.5q-228 0 -228 269zM489 1124l52 385
l168 21v-43l-148 -363h-72z" />
    <glyph glyph-name="Tbar" unicode="&#x166;" horiz-adv-x="1320" 
d="M248 664v86h317v536h-203q-109 0 -166 -49.5t-114 -204.5h-70l64 346q53 -12 137 -12h958q37 0 74 3t55 6l19 3l-64 -346h-69q5 104 -17.5 160t-68.5 75t-131 19h-203l-21 -20v-516h312v-86h-312v-471q0 -27 -2.5 -55t-4.5 -42l-3 -14l205 -19l-8 -57l-514 -12v65
q69 8 108 43.5t39 90.5v471h-317z" />
    <glyph glyph-name="tbar" unicode="&#x167;" horiz-adv-x="710" 
d="M49 504v86h129v94l6 133h-135v62q90 18 139 63l76 223l92 -2l6 -6q-18 -60 -18 -205v-30h320l-15 -99h-282l-21 -20v-213h305v-86h-305v-221q0 -94 32 -139.5t111 -45.5q41 0 87 11t72 21l26 11l26 -39l-13.5 -13.5t-38.5 -30.5t-62 -39t-81 -30.5t-99 -13.5
q-228 0 -228 269v260h-129z" />
    <glyph glyph-name="Utilde" unicode="&#x168;" horiz-adv-x="1505" 
d="M203 481v684q0 31 -0.5 44t-5 31t-13 25.5t-26.5 18t-43 17t-64 14.5v51h160q82 0 139 2t74 4l16 2l11 -8q-8 -9 -19 -26.5t-30 -81.5t-19 -140v-620q0 -108 34.5 -192.5t93 -135t130 -76.5t150.5 -26t152.5 26.5t133.5 76.5t96.5 131t36.5 181v672q0 28 -1 42t-5.5 33.5
t-15 29.5t-28.5 21.5t-46.5 17.5t-69.5 10v57h398l10 -29q-6 -2 -15.5 -5.5t-33.5 -19.5t-43 -37t-34 -60t-15 -87v-639q0 -122 -45 -220.5t-123 -162t-180 -97.5t-218 -34q-84 0 -160 16t-147 54.5t-122.5 95t-82 144t-30.5 196.5zM483 1501l-69 15q0 5 1 13t6.5 32t13 46
t23.5 48.5t36 46t51 32.5t69 13q42 0 93 -19t90 -41.5t83.5 -41.5t75.5 -19q41 0 69 30t36 60l8 31l72 -6q0 -5 -1 -13.5t-6.5 -33.5t-13.5 -47.5t-25 -50.5t-39 -48t-57 -33.5t-77 -13.5q-47 0 -96.5 19t-83.5 41.5t-73.5 41.5t-70.5 19q-24 0 -44.5 -12.5t-33 -30
t-21.5 -35.5t-13 -30z" />
    <glyph glyph-name="utilde" unicode="&#x169;" horiz-adv-x="1144" 
d="M176 250v434q0 32 -0.5 49t-4 37.5t-9.5 30t-18 16t-29 6.5h-72v58q88 16 166 34.5t111 29.5l34 11l8 -6q-18 -57 -18 -215v-438q0 -110 35.5 -153.5t103.5 -43.5q71 0 151 39.5t146 106.5v438q0 32 -0.5 49t-4 37.5t-9.5 30t-18 16t-29 6.5h-68v58q88 16 164.5 34.5
t109.5 29.5l33 11l9 -6q-19 -57 -19 -215v-540q0 -29 3.5 -49.5t12 -33t16 -20t24 -10.5t27 -3.5t32.5 -0.5h57l-6 -55q-99 -10 -183 -20.5t-119 -15.5l-34 -5l-8 6q18 59 18 110v107q-65 -95 -163.5 -162.5t-216.5 -67.5q-232 0 -232 275zM264 1151q0 5 -0.5 14t2 35
t7 49.5t17 52.5t30.5 50t48.5 35t69.5 14q38 0 70.5 -15.5t54.5 -37.5t42 -44t43 -37.5t48 -15.5q38 0 59.5 34.5t24.5 68.5l2 35h76q-2 -1 0 -14.5t-1.5 -37t-7.5 -50.5t-17.5 -55t-31.5 -50.5t-49.5 -37t-70.5 -14.5q-38 0 -70.5 15.5t-54 37.5t-41 44t-42.5 37.5
t-48 15.5q-37 0 -58 -32t-24 -64l-2 -33h-76z" />
    <glyph glyph-name="Umacron" unicode="&#x16a;" horiz-adv-x="1505" 
d="M203 481v684q0 31 -0.5 44t-5 31t-13 25.5t-26.5 18t-43 17t-64 14.5v51h160q82 0 139 2t74 4l16 2l11 -8q-8 -9 -19 -26.5t-30 -81.5t-19 -140v-620q0 -108 34.5 -192.5t93 -135t130 -76.5t150.5 -26t152.5 26.5t133.5 76.5t96.5 131t36.5 181v672q0 28 -1 42t-5.5 33.5
t-15 29.5t-28.5 21.5t-46.5 17.5t-69.5 10v57h398l10 -29q-6 -2 -15.5 -5.5t-33.5 -19.5t-43 -37t-34 -60t-15 -87v-639q0 -122 -45 -220.5t-123 -162t-180 -97.5t-218 -34q-84 0 -160 16t-147 54.5t-122.5 95t-82 144t-30.5 196.5zM512 1567v121h528v-121h-528z" />
    <glyph glyph-name="umacron" unicode="&#x16b;" horiz-adv-x="1144" 
d="M176 250v434q0 32 -0.5 49t-4 37.5t-9.5 30t-18 16t-29 6.5h-72v58q88 16 166 34.5t111 29.5l34 11l8 -6q-18 -57 -18 -215v-438q0 -110 35.5 -153.5t103.5 -43.5q71 0 151 39.5t146 106.5v438q0 32 -0.5 49t-4 37.5t-9.5 30t-18 16t-29 6.5h-68v58q88 16 164.5 34.5
t109.5 29.5l33 11l9 -6q-19 -57 -19 -215v-540q0 -29 3.5 -49.5t12 -33t16 -20t24 -10.5t27 -3.5t32.5 -0.5h57l-6 -55q-99 -10 -183 -20.5t-119 -15.5l-34 -5l-8 6q18 59 18 110v107q-65 -95 -163.5 -162.5t-216.5 -67.5q-232 0 -232 275zM328 1206v121h467v-121h-467z" />
    <glyph glyph-name="Ubreve" unicode="&#x16c;" horiz-adv-x="1505" 
d="M203 481v684q0 31 -0.5 44t-5 31t-13 25.5t-26.5 18t-43 17t-64 14.5v51h160q82 0 139 2t74 4l16 2l11 -8q-8 -9 -19 -26.5t-30 -81.5t-19 -140v-620q0 -108 34.5 -192.5t93 -135t130 -76.5t150.5 -26t152.5 26.5t133.5 76.5t96.5 131t36.5 181v672q0 28 -1 42t-5.5 33.5
t-15 29.5t-28.5 21.5t-46.5 17.5t-69.5 10v57h398l10 -29q-6 -2 -15.5 -5.5t-33.5 -19.5t-43 -37t-34 -60t-15 -87v-639q0 -122 -45 -220.5t-123 -162t-180 -97.5t-218 -34q-84 0 -160 16t-147 54.5t-122.5 95t-82 144t-30.5 196.5zM776 1475q-128 0 -208.5 62.5
t-80.5 164.5q0 32 13 76h71q-6 -48 11 -84t49.5 -55t68.5 -28t76 -9q39 0 73.5 8t66.5 26.5t49.5 55t13.5 86.5h74q10 -34 10 -76q0 -102 -80 -164.5t-207 -62.5z" />
    <glyph glyph-name="ubreve" unicode="&#x16d;" horiz-adv-x="1144" 
d="M176 250v434q0 32 -0.5 49t-4 37.5t-9.5 30t-18 16t-29 6.5h-72v58q88 16 166 34.5t111 29.5l34 11l8 -6q-18 -57 -18 -215v-438q0 -110 35.5 -153.5t103.5 -43.5q71 0 151 39.5t146 106.5v438q0 32 -0.5 49t-4 37.5t-9.5 30t-18 16t-29 6.5h-68v58q88 16 164.5 34.5
t109.5 29.5l33 11l9 -6q-19 -57 -19 -215v-540q0 -29 3.5 -49.5t12 -33t16 -20t24 -10.5t27 -3.5t32.5 -0.5h57l-6 -55q-99 -10 -183 -20.5t-119 -15.5l-34 -5l-8 6q18 59 18 110v107q-65 -95 -163.5 -162.5t-216.5 -67.5q-232 0 -232 275zM561 1108q-117 0 -191.5 68
t-74.5 174q0 41 10 75h72v-18q0 -18 2.5 -36t13.5 -44.5t29.5 -45t54.5 -32.5t84 -14t83.5 14t54 33t30 44.5t14 44t2.5 36.5v18h72q10 -45 10 -75q0 -106 -74.5 -174t-191.5 -68z" />
    <glyph glyph-name="Uring" unicode="&#x16e;" horiz-adv-x="1505" 
d="M203 481v684q0 31 -0.5 44t-5 31t-13 25.5t-26.5 18t-43 17t-64 14.5v51h160q82 0 139 2t74 4l16 2l11 -8q-8 -9 -19 -26.5t-30 -81.5t-19 -140v-620q0 -108 34.5 -192.5t93 -135t130 -76.5t150.5 -26t152.5 26.5t133.5 76.5t96.5 131t36.5 181v672q0 28 -1 42t-5.5 33.5
t-15 29.5t-28.5 21.5t-46.5 17.5t-69.5 10v57h398l10 -29q-6 -2 -15.5 -5.5t-33.5 -19.5t-43 -37t-34 -60t-15 -87v-639q0 -122 -45 -220.5t-123 -162t-180 -97.5t-218 -34q-84 0 -160 16t-147 54.5t-122.5 95t-82 144t-30.5 196.5zM776 1405q-92 0 -142 51.5t-50 120.5
t49.5 117.5t142.5 48.5t143 -49t50 -117q0 -69 -50.5 -120.5t-142.5 -51.5zM776 1475q45 0 71.5 29.5t26.5 70.5q0 40 -25 69t-73 29q-49 0 -72.5 -28.5t-23.5 -69.5q0 -42 24.5 -71t71.5 -29z" />
    <glyph glyph-name="uring" unicode="&#x16f;" horiz-adv-x="1144" 
d="M176 250v434q0 32 -0.5 49t-4 37.5t-9.5 30t-18 16t-29 6.5h-72v58q88 16 166 34.5t111 29.5l34 11l8 -6q-18 -57 -18 -215v-438q0 -110 35.5 -153.5t103.5 -43.5q71 0 151 39.5t146 106.5v438q0 32 -0.5 49t-4 37.5t-9.5 30t-18 16t-29 6.5h-68v58q88 16 164.5 34.5
t109.5 29.5l33 11l9 -6q-19 -57 -19 -215v-540q0 -29 3.5 -49.5t12 -33t16 -20t24 -10.5t27 -3.5t32.5 -0.5h57l-6 -55q-99 -10 -183 -20.5t-119 -15.5l-34 -5l-8 6q18 59 18 110v107q-65 -95 -163.5 -162.5t-216.5 -67.5q-232 0 -232 275zM561 1098q-92 0 -142 51.5
t-50 120.5t49.5 117.5t142.5 48.5t143 -49t50 -117q0 -69 -50.5 -120.5t-142.5 -51.5zM561 1167q45 0 71.5 30t26.5 71q0 40 -25 69t-73 29q-49 0 -72.5 -28.5t-23.5 -69.5q0 -42 24.5 -71.5t71.5 -29.5z" />
    <glyph glyph-name="Uhungarumlaut" unicode="&#x170;" horiz-adv-x="1505" 
d="M203 481v684q0 31 -0.5 44t-5 31t-13 25.5t-26.5 18t-43 17t-64 14.5v51h160q82 0 139 2t74 4l16 2l11 -8q-8 -9 -19 -26.5t-30 -81.5t-19 -140v-620q0 -108 34.5 -192.5t93 -135t130 -76.5t150.5 -26t152.5 26.5t133.5 76.5t96.5 131t36.5 181v672q0 28 -1 42t-5.5 33.5
t-15 29.5t-28.5 21.5t-46.5 17.5t-69.5 10v57h398l10 -29q-6 -2 -15.5 -5.5t-33.5 -19.5t-43 -37t-34 -60t-15 -87v-639q0 -122 -45 -220.5t-123 -162t-180 -97.5t-218 -34q-84 0 -160 16t-147 54.5t-122.5 95t-82 144t-30.5 196.5zM590 1470l-62 39l127 263l199 18v-55z
M932 1470l-62 39l148 263l199 18v-55z" />
    <glyph glyph-name="uhungarumlaut" unicode="&#x171;" horiz-adv-x="1144" 
d="M176 250v434q0 32 -0.5 49t-4 37.5t-9.5 30t-18 16t-29 6.5h-72v58q88 16 166 34.5t111 29.5l34 11l8 -6q-18 -57 -18 -215v-438q0 -110 35.5 -153.5t103.5 -43.5q71 0 151 39.5t146 106.5v438q0 32 -0.5 49t-4 37.5t-9.5 30t-18 16t-29 6.5h-68v58q88 16 164.5 34.5
t109.5 29.5l33 11l9 -6q-19 -57 -19 -215v-540q0 -29 3.5 -49.5t12 -33t16 -20t24 -10.5t27 -3.5t32.5 -0.5h57l-6 -55q-99 -10 -183 -20.5t-119 -15.5l-34 -5l-8 6q18 59 18 110v107q-65 -95 -163.5 -162.5t-216.5 -67.5q-232 0 -232 275zM418 1034l-64 35l160 350l160 19
v-56zM709 1034l-64 35l160 350l160 19v-56z" />
    <glyph glyph-name="Uogonek" unicode="&#x172;" horiz-adv-x="1509" 
d="M203 481v684q0 31 -0.5 44t-5 31t-13 25.5t-26.5 18t-43 17t-64 14.5v51h160q82 0 139 2t74 4l16 2l11 -8q-8 -9 -19 -26.5t-30 -81.5t-19 -140v-620q0 -108 34.5 -192.5t93 -135t130 -76.5t150.5 -26t152.5 26.5t133.5 76.5t96.5 131t36.5 181v672q0 28 -1 42t-5.5 33.5
t-15 29.5t-28.5 21.5t-46.5 17.5t-69.5 10v57h398l10 -29q-6 -2 -15.5 -5.5t-33.5 -19.5t-43 -37t-34 -60t-15 -87v-639q0 -155 -70 -268.5t-192 -175.5h2q-19 -13 -43.5 -33.5t-58 -54.5t-60 -69t-45.5 -78.5t-19 -81.5q0 -68 40.5 -99.5t97.5 -31.5l45 4l14 -52
q-90 -34 -164 -34q-90 0 -144.5 49t-54.5 123q0 37 13 70.5t45 72t58 63.5t79 74q15 14 23 21q-70 -13 -132 -13q-84 0 -160 16t-147 54.5t-122.5 95t-82 144t-30.5 196.5z" />
    <glyph glyph-name="uogonek" unicode="&#x173;" horiz-adv-x="1144" 
d="M176 250v434q0 32 -0.5 49t-4 37.5t-9.5 30t-18 16t-29 6.5h-72v58q88 16 166 34.5t111 29.5l34 11l8 -6q-18 -57 -18 -215v-438q0 -110 35.5 -153.5t103.5 -43.5q71 0 151 39.5t146 106.5v438q0 32 -0.5 49t-4 37.5t-9.5 30t-18 16t-29 6.5h-68v58q88 16 164.5 34.5
t109.5 29.5l33 11l9 -6q-19 -57 -19 -215v-540q0 -29 3.5 -49.5t12 -33t16 -20t24 -10.5t27 -3.5t32.5 -0.5h57l-6 -55q-22 -2 -207 -23q-61 -22 -126.5 -111t-65.5 -165q0 -63 41 -95t98 -32l43 4l14 -52q-90 -34 -163 -34q-90 0 -144.5 49t-54.5 123q0 86 91 183
q33 34 132 124q16 40 16 104v107q-65 -95 -163.5 -162.5t-216.5 -67.5q-232 0 -232 275z" />
    <glyph glyph-name="Wcircumflex" unicode="&#x174;" horiz-adv-x="1968" 
d="M1352 6l-377 973l-316 -997l-79 24l-471 1196q-16 39 -46 67.5t-53 36.5l-22 9v51h125q57 0 110 2t77 4l24 2l8 -8q-19 -40 -24 -90t11 -98l295 -791q19 -53 39 -131l271 852l-35 94q-16 39 -46 67.5t-53 36.5l-22 9v51h125q57 0 110 2t77 4l24 2l8 -8
q-19 -40 -23.5 -90.5t11.5 -97.5l289 -795q19 -58 36 -125l279 879q24 72 2 113.5t-100 64.5v51h311l8 -29q-3 -2 -8 -5.5t-21 -19.5t-31 -38t-35.5 -63.5t-37.5 -92.5l-360 -1136zM653 1518l269 266h108l266 -266l-55 -48l-262 166h-8l-262 -166z" />
    <glyph glyph-name="wcircumflex" unicode="&#x175;" horiz-adv-x="1495" 
d="M410 0l-293 752q-18 46 -46.5 75.5t-47.5 36.5l-19 6v52h94q57 0 107.5 2t72.5 4l21 2l8 -8q-2 -4 -4 -10.5t-7 -27t-6.5 -42t2 -51.5t13.5 -58l160 -432l33 -111l190 453q21 57 12 94l-4 15q-17 46 -45 75.5t-47 36.5l-20 6v52h94q57 0 107.5 2t72.5 4l21 2l8 -8
q-2 -4 -4 -10.5t-7 -27t-6.5 -42t2 -51.5t13.5 -58l157 -424q17 -50 35 -116l223 530q25 58 -6 95t-96 52v52h275l10 -33q-4 -2 -11 -7.5t-26.5 -33t-36.5 -68.5l-344 -807l-76 27l-235 602l-269 -629zM494 1069l237 361h80l236 -361l-62 -39l-215 238l-215 -238z" />
    <glyph glyph-name="Ycircumflex" unicode="&#x176;" horiz-adv-x="1198" 
d="M362 -6v65q68 8 108 41.5t40 85.5v418l-393 621q-22 35 -49 57.5t-44 27.5l-16 5v51h98q57 0 109.5 2t76.5 4l23 2l9 -8q-4 -9 -9.5 -23.5t-5.5 -53.5t19 -70l254 -410q26 -43 59 -115l305 494q15 28 16.5 53t-23.5 45.5t-75 28.5v51h334l8 -29q-9 -3 -24 -10t-52.5 -39
t-64.5 -76l-375 -604v-422q0 -26 -2.5 -52t-5.5 -39l-2 -13l184 -19l-8 -57zM289 1518l268 266h109l266 -266l-55 -48l-263 166h-8l-262 -166z" />
    <glyph glyph-name="ycircumflex" unicode="&#x177;" horiz-adv-x="944" 
d="M145 -315q77 0 132 42.5t85 110.5l66 154q-27 80 -49 133l-262 627q-19 45 -48 74.5t-48 36.5l-19 7v52h96q57 0 109.5 2t76.5 4l23 2l8 -8q-19 -36 -19 -92t17 -97l166 -416q28 -83 39 -122l232 528q24 56 -11 92.5t-102 54.5v52h285l10 -33q-4 -2 -11 -8t-27 -34
t-36 -67l-354 -805q-6 -14 -23.5 -54.5t-30 -70t-35 -74.5t-42.5 -77.5t-48.5 -69.5t-56.5 -60t-62.5 -38.5t-70.5 -15.5q-42 0 -66 25t-24 61q0 35 24.5 59.5t75.5 24.5zM217 1069l238 361h80l235 -361l-61 -39l-215 238l-215 -238z" />
    <glyph glyph-name="Ydieresis" unicode="&#x178;" horiz-adv-x="1198" 
d="M362 -6v65q68 8 108 41.5t40 85.5v418l-393 621q-22 35 -49 57.5t-44 27.5l-16 5v51h98q57 0 109.5 2t76.5 4l23 2l9 -8q-4 -9 -9.5 -23.5t-5.5 -53.5t19 -70l254 -410q26 -43 59 -115l305 494q15 28 16.5 53t-23.5 45.5t-75 28.5v51h334l8 -29q-9 -3 -24 -10t-52.5 -39
t-64.5 -76l-375 -604v-422q0 -26 -2.5 -52t-5.5 -39l-2 -13l184 -19l-8 -57zM735 1624q0 44 33.5 77.5t77.5 33.5t77 -33.5t33 -77.5t-33 -77.5t-77 -33.5t-77.5 33.5t-33.5 77.5zM262 1624q0 44 33.5 77.5t77.5 33.5t77 -33.5t33 -77.5t-33 -77.5t-77 -33.5t-77.5 33.5
t-33.5 77.5z" />
    <glyph glyph-name="Zacute" unicode="&#x179;" horiz-adv-x="1249" 
d="M70 -8l-13 74q43 45 113 145l684 975q41 55 80 100h-451q-127 0 -185 -48.5t-116 -205.5h-69l51 334h840q36 0 68.5 2t47.5 4l15 2l8 -74q-29 -41 -103 -145l-678 -975q-36 -52 -81 -100h516q38 0 67.5 5t53 12.5t44.5 27t36 36.5t35 55t34.5 69t40.5 90h70l-84 -375
h-893q-36 0 -68.5 -2t-47.5 -4zM477 1548l363 215h10l68 -106v-51l-414 -125z" />
    <glyph glyph-name="zacute" unicode="&#x17a;" horiz-adv-x="899" 
d="M82 -8l-16 53q22 20 73 98l398 613q20 32 73 98h-272q-44 0 -80.5 -18.5t-59.5 -48t-36.5 -55.5t-20.5 -52h-59l37 242h538q39 0 74 2t51 4l15 2l16 -53q-9 -5 -70 -99l-387 -606q-22 -36 -75 -102h249q56 0 101.5 21t71 51t42.5 60t23 51l6 21h60l-56 -274h-557
q-39 0 -74 -2t-50 -4zM463 1034l-64 35l174 350l179 19v-56z" />
    <glyph glyph-name="Zdotaccent" unicode="&#x17b;" horiz-adv-x="1249" 
d="M70 -8l-13 74q43 45 113 145l684 975q41 55 80 100h-451q-127 0 -185 -48.5t-116 -205.5h-69l51 334h840q36 0 68.5 2t47.5 4l15 2l8 -74q-29 -41 -103 -145l-678 -975q-36 -52 -81 -100h516q38 0 67.5 5t53 12.5t44.5 27t36 36.5t35 55t34.5 69t40.5 90h70l-84 -375
h-893q-36 0 -68.5 -2t-47.5 -4zM653 1516q-44 0 -77 33t-33 77t33 77.5t77 33.5t77.5 -33.5t33.5 -77.5t-33.5 -77t-77.5 -33z" />
    <glyph glyph-name="zdotaccent" unicode="&#x17c;" horiz-adv-x="899" 
d="M82 -8l-16 53q22 20 73 98l398 613q20 32 73 98h-272q-44 0 -80.5 -18.5t-59.5 -48t-36.5 -55.5t-20.5 -52h-59l37 242h538q39 0 74 2t51 4l15 2l16 -53q-9 -5 -70 -99l-387 -606q-22 -36 -75 -102h249q56 0 101.5 21t71 51t42.5 60t23 51l6 21h60l-56 -274h-557
q-39 0 -74 -2t-50 -4zM481 1155q-44 0 -77 33.5t-33 77.5t33 77t77 33t77.5 -33t33.5 -77t-33.5 -77.5t-77.5 -33.5z" />
    <glyph glyph-name="Zcaron" unicode="&#x17d;" horiz-adv-x="1249" 
d="M70 -8l-13 74q43 45 113 145l684 975q41 55 80 100h-451q-127 0 -185 -48.5t-116 -205.5h-69l51 334h840q36 0 68.5 2t47.5 4l15 2l8 -74q-29 -41 -103 -145l-678 -975q-36 -52 -81 -100h516q38 0 67.5 5t53 12.5t44.5 27t36 36.5t35 55t34.5 69t40.5 90h70l-84 -375
h-893q-36 0 -68.5 -2t-47.5 -4zM332 1737l55 47l262 -166h8l263 166l55 -47l-266 -267h-109z" />
    <glyph glyph-name="zcaron" unicode="&#x17e;" horiz-adv-x="899" 
d="M82 -8l-16 53q22 20 73 98l398 613q20 32 73 98h-272q-44 0 -80.5 -18.5t-59.5 -48t-36.5 -55.5t-20.5 -52h-59l37 242h538q39 0 74 2t51 4l15 2l16 -53q-9 -5 -70 -99l-387 -606q-22 -36 -75 -102h249q56 0 101.5 21t71 51t42.5 60t23 51l6 21h60l-56 -274h-557
q-39 0 -74 -2t-50 -4zM442 1071l-237 340l61 39l215 -221l215 221l62 -39l-236 -340h-80z" />
    <glyph glyph-name="longs" unicode="&#x17f;" horiz-adv-x="585" 
d="M76 -6v59q127 14 127 133v631h-129v62l129 45v55q0 233 111 372.5t307 139.5q85 0 152 -31t67 -90q0 -31 -23.5 -54.5t-62.5 -23.5q-24 0 -51.5 16.5t-49.5 36t-57 36t-72 16.5q-79 0 -116 -84t-37 -279v-848q0 -27 -2.5 -54.5t-5.5 -41.5l-3 -14l215 -19l-8 -51z" />
    <glyph glyph-name="florin" unicode="&#x192;" horiz-adv-x="931" 
d="M96 621v81h279q53 373 152 531t284 158q168 0 168 -93q0 -35 -25 -56t-59 -21q-51 0 -115 31.5t-94 31.5q-25 0 -39 -14t-31.5 -71t-34.5 -175t-40 -322h315l-29 -81h-295q-4 -30 -8 -78q-23 -216 -52 -371.5t-67 -269t-88.5 -180.5t-113.5 -98.5t-146 -31.5
q-168 0 -168 93q0 35 25 56t59 21q51 0 114.5 -31.5t94.5 -31.5q26 0 41.5 19.5t36 101.5t43 253.5t53.5 469.5l9 78h-269z" />
    <glyph glyph-name="Aringacute" unicode="&#x1fa;" horiz-adv-x="1275" 
d="M-27 0v59q106 10 138 93l464 1159q-63 17 -96 60.5t-33 98.5q0 66 50.5 114t142.5 48t142 -48t50 -114q0 -55 -32 -97.5t-94 -59.5l430 -1098q20 -51 37.5 -82t37.5 -46.5t36 -21.5t44 -10l-8 -55h-88l-311 -6v69q50 2 76 20t10 60l-125 328h-490l-26 -20l-142 -369
l174 -25l-8 -57h-379zM635 1024q-26 66 -41 125l-227 -592h444zM418 1710l362 215h11l67 -106v-52l-414 -125zM639 1374q45 0 71.5 28t26.5 66q0 39 -25 67t-73 28q-49 0 -72.5 -27.5t-23.5 -67.5q0 -39 24.5 -66.5t71.5 -27.5z" />
    <glyph glyph-name="aringacute" unicode="&#x1fb;" horiz-adv-x="942" 
d="M57 182q0 57 27.5 107t72 86t105 64.5t123 46.5t129.5 28l70 10q6 133 -9 219q-24 131 -129 131q-39 0 -75.5 -20t-61 -49t-43.5 -58t-28 -49l-9 -20h-65l-35 153q11 8 30.5 21t83.5 40.5t132 41.5q-49 21 -75 63t-26 90q0 68 50 117t143 49t142.5 -48.5t49.5 -117.5
q0 -43 -21.5 -82t-62.5 -63q100 -13 138.5 -79t38.5 -210v-471q0 -53 11 -74.5t44 -21.5q24 0 52.5 10t44.5 20l16 11l26 -43q-4 -4 -11 -11.5t-30 -26.5t-47.5 -33t-59.5 -26t-69 -12q-62 0 -100.5 37t-38.5 109v49q-4 -8 -13 -21t-39 -46.5t-64 -59.5t-89.5 -47
t-114.5 -21q-98 0 -155.5 60t-57.5 147zM352 92q87 0 232 123v242l-64 -11q-49 -8 -94.5 -23t-89.5 -41.5t-71 -68.5t-27 -94q0 -59 33 -93t81 -34zM274 1272l-26 67l362 215h11l67 -106v-51zM467 985q45 0 71.5 29.5t26.5 70.5t-25 70t-73 29q-49 0 -72.5 -29t-23.5 -70
q0 -42 24.5 -71t71.5 -29z" />
    <glyph glyph-name="AEacute" unicode="&#x1fc;" horiz-adv-x="1802" 
d="M-39 0v59q40 4 69 20.5t40.5 31.5t27.5 41l582 1046q27 42 6.5 69t-104.5 48v51h956q37 0 74 2t56 4l18 2l-64 -342h-70q4 79 -6.5 128.5t-39.5 77.5t-69.5 38t-105.5 10h-268l-21 -20v-553h379l17 137l75 12v-360h-96v131h-354l-21 -21v-417q0 -27 -2.5 -56t-5.5 -44
l-2 -15h322q46 0 76.5 3t58 16t44.5 26.5t39.5 48t38.5 66.5t46 94h69l-75 -334h-639l-297 -6v65q70 8 108.5 40t38.5 87v447h-370l-31 -21l-293 -530l174 -25l-8 -57h-373zM780 1188l-264 -475h346v561q-44 -17 -82 -86zM993 1548l363 215h10l68 -106v-51l-414 -125z" />
    <glyph glyph-name="aeacute" unicode="&#x1fd;" horiz-adv-x="1452" 
d="M53 186q0 92 72.5 165.5t192 120t280.5 71.5v51q0 65 -5 110t-18.5 86.5t-42 62.5t-71.5 21q-30 0 -58 -11t-49 -28t-40 -38t-31.5 -42t-22 -38t-14.5 -28l-4 -11h-66l-35 153q6 5 17.5 12.5t49.5 27.5t79 35t104 27.5t127 12.5q100 0 150 -32.5t71 -104.5
q110 137 283 137q92 0 168.5 -37t126.5 -114t53 -183q-59 -18 -94 -24l-520 -92q1 -60 12.5 -114t37 -104t63 -86t93.5 -57.5t125 -21.5q47 0 92 10t75 24.5t54 29t35 24.5l11 10l22 -43q-5 -8 -14 -21t-43 -46t-73 -58.5t-103 -46.5t-135 -21q-133 0 -228.5 68.5
t-134.5 198.5q-39 -113 -132 -190t-214 -77q-115 0 -180.5 60t-65.5 151zM350 92q37 0 77.5 17.5t79.5 51.5t64 95t25 139v74q-53 -9 -93 -18.5t-94.5 -30t-89.5 -45.5t-60.5 -65.5t-25.5 -90.5q0 -58 31 -92.5t86 -34.5zM991 868q-97 0 -158.5 -85.5t-74.5 -211.5l422 74
q-1 9 -3 24t-14 53.5t-30 68t-55.5 53.5t-86.5 24zM743 1034l-63 35l174 350l178 19v-56z" />
    <glyph glyph-name="Oslashacute" unicode="&#x1fe;" horiz-adv-x="1628" 
d="M92 666q0 111 31 217t93.5 198t150 161t208.5 109t261 40q210 0 381 -95l100 131h115l-140 -182q117 -89 180.5 -222.5t63.5 -291.5q0 -117 -34 -228.5t-100.5 -206.5t-156.5 -167t-209 -113t-252 -41q-216 0 -378 103l-107 -139h-117l148 194q-114 97 -176 236t-62 297z
M1333 680q0 117 -36.5 230.5t-104.5 201.5l-694 -915q140 -140 327 -140q94 0 176.5 36t142 97.5t103 141t65 169t21.5 179.5zM295 719q0 -117 36 -235t103 -214l694 910q-142 129 -327 129q-116 0 -213 -49.5t-160 -132.5t-98 -188.5t-35 -219.5zM637 1548l362 215h11
l67 -106v-51l-413 -125z" />
    <glyph glyph-name="oslashacute" unicode="&#x1ff;" horiz-adv-x="1089" 
d="M102 -61l113 149q-137 128 -137 352q0 75 16 145t53.5 136.5t91.5 115.5t136.5 79t183.5 30q145 0 248 -61l74 98h106l-110 -147q135 -123 135 -338q0 -78 -18.5 -152t-58.5 -141.5t-96 -118.5t-137 -81t-176 -30q-135 0 -243 62l-72 -98h-109zM266 487q0 -153 49 -262
l412 553q-76 99 -192 99q-90 0 -152.5 -57.5t-89.5 -143.5t-27 -189zM823 440q0 140 -49 256l-412 -553q72 -98 193 -98q126 0 197 112t71 283zM526 1034l-63 35l174 350l178 19v-56z" />
    <glyph glyph-name="Scommaaccent" unicode="&#x218;" horiz-adv-x="1036" 
d="M90 186q0 35 47 183h70q0 -72 18 -128.5t46.5 -91t68 -57t79.5 -31t85 -8.5q111 0 185.5 52.5t74.5 162.5q0 72 -35.5 132t-92 103.5t-124.5 84t-136.5 83t-125 91t-92 118.5t-35.5 154q0 159 118.5 258t338.5 99q65 0 134.5 -8t136 -19.5t67.5 -11.5l-64 -320h-70
q16 121 -44.5 201t-184.5 80q-111 0 -182.5 -53.5t-71.5 -159.5q0 -72 35.5 -131t92 -100.5t124.5 -80t136.5 -80.5t125 -90t92 -120.5t35.5 -161.5t-36.5 -159.5t-100 -113.5t-145 -65.5t-175.5 -22.5q-70 0 -137.5 12.5t-126.5 36.5t-95 66t-36 96zM414 -135l22 47h154
q5 -8 13.5 -21.5t22 -52.5t13.5 -74q0 -80 -65 -150t-150 -112l-41 60q60 35 88.5 67.5t28.5 69.5q0 62 -86 166z" />
    <glyph glyph-name="scommaaccent" unicode="&#x219;" horiz-adv-x="790" 
d="M80 115q0 18 6.5 57t13.5 68l6 30h62q4 -62 26.5 -108t57 -70.5t71 -35.5t76.5 -11q76 0 123 37.5t47 101.5q0 44 -26 80.5t-67 63t-91 52t-100.5 53.5t-91.5 61t-67 82.5t-26 109.5q0 117 87.5 188.5t246.5 71.5q55 0 119 -9t101 -19l36 -9l-41 -211h-63q0 48 -15.5 83
t-36.5 53t-49.5 28.5t-47 12.5t-36.5 2q-77 0 -115 -39t-38 -93q0 -44 26 -78.5t67 -59.5t90.5 -48t99.5 -50.5t91 -61t67 -85.5t26 -118q0 -126 -90 -197.5t-238 -71.5q-42 0 -88.5 6t-99 20t-86 43.5t-33.5 70.5zM303 -135l23 47h153q5 -8 13.5 -21.5t22 -52.5t13.5 -74
q0 -80 -65 -150t-150 -112l-41 60q60 35 88.5 67.5t28.5 69.5q0 62 -86 166z" />
    <glyph glyph-name="uni021A" unicode="&#x21a;" horiz-adv-x="1320" 
d="M418 -6v65q69 8 108 43.5t39 90.5v1093h-203q-109 0 -166 -49.5t-114 -204.5h-70l64 346q53 -12 137 -12h958q37 0 74 3t55 6l19 3l-64 -346h-69q5 104 -17.5 160t-68.5 75t-131 19h-203l-21 -20v-1073q0 -27 -2.5 -55t-4.5 -42l-3 -14l205 -19l-8 -57zM561 -135l23 47
h153q5 -8 13.5 -21.5t22 -52.5t13.5 -74q0 -80 -65 -150t-150 -112l-41 60q60 35 88.5 67.5t28.5 69.5q0 62 -86 166z" />
    <glyph glyph-name="uni021B" unicode="&#x21b;" horiz-adv-x="710" 
d="M178 244v440l6 133h-135v62q90 18 139 63l76 223l92 -2l6 -6q-18 -60 -18 -205v-30h320l-15 -99h-282l-21 -20v-520q0 -94 32 -139.5t111 -45.5q41 0 87 11t72 21l26 11l26 -39l-13.5 -13.5t-38.5 -30.5t-62 -39t-81 -30.5t-99 -13.5q-228 0 -228 269zM311 -135l23 47
h153q6 -8 14 -21.5t22 -52.5t14 -74q0 -80 -65 -150t-150 -112l-41 60q60 34 88 66.5t28 70.5q0 62 -86 166z" />
    <glyph glyph-name="circumflex" unicode="&#x2c6;" 
d="M236 1069l237 361h80l235 -361l-61 -39l-215 238l-215 -238z" />
    <glyph glyph-name="caron" unicode="&#x2c7;" 
d="M473 1071l-237 340l61 39l215 -221l215 221l61 -39l-235 -340h-80z" />
    <glyph glyph-name="breve" unicode="&#x2d8;" 
d="M512 1108q-117 0 -191.5 68t-74.5 174q0 41 10 75h72v-18q0 -18 2.5 -36t13.5 -44.5t29.5 -45t54.5 -32.5t84 -14t83.5 14t54 33t30 44.5t14 44t2.5 36.5v18h72q10 -45 10 -75q0 -106 -74.5 -174t-191.5 -68z" />
    <glyph glyph-name="dotaccent" unicode="&#x2d9;" 
d="M512 1155q-44 0 -77.5 33.5t-33.5 77.5t33.5 77t77.5 33t77.5 -33t33.5 -77t-33.5 -77.5t-77.5 -33.5z" />
    <glyph glyph-name="ring" unicode="&#x2da;" 
d="M512 1098q-92 0 -142.5 51.5t-50.5 120.5q0 68 50 117t143 49t143 -49t50 -117q0 -69 -50.5 -120.5t-142.5 -51.5zM512 1167q45 0 71.5 30t26.5 71q0 40 -25 69t-73 29q-49 0 -72.5 -28.5t-23.5 -69.5q0 -42 24.5 -71.5t71.5 -29.5z" />
    <glyph glyph-name="ogonek" unicode="&#x2db;" 
d="M338 -313q0 30 11.5 60.5t24.5 53t45 57t51 52.5t66.5 61t67.5 62l115 22l10 -10q-25 -17 -58 -46.5t-73 -73t-67 -97t-27 -100.5q0 -68 40 -99.5t97 -31.5l45 4l14 -52q-90 -34 -163 -34q-90 0 -144.5 49t-54.5 123z" />
    <glyph glyph-name="tilde" unicode="&#x2dc;" 
d="M215 1151q0 5 -0.5 14t2 35t7 49.5t17 52.5t30.5 50t48.5 35t69.5 14q38 0 70.5 -15.5t54.5 -37.5t42 -44t43 -37.5t48 -15.5q38 0 59.5 34.5t23.5 68.5l3 35h76q-2 -1 0 -14.5t-1.5 -37t-7.5 -50.5t-17.5 -55t-31.5 -50.5t-49.5 -37t-70.5 -14.5q-38 0 -70.5 15.5
t-54 37.5t-41 44t-42.5 37.5t-48 15.5q-37 0 -58 -32t-23 -64l-3 -33h-76z" />
    <glyph glyph-name="hungarumlaut" unicode="&#x2dd;" 
d="M262 1034l-63 35l159 350l160 19v-56zM553 1034l-64 35l160 350l160 19v-56z" />
    <glyph glyph-name="Omega" unicode="&#x3a9;" horiz-adv-x="1591" 
d="M145 0l-75 324h69q25 -47 48.5 -76.5t46 -47.5t57.5 -26.5t68.5 -11t93.5 -2.5h45q-112 108 -158 163q-178 212 -178 433q0 184 85 330t230 225.5t322 79.5q179 0 323 -77.5t227 -221.5t83 -330q0 -69 -19 -137.5t-44.5 -120t-68 -110t-71.5 -91t-74.5 -80.5t-58.5 -63
h43q60 0 93.5 2.5t68 11t57.5 26.5t46 47.5t48 76.5h70l-76 -324h-502l-10 37q5 7 34 49t41.5 61t42 64.5t45 76.5t40 79.5t38 90.5t27.5 93t20.5 103.5t6.5 105.5q0 246 -116.5 397.5t-315.5 151.5q-202 0 -317 -149t-115 -406q0 -93 23.5 -187.5t64.5 -178t76 -143
t80 -125t55 -81.5l-17 -39h-502z" />
    <glyph glyph-name="pi" unicode="&#x3c0;" horiz-adv-x="1187" 
d="M76 737q93 185 303 185h727v-140h-186l-21 -20v-567q0 -68 12.5 -92.5t61.5 -24.5h78l6 -49q-121 -54 -187 -54q-67 0 -103 28t-36 95v684h-248l-20 -20v-60q0 -82 -8.5 -174t-28.5 -192t-49.5 -179t-77 -130.5t-104.5 -51.5q-38 0 -62 20.5t-24 55.5q0 32 18 54.5t46 38
t57 31.5t56.5 44.5t39.5 67.5q32 104 44.5 195.5t12.5 240.5v59q-93 -2 -148.5 -19t-109.5 -61z" />
    <glyph glyph-name="Wgrave" unicode="&#x1e80;" horiz-adv-x="1968" 
d="M1352 6l-377 973l-316 -997l-79 24l-471 1196q-16 39 -46 67.5t-53 36.5l-22 9v51h125q57 0 110 2t77 4l24 2l8 -8q-19 -40 -24 -90t11 -98l295 -791q19 -53 39 -131l271 852l-35 94q-16 39 -46 67.5t-53 36.5l-22 9v51h125q57 0 110 2t77 4l24 2l8 -8
q-19 -40 -23.5 -90.5t11.5 -97.5l289 -795q19 -58 36 -125l279 879q24 72 2 113.5t-100 64.5v51h311l8 -29q-3 -2 -8 -5.5t-21 -19.5t-31 -38t-35.5 -63.5t-37.5 -92.5l-360 -1136zM711 1606v51l67 106h10l363 -215l-27 -67z" />
    <glyph glyph-name="wgrave" unicode="&#x1e81;" horiz-adv-x="1495" 
d="M410 0l-293 752q-18 46 -46.5 75.5t-47.5 36.5l-19 6v52h94q57 0 107.5 2t72.5 4l21 2l8 -8q-2 -4 -4 -10.5t-7 -27t-6.5 -42t2 -51.5t13.5 -58l160 -432l33 -111l190 453q21 57 12 94l-4 15q-17 46 -45 75.5t-47 36.5l-20 6v52h94q57 0 107.5 2t72.5 4l21 2l8 -8
q-2 -4 -4 -10.5t-7 -27t-6.5 -42t2 -51.5t13.5 -58l157 -424q17 -50 35 -116l223 530q25 58 -6 95t-96 52v52h275l10 -33q-4 -2 -11 -7.5t-26.5 -33t-36.5 -68.5l-344 -807l-76 27l-235 602l-269 -629zM500 1382v56l178 -19l174 -350l-64 -35z" />
    <glyph glyph-name="Wacute" unicode="&#x1e82;" horiz-adv-x="1968" 
d="M1352 6l-377 973l-316 -997l-79 24l-471 1196q-16 39 -46 67.5t-53 36.5l-22 9v51h125q57 0 110 2t77 4l24 2l8 -8q-19 -40 -24 -90t11 -98l295 -791q19 -53 39 -131l271 852l-35 94q-16 39 -46 67.5t-53 36.5l-22 9v51h125q57 0 110 2t77 4l24 2l8 -8
q-19 -40 -23.5 -90.5t11.5 -97.5l289 -795q19 -58 36 -125l279 879q24 72 2 113.5t-100 64.5v51h311l8 -29q-3 -2 -8 -5.5t-21 -19.5t-31 -38t-35.5 -63.5t-37.5 -92.5l-360 -1136zM799 1548l362 215h10l68 -106v-51l-414 -125z" />
    <glyph glyph-name="wacute" unicode="&#x1e83;" horiz-adv-x="1495" 
d="M410 0l-293 752q-18 46 -46.5 75.5t-47.5 36.5l-19 6v52h94q57 0 107.5 2t72.5 4l21 2l8 -8q-2 -4 -4 -10.5t-7 -27t-6.5 -42t2 -51.5t13.5 -58l160 -432l33 -111l190 453q21 57 12 94l-4 15q-17 46 -45 75.5t-47 36.5l-20 6v52h94q57 0 107.5 2t72.5 4l21 2l8 -8
q-2 -4 -4 -10.5t-7 -27t-6.5 -42t2 -51.5t13.5 -58l157 -424q17 -50 35 -116l223 530q25 58 -6 95t-96 52v52h275l10 -33q-4 -2 -11 -7.5t-26.5 -33t-36.5 -68.5l-344 -807l-76 27l-235 602l-269 -629zM752 1034l-64 35l174 350l178 19v-56z" />
    <glyph glyph-name="Wdieresis" unicode="&#x1e84;" horiz-adv-x="1968" 
d="M1352 6l-377 973l-316 -997l-79 24l-471 1196q-16 39 -46 67.5t-53 36.5l-22 9v51h125q57 0 110 2t77 4l24 2l8 -8q-19 -40 -24 -90t11 -98l295 -791q19 -53 39 -131l271 852l-35 94q-16 39 -46 67.5t-53 36.5l-22 9v51h125q57 0 110 2t77 4l24 2l8 -8
q-19 -40 -23.5 -90.5t11.5 -97.5l289 -795q19 -58 36 -125l279 879q24 72 2 113.5t-100 64.5v51h311l8 -29q-3 -2 -8 -5.5t-21 -19.5t-31 -38t-35.5 -63.5t-37.5 -92.5l-360 -1136zM627 1624q0 44 33 77.5t77 33.5t77.5 -33.5t33.5 -77.5t-33.5 -77.5t-77.5 -33.5t-77 33.5
t-33 77.5zM1100 1624q0 44 33 77.5t77 33.5t77.5 -33.5t33.5 -77.5t-33.5 -77.5t-77.5 -33.5t-77 33.5t-33 77.5z" />
    <glyph glyph-name="wdieresis" unicode="&#x1e85;" horiz-adv-x="1495" 
d="M410 0l-293 752q-18 46 -46.5 75.5t-47.5 36.5l-19 6v52h94q57 0 107.5 2t72.5 4l21 2l8 -8q-2 -4 -4 -10.5t-7 -27t-6.5 -42t2 -51.5t13.5 -58l160 -432l33 -111l190 453q21 57 12 94l-4 15q-17 46 -45 75.5t-47 36.5l-20 6v52h94q57 0 107.5 2t72.5 4l21 2l8 -8
q-2 -4 -4 -10.5t-7 -27t-6.5 -42t2 -51.5t13.5 -58l157 -424q17 -50 35 -116l223 530q25 58 -6 95t-96 52v52h275l10 -33q-4 -2 -11 -7.5t-26.5 -33t-36.5 -68.5l-344 -807l-76 27l-235 602l-269 -629zM584 1155q-44 0 -77.5 33.5t-33.5 77.5t33.5 77t77.5 33t77 -33t33 -77
t-33 -77.5t-77 -33.5zM954 1155q-44 0 -77 33.5t-33 77.5t33 77t77 33t77.5 -33t33.5 -77t-33.5 -77.5t-77.5 -33.5z" />
    <glyph glyph-name="uni1E9E" unicode="&#x1e9e;" horiz-adv-x="1400" 
d="M66 -6v65q60 7 93.5 42.5t33.5 91.5v509q0 346 153.5 517.5t423.5 171.5q89 0 244.5 -12.5t179.5 -12.5l20 -53q-51 -58 -112 -144l-232 -329q66 -17 127 -42.5t121 -64.5t103.5 -86t70.5 -110.5t27 -135.5q0 -77 -30 -152.5t-83 -136.5t-135 -99t-178 -38
q-68 0 -136 15.5t-120.5 51.5t-52.5 85q0 35 22.5 57.5t61.5 22.5q28 0 47.5 -16.5t33 -39.5t29.5 -46t46 -39.5t73 -16.5q112 0 187 90t75 201q0 77 -43.5 143.5t-114 110.5t-145.5 72.5t-151 40.5l-9 63q60 59 119 143l186 267l37 57q-110 76 -274 76q-391 0 -391 -576
v-544q0 -27 -2.5 -55t-5.5 -42l-3 -14l125 -19l-8 -57z" />
    <glyph glyph-name="Ygrave" unicode="&#x1ef2;" horiz-adv-x="1198" 
d="M362 -6v65q68 8 108 41.5t40 85.5v418l-393 621q-22 35 -49 57.5t-44 27.5l-16 5v51h98q57 0 109.5 2t76.5 4l23 2l9 -8q-4 -9 -9.5 -23.5t-5.5 -53.5t19 -70l254 -410q26 -43 59 -115l305 494q15 28 16.5 53t-23.5 45.5t-75 28.5v51h334l8 -29q-9 -3 -24 -10t-52.5 -39
t-64.5 -76l-375 -604v-422q0 -26 -2.5 -52t-5.5 -39l-2 -13l184 -19l-8 -57zM346 1606v51l68 106h10l362 -215l-26 -67z" />
    <glyph glyph-name="ygrave" unicode="&#x1ef3;" horiz-adv-x="944" 
d="M145 -315q77 0 132 42.5t85 110.5l66 154q-27 80 -49 133l-262 627q-19 45 -48 74.5t-48 36.5l-19 7v52h96q57 0 109.5 2t76.5 4l23 2l8 -8q-19 -36 -19 -92t17 -97l166 -416q28 -83 39 -122l232 528q24 56 -11 92.5t-102 54.5v52h285l10 -33q-4 -2 -11 -8t-27 -34
t-36 -67l-354 -805q-6 -14 -23.5 -54.5t-30 -70t-35 -74.5t-42.5 -77.5t-48.5 -69.5t-56.5 -60t-62.5 -38.5t-70.5 -15.5q-42 0 -66 25t-24 61q0 35 24.5 59.5t75.5 24.5zM223 1382v56l178 -19l174 -350l-63 -35z" />
    <glyph glyph-name="thinspace" unicode="&#x2009;" horiz-adv-x="30" 
 />
    <glyph glyph-name="endash" unicode="&#x2013;" horiz-adv-x="1097" 
d="M129 463v112h840v-112h-840z" />
    <glyph glyph-name="emdash" unicode="&#x2014;" horiz-adv-x="1896" 
d="M129 463v112h1638v-112h-1638z" />
    <glyph glyph-name="quoteleft" unicode="&#x2018;" horiz-adv-x="413" 
d="M88 1182q0 84 52 166.5t151 148.5l45 -49q-133 -105 -133 -178t137 -140v-71l-158 -84q-94 88 -94 207z" />
    <glyph glyph-name="quoteright" unicode="&#x2019;" horiz-adv-x="411" 
d="M90 1343v72l158 84q94 -88 94 -207q0 -84 -52 -166.5t-151 -148.5l-45 49q133 105 133 178q0 72 -137 139z" />
    <glyph glyph-name="quotesinglbase" unicode="&#x201a;" horiz-adv-x="477" 
d="M113 88v72l157 84q95 -89 95 -207q0 -84 -52 -167t-151 -149l-45 50q133 105 133 178q0 72 -137 139z" />
    <glyph glyph-name="quotedblleft" unicode="&#x201c;" horiz-adv-x="745" 
d="M420 1182q0 84 52 166.5t151 148.5l45 -49q-133 -105 -133 -178t137 -140v-71l-158 -84q-94 88 -94 207zM88 1182q0 84 52 166.5t151 148.5l45 -49q-133 -105 -133 -178t137 -140v-71l-158 -84q-94 88 -94 207z" />
    <glyph glyph-name="quotedblright" unicode="&#x201d;" horiz-adv-x="743" 
d="M90 1343v72l158 84q94 -88 94 -207q0 -84 -52 -166.5t-151 -148.5l-45 49q133 105 133 178q0 72 -137 139zM422 1343v72l158 84q94 -88 94 -207q0 -84 -52 -166.5t-151 -148.5l-45 49q133 105 133 178q0 72 -137 139z" />
    <glyph glyph-name="quotedblbase" unicode="&#x201e;" horiz-adv-x="804" 
d="M113 88v72l157 84q95 -89 95 -207q0 -84 -52 -167t-151 -149l-45 50q133 105 133 178q0 72 -137 139zM440 88v72l158 84q94 -88 94 -207q0 -84 -52 -167t-151 -149l-45 50q134 106 134 178q0 38 -34 71.5t-104 67.5z" />
    <glyph glyph-name="dagger" unicode="&#x2020;" horiz-adv-x="1064" 
d="M158 760q-47 0 -71 28t-24 64t24 65t71 29q23 0 138 -24.5t193 -30.5q-2 90 -26.5 225t-24.5 156q0 47 29 70.5t65 23.5t64.5 -23.5t28.5 -70.5q0 -20 -24.5 -155t-25.5 -226q78 6 193.5 30.5t138.5 24.5q47 0 70.5 -29t23.5 -65t-23.5 -64t-70.5 -28q-24 0 -140 23.5
t-192 29.5v-606q2 -94 26 -235t24 -162q0 -47 -28.5 -71t-64.5 -24t-65 24t-29 71q0 19 25.5 160.5t25.5 236.5v606q-76 -6 -191.5 -29.5t-139.5 -23.5z" />
    <glyph glyph-name="daggerdbl" unicode="&#x2021;" horiz-adv-x="1064" 
d="M158 760q-47 0 -71 28t-24 64t24 65t71 29q23 0 138 -24.5t193 -30.5q-3 93 -27 226t-24 155q0 47 29 70.5t65 23.5t64.5 -23.5t28.5 -70.5q0 -20 -24.5 -155t-25.5 -226q78 6 193.5 30.5t138.5 24.5q47 0 70.5 -29t23.5 -65t-23.5 -64t-70.5 -28q-24 0 -140 23.5
t-192 29.5v-534q78 6 193.5 30.5t138.5 24.5q47 0 70.5 -29t23.5 -65t-23.5 -64.5t-70.5 -28.5q-24 0 -140 23.5t-192 30.5q2 -100 26 -236t24 -155q0 -47 -28.5 -71t-64.5 -24t-65 24t-29 71q0 21 24 156.5t27 234.5q-76 -7 -191.5 -30.5t-139.5 -23.5q-47 0 -71 28.5
t-24 64.5t24 65t71 29q23 0 138 -24.5t193 -30.5v534q-76 -6 -191.5 -29.5t-139.5 -23.5z" />
    <glyph glyph-name="bullet" unicode="&#x2022;" horiz-adv-x="774" 
d="M387 242q-120 0 -201.5 81t-81.5 201t81.5 201.5t201.5 81.5t201.5 -81.5t81.5 -201.5t-81.5 -201t-201.5 -81z" />
    <glyph glyph-name="ellipsis" unicode="&#x2026;" horiz-adv-x="1585" 
d="M117 98q0 51 36 87t87 36t86.5 -36t35.5 -87t-35.5 -87t-86.5 -36t-87 36t-36 87zM670 98q0 51 36 87t87 36t86.5 -36t35.5 -87t-35.5 -87t-86.5 -36t-87 36t-36 87zM1223 98q0 51 36 87t87 36t86.5 -36t35.5 -87t-35.5 -87t-86.5 -36t-87 36t-36 87z" />
    <glyph glyph-name="perthousand" unicode="&#x2030;" horiz-adv-x="2201" 
d="M72 1038q0 127 90.5 217.5t218.5 90.5t218.5 -90.5t90.5 -217.5t-90.5 -217t-218.5 -90t-218.5 90t-90.5 217zM182 1038q0 -86 58.5 -148.5t140.5 -62.5t140.5 62.5t58.5 148.5t-58.5 148.5t-140.5 62.5t-140.5 -62.5t-58.5 -148.5zM211 0l956 1376l80 -55l-919 -1321
h-117zM797 281q0 127 90.5 217t218.5 90t218.5 -90t90.5 -217t-90.5 -217.5t-218.5 -90.5t-218.5 90.5t-90.5 217.5zM907 281q0 -86 58.5 -148.5t140.5 -62.5t140.5 62.5t58.5 148.5t-58.5 148.5t-140.5 62.5t-140.5 -62.5t-58.5 -148.5zM1528 281q0 127 90.5 217t218.5 90
t218.5 -90t90.5 -217t-90.5 -217.5t-218.5 -90.5t-218.5 90.5t-90.5 217.5zM1638 281q0 -86 58.5 -148.5t140.5 -62.5t140.5 62.5t58.5 148.5t-58.5 148.5t-140.5 62.5t-140.5 -62.5t-58.5 -148.5z" />
    <glyph glyph-name="guilsinglleft" unicode="&#x2039;" horiz-adv-x="673" 
d="M76 510v8q28 20 49 38t117 111.5t280 278.5l60 -20l-269 -412q23 -30 269 -412l-60 -20q-257 258 -331.5 329t-114.5 99z" />
    <glyph glyph-name="guilsinglright" unicode="&#x203a;" horiz-adv-x="673" 
d="M92 102l268 412q-22 26 -268 412l60 20q184 -185 280 -278.5t117 -111.5t49 -38v-8q-40 -28 -114.5 -99t-331.5 -329z" />
    <glyph glyph-name="fraction" unicode="&#x2044;" horiz-adv-x="258" 
d="M-205 0h-117l805 1397l97 -33z" />
    <glyph glyph-name="zerosuperior" unicode="&#x2070;" horiz-adv-x="755" 
d="M379 813q135 0 135 373q0 74 -5 131.5t-18.5 115.5t-41.5 89.5t-70 31.5q-139 0 -139 -366q0 -375 139 -375zM367 756q-76 0 -134 34.5t-91 93.5t-49.5 130t-16.5 153q0 68 11 130.5t35 120.5t59.5 100.5t88.5 68t117 25.5q78 0 136 -33.5t91.5 -92t49.5 -129t16 -151.5
q0 -68 -11 -131.5t-35.5 -122t-60.5 -102t-89 -69t-117 -25.5z" />
    <glyph glyph-name="foursuperior" unicode="&#x2074;" horiz-adv-x="702" 
d="M33 1004l-13 71l396 516l116 23q-8 -56 -8 -144v-380h140l-23 -86h-117v-111l-4 -62l111 -10l-4 -47l-344 -8v49q42 4 67 25.5t25 52.5v111h-342zM115 1090h260v329z" />
    <glyph glyph-name="fivesuperior" unicode="&#x2075;" horiz-adv-x="612" 
d="M254 756q-28 0 -59 5.5t-61.5 16t-50.5 30t-20 44.5t17.5 38t42.5 13q22 0 41.5 -15t32 -33t32.5 -33t43 -15q49 0 95.5 55t46.5 121q0 41 -18 75t-46 55.5t-62.5 38t-69 25t-62.5 14t-46 6.5l-18 1l21 399h299q23 0 50 3.5t42 6.5l16 3l-20 -121h-324l-8 -166
q25 -2 55 -7.5t78 -17.5t90 -34t81 -52.5t62 -77.5t23 -104q0 -107 -88.5 -190.5t-214.5 -83.5z" />
    <glyph glyph-name="sixsuperior" unicode="&#x2076;" horiz-adv-x="712" 
d="M66 1104q0 91 31.5 179.5t91 162.5t157 120t217.5 46l8 -58q-72 -4 -131 -32.5t-97 -71.5t-64 -99.5t-37 -114.5t-11 -118q0 -121 42.5 -213t107.5 -92q54 0 86.5 63.5t32.5 141.5q0 55 -15 105t-54 84.5t-95 23.5l-6 59q39 10 82 10q119 0 185.5 -73t66.5 -172
q0 -42 -12 -84t-37 -80.5t-60.5 -68.5t-85 -48t-107.5 -18q-95 0 -164 51t-100.5 128.5t-31.5 168.5z" />
    <glyph glyph-name="sevensuperior" unicode="&#x2077;" horiz-adv-x="632" 
d="M205 756q-25 0 -37 13t-12 32q0 34 43 88q118 165 221 411l61 150h-276q-57 0 -76.5 -11.5t-38.5 -64.5h-57l39 223h465q17 0 39 2.5t36 5.5l13 3l2 -47q-44 -60 -60 -97l-225 -508q-6 -14 -19 -44t-20.5 -47t-20.5 -40.5t-23.5 -36.5t-24.5 -22.5t-29 -9.5z" />
    <glyph glyph-name="eightsuperior" unicode="&#x2078;" horiz-adv-x="688" 
d="M326 756q-43 0 -86 11.5t-81.5 34t-62.5 61t-24 87.5q0 46 12.5 82.5t39.5 66t51 48.5t65 45q-66 53 -104 109t-38 126q0 83 71 134t191 51q102 0 166 -46.5t64 -121.5q0 -38 -12 -69t-39.5 -57.5t-47.5 -41.5t-59 -41q43 -32 70 -55t57 -56t44.5 -68.5t14.5 -74.5
q0 -102 -79.5 -163.5t-212.5 -61.5zM336 813q56 0 94.5 35t38.5 96q0 14 -2.5 27t-10.5 26.5t-13.5 23.5t-20.5 24.5t-21.5 22t-26.5 23.5t-27 21t-31 23t-29 22q-84 -71 -84 -180q0 -80 37 -122t96 -42zM246 1450q0 -48 35 -89.5t102 -90.5q74 64 74 168q0 56 -30.5 86
t-78.5 30q-45 0 -73.5 -26t-28.5 -78z" />
    <glyph glyph-name="ninesuperior" unicode="&#x2079;" horiz-adv-x="708" 
d="M145 756l-8 57q72 4 131 32.5t97 71.5t64 99.5t37 114.5t11 118q0 121 -42 213t-107 92q-50 0 -81.5 -63t-31.5 -141q0 -39 8.5 -77t25.5 -72t49.5 -52t74.5 -12l6 -60q-39 -10 -82 -10q-115 0 -180.5 74t-65.5 172q0 53 19.5 105t55 96t93.5 71t127 27q72 0 130 -29.5
t93.5 -79t54.5 -111t19 -128.5q0 -72 -19.5 -143.5t-60 -137.5t-98.5 -116.5t-140.5 -80.5t-179.5 -30z" />
    <glyph glyph-name="n.sups" unicode="&#x207f;" horiz-adv-x="854" 
d="M61 604v47q89 11 89 92v344q0 51 -7 72t-34 21h-66v45q67 16 129.5 34t91.5 29l29 10l6 -6q-12 -14 -14 -149q4 5 12 14t34 31t54 39t71 31t87 14q174 0 174 -195v-334q0 -19 -1.5 -37t-3.5 -26l-1 -8l118 -17l-6 -43l-327 -8v47q45 6 62 28.5t17 63.5v301
q0 75 -22 105.5t-64 30.5q-47 0 -102 -23t-96 -61v-353q0 -19 -1.5 -37t-3.5 -26l-1 -8l112 -17l-6 -43z" />
    <glyph glyph-name="zeroinferior" unicode="&#x2080;" horiz-adv-x="751" 
d="M377 -188q135 0 135 372q0 369 -135 369q-139 0 -139 -367q0 -374 139 -374zM365 -246q-76 0 -134 34.5t-91 93.5t-49.5 130.5t-16.5 153.5q0 85 18 162t54 141.5t97.5 102.5t141.5 38q78 0 136 -33.5t91.5 -92t49.5 -128.5t16 -151q0 -86 -18.5 -164t-54.5 -143.5
t-98 -104.5t-142 -39z" />
    <glyph glyph-name="oneinferior" unicode="&#x2081;" horiz-adv-x="546" 
d="M63 -236v58l87 4q33 2 50 14t20 24.5t3 33.5v534q0 32 -5 45.5t-14.5 13t-23.5 -3.5l-129 -28l-8 61q105 28 190.5 52.5t118.5 35.5l33 10l6 -8q-16 -43 -16 -139v-573l-4 -62l161 -10l-6 -53z" />
    <glyph glyph-name="twoinferior" unicode="&#x2082;" horiz-adv-x="677" 
d="M59 -231l-16 53q4 4 38.5 35t46 42t42.5 40.5t48 48t42 46t44 53.5t36 52q76 119 76 221q0 65 -39 99.5t-96 34.5q-107 0 -187 -70l-39 43q4 6 12.5 15.5t36 34t57.5 43.5t76 34.5t93 15.5q61 0 113.5 -20.5t89 -68.5t36.5 -115q0 -34 -11.5 -72.5t-25.5 -69.5t-46 -74.5
t-51.5 -69t-64 -73t-63 -66.5t-67.5 -67l-31 -31h235q57 0 79 24t42 87h58l-35 -225h-529z" />
    <glyph glyph-name="threeinferior" unicode="&#x2083;" horiz-adv-x="651" 
d="M260 -246q-48 0 -96.5 10t-86.5 33.5t-38 55.5q0 49 59 49q27 0 50 -15t37.5 -33.5t39.5 -33.5t56 -15q56 0 100.5 62t44.5 131q0 72 -52.5 118t-142.5 46l-53 -4v71q84 6 142.5 59.5t58.5 121.5q0 51 -29 73.5t-71 22.5q-87 0 -158 -49l-39 43q4 4 11 11.5t31 26.5
t50.5 33.5t69 26.5t86.5 12q51 0 96 -16.5t78 -56.5t33 -97q0 -58 -60.5 -116t-136.5 -99q110 -15 181 -74.5t71 -138.5q0 -73 -49.5 -133.5t-125 -92.5t-157.5 -32z" />
    <glyph glyph-name="fourinferior" unicode="&#x2084;" horiz-adv-x="702" 
d="M33 2l-13 72l396 516l116 22q-8 -55 -8 -143v-381h140l-23 -86h-117v-111l-4 -61l111 -10l-4 -47l-344 -9v50q43 4 67.5 25t24.5 52v111h-342zM115 88h260v330z" />
    <glyph glyph-name="fiveinferior" unicode="&#x2085;" horiz-adv-x="612" 
d="M254 -246q-28 0 -59 5.5t-61.5 16t-50.5 30t-20 44.5t17.5 38.5t42.5 13.5q22 0 41.5 -15t32 -33.5t32.5 -33.5t43 -15q49 0 95.5 55.5t46.5 121.5q0 41 -18 75t-46 55.5t-62.5 38t-69 25t-62.5 14t-46 6.5l-18 1l21 399h299q23 0 50 3t42 6l16 3l-20 -121h-324l-8 -165
q25 -2 55 -7.5t78 -17.5t90 -34t81 -52.5t62 -77.5t23 -104q0 -107 -88.5 -191t-214.5 -84z" />
    <glyph glyph-name="sixinferior" unicode="&#x2086;" horiz-adv-x="710" 
d="M63 102q0 72 19.5 143.5t60 137.5t98.5 116.5t140.5 80.5t179.5 30l8 -57q-72 -4 -131 -32.5t-97 -71.5t-64 -99.5t-37 -114.5t-11 -118q0 -121 42.5 -213t107.5 -92q54 0 86.5 63t32.5 141q0 55 -15 105t-54 84.5t-95 23.5l-6 60q39 10 82 10q119 0 185.5 -73.5
t66.5 -172.5q0 -42 -12 -84t-37 -80.5t-60.5 -68.5t-85 -48t-107.5 -18q-72 0 -130 29.5t-93.5 79t-54.5 111t-19 128.5z" />
    <glyph glyph-name="seveninferior" unicode="&#x2087;" horiz-adv-x="634" 
d="M207 -246q-25 0 -37 13t-12 32q0 34 43 88q117 164 221 412l61 150h-276q-57 0 -76.5 -11.5t-38.5 -64.5h-57l39 223h465q17 0 39 2.5t36 5.5l13 2l2 -47q-44 -59 -60 -96l-225 -508q-6 -12 -22.5 -52t-25.5 -57.5t-24.5 -43.5t-31.5 -37t-33 -11z" />
    <glyph glyph-name="eightinferior" unicode="&#x2088;" horiz-adv-x="686" 
d="M324 -246q-59 0 -114.5 19t-97.5 65.5t-42 110.5q0 37 9.5 69t23.5 54t38.5 45.5t44.5 37.5t52 35q-66 53 -104 109.5t-38 126.5q0 83 71 133.5t191 50.5q102 0 166 -46.5t64 -121.5q0 -38 -12 -69t-39.5 -57.5t-47.5 -41.5t-59 -41q43 -32 70 -55t57 -55.5t44.5 -68
t14.5 -74.5q0 -102 -79.5 -164t-212.5 -62zM334 -188q56 0 94.5 35t38.5 96q0 14 -2.5 27t-10.5 26.5t-13.5 23.5t-20.5 24.5t-21.5 22t-26.5 23.5t-27 21t-31 23t-29 22q-84 -71 -84 -181q0 -80 37 -121.5t96 -41.5zM244 449q0 -48 35.5 -90t101.5 -91q74 64 74 168
q0 56 -30.5 86.5t-78.5 30.5q-45 0 -73.5 -26t-28.5 -78z" />
    <glyph glyph-name="nineinferior" unicode="&#x2089;" horiz-adv-x="704" 
d="M143 -246l-8 58q72 4 131 32.5t97 71.5t64 99.5t37 114.5t11 118q0 121 -42 213t-107 92q-50 0 -81.5 -63.5t-31.5 -141.5q0 -39 8.5 -77t25.5 -72t49.5 -52t74.5 -12l6 -59q-39 -10 -82 -10q-115 0 -180.5 73.5t-65.5 171.5q0 53 19.5 105t55 96t93.5 71t127 27
q72 0 130 -29.5t93.5 -79t54.5 -111t19 -128.5q0 -72 -19.5 -143.5t-60 -137.5t-98.5 -116.5t-140.5 -80.5t-179.5 -30z" />
    <glyph glyph-name="Euro" unicode="&#x20ac;" horiz-adv-x="1083" 
d="M68 406v81h104q-2 16 -2 50q0 28 4 90h-106v82h120q22 92 65 171.5t106 142t150.5 98.5t188.5 36q71 0 152.5 -16.5t127.5 -33.5l46 -17l-66 -220h-61q0 103 -50.5 156t-170.5 53q-129 0 -209 -104.5t-102 -265.5h546l-24 -82h-529v-23q0 -62 9 -117h481l-25 -81h-440
q36 -141 120 -229.5t208 -88.5q82 0 150.5 17t96.5 34l27 17l29 -45q-5 -6 -14.5 -15t-43 -32.5t-70 -41.5t-95.5 -32.5t-121 -14.5q-104 0 -190.5 34t-145.5 94.5t-97 136.5t-55 166h-114z" />
    <glyph glyph-name="trademark" unicode="&#x2122;" horiz-adv-x="1460" 
d="M209 813v41q27 1 42 16t15 37v408h-51q-39 0 -63.5 -21.5t-51.5 -81.5h-45l27 158q33 -4 70 -4h374l70 4l-25 -158h-43q0 59 -21 81t-69 22h-59v-408l-4 -45l82 -8l-2 -37zM625 813v41q26 1 41.5 15t17.5 36l16 365q2 30 -9.5 40.5t-57.5 20.5v35h72l155 4l2 -4
q13 -37 27 -76l88 -254l12 -47l121 320l20 57h25l150 4l4 -4q-3 -4 -7.5 -11.5t-11.5 -34.5t-6 -58l16 -361l-2 -41l74 -6l-6 -37l-236 -4v41q28 1 43 14t15 33l-14 404l-185 -490l-51 8l-174 471l-16 -389l-5 -45l76 -6l-4 -37z" />
    <glyph glyph-name="arrowleft" unicode="&#x2190;" horiz-adv-x="1292" 
d="M680 164q-221 222 -338 336t-150.5 143.5t-68.5 54.5v11q38 28 61.5 47.5t146.5 139t349 347.5l76 -26q-235 -368 -295 -457h674v-113h-678q63 -93 299 -459z" />
    <glyph glyph-name="arrowup" unicode="&#x2191;" horiz-adv-x="1292" 
d="M590 174v737q-44 -30 -459 -297l-25 76q320 318 410 413t125 144h10q27 -37 47.5 -61t139.5 -146.5t348 -349.5l-27 -76q-370 234 -457 295v-735h-112z" />
    <glyph glyph-name="arrowright" unicode="&#x2192;" horiz-adv-x="1292" 
d="M158 647v113h676q-72 105 -297 459l73 24q229 -229 351 -347t147 -139t61 -48v-11q-35 -25 -70 -55t-151 -143t-338 -336l-73 24q94 147 297 459h-676z" />
    <glyph glyph-name="arrowdown" unicode="&#x2193;" horiz-adv-x="1292" 
d="M641 174q-25 34 -55.5 68.5t-143.5 150.5t-336 338l25 76q313 -201 459 -299v739h112v-737q88 63 457 297l27 -76q-229 -227 -348 -349.5t-139.5 -146.5t-47.5 -61h-10z" />
    <glyph glyph-name="partialdiff" unicode="&#x2202;" horiz-adv-x="1009" 
d="M53 412q0 85 27 164.5t77.5 144t131.5 103t180 38.5q176 0 270 -114v18q0 155 -27.5 277.5t-68.5 194.5t-93.5 119t-97 64t-83.5 17q-44 0 -109.5 -29t-83.5 -29q-23 0 -44 18.5t-21 49.5q0 84 168 84q110 0 211 -43.5t178.5 -120t136 -176t89 -216t30.5 -235.5
q0 -56 -6.5 -120t-23 -139.5t-41 -145.5t-63.5 -136.5t-88.5 -116t-118.5 -79t-149 -29.5q-91 0 -165.5 38t-120.5 100.5t-70.5 139.5t-24.5 159zM424 49q90 0 160.5 92t108 235.5t44.5 315.5q-92 68 -190 68q-92 0 -167.5 -67.5t-114 -164.5t-38.5 -196q0 -114 54 -198.5
t143 -84.5z" />
    <glyph glyph-name="Delta" unicode="&#x2206;" horiz-adv-x="1267" 
d="M59 0v70l553 1296h68l520 -1296v-70h-1141zM207 113h799l-392 1007z" />
    <glyph glyph-name="product" unicode="&#x220f;" horiz-adv-x="1490" 
d="M61 1286v80h1369v-80h-164l-21 -20v-1260q0 -27 -2.5 -54.5t-4.5 -41.5l-3 -14l184 -19l-8 -57l-493 -13v66q68 8 107.5 41.5t39.5 85.5v1286h-619l-20 -20v-1260q0 -27 -2.5 -54.5t-5.5 -41.5l-2 -14l184 -19l-8 -57l-494 -13v66q69 8 108.5 43t39.5 90v1280h-185z" />
    <glyph glyph-name="summation" unicode="&#x2211;" horiz-adv-x="1241" 
d="M49 -129l574 707l-562 741v47h957l53 -322l-67 -12q-19 38 -27 52.5t-24 44t-23.5 40l-22.5 31.5t-25.5 28.5t-27.5 20.5t-32.5 17.5t-36.5 10.5t-44 7.5t-51 1.5h-377l482 -643l-543 -668h510q136 0 201.5 40t132.5 175h69l-96 -374h-723l-297 -6v61z" />
    <glyph glyph-name="minus" unicode="&#x2212;" horiz-adv-x="1064" 
d="M74 457v112h917v-112h-917z" />
    <glyph glyph-name="radical" unicode="&#x221a;" horiz-adv-x="1243" 
d="M37 809v113h356l236 -654l446 1266h121l-567 -1608h-4l-318 883h-270z" />
    <glyph glyph-name="infinity" unicode="&#x221e;" horiz-adv-x="1622" 
d="M428 186q-138 0 -234 95.5t-96 230.5t96 230.5t234 95.5q57 0 116 -24t109 -64t87 -78t71 -80q195 246 383 246q138 0 234 -95.5t96 -230.5t-96 -230.5t-234 -95.5q-58 0 -117 23.5t-109 63.5t-86.5 77.5t-70.5 79.5q-33 -42 -70.5 -79.5t-87.5 -77.5t-109 -63.5
t-116 -23.5zM428 289q40 0 88 23t87.5 55.5t73.5 65.5t53 56l20 23q-7 9 -20 24t-51.5 53.5t-75.5 68t-86 53.5t-89 24q-88 0 -148.5 -64t-60.5 -159t60.5 -159t148.5 -64zM872 512q7 -9 20 -24t51.5 -53.5t75.5 -68t86 -53.5t89 -24q88 0 148.5 64t60.5 159t-60.5 159
t-148.5 64q-40 0 -88 -23t-87.5 -55.5t-73.5 -65.5t-53 -56z" />
    <glyph glyph-name="integral" unicode="&#x222b;" horiz-adv-x="1015" 
d="M166 -322q40 0 90 -20t74 -20q26 0 39 4.5t27.5 25.5t20.5 67t10.5 127t4.5 206q0 56 -2 241t-2 314q0 204 12 349.5t40 256t75 176t114.5 97.5t161.5 32q125 0 125 -86q0 -38 -29 -59t-67 -21q-42 0 -93.5 20.5t-76.5 20.5q-27 0 -39.5 -6.5t-26 -39t-18 -107
t-4.5 -203.5q0 -46 3 -207.5t3 -276.5q0 -206 -7 -353.5t-25.5 -270.5t-48.5 -200.5t-77.5 -131t-111 -76t-150.5 -22.5q-122 0 -122 86q0 37 29.5 57t70.5 20z" />
    <glyph glyph-name="approxequal" unicode="&#x2248;" horiz-adv-x="1064" 
d="M98 588l-67 90q59 59 137.5 100t161.5 41q65 0 124 -22.5t96.5 -49t87 -49t97.5 -22.5q62 0 124.5 33t107.5 82l67 -91q-57 -59 -135.5 -100t-163.5 -41q-65 0 -124 22.5t-96.5 49t-87 49t-97.5 22.5q-61 0 -122.5 -33t-109.5 -81zM98 231l-67 91q59 59 137.5 100
t161.5 41q65 0 124 -22.5t96.5 -49.5t87 -49.5t97.5 -22.5q61 0 123.5 33.5t108.5 81.5l67 -90q-57 -59 -135.5 -100t-163.5 -41q-65 0 -124 22.5t-96.5 49t-87 49t-97.5 22.5q-61 0 -122 -33t-110 -82z" />
    <glyph glyph-name="notequal" unicode="&#x2260;" horiz-adv-x="1064" 
d="M72 651v113h551l149 250l82 -51l-119 -199h254v-113h-319l-164 -276h483v-113h-551l-147 -250l-82 51l117 199h-254v113h321l164 276h-485z" />
    <glyph glyph-name="lessequal" unicode="&#x2264;" horiz-adv-x="1064" 
d="M66 657v95l872 417l31 -116l-738 -348l738 -369l-31 -115zM66 0v113h917v-113h-917z" />
    <glyph glyph-name="greaterequal" unicode="&#x2265;" horiz-adv-x="1064" 
d="M125 221l-31 115l737 369l-737 348l31 116l872 -417v-95zM80 0v113h917v-113h-917z" />
    <glyph glyph-name="triagup" unicode="&#x25b2;" horiz-adv-x="1292" 
d="M131 301l-25 74q124 148 224.5 277.5t155.5 207.5t93 135t50 80l12 23h10q4 -8 13 -24t48.5 -78t93.5 -137.5t155 -205.5t225 -278l-25 -74q-115 38 -515 38t-515 -38z" />
    <glyph glyph-name="triagrt" unicode="&#x25ba;" horiz-adv-x="1292" 
d="M272 188q38 116 38 516t-38 515l74 24q236 -196 416.5 -329.5t243.5 -169.5l63 -35v-11q-8 -4 -24 -12.5t-78 -48.5t-137.5 -93.5t-205.5 -154.5t-278 -225z" />
    <glyph glyph-name="triagdn" unicode="&#x25bc;" horiz-adv-x="1292" 
d="M641 301q-4 8 -13 24t-48.5 78t-93.5 137.5t-155 205.5t-225 278l25 74q115 -38 515 -38t515 38l25 -74q-124 -148 -224.5 -277.5t-155.5 -207.5t-93 -135t-50 -80l-12 -23h-10z" />
    <glyph glyph-name="triaglf" unicode="&#x25c4;" horiz-adv-x="1292" 
d="M225 698v11q8 4 24 12.5t78 48.5t137.5 93.5t205.5 154.5t278 225l74 -24q-38 -115 -38 -515t38 -516l-74 -24q-236 196 -416.5 329.5t-243.5 168.5z" />
    <glyph glyph-name="lozenge" unicode="&#x25ca;" horiz-adv-x="1030" 
d="M506 -78l-445 821l445 799h20l443 -799l-443 -821h-20zM516 121l326 624l-326 601l-328 -601z" />
    <glyph glyph-name="Euro.uc" unicode="&#xe012;" horiz-adv-x="1064" 
d="M49 750v92h119q20 114 63.5 211.5t110 174t160.5 120t205 43.5q42 0 88.5 -7.5t73 -14.5t88 -25.5t83.5 -24.5l-88 -279h-63q5 53 -2.5 98.5t-29.5 83.5t-65 59.5t-104 21.5q-80 0 -141.5 -37.5t-100.5 -104t-61.5 -145.5t-32.5 -174h537l-29 -92h-514v-48q0 -69 2 -102
h465l-29 -92h-426q30 -193 124.5 -306.5t258.5 -113.5q64 0 129 17t98 34l33 17l29 -45q-5 -6 -14.5 -15t-42.5 -32.5t-70.5 -41.5t-98 -32.5t-124.5 -14.5q-112 0 -204 42t-154.5 116.5t-102.5 169t-57 205.5h-113v92h105q-2 18 -2 59q0 29 4 91h-107z" />
    <glyph glyph-name="cent.uc" unicode="&#xe028;" horiz-adv-x="1064" 
d="M479 0l10 238q-172 28 -263 152.5t-91 289.5q0 83 25.5 161t73.5 142.5t124.5 107.5t171.5 52l11 223h92l-10 -221q67 -5 132 -23.5t115 -55t50 -81.5q0 -37 -22.5 -59.5t-61.5 -22.5q-30 0 -59 20.5t-48.5 46t-49.5 54t-61 39.5l-30 -674q37 -6 76 -6q144 0 254 96
l24 -47q-4 -8 -12.5 -21.5t-40.5 -48t-69.5 -61t-101.5 -48t-136 -22.5l-11 -231h-92zM315 752q0 -119 46 -207.5t137 -128.5l28 653q-97 -17 -154 -108t-57 -209z" />
    <glyph glyph-name="dollar.uc" unicode="&#xe02c;" horiz-adv-x="1064" 
d="M123 215q0 25 47 184h70q0 -123 60.5 -207.5t180.5 -103.5l17 518q-8 4 -23 13q-157 86 -220 139q-126 106 -126 239q0 151 105.5 251.5t289.5 109.5l8 211h93l-9 -211q65 -2 122 -9t106 -16.5t69 -11.5l-59 -299h-70q0 197 -170 244l-18 -504q43 -22 65.5 -34.5
t61.5 -35t61.5 -39.5t52.5 -41.5t47 -48.5t34 -52.5t24.5 -61t7.5 -68.5q0 -89 -30.5 -158.5t-83.5 -114t-120.5 -69.5t-146.5 -31l-6 -211h-92l6 209q-95 4 -172 26t-129.5 69.5t-52.5 113.5zM307 1055q0 -76 52 -133t147 -111l16 467h-12q-85 0 -144 -65.5t-59 -157.5z
M772 313q0 72 -48 129.5t-134 110.5l-17 -469q84 10 141.5 69.5t57.5 159.5z" />
    <glyph glyph-name="dotlessi.smcp" unicode="&#xe033;" horiz-adv-x="602" 
d="M98 -6v59q58 6 90.5 38t32.5 83v631q0 41 -1.5 56.5t-14 33.5t-37 27t-72.5 20v45h144q70 0 119 2t63 4l14 2l8 -8q-5 -8 -13.5 -23.5t-22 -74.5t-13.5 -129v-586q0 -24 -2 -48.5t-4 -37.5l-2 -12l156 -19l-8 -51z" />
    <glyph glyph-name="florin.uc" unicode="&#xe039;" horiz-adv-x="1064" 
d="M164 702v93h278q53 374 151.5 531t285.5 157q168 0 168 -92q0 -35 -25 -56.5t-59 -21.5q-51 0 -115 31.5t-94 31.5q-24 0 -37 -13t-28.5 -72.5t-29.5 -172t-36 -323.5h301l-29 -93h-283l-6 -67q-23 -218 -51.5 -372t-66.5 -268t-90 -180.5t-118 -98t-155 -31.5
q-168 0 -168 92q0 35 25 56.5t59 21.5q51 0 115 -32t94 -32t46 17.5t36 106.5t39.5 248.5t52.5 471.5q4 42 8 67h-268z" />
    </font>
</defs>
</svg>
