<svg xmlns="http://www.w3.org/2000/svg" width="1024" height="23.297" viewBox="0 0 1024 23.297"><path d="M324.241-127.7l-13.77-7.64a.5.5,0,0,0-.6.08l-1.98,1.99-4.95-4.95a2.372,2.372,0,0,0-3.36,0,.5.5,0,0,0,0,.7.5.5,0,0,0,.71,0,1.384,1.384,0,0,1,1.53-.28l-4.89,4.88a.513.513,0,0,0,0,.71l4.95,4.95-4.95,4.94a.513.513,0,0,0,0,.71l4.88,4.87a1.354,1.354,0,0,1-1.52-.28.513.513,0,0,0-.71,0,.513.513,0,0,0,0,.71,2.4,2.4,0,0,0,1.68.69,2.354,2.354,0,0,0,1.61-.63c.02-.02.05-.04.07-.06l4.95-4.95,1.98,1.99a.543.543,0,0,0,.36.14.533.533,0,0,0,.24-.06l13.77-7.64a.509.509,0,0,0,.26-.44A.481.481,0,0,0,324.241-127.7ZM298-132.57l4.59-4.59,4.59,4.59.36-.35-4.27,4.27-.68.68Zm4.59,15.2-4.59-4.6,4.59-4.59,4.59,4.59Zm.71-9.89.7-.71,3.89-3.89,4.59,4.59-4.59,4.6Zm7.01,7.01-1.71-1.71,4.94-4.95a.491.491,0,0,0,.15-.36.469.469,0,0,0-.15-.35l-4.95-4.95,1.72-1.72,12.66,7.02Zm-3.13-12.32-3.89,3.89c-.01.01-.02.02-.02.03l4.27-4.27Zm-7.09,4.95-3.87-3.88a.513.513,0,0,0-.71,0l-3.73,3.73H-115v1H291.771l3.74,3.73a.5.5,0,0,0,.35.15.508.508,0,0,0,.36-.15l3.87-3.87A.5.5,0,0,0,300.091-127.62Zm-4.23,3.52-3.17-3.17,3.17-3.17,3.17,3.17Zm11.68-8.82-4.27,4.27c0-.01.01-.02.02-.03l3.89-3.89ZM469.5-127.27a.509.509,0,0,0,.26.44l13.77,7.64a.533.533,0,0,0,.24.06.543.543,0,0,0,.36-.14l1.98-1.99,4.95,4.95c.02.02.05.04.07.06a2.354,2.354,0,0,0,1.61.63,2.4,2.4,0,0,0,1.68-.69.513.513,0,0,0,0-.71.513.513,0,0,0-.71,0,1.354,1.354,0,0,1-1.52.28l4.88-4.87a.513.513,0,0,0,0-.71l-4.95-4.94,4.95-4.95a.513.513,0,0,0,0-.71l-4.89-4.88a1.384,1.384,0,0,1,1.53.28.5.5,0,0,0,.71,0,.5.5,0,0,0,0-.7,2.372,2.372,0,0,0-3.36,0l-4.95,4.95-1.98-1.99a.5.5,0,0,0-.6-.08l-13.77,7.64A.481.481,0,0,0,469.5-127.27Zm21.91-.7-.68-.68-4.27-4.27.36.35,4.59-4.59,4.59,4.59Zm-4.59,6,4.59-4.59,4.59,4.59-4.59,4.6Zm-.71-.7-4.59-4.6,4.59-4.59,3.89,3.89.7.71Zm-15.08-4.6,12.66-7.02,1.72,1.72-4.95,4.95a.469.469,0,0,0-.15.35.491.491,0,0,0,.15.36l4.94,4.95-1.71,1.71Zm15.43-5.65,4.27,4.27c0-.01-.01-.02-.02-.03l-3.89-3.89Zm7.45,6.01,3.87,3.87a.508.508,0,0,0,.36.15.5.5,0,0,0,.35-.15l3.74-3.73H909v-1H502.223l-3.73-3.73a.513.513,0,0,0-.71,0l-3.87,3.88A.5.5,0,0,0,493.913-126.91Zm1.06-.36,3.17-3.17,3.17,3.17-3.17,3.17Zm-8.15-5.3,3.89,3.89c.01.01.02.02.02.03l-4.27-4.27Z" transform="translate(114.998 138.917)" fill="#7a8299"/></svg>