<svg xmlns="http://www.w3.org/2000/svg" width="1920" height="31.002" viewBox="0 0 1920 31.002"><path d="M859.8,499.38,841.256,489.1a.5.5,0,0,0-.6.084l-2.794,2.794-6.782-6.782a3.1,3.1,0,0,0-4.277,0,.5.5,0,0,0,.709.709,2.075,2.075,0,0,1,2.452-.3l-6.729,6.729a.5.5,0,0,0,0,.707l0,0,6.783,6.783-6.783,6.783a.5.5,0,0,0,0,.707l0,0,6.729,6.729a2.077,2.077,0,0,1-2.452-.3.5.5,0,0,0-.709.709,3.024,3.024,0,0,0,4.277,0h0l6.782-6.782,2.794,2.793a.5.5,0,0,0,.6.084L859.8,500.26a.5.5,0,0,0,0-.876Zm-21.935,6.868-6.428-6.429,6.428-6.427,6.429,6.427Zm-7.137-19.994,6.428,6.427-5.363,5.363h0l-1.065,1.064-6.428-6.427Zm0,27.131-6.428-6.428,6.428-6.429,6.428,6.429Zm10.371-3.9-2.526-2.526,6.783-6.783a.5.5,0,0,0,0-.707l0,0-6.784-6.783,2.527-2.527,17.424,9.663ZM0,500.5H816.619l4.793,4.794a.5.5,0,0,0,.707,0l4.95-4.95a.5.5,0,0,0,0-.707l-4.95-4.949a.514.514,0,0,0-.707,0L816.6,499.5H0Zm817.523-.509,4.243-4.243,4.243,4.243-4.243,4.242Zm242.676-.607a.5.5,0,0,0,0,.876l18.545,10.286a.5.5,0,0,0,.6-.084l2.794-2.793,6.782,6.782h0a3.024,3.024,0,0,0,4.277,0,.5.5,0,0,0-.709-.709,2.077,2.077,0,0,1-2.452.3l6.729-6.729,0,0a.5.5,0,0,0,0-.707l-6.783-6.783,6.783-6.783,0,0a.5.5,0,0,0,0-.707l-6.729-6.729a2.075,2.075,0,0,1,2.452.3.5.5,0,0,0,.709-.709,3.1,3.1,0,0,0-4.277,0l-6.782,6.782-2.794-2.794a.5.5,0,0,0-.6-.084L1060.2,499.38Zm15.507.435,6.429-6.427,6.428,6.427-6.428,6.429Zm19.994-7.138-6.428,6.427-1.065-1.064h0l-5.363-5.363,6.428-6.427Zm-12.856,14.276,6.428-6.429,6.428,6.429-6.428,6.428Zm-21.367-7.137,17.424-9.663,2.527,2.527-6.784,6.783,0,0a.5.5,0,0,0,0,.707l6.783,6.783-2.526,2.526ZM1920,499.5H1103.4l-4.812-4.812a.514.514,0,0,0-.707,0l-4.95,4.949a.5.5,0,0,0,0,.707l4.95,4.95a.5.5,0,0,0,.707,0l4.793-4.794H1920Zm-821.766,4.733-4.243-4.242,4.243-4.243,4.243,4.243Z" transform="translate(0 -484.335)" fill="#474f66"/></svg>