<svg id="Camada_1" data-name="Camada 1" xmlns="http://www.w3.org/2000/svg" viewBox="0 0 1920 72.33"><defs><style>.cls-1{fill:#474f66;}</style></defs><path class="cls-1" d="M1009.64,0,998.9,10.74,988.15,0,960,28.15,931.85,0,921.11,10.74,910.37,0H0V1H888.47l21.4,21.4V43.68a9.38,9.38,0,0,0,9.38,9.38.5.5,0,0,0,.5-.5.5.5,0,0,0-.5-.5,8.38,8.38,0,0,1-8.37-8.19l10.23-10.23,38.54,38.54a.5.5,0,0,0,.71,0L998.9,33.64l10.23,10.23a8.39,8.39,0,0,1-8.38,8.19.5.5,0,0,0-.5.5.5.5,0,0,0,.5.5,9.4,9.4,0,0,0,9.39-9.38V22.4L1031.54,1H1920V0ZM988.15,1.41l10,10-10,10-5-5-5-5ZM977.41,12.16l5,5,5,5-10,10-10-10ZM959.65,29.21a.5.5,0,0,0,.71,0l6.31-6.31,10,10L960,49.63l-16.7-16.7,10-10Zm-7-7-10,10-10-10,5-5,5-5ZM931.85,1.41l10,10-5,5-5,5-10-10Zm-21,41.06V23.4l9.54,9.53Zm-.14-20.63h0L889.88,1H910l10.8,10.8h0l10.39,10.39-10,10Zm21.13,1.06,10,10c-9.8,9.47-17,3-20.06,0ZM960,71.12,926.53,37.65a11.9,11.9,0,0,0,5.2,1.23c3.16,0,6.82-1.34,10.86-5.25l17.06,17.06a.5.5,0,0,0,.71,0l17.06-17.06c4,3.91,7.7,5.25,10.86,5.25a11.9,11.9,0,0,0,5.2-1.23Zm18.13-38.2,10-10,10,10c-3.05,3-10.27,9.46-20.06,0Zm31,9.55-9.54-9.54,9.54-9.53Zm.15-20.64h0L998.89,32.22l-10-10L999.25,11.8h0L1010.05,1h20.07Z"/></svg>